<svg height="205.0" width="205.0" xmlns="http://www.w3.org/2000/svg">
    <g id="grid">
        <!--Grid-->
        <line stroke="#00ff00" stroke-width="0.2" x1="102.5" x2="102.5" y1="0" y2="205.0"/>
        <line stroke="#00ff00" stroke-dasharray="1,1" stroke-width="0.2" x1="112.5" x2="112.5" y1="0" y2="205"/>
        <line stroke="#00ff00" stroke-dasharray="1,1" stroke-width="0.2" x1="92.5" x2="92.5" y1="0" y2="205"/>
        <line stroke="#00ff00" stroke-dasharray="1,1" stroke-width="0.2" x1="122.5" x2="122.5" y1="0" y2="205"/>
        <line stroke="#00ff00" stroke-dasharray="1,1" stroke-width="0.2" x1="82.5" x2="82.5" y1="0" y2="205"/>
        <line stroke="#00ff00" stroke-dasharray="1,1" stroke-width="0.2" x1="132.5" x2="132.5" y1="0" y2="205"/>
        <line stroke="#00ff00" stroke-dasharray="1,1" stroke-width="0.2" x1="72.5" x2="72.5" y1="0" y2="205"/>
        <line stroke="#00ff00" stroke-dasharray="1,1" stroke-width="0.2" x1="142.5" x2="142.5" y1="0" y2="205"/>
        <line stroke="#00ff00" stroke-dasharray="1,1" stroke-width="0.2" x1="62.5" x2="62.5" y1="0" y2="205"/>
        <line stroke="#00ff00" stroke-dasharray="1,1" stroke-width="0.2" x1="152.5" x2="152.5" y1="0" y2="205"/>
        <line stroke="#00ff00" stroke-dasharray="1,1" stroke-width="0.2" x1="52.5" x2="52.5" y1="0" y2="205"/>
        <line stroke="#00ff00" stroke-dasharray="1,1" stroke-width="0.2" x1="162.5" x2="162.5" y1="0" y2="205"/>
        <line stroke="#00ff00" stroke-dasharray="1,1" stroke-width="0.2" x1="42.5" x2="42.5" y1="0" y2="205"/>
        <line stroke="#00ff00" stroke-dasharray="1,1" stroke-width="0.2" x1="172.5" x2="172.5" y1="0" y2="205"/>
        <line stroke="#00ff00" stroke-dasharray="1,1" stroke-width="0.2" x1="32.5" x2="32.5" y1="0" y2="205"/>
        <line stroke="#00ff00" stroke-dasharray="1,1" stroke-width="0.2" x1="182.5" x2="182.5" y1="0" y2="205"/>
        <line stroke="#00ff00" stroke-dasharray="1,1" stroke-width="0.2" x1="22.5" x2="22.5" y1="0" y2="205"/>
        <line stroke="#00ff00" stroke-dasharray="1,1" stroke-width="0.2" x1="192.5" x2="192.5" y1="0" y2="205"/>
        <line stroke="#00ff00" stroke-dasharray="1,1" stroke-width="0.2" x1="12.5" x2="12.5" y1="0" y2="205"/>
        <line stroke="#00ff00" stroke-dasharray="1,1" stroke-width="0.2" x1="202.5" x2="202.5" y1="0" y2="205"/>
        <line stroke="#00ff00" stroke-dasharray="1,1" stroke-width="0.2" x1="2.5" x2="2.5" y1="0" y2="205"/>
        <line stroke="#00ff00" stroke-dasharray="1,1" stroke-width="0.2" x1="212.5" x2="212.5" y1="0" y2="205"/>
        <line stroke="#00ff00" stroke-dasharray="1,1" stroke-width="0.2" x1="-7.5" x2="-7.5" y1="0" y2="205"/>
        <line stroke="#00ff00" stroke-width="0.2" x1="0" x2="205.0" y1="102.5" y2="102.5"/>
        <line stroke="#00ff00" stroke-dasharray="1,1" stroke-width="0.2" x1="0" x2="205" y1="112.5" y2="112.5"/>
        <line stroke="#00ff00" stroke-dasharray="1,1" stroke-width="0.2" x1="0" x2="205" y1="92.5" y2="92.5"/>
        <line stroke="#00ff00" stroke-dasharray="1,1" stroke-width="0.2" x1="0" x2="205" y1="122.5" y2="122.5"/>
        <line stroke="#00ff00" stroke-dasharray="1,1" stroke-width="0.2" x1="0" x2="205" y1="82.5" y2="82.5"/>
        <line stroke="#00ff00" stroke-dasharray="1,1" stroke-width="0.2" x1="0" x2="205" y1="132.5" y2="132.5"/>
        <line stroke="#00ff00" stroke-dasharray="1,1" stroke-width="0.2" x1="0" x2="205" y1="72.5" y2="72.5"/>
        <line stroke="#00ff00" stroke-dasharray="1,1" stroke-width="0.2" x1="0" x2="205" y1="142.5" y2="142.5"/>
        <line stroke="#00ff00" stroke-dasharray="1,1" stroke-width="0.2" x1="0" x2="205" y1="62.5" y2="62.5"/>
        <line stroke="#00ff00" stroke-dasharray="1,1" stroke-width="0.2" x1="0" x2="205" y1="152.5" y2="152.5"/>
        <line stroke="#00ff00" stroke-dasharray="1,1" stroke-width="0.2" x1="0" x2="205" y1="52.5" y2="52.5"/>
        <line stroke="#00ff00" stroke-dasharray="1,1" stroke-width="0.2" x1="0" x2="205" y1="162.5" y2="162.5"/>
        <line stroke="#00ff00" stroke-dasharray="1,1" stroke-width="0.2" x1="0" x2="205" y1="42.5" y2="42.5"/>
        <line stroke="#00ff00" stroke-dasharray="1,1" stroke-width="0.2" x1="0" x2="205" y1="172.5" y2="172.5"/>
        <line stroke="#00ff00" stroke-dasharray="1,1" stroke-width="0.2" x1="0" x2="205" y1="32.5" y2="32.5"/>
        <line stroke="#00ff00" stroke-dasharray="1,1" stroke-width="0.2" x1="0" x2="205" y1="182.5" y2="182.5"/>
        <line stroke="#00ff00" stroke-dasharray="1,1" stroke-width="0.2" x1="0" x2="205" y1="22.5" y2="22.5"/>
        <line stroke="#00ff00" stroke-dasharray="1,1" stroke-width="0.2" x1="0" x2="205" y1="192.5" y2="192.5"/>
        <line stroke="#00ff00" stroke-dasharray="1,1" stroke-width="0.2" x1="0" x2="205" y1="12.5" y2="12.5"/>
        <line stroke="#00ff00" stroke-dasharray="1,1" stroke-width="0.2" x1="0" x2="205" y1="202.5" y2="202.5"/>
        <line stroke="#00ff00" stroke-dasharray="1,1" stroke-width="0.2" x1="0" x2="205" y1="2.5" y2="2.5"/>
        <line stroke="#00ff00" stroke-dasharray="1,1" stroke-width="0.2" x1="0" x2="205" y1="212.5" y2="212.5"/>
        <line stroke="#00ff00" stroke-dasharray="1,1" stroke-width="0.2" x1="0" x2="205" y1="-7.5" y2="-7.5"/>
        <line stroke="#00ff00" stroke-dasharray="1,1" stroke-width="0.2" x1="0" x2="205" y1="222.5" y2="222.5"/>
        <line stroke="#00ff00" stroke-dasharray="1,1" stroke-width="0.2" x1="0" x2="205" y1="-17.5" y2="-17.5"/>
        <line stroke="#00ff00" stroke-dasharray="1,1" stroke-width="0.2" x1="0" x2="205" y1="232.5" y2="232.5"/>
        <line stroke="#00ff00" stroke-dasharray="1,1" stroke-width="0.2" x1="0" x2="205" y1="-27.5" y2="-27.5"/>
        <line stroke="#00ff00" stroke-dasharray="1,1" stroke-width="0.2" x1="0" x2="205" y1="242.5" y2="242.5"/>
        <line stroke="#00ff00" stroke-dasharray="1,1" stroke-width="0.2" x1="0" x2="205" y1="-37.5" y2="-37.5"/>
        <line stroke="#00ff00" stroke-dasharray="1,1" stroke-width="0.2" x1="0" x2="205" y1="252.5" y2="252.5"/>
        <line stroke="#00ff00" stroke-dasharray="1,1" stroke-width="0.2" x1="0" x2="205" y1="-47.5" y2="-47.5"/>
        <line stroke="#00ff00" stroke-dasharray="1,1" stroke-width="0.2" x1="0" x2="205" y1="262.5" y2="262.5"/>
        <line stroke="#00ff00" stroke-dasharray="1,1" stroke-width="0.2" x1="0" x2="205" y1="-57.5" y2="-57.5"/>
        <line stroke="#00ff00" stroke-dasharray="1,1" stroke-width="0.2" x1="0" x2="205" y1="272.5" y2="272.5"/>
        <line stroke="#00ff00" stroke-dasharray="1,1" stroke-width="0.2" x1="0" x2="205" y1="-67.5" y2="-67.5"/>
        <line stroke="#00ff00" stroke-dasharray="1,1" stroke-width="0.2" x1="0" x2="205" y1="282.5" y2="282.5"/>
        <line stroke="#00ff00" stroke-dasharray="1,1" stroke-width="0.2" x1="0" x2="205" y1="-77.5" y2="-77.5"/>
        <line stroke="#00ff00" stroke-dasharray="1,1" stroke-width="0.2" x1="0" x2="205" y1="292.5" y2="292.5"/>
        <line stroke="#00ff00" stroke-dasharray="1,1" stroke-width="0.2" x1="0" x2="205" y1="-87.5" y2="-87.5"/>
        <line stroke="#00ff00" stroke-dasharray="1,1" stroke-width="0.2" x1="0" x2="205" y1="302.5" y2="302.5"/>
        <line stroke="#00ff00" stroke-dasharray="1,1" stroke-width="0.2" x1="0" x2="205" y1="-97.5" y2="-97.5"/>
        <line stroke="#00ff00" stroke-dasharray="1,1" stroke-width="0.2" x1="0" x2="205" y1="312.5" y2="312.5"/>
        <line stroke="#00ff00" stroke-dasharray="1,1" stroke-width="0.2" x1="0" x2="205" y1="-107.5" y2="-107.5"/>
    </g>
    <g>
        <text fill="blue" font-size="4.0" id="info" x="0" y="0">
            <tspan dy="4.0" x="0">{12}, size: 51.76380902050415</tspan>
            <tspan dy="4.0" x="0">area: 3·10⁴</tspan>
            <tspan dy="4.0" x="0">perimeter: 621.1657082460498</tspan>
            <tspan dy="4.0" x="0"># edges: 12</tspan>
            <tspan dy="4.0" x="0"># vertices: 12</tspan>
        </text>
    </g>
    <g>
        <polygon fill="none" points="199.09258262890683,76.61809548974793 199.09258262890683,128.38190451025207 173.21067811865476,173.21067811865476 128.38190451025207,199.09258262890683 76.61809548974793,199.09258262890683 31.789321881345288,173.21067811865478 5.9074173710931746,128.3819045102521 5.90741737109316,76.61809548974796 31.789321881345217,31.789321881345288 76.61809548974793,5.9074173710931746 128.381904510252,5.90741737109316 173.21067811865476,31.78932188134523" stroke="black" stroke-width="1"/>
        <!--Dot showing the first vertex-->
        <circle cx="199.09258262890683" cy="76.61809548974793" fill="#ff0000" r="1.1"/>
        <!--Inscribed circle of {12}, size: 51.76380902050415-->
        <circle cx="102.5" cy="102.5" fill="none" r="96.59258262890684" stroke="black" stroke-dasharray="1,1" stroke-opacity="0.3" stroke-width="0.2"/>
        <!--Circumscribed circle of {12}, size: 51.76380902050415-->
        <circle cx="102.5" cy="102.5" fill="none" r="100.0" stroke="black" stroke-dasharray="1,1" stroke-opacity="0.3" stroke-width="0.2"/>
    </g>
</svg>
