<svg height="205.0" width="205.0" xmlns="http://www.w3.org/2000/svg">
    <g transform="translate(102.5,102.5)">
        <g id="grid">
            <!--Grid-->
            <line stroke="#00ff00" stroke-width="0.2" x1="0" x2="0" y1="-102.5" y2="102.5"/>
            <line stroke="#00ff00" stroke-dasharray="1,1" stroke-width="0.2" x1="10.0" x2="10.0" y1="-102.5" y2="102.5"/>
            <line stroke="#00ff00" stroke-dasharray="1,1" stroke-width="0.2" x1="-10.0" x2="-10.0" y1="-102.5" y2="102.5"/>
            <line stroke="#00ff00" stroke-dasharray="1,1" stroke-width="0.2" x1="20.0" x2="20.0" y1="-102.5" y2="102.5"/>
            <line stroke="#00ff00" stroke-dasharray="1,1" stroke-width="0.2" x1="-20.0" x2="-20.0" y1="-102.5" y2="102.5"/>
            <line stroke="#00ff00" stroke-dasharray="1,1" stroke-width="0.2" x1="30.0" x2="30.0" y1="-102.5" y2="102.5"/>
            <line stroke="#00ff00" stroke-dasharray="1,1" stroke-width="0.2" x1="-30.0" x2="-30.0" y1="-102.5" y2="102.5"/>
            <line stroke="#00ff00" stroke-dasharray="1,1" stroke-width="0.2" x1="40.0" x2="40.0" y1="-102.5" y2="102.5"/>
            <line stroke="#00ff00" stroke-dasharray="1,1" stroke-width="0.2" x1="-40.0" x2="-40.0" y1="-102.5" y2="102.5"/>
            <line stroke="#00ff00" stroke-dasharray="1,1" stroke-width="0.2" x1="50.0" x2="50.0" y1="-102.5" y2="102.5"/>
            <line stroke="#00ff00" stroke-dasharray="1,1" stroke-width="0.2" x1="-50.0" x2="-50.0" y1="-102.5" y2="102.5"/>
            <line stroke="#00ff00" stroke-dasharray="1,1" stroke-width="0.2" x1="60.0" x2="60.0" y1="-102.5" y2="102.5"/>
            <line stroke="#00ff00" stroke-dasharray="1,1" stroke-width="0.2" x1="-60.0" x2="-60.0" y1="-102.5" y2="102.5"/>
            <line stroke="#00ff00" stroke-dasharray="1,1" stroke-width="0.2" x1="70.0" x2="70.0" y1="-102.5" y2="102.5"/>
            <line stroke="#00ff00" stroke-dasharray="1,1" stroke-width="0.2" x1="-70.0" x2="-70.0" y1="-102.5" y2="102.5"/>
            <line stroke="#00ff00" stroke-dasharray="1,1" stroke-width="0.2" x1="80.0" x2="80.0" y1="-102.5" y2="102.5"/>
            <line stroke="#00ff00" stroke-dasharray="1,1" stroke-width="0.2" x1="-80.0" x2="-80.0" y1="-102.5" y2="102.5"/>
            <line stroke="#00ff00" stroke-dasharray="1,1" stroke-width="0.2" x1="90.0" x2="90.0" y1="-102.5" y2="102.5"/>
            <line stroke="#00ff00" stroke-dasharray="1,1" stroke-width="0.2" x1="-90.0" x2="-90.0" y1="-102.5" y2="102.5"/>
            <line stroke="#00ff00" stroke-dasharray="1,1" stroke-width="0.2" x1="100.0" x2="100.0" y1="-102.5" y2="102.5"/>
            <line stroke="#00ff00" stroke-dasharray="1,1" stroke-width="0.2" x1="-100.0" x2="-100.0" y1="-102.5" y2="102.5"/>
            <line stroke="#00ff00" stroke-dasharray="1,1" stroke-width="0.2" x1="110.0" x2="110.0" y1="-102.5" y2="102.5"/>
            <line stroke="#00ff00" stroke-dasharray="1,1" stroke-width="0.2" x1="-110.0" x2="-110.0" y1="-102.5" y2="102.5"/>
            <line stroke="#00ff00" stroke-width="0.2" x1="-102.5" x2="102.5" y1="0" y2="0"/>
            <line stroke="#00ff00" stroke-dasharray="1,1" stroke-width="0.2" x1="-102.5" x2="102.5" y1="10.0" y2="10.0"/>
            <line stroke="#00ff00" stroke-dasharray="1,1" stroke-width="0.2" x1="-102.5" x2="102.5" y1="-10.0" y2="-10.0"/>
            <line stroke="#00ff00" stroke-dasharray="1,1" stroke-width="0.2" x1="-102.5" x2="102.5" y1="20.0" y2="20.0"/>
            <line stroke="#00ff00" stroke-dasharray="1,1" stroke-width="0.2" x1="-102.5" x2="102.5" y1="-20.0" y2="-20.0"/>
            <line stroke="#00ff00" stroke-dasharray="1,1" stroke-width="0.2" x1="-102.5" x2="102.5" y1="30.0" y2="30.0"/>
            <line stroke="#00ff00" stroke-dasharray="1,1" stroke-width="0.2" x1="-102.5" x2="102.5" y1="-30.0" y2="-30.0"/>
            <line stroke="#00ff00" stroke-dasharray="1,1" stroke-width="0.2" x1="-102.5" x2="102.5" y1="40.0" y2="40.0"/>
            <line stroke="#00ff00" stroke-dasharray="1,1" stroke-width="0.2" x1="-102.5" x2="102.5" y1="-40.0" y2="-40.0"/>
            <line stroke="#00ff00" stroke-dasharray="1,1" stroke-width="0.2" x1="-102.5" x2="102.5" y1="50.0" y2="50.0"/>
            <line stroke="#00ff00" stroke-dasharray="1,1" stroke-width="0.2" x1="-102.5" x2="102.5" y1="-50.0" y2="-50.0"/>
            <line stroke="#00ff00" stroke-dasharray="1,1" stroke-width="0.2" x1="-102.5" x2="102.5" y1="60.0" y2="60.0"/>
            <line stroke="#00ff00" stroke-dasharray="1,1" stroke-width="0.2" x1="-102.5" x2="102.5" y1="-60.0" y2="-60.0"/>
            <line stroke="#00ff00" stroke-dasharray="1,1" stroke-width="0.2" x1="-102.5" x2="102.5" y1="70.0" y2="70.0"/>
            <line stroke="#00ff00" stroke-dasharray="1,1" stroke-width="0.2" x1="-102.5" x2="102.5" y1="-70.0" y2="-70.0"/>
            <line stroke="#00ff00" stroke-dasharray="1,1" stroke-width="0.2" x1="-102.5" x2="102.5" y1="80.0" y2="80.0"/>
            <line stroke="#00ff00" stroke-dasharray="1,1" stroke-width="0.2" x1="-102.5" x2="102.5" y1="-80.0" y2="-80.0"/>
            <line stroke="#00ff00" stroke-dasharray="1,1" stroke-width="0.2" x1="-102.5" x2="102.5" y1="90.0" y2="90.0"/>
            <line stroke="#00ff00" stroke-dasharray="1,1" stroke-width="0.2" x1="-102.5" x2="102.5" y1="-90.0" y2="-90.0"/>
            <line stroke="#00ff00" stroke-dasharray="1,1" stroke-width="0.2" x1="-102.5" x2="102.5" y1="100.0" y2="100.0"/>
            <line stroke="#00ff00" stroke-dasharray="1,1" stroke-width="0.2" x1="-102.5" x2="102.5" y1="-100.0" y2="-100.0"/>
            <line stroke="#00ff00" stroke-dasharray="1,1" stroke-width="0.2" x1="-102.5" x2="102.5" y1="110.0" y2="110.0"/>
            <line stroke="#00ff00" stroke-dasharray="1,1" stroke-width="0.2" x1="-102.5" x2="102.5" y1="-110.0" y2="-110.0"/>
            <line stroke="#00ff00" stroke-dasharray="1,1" stroke-width="0.2" x1="-102.5" x2="102.5" y1="120.0" y2="120.0"/>
            <line stroke="#00ff00" stroke-dasharray="1,1" stroke-width="0.2" x1="-102.5" x2="102.5" y1="-120.0" y2="-120.0"/>
            <line stroke="#00ff00" stroke-dasharray="1,1" stroke-width="0.2" x1="-102.5" x2="102.5" y1="130.0" y2="130.0"/>
            <line stroke="#00ff00" stroke-dasharray="1,1" stroke-width="0.2" x1="-102.5" x2="102.5" y1="-130.0" y2="-130.0"/>
            <line stroke="#00ff00" stroke-dasharray="1,1" stroke-width="0.2" x1="-102.5" x2="102.5" y1="140.0" y2="140.0"/>
            <line stroke="#00ff00" stroke-dasharray="1,1" stroke-width="0.2" x1="-102.5" x2="102.5" y1="-140.0" y2="-140.0"/>
            <line stroke="#00ff00" stroke-dasharray="1,1" stroke-width="0.2" x1="-102.5" x2="102.5" y1="150.0" y2="150.0"/>
            <line stroke="#00ff00" stroke-dasharray="1,1" stroke-width="0.2" x1="-102.5" x2="102.5" y1="-150.0" y2="-150.0"/>
            <line stroke="#00ff00" stroke-dasharray="1,1" stroke-width="0.2" x1="-102.5" x2="102.5" y1="160.0" y2="160.0"/>
            <line stroke="#00ff00" stroke-dasharray="1,1" stroke-width="0.2" x1="-102.5" x2="102.5" y1="-160.0" y2="-160.0"/>
            <line stroke="#00ff00" stroke-dasharray="1,1" stroke-width="0.2" x1="-102.5" x2="102.5" y1="170.0" y2="170.0"/>
            <line stroke="#00ff00" stroke-dasharray="1,1" stroke-width="0.2" x1="-102.5" x2="102.5" y1="-170.0" y2="-170.0"/>
            <line stroke="#00ff00" stroke-dasharray="1,1" stroke-width="0.2" x1="-102.5" x2="102.5" y1="180.0" y2="180.0"/>
            <line stroke="#00ff00" stroke-dasharray="1,1" stroke-width="0.2" x1="-102.5" x2="102.5" y1="-180.0" y2="-180.0"/>
            <line stroke="#00ff00" stroke-dasharray="1,1" stroke-width="0.2" x1="-102.5" x2="102.5" y1="190.0" y2="190.0"/>
            <line stroke="#00ff00" stroke-dasharray="1,1" stroke-width="0.2" x1="-102.5" x2="102.5" y1="-190.0" y2="-190.0"/>
            <line stroke="#00ff00" stroke-dasharray="1,1" stroke-width="0.2" x1="-102.5" x2="102.5" y1="200.0" y2="200.0"/>
            <line stroke="#00ff00" stroke-dasharray="1,1" stroke-width="0.2" x1="-102.5" x2="102.5" y1="-200.0" y2="-200.0"/>
            <line stroke="#00ff00" stroke-dasharray="1,1" stroke-width="0.2" x1="-102.5" x2="102.5" y1="210.0" y2="210.0"/>
            <line stroke="#00ff00" stroke-dasharray="1,1" stroke-width="0.2" x1="-102.5" x2="102.5" y1="-210.0" y2="-210.0"/>
        </g>
        <g>
            <polygon fill="none" points="98.07852804032305,-19.509032201612825 98.07852804032305,19.509032201612825 83.14696123025452,55.557023301960214 55.55702330196023,83.14696123025452 19.509032201612833,98.07852804032305 -19.50903220161282,98.07852804032305 -55.55702330196019,83.14696123025453 -83.14696123025453,55.557023301960214 -98.07852804032305,19.50903220161286 -98.07852804032305,-19.509032201612836 -83.14696123025455,-55.55702330196019 -55.55702330196029,-83.14696123025448 -19.509032201612868,-98.07852804032305 19.50903220161283,-98.07852804032305 55.557023301960186,-83.14696123025455 83.14696123025446,-55.55702330196029" stroke="black" stroke-width="1"/>
            <!--Dot showing the first vertex-->
            <circle cx="98.07852804032305" cy="-19.509032201612825" fill="#ff0000" r="1.1"/>
            <!--Inscribed circle of {16}, size: 39.01806440322565-->
            <circle fill="none" r="98.07852804032305" stroke="black" stroke-dasharray="1,1" stroke-opacity="0.3" stroke-width="0.2"/>
            <!--Circumscribed circle of {16}, size: 39.01806440322565-->
            <circle fill="none" r="100.0" stroke="black" stroke-dasharray="1,1" stroke-opacity="0.3" stroke-width="0.2"/>
            <!--Circumscribed rectangle of {16}, size: 39.01806440322565-->
            <rect fill="none" height="196.1570560806461" stroke="blue" stroke-dasharray="2,1" stroke-opacity="0.3" stroke-width="0.6" width="196.1570560806461" x="-98.07852804032305" y="-98.07852804032305"/>
        </g>
    </g>
    <g>
        <text fill="blue" font-size="4.0" id="info" x="0" y="0">
            <tspan dy="4.0" x="0">{16}, size: 39.01806440322565</tspan>
            <tspan dy="4.0" x="0">area: 3.06146745892072·10⁴</tspan>
            <tspan dy="4.0" x="0">perimeter: 624.2890304516104</tspan>
            <tspan dy="4.0" x="0">⬚: Rectangle{196.1570560806461x196.1570560806461}</tspan>
            <tspan dy="4.0" x="0">◌: Circle{100}</tspan>
            <tspan dy="4.0" x="0"># edges: 16</tspan>
            <tspan dy="4.0" x="0"># vertices: 16</tspan>
        </text>
    </g>
</svg>
