<svg height="200" width="200" xmlns="http://www.w3.org/2000/svg">
    <g>
        <!--Grid-->
        <line stroke="#00ff00" stroke-dasharray="1,1" stroke-width="0.2" x1="0" x2="0" y1="0" y2="200"/>
        <line stroke="#00ff00" stroke-dasharray="1,1" stroke-width="0.2" x1="10" x2="10" y1="0" y2="200"/>
        <line stroke="#00ff00" stroke-dasharray="1,1" stroke-width="0.2" x1="20" x2="20" y1="0" y2="200"/>
        <line stroke="#00ff00" stroke-dasharray="1,1" stroke-width="0.2" x1="30" x2="30" y1="0" y2="200"/>
        <line stroke="#00ff00" stroke-dasharray="1,1" stroke-width="0.2" x1="40" x2="40" y1="0" y2="200"/>
        <line stroke="#00ff00" stroke-dasharray="1,1" stroke-width="0.2" x1="50" x2="50" y1="0" y2="200"/>
        <line stroke="#00ff00" stroke-dasharray="1,1" stroke-width="0.2" x1="60" x2="60" y1="0" y2="200"/>
        <line stroke="#00ff00" stroke-dasharray="1,1" stroke-width="0.2" x1="70" x2="70" y1="0" y2="200"/>
        <line stroke="#00ff00" stroke-dasharray="1,1" stroke-width="0.2" x1="80" x2="80" y1="0" y2="200"/>
        <line stroke="#00ff00" stroke-dasharray="1,1" stroke-width="0.2" x1="90" x2="90" y1="0" y2="200"/>
        <line stroke="#00ff00" stroke-width="0.2" x1="100" x2="100" y1="0" y2="200"/>
        <line stroke="#00ff00" stroke-dasharray="1,1" stroke-width="0.2" x1="110" x2="110" y1="0" y2="200"/>
        <line stroke="#00ff00" stroke-dasharray="1,1" stroke-width="0.2" x1="120" x2="120" y1="0" y2="200"/>
        <line stroke="#00ff00" stroke-dasharray="1,1" stroke-width="0.2" x1="130" x2="130" y1="0" y2="200"/>
        <line stroke="#00ff00" stroke-dasharray="1,1" stroke-width="0.2" x1="140" x2="140" y1="0" y2="200"/>
        <line stroke="#00ff00" stroke-dasharray="1,1" stroke-width="0.2" x1="150" x2="150" y1="0" y2="200"/>
        <line stroke="#00ff00" stroke-dasharray="1,1" stroke-width="0.2" x1="160" x2="160" y1="0" y2="200"/>
        <line stroke="#00ff00" stroke-dasharray="1,1" stroke-width="0.2" x1="170" x2="170" y1="0" y2="200"/>
        <line stroke="#00ff00" stroke-dasharray="1,1" stroke-width="0.2" x1="180" x2="180" y1="0" y2="200"/>
        <line stroke="#00ff00" stroke-dasharray="1,1" stroke-width="0.2" x1="190" x2="190" y1="0" y2="200"/>
        <line stroke="#00ff00" stroke-dasharray="1,1" stroke-width="0.2" x1="0" x2="200" y1="0" y2="0"/>
        <line stroke="#00ff00" stroke-dasharray="1,1" stroke-width="0.2" x1="0" x2="200" y1="10" y2="10"/>
        <line stroke="#00ff00" stroke-dasharray="1,1" stroke-width="0.2" x1="0" x2="200" y1="20" y2="20"/>
        <line stroke="#00ff00" stroke-dasharray="1,1" stroke-width="0.2" x1="0" x2="200" y1="30" y2="30"/>
        <line stroke="#00ff00" stroke-dasharray="1,1" stroke-width="0.2" x1="0" x2="200" y1="40" y2="40"/>
        <line stroke="#00ff00" stroke-dasharray="1,1" stroke-width="0.2" x1="0" x2="200" y1="50" y2="50"/>
        <line stroke="#00ff00" stroke-dasharray="1,1" stroke-width="0.2" x1="0" x2="200" y1="60" y2="60"/>
        <line stroke="#00ff00" stroke-dasharray="1,1" stroke-width="0.2" x1="0" x2="200" y1="70" y2="70"/>
        <line stroke="#00ff00" stroke-dasharray="1,1" stroke-width="0.2" x1="0" x2="200" y1="80" y2="80"/>
        <line stroke="#00ff00" stroke-dasharray="1,1" stroke-width="0.2" x1="0" x2="200" y1="90" y2="90"/>
        <line stroke="#00ff00" stroke-width="0.2" x1="0" x2="200" y1="100" y2="100"/>
        <line stroke="#00ff00" stroke-dasharray="1,1" stroke-width="0.2" x1="0" x2="200" y1="110" y2="110"/>
        <line stroke="#00ff00" stroke-dasharray="1,1" stroke-width="0.2" x1="0" x2="200" y1="120" y2="120"/>
        <line stroke="#00ff00" stroke-dasharray="1,1" stroke-width="0.2" x1="0" x2="200" y1="130" y2="130"/>
        <line stroke="#00ff00" stroke-dasharray="1,1" stroke-width="0.2" x1="0" x2="200" y1="140" y2="140"/>
        <line stroke="#00ff00" stroke-dasharray="1,1" stroke-width="0.2" x1="0" x2="200" y1="150" y2="150"/>
        <line stroke="#00ff00" stroke-dasharray="1,1" stroke-width="0.2" x1="0" x2="200" y1="160" y2="160"/>
        <line stroke="#00ff00" stroke-dasharray="1,1" stroke-width="0.2" x1="0" x2="200" y1="170" y2="170"/>
        <line stroke="#00ff00" stroke-dasharray="1,1" stroke-width="0.2" x1="0" x2="200" y1="180" y2="180"/>
        <line stroke="#00ff00" stroke-dasharray="1,1" stroke-width="0.2" x1="0" x2="200" y1="190" y2="190"/>
    </g>
    <g>
        <polygon fill="none" points="198.07852804032305,80.49096779838717 198.07852804032305,119.50903220161283 183.14696123025453,155.55702330196021 155.55702330196021,183.14696123025453 119.50903220161283,198.07852804032305 80.49096779838717,198.07852804032305 44.44297669803981,183.14696123025453 16.853038769745467,155.55702330196021 1.9214719596769498,119.50903220161285 1.9214719596769498,80.49096779838716 16.853038769745453,44.44297669803981 44.44297669803971,16.853038769745524 80.49096779838713,1.9214719596769498 119.50903220161283,1.9214719596769498 155.5570233019602,16.853038769745453 183.14696123025448,44.44297669803971" stroke="black" stroke-width="1"/>
        <!--Dot showing the first vertex-->
        <circle cx="198.07852804032305" cy="80.49096779838717" fill="#ff0000" r="1.1"/>
        <!--Circumscribed circle of {16}, size: 39.01806440322565-->
        <circle cx="100.0" cy="100.0" fill="none" r="100.0" stroke="black" stroke-dasharray="1,1" stroke-opacity="0.3" stroke-width="0.2"/>
        <!--Inscribed circle of {16}, size: 39.01806440322565-->
        <circle cx="100.0" cy="100.0" fill="none" r="98.07852804032305" stroke="black" stroke-dasharray="1,1" stroke-opacity="0.3" stroke-width="0.2"/>
    </g>
</svg>
