<svg height="205.0" width="205.0" xmlns="http://www.w3.org/2000/svg">
    <g>
        <text fill="blue" font-size="4.0" id="info" x="0" y="0">
            <tspan dy="4.0" x="0">{18}, size: 34.72963553338607</tspan>
            <tspan dy="4.0" x="0">area: 3.07818128993102·10⁴</tspan>
            <tspan dy="4.0" x="0">perimeter: 625.1334396009491</tspan>
            <tspan dy="4.0" x="0"># edges: 18</tspan>
            <tspan dy="4.0" x="0"># vertices: 18</tspan>
        </text>
    </g>
    <g transform="translate(102.5,102.5)">
        <g id="grid">
            <!--Grid-->
            <line stroke="#00ff00" stroke-width="0.2" x1="0" x2="0" y1="-102.5" y2="102.5"/>
            <line stroke="#00ff00" stroke-dasharray="1,1" stroke-width="0.2" x1="10.0" x2="10.0" y1="-102.5" y2="102.5"/>
            <line stroke="#00ff00" stroke-dasharray="1,1" stroke-width="0.2" x1="-10.0" x2="-10.0" y1="-102.5" y2="102.5"/>
            <line stroke="#00ff00" stroke-dasharray="1,1" stroke-width="0.2" x1="20.0" x2="20.0" y1="-102.5" y2="102.5"/>
            <line stroke="#00ff00" stroke-dasharray="1,1" stroke-width="0.2" x1="-20.0" x2="-20.0" y1="-102.5" y2="102.5"/>
            <line stroke="#00ff00" stroke-dasharray="1,1" stroke-width="0.2" x1="30.0" x2="30.0" y1="-102.5" y2="102.5"/>
            <line stroke="#00ff00" stroke-dasharray="1,1" stroke-width="0.2" x1="-30.0" x2="-30.0" y1="-102.5" y2="102.5"/>
            <line stroke="#00ff00" stroke-dasharray="1,1" stroke-width="0.2" x1="40.0" x2="40.0" y1="-102.5" y2="102.5"/>
            <line stroke="#00ff00" stroke-dasharray="1,1" stroke-width="0.2" x1="-40.0" x2="-40.0" y1="-102.5" y2="102.5"/>
            <line stroke="#00ff00" stroke-dasharray="1,1" stroke-width="0.2" x1="50.0" x2="50.0" y1="-102.5" y2="102.5"/>
            <line stroke="#00ff00" stroke-dasharray="1,1" stroke-width="0.2" x1="-50.0" x2="-50.0" y1="-102.5" y2="102.5"/>
            <line stroke="#00ff00" stroke-dasharray="1,1" stroke-width="0.2" x1="60.0" x2="60.0" y1="-102.5" y2="102.5"/>
            <line stroke="#00ff00" stroke-dasharray="1,1" stroke-width="0.2" x1="-60.0" x2="-60.0" y1="-102.5" y2="102.5"/>
            <line stroke="#00ff00" stroke-dasharray="1,1" stroke-width="0.2" x1="70.0" x2="70.0" y1="-102.5" y2="102.5"/>
            <line stroke="#00ff00" stroke-dasharray="1,1" stroke-width="0.2" x1="-70.0" x2="-70.0" y1="-102.5" y2="102.5"/>
            <line stroke="#00ff00" stroke-dasharray="1,1" stroke-width="0.2" x1="80.0" x2="80.0" y1="-102.5" y2="102.5"/>
            <line stroke="#00ff00" stroke-dasharray="1,1" stroke-width="0.2" x1="-80.0" x2="-80.0" y1="-102.5" y2="102.5"/>
            <line stroke="#00ff00" stroke-dasharray="1,1" stroke-width="0.2" x1="90.0" x2="90.0" y1="-102.5" y2="102.5"/>
            <line stroke="#00ff00" stroke-dasharray="1,1" stroke-width="0.2" x1="-90.0" x2="-90.0" y1="-102.5" y2="102.5"/>
            <line stroke="#00ff00" stroke-dasharray="1,1" stroke-width="0.2" x1="100.0" x2="100.0" y1="-102.5" y2="102.5"/>
            <line stroke="#00ff00" stroke-dasharray="1,1" stroke-width="0.2" x1="-100.0" x2="-100.0" y1="-102.5" y2="102.5"/>
            <line stroke="#00ff00" stroke-dasharray="1,1" stroke-width="0.2" x1="110.0" x2="110.0" y1="-102.5" y2="102.5"/>
            <line stroke="#00ff00" stroke-dasharray="1,1" stroke-width="0.2" x1="-110.0" x2="-110.0" y1="-102.5" y2="102.5"/>
            <line stroke="#00ff00" stroke-width="0.2" x1="-102.5" x2="102.5" y1="0" y2="0"/>
            <line stroke="#00ff00" stroke-dasharray="1,1" stroke-width="0.2" x1="-102.5" x2="102.5" y1="10.0" y2="10.0"/>
            <line stroke="#00ff00" stroke-dasharray="1,1" stroke-width="0.2" x1="-102.5" x2="102.5" y1="-10.0" y2="-10.0"/>
            <line stroke="#00ff00" stroke-dasharray="1,1" stroke-width="0.2" x1="-102.5" x2="102.5" y1="20.0" y2="20.0"/>
            <line stroke="#00ff00" stroke-dasharray="1,1" stroke-width="0.2" x1="-102.5" x2="102.5" y1="-20.0" y2="-20.0"/>
            <line stroke="#00ff00" stroke-dasharray="1,1" stroke-width="0.2" x1="-102.5" x2="102.5" y1="30.0" y2="30.0"/>
            <line stroke="#00ff00" stroke-dasharray="1,1" stroke-width="0.2" x1="-102.5" x2="102.5" y1="-30.0" y2="-30.0"/>
            <line stroke="#00ff00" stroke-dasharray="1,1" stroke-width="0.2" x1="-102.5" x2="102.5" y1="40.0" y2="40.0"/>
            <line stroke="#00ff00" stroke-dasharray="1,1" stroke-width="0.2" x1="-102.5" x2="102.5" y1="-40.0" y2="-40.0"/>
            <line stroke="#00ff00" stroke-dasharray="1,1" stroke-width="0.2" x1="-102.5" x2="102.5" y1="50.0" y2="50.0"/>
            <line stroke="#00ff00" stroke-dasharray="1,1" stroke-width="0.2" x1="-102.5" x2="102.5" y1="-50.0" y2="-50.0"/>
            <line stroke="#00ff00" stroke-dasharray="1,1" stroke-width="0.2" x1="-102.5" x2="102.5" y1="60.0" y2="60.0"/>
            <line stroke="#00ff00" stroke-dasharray="1,1" stroke-width="0.2" x1="-102.5" x2="102.5" y1="-60.0" y2="-60.0"/>
            <line stroke="#00ff00" stroke-dasharray="1,1" stroke-width="0.2" x1="-102.5" x2="102.5" y1="70.0" y2="70.0"/>
            <line stroke="#00ff00" stroke-dasharray="1,1" stroke-width="0.2" x1="-102.5" x2="102.5" y1="-70.0" y2="-70.0"/>
            <line stroke="#00ff00" stroke-dasharray="1,1" stroke-width="0.2" x1="-102.5" x2="102.5" y1="80.0" y2="80.0"/>
            <line stroke="#00ff00" stroke-dasharray="1,1" stroke-width="0.2" x1="-102.5" x2="102.5" y1="-80.0" y2="-80.0"/>
            <line stroke="#00ff00" stroke-dasharray="1,1" stroke-width="0.2" x1="-102.5" x2="102.5" y1="90.0" y2="90.0"/>
            <line stroke="#00ff00" stroke-dasharray="1,1" stroke-width="0.2" x1="-102.5" x2="102.5" y1="-90.0" y2="-90.0"/>
            <line stroke="#00ff00" stroke-dasharray="1,1" stroke-width="0.2" x1="-102.5" x2="102.5" y1="100.0" y2="100.0"/>
            <line stroke="#00ff00" stroke-dasharray="1,1" stroke-width="0.2" x1="-102.5" x2="102.5" y1="-100.0" y2="-100.0"/>
            <line stroke="#00ff00" stroke-dasharray="1,1" stroke-width="0.2" x1="-102.5" x2="102.5" y1="110.0" y2="110.0"/>
            <line stroke="#00ff00" stroke-dasharray="1,1" stroke-width="0.2" x1="-102.5" x2="102.5" y1="-110.0" y2="-110.0"/>
            <line stroke="#00ff00" stroke-dasharray="1,1" stroke-width="0.2" x1="-102.5" x2="102.5" y1="120.0" y2="120.0"/>
            <line stroke="#00ff00" stroke-dasharray="1,1" stroke-width="0.2" x1="-102.5" x2="102.5" y1="-120.0" y2="-120.0"/>
            <line stroke="#00ff00" stroke-dasharray="1,1" stroke-width="0.2" x1="-102.5" x2="102.5" y1="130.0" y2="130.0"/>
            <line stroke="#00ff00" stroke-dasharray="1,1" stroke-width="0.2" x1="-102.5" x2="102.5" y1="-130.0" y2="-130.0"/>
            <line stroke="#00ff00" stroke-dasharray="1,1" stroke-width="0.2" x1="-102.5" x2="102.5" y1="140.0" y2="140.0"/>
            <line stroke="#00ff00" stroke-dasharray="1,1" stroke-width="0.2" x1="-102.5" x2="102.5" y1="-140.0" y2="-140.0"/>
            <line stroke="#00ff00" stroke-dasharray="1,1" stroke-width="0.2" x1="-102.5" x2="102.5" y1="150.0" y2="150.0"/>
            <line stroke="#00ff00" stroke-dasharray="1,1" stroke-width="0.2" x1="-102.5" x2="102.5" y1="-150.0" y2="-150.0"/>
            <line stroke="#00ff00" stroke-dasharray="1,1" stroke-width="0.2" x1="-102.5" x2="102.5" y1="160.0" y2="160.0"/>
            <line stroke="#00ff00" stroke-dasharray="1,1" stroke-width="0.2" x1="-102.5" x2="102.5" y1="-160.0" y2="-160.0"/>
            <line stroke="#00ff00" stroke-dasharray="1,1" stroke-width="0.2" x1="-102.5" x2="102.5" y1="170.0" y2="170.0"/>
            <line stroke="#00ff00" stroke-dasharray="1,1" stroke-width="0.2" x1="-102.5" x2="102.5" y1="-170.0" y2="-170.0"/>
            <line stroke="#00ff00" stroke-dasharray="1,1" stroke-width="0.2" x1="-102.5" x2="102.5" y1="180.0" y2="180.0"/>
            <line stroke="#00ff00" stroke-dasharray="1,1" stroke-width="0.2" x1="-102.5" x2="102.5" y1="-180.0" y2="-180.0"/>
            <line stroke="#00ff00" stroke-dasharray="1,1" stroke-width="0.2" x1="-102.5" x2="102.5" y1="190.0" y2="190.0"/>
            <line stroke="#00ff00" stroke-dasharray="1,1" stroke-width="0.2" x1="-102.5" x2="102.5" y1="-190.0" y2="-190.0"/>
            <line stroke="#00ff00" stroke-dasharray="1,1" stroke-width="0.2" x1="-102.5" x2="102.5" y1="200.0" y2="200.0"/>
            <line stroke="#00ff00" stroke-dasharray="1,1" stroke-width="0.2" x1="-102.5" x2="102.5" y1="-200.0" y2="-200.0"/>
            <line stroke="#00ff00" stroke-dasharray="1,1" stroke-width="0.2" x1="-102.5" x2="102.5" y1="210.0" y2="210.0"/>
            <line stroke="#00ff00" stroke-dasharray="1,1" stroke-width="0.2" x1="-102.5" x2="102.5" y1="-210.0" y2="-210.0"/>
        </g>
        <g>
            <polygon fill="none" points="99.99999999999999,0.0 93.96926207859083,34.20201433256687 76.6044443118978,64.27876096865391 50.00000000000001,86.60254037844385 17.36481776669304,98.48077530122079 -17.36481776669303,98.4807753012208 -49.99999999999997,86.60254037844388 -76.60444431189778,64.27876096865394 -93.96926207859082,34.20201433256688 -99.99999999999999,1.224646799147353E-14 -93.96926207859083,-34.20201433256686 -76.60444431189781,-64.27876096865391 -50.000000000000036,-86.60254037844382 -17.36481776669303,-98.48077530122079 17.364817766692994,-98.4807753012208 50.00000000000001,-86.60254037844385 76.60444431189777,-64.27876096865396 93.9692620785908,-34.20201433256694" stroke="black" stroke-width="1"/>
            <!--Dot showing the first vertex-->
            <circle cx="99.99999999999999" cy="0.0" fill="#ff0000" r="1.1"/>
            <!--Inscribed circle of {18}, size: 34.72963553338607-->
            <circle fill="none" r="98.48077530122079" stroke="black" stroke-dasharray="1,1" stroke-opacity="0.3" stroke-width="0.2"/>
            <!--Circumscribed circle of {18}, size: 34.72963553338607-->
            <circle fill="none" r="99.99999999999999" stroke="black" stroke-dasharray="1,1" stroke-opacity="0.3" stroke-width="0.2"/>
            <!--Circumscribed rectangle of {18}, size: 34.72963553338607-->
            <rect fill="none" height="199.99999999999997" stroke="black" stroke-dasharray="1,1" stroke-opacity="0.3" stroke-width="0.2" width="196.9615506024416" x="-99.99999999999999" y="98.4807753012208"/>
        </g>
    </g>
</svg>
