<svg height="200" width="200" xmlns="http://www.w3.org/2000/svg">
    <g id="grid">
        <!--Grid-->
        <line stroke="#00ff00" stroke-dasharray="1,1" stroke-width="0.2" x1="0" x2="0" y1="0" y2="200"/>
        <line stroke="#00ff00" stroke-dasharray="1,1" stroke-width="0.2" x1="10" x2="10" y1="0" y2="200"/>
        <line stroke="#00ff00" stroke-dasharray="1,1" stroke-width="0.2" x1="20" x2="20" y1="0" y2="200"/>
        <line stroke="#00ff00" stroke-dasharray="1,1" stroke-width="0.2" x1="30" x2="30" y1="0" y2="200"/>
        <line stroke="#00ff00" stroke-dasharray="1,1" stroke-width="0.2" x1="40" x2="40" y1="0" y2="200"/>
        <line stroke="#00ff00" stroke-dasharray="1,1" stroke-width="0.2" x1="50" x2="50" y1="0" y2="200"/>
        <line stroke="#00ff00" stroke-dasharray="1,1" stroke-width="0.2" x1="60" x2="60" y1="0" y2="200"/>
        <line stroke="#00ff00" stroke-dasharray="1,1" stroke-width="0.2" x1="70" x2="70" y1="0" y2="200"/>
        <line stroke="#00ff00" stroke-dasharray="1,1" stroke-width="0.2" x1="80" x2="80" y1="0" y2="200"/>
        <line stroke="#00ff00" stroke-dasharray="1,1" stroke-width="0.2" x1="90" x2="90" y1="0" y2="200"/>
        <line stroke="#00ff00" stroke-width="0.2" x1="100" x2="100" y1="0" y2="200"/>
        <line stroke="#00ff00" stroke-dasharray="1,1" stroke-width="0.2" x1="110" x2="110" y1="0" y2="200"/>
        <line stroke="#00ff00" stroke-dasharray="1,1" stroke-width="0.2" x1="120" x2="120" y1="0" y2="200"/>
        <line stroke="#00ff00" stroke-dasharray="1,1" stroke-width="0.2" x1="130" x2="130" y1="0" y2="200"/>
        <line stroke="#00ff00" stroke-dasharray="1,1" stroke-width="0.2" x1="140" x2="140" y1="0" y2="200"/>
        <line stroke="#00ff00" stroke-dasharray="1,1" stroke-width="0.2" x1="150" x2="150" y1="0" y2="200"/>
        <line stroke="#00ff00" stroke-dasharray="1,1" stroke-width="0.2" x1="160" x2="160" y1="0" y2="200"/>
        <line stroke="#00ff00" stroke-dasharray="1,1" stroke-width="0.2" x1="170" x2="170" y1="0" y2="200"/>
        <line stroke="#00ff00" stroke-dasharray="1,1" stroke-width="0.2" x1="180" x2="180" y1="0" y2="200"/>
        <line stroke="#00ff00" stroke-dasharray="1,1" stroke-width="0.2" x1="190" x2="190" y1="0" y2="200"/>
        <line stroke="#00ff00" stroke-dasharray="1,1" stroke-width="0.2" x1="0" x2="200" y1="0" y2="0"/>
        <line stroke="#00ff00" stroke-dasharray="1,1" stroke-width="0.2" x1="0" x2="200" y1="10" y2="10"/>
        <line stroke="#00ff00" stroke-dasharray="1,1" stroke-width="0.2" x1="0" x2="200" y1="20" y2="20"/>
        <line stroke="#00ff00" stroke-dasharray="1,1" stroke-width="0.2" x1="0" x2="200" y1="30" y2="30"/>
        <line stroke="#00ff00" stroke-dasharray="1,1" stroke-width="0.2" x1="0" x2="200" y1="40" y2="40"/>
        <line stroke="#00ff00" stroke-dasharray="1,1" stroke-width="0.2" x1="0" x2="200" y1="50" y2="50"/>
        <line stroke="#00ff00" stroke-dasharray="1,1" stroke-width="0.2" x1="0" x2="200" y1="60" y2="60"/>
        <line stroke="#00ff00" stroke-dasharray="1,1" stroke-width="0.2" x1="0" x2="200" y1="70" y2="70"/>
        <line stroke="#00ff00" stroke-dasharray="1,1" stroke-width="0.2" x1="0" x2="200" y1="80" y2="80"/>
        <line stroke="#00ff00" stroke-dasharray="1,1" stroke-width="0.2" x1="0" x2="200" y1="90" y2="90"/>
        <line stroke="#00ff00" stroke-width="0.2" x1="0" x2="200" y1="100" y2="100"/>
        <line stroke="#00ff00" stroke-dasharray="1,1" stroke-width="0.2" x1="0" x2="200" y1="110" y2="110"/>
        <line stroke="#00ff00" stroke-dasharray="1,1" stroke-width="0.2" x1="0" x2="200" y1="120" y2="120"/>
        <line stroke="#00ff00" stroke-dasharray="1,1" stroke-width="0.2" x1="0" x2="200" y1="130" y2="130"/>
        <line stroke="#00ff00" stroke-dasharray="1,1" stroke-width="0.2" x1="0" x2="200" y1="140" y2="140"/>
        <line stroke="#00ff00" stroke-dasharray="1,1" stroke-width="0.2" x1="0" x2="200" y1="150" y2="150"/>
        <line stroke="#00ff00" stroke-dasharray="1,1" stroke-width="0.2" x1="0" x2="200" y1="160" y2="160"/>
        <line stroke="#00ff00" stroke-dasharray="1,1" stroke-width="0.2" x1="0" x2="200" y1="170" y2="170"/>
        <line stroke="#00ff00" stroke-dasharray="1,1" stroke-width="0.2" x1="0" x2="200" y1="180" y2="180"/>
        <line stroke="#00ff00" stroke-dasharray="1,1" stroke-width="0.2" x1="0" x2="200" y1="190" y2="190"/>
    </g>
    <g>
        <polygon fill="none" points="200.0,100.0 193.96926207859082,134.20201433256688 176.6044443118978,164.2787609686539 150.0,186.60254037844385 117.36481776669304,198.48077530122077 82.63518223330698,198.4807753012208 50.00000000000003,186.60254037844388 23.39555568810222,164.27876096865396 6.030737921409184,134.20201433256688 1.4210854715202004E-14,100.00000000000001 6.03073792140917,65.79798566743314 23.395555688102192,35.72123903134609 49.999999999999964,13.39745962155618 82.63518223330698,1.5192246987792117 117.364817766693,1.5192246987791975 150.0,13.397459621556152 176.60444431189777,35.721239031346045 193.96926207859082,65.79798566743307" stroke="black" stroke-width="1"/>
        <!--Dot showing the first vertex-->
        <circle cx="200.0" cy="100.0" fill="#ff0000" r="1.1"/>
        <!--Circumscribed circle of {18}, size: 34.72963553338607-->
        <circle cx="100.0" cy="100.0" fill="none" r="99.99999999999999" stroke="black" stroke-dasharray="1,1" stroke-opacity="0.3" stroke-width="0.2"/>
        <!--Inscribed circle of {18}, size: 34.72963553338607-->
        <circle cx="100.0" cy="100.0" fill="none" r="98.48077530122079" stroke="black" stroke-dasharray="1,1" stroke-opacity="0.3" stroke-width="0.2"/>
    </g>
</svg>
