<svg height="205.0" width="205.0" xmlns="http://www.w3.org/2000/svg">
    <g transform="translate(102.5,102.5)">
        <g id="grid">
            <!--Grid-->
            <line stroke="#00ff00" stroke-width="0.2" x1="0" x2="0" y1="-102.5" y2="102.5"/>
            <line stroke="#00ff00" stroke-dasharray="1,1" stroke-width="0.2" x1="10.0" x2="10.0" y1="-102.5" y2="102.5"/>
            <line stroke="#00ff00" stroke-dasharray="1,1" stroke-width="0.2" x1="-10.0" x2="-10.0" y1="-102.5" y2="102.5"/>
            <line stroke="#00ff00" stroke-dasharray="1,1" stroke-width="0.2" x1="20.0" x2="20.0" y1="-102.5" y2="102.5"/>
            <line stroke="#00ff00" stroke-dasharray="1,1" stroke-width="0.2" x1="-20.0" x2="-20.0" y1="-102.5" y2="102.5"/>
            <line stroke="#00ff00" stroke-dasharray="1,1" stroke-width="0.2" x1="30.0" x2="30.0" y1="-102.5" y2="102.5"/>
            <line stroke="#00ff00" stroke-dasharray="1,1" stroke-width="0.2" x1="-30.0" x2="-30.0" y1="-102.5" y2="102.5"/>
            <line stroke="#00ff00" stroke-dasharray="1,1" stroke-width="0.2" x1="40.0" x2="40.0" y1="-102.5" y2="102.5"/>
            <line stroke="#00ff00" stroke-dasharray="1,1" stroke-width="0.2" x1="-40.0" x2="-40.0" y1="-102.5" y2="102.5"/>
            <line stroke="#00ff00" stroke-dasharray="1,1" stroke-width="0.2" x1="50.0" x2="50.0" y1="-102.5" y2="102.5"/>
            <line stroke="#00ff00" stroke-dasharray="1,1" stroke-width="0.2" x1="-50.0" x2="-50.0" y1="-102.5" y2="102.5"/>
            <line stroke="#00ff00" stroke-dasharray="1,1" stroke-width="0.2" x1="60.0" x2="60.0" y1="-102.5" y2="102.5"/>
            <line stroke="#00ff00" stroke-dasharray="1,1" stroke-width="0.2" x1="-60.0" x2="-60.0" y1="-102.5" y2="102.5"/>
            <line stroke="#00ff00" stroke-dasharray="1,1" stroke-width="0.2" x1="70.0" x2="70.0" y1="-102.5" y2="102.5"/>
            <line stroke="#00ff00" stroke-dasharray="1,1" stroke-width="0.2" x1="-70.0" x2="-70.0" y1="-102.5" y2="102.5"/>
            <line stroke="#00ff00" stroke-dasharray="1,1" stroke-width="0.2" x1="80.0" x2="80.0" y1="-102.5" y2="102.5"/>
            <line stroke="#00ff00" stroke-dasharray="1,1" stroke-width="0.2" x1="-80.0" x2="-80.0" y1="-102.5" y2="102.5"/>
            <line stroke="#00ff00" stroke-dasharray="1,1" stroke-width="0.2" x1="90.0" x2="90.0" y1="-102.5" y2="102.5"/>
            <line stroke="#00ff00" stroke-dasharray="1,1" stroke-width="0.2" x1="-90.0" x2="-90.0" y1="-102.5" y2="102.5"/>
            <line stroke="#00ff00" stroke-dasharray="1,1" stroke-width="0.2" x1="100.0" x2="100.0" y1="-102.5" y2="102.5"/>
            <line stroke="#00ff00" stroke-dasharray="1,1" stroke-width="0.2" x1="-100.0" x2="-100.0" y1="-102.5" y2="102.5"/>
            <line stroke="#00ff00" stroke-dasharray="1,1" stroke-width="0.2" x1="110.0" x2="110.0" y1="-102.5" y2="102.5"/>
            <line stroke="#00ff00" stroke-dasharray="1,1" stroke-width="0.2" x1="-110.0" x2="-110.0" y1="-102.5" y2="102.5"/>
            <line stroke="#00ff00" stroke-width="0.2" x1="-102.5" x2="102.5" y1="0" y2="0"/>
            <line stroke="#00ff00" stroke-dasharray="1,1" stroke-width="0.2" x1="-102.5" x2="102.5" y1="10.0" y2="10.0"/>
            <line stroke="#00ff00" stroke-dasharray="1,1" stroke-width="0.2" x1="-102.5" x2="102.5" y1="-10.0" y2="-10.0"/>
            <line stroke="#00ff00" stroke-dasharray="1,1" stroke-width="0.2" x1="-102.5" x2="102.5" y1="20.0" y2="20.0"/>
            <line stroke="#00ff00" stroke-dasharray="1,1" stroke-width="0.2" x1="-102.5" x2="102.5" y1="-20.0" y2="-20.0"/>
            <line stroke="#00ff00" stroke-dasharray="1,1" stroke-width="0.2" x1="-102.5" x2="102.5" y1="30.0" y2="30.0"/>
            <line stroke="#00ff00" stroke-dasharray="1,1" stroke-width="0.2" x1="-102.5" x2="102.5" y1="-30.0" y2="-30.0"/>
            <line stroke="#00ff00" stroke-dasharray="1,1" stroke-width="0.2" x1="-102.5" x2="102.5" y1="40.0" y2="40.0"/>
            <line stroke="#00ff00" stroke-dasharray="1,1" stroke-width="0.2" x1="-102.5" x2="102.5" y1="-40.0" y2="-40.0"/>
            <line stroke="#00ff00" stroke-dasharray="1,1" stroke-width="0.2" x1="-102.5" x2="102.5" y1="50.0" y2="50.0"/>
            <line stroke="#00ff00" stroke-dasharray="1,1" stroke-width="0.2" x1="-102.5" x2="102.5" y1="-50.0" y2="-50.0"/>
            <line stroke="#00ff00" stroke-dasharray="1,1" stroke-width="0.2" x1="-102.5" x2="102.5" y1="60.0" y2="60.0"/>
            <line stroke="#00ff00" stroke-dasharray="1,1" stroke-width="0.2" x1="-102.5" x2="102.5" y1="-60.0" y2="-60.0"/>
            <line stroke="#00ff00" stroke-dasharray="1,1" stroke-width="0.2" x1="-102.5" x2="102.5" y1="70.0" y2="70.0"/>
            <line stroke="#00ff00" stroke-dasharray="1,1" stroke-width="0.2" x1="-102.5" x2="102.5" y1="-70.0" y2="-70.0"/>
            <line stroke="#00ff00" stroke-dasharray="1,1" stroke-width="0.2" x1="-102.5" x2="102.5" y1="80.0" y2="80.0"/>
            <line stroke="#00ff00" stroke-dasharray="1,1" stroke-width="0.2" x1="-102.5" x2="102.5" y1="-80.0" y2="-80.0"/>
            <line stroke="#00ff00" stroke-dasharray="1,1" stroke-width="0.2" x1="-102.5" x2="102.5" y1="90.0" y2="90.0"/>
            <line stroke="#00ff00" stroke-dasharray="1,1" stroke-width="0.2" x1="-102.5" x2="102.5" y1="-90.0" y2="-90.0"/>
            <line stroke="#00ff00" stroke-dasharray="1,1" stroke-width="0.2" x1="-102.5" x2="102.5" y1="100.0" y2="100.0"/>
            <line stroke="#00ff00" stroke-dasharray="1,1" stroke-width="0.2" x1="-102.5" x2="102.5" y1="-100.0" y2="-100.0"/>
            <line stroke="#00ff00" stroke-dasharray="1,1" stroke-width="0.2" x1="-102.5" x2="102.5" y1="110.0" y2="110.0"/>
            <line stroke="#00ff00" stroke-dasharray="1,1" stroke-width="0.2" x1="-102.5" x2="102.5" y1="-110.0" y2="-110.0"/>
            <line stroke="#00ff00" stroke-dasharray="1,1" stroke-width="0.2" x1="-102.5" x2="102.5" y1="120.0" y2="120.0"/>
            <line stroke="#00ff00" stroke-dasharray="1,1" stroke-width="0.2" x1="-102.5" x2="102.5" y1="-120.0" y2="-120.0"/>
            <line stroke="#00ff00" stroke-dasharray="1,1" stroke-width="0.2" x1="-102.5" x2="102.5" y1="130.0" y2="130.0"/>
            <line stroke="#00ff00" stroke-dasharray="1,1" stroke-width="0.2" x1="-102.5" x2="102.5" y1="-130.0" y2="-130.0"/>
            <line stroke="#00ff00" stroke-dasharray="1,1" stroke-width="0.2" x1="-102.5" x2="102.5" y1="140.0" y2="140.0"/>
            <line stroke="#00ff00" stroke-dasharray="1,1" stroke-width="0.2" x1="-102.5" x2="102.5" y1="-140.0" y2="-140.0"/>
            <line stroke="#00ff00" stroke-dasharray="1,1" stroke-width="0.2" x1="-102.5" x2="102.5" y1="150.0" y2="150.0"/>
            <line stroke="#00ff00" stroke-dasharray="1,1" stroke-width="0.2" x1="-102.5" x2="102.5" y1="-150.0" y2="-150.0"/>
            <line stroke="#00ff00" stroke-dasharray="1,1" stroke-width="0.2" x1="-102.5" x2="102.5" y1="160.0" y2="160.0"/>
            <line stroke="#00ff00" stroke-dasharray="1,1" stroke-width="0.2" x1="-102.5" x2="102.5" y1="-160.0" y2="-160.0"/>
            <line stroke="#00ff00" stroke-dasharray="1,1" stroke-width="0.2" x1="-102.5" x2="102.5" y1="170.0" y2="170.0"/>
            <line stroke="#00ff00" stroke-dasharray="1,1" stroke-width="0.2" x1="-102.5" x2="102.5" y1="-170.0" y2="-170.0"/>
            <line stroke="#00ff00" stroke-dasharray="1,1" stroke-width="0.2" x1="-102.5" x2="102.5" y1="180.0" y2="180.0"/>
            <line stroke="#00ff00" stroke-dasharray="1,1" stroke-width="0.2" x1="-102.5" x2="102.5" y1="-180.0" y2="-180.0"/>
            <line stroke="#00ff00" stroke-dasharray="1,1" stroke-width="0.2" x1="-102.5" x2="102.5" y1="190.0" y2="190.0"/>
            <line stroke="#00ff00" stroke-dasharray="1,1" stroke-width="0.2" x1="-102.5" x2="102.5" y1="-190.0" y2="-190.0"/>
            <line stroke="#00ff00" stroke-dasharray="1,1" stroke-width="0.2" x1="-102.5" x2="102.5" y1="200.0" y2="200.0"/>
            <line stroke="#00ff00" stroke-dasharray="1,1" stroke-width="0.2" x1="-102.5" x2="102.5" y1="-200.0" y2="-200.0"/>
            <line stroke="#00ff00" stroke-dasharray="1,1" stroke-width="0.2" x1="-102.5" x2="102.5" y1="210.0" y2="210.0"/>
            <line stroke="#00ff00" stroke-dasharray="1,1" stroke-width="0.2" x1="-102.5" x2="102.5" y1="-210.0" y2="-210.0"/>
        </g>
        <g>
            <polygon fill="none" points="6.123233995736766E-15,-100.0 32.46994692046836,-94.58172417006347 61.421271268966784,-78.91405093963935 83.71664782625285,-54.694815812242695 96.94002659393304,-24.548548714079917 99.65844930066699,8.257934547233234 91.57733266550575,40.16954246529693 73.57239106731316,67.72815716257409 47.59473930370737,87.9473751206489 16.459459028073397,98.63613034027223 -16.459459028073383,98.63613034027223 -47.59473930370736,87.94737512064891 -73.57239106731313,67.72815716257415 -91.57733266550572,40.169542465296985 -99.65844930066699,8.257934547233267 -96.94002659393306,-24.548548714079885 -83.71664782625288,-54.69481581224266 -61.421271268966805,-78.91405093963935 -32.46994692046837,-94.58172417006347" stroke="black" stroke-width="1"/>
            <!--Dot showing the first vertex-->
            <circle cx="6.123233995736766E-15" cy="-100.0" fill="#ff0000" r="1.1"/>
            <!--Inscribed circle of {19}, size: 32.91891805614678-->
            <circle fill="none" r="98.63613034027223" stroke="black" stroke-dasharray="1,1" stroke-opacity="0.3" stroke-width="0.2"/>
            <!--Circumscribed circle of {19}, size: 32.91891805614678-->
            <circle fill="none" r="100.0" stroke="black" stroke-dasharray="1,1" stroke-opacity="0.3" stroke-width="0.2"/>
            <!--Circumscribed rectangle of {19}, size: 32.91891805614678-->
            <rect fill="none" height="198.63613034027225" stroke="blue" stroke-dasharray="2,1" stroke-opacity="0.3" stroke-width="0.6" width="199.31689860133397" x="-99.65844930066699" y="-100.0"/>
        </g>
    </g>
    <g>
        <text fill="blue" font-size="4.0" id="info" x="0" y="0">
            <tspan dy="4.0" x="0">{19}, size: 32.91891805614678</tspan>
            <tspan dy="4.0" x="0">area: 3.08464495744449·10⁴</tspan>
            <tspan dy="4.0" x="0">perimeter: 625.4594430667888</tspan>
            <tspan dy="4.0" x="0">⬚: Rectangle{199.31689860133397x198.63613034027225} at (0.000000000000000000000000000 ± 0.000000000000171526343018815,-0.68193482986388)</tspan>
            <tspan dy="4.0" x="0">◌: Circle{100}</tspan>
            <tspan dy="4.0" x="0"># edges: 19</tspan>
            <tspan dy="4.0" x="0"># vertices: 19</tspan>
        </text>
    </g>
</svg>
