<svg height="200" width="200" xmlns="http://www.w3.org/2000/svg">
    <g id="grid">
        <!--Grid-->
        <line stroke="#00ff00" stroke-dasharray="1,1" stroke-width="0.2" x1="0" x2="0" y1="0" y2="200"/>
        <line stroke="#00ff00" stroke-dasharray="1,1" stroke-width="0.2" x1="10" x2="10" y1="0" y2="200"/>
        <line stroke="#00ff00" stroke-dasharray="1,1" stroke-width="0.2" x1="20" x2="20" y1="0" y2="200"/>
        <line stroke="#00ff00" stroke-dasharray="1,1" stroke-width="0.2" x1="30" x2="30" y1="0" y2="200"/>
        <line stroke="#00ff00" stroke-dasharray="1,1" stroke-width="0.2" x1="40" x2="40" y1="0" y2="200"/>
        <line stroke="#00ff00" stroke-dasharray="1,1" stroke-width="0.2" x1="50" x2="50" y1="0" y2="200"/>
        <line stroke="#00ff00" stroke-dasharray="1,1" stroke-width="0.2" x1="60" x2="60" y1="0" y2="200"/>
        <line stroke="#00ff00" stroke-dasharray="1,1" stroke-width="0.2" x1="70" x2="70" y1="0" y2="200"/>
        <line stroke="#00ff00" stroke-dasharray="1,1" stroke-width="0.2" x1="80" x2="80" y1="0" y2="200"/>
        <line stroke="#00ff00" stroke-dasharray="1,1" stroke-width="0.2" x1="90" x2="90" y1="0" y2="200"/>
        <line stroke="#00ff00" stroke-width="0.2" x1="100" x2="100" y1="0" y2="200"/>
        <line stroke="#00ff00" stroke-dasharray="1,1" stroke-width="0.2" x1="110" x2="110" y1="0" y2="200"/>
        <line stroke="#00ff00" stroke-dasharray="1,1" stroke-width="0.2" x1="120" x2="120" y1="0" y2="200"/>
        <line stroke="#00ff00" stroke-dasharray="1,1" stroke-width="0.2" x1="130" x2="130" y1="0" y2="200"/>
        <line stroke="#00ff00" stroke-dasharray="1,1" stroke-width="0.2" x1="140" x2="140" y1="0" y2="200"/>
        <line stroke="#00ff00" stroke-dasharray="1,1" stroke-width="0.2" x1="150" x2="150" y1="0" y2="200"/>
        <line stroke="#00ff00" stroke-dasharray="1,1" stroke-width="0.2" x1="160" x2="160" y1="0" y2="200"/>
        <line stroke="#00ff00" stroke-dasharray="1,1" stroke-width="0.2" x1="170" x2="170" y1="0" y2="200"/>
        <line stroke="#00ff00" stroke-dasharray="1,1" stroke-width="0.2" x1="180" x2="180" y1="0" y2="200"/>
        <line stroke="#00ff00" stroke-dasharray="1,1" stroke-width="0.2" x1="190" x2="190" y1="0" y2="200"/>
        <line stroke="#00ff00" stroke-dasharray="1,1" stroke-width="0.2" x1="0" x2="200" y1="0" y2="0"/>
        <line stroke="#00ff00" stroke-dasharray="1,1" stroke-width="0.2" x1="0" x2="200" y1="10" y2="10"/>
        <line stroke="#00ff00" stroke-dasharray="1,1" stroke-width="0.2" x1="0" x2="200" y1="20" y2="20"/>
        <line stroke="#00ff00" stroke-dasharray="1,1" stroke-width="0.2" x1="0" x2="200" y1="30" y2="30"/>
        <line stroke="#00ff00" stroke-dasharray="1,1" stroke-width="0.2" x1="0" x2="200" y1="40" y2="40"/>
        <line stroke="#00ff00" stroke-dasharray="1,1" stroke-width="0.2" x1="0" x2="200" y1="50" y2="50"/>
        <line stroke="#00ff00" stroke-dasharray="1,1" stroke-width="0.2" x1="0" x2="200" y1="60" y2="60"/>
        <line stroke="#00ff00" stroke-dasharray="1,1" stroke-width="0.2" x1="0" x2="200" y1="70" y2="70"/>
        <line stroke="#00ff00" stroke-dasharray="1,1" stroke-width="0.2" x1="0" x2="200" y1="80" y2="80"/>
        <line stroke="#00ff00" stroke-dasharray="1,1" stroke-width="0.2" x1="0" x2="200" y1="90" y2="90"/>
        <line stroke="#00ff00" stroke-width="0.2" x1="0" x2="200" y1="100" y2="100"/>
        <line stroke="#00ff00" stroke-dasharray="1,1" stroke-width="0.2" x1="0" x2="200" y1="110" y2="110"/>
        <line stroke="#00ff00" stroke-dasharray="1,1" stroke-width="0.2" x1="0" x2="200" y1="120" y2="120"/>
        <line stroke="#00ff00" stroke-dasharray="1,1" stroke-width="0.2" x1="0" x2="200" y1="130" y2="130"/>
        <line stroke="#00ff00" stroke-dasharray="1,1" stroke-width="0.2" x1="0" x2="200" y1="140" y2="140"/>
        <line stroke="#00ff00" stroke-dasharray="1,1" stroke-width="0.2" x1="0" x2="200" y1="150" y2="150"/>
        <line stroke="#00ff00" stroke-dasharray="1,1" stroke-width="0.2" x1="0" x2="200" y1="160" y2="160"/>
        <line stroke="#00ff00" stroke-dasharray="1,1" stroke-width="0.2" x1="0" x2="200" y1="170" y2="170"/>
        <line stroke="#00ff00" stroke-dasharray="1,1" stroke-width="0.2" x1="0" x2="200" y1="180" y2="180"/>
        <line stroke="#00ff00" stroke-dasharray="1,1" stroke-width="0.2" x1="0" x2="200" y1="190" y2="190"/>
    </g>
    <g>
        <polygon fill="none" points="100.0,0.0 132.46994692046837,5.418275829936533 161.4212712689668,21.085949060360647 183.71664782625285,45.305184187757305 196.94002659393306,75.45145128592009 199.65844930066697,108.25793454723323 191.57733266550576,140.16954246529693 173.57239106731316,167.7281571625741 147.59473930370737,187.9473751206489 116.4594590280734,198.63613034027225 83.54054097192662,198.63613034027225 52.40526069629264,187.94737512064893 26.427608932686866,167.72815716257415 8.422667334494278,140.16954246529698 0.34155069933301263,108.25793454723326 3.059973406066945,75.45145128592011 16.28335217374712,45.30518418775734 38.578728731033195,21.085949060360647 67.53005307953163,5.418275829936533" stroke="black" stroke-width="1"/>
        <!--Dot showing the first vertex-->
        <circle cx="100.0" cy="0.0" fill="#ff0000" r="1.1"/>
        <!--Circumscribed circle of {19}, size: 32.91891805614678-->
        <circle cx="100.0" cy="100.0" fill="none" r="100.0" stroke="black" stroke-dasharray="1,1" stroke-opacity="0.3" stroke-width="0.2"/>
        <!--Inscribed circle of {19}, size: 32.91891805614678-->
        <circle cx="100.0" cy="100.0" fill="none" r="98.63613034027223" stroke="black" stroke-dasharray="1,1" stroke-opacity="0.3" stroke-width="0.2"/>
    </g>
</svg>
