<svg height="205.0" width="205.0" xmlns="http://www.w3.org/2000/svg">
    <g id="grid">
        <!--Grid-->
        <line stroke="#00ff00" stroke-width="0.2" x1="102.5" x2="102.5" y1="0" y2="205.0"/>
        <line stroke="#00ff00" stroke-dasharray="1,1" stroke-width="0.2" x1="112.5" x2="112.5" y1="0" y2="205"/>
        <line stroke="#00ff00" stroke-dasharray="1,1" stroke-width="0.2" x1="92.5" x2="92.5" y1="0" y2="205"/>
        <line stroke="#00ff00" stroke-dasharray="1,1" stroke-width="0.2" x1="122.5" x2="122.5" y1="0" y2="205"/>
        <line stroke="#00ff00" stroke-dasharray="1,1" stroke-width="0.2" x1="82.5" x2="82.5" y1="0" y2="205"/>
        <line stroke="#00ff00" stroke-dasharray="1,1" stroke-width="0.2" x1="132.5" x2="132.5" y1="0" y2="205"/>
        <line stroke="#00ff00" stroke-dasharray="1,1" stroke-width="0.2" x1="72.5" x2="72.5" y1="0" y2="205"/>
        <line stroke="#00ff00" stroke-dasharray="1,1" stroke-width="0.2" x1="142.5" x2="142.5" y1="0" y2="205"/>
        <line stroke="#00ff00" stroke-dasharray="1,1" stroke-width="0.2" x1="62.5" x2="62.5" y1="0" y2="205"/>
        <line stroke="#00ff00" stroke-dasharray="1,1" stroke-width="0.2" x1="152.5" x2="152.5" y1="0" y2="205"/>
        <line stroke="#00ff00" stroke-dasharray="1,1" stroke-width="0.2" x1="52.5" x2="52.5" y1="0" y2="205"/>
        <line stroke="#00ff00" stroke-dasharray="1,1" stroke-width="0.2" x1="162.5" x2="162.5" y1="0" y2="205"/>
        <line stroke="#00ff00" stroke-dasharray="1,1" stroke-width="0.2" x1="42.5" x2="42.5" y1="0" y2="205"/>
        <line stroke="#00ff00" stroke-dasharray="1,1" stroke-width="0.2" x1="172.5" x2="172.5" y1="0" y2="205"/>
        <line stroke="#00ff00" stroke-dasharray="1,1" stroke-width="0.2" x1="32.5" x2="32.5" y1="0" y2="205"/>
        <line stroke="#00ff00" stroke-dasharray="1,1" stroke-width="0.2" x1="182.5" x2="182.5" y1="0" y2="205"/>
        <line stroke="#00ff00" stroke-dasharray="1,1" stroke-width="0.2" x1="22.5" x2="22.5" y1="0" y2="205"/>
        <line stroke="#00ff00" stroke-dasharray="1,1" stroke-width="0.2" x1="192.5" x2="192.5" y1="0" y2="205"/>
        <line stroke="#00ff00" stroke-dasharray="1,1" stroke-width="0.2" x1="12.5" x2="12.5" y1="0" y2="205"/>
        <line stroke="#00ff00" stroke-dasharray="1,1" stroke-width="0.2" x1="202.5" x2="202.5" y1="0" y2="205"/>
        <line stroke="#00ff00" stroke-dasharray="1,1" stroke-width="0.2" x1="2.5" x2="2.5" y1="0" y2="205"/>
        <line stroke="#00ff00" stroke-dasharray="1,1" stroke-width="0.2" x1="212.5" x2="212.5" y1="0" y2="205"/>
        <line stroke="#00ff00" stroke-dasharray="1,1" stroke-width="0.2" x1="-7.5" x2="-7.5" y1="0" y2="205"/>
        <line stroke="#00ff00" stroke-width="0.2" x1="0" x2="205.0" y1="102.5" y2="102.5"/>
        <line stroke="#00ff00" stroke-dasharray="1,1" stroke-width="0.2" x1="0" x2="205" y1="112.5" y2="112.5"/>
        <line stroke="#00ff00" stroke-dasharray="1,1" stroke-width="0.2" x1="0" x2="205" y1="92.5" y2="92.5"/>
        <line stroke="#00ff00" stroke-dasharray="1,1" stroke-width="0.2" x1="0" x2="205" y1="122.5" y2="122.5"/>
        <line stroke="#00ff00" stroke-dasharray="1,1" stroke-width="0.2" x1="0" x2="205" y1="82.5" y2="82.5"/>
        <line stroke="#00ff00" stroke-dasharray="1,1" stroke-width="0.2" x1="0" x2="205" y1="132.5" y2="132.5"/>
        <line stroke="#00ff00" stroke-dasharray="1,1" stroke-width="0.2" x1="0" x2="205" y1="72.5" y2="72.5"/>
        <line stroke="#00ff00" stroke-dasharray="1,1" stroke-width="0.2" x1="0" x2="205" y1="142.5" y2="142.5"/>
        <line stroke="#00ff00" stroke-dasharray="1,1" stroke-width="0.2" x1="0" x2="205" y1="62.5" y2="62.5"/>
        <line stroke="#00ff00" stroke-dasharray="1,1" stroke-width="0.2" x1="0" x2="205" y1="152.5" y2="152.5"/>
        <line stroke="#00ff00" stroke-dasharray="1,1" stroke-width="0.2" x1="0" x2="205" y1="52.5" y2="52.5"/>
        <line stroke="#00ff00" stroke-dasharray="1,1" stroke-width="0.2" x1="0" x2="205" y1="162.5" y2="162.5"/>
        <line stroke="#00ff00" stroke-dasharray="1,1" stroke-width="0.2" x1="0" x2="205" y1="42.5" y2="42.5"/>
        <line stroke="#00ff00" stroke-dasharray="1,1" stroke-width="0.2" x1="0" x2="205" y1="172.5" y2="172.5"/>
        <line stroke="#00ff00" stroke-dasharray="1,1" stroke-width="0.2" x1="0" x2="205" y1="32.5" y2="32.5"/>
        <line stroke="#00ff00" stroke-dasharray="1,1" stroke-width="0.2" x1="0" x2="205" y1="182.5" y2="182.5"/>
        <line stroke="#00ff00" stroke-dasharray="1,1" stroke-width="0.2" x1="0" x2="205" y1="22.5" y2="22.5"/>
        <line stroke="#00ff00" stroke-dasharray="1,1" stroke-width="0.2" x1="0" x2="205" y1="192.5" y2="192.5"/>
        <line stroke="#00ff00" stroke-dasharray="1,1" stroke-width="0.2" x1="0" x2="205" y1="12.5" y2="12.5"/>
        <line stroke="#00ff00" stroke-dasharray="1,1" stroke-width="0.2" x1="0" x2="205" y1="202.5" y2="202.5"/>
        <line stroke="#00ff00" stroke-dasharray="1,1" stroke-width="0.2" x1="0" x2="205" y1="2.5" y2="2.5"/>
        <line stroke="#00ff00" stroke-dasharray="1,1" stroke-width="0.2" x1="0" x2="205" y1="212.5" y2="212.5"/>
        <line stroke="#00ff00" stroke-dasharray="1,1" stroke-width="0.2" x1="0" x2="205" y1="-7.5" y2="-7.5"/>
        <line stroke="#00ff00" stroke-dasharray="1,1" stroke-width="0.2" x1="0" x2="205" y1="222.5" y2="222.5"/>
        <line stroke="#00ff00" stroke-dasharray="1,1" stroke-width="0.2" x1="0" x2="205" y1="-17.5" y2="-17.5"/>
        <line stroke="#00ff00" stroke-dasharray="1,1" stroke-width="0.2" x1="0" x2="205" y1="232.5" y2="232.5"/>
        <line stroke="#00ff00" stroke-dasharray="1,1" stroke-width="0.2" x1="0" x2="205" y1="-27.5" y2="-27.5"/>
        <line stroke="#00ff00" stroke-dasharray="1,1" stroke-width="0.2" x1="0" x2="205" y1="242.5" y2="242.5"/>
        <line stroke="#00ff00" stroke-dasharray="1,1" stroke-width="0.2" x1="0" x2="205" y1="-37.5" y2="-37.5"/>
        <line stroke="#00ff00" stroke-dasharray="1,1" stroke-width="0.2" x1="0" x2="205" y1="252.5" y2="252.5"/>
        <line stroke="#00ff00" stroke-dasharray="1,1" stroke-width="0.2" x1="0" x2="205" y1="-47.5" y2="-47.5"/>
        <line stroke="#00ff00" stroke-dasharray="1,1" stroke-width="0.2" x1="0" x2="205" y1="262.5" y2="262.5"/>
        <line stroke="#00ff00" stroke-dasharray="1,1" stroke-width="0.2" x1="0" x2="205" y1="-57.5" y2="-57.5"/>
        <line stroke="#00ff00" stroke-dasharray="1,1" stroke-width="0.2" x1="0" x2="205" y1="272.5" y2="272.5"/>
        <line stroke="#00ff00" stroke-dasharray="1,1" stroke-width="0.2" x1="0" x2="205" y1="-67.5" y2="-67.5"/>
        <line stroke="#00ff00" stroke-dasharray="1,1" stroke-width="0.2" x1="0" x2="205" y1="282.5" y2="282.5"/>
        <line stroke="#00ff00" stroke-dasharray="1,1" stroke-width="0.2" x1="0" x2="205" y1="-77.5" y2="-77.5"/>
        <line stroke="#00ff00" stroke-dasharray="1,1" stroke-width="0.2" x1="0" x2="205" y1="292.5" y2="292.5"/>
        <line stroke="#00ff00" stroke-dasharray="1,1" stroke-width="0.2" x1="0" x2="205" y1="-87.5" y2="-87.5"/>
        <line stroke="#00ff00" stroke-dasharray="1,1" stroke-width="0.2" x1="0" x2="205" y1="302.5" y2="302.5"/>
        <line stroke="#00ff00" stroke-dasharray="1,1" stroke-width="0.2" x1="0" x2="205" y1="-97.5" y2="-97.5"/>
        <line stroke="#00ff00" stroke-dasharray="1,1" stroke-width="0.2" x1="0" x2="205" y1="312.5" y2="312.5"/>
        <line stroke="#00ff00" stroke-dasharray="1,1" stroke-width="0.2" x1="0" x2="205" y1="-107.5" y2="-107.5"/>
    </g>
    <g>
        <text fill="blue" font-size="4.0" id="info" x="0" y="0">
            <tspan dy="4.0" x="0">{20}, size: 31.28689300804617</tspan>
            <tspan dy="4.0" x="0">area: 3.09016994374947·10⁴</tspan>
            <tspan dy="4.0" x="0">perimeter: 625.7378601609234</tspan>
        </text>
    </g>
    <g>
        <polygon fill="none" points="201.26883405951378,86.85655349597691 201.26883405951378,118.14344650402309 191.6006524188368,147.89904997395467 173.21067811865476,173.21067811865476 147.89904997395467,191.60065241883677 118.14344650402309,201.26883405951378 86.85655349597691,201.26883405951378 57.10095002604532,191.6006524188368 31.789321881345245,173.21067811865476 13.399347581163212,147.89904997395467 3.731165940486221,118.1434465040231 3.731165940486207,86.85655349597693 13.399347581163198,57.100950026045325 31.789321881345217,31.789321881345245 57.100950026045304,13.399347581163212 86.8565534959769,3.731165940486221 118.14344650402307,3.731165940486207 147.89904997395467,13.399347581163184 173.21067811865476,31.789321881345217 191.60065241883677,57.1009500260453" stroke="black" stroke-width="1"/>
        <!--Dot showing the first vertex-->
        <circle cx="201.26883405951378" cy="86.85655349597691" fill="#ff0000" r="1.1"/>
        <!--Inscribed circle of {20}, size: 31.28689300804617-->
        <circle cx="102.5" cy="102.5" fill="none" r="98.76883405951378" stroke="black" stroke-dasharray="1,1" stroke-opacity="0.3" stroke-width="0.2"/>
        <!--Circumscribed circle of {20}, size: 31.28689300804617-->
        <circle cx="102.5" cy="102.5" fill="none" r="100.00000000000001" stroke="black" stroke-dasharray="1,1" stroke-opacity="0.3" stroke-width="0.2"/>
    </g>
</svg>
