<svg height="200" width="200" xmlns="http://www.w3.org/2000/svg">
    <g id="grid">
        <!--Grid-->
        <line stroke="#00ff00" stroke-dasharray="1,1" stroke-width="0.2" x1="0" x2="0" y1="0" y2="200"/>
        <line stroke="#00ff00" stroke-dasharray="1,1" stroke-width="0.2" x1="10" x2="10" y1="0" y2="200"/>
        <line stroke="#00ff00" stroke-dasharray="1,1" stroke-width="0.2" x1="20" x2="20" y1="0" y2="200"/>
        <line stroke="#00ff00" stroke-dasharray="1,1" stroke-width="0.2" x1="30" x2="30" y1="0" y2="200"/>
        <line stroke="#00ff00" stroke-dasharray="1,1" stroke-width="0.2" x1="40" x2="40" y1="0" y2="200"/>
        <line stroke="#00ff00" stroke-dasharray="1,1" stroke-width="0.2" x1="50" x2="50" y1="0" y2="200"/>
        <line stroke="#00ff00" stroke-dasharray="1,1" stroke-width="0.2" x1="60" x2="60" y1="0" y2="200"/>
        <line stroke="#00ff00" stroke-dasharray="1,1" stroke-width="0.2" x1="70" x2="70" y1="0" y2="200"/>
        <line stroke="#00ff00" stroke-dasharray="1,1" stroke-width="0.2" x1="80" x2="80" y1="0" y2="200"/>
        <line stroke="#00ff00" stroke-dasharray="1,1" stroke-width="0.2" x1="90" x2="90" y1="0" y2="200"/>
        <line stroke="#00ff00" stroke-width="0.2" x1="100" x2="100" y1="0" y2="200"/>
        <line stroke="#00ff00" stroke-dasharray="1,1" stroke-width="0.2" x1="110" x2="110" y1="0" y2="200"/>
        <line stroke="#00ff00" stroke-dasharray="1,1" stroke-width="0.2" x1="120" x2="120" y1="0" y2="200"/>
        <line stroke="#00ff00" stroke-dasharray="1,1" stroke-width="0.2" x1="130" x2="130" y1="0" y2="200"/>
        <line stroke="#00ff00" stroke-dasharray="1,1" stroke-width="0.2" x1="140" x2="140" y1="0" y2="200"/>
        <line stroke="#00ff00" stroke-dasharray="1,1" stroke-width="0.2" x1="150" x2="150" y1="0" y2="200"/>
        <line stroke="#00ff00" stroke-dasharray="1,1" stroke-width="0.2" x1="160" x2="160" y1="0" y2="200"/>
        <line stroke="#00ff00" stroke-dasharray="1,1" stroke-width="0.2" x1="170" x2="170" y1="0" y2="200"/>
        <line stroke="#00ff00" stroke-dasharray="1,1" stroke-width="0.2" x1="180" x2="180" y1="0" y2="200"/>
        <line stroke="#00ff00" stroke-dasharray="1,1" stroke-width="0.2" x1="190" x2="190" y1="0" y2="200"/>
        <line stroke="#00ff00" stroke-dasharray="1,1" stroke-width="0.2" x1="0" x2="200" y1="0" y2="0"/>
        <line stroke="#00ff00" stroke-dasharray="1,1" stroke-width="0.2" x1="0" x2="200" y1="10" y2="10"/>
        <line stroke="#00ff00" stroke-dasharray="1,1" stroke-width="0.2" x1="0" x2="200" y1="20" y2="20"/>
        <line stroke="#00ff00" stroke-dasharray="1,1" stroke-width="0.2" x1="0" x2="200" y1="30" y2="30"/>
        <line stroke="#00ff00" stroke-dasharray="1,1" stroke-width="0.2" x1="0" x2="200" y1="40" y2="40"/>
        <line stroke="#00ff00" stroke-dasharray="1,1" stroke-width="0.2" x1="0" x2="200" y1="50" y2="50"/>
        <line stroke="#00ff00" stroke-dasharray="1,1" stroke-width="0.2" x1="0" x2="200" y1="60" y2="60"/>
        <line stroke="#00ff00" stroke-dasharray="1,1" stroke-width="0.2" x1="0" x2="200" y1="70" y2="70"/>
        <line stroke="#00ff00" stroke-dasharray="1,1" stroke-width="0.2" x1="0" x2="200" y1="80" y2="80"/>
        <line stroke="#00ff00" stroke-dasharray="1,1" stroke-width="0.2" x1="0" x2="200" y1="90" y2="90"/>
        <line stroke="#00ff00" stroke-width="0.2" x1="0" x2="200" y1="100" y2="100"/>
        <line stroke="#00ff00" stroke-dasharray="1,1" stroke-width="0.2" x1="0" x2="200" y1="110" y2="110"/>
        <line stroke="#00ff00" stroke-dasharray="1,1" stroke-width="0.2" x1="0" x2="200" y1="120" y2="120"/>
        <line stroke="#00ff00" stroke-dasharray="1,1" stroke-width="0.2" x1="0" x2="200" y1="130" y2="130"/>
        <line stroke="#00ff00" stroke-dasharray="1,1" stroke-width="0.2" x1="0" x2="200" y1="140" y2="140"/>
        <line stroke="#00ff00" stroke-dasharray="1,1" stroke-width="0.2" x1="0" x2="200" y1="150" y2="150"/>
        <line stroke="#00ff00" stroke-dasharray="1,1" stroke-width="0.2" x1="0" x2="200" y1="160" y2="160"/>
        <line stroke="#00ff00" stroke-dasharray="1,1" stroke-width="0.2" x1="0" x2="200" y1="170" y2="170"/>
        <line stroke="#00ff00" stroke-dasharray="1,1" stroke-width="0.2" x1="0" x2="200" y1="180" y2="180"/>
        <line stroke="#00ff00" stroke-dasharray="1,1" stroke-width="0.2" x1="0" x2="200" y1="190" y2="190"/>
    </g>
    <g>
        <polygon fill="none" points="198.76883405951378,84.35655349597691 198.76883405951378,115.64344650402309 189.1006524188368,145.39904997395467 170.71067811865476,170.71067811865476 145.39904997395467,189.10065241883677 115.64344650402309,198.76883405951378 84.35655349597691,198.76883405951378 54.60095002604532,189.1006524188368 29.289321881345245,170.71067811865476 10.899347581163212,145.39904997395467 1.2311659404862212,115.6434465040231 1.231165940486207,84.35655349597693 10.899347581163198,54.600950026045325 29.289321881345217,29.289321881345245 54.600950026045304,10.899347581163212 84.3565534959769,1.2311659404862212 115.64344650402307,1.231165940486207 145.39904997395467,10.899347581163184 170.71067811865476,29.289321881345217 189.10065241883677,54.6009500260453" stroke="black" stroke-width="1"/>
        <!--Dot showing the first vertex-->
        <circle cx="198.76883405951378" cy="84.35655349597691" fill="#ff0000" r="1.1"/>
        <!--Circumscribed circle of {20}, size: 31.28689300804617-->
        <circle cx="100.0" cy="100.0" fill="none" r="100.00000000000001" stroke="black" stroke-dasharray="1,1" stroke-opacity="0.3" stroke-width="0.2"/>
        <text fill="blue" font-size="4.0" id="info" x="0" y="0">
            <tspan dy="4.0" x="0">{20}, size: 3.12868930080462</tspan>
            <tspan dy="4.0" x="0">area: 309.0169943749475</tspan>
            <tspan dy="4.0" x="0">perimeter: 62.57378601609236</tspan>
        </text>
        <!--Inscribed circle of {20}, size: 31.28689300804617-->
        <circle cx="100.0" cy="100.0" fill="none" r="98.76883405951378" stroke="black" stroke-dasharray="1,1" stroke-opacity="0.3" stroke-width="0.2"/>
    </g>
</svg>
