<svg height="205.0" width="205.0" xmlns="http://www.w3.org/2000/svg">
    <g transform="translate(102.5,102.5)">
        <g id="grid">
            <!--Grid-->
            <line stroke="#00ff00" stroke-width="0.2" x1="0" x2="0" y1="-102.5" y2="102.5"/>
            <line stroke="#00ff00" stroke-dasharray="1,1" stroke-width="0.2" x1="10.0" x2="10.0" y1="-102.5" y2="102.5"/>
            <line stroke="#00ff00" stroke-dasharray="1,1" stroke-width="0.2" x1="-10.0" x2="-10.0" y1="-102.5" y2="102.5"/>
            <line stroke="#00ff00" stroke-dasharray="1,1" stroke-width="0.2" x1="20.0" x2="20.0" y1="-102.5" y2="102.5"/>
            <line stroke="#00ff00" stroke-dasharray="1,1" stroke-width="0.2" x1="-20.0" x2="-20.0" y1="-102.5" y2="102.5"/>
            <line stroke="#00ff00" stroke-dasharray="1,1" stroke-width="0.2" x1="30.0" x2="30.0" y1="-102.5" y2="102.5"/>
            <line stroke="#00ff00" stroke-dasharray="1,1" stroke-width="0.2" x1="-30.0" x2="-30.0" y1="-102.5" y2="102.5"/>
            <line stroke="#00ff00" stroke-dasharray="1,1" stroke-width="0.2" x1="40.0" x2="40.0" y1="-102.5" y2="102.5"/>
            <line stroke="#00ff00" stroke-dasharray="1,1" stroke-width="0.2" x1="-40.0" x2="-40.0" y1="-102.5" y2="102.5"/>
            <line stroke="#00ff00" stroke-dasharray="1,1" stroke-width="0.2" x1="50.0" x2="50.0" y1="-102.5" y2="102.5"/>
            <line stroke="#00ff00" stroke-dasharray="1,1" stroke-width="0.2" x1="-50.0" x2="-50.0" y1="-102.5" y2="102.5"/>
            <line stroke="#00ff00" stroke-dasharray="1,1" stroke-width="0.2" x1="60.0" x2="60.0" y1="-102.5" y2="102.5"/>
            <line stroke="#00ff00" stroke-dasharray="1,1" stroke-width="0.2" x1="-60.0" x2="-60.0" y1="-102.5" y2="102.5"/>
            <line stroke="#00ff00" stroke-dasharray="1,1" stroke-width="0.2" x1="70.0" x2="70.0" y1="-102.5" y2="102.5"/>
            <line stroke="#00ff00" stroke-dasharray="1,1" stroke-width="0.2" x1="-70.0" x2="-70.0" y1="-102.5" y2="102.5"/>
            <line stroke="#00ff00" stroke-dasharray="1,1" stroke-width="0.2" x1="80.0" x2="80.0" y1="-102.5" y2="102.5"/>
            <line stroke="#00ff00" stroke-dasharray="1,1" stroke-width="0.2" x1="-80.0" x2="-80.0" y1="-102.5" y2="102.5"/>
            <line stroke="#00ff00" stroke-dasharray="1,1" stroke-width="0.2" x1="90.0" x2="90.0" y1="-102.5" y2="102.5"/>
            <line stroke="#00ff00" stroke-dasharray="1,1" stroke-width="0.2" x1="-90.0" x2="-90.0" y1="-102.5" y2="102.5"/>
            <line stroke="#00ff00" stroke-dasharray="1,1" stroke-width="0.2" x1="100.0" x2="100.0" y1="-102.5" y2="102.5"/>
            <line stroke="#00ff00" stroke-dasharray="1,1" stroke-width="0.2" x1="-100.0" x2="-100.0" y1="-102.5" y2="102.5"/>
            <line stroke="#00ff00" stroke-dasharray="1,1" stroke-width="0.2" x1="110.0" x2="110.0" y1="-102.5" y2="102.5"/>
            <line stroke="#00ff00" stroke-dasharray="1,1" stroke-width="0.2" x1="-110.0" x2="-110.0" y1="-102.5" y2="102.5"/>
            <line stroke="#00ff00" stroke-width="0.2" x1="-102.5" x2="102.5" y1="0" y2="0"/>
            <line stroke="#00ff00" stroke-dasharray="1,1" stroke-width="0.2" x1="-102.5" x2="102.5" y1="10.0" y2="10.0"/>
            <line stroke="#00ff00" stroke-dasharray="1,1" stroke-width="0.2" x1="-102.5" x2="102.5" y1="-10.0" y2="-10.0"/>
            <line stroke="#00ff00" stroke-dasharray="1,1" stroke-width="0.2" x1="-102.5" x2="102.5" y1="20.0" y2="20.0"/>
            <line stroke="#00ff00" stroke-dasharray="1,1" stroke-width="0.2" x1="-102.5" x2="102.5" y1="-20.0" y2="-20.0"/>
            <line stroke="#00ff00" stroke-dasharray="1,1" stroke-width="0.2" x1="-102.5" x2="102.5" y1="30.0" y2="30.0"/>
            <line stroke="#00ff00" stroke-dasharray="1,1" stroke-width="0.2" x1="-102.5" x2="102.5" y1="-30.0" y2="-30.0"/>
            <line stroke="#00ff00" stroke-dasharray="1,1" stroke-width="0.2" x1="-102.5" x2="102.5" y1="40.0" y2="40.0"/>
            <line stroke="#00ff00" stroke-dasharray="1,1" stroke-width="0.2" x1="-102.5" x2="102.5" y1="-40.0" y2="-40.0"/>
            <line stroke="#00ff00" stroke-dasharray="1,1" stroke-width="0.2" x1="-102.5" x2="102.5" y1="50.0" y2="50.0"/>
            <line stroke="#00ff00" stroke-dasharray="1,1" stroke-width="0.2" x1="-102.5" x2="102.5" y1="-50.0" y2="-50.0"/>
            <line stroke="#00ff00" stroke-dasharray="1,1" stroke-width="0.2" x1="-102.5" x2="102.5" y1="60.0" y2="60.0"/>
            <line stroke="#00ff00" stroke-dasharray="1,1" stroke-width="0.2" x1="-102.5" x2="102.5" y1="-60.0" y2="-60.0"/>
            <line stroke="#00ff00" stroke-dasharray="1,1" stroke-width="0.2" x1="-102.5" x2="102.5" y1="70.0" y2="70.0"/>
            <line stroke="#00ff00" stroke-dasharray="1,1" stroke-width="0.2" x1="-102.5" x2="102.5" y1="-70.0" y2="-70.0"/>
            <line stroke="#00ff00" stroke-dasharray="1,1" stroke-width="0.2" x1="-102.5" x2="102.5" y1="80.0" y2="80.0"/>
            <line stroke="#00ff00" stroke-dasharray="1,1" stroke-width="0.2" x1="-102.5" x2="102.5" y1="-80.0" y2="-80.0"/>
            <line stroke="#00ff00" stroke-dasharray="1,1" stroke-width="0.2" x1="-102.5" x2="102.5" y1="90.0" y2="90.0"/>
            <line stroke="#00ff00" stroke-dasharray="1,1" stroke-width="0.2" x1="-102.5" x2="102.5" y1="-90.0" y2="-90.0"/>
            <line stroke="#00ff00" stroke-dasharray="1,1" stroke-width="0.2" x1="-102.5" x2="102.5" y1="100.0" y2="100.0"/>
            <line stroke="#00ff00" stroke-dasharray="1,1" stroke-width="0.2" x1="-102.5" x2="102.5" y1="-100.0" y2="-100.0"/>
            <line stroke="#00ff00" stroke-dasharray="1,1" stroke-width="0.2" x1="-102.5" x2="102.5" y1="110.0" y2="110.0"/>
            <line stroke="#00ff00" stroke-dasharray="1,1" stroke-width="0.2" x1="-102.5" x2="102.5" y1="-110.0" y2="-110.0"/>
            <line stroke="#00ff00" stroke-dasharray="1,1" stroke-width="0.2" x1="-102.5" x2="102.5" y1="120.0" y2="120.0"/>
            <line stroke="#00ff00" stroke-dasharray="1,1" stroke-width="0.2" x1="-102.5" x2="102.5" y1="-120.0" y2="-120.0"/>
            <line stroke="#00ff00" stroke-dasharray="1,1" stroke-width="0.2" x1="-102.5" x2="102.5" y1="130.0" y2="130.0"/>
            <line stroke="#00ff00" stroke-dasharray="1,1" stroke-width="0.2" x1="-102.5" x2="102.5" y1="-130.0" y2="-130.0"/>
            <line stroke="#00ff00" stroke-dasharray="1,1" stroke-width="0.2" x1="-102.5" x2="102.5" y1="140.0" y2="140.0"/>
            <line stroke="#00ff00" stroke-dasharray="1,1" stroke-width="0.2" x1="-102.5" x2="102.5" y1="-140.0" y2="-140.0"/>
            <line stroke="#00ff00" stroke-dasharray="1,1" stroke-width="0.2" x1="-102.5" x2="102.5" y1="150.0" y2="150.0"/>
            <line stroke="#00ff00" stroke-dasharray="1,1" stroke-width="0.2" x1="-102.5" x2="102.5" y1="-150.0" y2="-150.0"/>
            <line stroke="#00ff00" stroke-dasharray="1,1" stroke-width="0.2" x1="-102.5" x2="102.5" y1="160.0" y2="160.0"/>
            <line stroke="#00ff00" stroke-dasharray="1,1" stroke-width="0.2" x1="-102.5" x2="102.5" y1="-160.0" y2="-160.0"/>
            <line stroke="#00ff00" stroke-dasharray="1,1" stroke-width="0.2" x1="-102.5" x2="102.5" y1="170.0" y2="170.0"/>
            <line stroke="#00ff00" stroke-dasharray="1,1" stroke-width="0.2" x1="-102.5" x2="102.5" y1="-170.0" y2="-170.0"/>
            <line stroke="#00ff00" stroke-dasharray="1,1" stroke-width="0.2" x1="-102.5" x2="102.5" y1="180.0" y2="180.0"/>
            <line stroke="#00ff00" stroke-dasharray="1,1" stroke-width="0.2" x1="-102.5" x2="102.5" y1="-180.0" y2="-180.0"/>
            <line stroke="#00ff00" stroke-dasharray="1,1" stroke-width="0.2" x1="-102.5" x2="102.5" y1="190.0" y2="190.0"/>
            <line stroke="#00ff00" stroke-dasharray="1,1" stroke-width="0.2" x1="-102.5" x2="102.5" y1="-190.0" y2="-190.0"/>
            <line stroke="#00ff00" stroke-dasharray="1,1" stroke-width="0.2" x1="-102.5" x2="102.5" y1="200.0" y2="200.0"/>
            <line stroke="#00ff00" stroke-dasharray="1,1" stroke-width="0.2" x1="-102.5" x2="102.5" y1="-200.0" y2="-200.0"/>
            <line stroke="#00ff00" stroke-dasharray="1,1" stroke-width="0.2" x1="-102.5" x2="102.5" y1="210.0" y2="210.0"/>
            <line stroke="#00ff00" stroke-dasharray="1,1" stroke-width="0.2" x1="-102.5" x2="102.5" y1="-210.0" y2="-210.0"/>
        </g>
        <g>
            <polygon fill="none" points="92.38795325112868,-38.268343236508976 92.38795325112868,38.268343236508976 38.26834323650898,92.38795325112868 -38.268343236508976,92.38795325112868 -92.38795325112868,38.26834323650899 -92.38795325112868,-38.26834323650896 -38.26834323650903,-92.38795325112865 38.268343236509,-92.38795325112866" stroke="black" stroke-width="1"/>
            <!--Dot showing the first vertex-->
            <circle cx="92.38795325112868" cy="-38.268343236508976" fill="#ff0000" r="1.1"/>
            <!--Inscribed circle of {8}, size: 76.54-->
            <circle fill="none" r="92.38795325112866" stroke="black" stroke-dasharray="1,1" stroke-opacity="0.3" stroke-width="0.2"/>
            <!--Circumscribed circle of {8}, size: 76.54-->
            <circle fill="none" r="100.0" stroke="black" stroke-dasharray="1,1" stroke-opacity="0.3" stroke-width="0.2"/>
            <!--Circumscribed rectangle of {8}, size: 76.54-->
            <rect fill="none" height="184.77590650225733" stroke="blue" stroke-dasharray="2,1" stroke-opacity="0.3" stroke-width="0.6" width="184.77590650225736" x="-92.38795325112868" y="-92.38795325112866"/>
        </g>
    </g>
    <g>
        <text fill="blue" font-size="4.0" id="info" x="0" y="0">
            <tspan dy="4.0" x="0">{8}, size: 76.54</tspan>
            <tspan dy="4.0" x="0">area: 28284.27</tspan>
            <tspan dy="4.0" x="0">perimeter: 612.29</tspan>
            <tspan dy="4.0" x="0">⬚: Rectangle{184.78x184.78}</tspan>
            <tspan dy="4.0" x="0">◌: Circle{100.00}</tspan>
            <tspan dy="4.0" x="0"># edges: 8</tspan>
            <tspan dy="4.0" x="0"># vertices: 8</tspan>
        </text>
    </g>
</svg>
