<svg height="205.0" width="205.0" xmlns="http://www.w3.org/2000/svg">
    <g>
        <text fill="blue" font-size="4.0" id="info" x="0" y="0">
            <tspan dy="4.0" x="0">{9}, size: 68.40402866513374</tspan>
            <tspan dy="4.0" x="0">area: 2.89254424358943·10⁴</tspan>
            <tspan dy="4.0" x="0">perimeter: 615.6362579862036</tspan>
            <tspan dy="4.0" x="0"># edges: 9</tspan>
            <tspan dy="4.0" x="0"># vertices: 9</tspan>
        </text>
    </g>
    <g transform="translate(102.5,102.5)">
        <g id="grid">
            <!--Grid-->
            <line stroke="#00ff00" stroke-width="0.2" x1="0" x2="0" y1="-102.5" y2="102.5"/>
            <line stroke="#00ff00" stroke-dasharray="1,1" stroke-width="0.2" x1="10.0" x2="10.0" y1="-102.5" y2="102.5"/>
            <line stroke="#00ff00" stroke-dasharray="1,1" stroke-width="0.2" x1="-10.0" x2="-10.0" y1="-102.5" y2="102.5"/>
            <line stroke="#00ff00" stroke-dasharray="1,1" stroke-width="0.2" x1="20.0" x2="20.0" y1="-102.5" y2="102.5"/>
            <line stroke="#00ff00" stroke-dasharray="1,1" stroke-width="0.2" x1="-20.0" x2="-20.0" y1="-102.5" y2="102.5"/>
            <line stroke="#00ff00" stroke-dasharray="1,1" stroke-width="0.2" x1="30.0" x2="30.0" y1="-102.5" y2="102.5"/>
            <line stroke="#00ff00" stroke-dasharray="1,1" stroke-width="0.2" x1="-30.0" x2="-30.0" y1="-102.5" y2="102.5"/>
            <line stroke="#00ff00" stroke-dasharray="1,1" stroke-width="0.2" x1="40.0" x2="40.0" y1="-102.5" y2="102.5"/>
            <line stroke="#00ff00" stroke-dasharray="1,1" stroke-width="0.2" x1="-40.0" x2="-40.0" y1="-102.5" y2="102.5"/>
            <line stroke="#00ff00" stroke-dasharray="1,1" stroke-width="0.2" x1="50.0" x2="50.0" y1="-102.5" y2="102.5"/>
            <line stroke="#00ff00" stroke-dasharray="1,1" stroke-width="0.2" x1="-50.0" x2="-50.0" y1="-102.5" y2="102.5"/>
            <line stroke="#00ff00" stroke-dasharray="1,1" stroke-width="0.2" x1="60.0" x2="60.0" y1="-102.5" y2="102.5"/>
            <line stroke="#00ff00" stroke-dasharray="1,1" stroke-width="0.2" x1="-60.0" x2="-60.0" y1="-102.5" y2="102.5"/>
            <line stroke="#00ff00" stroke-dasharray="1,1" stroke-width="0.2" x1="70.0" x2="70.0" y1="-102.5" y2="102.5"/>
            <line stroke="#00ff00" stroke-dasharray="1,1" stroke-width="0.2" x1="-70.0" x2="-70.0" y1="-102.5" y2="102.5"/>
            <line stroke="#00ff00" stroke-dasharray="1,1" stroke-width="0.2" x1="80.0" x2="80.0" y1="-102.5" y2="102.5"/>
            <line stroke="#00ff00" stroke-dasharray="1,1" stroke-width="0.2" x1="-80.0" x2="-80.0" y1="-102.5" y2="102.5"/>
            <line stroke="#00ff00" stroke-dasharray="1,1" stroke-width="0.2" x1="90.0" x2="90.0" y1="-102.5" y2="102.5"/>
            <line stroke="#00ff00" stroke-dasharray="1,1" stroke-width="0.2" x1="-90.0" x2="-90.0" y1="-102.5" y2="102.5"/>
            <line stroke="#00ff00" stroke-dasharray="1,1" stroke-width="0.2" x1="100.0" x2="100.0" y1="-102.5" y2="102.5"/>
            <line stroke="#00ff00" stroke-dasharray="1,1" stroke-width="0.2" x1="-100.0" x2="-100.0" y1="-102.5" y2="102.5"/>
            <line stroke="#00ff00" stroke-dasharray="1,1" stroke-width="0.2" x1="110.0" x2="110.0" y1="-102.5" y2="102.5"/>
            <line stroke="#00ff00" stroke-dasharray="1,1" stroke-width="0.2" x1="-110.0" x2="-110.0" y1="-102.5" y2="102.5"/>
            <line stroke="#00ff00" stroke-width="0.2" x1="-102.5" x2="102.5" y1="0" y2="0"/>
            <line stroke="#00ff00" stroke-dasharray="1,1" stroke-width="0.2" x1="-102.5" x2="102.5" y1="10.0" y2="10.0"/>
            <line stroke="#00ff00" stroke-dasharray="1,1" stroke-width="0.2" x1="-102.5" x2="102.5" y1="-10.0" y2="-10.0"/>
            <line stroke="#00ff00" stroke-dasharray="1,1" stroke-width="0.2" x1="-102.5" x2="102.5" y1="20.0" y2="20.0"/>
            <line stroke="#00ff00" stroke-dasharray="1,1" stroke-width="0.2" x1="-102.5" x2="102.5" y1="-20.0" y2="-20.0"/>
            <line stroke="#00ff00" stroke-dasharray="1,1" stroke-width="0.2" x1="-102.5" x2="102.5" y1="30.0" y2="30.0"/>
            <line stroke="#00ff00" stroke-dasharray="1,1" stroke-width="0.2" x1="-102.5" x2="102.5" y1="-30.0" y2="-30.0"/>
            <line stroke="#00ff00" stroke-dasharray="1,1" stroke-width="0.2" x1="-102.5" x2="102.5" y1="40.0" y2="40.0"/>
            <line stroke="#00ff00" stroke-dasharray="1,1" stroke-width="0.2" x1="-102.5" x2="102.5" y1="-40.0" y2="-40.0"/>
            <line stroke="#00ff00" stroke-dasharray="1,1" stroke-width="0.2" x1="-102.5" x2="102.5" y1="50.0" y2="50.0"/>
            <line stroke="#00ff00" stroke-dasharray="1,1" stroke-width="0.2" x1="-102.5" x2="102.5" y1="-50.0" y2="-50.0"/>
            <line stroke="#00ff00" stroke-dasharray="1,1" stroke-width="0.2" x1="-102.5" x2="102.5" y1="60.0" y2="60.0"/>
            <line stroke="#00ff00" stroke-dasharray="1,1" stroke-width="0.2" x1="-102.5" x2="102.5" y1="-60.0" y2="-60.0"/>
            <line stroke="#00ff00" stroke-dasharray="1,1" stroke-width="0.2" x1="-102.5" x2="102.5" y1="70.0" y2="70.0"/>
            <line stroke="#00ff00" stroke-dasharray="1,1" stroke-width="0.2" x1="-102.5" x2="102.5" y1="-70.0" y2="-70.0"/>
            <line stroke="#00ff00" stroke-dasharray="1,1" stroke-width="0.2" x1="-102.5" x2="102.5" y1="80.0" y2="80.0"/>
            <line stroke="#00ff00" stroke-dasharray="1,1" stroke-width="0.2" x1="-102.5" x2="102.5" y1="-80.0" y2="-80.0"/>
            <line stroke="#00ff00" stroke-dasharray="1,1" stroke-width="0.2" x1="-102.5" x2="102.5" y1="90.0" y2="90.0"/>
            <line stroke="#00ff00" stroke-dasharray="1,1" stroke-width="0.2" x1="-102.5" x2="102.5" y1="-90.0" y2="-90.0"/>
            <line stroke="#00ff00" stroke-dasharray="1,1" stroke-width="0.2" x1="-102.5" x2="102.5" y1="100.0" y2="100.0"/>
            <line stroke="#00ff00" stroke-dasharray="1,1" stroke-width="0.2" x1="-102.5" x2="102.5" y1="-100.0" y2="-100.0"/>
            <line stroke="#00ff00" stroke-dasharray="1,1" stroke-width="0.2" x1="-102.5" x2="102.5" y1="110.0" y2="110.0"/>
            <line stroke="#00ff00" stroke-dasharray="1,1" stroke-width="0.2" x1="-102.5" x2="102.5" y1="-110.0" y2="-110.0"/>
            <line stroke="#00ff00" stroke-dasharray="1,1" stroke-width="0.2" x1="-102.5" x2="102.5" y1="120.0" y2="120.0"/>
            <line stroke="#00ff00" stroke-dasharray="1,1" stroke-width="0.2" x1="-102.5" x2="102.5" y1="-120.0" y2="-120.0"/>
            <line stroke="#00ff00" stroke-dasharray="1,1" stroke-width="0.2" x1="-102.5" x2="102.5" y1="130.0" y2="130.0"/>
            <line stroke="#00ff00" stroke-dasharray="1,1" stroke-width="0.2" x1="-102.5" x2="102.5" y1="-130.0" y2="-130.0"/>
            <line stroke="#00ff00" stroke-dasharray="1,1" stroke-width="0.2" x1="-102.5" x2="102.5" y1="140.0" y2="140.0"/>
            <line stroke="#00ff00" stroke-dasharray="1,1" stroke-width="0.2" x1="-102.5" x2="102.5" y1="-140.0" y2="-140.0"/>
            <line stroke="#00ff00" stroke-dasharray="1,1" stroke-width="0.2" x1="-102.5" x2="102.5" y1="150.0" y2="150.0"/>
            <line stroke="#00ff00" stroke-dasharray="1,1" stroke-width="0.2" x1="-102.5" x2="102.5" y1="-150.0" y2="-150.0"/>
            <line stroke="#00ff00" stroke-dasharray="1,1" stroke-width="0.2" x1="-102.5" x2="102.5" y1="160.0" y2="160.0"/>
            <line stroke="#00ff00" stroke-dasharray="1,1" stroke-width="0.2" x1="-102.5" x2="102.5" y1="-160.0" y2="-160.0"/>
            <line stroke="#00ff00" stroke-dasharray="1,1" stroke-width="0.2" x1="-102.5" x2="102.5" y1="170.0" y2="170.0"/>
            <line stroke="#00ff00" stroke-dasharray="1,1" stroke-width="0.2" x1="-102.5" x2="102.5" y1="-170.0" y2="-170.0"/>
            <line stroke="#00ff00" stroke-dasharray="1,1" stroke-width="0.2" x1="-102.5" x2="102.5" y1="180.0" y2="180.0"/>
            <line stroke="#00ff00" stroke-dasharray="1,1" stroke-width="0.2" x1="-102.5" x2="102.5" y1="-180.0" y2="-180.0"/>
            <line stroke="#00ff00" stroke-dasharray="1,1" stroke-width="0.2" x1="-102.5" x2="102.5" y1="190.0" y2="190.0"/>
            <line stroke="#00ff00" stroke-dasharray="1,1" stroke-width="0.2" x1="-102.5" x2="102.5" y1="-190.0" y2="-190.0"/>
            <line stroke="#00ff00" stroke-dasharray="1,1" stroke-width="0.2" x1="-102.5" x2="102.5" y1="200.0" y2="200.0"/>
            <line stroke="#00ff00" stroke-dasharray="1,1" stroke-width="0.2" x1="-102.5" x2="102.5" y1="-200.0" y2="-200.0"/>
            <line stroke="#00ff00" stroke-dasharray="1,1" stroke-width="0.2" x1="-102.5" x2="102.5" y1="210.0" y2="210.0"/>
            <line stroke="#00ff00" stroke-dasharray="1,1" stroke-width="0.2" x1="-102.5" x2="102.5" y1="-210.0" y2="-210.0"/>
        </g>
        <g>
            <polygon fill="none" points="6.123233995736766E-15,-100.0 64.27876096865394,-76.60444431189781 98.4807753012208,-17.364817766693037 86.60254037844388,49.999999999999986 34.20201433256688,93.96926207859083 -34.20201433256687,93.96926207859084 -86.60254037844385,50.000000000000036 -98.48077530122082,-17.364817766693 -64.27876096865394,-76.6044443118978" stroke="black" stroke-width="1"/>
            <!--Dot showing the first vertex-->
            <circle cx="6.123233995736766E-15" cy="-100.0" fill="#ff0000" r="1.1"/>
            <!--Inscribed circle of {9}, size: 68.40402866513374-->
            <circle fill="none" r="93.96926207859084" stroke="black" stroke-dasharray="1,1" stroke-opacity="0.3" stroke-width="0.2"/>
            <!--Circumscribed circle of {9}, size: 68.40402866513374-->
            <circle fill="none" r="100.0" stroke="black" stroke-dasharray="1,1" stroke-opacity="0.3" stroke-width="0.2"/>
            <!--Circumscribed rectangle of {9}, size: 68.40402866513374-->
            <rect fill="none" height="196.9615506024416" stroke="black" stroke-dasharray="1,1" stroke-opacity="0.3" stroke-width="0.2" width="193.96926207859084" x="-98.4807753012208" y="93.96926207859084"/>
        </g>
    </g>
</svg>
