<svg height="200.0" width="200.0" xmlns="http://www.w3.org/2000/svg">
    <g id="grid">
        <!--Grid-->
        <line stroke="#00ff00" stroke-width="0.2" x1="100.0" x2="100.0" y1="0" y2="200.0"/>
        <line stroke="#00ff00" stroke-dasharray="1,1" stroke-width="0.2" x1="110.0" x2="110.0" y1="0" y2="200"/>
        <line stroke="#00ff00" stroke-dasharray="1,1" stroke-width="0.2" x1="90.0" x2="90.0" y1="0" y2="200"/>
        <line stroke="#00ff00" stroke-dasharray="1,1" stroke-width="0.2" x1="120.0" x2="120.0" y1="0" y2="200"/>
        <line stroke="#00ff00" stroke-dasharray="1,1" stroke-width="0.2" x1="80.0" x2="80.0" y1="0" y2="200"/>
        <line stroke="#00ff00" stroke-dasharray="1,1" stroke-width="0.2" x1="130.0" x2="130.0" y1="0" y2="200"/>
        <line stroke="#00ff00" stroke-dasharray="1,1" stroke-width="0.2" x1="70.0" x2="70.0" y1="0" y2="200"/>
        <line stroke="#00ff00" stroke-dasharray="1,1" stroke-width="0.2" x1="140.0" x2="140.0" y1="0" y2="200"/>
        <line stroke="#00ff00" stroke-dasharray="1,1" stroke-width="0.2" x1="60.0" x2="60.0" y1="0" y2="200"/>
        <line stroke="#00ff00" stroke-dasharray="1,1" stroke-width="0.2" x1="150.0" x2="150.0" y1="0" y2="200"/>
        <line stroke="#00ff00" stroke-dasharray="1,1" stroke-width="0.2" x1="50.0" x2="50.0" y1="0" y2="200"/>
        <line stroke="#00ff00" stroke-dasharray="1,1" stroke-width="0.2" x1="160.0" x2="160.0" y1="0" y2="200"/>
        <line stroke="#00ff00" stroke-dasharray="1,1" stroke-width="0.2" x1="40.0" x2="40.0" y1="0" y2="200"/>
        <line stroke="#00ff00" stroke-dasharray="1,1" stroke-width="0.2" x1="170.0" x2="170.0" y1="0" y2="200"/>
        <line stroke="#00ff00" stroke-dasharray="1,1" stroke-width="0.2" x1="30.0" x2="30.0" y1="0" y2="200"/>
        <line stroke="#00ff00" stroke-dasharray="1,1" stroke-width="0.2" x1="180.0" x2="180.0" y1="0" y2="200"/>
        <line stroke="#00ff00" stroke-dasharray="1,1" stroke-width="0.2" x1="20.0" x2="20.0" y1="0" y2="200"/>
        <line stroke="#00ff00" stroke-dasharray="1,1" stroke-width="0.2" x1="190.0" x2="190.0" y1="0" y2="200"/>
        <line stroke="#00ff00" stroke-dasharray="1,1" stroke-width="0.2" x1="10.0" x2="10.0" y1="0" y2="200"/>
        <line stroke="#00ff00" stroke-dasharray="1,1" stroke-width="0.2" x1="200.0" x2="200.0" y1="0" y2="200"/>
        <line stroke="#00ff00" stroke-dasharray="1,1" stroke-width="0.2" x1="0.0" x2="0.0" y1="0" y2="200"/>
        <line stroke="#00ff00" stroke-width="0.2" x1="0" x2="200.0" y1="100.0" y2="100.0"/>
        <line stroke="#00ff00" stroke-dasharray="1,1" stroke-width="0.2" x1="0" x2="200" y1="110.0" y2="110.0"/>
        <line stroke="#00ff00" stroke-dasharray="1,1" stroke-width="0.2" x1="0" x2="200" y1="90.0" y2="90.0"/>
        <line stroke="#00ff00" stroke-dasharray="1,1" stroke-width="0.2" x1="0" x2="200" y1="120.0" y2="120.0"/>
        <line stroke="#00ff00" stroke-dasharray="1,1" stroke-width="0.2" x1="0" x2="200" y1="80.0" y2="80.0"/>
        <line stroke="#00ff00" stroke-dasharray="1,1" stroke-width="0.2" x1="0" x2="200" y1="130.0" y2="130.0"/>
        <line stroke="#00ff00" stroke-dasharray="1,1" stroke-width="0.2" x1="0" x2="200" y1="70.0" y2="70.0"/>
        <line stroke="#00ff00" stroke-dasharray="1,1" stroke-width="0.2" x1="0" x2="200" y1="140.0" y2="140.0"/>
        <line stroke="#00ff00" stroke-dasharray="1,1" stroke-width="0.2" x1="0" x2="200" y1="60.0" y2="60.0"/>
        <line stroke="#00ff00" stroke-dasharray="1,1" stroke-width="0.2" x1="0" x2="200" y1="150.0" y2="150.0"/>
        <line stroke="#00ff00" stroke-dasharray="1,1" stroke-width="0.2" x1="0" x2="200" y1="50.0" y2="50.0"/>
        <line stroke="#00ff00" stroke-dasharray="1,1" stroke-width="0.2" x1="0" x2="200" y1="160.0" y2="160.0"/>
        <line stroke="#00ff00" stroke-dasharray="1,1" stroke-width="0.2" x1="0" x2="200" y1="40.0" y2="40.0"/>
        <line stroke="#00ff00" stroke-dasharray="1,1" stroke-width="0.2" x1="0" x2="200" y1="170.0" y2="170.0"/>
        <line stroke="#00ff00" stroke-dasharray="1,1" stroke-width="0.2" x1="0" x2="200" y1="30.0" y2="30.0"/>
        <line stroke="#00ff00" stroke-dasharray="1,1" stroke-width="0.2" x1="0" x2="200" y1="180.0" y2="180.0"/>
        <line stroke="#00ff00" stroke-dasharray="1,1" stroke-width="0.2" x1="0" x2="200" y1="20.0" y2="20.0"/>
        <line stroke="#00ff00" stroke-dasharray="1,1" stroke-width="0.2" x1="0" x2="200" y1="190.0" y2="190.0"/>
        <line stroke="#00ff00" stroke-dasharray="1,1" stroke-width="0.2" x1="0" x2="200" y1="10.0" y2="10.0"/>
        <line stroke="#00ff00" stroke-dasharray="1,1" stroke-width="0.2" x1="0" x2="200" y1="200.0" y2="200.0"/>
        <line stroke="#00ff00" stroke-dasharray="1,1" stroke-width="0.2" x1="0" x2="200" y1="0.0" y2="0.0"/>
        <line stroke="#00ff00" stroke-dasharray="1,1" stroke-width="0.2" x1="0" x2="200" y1="210.0" y2="210.0"/>
        <line stroke="#00ff00" stroke-dasharray="1,1" stroke-width="0.2" x1="0" x2="200" y1="-10.0" y2="-10.0"/>
        <line stroke="#00ff00" stroke-dasharray="1,1" stroke-width="0.2" x1="0" x2="200" y1="220.0" y2="220.0"/>
        <line stroke="#00ff00" stroke-dasharray="1,1" stroke-width="0.2" x1="0" x2="200" y1="-20.0" y2="-20.0"/>
        <line stroke="#00ff00" stroke-dasharray="1,1" stroke-width="0.2" x1="0" x2="200" y1="230.0" y2="230.0"/>
        <line stroke="#00ff00" stroke-dasharray="1,1" stroke-width="0.2" x1="0" x2="200" y1="-30.0" y2="-30.0"/>
        <line stroke="#00ff00" stroke-dasharray="1,1" stroke-width="0.2" x1="0" x2="200" y1="240.0" y2="240.0"/>
        <line stroke="#00ff00" stroke-dasharray="1,1" stroke-width="0.2" x1="0" x2="200" y1="-40.0" y2="-40.0"/>
        <line stroke="#00ff00" stroke-dasharray="1,1" stroke-width="0.2" x1="0" x2="200" y1="250.0" y2="250.0"/>
        <line stroke="#00ff00" stroke-dasharray="1,1" stroke-width="0.2" x1="0" x2="200" y1="-50.0" y2="-50.0"/>
        <line stroke="#00ff00" stroke-dasharray="1,1" stroke-width="0.2" x1="0" x2="200" y1="260.0" y2="260.0"/>
        <line stroke="#00ff00" stroke-dasharray="1,1" stroke-width="0.2" x1="0" x2="200" y1="-60.0" y2="-60.0"/>
        <line stroke="#00ff00" stroke-dasharray="1,1" stroke-width="0.2" x1="0" x2="200" y1="270.0" y2="270.0"/>
        <line stroke="#00ff00" stroke-dasharray="1,1" stroke-width="0.2" x1="0" x2="200" y1="-70.0" y2="-70.0"/>
        <line stroke="#00ff00" stroke-dasharray="1,1" stroke-width="0.2" x1="0" x2="200" y1="280.0" y2="280.0"/>
        <line stroke="#00ff00" stroke-dasharray="1,1" stroke-width="0.2" x1="0" x2="200" y1="-80.0" y2="-80.0"/>
        <line stroke="#00ff00" stroke-dasharray="1,1" stroke-width="0.2" x1="0" x2="200" y1="290.0" y2="290.0"/>
        <line stroke="#00ff00" stroke-dasharray="1,1" stroke-width="0.2" x1="0" x2="200" y1="-90.0" y2="-90.0"/>
        <line stroke="#00ff00" stroke-dasharray="1,1" stroke-width="0.2" x1="0" x2="200" y1="300.0" y2="300.0"/>
        <line stroke="#00ff00" stroke-dasharray="1,1" stroke-width="0.2" x1="0" x2="200" y1="-100.0" y2="-100.0"/>
    </g>
    <g>
        <text fill="blue" font-size="4.0" id="info" x="0" y="0">
            <tspan dy="4.0" x="0">Circle{100}</tspan>
            <tspan dy="4.0" x="0">area: 3.14159265358979·10⁴</tspan>
            <tspan dy="4.0" x="0">perimeter: 628.3185307179587</tspan>
        </text>
    </g>
    <g>
        <circle cx="100.0" cy="100.0" fill="none" r="100.0" stroke="black" stroke-width="1"/>
    </g>
</svg>
