<?xml version="1.0" encoding="UTF-8" standalone="no"?>
<!DOCTYPE svg PUBLIC "-//W3C//DTD SVG 1.1//EN"
 "http://www.w3.org/Graphics/SVG/1.1/DTD/svg11.dtd">
<!-- Generated by graphviz version 2.49.3 (20211027.1534)
 -->
<!-- Pages: 1 -->
<svg width="770pt" height="1224pt"
 viewBox="0.00 0.00 770.00 1224.00" xmlns="http://www.w3.org/2000/svg" xmlns:xlink="http://www.w3.org/1999/xlink">
<g id="graph0" class="graph" transform="scale(1 1) rotate(0) translate(4 1220)">
<polygon fill="white" stroke="transparent" points="-4,4 -4,-1220 766,-1220 766,4 -4,4"/>
<!-- AdditiveSemiGroup -->
<g id="node1" class="node">
<title>AdditiveSemiGroup</title>
<g id="a_node1"><a xlink:href="https://github.com/mihxil/math/blob/main/mihxil-math/src/main/java/org/meeuw/math/abstractalgebra/AdditiveSemiGroup.java" xlink:title="{\N|{ + }}">
<polygon fill="none" stroke="black" points="199.5,-73.5 199.5,-119.5 355.5,-119.5 355.5,-73.5 199.5,-73.5"/>
<text text-anchor="middle" x="277.5" y="-104.3" font-family="Times,serif" font-size="14.00">AdditiveSemiGroup</text>
<polyline fill="none" stroke="black" points="199.5,-96.5 355.5,-96.5 "/>
<text text-anchor="middle" x="277.5" y="-81.3" font-family="Times,serif" font-size="14.00">+</text>
</a>
</g>
</g>
<!-- AlgebraicStructure -->
<g id="node2" class="node">
<title>AlgebraicStructure</title>
<polygon fill="none" stroke="black" points="267,-0.5 267,-36.5 420,-36.5 420,-0.5 267,-0.5"/>
<text text-anchor="middle" x="343.5" y="-14.8" font-family="Times,serif" font-size="14.00">AlgebraicStructure</text>
</g>
<!-- AdditiveSemiGroup&#45;&gt;AlgebraicStructure -->
<g id="edge1" class="edge">
<title>AdditiveSemiGroup&#45;&gt;AlgebraicStructure</title>
<path fill="none" stroke="black" d="M296.95,-73.11C304.71,-64.17 313.68,-53.83 321.67,-44.64"/>
<polygon fill="none" stroke="black" points="324.46,-46.76 328.38,-36.91 319.18,-42.17 324.46,-46.76"/>
</g>
<!-- MultiplicativeSemiGroup -->
<g id="node3" class="node">
<title>MultiplicativeSemiGroup</title>
<g id="a_node3"><a xlink:href="https://github.com/mihxil/math/blob/main/mihxil-math/src/main/java/org/meeuw/math/abstractalgebra/MultiplicativeSemiGroup.java" xlink:title="{\N|{ * }}">
<polygon fill="none" stroke="black" points="312.5,-277.5 312.5,-323.5 508.5,-323.5 508.5,-277.5 312.5,-277.5"/>
<text text-anchor="middle" x="410.5" y="-308.3" font-family="Times,serif" font-size="14.00">MultiplicativeSemiGroup</text>
<polyline fill="none" stroke="black" points="312.5,-300.5 508.5,-300.5 "/>
<text text-anchor="middle" x="410.5" y="-285.3" font-family="Times,serif" font-size="14.00">*</text>
</a>
</g>
</g>
<!-- MultiplicativeSemiGroup&#45;&gt;AlgebraicStructure -->
<g id="edge2" class="edge">
<title>MultiplicativeSemiGroup&#45;&gt;AlgebraicStructure</title>
<path fill="none" stroke="black" d="M408.84,-277.4C406.41,-249.03 401.12,-198.4 391.5,-156 382.92,-118.17 377.59,-109.52 364.5,-73 361.35,-64.22 357.71,-54.73 354.34,-46.2"/>
<polygon fill="none" stroke="black" points="357.53,-44.74 350.57,-36.75 351.03,-47.33 357.53,-44.74"/>
</g>
<!-- AdditiveAbelianSemiGroup -->
<g id="node4" class="node">
<title>AdditiveAbelianSemiGroup</title>
<g id="a_node4"><a xlink:href="https://github.com/mihxil/math/blob/main/mihxil-math/src/main/java/org/meeuw/math/abstractalgebra/AdditiveAbelianSemiGroup.java" xlink:title="{\N|{ + \n⇆}|NegativeIntegers ℕ⁻}">
<polygon fill="none" stroke="black" points="173,-156.5 173,-240.5 382,-240.5 382,-156.5 173,-156.5"/>
<text text-anchor="middle" x="277.5" y="-225.3" font-family="Times,serif" font-size="14.00">AdditiveAbelianSemiGroup</text>
<polyline fill="none" stroke="black" points="173,-217.5 382,-217.5 "/>
<text text-anchor="middle" x="277.5" y="-202.3" font-family="Times,serif" font-size="14.00">+ </text>
<text text-anchor="middle" x="277.5" y="-187.3" font-family="Times,serif" font-size="14.00">⇆</text>
<polyline fill="none" stroke="black" points="173,-179.5 382,-179.5 "/>
<text text-anchor="middle" x="277.5" y="-164.3" font-family="Times,serif" font-size="14.00">NegativeIntegers ℕ⁻</text>
</a>
</g>
</g>
<!-- AdditiveAbelianSemiGroup&#45;&gt;AdditiveSemiGroup -->
<g id="edge3" class="edge">
<title>AdditiveAbelianSemiGroup&#45;&gt;AdditiveSemiGroup</title>
<path fill="none" stroke="black" d="M277.5,-156.25C277.5,-147.4 277.5,-138.17 277.5,-129.72"/>
<polygon fill="none" stroke="black" points="281,-129.52 277.5,-119.52 274,-129.52 281,-129.52"/>
</g>
<!-- AdditiveMonoid -->
<g id="node5" class="node">
<title>AdditiveMonoid</title>
<g id="a_node5"><a xlink:href="https://github.com/mihxil/math/blob/main/mihxil-math/src/main/java/org/meeuw/math/abstractalgebra/AdditiveMonoid.java" xlink:title="{\N|{ + &#160;| 0}|StringMonoid\nNaturalNumbers ℕ}">
<polygon fill="none" stroke="black" points="0,-156.5 0,-240.5 155,-240.5 155,-156.5 0,-156.5"/>
<text text-anchor="middle" x="77.5" y="-225.3" font-family="Times,serif" font-size="14.00">AdditiveMonoid</text>
<polyline fill="none" stroke="black" points="0,-217.5 155,-217.5 "/>
<text text-anchor="middle" x="39.5" y="-202.3" font-family="Times,serif" font-size="14.00">+</text>
<polyline fill="none" stroke="black" points="79,-194.5 79,-217.5 "/>
<text text-anchor="middle" x="117" y="-202.3" font-family="Times,serif" font-size="14.00">0</text>
<polyline fill="none" stroke="black" points="0,-194.5 155,-194.5 "/>
<text text-anchor="middle" x="77.5" y="-179.3" font-family="Times,serif" font-size="14.00">StringMonoid</text>
<text text-anchor="middle" x="77.5" y="-164.3" font-family="Times,serif" font-size="14.00">NaturalNumbers ℕ</text>
</a>
</g>
</g>
<!-- AdditiveMonoid&#45;&gt;AdditiveSemiGroup -->
<g id="edge4" class="edge">
<title>AdditiveMonoid&#45;&gt;AdditiveSemiGroup</title>
<path fill="none" stroke="black" d="M155.11,-158.69C178.26,-147.12 203.09,-134.7 224.3,-124.1"/>
<polygon fill="none" stroke="black" points="226.08,-127.12 233.46,-119.52 222.95,-120.86 226.08,-127.12"/>
</g>
<!-- MultiplicativeMonoid -->
<g id="node6" class="node">
<title>MultiplicativeMonoid</title>
<g id="a_node6"><a xlink:href="https://github.com/mihxil/math/blob/main/mihxil-math/src/main/java/org/meeuw/math/abstractalgebra/MultiplicativeMonoid.java" xlink:title="{\N|{ * &#160;| 1}|OddIntegers ℕo}">
<polygon fill="none" stroke="black" points="326,-368 326,-437 495,-437 495,-368 326,-368"/>
<text text-anchor="middle" x="410.5" y="-421.8" font-family="Times,serif" font-size="14.00">MultiplicativeMonoid</text>
<polyline fill="none" stroke="black" points="326,-414 495,-414 "/>
<text text-anchor="middle" x="367.5" y="-398.8" font-family="Times,serif" font-size="14.00">*</text>
<polyline fill="none" stroke="black" points="409,-391 409,-414 "/>
<text text-anchor="middle" x="452" y="-398.8" font-family="Times,serif" font-size="14.00">1</text>
<polyline fill="none" stroke="black" points="326,-391 495,-391 "/>
<text text-anchor="middle" x="410.5" y="-375.8" font-family="Times,serif" font-size="14.00">OddIntegers ℕo</text>
</a>
</g>
</g>
<!-- MultiplicativeMonoid&#45;&gt;MultiplicativeSemiGroup -->
<g id="edge5" class="edge">
<title>MultiplicativeMonoid&#45;&gt;MultiplicativeSemiGroup</title>
<path fill="none" stroke="black" d="M410.5,-367.92C410.5,-356.83 410.5,-344.52 410.5,-333.55"/>
<polygon fill="none" stroke="black" points="414,-333.51 410.5,-323.51 407,-333.51 414,-333.51"/>
</g>
<!-- Rng -->
<g id="node7" class="node">
<title>Rng</title>
<g id="a_node7"><a xlink:href="https://github.com/mihxil/math/blob/main/mihxil-math/src/main/java/org/meeuw/math/abstractalgebra/Rng.java" xlink:title="{\N|{ + &#160;&#45; \n⇆ | &#160;* &#160;| 0}|EvenIntegers 2ℤ\nNDivisibleIntegers}">
<polygon fill="none" stroke="black" points="182,-481.5 182,-580.5 333,-580.5 333,-481.5 182,-481.5"/>
<text text-anchor="middle" x="257.5" y="-565.3" font-family="Times,serif" font-size="14.00">Rng</text>
<polyline fill="none" stroke="black" points="182,-557.5 333,-557.5 "/>
<text text-anchor="middle" x="213" y="-542.3" font-family="Times,serif" font-size="14.00">+ &#45; </text>
<text text-anchor="middle" x="213" y="-527.3" font-family="Times,serif" font-size="14.00">⇆</text>
<polyline fill="none" stroke="black" points="244,-519.5 244,-557.5 "/>
<text text-anchor="middle" x="265.5" y="-534.8" font-family="Times,serif" font-size="14.00">*</text>
<polyline fill="none" stroke="black" points="287,-519.5 287,-557.5 "/>
<text text-anchor="middle" x="310" y="-534.8" font-family="Times,serif" font-size="14.00">0</text>
<polyline fill="none" stroke="black" points="182,-519.5 333,-519.5 "/>
<text text-anchor="middle" x="257.5" y="-504.3" font-family="Times,serif" font-size="14.00">EvenIntegers 2ℤ</text>
<text text-anchor="middle" x="257.5" y="-489.3" font-family="Times,serif" font-size="14.00">NDivisibleIntegers</text>
</a>
</g>
</g>
<!-- Rng&#45;&gt;MultiplicativeSemiGroup -->
<g id="edge6" class="edge">
<title>Rng&#45;&gt;MultiplicativeSemiGroup</title>
<path fill="none" stroke="black" d="M270.84,-481.18C283.31,-438.03 302.26,-379.07 317.5,-360 327.27,-347.78 340.33,-337.38 353.56,-328.9"/>
<polygon fill="none" stroke="black" points="355.54,-331.79 362.25,-323.6 351.89,-325.81 355.54,-331.79"/>
</g>
<!-- AdditiveAbelianGroup -->
<g id="node8" class="node">
<title>AdditiveAbelianGroup</title>
<g id="a_node8"><a xlink:href="https://github.com/mihxil/math/blob/main/mihxil-math/src/main/java/org/meeuw/math/abstractalgebra/AdditiveAbelianGroup.java" xlink:title="{\N|{ + &#160;&#45; \n⇆ | 0}}">
<polygon fill="none" stroke="black" points="97,-372 97,-433 270,-433 270,-372 97,-372"/>
<text text-anchor="middle" x="183.5" y="-417.8" font-family="Times,serif" font-size="14.00">AdditiveAbelianGroup</text>
<polyline fill="none" stroke="black" points="97,-410 270,-410 "/>
<text text-anchor="middle" x="144" y="-394.8" font-family="Times,serif" font-size="14.00">+ &#45; </text>
<text text-anchor="middle" x="144" y="-379.8" font-family="Times,serif" font-size="14.00">⇆</text>
<polyline fill="none" stroke="black" points="191,-372 191,-410 "/>
<text text-anchor="middle" x="230.5" y="-387.3" font-family="Times,serif" font-size="14.00">0</text>
</a>
</g>
</g>
<!-- Rng&#45;&gt;AdditiveAbelianGroup -->
<g id="edge7" class="edge">
<title>Rng&#45;&gt;AdditiveAbelianGroup</title>
<path fill="none" stroke="black" d="M229.1,-481.45C221.43,-468.33 213.23,-454.32 205.93,-441.85"/>
<polygon fill="none" stroke="black" points="208.87,-439.93 200.8,-433.07 202.83,-443.47 208.87,-439.93"/>
</g>
<!-- AdditiveAbelianGroup&#45;&gt;AdditiveAbelianSemiGroup -->
<g id="edge9" class="edge">
<title>AdditiveAbelianGroup&#45;&gt;AdditiveAbelianSemiGroup</title>
<path fill="none" stroke="black" d="M197.37,-371.69C212.25,-339.72 236.14,-288.39 253.96,-250.08"/>
<polygon fill="none" stroke="black" points="257.31,-251.18 258.36,-240.64 250.96,-248.23 257.31,-251.18"/>
</g>
<!-- AdditiveGroup -->
<g id="node10" class="node">
<title>AdditiveGroup</title>
<g id="a_node10"><a xlink:href="https://github.com/mihxil/math/blob/main/mihxil-math/src/main/java/org/meeuw/math/abstractalgebra/AdditiveGroup.java" xlink:title="{\N|{ + &#160;&#45; &#160;| 0}}">
<polygon fill="none" stroke="black" points="49.5,-277.5 49.5,-323.5 169.5,-323.5 169.5,-277.5 49.5,-277.5"/>
<text text-anchor="middle" x="109.5" y="-308.3" font-family="Times,serif" font-size="14.00">AdditiveGroup</text>
<polyline fill="none" stroke="black" points="49.5,-300.5 169.5,-300.5 "/>
<text text-anchor="middle" x="82.5" y="-285.3" font-family="Times,serif" font-size="14.00">+ &#45;</text>
<polyline fill="none" stroke="black" points="115.5,-277.5 115.5,-300.5 "/>
<text text-anchor="middle" x="142.5" y="-285.3" font-family="Times,serif" font-size="14.00">0</text>
</a>
</g>
</g>
<!-- AdditiveAbelianGroup&#45;&gt;AdditiveGroup -->
<g id="edge10" class="edge">
<title>AdditiveAbelianGroup&#45;&gt;AdditiveGroup</title>
<path fill="none" stroke="black" d="M161.5,-371.77C152.22,-359.23 141.43,-344.65 132.09,-332.03"/>
<polygon fill="none" stroke="black" points="134.65,-329.61 125.89,-323.65 129.03,-333.77 134.65,-329.61"/>
</g>
<!-- MultiplicativeAbelianSemiGroup -->
<g id="node9" class="node">
<title>MultiplicativeAbelianSemiGroup</title>
<g id="a_node9"><a xlink:href="https://github.com/mihxil/math/blob/main/mihxil-math/src/main/java/org/meeuw/math/abstractalgebra/MultiplicativeAbelianSemiGroup.java" xlink:title="{\N|{ * \n⇆}|OddIntegers ℕo}">
<polygon fill="none" stroke="black" points="513,-360.5 513,-444.5 762,-444.5 762,-360.5 513,-360.5"/>
<text text-anchor="middle" x="637.5" y="-429.3" font-family="Times,serif" font-size="14.00">MultiplicativeAbelianSemiGroup</text>
<polyline fill="none" stroke="black" points="513,-421.5 762,-421.5 "/>
<text text-anchor="middle" x="637.5" y="-406.3" font-family="Times,serif" font-size="14.00">* </text>
<text text-anchor="middle" x="637.5" y="-391.3" font-family="Times,serif" font-size="14.00">⇆</text>
<polyline fill="none" stroke="black" points="513,-383.5 762,-383.5 "/>
<text text-anchor="middle" x="637.5" y="-368.3" font-family="Times,serif" font-size="14.00">OddIntegers ℕo</text>
</a>
</g>
</g>
<!-- MultiplicativeAbelianSemiGroup&#45;&gt;MultiplicativeSemiGroup -->
<g id="edge8" class="edge">
<title>MultiplicativeAbelianSemiGroup&#45;&gt;MultiplicativeSemiGroup</title>
<path fill="none" stroke="black" d="M544.19,-360.39C519.04,-349.31 492.52,-337.63 469.8,-327.62"/>
<polygon fill="none" stroke="black" points="471.19,-324.41 460.63,-323.58 468.37,-330.82 471.19,-324.41"/>
</g>
<!-- AdditiveGroup&#45;&gt;AdditiveMonoid -->
<g id="edge11" class="edge">
<title>AdditiveGroup&#45;&gt;AdditiveMonoid</title>
<path fill="none" stroke="black" d="M102.4,-277.31C99.8,-269.19 96.75,-259.65 93.68,-250.07"/>
<polygon fill="none" stroke="black" points="97.02,-249 90.63,-240.54 90.35,-251.13 97.02,-249"/>
</g>
<!-- MultiplicativeGroup -->
<g id="node11" class="node">
<title>MultiplicativeGroup</title>
<g id="a_node11"><a xlink:href="https://github.com/mihxil/math/blob/main/mihxil-math/src/main/java/org/meeuw/math/abstractalgebra/MultiplicativeGroup.java" xlink:title="{\N|{ * &#160;/ &#160;| 1}|PermutationGroup\nGL₂(ℚ)}">
<polygon fill="none" stroke="black" points="351.5,-489 351.5,-573 511.5,-573 511.5,-489 351.5,-489"/>
<text text-anchor="middle" x="431.5" y="-557.8" font-family="Times,serif" font-size="14.00">MultiplicativeGroup</text>
<polyline fill="none" stroke="black" points="351.5,-550 511.5,-550 "/>
<text text-anchor="middle" x="393" y="-534.8" font-family="Times,serif" font-size="14.00">* /</text>
<polyline fill="none" stroke="black" points="434.5,-527 434.5,-550 "/>
<text text-anchor="middle" x="473" y="-534.8" font-family="Times,serif" font-size="14.00">1</text>
<polyline fill="none" stroke="black" points="351.5,-527 511.5,-527 "/>
<text text-anchor="middle" x="431.5" y="-511.8" font-family="Times,serif" font-size="14.00">PermutationGroup</text>
<text text-anchor="middle" x="431.5" y="-496.8" font-family="Times,serif" font-size="14.00">GL₂(ℚ)</text>
</a>
</g>
</g>
<!-- MultiplicativeGroup&#45;&gt;MultiplicativeMonoid -->
<g id="edge12" class="edge">
<title>MultiplicativeGroup&#45;&gt;MultiplicativeMonoid</title>
<path fill="none" stroke="black" d="M424.68,-488.93C422.47,-475.59 420,-460.75 417.76,-447.22"/>
<polygon fill="none" stroke="black" points="421.18,-446.48 416.09,-437.19 414.28,-447.63 421.18,-446.48"/>
</g>
<!-- Ring -->
<g id="node12" class="node">
<title>Ring</title>
<g id="a_node12"><a xlink:href="https://github.com/mihxil/math/blob/main/mihxil-math/src/main/java/org/meeuw/math/abstractalgebra/Ring.java" xlink:title="{\N|{ + &#160;&#45; \n⇆ | &#160;* &#160;| 0 | 1}|ModuloStructure}">
<polygon fill="none" stroke="black" points="203,-617.5 203,-701.5 342,-701.5 342,-617.5 203,-617.5"/>
<text text-anchor="middle" x="272.5" y="-686.3" font-family="Times,serif" font-size="14.00">Ring</text>
<polyline fill="none" stroke="black" points="203,-678.5 342,-678.5 "/>
<text text-anchor="middle" x="226.5" y="-663.3" font-family="Times,serif" font-size="14.00">+ &#45; </text>
<text text-anchor="middle" x="226.5" y="-648.3" font-family="Times,serif" font-size="14.00">⇆</text>
<polyline fill="none" stroke="black" points="250,-640.5 250,-678.5 "/>
<text text-anchor="middle" x="264.5" y="-655.8" font-family="Times,serif" font-size="14.00">*</text>
<polyline fill="none" stroke="black" points="279,-640.5 279,-678.5 "/>
<text text-anchor="middle" x="294.5" y="-655.8" font-family="Times,serif" font-size="14.00">0</text>
<polyline fill="none" stroke="black" points="310,-640.5 310,-678.5 "/>
<text text-anchor="middle" x="326" y="-655.8" font-family="Times,serif" font-size="14.00">1</text>
<polyline fill="none" stroke="black" points="203,-640.5 342,-640.5 "/>
<text text-anchor="middle" x="272.5" y="-625.3" font-family="Times,serif" font-size="14.00">ModuloStructure</text>
</a>
</g>
</g>
<!-- Ring&#45;&gt;Rng -->
<g id="edge13" class="edge">
<title>Ring&#45;&gt;Rng</title>
<path fill="none" stroke="black" d="M267.63,-617.43C266.62,-608.94 265.54,-599.84 264.48,-590.85"/>
<polygon fill="none" stroke="black" points="267.94,-590.32 263.29,-580.8 260.99,-591.14 267.94,-590.32"/>
</g>
<!-- MultiplicativeAbelianGroup -->
<g id="node13" class="node">
<title>MultiplicativeAbelianGroup</title>
<g id="a_node13"><a xlink:href="https://github.com/mihxil/math/blob/main/mihxil-math/src/main/java/org/meeuw/math/abstractalgebra/MultiplicativeAbelianGroup.java" xlink:title="{\N|{ * &#160;/ \n⇆ | 1}}">
<polygon fill="none" stroke="black" points="460,-629 460,-690 673,-690 673,-629 460,-629"/>
<text text-anchor="middle" x="566.5" y="-674.8" font-family="Times,serif" font-size="14.00">MultiplicativeAbelianGroup</text>
<polyline fill="none" stroke="black" points="460,-667 673,-667 "/>
<text text-anchor="middle" x="516" y="-651.8" font-family="Times,serif" font-size="14.00">* / </text>
<text text-anchor="middle" x="516" y="-636.8" font-family="Times,serif" font-size="14.00">⇆</text>
<polyline fill="none" stroke="black" points="572,-629 572,-667 "/>
<text text-anchor="middle" x="622.5" y="-644.3" font-family="Times,serif" font-size="14.00">1</text>
</a>
</g>
</g>
<!-- MultiplicativeAbelianGroup&#45;&gt;MultiplicativeAbelianSemiGroup -->
<g id="edge14" class="edge">
<title>MultiplicativeAbelianGroup&#45;&gt;MultiplicativeAbelianSemiGroup</title>
<path fill="none" stroke="black" d="M574.71,-629C586.58,-586.38 608.68,-506.99 623.25,-454.69"/>
<polygon fill="none" stroke="black" points="626.65,-455.51 625.96,-444.94 619.91,-453.63 626.65,-455.51"/>
</g>
<!-- MultiplicativeAbelianGroup&#45;&gt;MultiplicativeGroup -->
<g id="edge15" class="edge">
<title>MultiplicativeAbelianGroup&#45;&gt;MultiplicativeGroup</title>
<path fill="none" stroke="black" d="M534.85,-628.84C519.37,-614.34 500.35,-596.51 482.86,-580.12"/>
<polygon fill="none" stroke="black" points="485.16,-577.49 475.47,-573.2 480.38,-582.6 485.16,-577.49"/>
</g>
<!-- DivisionRing -->
<g id="node14" class="node">
<title>DivisionRing</title>
<g id="a_node14"><a xlink:href="https://github.com/mihxil/math/blob/main/mihxil-math/src/main/java/org/meeuw/math/abstractalgebra/DivisionRing.java" xlink:title="{\N|{ + &#160;&#45; \n⇆ | &#160;* &#160;/ &#160;| 0 | 1}|Quaternions}">
<polygon fill="none" stroke="black" points="360.5,-738.5 360.5,-822.5 486.5,-822.5 486.5,-738.5 360.5,-738.5"/>
<text text-anchor="middle" x="423.5" y="-807.3" font-family="Times,serif" font-size="14.00">DivisionRing</text>
<polyline fill="none" stroke="black" points="360.5,-799.5 486.5,-799.5 "/>
<text text-anchor="middle" x="381.5" y="-784.3" font-family="Times,serif" font-size="14.00">+ &#45; </text>
<text text-anchor="middle" x="381.5" y="-769.3" font-family="Times,serif" font-size="14.00">⇆</text>
<polyline fill="none" stroke="black" points="402.5,-761.5 402.5,-799.5 "/>
<text text-anchor="middle" x="418.5" y="-776.8" font-family="Times,serif" font-size="14.00">* /</text>
<polyline fill="none" stroke="black" points="434.5,-761.5 434.5,-799.5 "/>
<text text-anchor="middle" x="447.5" y="-776.8" font-family="Times,serif" font-size="14.00">0</text>
<polyline fill="none" stroke="black" points="460.5,-761.5 460.5,-799.5 "/>
<text text-anchor="middle" x="473.5" y="-776.8" font-family="Times,serif" font-size="14.00">1</text>
<polyline fill="none" stroke="black" points="360.5,-761.5 486.5,-761.5 "/>
<text text-anchor="middle" x="423.5" y="-746.3" font-family="Times,serif" font-size="14.00">Quaternions</text>
</a>
</g>
</g>
<!-- DivisionRing&#45;&gt;MultiplicativeGroup -->
<g id="edge16" class="edge">
<title>DivisionRing&#45;&gt;MultiplicativeGroup</title>
<path fill="none" stroke="black" d="M424.83,-738.35C426.21,-695.8 428.36,-629.26 429.84,-583.3"/>
<polygon fill="none" stroke="black" points="433.34,-583.35 430.17,-573.25 426.35,-583.13 433.34,-583.35"/>
</g>
<!-- DivisionRing&#45;&gt;Ring -->
<g id="edge17" class="edge">
<title>DivisionRing&#45;&gt;Ring</title>
<path fill="none" stroke="black" d="M371.11,-738.21C358.63,-728.37 345.21,-717.8 332.41,-707.72"/>
<polygon fill="none" stroke="black" points="334.56,-704.95 324.54,-701.51 330.23,-710.45 334.56,-704.95"/>
</g>
<!-- AbelianRing -->
<g id="node15" class="node">
<title>AbelianRing</title>
<g id="a_node15"><a xlink:href="https://github.com/mihxil/math/blob/main/mihxil-math/src/main/java/org/meeuw/math/abstractalgebra/AbelianRing.java" xlink:title="{\N|{ + &#160;&#45; \n⇆ | &#160;* \n⇆ | 0 | 1}}">
<polygon fill="none" stroke="black" points="211,-750 211,-811 334,-811 334,-750 211,-750"/>
<text text-anchor="middle" x="272.5" y="-795.8" font-family="Times,serif" font-size="14.00">AbelianRing</text>
<polyline fill="none" stroke="black" points="211,-788 334,-788 "/>
<text text-anchor="middle" x="232" y="-772.8" font-family="Times,serif" font-size="14.00">+ &#45; </text>
<text text-anchor="middle" x="232" y="-757.8" font-family="Times,serif" font-size="14.00">⇆</text>
<polyline fill="none" stroke="black" points="253,-750 253,-788 "/>
<text text-anchor="middle" x="267.5" y="-772.8" font-family="Times,serif" font-size="14.00">* </text>
<text text-anchor="middle" x="267.5" y="-757.8" font-family="Times,serif" font-size="14.00">⇆</text>
<polyline fill="none" stroke="black" points="282,-750 282,-788 "/>
<text text-anchor="middle" x="295" y="-765.3" font-family="Times,serif" font-size="14.00">0</text>
<polyline fill="none" stroke="black" points="308,-750 308,-788 "/>
<text text-anchor="middle" x="321" y="-765.3" font-family="Times,serif" font-size="14.00">1</text>
</a>
</g>
</g>
<!-- AbelianRing&#45;&gt;Ring -->
<g id="edge18" class="edge">
<title>AbelianRing&#45;&gt;Ring</title>
<path fill="none" stroke="black" d="M272.5,-749.78C272.5,-738.26 272.5,-724.74 272.5,-711.75"/>
<polygon fill="none" stroke="black" points="276,-711.5 272.5,-701.5 269,-711.5 276,-711.5"/>
</g>
<!-- DivisibleGroup -->
<g id="node16" class="node">
<title>DivisibleGroup</title>
<g id="a_node16"><a xlink:href="https://github.com/mihxil/math/blob/main/mihxil-math/src/main/java/org/meeuw/math/abstractalgebra/DivisibleGroup.java" xlink:title="{\N|{ * &#160;/ \n⇆ | 1}}">
<polygon fill="none" stroke="black" points="505,-750 505,-811 628,-811 628,-750 505,-750"/>
<text text-anchor="middle" x="566.5" y="-795.8" font-family="Times,serif" font-size="14.00">DivisibleGroup</text>
<polyline fill="none" stroke="black" points="505,-788 628,-788 "/>
<text text-anchor="middle" x="538.5" y="-772.8" font-family="Times,serif" font-size="14.00">* / </text>
<text text-anchor="middle" x="538.5" y="-757.8" font-family="Times,serif" font-size="14.00">⇆</text>
<polyline fill="none" stroke="black" points="572,-750 572,-788 "/>
<text text-anchor="middle" x="600" y="-765.3" font-family="Times,serif" font-size="14.00">1</text>
</a>
</g>
</g>
<!-- DivisibleGroup&#45;&gt;MultiplicativeAbelianGroup -->
<g id="edge19" class="edge">
<title>DivisibleGroup&#45;&gt;MultiplicativeAbelianGroup</title>
<path fill="none" stroke="black" d="M566.5,-749.78C566.5,-734.87 566.5,-716.6 566.5,-700.48"/>
<polygon fill="none" stroke="black" points="570,-700.26 566.5,-690.26 563,-700.26 570,-700.26"/>
</g>
<!-- Field -->
<g id="node17" class="node">
<title>Field</title>
<g id="a_node17"><a xlink:href="https://github.com/mihxil/math/blob/main/mihxil-math/src/main/java/org/meeuw/math/abstractalgebra/Field.java" xlink:title="{\N|{ + &#160;&#45; \n⇆ | &#160;* &#160;/ \n⇆ | 0 | 1}|ModuloField\nGaussianRationals ᵁ0(i)}">
<polygon fill="none" stroke="black" points="342,-859.5 342,-958.5 527,-958.5 527,-859.5 342,-859.5"/>
<text text-anchor="middle" x="434.5" y="-943.3" font-family="Times,serif" font-size="14.00">Field</text>
<polyline fill="none" stroke="black" points="342,-935.5 527,-935.5 "/>
<text text-anchor="middle" x="369.5" y="-920.3" font-family="Times,serif" font-size="14.00">+ &#45; </text>
<text text-anchor="middle" x="369.5" y="-905.3" font-family="Times,serif" font-size="14.00">⇆</text>
<polyline fill="none" stroke="black" points="397,-897.5 397,-935.5 "/>
<text text-anchor="middle" x="422.5" y="-920.3" font-family="Times,serif" font-size="14.00">* / </text>
<text text-anchor="middle" x="422.5" y="-905.3" font-family="Times,serif" font-size="14.00">⇆</text>
<polyline fill="none" stroke="black" points="448,-897.5 448,-935.5 "/>
<text text-anchor="middle" x="467.5" y="-912.8" font-family="Times,serif" font-size="14.00">0</text>
<polyline fill="none" stroke="black" points="487,-897.5 487,-935.5 "/>
<text text-anchor="middle" x="507" y="-912.8" font-family="Times,serif" font-size="14.00">1</text>
<polyline fill="none" stroke="black" points="342,-897.5 527,-897.5 "/>
<text text-anchor="middle" x="434.5" y="-882.3" font-family="Times,serif" font-size="14.00">ModuloField</text>
<text text-anchor="middle" x="434.5" y="-867.3" font-family="Times,serif" font-size="14.00">GaussianRationals ᵁ0(i)</text>
</a>
</g>
</g>
<!-- Field&#45;&gt;DivisionRing -->
<g id="edge20" class="edge">
<title>Field&#45;&gt;DivisionRing</title>
<path fill="none" stroke="black" d="M430.28,-859.45C429.52,-850.74 428.73,-841.63 427.96,-832.84"/>
<polygon fill="none" stroke="black" points="431.44,-832.37 427.08,-822.71 424.46,-832.98 431.44,-832.37"/>
</g>
<!-- Field&#45;&gt;AbelianRing -->
<g id="edge21" class="edge">
<title>Field&#45;&gt;AbelianRing</title>
<path fill="none" stroke="black" d="M372.33,-859.45C354.39,-845.44 335.14,-830.41 318.38,-817.32"/>
<polygon fill="none" stroke="black" points="320.4,-814.46 310.37,-811.07 316.09,-819.98 320.4,-814.46"/>
</g>
<!-- Field&#45;&gt;DivisibleGroup -->
<g id="edge22" class="edge">
<title>Field&#45;&gt;DivisibleGroup</title>
<path fill="none" stroke="black" d="M485.16,-859.45C499.51,-845.7 514.89,-830.96 528.37,-818.04"/>
<polygon fill="none" stroke="black" points="530.85,-820.51 535.65,-811.07 526,-815.46 530.85,-820.51"/>
</g>
<!-- VectorSpace -->
<g id="node18" class="node">
<title>VectorSpace</title>
<g id="a_node18"><a xlink:href="https://github.com/mihxil/math/blob/main/mihxil-math/src/main/java/org/meeuw/math/abstractalgebra/VectorSpace.java" xlink:title="{\N|{ + &#160;&#45; \n⇆ | &#160;* \n⇆ | 0 | 1}|Vector3Space ℝₚ³}">
<polygon fill="none" stroke="black" points="183,-867 183,-951 324,-951 324,-867 183,-867"/>
<text text-anchor="middle" x="253.5" y="-935.8" font-family="Times,serif" font-size="14.00">VectorSpace</text>
<polyline fill="none" stroke="black" points="183,-928 324,-928 "/>
<text text-anchor="middle" x="206" y="-912.8" font-family="Times,serif" font-size="14.00">+ &#45; </text>
<text text-anchor="middle" x="206" y="-897.8" font-family="Times,serif" font-size="14.00">⇆</text>
<polyline fill="none" stroke="black" points="229,-890 229,-928 "/>
<text text-anchor="middle" x="246" y="-912.8" font-family="Times,serif" font-size="14.00">* </text>
<text text-anchor="middle" x="246" y="-897.8" font-family="Times,serif" font-size="14.00">⇆</text>
<polyline fill="none" stroke="black" points="263,-890 263,-928 "/>
<text text-anchor="middle" x="278" y="-905.3" font-family="Times,serif" font-size="14.00">0</text>
<polyline fill="none" stroke="black" points="293,-890 293,-928 "/>
<text text-anchor="middle" x="308.5" y="-905.3" font-family="Times,serif" font-size="14.00">1</text>
<polyline fill="none" stroke="black" points="183,-890 324,-890 "/>
<text text-anchor="middle" x="253.5" y="-874.8" font-family="Times,serif" font-size="14.00">Vector3Space ℝₚ³</text>
</a>
</g>
</g>
<!-- VectorSpace&#45;&gt;AbelianRing -->
<g id="edge23" class="edge">
<title>VectorSpace&#45;&gt;AbelianRing</title>
<path fill="none" stroke="black" d="M259.67,-866.93C261.87,-852.3 264.34,-835.86 266.52,-821.33"/>
<polygon fill="none" stroke="black" points="270.02,-821.56 268.05,-811.15 263.1,-820.52 270.02,-821.56"/>
</g>
<!-- ScalarField -->
<g id="node19" class="node">
<title>ScalarField</title>
<g id="a_node19"><a xlink:href="https://github.com/mihxil/math/blob/main/mihxil-math/src/main/java/org/meeuw/math/abstractalgebra/ScalarField.java" xlink:title="{\N|{ + &#160;&#45; \n⇆ | &#160;* &#160;/ \n⇆ | 0 | 1}|RationalNumbers ℚ}">
<polygon fill="none" stroke="black" points="355.5,-995.5 355.5,-1079.5 513.5,-1079.5 513.5,-995.5 355.5,-995.5"/>
<text text-anchor="middle" x="434.5" y="-1064.3" font-family="Times,serif" font-size="14.00">ScalarField</text>
<polyline fill="none" stroke="black" points="355.5,-1056.5 513.5,-1056.5 "/>
<text text-anchor="middle" x="379.5" y="-1041.3" font-family="Times,serif" font-size="14.00">+ &#45; </text>
<text text-anchor="middle" x="379.5" y="-1026.3" font-family="Times,serif" font-size="14.00">⇆</text>
<polyline fill="none" stroke="black" points="403.5,-1018.5 403.5,-1056.5 "/>
<text text-anchor="middle" x="425.5" y="-1041.3" font-family="Times,serif" font-size="14.00">* / </text>
<text text-anchor="middle" x="425.5" y="-1026.3" font-family="Times,serif" font-size="14.00">⇆</text>
<polyline fill="none" stroke="black" points="447.5,-1018.5 447.5,-1056.5 "/>
<text text-anchor="middle" x="464" y="-1033.8" font-family="Times,serif" font-size="14.00">0</text>
<polyline fill="none" stroke="black" points="480.5,-1018.5 480.5,-1056.5 "/>
<text text-anchor="middle" x="497" y="-1033.8" font-family="Times,serif" font-size="14.00">1</text>
<polyline fill="none" stroke="black" points="355.5,-1018.5 513.5,-1018.5 "/>
<text text-anchor="middle" x="434.5" y="-1003.3" font-family="Times,serif" font-size="14.00">RationalNumbers ℚ</text>
</a>
</g>
</g>
<!-- ScalarField&#45;&gt;Field -->
<g id="edge24" class="edge">
<title>ScalarField&#45;&gt;Field</title>
<path fill="none" stroke="black" d="M434.5,-995.43C434.5,-986.94 434.5,-977.84 434.5,-968.85"/>
<polygon fill="none" stroke="black" points="438,-968.8 434.5,-958.8 431,-968.8 438,-968.8"/>
</g>
<!-- CompleteField -->
<g id="node20" class="node">
<title>CompleteField</title>
<g id="a_node20"><a xlink:href="https://github.com/mihxil/math/blob/main/mihxil-math/src/main/java/org/meeuw/math/abstractalgebra/CompleteField.java" xlink:title="{\N|{ + &#160;&#45; \n⇆ | &#160;* &#160;/ \n⇆ | 0 | 1}|BigDecimalField ℝ\nRealField ℝₚ}">
<polygon fill="none" stroke="black" points="359,-1116.5 359,-1215.5 510,-1215.5 510,-1116.5 359,-1116.5"/>
<text text-anchor="middle" x="434.5" y="-1200.3" font-family="Times,serif" font-size="14.00">CompleteField</text>
<polyline fill="none" stroke="black" points="359,-1192.5 510,-1192.5 "/>
<text text-anchor="middle" x="382.5" y="-1177.3" font-family="Times,serif" font-size="14.00">+ &#45; </text>
<text text-anchor="middle" x="382.5" y="-1162.3" font-family="Times,serif" font-size="14.00">⇆</text>
<polyline fill="none" stroke="black" points="406,-1154.5 406,-1192.5 "/>
<text text-anchor="middle" x="427" y="-1177.3" font-family="Times,serif" font-size="14.00">* / </text>
<text text-anchor="middle" x="427" y="-1162.3" font-family="Times,serif" font-size="14.00">⇆</text>
<polyline fill="none" stroke="black" points="448,-1154.5 448,-1192.5 "/>
<text text-anchor="middle" x="463.5" y="-1169.8" font-family="Times,serif" font-size="14.00">0</text>
<polyline fill="none" stroke="black" points="479,-1154.5 479,-1192.5 "/>
<text text-anchor="middle" x="494.5" y="-1169.8" font-family="Times,serif" font-size="14.00">1</text>
<polyline fill="none" stroke="black" points="359,-1154.5 510,-1154.5 "/>
<text text-anchor="middle" x="434.5" y="-1139.3" font-family="Times,serif" font-size="14.00">BigDecimalField ℝ</text>
<text text-anchor="middle" x="434.5" y="-1124.3" font-family="Times,serif" font-size="14.00">RealField ℝₚ</text>
</a>
</g>
</g>
<!-- CompleteField&#45;&gt;ScalarField -->
<g id="edge25" class="edge">
<title>CompleteField&#45;&gt;ScalarField</title>
<path fill="none" stroke="black" d="M434.5,-1116.45C434.5,-1107.74 434.5,-1098.63 434.5,-1089.84"/>
<polygon fill="none" stroke="black" points="438,-1089.71 434.5,-1079.71 431,-1089.71 438,-1089.71"/>
</g>
</g>
</svg>
