<?xml version="1.0" encoding="UTF-8" standalone="no"?>
<!DOCTYPE svg PUBLIC "-//W3C//DTD SVG 1.1//EN"
 "http://www.w3.org/Graphics/SVG/1.1/DTD/svg11.dtd">
<!-- Generated by graphviz version 2.44.0 ()
 -->
<!-- Pages: 1 -->
<svg width="631pt" height="1171pt"
 viewBox="0.00 0.00 631.00 1171.00" xmlns="http://www.w3.org/2000/svg" xmlns:xlink="http://www.w3.org/1999/xlink">
<g id="graph0" class="graph" transform="scale(1 1) rotate(0) translate(4 1167)">
<polygon fill="white" stroke="transparent" points="-4,4 -4,-1167 627,-1167 627,4 -4,4"/>
<!-- AdditiveSemiGroup -->
<g id="node1" class="node">
<title>AdditiveSemiGroup</title>
<g id="a_node1"><a xlink:href="https://github.com/mihxil/math/blob/main/mihxil-math/src/main/java/org/meeuw/math/abstractalgebra/AdditiveSemiGroup.java" xlink:title="{\N|{ + }}">
<polygon fill="none" stroke="black" points="92.5,-73.5 92.5,-119.5 248.5,-119.5 248.5,-73.5 92.5,-73.5"/>
<text text-anchor="middle" x="170.5" y="-104.3" font-family="Times,serif" font-size="14.00">AdditiveSemiGroup</text>
<polyline fill="none" stroke="black" points="92.5,-96.5 248.5,-96.5 "/>
<text text-anchor="middle" x="170.5" y="-81.3" font-family="Times,serif" font-size="14.00">+</text>
</a>
</g>
</g>
<!-- AlgebraicStructure -->
<g id="node2" class="node">
<title>AlgebraicStructure</title>
<polygon fill="none" stroke="black" points="147,-0.5 147,-36.5 300,-36.5 300,-0.5 147,-0.5"/>
<text text-anchor="middle" x="223.5" y="-14.8" font-family="Times,serif" font-size="14.00">AlgebraicStructure</text>
</g>
<!-- AdditiveSemiGroup&#45;&gt;AlgebraicStructure -->
<g id="edge1" class="edge">
<title>AdditiveSemiGroup&#45;&gt;AlgebraicStructure</title>
<path fill="none" stroke="black" d="M186.12,-73.11C192.22,-64.35 199.27,-54.25 205.58,-45.2"/>
<polygon fill="none" stroke="black" points="208.51,-47.12 211.36,-36.91 202.77,-43.11 208.51,-47.12"/>
</g>
<!-- MultiplicativeSemiGroup -->
<g id="node3" class="node">
<title>MultiplicativeSemiGroup</title>
<g id="a_node3"><a xlink:href="https://github.com/mihxil/math/blob/main/mihxil-math/src/main/java/org/meeuw/math/abstractalgebra/MultiplicativeSemiGroup.java" xlink:title="{\N|{ * }}">
<polygon fill="none" stroke="black" points="191.5,-353 191.5,-399 387.5,-399 387.5,-353 191.5,-353"/>
<text text-anchor="middle" x="289.5" y="-383.8" font-family="Times,serif" font-size="14.00">MultiplicativeSemiGroup</text>
<polyline fill="none" stroke="black" points="191.5,-376 387.5,-376 "/>
<text text-anchor="middle" x="289.5" y="-360.8" font-family="Times,serif" font-size="14.00">*</text>
</a>
</g>
</g>
<!-- MultiplicativeSemiGroup&#45;&gt;AlgebraicStructure -->
<g id="edge2" class="edge">
<title>MultiplicativeSemiGroup&#45;&gt;AlgebraicStructure</title>
<path fill="none" stroke="black" d="M290.55,-352.64C292.24,-301.52 292.34,-172.81 257.5,-73 254.11,-63.28 248.66,-53.53 243.1,-45.06"/>
<polygon fill="none" stroke="black" points="245.93,-42.98 237.36,-36.75 240.17,-46.97 245.93,-42.98"/>
</g>
<!-- AdditiveMonoid -->
<g id="node4" class="node">
<title>AdditiveMonoid</title>
<g id="a_node4"><a xlink:href="https://github.com/mihxil/math/blob/main/mihxil-math/src/main/java/org/meeuw/math/abstractalgebra/AdditiveMonoid.java" xlink:title="{\N|{ + &#160;| 0}|StringMonoid}">
<polygon fill="none" stroke="black" points="94,-156.5 94,-225.5 223,-225.5 223,-156.5 94,-156.5"/>
<text text-anchor="middle" x="158.5" y="-210.3" font-family="Times,serif" font-size="14.00">AdditiveMonoid</text>
<polyline fill="none" stroke="black" points="94,-202.5 223,-202.5 "/>
<text text-anchor="middle" x="127" y="-187.3" font-family="Times,serif" font-size="14.00">+</text>
<polyline fill="none" stroke="black" points="160,-179.5 160,-202.5 "/>
<text text-anchor="middle" x="191.5" y="-187.3" font-family="Times,serif" font-size="14.00">0</text>
<polyline fill="none" stroke="black" points="94,-179.5 223,-179.5 "/>
<text text-anchor="middle" x="158.5" y="-164.3" font-family="Times,serif" font-size="14.00">StringMonoid</text>
</a>
</g>
</g>
<!-- AdditiveMonoid&#45;&gt;AdditiveSemiGroup -->
<g id="edge3" class="edge">
<title>AdditiveMonoid&#45;&gt;AdditiveSemiGroup</title>
<path fill="none" stroke="black" d="M162.87,-156.34C163.99,-147.68 165.2,-138.37 166.31,-129.78"/>
<polygon fill="none" stroke="black" points="169.8,-130.1 167.62,-119.74 162.86,-129.2 169.8,-130.1"/>
</g>
<!-- MultiplicativeMonoid -->
<g id="node5" class="node">
<title>MultiplicativeMonoid</title>
<g id="a_node5"><a xlink:href="https://github.com/mihxil/math/blob/main/mihxil-math/src/main/java/org/meeuw/math/abstractalgebra/MultiplicativeMonoid.java" xlink:title="{\N|{ * &#160;| 1}|OddIntegers}">
<polygon fill="none" stroke="black" points="187,-451 187,-520 356,-520 356,-451 187,-451"/>
<text text-anchor="middle" x="271.5" y="-504.8" font-family="Times,serif" font-size="14.00">MultiplicativeMonoid</text>
<polyline fill="none" stroke="black" points="187,-497 356,-497 "/>
<text text-anchor="middle" x="228.5" y="-481.8" font-family="Times,serif" font-size="14.00">*</text>
<polyline fill="none" stroke="black" points="270,-474 270,-497 "/>
<text text-anchor="middle" x="313" y="-481.8" font-family="Times,serif" font-size="14.00">1</text>
<polyline fill="none" stroke="black" points="187,-474 356,-474 "/>
<text text-anchor="middle" x="271.5" y="-458.8" font-family="Times,serif" font-size="14.00">OddIntegers</text>
</a>
</g>
</g>
<!-- MultiplicativeMonoid&#45;&gt;MultiplicativeSemiGroup -->
<g id="edge4" class="edge">
<title>MultiplicativeMonoid&#45;&gt;MultiplicativeSemiGroup</title>
<path fill="none" stroke="black" d="M277.15,-450.78C279.38,-437.47 281.92,-422.24 284.13,-409.09"/>
<polygon fill="none" stroke="black" points="287.61,-409.51 285.8,-399.07 280.7,-408.35 287.61,-409.51"/>
</g>
<!-- Rng -->
<g id="node6" class="node">
<title>Rng</title>
<g id="a_node6"><a xlink:href="https://github.com/mihxil/math/blob/main/mihxil-math/src/main/java/org/meeuw/math/abstractalgebra/Rng.java" xlink:title="{\N|{ + &#160;&#45; \n⇆ | &#160;* &#160;| 0}|EvenIntegers}">
<polygon fill="none" stroke="black" points="52,-443.5 52,-527.5 165,-527.5 165,-443.5 52,-443.5"/>
<text text-anchor="middle" x="108.5" y="-512.3" font-family="Times,serif" font-size="14.00">Rng</text>
<polyline fill="none" stroke="black" points="52,-504.5 165,-504.5 "/>
<text text-anchor="middle" x="76.5" y="-489.3" font-family="Times,serif" font-size="14.00">+ &#45; </text>
<text text-anchor="middle" x="76.5" y="-474.3" font-family="Times,serif" font-size="14.00">⇆</text>
<polyline fill="none" stroke="black" points="101,-466.5 101,-504.5 "/>
<text text-anchor="middle" x="116" y="-481.8" font-family="Times,serif" font-size="14.00">*</text>
<polyline fill="none" stroke="black" points="131,-466.5 131,-504.5 "/>
<text text-anchor="middle" x="148" y="-481.8" font-family="Times,serif" font-size="14.00">0</text>
<polyline fill="none" stroke="black" points="52,-466.5 165,-466.5 "/>
<text text-anchor="middle" x="108.5" y="-451.3" font-family="Times,serif" font-size="14.00">EvenIntegers</text>
</a>
</g>
</g>
<!-- Rng&#45;&gt;MultiplicativeSemiGroup -->
<g id="edge5" class="edge">
<title>Rng&#45;&gt;MultiplicativeSemiGroup</title>
<path fill="none" stroke="black" d="M165.27,-450.78C190.46,-435.82 219.72,-418.44 243.51,-404.31"/>
<polygon fill="none" stroke="black" points="245.53,-407.19 252.34,-399.07 241.96,-401.17 245.53,-407.19"/>
</g>
<!-- AdditiveAbelianGroup -->
<g id="node7" class="node">
<title>AdditiveAbelianGroup</title>
<g id="a_node7"><a xlink:href="https://github.com/mihxil/math/blob/main/mihxil-math/src/main/java/org/meeuw/math/abstractalgebra/AdditiveAbelianGroup.java" xlink:title="{\N|{ + &#160;&#45; \n⇆ | 0}}">
<polygon fill="none" stroke="black" points="0,-345.5 0,-406.5 173,-406.5 173,-345.5 0,-345.5"/>
<text text-anchor="middle" x="86.5" y="-391.3" font-family="Times,serif" font-size="14.00">AdditiveAbelianGroup</text>
<polyline fill="none" stroke="black" points="0,-383.5 173,-383.5 "/>
<text text-anchor="middle" x="47" y="-368.3" font-family="Times,serif" font-size="14.00">+ &#45; </text>
<text text-anchor="middle" x="47" y="-353.3" font-family="Times,serif" font-size="14.00">⇆</text>
<polyline fill="none" stroke="black" points="94,-345.5 94,-383.5 "/>
<text text-anchor="middle" x="133.5" y="-360.8" font-family="Times,serif" font-size="14.00">0</text>
</a>
</g>
</g>
<!-- Rng&#45;&gt;AdditiveAbelianGroup -->
<g id="edge6" class="edge">
<title>Rng&#45;&gt;AdditiveAbelianGroup</title>
<path fill="none" stroke="black" d="M100.06,-443.25C98.26,-434.48 96.37,-425.24 94.59,-416.54"/>
<polygon fill="none" stroke="black" points="98,-415.73 92.56,-406.63 91.14,-417.13 98,-415.73"/>
</g>
<!-- AdditiveGroup -->
<g id="node9" class="node">
<title>AdditiveGroup</title>
<g id="a_node9"><a xlink:href="https://github.com/mihxil/math/blob/main/mihxil-math/src/main/java/org/meeuw/math/abstractalgebra/AdditiveGroup.java" xlink:title="{\N|{ + &#160;&#45; &#160;| 0}}">
<polygon fill="none" stroke="black" points="74.5,-262.5 74.5,-308.5 194.5,-308.5 194.5,-262.5 74.5,-262.5"/>
<text text-anchor="middle" x="134.5" y="-293.3" font-family="Times,serif" font-size="14.00">AdditiveGroup</text>
<polyline fill="none" stroke="black" points="74.5,-285.5 194.5,-285.5 "/>
<text text-anchor="middle" x="107.5" y="-270.3" font-family="Times,serif" font-size="14.00">+ &#45;</text>
<polyline fill="none" stroke="black" points="140.5,-262.5 140.5,-285.5 "/>
<text text-anchor="middle" x="167.5" y="-270.3" font-family="Times,serif" font-size="14.00">0</text>
</a>
</g>
</g>
<!-- AdditiveAbelianGroup&#45;&gt;AdditiveGroup -->
<g id="edge13" class="edge">
<title>AdditiveAbelianGroup&#45;&gt;AdditiveGroup</title>
<path fill="none" stroke="black" d="M102.75,-345.04C107.55,-336.18 112.82,-326.47 117.66,-317.54"/>
<polygon fill="none" stroke="black" points="120.82,-319.06 122.52,-308.6 114.67,-315.72 120.82,-319.06"/>
</g>
<!-- MultiplicativeAbelianSemiGroup -->
<g id="node8" class="node">
<title>MultiplicativeAbelianSemiGroup</title>
<g id="a_node8"><a xlink:href="https://github.com/mihxil/math/blob/main/mihxil-math/src/main/java/org/meeuw/math/abstractalgebra/MultiplicativeAbelianSemiGroup.java" xlink:title="{\N|{ * \n⇆}|OddIntegers}">
<polygon fill="none" stroke="black" points="374,-443.5 374,-527.5 623,-527.5 623,-443.5 374,-443.5"/>
<text text-anchor="middle" x="498.5" y="-512.3" font-family="Times,serif" font-size="14.00">MultiplicativeAbelianSemiGroup</text>
<polyline fill="none" stroke="black" points="374,-504.5 623,-504.5 "/>
<text text-anchor="middle" x="498.5" y="-489.3" font-family="Times,serif" font-size="14.00">* </text>
<text text-anchor="middle" x="498.5" y="-474.3" font-family="Times,serif" font-size="14.00">⇆</text>
<polyline fill="none" stroke="black" points="374,-466.5 623,-466.5 "/>
<text text-anchor="middle" x="498.5" y="-451.3" font-family="Times,serif" font-size="14.00">OddIntegers</text>
</a>
</g>
</g>
<!-- MultiplicativeAbelianSemiGroup&#45;&gt;MultiplicativeSemiGroup -->
<g id="edge7" class="edge">
<title>MultiplicativeAbelianSemiGroup&#45;&gt;MultiplicativeSemiGroup</title>
<path fill="none" stroke="black" d="M418.59,-443.4C392.75,-430.11 364.78,-415.72 341.51,-403.75"/>
<polygon fill="none" stroke="black" points="343,-400.58 332.51,-399.12 339.8,-406.81 343,-400.58"/>
</g>
<!-- AdditiveGroup&#45;&gt;AdditiveMonoid -->
<g id="edge8" class="edge">
<title>AdditiveGroup&#45;&gt;AdditiveMonoid</title>
<path fill="none" stroke="black" d="M140.31,-262.11C142.39,-254.1 144.81,-244.77 147.19,-235.59"/>
<polygon fill="none" stroke="black" points="150.62,-236.3 149.74,-225.75 143.84,-234.55 150.62,-236.3"/>
</g>
<!-- MultiplicativeGroup -->
<g id="node10" class="node">
<title>MultiplicativeGroup</title>
<g id="a_node10"><a xlink:href="https://github.com/mihxil/math/blob/main/mihxil-math/src/main/java/org/meeuw/math/abstractalgebra/MultiplicativeGroup.java" xlink:title="{\N|{ * &#160;/ &#160;| 1}|PermutationGroup}">
<polygon fill="none" stroke="black" points="196.5,-572 196.5,-641 356.5,-641 356.5,-572 196.5,-572"/>
<text text-anchor="middle" x="276.5" y="-625.8" font-family="Times,serif" font-size="14.00">MultiplicativeGroup</text>
<polyline fill="none" stroke="black" points="196.5,-618 356.5,-618 "/>
<text text-anchor="middle" x="238" y="-602.8" font-family="Times,serif" font-size="14.00">* /</text>
<polyline fill="none" stroke="black" points="279.5,-595 279.5,-618 "/>
<text text-anchor="middle" x="318" y="-602.8" font-family="Times,serif" font-size="14.00">1</text>
<polyline fill="none" stroke="black" points="196.5,-595 356.5,-595 "/>
<text text-anchor="middle" x="276.5" y="-579.8" font-family="Times,serif" font-size="14.00">PermutationGroup</text>
</a>
</g>
</g>
<!-- MultiplicativeGroup&#45;&gt;MultiplicativeMonoid -->
<g id="edge9" class="edge">
<title>MultiplicativeGroup&#45;&gt;MultiplicativeMonoid</title>
<path fill="none" stroke="black" d="M275.08,-571.72C274.54,-558.9 273.92,-544.12 273.35,-530.5"/>
<polygon fill="none" stroke="black" points="276.84,-530.21 272.92,-520.37 269.85,-530.5 276.84,-530.21"/>
</g>
<!-- Ring -->
<g id="node11" class="node">
<title>Ring</title>
<g id="a_node11"><a xlink:href="https://github.com/mihxil/math/blob/main/mihxil-math/src/main/java/org/meeuw/math/abstractalgebra/Ring.java" xlink:title="{\N|{ + &#160;&#45; \n⇆ | &#160;* &#160;| 0 | 1}|ModuloStructure}">
<polygon fill="none" stroke="black" points="39,-564.5 39,-648.5 178,-648.5 178,-564.5 39,-564.5"/>
<text text-anchor="middle" x="108.5" y="-633.3" font-family="Times,serif" font-size="14.00">Ring</text>
<polyline fill="none" stroke="black" points="39,-625.5 178,-625.5 "/>
<text text-anchor="middle" x="62.5" y="-610.3" font-family="Times,serif" font-size="14.00">+ &#45; </text>
<text text-anchor="middle" x="62.5" y="-595.3" font-family="Times,serif" font-size="14.00">⇆</text>
<polyline fill="none" stroke="black" points="86,-587.5 86,-625.5 "/>
<text text-anchor="middle" x="100.5" y="-602.8" font-family="Times,serif" font-size="14.00">*</text>
<polyline fill="none" stroke="black" points="115,-587.5 115,-625.5 "/>
<text text-anchor="middle" x="130.5" y="-602.8" font-family="Times,serif" font-size="14.00">0</text>
<polyline fill="none" stroke="black" points="146,-587.5 146,-625.5 "/>
<text text-anchor="middle" x="162" y="-602.8" font-family="Times,serif" font-size="14.00">1</text>
<polyline fill="none" stroke="black" points="39,-587.5 178,-587.5 "/>
<text text-anchor="middle" x="108.5" y="-572.3" font-family="Times,serif" font-size="14.00">ModuloStructure</text>
</a>
</g>
</g>
<!-- Ring&#45;&gt;Rng -->
<g id="edge10" class="edge">
<title>Ring&#45;&gt;Rng</title>
<path fill="none" stroke="black" d="M108.5,-564.21C108.5,-555.72 108.5,-546.68 108.5,-537.88"/>
<polygon fill="none" stroke="black" points="112,-537.71 108.5,-527.71 105,-537.71 112,-537.71"/>
</g>
<!-- MultiplicativeAbelianGroup -->
<g id="node12" class="node">
<title>MultiplicativeAbelianGroup</title>
<g id="a_node12"><a xlink:href="https://github.com/mihxil/math/blob/main/mihxil-math/src/main/java/org/meeuw/math/abstractalgebra/MultiplicativeAbelianGroup.java" xlink:title="{\N|{ * &#160;/ \n⇆ | 1}}">
<polygon fill="none" stroke="black" points="336,-697 336,-758 549,-758 549,-697 336,-697"/>
<text text-anchor="middle" x="442.5" y="-742.8" font-family="Times,serif" font-size="14.00">MultiplicativeAbelianGroup</text>
<polyline fill="none" stroke="black" points="336,-735 549,-735 "/>
<text text-anchor="middle" x="392" y="-719.8" font-family="Times,serif" font-size="14.00">* / </text>
<text text-anchor="middle" x="392" y="-704.8" font-family="Times,serif" font-size="14.00">⇆</text>
<polyline fill="none" stroke="black" points="448,-697 448,-735 "/>
<text text-anchor="middle" x="498.5" y="-712.3" font-family="Times,serif" font-size="14.00">1</text>
</a>
</g>
</g>
<!-- MultiplicativeAbelianGroup&#45;&gt;MultiplicativeAbelianSemiGroup -->
<g id="edge11" class="edge">
<title>MultiplicativeAbelianGroup&#45;&gt;MultiplicativeAbelianSemiGroup</title>
<path fill="none" stroke="black" d="M449.48,-696.59C458.76,-656.82 475.3,-585.94 486.57,-537.61"/>
<polygon fill="none" stroke="black" points="490.03,-538.19 488.9,-527.66 483.22,-536.6 490.03,-538.19"/>
</g>
<!-- MultiplicativeAbelianGroup&#45;&gt;MultiplicativeGroup -->
<g id="edge12" class="edge">
<title>MultiplicativeAbelianGroup&#45;&gt;MultiplicativeGroup</title>
<path fill="none" stroke="black" d="M401.04,-696.78C380,-681.7 354.16,-663.17 331.48,-646.92"/>
<polygon fill="none" stroke="black" points="333.45,-644.02 323.29,-641.04 329.38,-649.71 333.45,-644.02"/>
</g>
<!-- DivisionRing -->
<g id="node13" class="node">
<title>DivisionRing</title>
<g id="a_node13"><a xlink:href="https://github.com/mihxil/math/blob/main/mihxil-math/src/main/java/org/meeuw/math/abstractalgebra/DivisionRing.java" xlink:title="{\N|{ + &#160;&#45; \n⇆ | &#160;* &#160;/ &#160;| 0 | 1}|Quaternions}">
<polygon fill="none" stroke="black" points="191.5,-685.5 191.5,-769.5 317.5,-769.5 317.5,-685.5 191.5,-685.5"/>
<text text-anchor="middle" x="254.5" y="-754.3" font-family="Times,serif" font-size="14.00">DivisionRing</text>
<polyline fill="none" stroke="black" points="191.5,-746.5 317.5,-746.5 "/>
<text text-anchor="middle" x="212.5" y="-731.3" font-family="Times,serif" font-size="14.00">+ &#45; </text>
<text text-anchor="middle" x="212.5" y="-716.3" font-family="Times,serif" font-size="14.00">⇆</text>
<polyline fill="none" stroke="black" points="233.5,-708.5 233.5,-746.5 "/>
<text text-anchor="middle" x="249.5" y="-723.8" font-family="Times,serif" font-size="14.00">* /</text>
<polyline fill="none" stroke="black" points="265.5,-708.5 265.5,-746.5 "/>
<text text-anchor="middle" x="278.5" y="-723.8" font-family="Times,serif" font-size="14.00">0</text>
<polyline fill="none" stroke="black" points="291.5,-708.5 291.5,-746.5 "/>
<text text-anchor="middle" x="304.5" y="-723.8" font-family="Times,serif" font-size="14.00">1</text>
<polyline fill="none" stroke="black" points="191.5,-708.5 317.5,-708.5 "/>
<text text-anchor="middle" x="254.5" y="-693.3" font-family="Times,serif" font-size="14.00">Quaternions</text>
</a>
</g>
</g>
<!-- DivisionRing&#45;&gt;MultiplicativeGroup -->
<g id="edge14" class="edge">
<title>DivisionRing&#45;&gt;MultiplicativeGroup</title>
<path fill="none" stroke="black" d="M262.13,-685.21C264.17,-674.21 266.37,-662.3 268.43,-651.18"/>
<polygon fill="none" stroke="black" points="271.89,-651.7 270.26,-641.23 265,-650.43 271.89,-651.7"/>
</g>
<!-- DivisionRing&#45;&gt;Ring -->
<g id="edge15" class="edge">
<title>DivisionRing&#45;&gt;Ring</title>
<path fill="none" stroke="black" d="M203.85,-685.21C191.96,-675.52 179.19,-665.12 166.99,-655.17"/>
<polygon fill="none" stroke="black" points="169.03,-652.32 159.06,-648.71 164.6,-657.74 169.03,-652.32"/>
</g>
<!-- AbelianRing -->
<g id="node14" class="node">
<title>AbelianRing</title>
<g id="a_node14"><a xlink:href="https://github.com/mihxil/math/blob/main/mihxil-math/src/main/java/org/meeuw/math/abstractalgebra/AbelianRing.java" xlink:title="{\N|{ + &#160;&#45; \n⇆ | &#160;* \n⇆ | 0 | 1}}">
<polygon fill="none" stroke="black" points="47,-697 47,-758 170,-758 170,-697 47,-697"/>
<text text-anchor="middle" x="108.5" y="-742.8" font-family="Times,serif" font-size="14.00">AbelianRing</text>
<polyline fill="none" stroke="black" points="47,-735 170,-735 "/>
<text text-anchor="middle" x="68" y="-719.8" font-family="Times,serif" font-size="14.00">+ &#45; </text>
<text text-anchor="middle" x="68" y="-704.8" font-family="Times,serif" font-size="14.00">⇆</text>
<polyline fill="none" stroke="black" points="89,-697 89,-735 "/>
<text text-anchor="middle" x="103.5" y="-719.8" font-family="Times,serif" font-size="14.00">* </text>
<text text-anchor="middle" x="103.5" y="-704.8" font-family="Times,serif" font-size="14.00">⇆</text>
<polyline fill="none" stroke="black" points="118,-697 118,-735 "/>
<text text-anchor="middle" x="131" y="-712.3" font-family="Times,serif" font-size="14.00">0</text>
<polyline fill="none" stroke="black" points="144,-697 144,-735 "/>
<text text-anchor="middle" x="157" y="-712.3" font-family="Times,serif" font-size="14.00">1</text>
</a>
</g>
</g>
<!-- AbelianRing&#45;&gt;Ring -->
<g id="edge16" class="edge">
<title>AbelianRing&#45;&gt;Ring</title>
<path fill="none" stroke="black" d="M108.5,-696.78C108.5,-685.26 108.5,-671.74 108.5,-658.75"/>
<polygon fill="none" stroke="black" points="112,-658.5 108.5,-648.5 105,-658.5 112,-658.5"/>
</g>
<!-- Field -->
<g id="node15" class="node">
<title>Field</title>
<g id="a_node15"><a xlink:href="https://github.com/mihxil/math/blob/main/mihxil-math/src/main/java/org/meeuw/math/abstractalgebra/Field.java" xlink:title="{\N|{ + &#160;&#45; \n⇆ | &#160;* &#160;/ \n⇆ | 0 | 1}|ModuloField\nGaussianRationals}">
<polygon fill="none" stroke="black" points="183,-806.5 183,-905.5 332,-905.5 332,-806.5 183,-806.5"/>
<text text-anchor="middle" x="257.5" y="-890.3" font-family="Times,serif" font-size="14.00">Field</text>
<polyline fill="none" stroke="black" points="183,-882.5 332,-882.5 "/>
<text text-anchor="middle" x="206" y="-867.3" font-family="Times,serif" font-size="14.00">+ &#45; </text>
<text text-anchor="middle" x="206" y="-852.3" font-family="Times,serif" font-size="14.00">⇆</text>
<polyline fill="none" stroke="black" points="229,-844.5 229,-882.5 "/>
<text text-anchor="middle" x="250" y="-867.3" font-family="Times,serif" font-size="14.00">* / </text>
<text text-anchor="middle" x="250" y="-852.3" font-family="Times,serif" font-size="14.00">⇆</text>
<polyline fill="none" stroke="black" points="271,-844.5 271,-882.5 "/>
<text text-anchor="middle" x="286" y="-859.8" font-family="Times,serif" font-size="14.00">0</text>
<polyline fill="none" stroke="black" points="301,-844.5 301,-882.5 "/>
<text text-anchor="middle" x="316.5" y="-859.8" font-family="Times,serif" font-size="14.00">1</text>
<polyline fill="none" stroke="black" points="183,-844.5 332,-844.5 "/>
<text text-anchor="middle" x="257.5" y="-829.3" font-family="Times,serif" font-size="14.00">ModuloField</text>
<text text-anchor="middle" x="257.5" y="-814.3" font-family="Times,serif" font-size="14.00">GaussianRationals</text>
</a>
</g>
</g>
<!-- Field&#45;&gt;MultiplicativeAbelianGroup -->
<g id="edge17" class="edge">
<title>Field&#45;&gt;MultiplicativeAbelianGroup</title>
<path fill="none" stroke="black" d="M328.5,-806.45C349.27,-792.25 371.57,-777 390.89,-763.79"/>
<polygon fill="none" stroke="black" points="392.98,-766.6 399.26,-758.07 389.03,-760.82 392.98,-766.6"/>
</g>
<!-- Field&#45;&gt;DivisionRing -->
<g id="edge18" class="edge">
<title>Field&#45;&gt;DivisionRing</title>
<path fill="none" stroke="black" d="M256.35,-806.45C256.14,-797.74 255.93,-788.63 255.72,-779.84"/>
<polygon fill="none" stroke="black" points="259.21,-779.63 255.48,-769.71 252.22,-779.79 259.21,-779.63"/>
</g>
<!-- Field&#45;&gt;AbelianRing -->
<g id="edge19" class="edge">
<title>Field&#45;&gt;AbelianRing</title>
<path fill="none" stroke="black" d="M200.32,-806.45C183.97,-792.57 166.43,-777.69 151.12,-764.68"/>
<polygon fill="none" stroke="black" points="153.22,-761.87 143.33,-758.07 148.69,-767.21 153.22,-761.87"/>
</g>
<!-- VectorSpace -->
<g id="node16" class="node">
<title>VectorSpace</title>
<g id="a_node16"><a xlink:href="https://github.com/mihxil/math/blob/main/mihxil-math/src/main/java/org/meeuw/math/abstractalgebra/VectorSpace.java" xlink:title="{\N|{ + &#160;&#45; \n⇆ | &#160;* \n⇆ | 0 | 1}|Vector3Space}">
<polygon fill="none" stroke="black" points="42,-814 42,-898 165,-898 165,-814 42,-814"/>
<text text-anchor="middle" x="103.5" y="-882.8" font-family="Times,serif" font-size="14.00">VectorSpace</text>
<polyline fill="none" stroke="black" points="42,-875 165,-875 "/>
<text text-anchor="middle" x="63" y="-859.8" font-family="Times,serif" font-size="14.00">+ &#45; </text>
<text text-anchor="middle" x="63" y="-844.8" font-family="Times,serif" font-size="14.00">⇆</text>
<polyline fill="none" stroke="black" points="84,-837 84,-875 "/>
<text text-anchor="middle" x="98.5" y="-859.8" font-family="Times,serif" font-size="14.00">* </text>
<text text-anchor="middle" x="98.5" y="-844.8" font-family="Times,serif" font-size="14.00">⇆</text>
<polyline fill="none" stroke="black" points="113,-837 113,-875 "/>
<text text-anchor="middle" x="126" y="-852.3" font-family="Times,serif" font-size="14.00">0</text>
<polyline fill="none" stroke="black" points="139,-837 139,-875 "/>
<text text-anchor="middle" x="152" y="-852.3" font-family="Times,serif" font-size="14.00">1</text>
<polyline fill="none" stroke="black" points="42,-837 165,-837 "/>
<text text-anchor="middle" x="103.5" y="-821.8" font-family="Times,serif" font-size="14.00">Vector3Space</text>
</a>
</g>
</g>
<!-- VectorSpace&#45;&gt;AbelianRing -->
<g id="edge20" class="edge">
<title>VectorSpace&#45;&gt;AbelianRing</title>
<path fill="none" stroke="black" d="M105.12,-813.93C105.7,-799.3 106.35,-782.86 106.93,-768.33"/>
<polygon fill="none" stroke="black" points="110.43,-768.28 107.33,-758.15 103.44,-768.01 110.43,-768.28"/>
</g>
<!-- ScalarField -->
<g id="node17" class="node">
<title>ScalarField</title>
<g id="a_node17"><a xlink:href="https://github.com/mihxil/math/blob/main/mihxil-math/src/main/java/org/meeuw/math/abstractalgebra/ScalarField.java" xlink:title="{\N|{ + &#160;&#45; \n⇆ | &#160;* &#160;/ \n⇆ | 0 | 1}|RationalNumbers}">
<polygon fill="none" stroke="black" points="186.5,-942.5 186.5,-1026.5 328.5,-1026.5 328.5,-942.5 186.5,-942.5"/>
<text text-anchor="middle" x="257.5" y="-1011.3" font-family="Times,serif" font-size="14.00">ScalarField</text>
<polyline fill="none" stroke="black" points="186.5,-1003.5 328.5,-1003.5 "/>
<text text-anchor="middle" x="208.5" y="-988.3" font-family="Times,serif" font-size="14.00">+ &#45; </text>
<text text-anchor="middle" x="208.5" y="-973.3" font-family="Times,serif" font-size="14.00">⇆</text>
<polyline fill="none" stroke="black" points="230.5,-965.5 230.5,-1003.5 "/>
<text text-anchor="middle" x="250.5" y="-988.3" font-family="Times,serif" font-size="14.00">* / </text>
<text text-anchor="middle" x="250.5" y="-973.3" font-family="Times,serif" font-size="14.00">⇆</text>
<polyline fill="none" stroke="black" points="270.5,-965.5 270.5,-1003.5 "/>
<text text-anchor="middle" x="285" y="-980.8" font-family="Times,serif" font-size="14.00">0</text>
<polyline fill="none" stroke="black" points="299.5,-965.5 299.5,-1003.5 "/>
<text text-anchor="middle" x="314" y="-980.8" font-family="Times,serif" font-size="14.00">1</text>
<polyline fill="none" stroke="black" points="186.5,-965.5 328.5,-965.5 "/>
<text text-anchor="middle" x="257.5" y="-950.3" font-family="Times,serif" font-size="14.00">RationalNumbers</text>
</a>
</g>
</g>
<!-- ScalarField&#45;&gt;Field -->
<g id="edge21" class="edge">
<title>ScalarField&#45;&gt;Field</title>
<path fill="none" stroke="black" d="M257.5,-942.43C257.5,-933.94 257.5,-924.84 257.5,-915.85"/>
<polygon fill="none" stroke="black" points="261,-915.8 257.5,-905.8 254,-915.8 261,-915.8"/>
</g>
<!-- CompleteField -->
<g id="node18" class="node">
<title>CompleteField</title>
<g id="a_node18"><a xlink:href="https://github.com/mihxil/math/blob/main/mihxil-math/src/main/java/org/meeuw/math/abstractalgebra/CompleteField.java" xlink:title="{\N|{ + &#160;&#45; \n⇆ | &#160;* &#160;/ \n⇆ | 0 | 1}|BigDecimalField\nRealField}">
<polygon fill="none" stroke="black" points="190.5,-1063.5 190.5,-1162.5 324.5,-1162.5 324.5,-1063.5 190.5,-1063.5"/>
<text text-anchor="middle" x="257.5" y="-1147.3" font-family="Times,serif" font-size="14.00">CompleteField</text>
<polyline fill="none" stroke="black" points="190.5,-1139.5 324.5,-1139.5 "/>
<text text-anchor="middle" x="211.5" y="-1124.3" font-family="Times,serif" font-size="14.00">+ &#45; </text>
<text text-anchor="middle" x="211.5" y="-1109.3" font-family="Times,serif" font-size="14.00">⇆</text>
<polyline fill="none" stroke="black" points="232.5,-1101.5 232.5,-1139.5 "/>
<text text-anchor="middle" x="251.5" y="-1124.3" font-family="Times,serif" font-size="14.00">* / </text>
<text text-anchor="middle" x="251.5" y="-1109.3" font-family="Times,serif" font-size="14.00">⇆</text>
<polyline fill="none" stroke="black" points="270.5,-1101.5 270.5,-1139.5 "/>
<text text-anchor="middle" x="284" y="-1116.8" font-family="Times,serif" font-size="14.00">0</text>
<polyline fill="none" stroke="black" points="297.5,-1101.5 297.5,-1139.5 "/>
<text text-anchor="middle" x="311" y="-1116.8" font-family="Times,serif" font-size="14.00">1</text>
<polyline fill="none" stroke="black" points="190.5,-1101.5 324.5,-1101.5 "/>
<text text-anchor="middle" x="257.5" y="-1086.3" font-family="Times,serif" font-size="14.00">BigDecimalField</text>
<text text-anchor="middle" x="257.5" y="-1071.3" font-family="Times,serif" font-size="14.00">RealField</text>
</a>
</g>
</g>
<!-- CompleteField&#45;&gt;ScalarField -->
<g id="edge22" class="edge">
<title>CompleteField&#45;&gt;ScalarField</title>
<path fill="none" stroke="black" d="M257.5,-1063.45C257.5,-1054.74 257.5,-1045.63 257.5,-1036.84"/>
<polygon fill="none" stroke="black" points="261,-1036.71 257.5,-1026.71 254,-1036.71 261,-1036.71"/>
</g>
</g>
</svg>
