<?xml version="1.0" encoding="UTF-8" standalone="no"?>
<!DOCTYPE svg PUBLIC "-//W3C//DTD SVG 1.1//EN"
 "http://www.w3.org/Graphics/SVG/1.1/DTD/svg11.dtd">
<!-- Generated by graphviz version 2.49.3 (20211027.1534)
 -->
<!-- Pages: 1 -->
<svg width="770pt" height="1262pt"
 viewBox="0.00 0.00 770.00 1262.00" xmlns="http://www.w3.org/2000/svg" xmlns:xlink="http://www.w3.org/1999/xlink">
<g id="graph0" class="graph" transform="scale(1 1) rotate(0) translate(4 1258)">
<polygon fill="white" stroke="transparent" points="-4,4 -4,-1258 766,-1258 766,4 -4,4"/>
<!-- Group -->
<g id="node1" class="node">
<title>Group</title>
<g id="a_node1"><a xlink:href="https://github.com/mihxil/math/blob/main/mihxil-math/src/main/java/org/meeuw/math/abstractalgebra/Group.java" xlink:title="{\N|{ * | u}|V}">
<polygon fill="none" stroke="black" points="120,-73.5 120,-142.5 181,-142.5 181,-73.5 120,-73.5"/>
<text text-anchor="middle" x="150.5" y="-127.3" font-family="Times,serif" font-size="14.00">Group</text>
<polyline fill="none" stroke="black" points="120,-119.5 181,-119.5 "/>
<text text-anchor="middle" x="134.5" y="-104.3" font-family="Times,serif" font-size="14.00">*</text>
<polyline fill="none" stroke="black" points="149,-96.5 149,-119.5 "/>
<text text-anchor="middle" x="165" y="-104.3" font-family="Times,serif" font-size="14.00">u</text>
<polyline fill="none" stroke="black" points="120,-96.5 181,-96.5 "/>
<text text-anchor="middle" x="150.5" y="-81.3" font-family="Times,serif" font-size="14.00">V</text>
</a>
</g>
</g>
<!-- AlgebraicStructure -->
<g id="node2" class="node">
<title>AlgebraicStructure</title>
<polygon fill="none" stroke="black" points="201,-0.5 201,-36.5 354,-36.5 354,-0.5 201,-0.5"/>
<text text-anchor="middle" x="277.5" y="-14.8" font-family="Times,serif" font-size="14.00">AlgebraicStructure</text>
</g>
<!-- Group&#45;&gt;AlgebraicStructure -->
<g id="edge1" class="edge">
<title>Group&#45;&gt;AlgebraicStructure</title>
<path fill="none" stroke="black" d="M181.13,-80.16C184.24,-77.67 187.4,-75.25 190.5,-73 205.61,-62.03 223.02,-51.03 238.27,-41.88"/>
<polygon fill="none" stroke="black" points="240.15,-44.83 246.97,-36.72 236.58,-38.81 240.15,-44.83"/>
</g>
<!-- AdditiveSemiGroup -->
<g id="node3" class="node">
<title>AdditiveSemiGroup</title>
<g id="a_node3"><a xlink:href="https://github.com/mihxil/math/blob/main/mihxil-math/src/main/java/org/meeuw/math/abstractalgebra/AdditiveSemiGroup.java" xlink:title="{\N|{ + }}">
<polygon fill="none" stroke="black" points="199.5,-85 199.5,-131 355.5,-131 355.5,-85 199.5,-85"/>
<text text-anchor="middle" x="277.5" y="-115.8" font-family="Times,serif" font-size="14.00">AdditiveSemiGroup</text>
<polyline fill="none" stroke="black" points="199.5,-108 355.5,-108 "/>
<text text-anchor="middle" x="277.5" y="-92.8" font-family="Times,serif" font-size="14.00">+</text>
</a>
</g>
</g>
<!-- AdditiveSemiGroup&#45;&gt;AlgebraicStructure -->
<g id="edge2" class="edge">
<title>AdditiveSemiGroup&#45;&gt;AlgebraicStructure</title>
<path fill="none" stroke="black" d="M277.5,-84.92C277.5,-73.33 277.5,-59.02 277.5,-46.75"/>
<polygon fill="none" stroke="black" points="281,-46.6 277.5,-36.6 274,-46.6 281,-46.6"/>
</g>
<!-- MultiplicativeSemiGroup -->
<g id="node4" class="node">
<title>MultiplicativeSemiGroup</title>
<g id="a_node4"><a xlink:href="https://github.com/mihxil/math/blob/main/mihxil-math/src/main/java/org/meeuw/math/abstractalgebra/MultiplicativeSemiGroup.java" xlink:title="{\N|{ ⋅ }}">
<polygon fill="none" stroke="black" points="312.5,-300.5 312.5,-346.5 508.5,-346.5 508.5,-300.5 312.5,-300.5"/>
<text text-anchor="middle" x="410.5" y="-331.3" font-family="Times,serif" font-size="14.00">MultiplicativeSemiGroup</text>
<polyline fill="none" stroke="black" points="312.5,-323.5 508.5,-323.5 "/>
<text text-anchor="middle" x="410.5" y="-308.3" font-family="Times,serif" font-size="14.00">⋅</text>
</a>
</g>
</g>
<!-- MultiplicativeSemiGroup&#45;&gt;AlgebraicStructure -->
<g id="edge3" class="edge">
<title>MultiplicativeSemiGroup&#45;&gt;AlgebraicStructure</title>
<path fill="none" stroke="black" d="M412.47,-300.34C415.44,-253.52 416.06,-143.06 364.5,-73 355.02,-60.11 341.41,-49.66 327.76,-41.54"/>
<polygon fill="none" stroke="black" points="329.27,-38.37 318.83,-36.53 325.84,-44.47 329.27,-38.37"/>
</g>
<!-- AdditiveAbelianSemiGroup -->
<g id="node5" class="node">
<title>AdditiveAbelianSemiGroup</title>
<g id="a_node5"><a xlink:href="https://github.com/mihxil/math/blob/main/mihxil-math/src/main/java/org/meeuw/math/abstractalgebra/AdditiveAbelianSemiGroup.java" xlink:title="{\N|{ + \n⇆}|NegativeIntegers ℕ⁻}">
<polygon fill="none" stroke="black" points="173,-179.5 173,-263.5 382,-263.5 382,-179.5 173,-179.5"/>
<text text-anchor="middle" x="277.5" y="-248.3" font-family="Times,serif" font-size="14.00">AdditiveAbelianSemiGroup</text>
<polyline fill="none" stroke="black" points="173,-240.5 382,-240.5 "/>
<text text-anchor="middle" x="277.5" y="-225.3" font-family="Times,serif" font-size="14.00">+ </text>
<text text-anchor="middle" x="277.5" y="-210.3" font-family="Times,serif" font-size="14.00">⇆</text>
<polyline fill="none" stroke="black" points="173,-202.5 382,-202.5 "/>
<text text-anchor="middle" x="277.5" y="-187.3" font-family="Times,serif" font-size="14.00">NegativeIntegers ℕ⁻</text>
</a>
</g>
</g>
<!-- AdditiveAbelianSemiGroup&#45;&gt;AdditiveSemiGroup -->
<g id="edge4" class="edge">
<title>AdditiveAbelianSemiGroup&#45;&gt;AdditiveSemiGroup</title>
<path fill="none" stroke="black" d="M277.5,-179.3C277.5,-166.85 277.5,-153.37 277.5,-141.57"/>
<polygon fill="none" stroke="black" points="281,-141.29 277.5,-131.29 274,-141.29 281,-141.29"/>
</g>
<!-- AdditiveMonoid -->
<g id="node6" class="node">
<title>AdditiveMonoid</title>
<g id="a_node6"><a xlink:href="https://github.com/mihxil/math/blob/main/mihxil-math/src/main/java/org/meeuw/math/abstractalgebra/AdditiveMonoid.java" xlink:title="{\N|{ + &#160;| 0}|StringMonoid\nNaturalNumbers ℕ}">
<polygon fill="none" stroke="black" points="0,-179.5 0,-263.5 155,-263.5 155,-179.5 0,-179.5"/>
<text text-anchor="middle" x="77.5" y="-248.3" font-family="Times,serif" font-size="14.00">AdditiveMonoid</text>
<polyline fill="none" stroke="black" points="0,-240.5 155,-240.5 "/>
<text text-anchor="middle" x="39.5" y="-225.3" font-family="Times,serif" font-size="14.00">+</text>
<polyline fill="none" stroke="black" points="79,-217.5 79,-240.5 "/>
<text text-anchor="middle" x="117" y="-225.3" font-family="Times,serif" font-size="14.00">0</text>
<polyline fill="none" stroke="black" points="0,-217.5 155,-217.5 "/>
<text text-anchor="middle" x="77.5" y="-202.3" font-family="Times,serif" font-size="14.00">StringMonoid</text>
<text text-anchor="middle" x="77.5" y="-187.3" font-family="Times,serif" font-size="14.00">NaturalNumbers ℕ</text>
</a>
</g>
</g>
<!-- AdditiveMonoid&#45;&gt;AdditiveSemiGroup -->
<g id="edge5" class="edge">
<title>AdditiveMonoid&#45;&gt;AdditiveSemiGroup</title>
<path fill="none" stroke="black" d="M151.12,-179.46C177.08,-164.98 205.59,-149.09 228.95,-136.06"/>
<polygon fill="none" stroke="black" points="230.94,-138.97 237.97,-131.04 227.53,-132.85 230.94,-138.97"/>
</g>
<!-- MultiplicativeMonoid -->
<g id="node7" class="node">
<title>MultiplicativeMonoid</title>
<g id="a_node7"><a xlink:href="https://github.com/mihxil/math/blob/main/mihxil-math/src/main/java/org/meeuw/math/abstractalgebra/MultiplicativeMonoid.java" xlink:title="{\N|{ ⋅ &#160;| 1}|OddIntegers ℕo}">
<polygon fill="none" stroke="black" points="326,-391 326,-460 495,-460 495,-391 326,-391"/>
<text text-anchor="middle" x="410.5" y="-444.8" font-family="Times,serif" font-size="14.00">MultiplicativeMonoid</text>
<polyline fill="none" stroke="black" points="326,-437 495,-437 "/>
<text text-anchor="middle" x="367" y="-421.8" font-family="Times,serif" font-size="14.00">⋅</text>
<polyline fill="none" stroke="black" points="408,-414 408,-437 "/>
<text text-anchor="middle" x="451.5" y="-421.8" font-family="Times,serif" font-size="14.00">1</text>
<polyline fill="none" stroke="black" points="326,-414 495,-414 "/>
<text text-anchor="middle" x="410.5" y="-398.8" font-family="Times,serif" font-size="14.00">OddIntegers ℕo</text>
</a>
</g>
</g>
<!-- MultiplicativeMonoid&#45;&gt;MultiplicativeSemiGroup -->
<g id="edge6" class="edge">
<title>MultiplicativeMonoid&#45;&gt;MultiplicativeSemiGroup</title>
<path fill="none" stroke="black" d="M410.5,-390.92C410.5,-379.83 410.5,-367.52 410.5,-356.55"/>
<polygon fill="none" stroke="black" points="414,-356.51 410.5,-346.51 407,-356.51 414,-356.51"/>
</g>
<!-- Rng -->
<g id="node8" class="node">
<title>Rng</title>
<g id="a_node8"><a xlink:href="https://github.com/mihxil/math/blob/main/mihxil-math/src/main/java/org/meeuw/math/abstractalgebra/Rng.java" xlink:title="{\N|{ + &#160;&#45; \n⇆ | &#160;⋅ &#160;| 0}|EvenIntegers 2ℤ\n3ℤ}">
<polygon fill="none" stroke="black" points="197,-504.5 197,-603.5 334,-603.5 334,-504.5 197,-504.5"/>
<text text-anchor="middle" x="265.5" y="-588.3" font-family="Times,serif" font-size="14.00">Rng</text>
<polyline fill="none" stroke="black" points="197,-580.5 334,-580.5 "/>
<text text-anchor="middle" x="226" y="-565.3" font-family="Times,serif" font-size="14.00">+ &#45; </text>
<text text-anchor="middle" x="226" y="-550.3" font-family="Times,serif" font-size="14.00">⇆</text>
<polyline fill="none" stroke="black" points="255,-542.5 255,-580.5 "/>
<text text-anchor="middle" x="273.5" y="-557.8" font-family="Times,serif" font-size="14.00">⋅</text>
<polyline fill="none" stroke="black" points="292,-542.5 292,-580.5 "/>
<text text-anchor="middle" x="313" y="-557.8" font-family="Times,serif" font-size="14.00">0</text>
<polyline fill="none" stroke="black" points="197,-542.5 334,-542.5 "/>
<text text-anchor="middle" x="265.5" y="-527.3" font-family="Times,serif" font-size="14.00">EvenIntegers 2ℤ</text>
<text text-anchor="middle" x="265.5" y="-512.3" font-family="Times,serif" font-size="14.00">3ℤ</text>
</a>
</g>
</g>
<!-- Rng&#45;&gt;MultiplicativeSemiGroup -->
<g id="edge7" class="edge">
<title>Rng&#45;&gt;MultiplicativeSemiGroup</title>
<path fill="none" stroke="black" d="M276.41,-504.2C286.76,-461.06 302.87,-402.12 317.5,-383 326.91,-370.7 339.71,-360.31 352.8,-351.87"/>
<polygon fill="none" stroke="black" points="354.71,-354.8 361.41,-346.6 351.06,-348.83 354.71,-354.8"/>
</g>
<!-- AdditiveAbelianGroup -->
<g id="node9" class="node">
<title>AdditiveAbelianGroup</title>
<g id="a_node9"><a xlink:href="https://github.com/mihxil/math/blob/main/mihxil-math/src/main/java/org/meeuw/math/abstractalgebra/AdditiveAbelianGroup.java" xlink:title="{\N|{ + &#160;&#45; \n⇆ | 0}}">
<polygon fill="none" stroke="black" points="97,-395 97,-456 270,-456 270,-395 97,-395"/>
<text text-anchor="middle" x="183.5" y="-440.8" font-family="Times,serif" font-size="14.00">AdditiveAbelianGroup</text>
<polyline fill="none" stroke="black" points="97,-433 270,-433 "/>
<text text-anchor="middle" x="144" y="-417.8" font-family="Times,serif" font-size="14.00">+ &#45; </text>
<text text-anchor="middle" x="144" y="-402.8" font-family="Times,serif" font-size="14.00">⇆</text>
<polyline fill="none" stroke="black" points="191,-395 191,-433 "/>
<text text-anchor="middle" x="230.5" y="-410.3" font-family="Times,serif" font-size="14.00">0</text>
</a>
</g>
</g>
<!-- Rng&#45;&gt;AdditiveAbelianGroup -->
<g id="edge8" class="edge">
<title>Rng&#45;&gt;AdditiveAbelianGroup</title>
<path fill="none" stroke="black" d="M234.03,-504.45C225.44,-491.21 216.27,-477.05 208.12,-464.48"/>
<polygon fill="none" stroke="black" points="211.04,-462.56 202.67,-456.07 205.17,-466.36 211.04,-462.56"/>
</g>
<!-- AdditiveAbelianGroup&#45;&gt;AdditiveAbelianSemiGroup -->
<g id="edge10" class="edge">
<title>AdditiveAbelianGroup&#45;&gt;AdditiveAbelianSemiGroup</title>
<path fill="none" stroke="black" d="M197.37,-394.69C212.25,-362.72 236.14,-311.39 253.96,-273.08"/>
<polygon fill="none" stroke="black" points="257.31,-274.18 258.36,-263.64 250.96,-271.23 257.31,-274.18"/>
</g>
<!-- AdditiveGroup -->
<g id="node11" class="node">
<title>AdditiveGroup</title>
<g id="a_node11"><a xlink:href="https://github.com/mihxil/math/blob/main/mihxil-math/src/main/java/org/meeuw/math/abstractalgebra/AdditiveGroup.java" xlink:title="{\N|{ + &#160;&#45; &#160;| 0}}">
<polygon fill="none" stroke="black" points="49.5,-300.5 49.5,-346.5 169.5,-346.5 169.5,-300.5 49.5,-300.5"/>
<text text-anchor="middle" x="109.5" y="-331.3" font-family="Times,serif" font-size="14.00">AdditiveGroup</text>
<polyline fill="none" stroke="black" points="49.5,-323.5 169.5,-323.5 "/>
<text text-anchor="middle" x="82.5" y="-308.3" font-family="Times,serif" font-size="14.00">+ &#45;</text>
<polyline fill="none" stroke="black" points="115.5,-300.5 115.5,-323.5 "/>
<text text-anchor="middle" x="142.5" y="-308.3" font-family="Times,serif" font-size="14.00">0</text>
</a>
</g>
</g>
<!-- AdditiveAbelianGroup&#45;&gt;AdditiveGroup -->
<g id="edge11" class="edge">
<title>AdditiveAbelianGroup&#45;&gt;AdditiveGroup</title>
<path fill="none" stroke="black" d="M161.5,-394.77C152.22,-382.23 141.43,-367.65 132.09,-355.03"/>
<polygon fill="none" stroke="black" points="134.65,-352.61 125.89,-346.65 129.03,-356.77 134.65,-352.61"/>
</g>
<!-- MultiplicativeAbelianSemiGroup -->
<g id="node10" class="node">
<title>MultiplicativeAbelianSemiGroup</title>
<g id="a_node10"><a xlink:href="https://github.com/mihxil/math/blob/main/mihxil-math/src/main/java/org/meeuw/math/abstractalgebra/MultiplicativeAbelianSemiGroup.java" xlink:title="{\N|{ ⋅ \n⇆}|OddIntegers ℕo}">
<polygon fill="none" stroke="black" points="513,-383.5 513,-467.5 762,-467.5 762,-383.5 513,-383.5"/>
<text text-anchor="middle" x="637.5" y="-452.3" font-family="Times,serif" font-size="14.00">MultiplicativeAbelianSemiGroup</text>
<polyline fill="none" stroke="black" points="513,-444.5 762,-444.5 "/>
<text text-anchor="middle" x="637.5" y="-429.3" font-family="Times,serif" font-size="14.00">⋅</text>
<text text-anchor="middle" x="637.5" y="-414.3" font-family="Times,serif" font-size="14.00">⇆</text>
<polyline fill="none" stroke="black" points="513,-406.5 762,-406.5 "/>
<text text-anchor="middle" x="637.5" y="-391.3" font-family="Times,serif" font-size="14.00">OddIntegers ℕo</text>
</a>
</g>
</g>
<!-- MultiplicativeAbelianSemiGroup&#45;&gt;MultiplicativeSemiGroup -->
<g id="edge9" class="edge">
<title>MultiplicativeAbelianSemiGroup&#45;&gt;MultiplicativeSemiGroup</title>
<path fill="none" stroke="black" d="M544.19,-383.39C519.04,-372.31 492.52,-360.63 469.8,-350.62"/>
<polygon fill="none" stroke="black" points="471.19,-347.41 460.63,-346.58 468.37,-353.82 471.19,-347.41"/>
</g>
<!-- AdditiveGroup&#45;&gt;AdditiveMonoid -->
<g id="edge12" class="edge">
<title>AdditiveGroup&#45;&gt;AdditiveMonoid</title>
<path fill="none" stroke="black" d="M102.4,-300.31C99.8,-292.19 96.75,-282.65 93.68,-273.07"/>
<polygon fill="none" stroke="black" points="97.02,-272 90.63,-263.54 90.35,-274.13 97.02,-272"/>
</g>
<!-- MultiplicativeGroup -->
<g id="node12" class="node">
<title>MultiplicativeGroup</title>
<g id="a_node12"><a xlink:href="https://github.com/mihxil/math/blob/main/mihxil-math/src/main/java/org/meeuw/math/abstractalgebra/MultiplicativeGroup.java" xlink:title="{\N|{ ⋅ &#160;/ &#160;| 1}|PermutationGroup\nGL₂(ℚ)}">
<polygon fill="none" stroke="black" points="352.5,-512 352.5,-596 512.5,-596 512.5,-512 352.5,-512"/>
<text text-anchor="middle" x="432.5" y="-580.8" font-family="Times,serif" font-size="14.00">MultiplicativeGroup</text>
<polyline fill="none" stroke="black" points="352.5,-573 512.5,-573 "/>
<text text-anchor="middle" x="392.5" y="-557.8" font-family="Times,serif" font-size="14.00">⋅/</text>
<polyline fill="none" stroke="black" points="432.5,-550 432.5,-573 "/>
<text text-anchor="middle" x="472.5" y="-557.8" font-family="Times,serif" font-size="14.00">1</text>
<polyline fill="none" stroke="black" points="352.5,-550 512.5,-550 "/>
<text text-anchor="middle" x="432.5" y="-534.8" font-family="Times,serif" font-size="14.00">PermutationGroup</text>
<text text-anchor="middle" x="432.5" y="-519.8" font-family="Times,serif" font-size="14.00">GL₂(ℚ)</text>
</a>
</g>
</g>
<!-- MultiplicativeGroup&#45;&gt;MultiplicativeMonoid -->
<g id="edge13" class="edge">
<title>MultiplicativeGroup&#45;&gt;MultiplicativeMonoid</title>
<path fill="none" stroke="black" d="M425.36,-511.93C423.04,-498.59 420.46,-483.75 418.1,-470.22"/>
<polygon fill="none" stroke="black" points="421.52,-469.44 416.36,-460.19 414.62,-470.64 421.52,-469.44"/>
</g>
<!-- Ring -->
<g id="node13" class="node">
<title>Ring</title>
<g id="a_node13"><a xlink:href="https://github.com/mihxil/math/blob/main/mihxil-math/src/main/java/org/meeuw/math/abstractalgebra/Ring.java" xlink:title="{\N|{ + &#160;&#45; \n⇆ | &#160;⋅ &#160;| 0 | 1}|ModuloStructure}">
<polygon fill="none" stroke="black" points="209,-640.5 209,-724.5 348,-724.5 348,-640.5 209,-640.5"/>
<text text-anchor="middle" x="278.5" y="-709.3" font-family="Times,serif" font-size="14.00">Ring</text>
<polyline fill="none" stroke="black" points="209,-701.5 348,-701.5 "/>
<text text-anchor="middle" x="233" y="-686.3" font-family="Times,serif" font-size="14.00">+ &#45; </text>
<text text-anchor="middle" x="233" y="-671.3" font-family="Times,serif" font-size="14.00">⇆</text>
<polyline fill="none" stroke="black" points="257,-663.5 257,-701.5 "/>
<text text-anchor="middle" x="270.5" y="-678.8" font-family="Times,serif" font-size="14.00">⋅</text>
<polyline fill="none" stroke="black" points="284,-663.5 284,-701.5 "/>
<text text-anchor="middle" x="300" y="-678.8" font-family="Times,serif" font-size="14.00">0</text>
<polyline fill="none" stroke="black" points="316,-663.5 316,-701.5 "/>
<text text-anchor="middle" x="332" y="-678.8" font-family="Times,serif" font-size="14.00">1</text>
<polyline fill="none" stroke="black" points="209,-663.5 348,-663.5 "/>
<text text-anchor="middle" x="278.5" y="-648.3" font-family="Times,serif" font-size="14.00">ModuloStructure</text>
</a>
</g>
</g>
<!-- Ring&#45;&gt;Rng -->
<g id="edge14" class="edge">
<title>Ring&#45;&gt;Rng</title>
<path fill="none" stroke="black" d="M274.28,-640.43C273.41,-631.94 272.47,-622.84 271.55,-613.85"/>
<polygon fill="none" stroke="black" points="275.02,-613.39 270.51,-603.8 268.06,-614.1 275.02,-613.39"/>
</g>
<!-- MultiplicativeAbelianGroup -->
<g id="node14" class="node">
<title>MultiplicativeAbelianGroup</title>
<g id="a_node14"><a xlink:href="https://github.com/mihxil/math/blob/main/mihxil-math/src/main/java/org/meeuw/math/abstractalgebra/MultiplicativeAbelianGroup.java" xlink:title="{\N|{ ⋅ &#160;/ \n⇆ | 1}}">
<polygon fill="none" stroke="black" points="459,-652 459,-713 672,-713 672,-652 459,-652"/>
<text text-anchor="middle" x="565.5" y="-697.8" font-family="Times,serif" font-size="14.00">MultiplicativeAbelianGroup</text>
<polyline fill="none" stroke="black" points="459,-690 672,-690 "/>
<text text-anchor="middle" x="513" y="-674.8" font-family="Times,serif" font-size="14.00">⋅/ </text>
<text text-anchor="middle" x="513" y="-659.8" font-family="Times,serif" font-size="14.00">⇆</text>
<polyline fill="none" stroke="black" points="567,-652 567,-690 "/>
<text text-anchor="middle" x="619.5" y="-667.3" font-family="Times,serif" font-size="14.00">1</text>
</a>
</g>
</g>
<!-- MultiplicativeAbelianGroup&#45;&gt;MultiplicativeAbelianSemiGroup -->
<g id="edge15" class="edge">
<title>MultiplicativeAbelianGroup&#45;&gt;MultiplicativeAbelianSemiGroup</title>
<path fill="none" stroke="black" d="M573.83,-652C585.86,-609.38 608.28,-529.99 623.05,-477.69"/>
<polygon fill="none" stroke="black" points="626.45,-478.51 625.8,-467.94 619.71,-476.61 626.45,-478.51"/>
</g>
<!-- MultiplicativeAbelianGroup&#45;&gt;MultiplicativeGroup -->
<g id="edge16" class="edge">
<title>MultiplicativeAbelianGroup&#45;&gt;MultiplicativeGroup</title>
<path fill="none" stroke="black" d="M534.32,-651.84C519.07,-637.34 500.33,-619.51 483.1,-603.12"/>
<polygon fill="none" stroke="black" points="485.48,-600.56 475.82,-596.2 480.66,-605.63 485.48,-600.56"/>
</g>
<!-- DivisionRing -->
<g id="node15" class="node">
<title>DivisionRing</title>
<g id="a_node15"><a xlink:href="https://github.com/mihxil/math/blob/main/mihxil-math/src/main/java/org/meeuw/math/abstractalgebra/DivisionRing.java" xlink:title="{\N|{ + &#160;&#45; \n⇆ | &#160;⋅ &#160;/ &#160;| 0 | 1}|ℍ(ℚ)}">
<polygon fill="none" stroke="black" points="365.5,-761.5 365.5,-845.5 485.5,-845.5 485.5,-761.5 365.5,-761.5"/>
<text text-anchor="middle" x="425.5" y="-830.3" font-family="Times,serif" font-size="14.00">DivisionRing</text>
<polyline fill="none" stroke="black" points="365.5,-822.5 485.5,-822.5 "/>
<text text-anchor="middle" x="386.5" y="-807.3" font-family="Times,serif" font-size="14.00">+ &#45; </text>
<text text-anchor="middle" x="386.5" y="-792.3" font-family="Times,serif" font-size="14.00">⇆</text>
<polyline fill="none" stroke="black" points="407.5,-784.5 407.5,-822.5 "/>
<text text-anchor="middle" x="420.5" y="-799.8" font-family="Times,serif" font-size="14.00">⋅/</text>
<polyline fill="none" stroke="black" points="433.5,-784.5 433.5,-822.5 "/>
<text text-anchor="middle" x="446.5" y="-799.8" font-family="Times,serif" font-size="14.00">0</text>
<polyline fill="none" stroke="black" points="459.5,-784.5 459.5,-822.5 "/>
<text text-anchor="middle" x="472.5" y="-799.8" font-family="Times,serif" font-size="14.00">1</text>
<polyline fill="none" stroke="black" points="365.5,-784.5 485.5,-784.5 "/>
<text text-anchor="middle" x="425.5" y="-769.3" font-family="Times,serif" font-size="14.00">ℍ(ℚ)</text>
</a>
</g>
</g>
<!-- DivisionRing&#45;&gt;MultiplicativeGroup -->
<g id="edge17" class="edge">
<title>DivisionRing&#45;&gt;MultiplicativeGroup</title>
<path fill="none" stroke="black" d="M426.66,-761.35C427.87,-718.8 429.75,-652.26 431.05,-606.3"/>
<polygon fill="none" stroke="black" points="434.55,-606.34 431.33,-596.25 427.55,-606.14 434.55,-606.34"/>
</g>
<!-- DivisionRing&#45;&gt;Ring -->
<g id="edge18" class="edge">
<title>DivisionRing&#45;&gt;Ring</title>
<path fill="none" stroke="black" d="M374.5,-761.21C362.53,-751.52 349.67,-741.12 337.39,-731.17"/>
<polygon fill="none" stroke="black" points="339.39,-728.29 329.41,-724.71 334.98,-733.73 339.39,-728.29"/>
</g>
<!-- AbelianRing -->
<g id="node16" class="node">
<title>AbelianRing</title>
<g id="a_node16"><a xlink:href="https://github.com/mihxil/math/blob/main/mihxil-math/src/main/java/org/meeuw/math/abstractalgebra/AbelianRing.java" xlink:title="{\N|{ + &#160;&#45; \n⇆ | &#160;⋅ \n⇆ | 0 | 1}}">
<polygon fill="none" stroke="black" points="217,-773 217,-834 340,-834 340,-773 217,-773"/>
<text text-anchor="middle" x="278.5" y="-818.8" font-family="Times,serif" font-size="14.00">AbelianRing</text>
<polyline fill="none" stroke="black" points="217,-811 340,-811 "/>
<text text-anchor="middle" x="238" y="-795.8" font-family="Times,serif" font-size="14.00">+ &#45; </text>
<text text-anchor="middle" x="238" y="-780.8" font-family="Times,serif" font-size="14.00">⇆</text>
<polyline fill="none" stroke="black" points="259,-773 259,-811 "/>
<text text-anchor="middle" x="273.5" y="-795.8" font-family="Times,serif" font-size="14.00">⋅</text>
<text text-anchor="middle" x="273.5" y="-780.8" font-family="Times,serif" font-size="14.00">⇆</text>
<polyline fill="none" stroke="black" points="288,-773 288,-811 "/>
<text text-anchor="middle" x="301" y="-788.3" font-family="Times,serif" font-size="14.00">0</text>
<polyline fill="none" stroke="black" points="314,-773 314,-811 "/>
<text text-anchor="middle" x="327" y="-788.3" font-family="Times,serif" font-size="14.00">1</text>
</a>
</g>
</g>
<!-- AbelianRing&#45;&gt;Ring -->
<g id="edge19" class="edge">
<title>AbelianRing&#45;&gt;Ring</title>
<path fill="none" stroke="black" d="M278.5,-772.78C278.5,-761.26 278.5,-747.74 278.5,-734.75"/>
<polygon fill="none" stroke="black" points="282,-734.5 278.5,-724.5 275,-734.5 282,-734.5"/>
</g>
<!-- DivisibleGroup -->
<g id="node17" class="node">
<title>DivisibleGroup</title>
<g id="a_node17"><a xlink:href="https://github.com/mihxil/math/blob/main/mihxil-math/src/main/java/org/meeuw/math/abstractalgebra/DivisibleGroup.java" xlink:title="{\N|{ ⋅ &#160;/ \n⇆ | 1}}">
<polygon fill="none" stroke="black" points="504,-773 504,-834 627,-834 627,-773 504,-773"/>
<text text-anchor="middle" x="565.5" y="-818.8" font-family="Times,serif" font-size="14.00">DivisibleGroup</text>
<polyline fill="none" stroke="black" points="504,-811 627,-811 "/>
<text text-anchor="middle" x="535.5" y="-795.8" font-family="Times,serif" font-size="14.00">⋅/ </text>
<text text-anchor="middle" x="535.5" y="-780.8" font-family="Times,serif" font-size="14.00">⇆</text>
<polyline fill="none" stroke="black" points="567,-773 567,-811 "/>
<text text-anchor="middle" x="597" y="-788.3" font-family="Times,serif" font-size="14.00">1</text>
</a>
</g>
</g>
<!-- DivisibleGroup&#45;&gt;MultiplicativeAbelianGroup -->
<g id="edge20" class="edge">
<title>DivisibleGroup&#45;&gt;MultiplicativeAbelianGroup</title>
<path fill="none" stroke="black" d="M565.5,-772.78C565.5,-757.87 565.5,-739.6 565.5,-723.48"/>
<polygon fill="none" stroke="black" points="569,-723.26 565.5,-713.26 562,-723.26 569,-723.26"/>
</g>
<!-- Field -->
<g id="node18" class="node">
<title>Field</title>
<g id="a_node18"><a xlink:href="https://github.com/mihxil/math/blob/main/mihxil-math/src/main/java/org/meeuw/math/abstractalgebra/Field.java" xlink:title="{\N|{ + &#160;&#45; \n⇆ | &#160;⋅ &#160;/ \n⇆ | 0 | 1}|ℤ/nℤ\nGaussianRationals ᵁ0(i)\nℤ/3ℤ}">
<polygon fill="none" stroke="black" points="347,-882.5 347,-996.5 532,-996.5 532,-882.5 347,-882.5"/>
<text text-anchor="middle" x="439.5" y="-981.3" font-family="Times,serif" font-size="14.00">Field</text>
<polyline fill="none" stroke="black" points="347,-973.5 532,-973.5 "/>
<text text-anchor="middle" x="375.5" y="-958.3" font-family="Times,serif" font-size="14.00">+ &#45; </text>
<text text-anchor="middle" x="375.5" y="-943.3" font-family="Times,serif" font-size="14.00">⇆</text>
<polyline fill="none" stroke="black" points="404,-935.5 404,-973.5 "/>
<text text-anchor="middle" x="426.5" y="-958.3" font-family="Times,serif" font-size="14.00">⋅/ </text>
<text text-anchor="middle" x="426.5" y="-943.3" font-family="Times,serif" font-size="14.00">⇆</text>
<polyline fill="none" stroke="black" points="449,-935.5 449,-973.5 "/>
<text text-anchor="middle" x="469.5" y="-950.8" font-family="Times,serif" font-size="14.00">0</text>
<polyline fill="none" stroke="black" points="490,-935.5 490,-973.5 "/>
<text text-anchor="middle" x="511" y="-950.8" font-family="Times,serif" font-size="14.00">1</text>
<polyline fill="none" stroke="black" points="347,-935.5 532,-935.5 "/>
<text text-anchor="middle" x="439.5" y="-920.3" font-family="Times,serif" font-size="14.00">ℤ/nℤ</text>
<text text-anchor="middle" x="439.5" y="-905.3" font-family="Times,serif" font-size="14.00">GaussianRationals ᵁ0(i)</text>
<text text-anchor="middle" x="439.5" y="-890.3" font-family="Times,serif" font-size="14.00">ℤ/3ℤ</text>
</a>
</g>
</g>
<!-- Field&#45;&gt;DivisionRing -->
<g id="edge21" class="edge">
<title>Field&#45;&gt;DivisionRing</title>
<path fill="none" stroke="black" d="M433.64,-882.45C432.72,-873.58 431.76,-864.45 430.85,-855.71"/>
<polygon fill="none" stroke="black" points="434.32,-855.23 429.8,-845.65 427.36,-855.96 434.32,-855.23"/>
</g>
<!-- Field&#45;&gt;AbelianRing -->
<g id="edge22" class="edge">
<title>Field&#45;&gt;AbelianRing</title>
<path fill="none" stroke="black" d="M372.15,-882.45C355.13,-868.28 337.3,-853.44 321.82,-840.56"/>
<polygon fill="none" stroke="black" points="323.88,-837.72 313.96,-834.01 319.4,-843.1 323.88,-837.72"/>
</g>
<!-- Field&#45;&gt;DivisibleGroup -->
<g id="edge23" class="edge">
<title>Field&#45;&gt;DivisibleGroup</title>
<path fill="none" stroke="black" d="M492.21,-882.45C505.16,-868.67 518.71,-854.26 530.59,-841.62"/>
<polygon fill="none" stroke="black" points="533.45,-843.69 537.75,-834.01 528.35,-838.9 533.45,-843.69"/>
</g>
<!-- VectorSpace -->
<g id="node19" class="node">
<title>VectorSpace</title>
<g id="a_node19"><a xlink:href="https://github.com/mihxil/math/blob/main/mihxil-math/src/main/java/org/meeuw/math/abstractalgebra/VectorSpace.java" xlink:title="{\N|{ + &#160;&#45; \n⇆ | &#160;⋅ \n⇆ | 0 | 1}|Vector3Space ℝₚ³\nℚ³}">
<polygon fill="none" stroke="black" points="188,-890 188,-989 329,-989 329,-890 188,-890"/>
<text text-anchor="middle" x="258.5" y="-973.8" font-family="Times,serif" font-size="14.00">VectorSpace</text>
<polyline fill="none" stroke="black" points="188,-966 329,-966 "/>
<text text-anchor="middle" x="211" y="-950.8" font-family="Times,serif" font-size="14.00">+ &#45; </text>
<text text-anchor="middle" x="211" y="-935.8" font-family="Times,serif" font-size="14.00">⇆</text>
<polyline fill="none" stroke="black" points="234,-928 234,-966 "/>
<text text-anchor="middle" x="251" y="-950.8" font-family="Times,serif" font-size="14.00">⋅</text>
<text text-anchor="middle" x="251" y="-935.8" font-family="Times,serif" font-size="14.00">⇆</text>
<polyline fill="none" stroke="black" points="268,-928 268,-966 "/>
<text text-anchor="middle" x="283" y="-943.3" font-family="Times,serif" font-size="14.00">0</text>
<polyline fill="none" stroke="black" points="298,-928 298,-966 "/>
<text text-anchor="middle" x="313.5" y="-943.3" font-family="Times,serif" font-size="14.00">1</text>
<polyline fill="none" stroke="black" points="188,-928 329,-928 "/>
<text text-anchor="middle" x="258.5" y="-912.8" font-family="Times,serif" font-size="14.00">Vector3Space ℝₚ³</text>
<text text-anchor="middle" x="258.5" y="-897.8" font-family="Times,serif" font-size="14.00">ℚ³</text>
</a>
</g>
</g>
<!-- VectorSpace&#45;&gt;AbelianRing -->
<g id="edge24" class="edge">
<title>VectorSpace&#45;&gt;AbelianRing</title>
<path fill="none" stroke="black" d="M265.78,-889.74C268.01,-874.81 270.43,-858.57 272.56,-844.31"/>
<polygon fill="none" stroke="black" points="276.04,-844.72 274.05,-834.32 269.11,-843.69 276.04,-844.72"/>
</g>
<!-- ScalarField -->
<g id="node20" class="node">
<title>ScalarField</title>
<g id="a_node20"><a xlink:href="https://github.com/mihxil/math/blob/main/mihxil-math/src/main/java/org/meeuw/math/abstractalgebra/ScalarField.java" xlink:title="{\N|{ + &#160;&#45; \n⇆ | &#160;⋅ &#160;/ \n⇆ | 0 | 1}|RationalNumbers ℚ}">
<polygon fill="none" stroke="black" points="360.5,-1033.5 360.5,-1117.5 518.5,-1117.5 518.5,-1033.5 360.5,-1033.5"/>
<text text-anchor="middle" x="439.5" y="-1102.3" font-family="Times,serif" font-size="14.00">ScalarField</text>
<polyline fill="none" stroke="black" points="360.5,-1094.5 518.5,-1094.5 "/>
<text text-anchor="middle" x="385.5" y="-1079.3" font-family="Times,serif" font-size="14.00">+ &#45; </text>
<text text-anchor="middle" x="385.5" y="-1064.3" font-family="Times,serif" font-size="14.00">⇆</text>
<polyline fill="none" stroke="black" points="410.5,-1056.5 410.5,-1094.5 "/>
<text text-anchor="middle" x="430" y="-1079.3" font-family="Times,serif" font-size="14.00">⋅/ </text>
<text text-anchor="middle" x="430" y="-1064.3" font-family="Times,serif" font-size="14.00">⇆</text>
<polyline fill="none" stroke="black" points="449.5,-1056.5 449.5,-1094.5 "/>
<text text-anchor="middle" x="466.5" y="-1071.8" font-family="Times,serif" font-size="14.00">0</text>
<polyline fill="none" stroke="black" points="483.5,-1056.5 483.5,-1094.5 "/>
<text text-anchor="middle" x="501" y="-1071.8" font-family="Times,serif" font-size="14.00">1</text>
<polyline fill="none" stroke="black" points="360.5,-1056.5 518.5,-1056.5 "/>
<text text-anchor="middle" x="439.5" y="-1041.3" font-family="Times,serif" font-size="14.00">RationalNumbers ℚ</text>
</a>
</g>
</g>
<!-- ScalarField&#45;&gt;Field -->
<g id="edge25" class="edge">
<title>ScalarField&#45;&gt;Field</title>
<path fill="none" stroke="black" d="M439.5,-1033.2C439.5,-1024.82 439.5,-1015.81 439.5,-1006.81"/>
<polygon fill="none" stroke="black" points="443,-1006.7 439.5,-996.7 436,-1006.7 443,-1006.7"/>
</g>
<!-- CompleteField -->
<g id="node21" class="node">
<title>CompleteField</title>
<g id="a_node21"><a xlink:href="https://github.com/mihxil/math/blob/main/mihxil-math/src/main/java/org/meeuw/math/abstractalgebra/CompleteField.java" xlink:title="{\N|{ + &#160;&#45; \n⇆ | &#160;⋅ &#160;/ \n⇆ | 0 | 1}|BigDecimalField ℝ\nRealField ℝₚ}">
<polygon fill="none" stroke="black" points="364,-1154.5 364,-1253.5 515,-1253.5 515,-1154.5 364,-1154.5"/>
<text text-anchor="middle" x="439.5" y="-1238.3" font-family="Times,serif" font-size="14.00">CompleteField</text>
<polyline fill="none" stroke="black" points="364,-1230.5 515,-1230.5 "/>
<text text-anchor="middle" x="388" y="-1215.3" font-family="Times,serif" font-size="14.00">+ &#45; </text>
<text text-anchor="middle" x="388" y="-1200.3" font-family="Times,serif" font-size="14.00">⇆</text>
<polyline fill="none" stroke="black" points="412,-1192.5 412,-1230.5 "/>
<text text-anchor="middle" x="430.5" y="-1215.3" font-family="Times,serif" font-size="14.00">⋅/ </text>
<text text-anchor="middle" x="430.5" y="-1200.3" font-family="Times,serif" font-size="14.00">⇆</text>
<polyline fill="none" stroke="black" points="449,-1192.5 449,-1230.5 "/>
<text text-anchor="middle" x="465.5" y="-1207.8" font-family="Times,serif" font-size="14.00">0</text>
<polyline fill="none" stroke="black" points="482,-1192.5 482,-1230.5 "/>
<text text-anchor="middle" x="498.5" y="-1207.8" font-family="Times,serif" font-size="14.00">1</text>
<polyline fill="none" stroke="black" points="364,-1192.5 515,-1192.5 "/>
<text text-anchor="middle" x="439.5" y="-1177.3" font-family="Times,serif" font-size="14.00">BigDecimalField ℝ</text>
<text text-anchor="middle" x="439.5" y="-1162.3" font-family="Times,serif" font-size="14.00">RealField ℝₚ</text>
</a>
</g>
</g>
<!-- CompleteField&#45;&gt;ScalarField -->
<g id="edge26" class="edge">
<title>CompleteField&#45;&gt;ScalarField</title>
<path fill="none" stroke="black" d="M439.5,-1154.45C439.5,-1145.74 439.5,-1136.63 439.5,-1127.84"/>
<polygon fill="none" stroke="black" points="443,-1127.71 439.5,-1117.71 436,-1127.71 443,-1127.71"/>
</g>
</g>
</svg>
