<?xml version="1.0" encoding="UTF-8" standalone="no"?>
<!DOCTYPE svg PUBLIC "-//W3C//DTD SVG 1.1//EN"
 "http://www.w3.org/Graphics/SVG/1.1/DTD/svg11.dtd">
<!-- Generated by graphviz version 2.49.3 (20211027.1534)
 -->
<!-- Pages: 1 -->
<svg width="727pt" height="1212pt"
 viewBox="0.00 0.00 726.50 1212.00" xmlns="http://www.w3.org/2000/svg" xmlns:xlink="http://www.w3.org/1999/xlink">
<g id="graph0" class="graph" transform="scale(1 1) rotate(0) translate(4 1208)">
<polygon fill="white" stroke="transparent" points="-4,4 -4,-1208 722.5,-1208 722.5,4 -4,4"/>
<!-- Magma -->
<g id="node1" class="node">
<title>Magma</title>
<g id="a_node1_0"><a xlink:href="https://github.com/mihxil/math/blob/main/mihxil-math/src/main/java/org/meeuw/math/abstractalgebra/Magma.java" xlink:title="Magma">
<polygon fill="none" stroke="black" points="357.5,-74 357.5,-93 415.5,-93 415.5,-74 357.5,-74"/>
<text text-anchor="start" x="359.5" y="-79.8" font-family="Times,serif" font-size="14.00" fill="#0000a0">Magma</text>
</a>
</g>
<polygon fill="none" stroke="black" points="357.5,-55 357.5,-74 415.5,-74 415.5,-55 357.5,-55"/>
<text text-anchor="start" x="380.5" y="-60.8" font-family="Times,serif" font-size="14.00"> *</text>
</g>
<!-- AlgebraicStructure -->
<g id="node2" class="node">
<title>AlgebraicStructure</title>
<g id="a_node2_1"><a xlink:href="https://github.com/mihxil/math/blob/main/mihxil-math/src/main/java/org/meeuw/math/abstractalgebra/AlgebraicStructure.java" xlink:title="AlgebraicStructure">
<polygon fill="none" stroke="black" points="316.5,0.5 316.5,-18.5 457.5,-18.5 457.5,0.5 316.5,0.5"/>
<text text-anchor="start" x="318.5" y="-5.3" font-family="Times,serif" font-size="14.00" fill="#0000a0">AlgebraicStructure</text>
</a>
</g>
</g>
<!-- Magma&#45;&gt;AlgebraicStructure -->
<g id="edge1" class="edge">
<title>Magma&#45;&gt;AlgebraicStructure</title>
<path fill="none" stroke="black" d="M386.5,-54.92C386.5,-46.79 386.5,-37.21 386.5,-29.03"/>
<polygon fill="none" stroke="black" points="390,-29.01 386.5,-19.01 383,-29.01 390,-29.01"/>
</g>
<!-- Group -->
<g id="node3" class="node">
<title>Group</title>
<g id="a_node3_2"><a xlink:href="https://github.com/mihxil/math/blob/main/mihxil-math/src/main/java/org/meeuw/math/abstractalgebra/Group.java" xlink:title="Group">
<polygon fill="none" stroke="black" points="621.5,-260 621.5,-279 670.5,-279 670.5,-260 621.5,-260"/>
<text text-anchor="start" x="623.5" y="-265.8" font-family="Times,serif" font-size="14.00" fill="#0000a0">Group</text>
</a>
</g>
<polygon fill="none" stroke="black" points="621.5,-241 621.5,-260 646.5,-260 646.5,-241 621.5,-241"/>
<text text-anchor="start" x="628" y="-246.8" font-family="Times,serif" font-size="14.00"> *</text>
<polygon fill="none" stroke="black" points="646.5,-241 646.5,-260 670.5,-260 670.5,-241 646.5,-241"/>
<text text-anchor="start" x="653.5" y="-246.8" font-family="Times,serif" font-size="14.00">u</text>
<g id="a_node3_3"><a xlink:href="https://github.com/mihxil/math/blob/main/mihxil-algebra/src/main/java/org/meeuw/math/abstractalgebra/integers/Integers.java" xlink:title="Integers">
<polygon fill="none" stroke="black" points="621.5,-222 621.5,-241 670.5,-241 670.5,-222 621.5,-222"/>
<text text-anchor="start" x="640.5" y="-227.8" font-family="Times,serif" font-size="14.00" fill="#0000a0">ℤ</text>
</a>
</g>
<g id="a_node3_4"><a xlink:href="https://github.com/mihxil/math/blob/main/mihxil-algebra/src/main/java/org/meeuw/math/abstractalgebra/klein/KleinGroup.java" xlink:title="KleinGroup">
<polygon fill="none" stroke="black" points="621.5,-203 621.5,-222 670.5,-222 670.5,-203 621.5,-203"/>
<text text-anchor="start" x="641" y="-208.8" font-family="Times,serif" font-size="14.00" fill="#0000a0">V</text>
</a>
</g>
</g>
<!-- Group&#45;&gt;Magma -->
<g id="edge2" class="edge">
<title>Group&#45;&gt;Magma</title>
<path fill="none" stroke="black" d="M620.67,-224.18C574.85,-194.99 476.83,-132.55 423.28,-98.43"/>
<polygon fill="none" stroke="black" points="425.08,-95.43 414.77,-93.01 421.32,-101.33 425.08,-95.43"/>
</g>
<!-- AdditiveSemiGroup -->
<g id="node4" class="node">
<title>AdditiveSemiGroup</title>
<g id="a_node4_5"><a xlink:href="https://github.com/mihxil/math/blob/main/mihxil-math/src/main/java/org/meeuw/math/abstractalgebra/AdditiveSemiGroup.java" xlink:title="AdditiveSemiGroup">
<polygon fill="none" stroke="black" points="187.5,-148 187.5,-167 331.5,-167 331.5,-148 187.5,-148"/>
<text text-anchor="start" x="189.5" y="-153.8" font-family="Times,serif" font-size="14.00" fill="#0000a0">AdditiveSemiGroup</text>
</a>
</g>
<polygon fill="none" stroke="black" points="187.5,-129 187.5,-148 264.5,-148 264.5,-129 187.5,-129"/>
<text text-anchor="start" x="215" y="-134.8" font-family="Times,serif" font-size="14.00"> + </text>
<polygon fill="none" stroke="black" points="264.5,-129 264.5,-148 331.5,-148 331.5,-129 264.5,-129"/>
<text text-anchor="start" x="292" y="-134.8" font-family="Times,serif" font-size="14.00"> *</text>
</g>
<!-- AdditiveSemiGroup&#45;&gt;Magma -->
<g id="edge3" class="edge">
<title>AdditiveSemiGroup&#45;&gt;Magma</title>
<path fill="none" stroke="black" d="M291.55,-128.83C308.69,-119.11 329.93,-107.07 347.97,-96.84"/>
<polygon fill="none" stroke="black" points="350.1,-99.66 357.07,-91.68 346.65,-93.57 350.1,-99.66"/>
</g>
<!-- MultiplicativeSemiGroup -->
<g id="node5" class="node">
<title>MultiplicativeSemiGroup</title>
<g id="a_node5_6"><a xlink:href="https://github.com/mihxil/math/blob/main/mihxil-math/src/main/java/org/meeuw/math/abstractalgebra/MultiplicativeSemiGroup.java" xlink:title="MultiplicativeSemiGroup">
<polygon fill="none" stroke="black" points="279.5,-334 279.5,-353 463.5,-353 463.5,-334 279.5,-334"/>
<text text-anchor="start" x="281.5" y="-339.8" font-family="Times,serif" font-size="14.00" fill="#0000a0">MultiplicativeSemiGroup</text>
</a>
</g>
<polygon fill="none" stroke="black" points="279.5,-315 279.5,-334 372.5,-334 372.5,-315 279.5,-315"/>
<text text-anchor="start" x="319" y="-320.8" font-family="Times,serif" font-size="14.00"> ⋅ </text>
<polygon fill="none" stroke="black" points="372.5,-315 372.5,-334 463.5,-334 463.5,-315 372.5,-315"/>
<text text-anchor="start" x="412" y="-320.8" font-family="Times,serif" font-size="14.00"> *</text>
</g>
<!-- MultiplicativeSemiGroup&#45;&gt;Magma -->
<g id="edge4" class="edge">
<title>MultiplicativeSemiGroup&#45;&gt;Magma</title>
<path fill="none" stroke="black" d="M372.55,-314.86C375.13,-270.54 381.76,-156.51 384.86,-103.23"/>
<polygon fill="none" stroke="black" points="388.36,-103.31 385.45,-93.12 381.37,-102.9 388.36,-103.31"/>
</g>
<!-- Field -->
<g id="node6" class="node">
<title>Field</title>
<g id="a_node6_7"><a xlink:href="https://github.com/mihxil/math/blob/main/mihxil-math/src/main/java/org/meeuw/math/abstractalgebra/Field.java" xlink:title="Field">
<polygon fill="none" stroke="black" points="414.5,-950 414.5,-969 587.5,-969 587.5,-950 414.5,-950"/>
<text text-anchor="start" x="482.5" y="-955.8" font-family="Times,serif" font-size="14.00" fill="#0000a0">Field</text>
</a>
</g>
<polygon fill="none" stroke="black" points="414.5,-916 414.5,-950 475.5,-950 475.5,-916 414.5,-916"/>
<text text-anchor="start" x="427.5" y="-936.8" font-family="Times,serif" font-size="14.00"> + &#160;&#45; </text>
<text text-anchor="start" x="438.5" y="-921.8" font-family="Times,serif" font-size="14.00">⇆</text>
<polygon fill="none" stroke="black" points="475.5,-916 475.5,-950 518.5,-950 518.5,-916 475.5,-916"/>
<text text-anchor="start" x="483" y="-936.8" font-family="Times,serif" font-size="14.00"> ⋅ &#160;/ </text>
<text text-anchor="start" x="490.5" y="-921.8" font-family="Times,serif" font-size="14.00">⇆</text>
<polygon fill="none" stroke="black" points="518.5,-916 518.5,-950 539.5,-950 539.5,-916 518.5,-916"/>
<text text-anchor="start" x="523" y="-929.3" font-family="Times,serif" font-size="14.00"> *</text>
<polygon fill="none" stroke="black" points="539.5,-916 539.5,-950 556.5,-950 556.5,-916 539.5,-916"/>
<text text-anchor="start" x="543" y="-929.3" font-family="Times,serif" font-size="14.00">0</text>
<polygon fill="none" stroke="black" points="556.5,-916 556.5,-950 571.5,-950 571.5,-916 556.5,-916"/>
<text text-anchor="start" x="559" y="-929.3" font-family="Times,serif" font-size="14.00">1</text>
<polygon fill="none" stroke="black" points="571.5,-916 571.5,-950 587.5,-950 587.5,-916 571.5,-916"/>
<text text-anchor="start" x="574.5" y="-929.3" font-family="Times,serif" font-size="14.00">u</text>
<g id="a_node6_8"><a xlink:href="https://github.com/mihxil/math/blob/main/mihxil-algebra/src/main/java/org/meeuw/math/abstractalgebra/integers/ModuloField.java" xlink:title="ModuloField">
<polygon fill="none" stroke="black" points="414.5,-897 414.5,-916 587.5,-916 587.5,-897 414.5,-897"/>
<text text-anchor="start" x="483.5" y="-902.8" font-family="Times,serif" font-size="14.00" fill="#0000a0">ℤ/nℤ</text>
</a>
</g>
<g id="a_node6_9"><a xlink:href="https://github.com/mihxil/math/blob/main/mihxil-algebra/src/main/java/org/meeuw/math/abstractalgebra/complex/GaussianRationals.java" xlink:title="GaussianRationals">
<polygon fill="none" stroke="black" points="414.5,-878 414.5,-897 587.5,-897 587.5,-878 414.5,-878"/>
<text text-anchor="start" x="416.5" y="-883.8" font-family="Times,serif" font-size="14.00" fill="#0000a0">GaussianRationals ᵁ0(i)</text>
</a>
</g>
<g id="a_node6_10"><a xlink:href="https://github.com/mihxil/math/blob/main/mihxil-algebra/src/main/java/org/meeuw/math/abstractalgebra/integers/ModuloField.java" xlink:title="ModuloField">
<polygon fill="none" stroke="black" points="414.5,-859 414.5,-878 587.5,-878 587.5,-859 414.5,-859"/>
<text text-anchor="start" x="483.5" y="-864.8" font-family="Times,serif" font-size="14.00" fill="#0000a0">ℤ/3ℤ</text>
</a>
</g>
</g>
<!-- Field&#45;&gt;Group -->
<g id="edge5" class="edge">
<title>Field&#45;&gt;Group</title>
<path fill="none" stroke="black" d="M587.29,-862.5C648.08,-819.94 718.5,-752.87 718.5,-670.5 718.5,-670.5 718.5,-670.5 718.5,-424 718.5,-374.88 695.31,-323.32 675.08,-287.67"/>
<polygon fill="none" stroke="black" points="678.06,-285.85 670.01,-278.96 672.01,-289.37 678.06,-285.85"/>
</g>
<!-- DivisionRing -->
<g id="node7" class="node">
<title>DivisionRing</title>
<g id="a_node7_11"><a xlink:href="https://github.com/mihxil/math/blob/main/mihxil-math/src/main/java/org/meeuw/math/abstractalgebra/DivisionRing.java" xlink:title="DivisionRing">
<polygon fill="none" stroke="black" points="356.5,-804 356.5,-823 471.5,-823 471.5,-804 356.5,-804"/>
<text text-anchor="start" x="368.5" y="-809.8" font-family="Times,serif" font-size="14.00" fill="#0000a0">DivisionRing</text>
</a>
</g>
<polygon fill="none" stroke="black" points="356.5,-770 356.5,-804 395.5,-804 395.5,-770 356.5,-770"/>
<text text-anchor="start" x="358.5" y="-790.8" font-family="Times,serif" font-size="14.00"> + &#160;&#45; </text>
<text text-anchor="start" x="369.5" y="-775.8" font-family="Times,serif" font-size="14.00">⇆</text>
<polygon fill="none" stroke="black" points="395.5,-770 395.5,-804 427.5,-804 427.5,-770 395.5,-770"/>
<text text-anchor="start" x="397.5" y="-783.3" font-family="Times,serif" font-size="14.00"> ⋅ &#160;/ </text>
<polygon fill="none" stroke="black" points="427.5,-770 427.5,-804 443.5,-804 443.5,-770 427.5,-770"/>
<text text-anchor="start" x="429.5" y="-783.3" font-family="Times,serif" font-size="14.00"> *</text>
<polygon fill="none" stroke="black" points="443.5,-770 443.5,-804 457.5,-804 457.5,-770 443.5,-770"/>
<text text-anchor="start" x="445.5" y="-783.3" font-family="Times,serif" font-size="14.00">0</text>
<polygon fill="none" stroke="black" points="457.5,-770 457.5,-804 471.5,-804 471.5,-770 457.5,-770"/>
<text text-anchor="start" x="459.5" y="-783.3" font-family="Times,serif" font-size="14.00">1</text>
<g id="a_node7_12"><a xlink:href="https://github.com/mihxil/math/blob/main/mihxil-algebra/src/main/java/org/meeuw/math/abstractalgebra/quaternions/Quaternions.java" xlink:title="Quaternions">
<polygon fill="none" stroke="black" points="356.5,-751 356.5,-770 471.5,-770 471.5,-751 356.5,-751"/>
<text text-anchor="start" x="395.5" y="-756.8" font-family="Times,serif" font-size="14.00" fill="#0000a0">ℍ(ℚ)</text>
</a>
</g>
</g>
<!-- Field&#45;&gt;DivisionRing -->
<g id="edge6" class="edge">
<title>Field&#45;&gt;DivisionRing</title>
<path fill="none" stroke="black" d="M462.85,-858.9C456.44,-849.7 449.87,-840.25 443.69,-831.37"/>
<polygon fill="none" stroke="black" points="446.49,-829.27 437.9,-823.06 440.74,-833.27 446.49,-829.27"/>
</g>
<!-- DivisibleGroup -->
<g id="node8" class="node">
<title>DivisibleGroup</title>
<g id="a_node8_13"><a xlink:href="https://github.com/mihxil/math/blob/main/mihxil-math/src/main/java/org/meeuw/math/abstractalgebra/DivisibleGroup.java" xlink:title="DivisibleGroup">
<polygon fill="none" stroke="black" points="489.5,-794 489.5,-813 600.5,-813 600.5,-794 489.5,-794"/>
<text text-anchor="start" x="491.5" y="-799.8" font-family="Times,serif" font-size="14.00" fill="#0000a0">DivisibleGroup</text>
</a>
</g>
<polygon fill="none" stroke="black" points="489.5,-760 489.5,-794 545.5,-794 545.5,-760 489.5,-760"/>
<text text-anchor="start" x="503.5" y="-780.8" font-family="Times,serif" font-size="14.00"> ⋅ &#160;/ </text>
<text text-anchor="start" x="511" y="-765.8" font-family="Times,serif" font-size="14.00">⇆</text>
<polygon fill="none" stroke="black" points="545.5,-760 545.5,-794 573.5,-794 573.5,-760 545.5,-760"/>
<text text-anchor="start" x="553.5" y="-773.3" font-family="Times,serif" font-size="14.00"> *</text>
<polygon fill="none" stroke="black" points="573.5,-760 573.5,-794 600.5,-794 600.5,-760 573.5,-760"/>
<text text-anchor="start" x="582" y="-773.3" font-family="Times,serif" font-size="14.00">1</text>
</g>
<!-- Field&#45;&gt;DivisibleGroup -->
<g id="edge7" class="edge">
<title>Field&#45;&gt;DivisibleGroup</title>
<path fill="none" stroke="black" d="M519.54,-858.9C523.78,-846.88 528.16,-834.43 532.04,-823.39"/>
<polygon fill="none" stroke="black" points="535.44,-824.29 535.46,-813.69 528.84,-821.96 535.44,-824.29"/>
</g>
<!-- AbelianRing -->
<g id="node9" class="node">
<title>AbelianRing</title>
<g id="a_node9_14"><a xlink:href="https://github.com/mihxil/math/blob/main/mihxil-math/src/main/java/org/meeuw/math/abstractalgebra/AbelianRing.java" xlink:title="AbelianRing">
<polygon fill="none" stroke="black" points="237.5,-794 237.5,-813 338.5,-813 338.5,-794 237.5,-794"/>
<text text-anchor="start" x="244.5" y="-799.8" font-family="Times,serif" font-size="14.00" fill="#0000a0">AbelianRing</text>
</a>
</g>
<polygon fill="none" stroke="black" points="237.5,-760 237.5,-794 276.5,-794 276.5,-760 237.5,-760"/>
<text text-anchor="start" x="239.5" y="-780.8" font-family="Times,serif" font-size="14.00"> + &#160;&#45; </text>
<text text-anchor="start" x="250.5" y="-765.8" font-family="Times,serif" font-size="14.00">⇆</text>
<polygon fill="none" stroke="black" points="276.5,-760 276.5,-794 294.5,-794 294.5,-760 276.5,-760"/>
<text text-anchor="start" x="278.5" y="-780.8" font-family="Times,serif" font-size="14.00"> ⋅ </text>
<text text-anchor="start" x="279" y="-765.8" font-family="Times,serif" font-size="14.00">⇆</text>
<polygon fill="none" stroke="black" points="294.5,-760 294.5,-794 310.5,-794 310.5,-760 294.5,-760"/>
<text text-anchor="start" x="296.5" y="-773.3" font-family="Times,serif" font-size="14.00"> *</text>
<polygon fill="none" stroke="black" points="310.5,-760 310.5,-794 324.5,-794 324.5,-760 310.5,-760"/>
<text text-anchor="start" x="312.5" y="-773.3" font-family="Times,serif" font-size="14.00">0</text>
<polygon fill="none" stroke="black" points="324.5,-760 324.5,-794 338.5,-794 338.5,-760 324.5,-760"/>
<text text-anchor="start" x="326.5" y="-773.3" font-family="Times,serif" font-size="14.00">1</text>
</g>
<!-- Field&#45;&gt;AbelianRing -->
<g id="edge8" class="edge">
<title>Field&#45;&gt;AbelianRing</title>
<path fill="none" stroke="black" d="M413.7,-862.41C391.76,-849.58 368.25,-835.81 346.5,-823 344.25,-821.68 341.96,-820.33 339.65,-818.96"/>
<polygon fill="none" stroke="black" points="341.05,-815.72 330.66,-813.65 337.49,-821.75 341.05,-815.72"/>
</g>
<!-- MultiplicativeGroup -->
<g id="node18" class="node">
<title>MultiplicativeGroup</title>
<g id="a_node18_15"><a xlink:href="https://github.com/mihxil/math/blob/main/mihxil-math/src/main/java/org/meeuw/math/abstractalgebra/MultiplicativeGroup.java" xlink:title="MultiplicativeGroup">
<polygon fill="none" stroke="black" points="339.5,-561.5 339.5,-580.5 487.5,-580.5 487.5,-561.5 339.5,-561.5"/>
<text text-anchor="start" x="341.5" y="-567.3" font-family="Times,serif" font-size="14.00" fill="#0000a0">MultiplicativeGroup</text>
</a>
</g>
<polygon fill="none" stroke="black" points="339.5,-542.5 339.5,-561.5 414.5,-561.5 414.5,-542.5 339.5,-542.5"/>
<text text-anchor="start" x="363" y="-548.3" font-family="Times,serif" font-size="14.00"> ⋅ &#160;/ </text>
<polygon fill="none" stroke="black" points="414.5,-542.5 414.5,-561.5 451.5,-561.5 451.5,-542.5 414.5,-542.5"/>
<text text-anchor="start" x="427" y="-548.3" font-family="Times,serif" font-size="14.00"> *</text>
<polygon fill="none" stroke="black" points="451.5,-542.5 451.5,-561.5 487.5,-561.5 487.5,-542.5 451.5,-542.5"/>
<text text-anchor="start" x="464.5" y="-548.3" font-family="Times,serif" font-size="14.00">1</text>
<g id="a_node18_16"><a xlink:href="https://github.com/mihxil/math/blob/main/mihxil-algebra/src/main/java/org/meeuw/math/abstractalgebra/permutations/PermutationGroup.java" xlink:title="PermutationGroup">
<polygon fill="none" stroke="black" points="339.5,-523.5 339.5,-542.5 487.5,-542.5 487.5,-523.5 339.5,-523.5"/>
<text text-anchor="start" x="347" y="-529.3" font-family="Times,serif" font-size="14.00" fill="#0000a0">PermutationGroup</text>
</a>
</g>
<g id="a_node18_17"><a xlink:href="https://github.com/mihxil/math/blob/main/mihxil-algebra/src/main/java/org/meeuw/math/abstractalgebra/linear/GeneralLinearGroup.java" xlink:title="GeneralLinearGroup">
<polygon fill="none" stroke="black" points="339.5,-504.5 339.5,-523.5 487.5,-523.5 487.5,-504.5 339.5,-504.5"/>
<text text-anchor="start" x="389" y="-510.3" font-family="Times,serif" font-size="14.00" fill="#0000a0">GL₂(ℚ)</text>
</a>
</g>
</g>
<!-- DivisionRing&#45;&gt;MultiplicativeGroup -->
<g id="edge24" class="edge">
<title>DivisionRing&#45;&gt;MultiplicativeGroup</title>
<path fill="none" stroke="black" d="M413.5,-751C413.5,-708.93 413.5,-638.14 413.5,-591.12"/>
<polygon fill="none" stroke="black" points="417,-590.88 413.5,-580.88 410,-590.88 417,-590.88"/>
</g>
<!-- Ring -->
<g id="node19" class="node">
<title>Ring</title>
<g id="a_node19_18"><a xlink:href="https://github.com/mihxil/math/blob/main/mihxil-math/src/main/java/org/meeuw/math/abstractalgebra/Ring.java" xlink:title="Ring">
<polygon fill="none" stroke="black" points="224.5,-695.5 224.5,-714.5 351.5,-714.5 351.5,-695.5 224.5,-695.5"/>
<text text-anchor="start" x="271" y="-701.3" font-family="Times,serif" font-size="14.00" fill="#0000a0">Ring</text>
</a>
</g>
<polygon fill="none" stroke="black" points="224.5,-661.5 224.5,-695.5 276.5,-695.5 276.5,-661.5 224.5,-661.5"/>
<text text-anchor="start" x="233" y="-682.3" font-family="Times,serif" font-size="14.00"> + &#160;&#45; </text>
<text text-anchor="start" x="244" y="-667.3" font-family="Times,serif" font-size="14.00">⇆</text>
<polygon fill="none" stroke="black" points="276.5,-661.5 276.5,-695.5 300.5,-695.5 300.5,-661.5 276.5,-661.5"/>
<text text-anchor="start" x="281.5" y="-674.8" font-family="Times,serif" font-size="14.00"> ⋅ </text>
<polygon fill="none" stroke="black" points="300.5,-661.5 300.5,-695.5 319.5,-695.5 319.5,-661.5 300.5,-661.5"/>
<text text-anchor="start" x="304" y="-674.8" font-family="Times,serif" font-size="14.00"> *</text>
<polygon fill="none" stroke="black" points="319.5,-661.5 319.5,-695.5 335.5,-695.5 335.5,-661.5 319.5,-661.5"/>
<text text-anchor="start" x="322.5" y="-674.8" font-family="Times,serif" font-size="14.00">0</text>
<polygon fill="none" stroke="black" points="335.5,-661.5 335.5,-695.5 351.5,-695.5 351.5,-661.5 335.5,-661.5"/>
<text text-anchor="start" x="338.5" y="-674.8" font-family="Times,serif" font-size="14.00">1</text>
<g id="a_node19_19"><a xlink:href="https://github.com/mihxil/math/blob/main/mihxil-algebra/src/main/java/org/meeuw/math/abstractalgebra/integers/ModuloStructure.java" xlink:title="ModuloStructure">
<polygon fill="none" stroke="black" points="224.5,-642.5 224.5,-661.5 351.5,-661.5 351.5,-642.5 224.5,-642.5"/>
<text text-anchor="start" x="226.5" y="-648.3" font-family="Times,serif" font-size="14.00" fill="#0000a0">ModuloStructure</text>
</a>
</g>
<g id="a_node19_20"><a xlink:href="https://github.com/mihxil/math/blob/main/mihxil-algebra/src/main/java/org/meeuw/math/abstractalgebra/integers/Integers.java" xlink:title="Integers">
<polygon fill="none" stroke="black" points="224.5,-623.5 224.5,-642.5 351.5,-642.5 351.5,-623.5 224.5,-623.5"/>
<text text-anchor="start" x="282.5" y="-629.3" font-family="Times,serif" font-size="14.00" fill="#0000a0">ℤ</text>
</a>
</g>
</g>
<!-- DivisionRing&#45;&gt;Ring -->
<g id="edge25" class="edge">
<title>DivisionRing&#45;&gt;Ring</title>
<path fill="none" stroke="black" d="M375.01,-750.72C365.23,-741.75 354.51,-731.93 344.03,-722.32"/>
<polygon fill="none" stroke="black" points="346.2,-719.56 336.46,-715.38 341.47,-724.72 346.2,-719.56"/>
</g>
<!-- MultiplicativeAbelianGroup -->
<g id="node20" class="node">
<title>MultiplicativeAbelianGroup</title>
<g id="a_node20_21"><a xlink:href="https://github.com/mihxil/math/blob/main/mihxil-math/src/main/java/org/meeuw/math/abstractalgebra/MultiplicativeAbelianGroup.java" xlink:title="MultiplicativeAbelianGroup">
<polygon fill="none" stroke="black" points="444.5,-676.5 444.5,-695.5 645.5,-695.5 645.5,-676.5 444.5,-676.5"/>
<text text-anchor="start" x="446.5" y="-682.3" font-family="Times,serif" font-size="14.00" fill="#0000a0">MultiplicativeAbelianGroup</text>
</a>
</g>
<polygon fill="none" stroke="black" points="444.5,-642.5 444.5,-676.5 545.5,-676.5 545.5,-642.5 444.5,-642.5"/>
<text text-anchor="start" x="481" y="-663.3" font-family="Times,serif" font-size="14.00"> ⋅ &#160;/ </text>
<text text-anchor="start" x="488.5" y="-648.3" font-family="Times,serif" font-size="14.00">⇆</text>
<polygon fill="none" stroke="black" points="545.5,-642.5 545.5,-676.5 596.5,-676.5 596.5,-642.5 545.5,-642.5"/>
<text text-anchor="start" x="565" y="-655.8" font-family="Times,serif" font-size="14.00"> *</text>
<polygon fill="none" stroke="black" points="596.5,-642.5 596.5,-676.5 645.5,-676.5 645.5,-642.5 596.5,-642.5"/>
<text text-anchor="start" x="616" y="-655.8" font-family="Times,serif" font-size="14.00">1</text>
</g>
<!-- DivisibleGroup&#45;&gt;MultiplicativeAbelianGroup -->
<g id="edge27" class="edge">
<title>DivisibleGroup&#45;&gt;MultiplicativeAbelianGroup</title>
<path fill="none" stroke="black" d="M544.5,-760.37C544.5,-744.52 544.5,-723.93 544.5,-706.46"/>
<polygon fill="none" stroke="black" points="548,-706.06 544.5,-696.06 541,-706.06 548,-706.06"/>
</g>
<!-- AbelianRing&#45;&gt;Ring -->
<g id="edge26" class="edge">
<title>AbelianRing&#45;&gt;Ring</title>
<path fill="none" stroke="black" d="M287.5,-760.37C287.5,-749.98 287.5,-737.57 287.5,-725.33"/>
<polygon fill="none" stroke="black" points="291,-725.13 287.5,-715.13 284,-725.13 291,-725.13"/>
</g>
<!-- AdditiveAbelianSemiGroup -->
<g id="node10" class="node">
<title>AdditiveAbelianSemiGroup</title>
<g id="a_node10_22"><a xlink:href="https://github.com/mihxil/math/blob/main/mihxil-math/src/main/java/org/meeuw/math/abstractalgebra/AdditiveAbelianSemiGroup.java" xlink:title="AdditiveAbelianSemiGroup">
<polygon fill="none" stroke="black" points="161.5,-258 161.5,-277 358.5,-277 358.5,-258 161.5,-258"/>
<text text-anchor="start" x="163.5" y="-263.8" font-family="Times,serif" font-size="14.00" fill="#0000a0">AdditiveAbelianSemiGroup</text>
</a>
</g>
<polygon fill="none" stroke="black" points="161.5,-224 161.5,-258 264.5,-258 264.5,-224 161.5,-224"/>
<text text-anchor="start" x="202" y="-244.8" font-family="Times,serif" font-size="14.00"> + </text>
<text text-anchor="start" x="206.5" y="-229.8" font-family="Times,serif" font-size="14.00">⇆</text>
<polygon fill="none" stroke="black" points="264.5,-224 264.5,-258 358.5,-258 358.5,-224 264.5,-224"/>
<text text-anchor="start" x="305.5" y="-237.3" font-family="Times,serif" font-size="14.00"> *</text>
<g id="a_node10_23"><a xlink:href="https://github.com/mihxil/math/blob/main/mihxil-algebra/src/main/java/org/meeuw/math/abstractalgebra/integers/NegativeIntegers.java" xlink:title="NegativeIntegers">
<polygon fill="none" stroke="black" points="161.5,-205 161.5,-224 358.5,-224 358.5,-205 161.5,-205"/>
<text text-anchor="start" x="185" y="-210.8" font-family="Times,serif" font-size="14.00" fill="#0000a0">NegativeIntegers ℕ⁻</text>
</a>
</g>
</g>
<!-- AdditiveAbelianSemiGroup&#45;&gt;AdditiveSemiGroup -->
<g id="edge9" class="edge">
<title>AdditiveAbelianSemiGroup&#45;&gt;AdditiveSemiGroup</title>
<path fill="none" stroke="black" d="M259.5,-204.82C259.5,-195.71 259.5,-186.03 259.5,-177.33"/>
<polygon fill="none" stroke="black" points="263,-177.31 259.5,-167.31 256,-177.31 263,-177.31"/>
</g>
<!-- AdditiveMonoid -->
<g id="node11" class="node">
<title>AdditiveMonoid</title>
<g id="a_node11_24"><a xlink:href="https://github.com/mihxil/math/blob/main/mihxil-math/src/main/java/org/meeuw/math/abstractalgebra/AdditiveMonoid.java" xlink:title="AdditiveMonoid">
<polygon fill="none" stroke="black" points="0.5,-260 0.5,-279 143.5,-279 143.5,-260 0.5,-260"/>
<text text-anchor="start" x="15.5" y="-265.8" font-family="Times,serif" font-size="14.00" fill="#0000a0">AdditiveMonoid</text>
</a>
</g>
<polygon fill="none" stroke="black" points="0.5,-241 0.5,-260 69.5,-260 69.5,-241 0.5,-241"/>
<text text-anchor="start" x="24" y="-246.8" font-family="Times,serif" font-size="14.00"> + </text>
<polygon fill="none" stroke="black" points="69.5,-241 69.5,-260 107.5,-260 107.5,-241 69.5,-241"/>
<text text-anchor="start" x="82.5" y="-246.8" font-family="Times,serif" font-size="14.00"> *</text>
<polygon fill="none" stroke="black" points="107.5,-241 107.5,-260 143.5,-260 143.5,-241 107.5,-241"/>
<text text-anchor="start" x="120.5" y="-246.8" font-family="Times,serif" font-size="14.00">0</text>
<g id="a_node11_25"><a xlink:href="https://github.com/mihxil/math/blob/main/mihxil-algebra/src/main/java/org/meeuw/math/abstractalgebra/strings/StringMonoid.java" xlink:title="StringMonoid">
<polygon fill="none" stroke="black" points="0.5,-222 0.5,-241 143.5,-241 143.5,-222 0.5,-222"/>
<text text-anchor="start" x="22.5" y="-227.8" font-family="Times,serif" font-size="14.00" fill="#0000a0">StringMonoid</text>
</a>
</g>
<g id="a_node11_26"><a xlink:href="https://github.com/mihxil/math/blob/main/mihxil-algebra/src/main/java/org/meeuw/math/abstractalgebra/integers/NaturalNumbers.java" xlink:title="NaturalNumbers">
<polygon fill="none" stroke="black" points="0.5,-203 0.5,-222 143.5,-222 143.5,-203 0.5,-203"/>
<text text-anchor="start" x="2.5" y="-208.8" font-family="Times,serif" font-size="14.00" fill="#0000a0">NaturalNumbers ℕ</text>
</a>
</g>
</g>
<!-- AdditiveMonoid&#45;&gt;AdditiveSemiGroup -->
<g id="edge10" class="edge">
<title>AdditiveMonoid&#45;&gt;AdditiveSemiGroup</title>
<path fill="none" stroke="black" d="M143.11,-205.34C166.61,-193.96 192.1,-181.63 213.21,-171.41"/>
<polygon fill="none" stroke="black" points="214.8,-174.53 222.28,-167.02 211.75,-168.22 214.8,-174.53"/>
</g>
<!-- MultiplicativeMonoid -->
<g id="node12" class="node">
<title>MultiplicativeMonoid</title>
<g id="a_node12_27"><a xlink:href="https://github.com/mihxil/math/blob/main/mihxil-math/src/main/java/org/meeuw/math/abstractalgebra/MultiplicativeMonoid.java" xlink:title="MultiplicativeMonoid">
<polygon fill="none" stroke="black" points="278.5,-434 278.5,-453 435.5,-453 435.5,-434 278.5,-434"/>
<text text-anchor="start" x="280.5" y="-439.8" font-family="Times,serif" font-size="14.00" fill="#0000a0">MultiplicativeMonoid</text>
</a>
</g>
<polygon fill="none" stroke="black" points="278.5,-415 278.5,-434 350.5,-434 350.5,-415 278.5,-415"/>
<text text-anchor="start" x="307.5" y="-420.8" font-family="Times,serif" font-size="14.00"> ⋅ </text>
<polygon fill="none" stroke="black" points="350.5,-415 350.5,-434 393.5,-434 393.5,-415 350.5,-415"/>
<text text-anchor="start" x="366" y="-420.8" font-family="Times,serif" font-size="14.00"> *</text>
<polygon fill="none" stroke="black" points="393.5,-415 393.5,-434 435.5,-434 435.5,-415 393.5,-415"/>
<text text-anchor="start" x="409.5" y="-420.8" font-family="Times,serif" font-size="14.00">1</text>
<g id="a_node12_28"><a xlink:href="https://github.com/mihxil/math/blob/main/mihxil-algebra/src/main/java/org/meeuw/math/abstractalgebra/integers/OddIntegers.java" xlink:title="OddIntegers">
<polygon fill="none" stroke="black" points="278.5,-396 278.5,-415 435.5,-415 435.5,-396 278.5,-396"/>
<text text-anchor="start" x="299.5" y="-401.8" font-family="Times,serif" font-size="14.00" fill="#0000a0">OddIntegers ℕo</text>
</a>
</g>
</g>
<!-- MultiplicativeMonoid&#45;&gt;MultiplicativeSemiGroup -->
<g id="edge11" class="edge">
<title>MultiplicativeMonoid&#45;&gt;MultiplicativeSemiGroup</title>
<path fill="none" stroke="black" d="M361.16,-396.33C362.94,-385.76 364.97,-373.72 366.76,-363.12"/>
<polygon fill="none" stroke="black" points="370.24,-363.54 368.45,-353.1 363.34,-362.38 370.24,-363.54"/>
</g>
<!-- Rng -->
<g id="node13" class="node">
<title>Rng</title>
<g id="a_node13_29"><a xlink:href="https://github.com/mihxil/math/blob/main/mihxil-math/src/main/java/org/meeuw/math/abstractalgebra/Rng.java" xlink:title="Rng">
<polygon fill="none" stroke="black" points="187.5,-568.5 187.5,-587.5 312.5,-587.5 312.5,-568.5 187.5,-568.5"/>
<text text-anchor="start" x="235.5" y="-574.3" font-family="Times,serif" font-size="14.00" fill="#0000a0">Rng</text>
</a>
</g>
<polygon fill="none" stroke="black" points="187.5,-534.5 187.5,-568.5 245.5,-568.5 245.5,-534.5 187.5,-534.5"/>
<text text-anchor="start" x="199" y="-555.3" font-family="Times,serif" font-size="14.00"> + &#160;&#45; </text>
<text text-anchor="start" x="210" y="-540.3" font-family="Times,serif" font-size="14.00">⇆</text>
<polygon fill="none" stroke="black" points="245.5,-534.5 245.5,-568.5 272.5,-568.5 272.5,-534.5 245.5,-534.5"/>
<text text-anchor="start" x="252" y="-547.8" font-family="Times,serif" font-size="14.00"> ⋅ </text>
<polygon fill="none" stroke="black" points="272.5,-534.5 272.5,-568.5 293.5,-568.5 293.5,-534.5 272.5,-534.5"/>
<text text-anchor="start" x="277" y="-547.8" font-family="Times,serif" font-size="14.00"> *</text>
<polygon fill="none" stroke="black" points="293.5,-534.5 293.5,-568.5 312.5,-568.5 312.5,-534.5 293.5,-534.5"/>
<text text-anchor="start" x="298" y="-547.8" font-family="Times,serif" font-size="14.00">0</text>
<g id="a_node13_30"><a xlink:href="https://github.com/mihxil/math/blob/main/mihxil-algebra/src/main/java/org/meeuw/math/abstractalgebra/integers/EvenIntegers.java" xlink:title="EvenIntegers">
<polygon fill="none" stroke="black" points="187.5,-515.5 187.5,-534.5 312.5,-534.5 312.5,-515.5 187.5,-515.5"/>
<text text-anchor="start" x="189.5" y="-521.3" font-family="Times,serif" font-size="14.00" fill="#0000a0">EvenIntegers 2ℤ</text>
</a>
</g>
<g id="a_node13_31"><a xlink:href="https://github.com/mihxil/math/blob/main/mihxil-algebra/src/main/java/org/meeuw/math/abstractalgebra/integers/NDivisibleIntegers.java" xlink:title="NDivisibleIntegers">
<polygon fill="none" stroke="black" points="187.5,-496.5 187.5,-515.5 312.5,-515.5 312.5,-496.5 187.5,-496.5"/>
<text text-anchor="start" x="240" y="-502.3" font-family="Times,serif" font-size="14.00" fill="#0000a0">3ℤ</text>
</a>
</g>
</g>
<!-- Rng&#45;&gt;MultiplicativeSemiGroup -->
<g id="edge12" class="edge">
<title>Rng&#45;&gt;MultiplicativeSemiGroup</title>
<path fill="none" stroke="black" d="M244.64,-496.92C243.39,-464.27 246.77,-420.36 268.5,-389 277.69,-375.74 291.18,-365.49 305.39,-357.67"/>
<polygon fill="none" stroke="black" points="306.99,-360.79 314.3,-353.12 303.8,-354.56 306.99,-360.79"/>
</g>
<!-- AdditiveAbelianGroup -->
<g id="node14" class="node">
<title>AdditiveAbelianGroup</title>
<g id="a_node14_32"><a xlink:href="https://github.com/mihxil/math/blob/main/mihxil-math/src/main/java/org/meeuw/math/abstractalgebra/AdditiveAbelianGroup.java" xlink:title="AdditiveAbelianGroup">
<polygon fill="none" stroke="black" points="60.5,-432 60.5,-451 221.5,-451 221.5,-432 60.5,-432"/>
<text text-anchor="start" x="62.5" y="-437.8" font-family="Times,serif" font-size="14.00" fill="#0000a0">AdditiveAbelianGroup</text>
</a>
</g>
<polygon fill="none" stroke="black" points="60.5,-398 60.5,-432 145.5,-432 145.5,-398 60.5,-398"/>
<text text-anchor="start" x="85.5" y="-418.8" font-family="Times,serif" font-size="14.00"> + &#160;&#45; </text>
<text text-anchor="start" x="96.5" y="-403.8" font-family="Times,serif" font-size="14.00">⇆</text>
<polygon fill="none" stroke="black" points="145.5,-398 145.5,-432 184.5,-432 184.5,-398 145.5,-398"/>
<text text-anchor="start" x="159" y="-411.3" font-family="Times,serif" font-size="14.00"> *</text>
<polygon fill="none" stroke="black" points="184.5,-398 184.5,-432 221.5,-432 221.5,-398 184.5,-398"/>
<text text-anchor="start" x="198" y="-411.3" font-family="Times,serif" font-size="14.00">0</text>
</g>
<!-- Rng&#45;&gt;AdditiveAbelianGroup -->
<g id="edge13" class="edge">
<title>Rng&#45;&gt;AdditiveAbelianGroup</title>
<path fill="none" stroke="black" d="M207.36,-496.84C195.47,-484.24 182.74,-470.76 171.62,-458.98"/>
<polygon fill="none" stroke="black" points="173.98,-456.38 164.57,-451.51 168.89,-461.18 173.98,-456.38"/>
</g>
<!-- AdditiveAbelianGroup&#45;&gt;AdditiveAbelianSemiGroup -->
<g id="edge16" class="edge">
<title>AdditiveAbelianGroup&#45;&gt;AdditiveAbelianSemiGroup</title>
<path fill="none" stroke="black" d="M157.3,-398.31C176.37,-369.13 207.83,-321.02 230.81,-285.87"/>
<polygon fill="none" stroke="black" points="233.92,-287.52 236.46,-277.24 228.06,-283.69 233.92,-287.52"/>
</g>
<!-- AdditiveGroup -->
<g id="node17" class="node">
<title>AdditiveGroup</title>
<g id="a_node17_33"><a xlink:href="https://github.com/mihxil/math/blob/main/mihxil-math/src/main/java/org/meeuw/math/abstractalgebra/AdditiveGroup.java" xlink:title="AdditiveGroup">
<polygon fill="none" stroke="black" points="40.5,-334 40.5,-353 148.5,-353 148.5,-334 40.5,-334"/>
<text text-anchor="start" x="42.5" y="-339.8" font-family="Times,serif" font-size="14.00" fill="#0000a0">AdditiveGroup</text>
</a>
</g>
<polygon fill="none" stroke="black" points="40.5,-315 40.5,-334 98.5,-334 98.5,-315 40.5,-315"/>
<text text-anchor="start" x="52" y="-320.8" font-family="Times,serif" font-size="14.00"> + &#160;&#45; </text>
<polygon fill="none" stroke="black" points="98.5,-315 98.5,-334 124.5,-334 124.5,-315 98.5,-315"/>
<text text-anchor="start" x="105.5" y="-320.8" font-family="Times,serif" font-size="14.00"> *</text>
<polygon fill="none" stroke="black" points="124.5,-315 124.5,-334 148.5,-334 148.5,-315 124.5,-315"/>
<text text-anchor="start" x="131.5" y="-320.8" font-family="Times,serif" font-size="14.00">0</text>
</g>
<!-- AdditiveAbelianGroup&#45;&gt;AdditiveGroup -->
<g id="edge17" class="edge">
<title>AdditiveAbelianGroup&#45;&gt;AdditiveGroup</title>
<path fill="none" stroke="black" d="M127.19,-398.26C121.35,-386.95 114.48,-373.66 108.55,-362.19"/>
<polygon fill="none" stroke="black" points="111.54,-360.34 103.84,-353.06 105.32,-363.55 111.54,-360.34"/>
</g>
<!-- MultiplicativeAbelianSemiGroup -->
<g id="node15" class="node">
<title>MultiplicativeAbelianSemiGroup</title>
<g id="a_node15_34"><a xlink:href="https://github.com/mihxil/math/blob/main/mihxil-math/src/main/java/org/meeuw/math/abstractalgebra/MultiplicativeAbelianSemiGroup.java" xlink:title="MultiplicativeAbelianSemiGroup">
<polygon fill="none" stroke="black" points="453.5,-442 453.5,-461 690.5,-461 690.5,-442 453.5,-442"/>
<text text-anchor="start" x="455.5" y="-447.8" font-family="Times,serif" font-size="14.00" fill="#0000a0">MultiplicativeAbelianSemiGroup</text>
</a>
</g>
<polygon fill="none" stroke="black" points="453.5,-408 453.5,-442 572.5,-442 572.5,-408 453.5,-408"/>
<text text-anchor="start" x="506" y="-428.8" font-family="Times,serif" font-size="14.00"> ⋅ </text>
<text text-anchor="start" x="506.5" y="-413.8" font-family="Times,serif" font-size="14.00">⇆</text>
<polygon fill="none" stroke="black" points="572.5,-408 572.5,-442 690.5,-442 690.5,-408 572.5,-408"/>
<text text-anchor="start" x="625.5" y="-421.3" font-family="Times,serif" font-size="14.00"> *</text>
<g id="a_node15_35"><a xlink:href="https://github.com/mihxil/math/blob/main/mihxil-algebra/src/main/java/org/meeuw/math/abstractalgebra/integers/OddIntegers.java" xlink:title="OddIntegers">
<polygon fill="none" stroke="black" points="453.5,-389 453.5,-408 690.5,-408 690.5,-389 453.5,-389"/>
<text text-anchor="start" x="514.5" y="-394.8" font-family="Times,serif" font-size="14.00" fill="#0000a0">OddIntegers ℕo</text>
</a>
</g>
</g>
<!-- MultiplicativeAbelianSemiGroup&#45;&gt;MultiplicativeSemiGroup -->
<g id="edge14" class="edge">
<title>MultiplicativeAbelianSemiGroup&#45;&gt;MultiplicativeSemiGroup</title>
<path fill="none" stroke="black" d="M492.74,-388.95C468.65,-378.23 442.84,-366.74 421.24,-357.14"/>
<polygon fill="none" stroke="black" points="422.51,-353.87 411.96,-353 419.67,-360.27 422.51,-353.87"/>
</g>
<!-- ScalarField -->
<g id="node16" class="node">
<title>ScalarField</title>
<g id="a_node16_36"><a xlink:href="https://github.com/mihxil/math/blob/main/mihxil-math/src/main/java/org/meeuw/math/abstractalgebra/ScalarField.java" xlink:title="ScalarField">
<polygon fill="none" stroke="black" points="427.5,-1058 427.5,-1077 573.5,-1077 573.5,-1058 427.5,-1058"/>
<text text-anchor="start" x="459.5" y="-1063.8" font-family="Times,serif" font-size="14.00" fill="#0000a0">ScalarField</text>
</a>
</g>
<polygon fill="none" stroke="black" points="427.5,-1024 427.5,-1058 474.5,-1058 474.5,-1024 427.5,-1024"/>
<text text-anchor="start" x="433.5" y="-1044.8" font-family="Times,serif" font-size="14.00"> + &#160;&#45; </text>
<text text-anchor="start" x="444.5" y="-1029.8" font-family="Times,serif" font-size="14.00">⇆</text>
<polygon fill="none" stroke="black" points="474.5,-1024 474.5,-1058 510.5,-1058 510.5,-1024 474.5,-1024"/>
<text text-anchor="start" x="478.5" y="-1044.8" font-family="Times,serif" font-size="14.00"> ⋅ &#160;/ </text>
<text text-anchor="start" x="486" y="-1029.8" font-family="Times,serif" font-size="14.00">⇆</text>
<polygon fill="none" stroke="black" points="510.5,-1024 510.5,-1058 528.5,-1058 528.5,-1024 510.5,-1024"/>
<text text-anchor="start" x="513.5" y="-1037.3" font-family="Times,serif" font-size="14.00"> *</text>
<polygon fill="none" stroke="black" points="528.5,-1024 528.5,-1058 543.5,-1058 543.5,-1024 528.5,-1024"/>
<text text-anchor="start" x="531" y="-1037.3" font-family="Times,serif" font-size="14.00">0</text>
<polygon fill="none" stroke="black" points="543.5,-1024 543.5,-1058 558.5,-1058 558.5,-1024 543.5,-1024"/>
<text text-anchor="start" x="546" y="-1037.3" font-family="Times,serif" font-size="14.00">1</text>
<polygon fill="none" stroke="black" points="558.5,-1024 558.5,-1058 573.5,-1058 573.5,-1024 558.5,-1024"/>
<text text-anchor="start" x="561" y="-1037.3" font-family="Times,serif" font-size="14.00">u</text>
<g id="a_node16_37"><a xlink:href="https://github.com/mihxil/math/blob/main/mihxil-algebra/src/main/java/org/meeuw/math/abstractalgebra/rationalnumbers/RationalNumbers.java" xlink:title="RationalNumbers">
<polygon fill="none" stroke="black" points="427.5,-1005 427.5,-1024 573.5,-1024 573.5,-1005 427.5,-1005"/>
<text text-anchor="start" x="429.5" y="-1010.8" font-family="Times,serif" font-size="14.00" fill="#0000a0">RationalNumbers ℚ</text>
</a>
</g>
</g>
<!-- ScalarField&#45;&gt;Field -->
<g id="edge15" class="edge">
<title>ScalarField&#45;&gt;Field</title>
<path fill="none" stroke="black" d="M500.5,-1004.85C500.5,-996.77 500.5,-987.93 500.5,-979.05"/>
<polygon fill="none" stroke="black" points="504,-979.04 500.5,-969.04 497,-979.04 504,-979.04"/>
</g>
<!-- AdditiveGroup&#45;&gt;AdditiveMonoid -->
<g id="edge18" class="edge">
<title>AdditiveGroup&#45;&gt;AdditiveMonoid</title>
<path fill="none" stroke="black" d="M89.85,-314.58C87.96,-307.11 85.68,-298.1 83.38,-289.01"/>
<polygon fill="none" stroke="black" points="86.74,-288.02 80.9,-279.19 79.96,-289.74 86.74,-288.02"/>
</g>
<!-- MultiplicativeGroup&#45;&gt;MultiplicativeMonoid -->
<g id="edge19" class="edge">
<title>MultiplicativeGroup&#45;&gt;MultiplicativeMonoid</title>
<path fill="none" stroke="black" d="M395.15,-504.32C388.6,-491.05 381.23,-476.12 374.7,-462.88"/>
<polygon fill="none" stroke="black" points="377.68,-461 370.11,-453.58 371.4,-464.1 377.68,-461"/>
</g>
<!-- Ring&#45;&gt;Rng -->
<g id="edge20" class="edge">
<title>Ring&#45;&gt;Rng</title>
<path fill="none" stroke="black" d="M273.89,-623.73C271.35,-615.38 268.67,-606.57 266.06,-597.97"/>
<polygon fill="none" stroke="black" points="269.4,-596.93 263.14,-588.38 262.7,-598.97 269.4,-596.93"/>
</g>
<!-- MultiplicativeAbelianGroup&#45;&gt;MultiplicativeAbelianSemiGroup -->
<g id="edge21" class="edge">
<title>MultiplicativeAbelianGroup&#45;&gt;MultiplicativeAbelianSemiGroup</title>
<path fill="none" stroke="black" d="M547.39,-642.55C551.95,-601.63 560.86,-521.58 566.48,-471.1"/>
<polygon fill="none" stroke="black" points="569.96,-471.44 567.59,-461.12 563.01,-470.67 569.96,-471.44"/>
</g>
<!-- MultiplicativeAbelianGroup&#45;&gt;MultiplicativeGroup -->
<g id="edge22" class="edge">
<title>MultiplicativeAbelianGroup&#45;&gt;MultiplicativeGroup</title>
<path fill="none" stroke="black" d="M517.67,-642.9C501.01,-627.01 479.15,-606.15 459.76,-587.64"/>
<polygon fill="none" stroke="black" points="462.12,-585.05 452.47,-580.68 457.28,-590.12 462.12,-585.05"/>
</g>
<!-- CompleteField -->
<g id="node21" class="node">
<title>CompleteField</title>
<g id="a_node21_38"><a xlink:href="https://github.com/mihxil/math/blob/main/mihxil-math/src/main/java/org/meeuw/math/abstractalgebra/CompleteField.java" xlink:title="CompleteField">
<polygon fill="none" stroke="black" points="431.5,-1184.5 431.5,-1203.5 570.5,-1203.5 570.5,-1184.5 431.5,-1184.5"/>
<text text-anchor="start" x="448.5" y="-1190.3" font-family="Times,serif" font-size="14.00" fill="#0000a0">CompleteField</text>
</a>
</g>
<polygon fill="none" stroke="black" points="431.5,-1150.5 431.5,-1184.5 475.5,-1184.5 475.5,-1150.5 431.5,-1150.5"/>
<text text-anchor="start" x="436" y="-1171.3" font-family="Times,serif" font-size="14.00"> + &#160;&#45; </text>
<text text-anchor="start" x="447" y="-1156.3" font-family="Times,serif" font-size="14.00">⇆</text>
<polygon fill="none" stroke="black" points="475.5,-1150.5 475.5,-1184.5 509.5,-1184.5 509.5,-1150.5 475.5,-1150.5"/>
<text text-anchor="start" x="478.5" y="-1171.3" font-family="Times,serif" font-size="14.00"> ⋅ &#160;/ </text>
<text text-anchor="start" x="486" y="-1156.3" font-family="Times,serif" font-size="14.00">⇆</text>
<polygon fill="none" stroke="black" points="509.5,-1150.5 509.5,-1184.5 526.5,-1184.5 526.5,-1150.5 509.5,-1150.5"/>
<text text-anchor="start" x="512" y="-1163.8" font-family="Times,serif" font-size="14.00"> *</text>
<polygon fill="none" stroke="black" points="526.5,-1150.5 526.5,-1184.5 541.5,-1184.5 541.5,-1150.5 526.5,-1150.5"/>
<text text-anchor="start" x="529" y="-1163.8" font-family="Times,serif" font-size="14.00">0</text>
<polygon fill="none" stroke="black" points="541.5,-1150.5 541.5,-1184.5 555.5,-1184.5 555.5,-1150.5 541.5,-1150.5"/>
<text text-anchor="start" x="543.5" y="-1163.8" font-family="Times,serif" font-size="14.00">1</text>
<polygon fill="none" stroke="black" points="555.5,-1150.5 555.5,-1184.5 570.5,-1184.5 570.5,-1150.5 555.5,-1150.5"/>
<text text-anchor="start" x="558" y="-1163.8" font-family="Times,serif" font-size="14.00">u</text>
<g id="a_node21_39"><a xlink:href="https://github.com/mihxil/math/blob/main/mihxil-algebra/src/main/java/org/meeuw/math/abstractalgebra/reals/BigDecimalField.java" xlink:title="BigDecimalField">
<polygon fill="none" stroke="black" points="431.5,-1131.5 431.5,-1150.5 570.5,-1150.5 570.5,-1131.5 431.5,-1131.5"/>
<text text-anchor="start" x="433.5" y="-1137.3" font-family="Times,serif" font-size="14.00" fill="#0000a0">BigDecimalField ℝ</text>
</a>
</g>
<g id="a_node21_40"><a xlink:href="https://github.com/mihxil/math/blob/main/mihxil-algebra/src/main/java/org/meeuw/math/abstractalgebra/reals/RealField.java" xlink:title="RealField">
<polygon fill="none" stroke="black" points="431.5,-1112.5 431.5,-1131.5 570.5,-1131.5 570.5,-1112.5 431.5,-1112.5"/>
<text text-anchor="start" x="456" y="-1118.3" font-family="Times,serif" font-size="14.00" fill="#0000a0">RealField ℝₚ</text>
</a>
</g>
</g>
<!-- CompleteField&#45;&gt;ScalarField -->
<g id="edge23" class="edge">
<title>CompleteField&#45;&gt;ScalarField</title>
<path fill="none" stroke="black" d="M500.5,-1112.84C500.5,-1104.45 500.5,-1095.67 500.5,-1087.25"/>
<polygon fill="none" stroke="black" points="504,-1087.23 500.5,-1077.23 497,-1087.23 504,-1087.23"/>
</g>
<!-- VectorSpace -->
<g id="node22" class="node">
<title>VectorSpace</title>
<g id="a_node22_41"><a xlink:href="https://github.com/mihxil/math/blob/main/mihxil-math/src/main/java/org/meeuw/math/abstractalgebra/VectorSpace.java" xlink:title="VectorSpace">
<polygon fill="none" stroke="black" points="223.5,-940 223.5,-959 352.5,-959 352.5,-940 223.5,-940"/>
<text text-anchor="start" x="243.5" y="-945.8" font-family="Times,serif" font-size="14.00" fill="#0000a0">VectorSpace</text>
</a>
</g>
<polygon fill="none" stroke="black" points="223.5,-906 223.5,-940 276.5,-940 276.5,-906 223.5,-906"/>
<text text-anchor="start" x="232.5" y="-926.8" font-family="Times,serif" font-size="14.00"> + &#160;&#45; </text>
<text text-anchor="start" x="243.5" y="-911.8" font-family="Times,serif" font-size="14.00">⇆</text>
<polygon fill="none" stroke="black" points="276.5,-906 276.5,-940 301.5,-940 301.5,-906 276.5,-906"/>
<text text-anchor="start" x="282" y="-926.8" font-family="Times,serif" font-size="14.00"> ⋅ </text>
<text text-anchor="start" x="282.5" y="-911.8" font-family="Times,serif" font-size="14.00">⇆</text>
<polygon fill="none" stroke="black" points="301.5,-906 301.5,-940 320.5,-940 320.5,-906 301.5,-906"/>
<text text-anchor="start" x="305" y="-919.3" font-family="Times,serif" font-size="14.00"> *</text>
<polygon fill="none" stroke="black" points="320.5,-906 320.5,-940 336.5,-940 336.5,-906 320.5,-906"/>
<text text-anchor="start" x="323.5" y="-919.3" font-family="Times,serif" font-size="14.00">0</text>
<polygon fill="none" stroke="black" points="336.5,-906 336.5,-940 352.5,-940 352.5,-906 336.5,-906"/>
<text text-anchor="start" x="339.5" y="-919.3" font-family="Times,serif" font-size="14.00">1</text>
<g id="a_node22_42"><a xlink:href="https://github.com/mihxil/math/blob/main/mihxil-algebra/src/main/java/org/meeuw/math/abstractalgebra/dim3/Vector3Space.java" xlink:title="Vector3Space">
<polygon fill="none" stroke="black" points="223.5,-887 223.5,-906 352.5,-906 352.5,-887 223.5,-887"/>
<text text-anchor="start" x="225.5" y="-892.8" font-family="Times,serif" font-size="14.00" fill="#0000a0">Vector3Space ℝₚ³</text>
</a>
</g>
<g id="a_node22_43"><a xlink:href="https://github.com/mihxil/math/blob/main/mihxil-algebra/src/main/java/org/meeuw/math/abstractalgebra/vectorspace/NVectorSpace.java" xlink:title="NVectorSpace">
<polygon fill="none" stroke="black" points="223.5,-868 223.5,-887 352.5,-887 352.5,-868 223.5,-868"/>
<text text-anchor="start" x="279" y="-873.8" font-family="Times,serif" font-size="14.00" fill="#0000a0">ℚ³</text>
</a>
</g>
</g>
<!-- VectorSpace&#45;&gt;AbelianRing -->
<g id="edge28" class="edge">
<title>VectorSpace&#45;&gt;AbelianRing</title>
<path fill="none" stroke="black" d="M287.5,-868.23C287.5,-853.6 287.5,-837.56 287.5,-823.7"/>
<polygon fill="none" stroke="black" points="291,-823.57 287.5,-813.57 284,-823.57 291,-823.57"/>
</g>
</g>
</svg>
