<?xml version="1.0" encoding="UTF-8" standalone="no"?>
<!DOCTYPE svg PUBLIC "-//W3C//DTD SVG 1.1//EN"
 "http://www.w3.org/Graphics/SVG/1.1/DTD/svg11.dtd">
<!-- Generated by graphviz version 2.49.3 (20211027.1534)
 -->
<!-- Pages: 1 -->
<svg width="770pt" height="1262pt"
 viewBox="0.00 0.00 770.00 1262.00" xmlns="http://www.w3.org/2000/svg" xmlns:xlink="http://www.w3.org/1999/xlink">
<g id="graph0" class="graph" transform="scale(1 1) rotate(0) translate(4 1258)">
<polygon fill="white" stroke="transparent" points="-4,4 -4,-1258 766,-1258 766,4 -4,4"/>
<!-- Group -->
<g id="node1" class="node">
<title>Group</title>
<g id="a_node1"><a xlink:href="https://github.com/mihxil/math/blob/main/mihxil-math/src/main/java/org/meeuw/math/abstractalgebra/Group.java" xlink:title="{\N|{ *}|V}">
<polygon fill="none" stroke="black" points="120,-73.5 120,-142.5 181,-142.5 181,-73.5 120,-73.5"/>
<text text-anchor="middle" x="150.5" y="-127.3" font-family="Times,serif" font-size="14.00">Group</text>
<polyline fill="none" stroke="black" points="120,-119.5 181,-119.5 "/>
<text text-anchor="middle" x="150.5" y="-104.3" font-family="Times,serif" font-size="14.00">*</text>
<polyline fill="none" stroke="black" points="120,-96.5 181,-96.5 "/>
<text text-anchor="middle" x="150.5" y="-81.3" font-family="Times,serif" font-size="14.00">V</text>
</a>
</g>
</g>
<!-- AlgebraicStructure -->
<g id="node2" class="node">
<title>AlgebraicStructure</title>
<polygon fill="none" stroke="black" points="201,-0.5 201,-36.5 354,-36.5 354,-0.5 201,-0.5"/>
<text text-anchor="middle" x="277.5" y="-14.8" font-family="Times,serif" font-size="14.00">AlgebraicStructure</text>
</g>
<!-- Group&#45;&gt;AlgebraicStructure -->
<g id="edge1" class="edge">
<title>Group&#45;&gt;AlgebraicStructure</title>
<path fill="none" stroke="black" d="M181.13,-80.16C184.24,-77.67 187.4,-75.25 190.5,-73 205.61,-62.03 223.02,-51.03 238.27,-41.88"/>
<polygon fill="none" stroke="black" points="240.15,-44.83 246.97,-36.72 236.58,-38.81 240.15,-44.83"/>
</g>
<!-- AdditiveSemiGroup -->
<g id="node3" class="node">
<title>AdditiveSemiGroup</title>
<g id="a_node3"><a xlink:href="https://github.com/mihxil/math/blob/main/mihxil-math/src/main/java/org/meeuw/math/abstractalgebra/AdditiveSemiGroup.java" xlink:title="{\N|{ + }}">
<polygon fill="none" stroke="black" points="199.5,-85 199.5,-131 355.5,-131 355.5,-85 199.5,-85"/>
<text text-anchor="middle" x="277.5" y="-115.8" font-family="Times,serif" font-size="14.00">AdditiveSemiGroup</text>
<polyline fill="none" stroke="black" points="199.5,-108 355.5,-108 "/>
<text text-anchor="middle" x="277.5" y="-92.8" font-family="Times,serif" font-size="14.00">+</text>
</a>
</g>
</g>
<!-- AdditiveSemiGroup&#45;&gt;AlgebraicStructure -->
<g id="edge2" class="edge">
<title>AdditiveSemiGroup&#45;&gt;AlgebraicStructure</title>
<path fill="none" stroke="black" d="M277.5,-84.92C277.5,-73.33 277.5,-59.02 277.5,-46.75"/>
<polygon fill="none" stroke="black" points="281,-46.6 277.5,-36.6 274,-46.6 281,-46.6"/>
</g>
<!-- MultiplicativeSemiGroup -->
<g id="node4" class="node">
<title>MultiplicativeSemiGroup</title>
<g id="a_node4"><a xlink:href="https://github.com/mihxil/math/blob/main/mihxil-math/src/main/java/org/meeuw/math/abstractalgebra/MultiplicativeSemiGroup.java" xlink:title="{\N|{ ⋅ }}">
<polygon fill="none" stroke="black" points="312.5,-300.5 312.5,-346.5 508.5,-346.5 508.5,-300.5 312.5,-300.5"/>
<text text-anchor="middle" x="410.5" y="-331.3" font-family="Times,serif" font-size="14.00">MultiplicativeSemiGroup</text>
<polyline fill="none" stroke="black" points="312.5,-323.5 508.5,-323.5 "/>
<text text-anchor="middle" x="410.5" y="-308.3" font-family="Times,serif" font-size="14.00">⋅</text>
</a>
</g>
</g>
<!-- MultiplicativeSemiGroup&#45;&gt;AlgebraicStructure -->
<g id="edge3" class="edge">
<title>MultiplicativeSemiGroup&#45;&gt;AlgebraicStructure</title>
<path fill="none" stroke="black" d="M412.47,-300.34C415.44,-253.52 416.06,-143.06 364.5,-73 355.02,-60.11 341.41,-49.66 327.76,-41.54"/>
<polygon fill="none" stroke="black" points="329.27,-38.37 318.83,-36.53 325.84,-44.47 329.27,-38.37"/>
</g>
<!-- AdditiveAbelianSemiGroup -->
<g id="node5" class="node">
<title>AdditiveAbelianSemiGroup</title>
<g id="a_node5"><a xlink:href="https://github.com/mihxil/math/blob/main/mihxil-math/src/main/java/org/meeuw/math/abstractalgebra/AdditiveAbelianSemiGroup.java" xlink:title="{\N|{ + \n⇆}|NegativeIntegers ℕ⁻}">
<polygon fill="none" stroke="black" points="173,-179.5 173,-263.5 382,-263.5 382,-179.5 173,-179.5"/>
<text text-anchor="middle" x="277.5" y="-248.3" font-family="Times,serif" font-size="14.00">AdditiveAbelianSemiGroup</text>
<polyline fill="none" stroke="black" points="173,-240.5 382,-240.5 "/>
<text text-anchor="middle" x="277.5" y="-225.3" font-family="Times,serif" font-size="14.00">+ </text>
<text text-anchor="middle" x="277.5" y="-210.3" font-family="Times,serif" font-size="14.00">⇆</text>
<polyline fill="none" stroke="black" points="173,-202.5 382,-202.5 "/>
<text text-anchor="middle" x="277.5" y="-187.3" font-family="Times,serif" font-size="14.00">NegativeIntegers ℕ⁻</text>
</a>
</g>
</g>
<!-- AdditiveAbelianSemiGroup&#45;&gt;AdditiveSemiGroup -->
<g id="edge4" class="edge">
<title>AdditiveAbelianSemiGroup&#45;&gt;AdditiveSemiGroup</title>
<path fill="none" stroke="black" d="M277.5,-179.3C277.5,-166.85 277.5,-153.37 277.5,-141.57"/>
<polygon fill="none" stroke="black" points="281,-141.29 277.5,-131.29 274,-141.29 281,-141.29"/>
</g>
<!-- AdditiveMonoid -->
<g id="node6" class="node">
<title>AdditiveMonoid</title>
<g id="a_node6"><a xlink:href="https://github.com/mihxil/math/blob/main/mihxil-math/src/main/java/org/meeuw/math/abstractalgebra/AdditiveMonoid.java" xlink:title="{\N|{ + &#160;| 0}|StringMonoid\nNaturalNumbers ℕ}">
<polygon fill="none" stroke="black" points="0,-179.5 0,-263.5 155,-263.5 155,-179.5 0,-179.5"/>
<text text-anchor="middle" x="77.5" y="-248.3" font-family="Times,serif" font-size="14.00">AdditiveMonoid</text>
<polyline fill="none" stroke="black" points="0,-240.5 155,-240.5 "/>
<text text-anchor="middle" x="39.5" y="-225.3" font-family="Times,serif" font-size="14.00">+</text>
<polyline fill="none" stroke="black" points="79,-217.5 79,-240.5 "/>
<text text-anchor="middle" x="117" y="-225.3" font-family="Times,serif" font-size="14.00">0</text>
<polyline fill="none" stroke="black" points="0,-217.5 155,-217.5 "/>
<text text-anchor="middle" x="77.5" y="-202.3" font-family="Times,serif" font-size="14.00">StringMonoid</text>
<text text-anchor="middle" x="77.5" y="-187.3" font-family="Times,serif" font-size="14.00">NaturalNumbers ℕ</text>
</a>
</g>
</g>
<!-- AdditiveMonoid&#45;&gt;AdditiveSemiGroup -->
<g id="edge5" class="edge">
<title>AdditiveMonoid&#45;&gt;AdditiveSemiGroup</title>
<path fill="none" stroke="black" d="M151.12,-179.46C177.08,-164.98 205.59,-149.09 228.95,-136.06"/>
<polygon fill="none" stroke="black" points="230.94,-138.97 237.97,-131.04 227.53,-132.85 230.94,-138.97"/>
</g>
<!-- MultiplicativeMonoid -->
<g id="node7" class="node">
<title>MultiplicativeMonoid</title>
<g id="a_node7"><a xlink:href="https://github.com/mihxil/math/blob/main/mihxil-math/src/main/java/org/meeuw/math/abstractalgebra/MultiplicativeMonoid.java" xlink:title="{\N|{ ⋅ &#160;| 1}|OddIntegers ℕo}">
<polygon fill="none" stroke="black" points="326,-391 326,-460 495,-460 495,-391 326,-391"/>
<text text-anchor="middle" x="410.5" y="-444.8" font-family="Times,serif" font-size="14.00">MultiplicativeMonoid</text>
<polyline fill="none" stroke="black" points="326,-437 495,-437 "/>
<text text-anchor="middle" x="367" y="-421.8" font-family="Times,serif" font-size="14.00">⋅</text>
<polyline fill="none" stroke="black" points="408,-414 408,-437 "/>
<text text-anchor="middle" x="451.5" y="-421.8" font-family="Times,serif" font-size="14.00">1</text>
<polyline fill="none" stroke="black" points="326,-414 495,-414 "/>
<text text-anchor="middle" x="410.5" y="-398.8" font-family="Times,serif" font-size="14.00">OddIntegers ℕo</text>
</a>
</g>
</g>
<!-- MultiplicativeMonoid&#45;&gt;MultiplicativeSemiGroup -->
<g id="edge6" class="edge">
<title>MultiplicativeMonoid&#45;&gt;MultiplicativeSemiGroup</title>
<path fill="none" stroke="black" d="M410.5,-390.92C410.5,-379.83 410.5,-367.52 410.5,-356.55"/>
<polygon fill="none" stroke="black" points="414,-356.51 410.5,-346.51 407,-356.51 414,-356.51"/>
</g>
<!-- Rng -->
<g id="node8" class="node">
<title>Rng</title>
<g id="a_node8"><a xlink:href="https://github.com/mihxil/math/blob/main/mihxil-math/src/main/java/org/meeuw/math/abstractalgebra/Rng.java" xlink:title="{\N|{ + &#160;&#45; \n⇆ | &#160;⋅ &#160;| 0}|EvenIntegers 2ℤ\nNDivisibleIntegers}">
<polygon fill="none" stroke="black" points="191,-504.5 191,-603.5 342,-603.5 342,-504.5 191,-504.5"/>
<text text-anchor="middle" x="266.5" y="-588.3" font-family="Times,serif" font-size="14.00">Rng</text>
<polyline fill="none" stroke="black" points="191,-580.5 342,-580.5 "/>
<text text-anchor="middle" x="222" y="-565.3" font-family="Times,serif" font-size="14.00">+ &#45; </text>
<text text-anchor="middle" x="222" y="-550.3" font-family="Times,serif" font-size="14.00">⇆</text>
<polyline fill="none" stroke="black" points="253,-542.5 253,-580.5 "/>
<text text-anchor="middle" x="274" y="-557.8" font-family="Times,serif" font-size="14.00">⋅</text>
<polyline fill="none" stroke="black" points="295,-542.5 295,-580.5 "/>
<text text-anchor="middle" x="318.5" y="-557.8" font-family="Times,serif" font-size="14.00">0</text>
<polyline fill="none" stroke="black" points="191,-542.5 342,-542.5 "/>
<text text-anchor="middle" x="266.5" y="-527.3" font-family="Times,serif" font-size="14.00">EvenIntegers 2ℤ</text>
<text text-anchor="middle" x="266.5" y="-512.3" font-family="Times,serif" font-size="14.00">NDivisibleIntegers</text>
</a>
</g>
</g>
<!-- Rng&#45;&gt;MultiplicativeSemiGroup -->
<g id="edge7" class="edge">
<title>Rng&#45;&gt;MultiplicativeSemiGroup</title>
<path fill="none" stroke="black" d="M277.1,-504.2C287.19,-461.07 302.95,-402.13 317.5,-383 326.88,-370.67 339.67,-360.28 352.76,-351.83"/>
<polygon fill="none" stroke="black" points="354.67,-354.77 361.37,-346.56 351.01,-348.8 354.67,-354.77"/>
</g>
<!-- AdditiveAbelianGroup -->
<g id="node9" class="node">
<title>AdditiveAbelianGroup</title>
<g id="a_node9"><a xlink:href="https://github.com/mihxil/math/blob/main/mihxil-math/src/main/java/org/meeuw/math/abstractalgebra/AdditiveAbelianGroup.java" xlink:title="{\N|{ + &#160;&#45; \n⇆ | 0}}">
<polygon fill="none" stroke="black" points="97,-395 97,-456 270,-456 270,-395 97,-395"/>
<text text-anchor="middle" x="183.5" y="-440.8" font-family="Times,serif" font-size="14.00">AdditiveAbelianGroup</text>
<polyline fill="none" stroke="black" points="97,-433 270,-433 "/>
<text text-anchor="middle" x="144" y="-417.8" font-family="Times,serif" font-size="14.00">+ &#45; </text>
<text text-anchor="middle" x="144" y="-402.8" font-family="Times,serif" font-size="14.00">⇆</text>
<polyline fill="none" stroke="black" points="191,-395 191,-433 "/>
<text text-anchor="middle" x="230.5" y="-410.3" font-family="Times,serif" font-size="14.00">0</text>
</a>
</g>
</g>
<!-- Rng&#45;&gt;AdditiveAbelianGroup -->
<g id="edge8" class="edge">
<title>Rng&#45;&gt;AdditiveAbelianGroup</title>
<path fill="none" stroke="black" d="M234.65,-504.45C225.96,-491.21 216.67,-477.05 208.42,-464.48"/>
<polygon fill="none" stroke="black" points="211.31,-462.51 202.9,-456.07 205.46,-466.35 211.31,-462.51"/>
</g>
<!-- AdditiveAbelianGroup&#45;&gt;AdditiveAbelianSemiGroup -->
<g id="edge10" class="edge">
<title>AdditiveAbelianGroup&#45;&gt;AdditiveAbelianSemiGroup</title>
<path fill="none" stroke="black" d="M197.37,-394.69C212.25,-362.72 236.14,-311.39 253.96,-273.08"/>
<polygon fill="none" stroke="black" points="257.31,-274.18 258.36,-263.64 250.96,-271.23 257.31,-274.18"/>
</g>
<!-- AdditiveGroup -->
<g id="node11" class="node">
<title>AdditiveGroup</title>
<g id="a_node11"><a xlink:href="https://github.com/mihxil/math/blob/main/mihxil-math/src/main/java/org/meeuw/math/abstractalgebra/AdditiveGroup.java" xlink:title="{\N|{ + &#160;&#45; &#160;| 0}}">
<polygon fill="none" stroke="black" points="49.5,-300.5 49.5,-346.5 169.5,-346.5 169.5,-300.5 49.5,-300.5"/>
<text text-anchor="middle" x="109.5" y="-331.3" font-family="Times,serif" font-size="14.00">AdditiveGroup</text>
<polyline fill="none" stroke="black" points="49.5,-323.5 169.5,-323.5 "/>
<text text-anchor="middle" x="82.5" y="-308.3" font-family="Times,serif" font-size="14.00">+ &#45;</text>
<polyline fill="none" stroke="black" points="115.5,-300.5 115.5,-323.5 "/>
<text text-anchor="middle" x="142.5" y="-308.3" font-family="Times,serif" font-size="14.00">0</text>
</a>
</g>
</g>
<!-- AdditiveAbelianGroup&#45;&gt;AdditiveGroup -->
<g id="edge11" class="edge">
<title>AdditiveAbelianGroup&#45;&gt;AdditiveGroup</title>
<path fill="none" stroke="black" d="M161.5,-394.77C152.22,-382.23 141.43,-367.65 132.09,-355.03"/>
<polygon fill="none" stroke="black" points="134.65,-352.61 125.89,-346.65 129.03,-356.77 134.65,-352.61"/>
</g>
<!-- MultiplicativeAbelianSemiGroup -->
<g id="node10" class="node">
<title>MultiplicativeAbelianSemiGroup</title>
<g id="a_node10"><a xlink:href="https://github.com/mihxil/math/blob/main/mihxil-math/src/main/java/org/meeuw/math/abstractalgebra/MultiplicativeAbelianSemiGroup.java" xlink:title="{\N|{ ⋅ \n⇆}|OddIntegers ℕo}">
<polygon fill="none" stroke="black" points="513,-383.5 513,-467.5 762,-467.5 762,-383.5 513,-383.5"/>
<text text-anchor="middle" x="637.5" y="-452.3" font-family="Times,serif" font-size="14.00">MultiplicativeAbelianSemiGroup</text>
<polyline fill="none" stroke="black" points="513,-444.5 762,-444.5 "/>
<text text-anchor="middle" x="637.5" y="-429.3" font-family="Times,serif" font-size="14.00">⋅</text>
<text text-anchor="middle" x="637.5" y="-414.3" font-family="Times,serif" font-size="14.00">⇆</text>
<polyline fill="none" stroke="black" points="513,-406.5 762,-406.5 "/>
<text text-anchor="middle" x="637.5" y="-391.3" font-family="Times,serif" font-size="14.00">OddIntegers ℕo</text>
</a>
</g>
</g>
<!-- MultiplicativeAbelianSemiGroup&#45;&gt;MultiplicativeSemiGroup -->
<g id="edge9" class="edge">
<title>MultiplicativeAbelianSemiGroup&#45;&gt;MultiplicativeSemiGroup</title>
<path fill="none" stroke="black" d="M544.19,-383.39C519.04,-372.31 492.52,-360.63 469.8,-350.62"/>
<polygon fill="none" stroke="black" points="471.19,-347.41 460.63,-346.58 468.37,-353.82 471.19,-347.41"/>
</g>
<!-- AdditiveGroup&#45;&gt;AdditiveMonoid -->
<g id="edge12" class="edge">
<title>AdditiveGroup&#45;&gt;AdditiveMonoid</title>
<path fill="none" stroke="black" d="M102.4,-300.31C99.8,-292.19 96.75,-282.65 93.68,-273.07"/>
<polygon fill="none" stroke="black" points="97.02,-272 90.63,-263.54 90.35,-274.13 97.02,-272"/>
</g>
<!-- MultiplicativeGroup -->
<g id="node12" class="node">
<title>MultiplicativeGroup</title>
<g id="a_node12"><a xlink:href="https://github.com/mihxil/math/blob/main/mihxil-math/src/main/java/org/meeuw/math/abstractalgebra/MultiplicativeGroup.java" xlink:title="{\N|{ ⋅ &#160;/ &#160;| 1}|PermutationGroup\nGL₂(ℚ)}">
<polygon fill="none" stroke="black" points="360.5,-512 360.5,-596 520.5,-596 520.5,-512 360.5,-512"/>
<text text-anchor="middle" x="440.5" y="-580.8" font-family="Times,serif" font-size="14.00">MultiplicativeGroup</text>
<polyline fill="none" stroke="black" points="360.5,-573 520.5,-573 "/>
<text text-anchor="middle" x="400.5" y="-557.8" font-family="Times,serif" font-size="14.00">⋅/</text>
<polyline fill="none" stroke="black" points="440.5,-550 440.5,-573 "/>
<text text-anchor="middle" x="480.5" y="-557.8" font-family="Times,serif" font-size="14.00">1</text>
<polyline fill="none" stroke="black" points="360.5,-550 520.5,-550 "/>
<text text-anchor="middle" x="440.5" y="-534.8" font-family="Times,serif" font-size="14.00">PermutationGroup</text>
<text text-anchor="middle" x="440.5" y="-519.8" font-family="Times,serif" font-size="14.00">GL₂(ℚ)</text>
</a>
</g>
</g>
<!-- MultiplicativeGroup&#45;&gt;MultiplicativeMonoid -->
<g id="edge13" class="edge">
<title>MultiplicativeGroup&#45;&gt;MultiplicativeMonoid</title>
<path fill="none" stroke="black" d="M430.76,-511.93C427.6,-498.59 424.08,-483.75 420.87,-470.22"/>
<polygon fill="none" stroke="black" points="424.2,-469.11 418.49,-460.19 417.39,-470.72 424.2,-469.11"/>
</g>
<!-- Ring -->
<g id="node13" class="node">
<title>Ring</title>
<g id="a_node13"><a xlink:href="https://github.com/mihxil/math/blob/main/mihxil-math/src/main/java/org/meeuw/math/abstractalgebra/Ring.java" xlink:title="{\N|{ + &#160;&#45; \n⇆ | &#160;⋅ &#160;| 0 | 1}|ModuloStructure\nℤ}">
<polygon fill="none" stroke="black" points="198,-640.5 198,-739.5 337,-739.5 337,-640.5 198,-640.5"/>
<text text-anchor="middle" x="267.5" y="-724.3" font-family="Times,serif" font-size="14.00">Ring</text>
<polyline fill="none" stroke="black" points="198,-716.5 337,-716.5 "/>
<text text-anchor="middle" x="222" y="-701.3" font-family="Times,serif" font-size="14.00">+ &#45; </text>
<text text-anchor="middle" x="222" y="-686.3" font-family="Times,serif" font-size="14.00">⇆</text>
<polyline fill="none" stroke="black" points="246,-678.5 246,-716.5 "/>
<text text-anchor="middle" x="259.5" y="-693.8" font-family="Times,serif" font-size="14.00">⋅</text>
<polyline fill="none" stroke="black" points="273,-678.5 273,-716.5 "/>
<text text-anchor="middle" x="289" y="-693.8" font-family="Times,serif" font-size="14.00">0</text>
<polyline fill="none" stroke="black" points="305,-678.5 305,-716.5 "/>
<text text-anchor="middle" x="321" y="-693.8" font-family="Times,serif" font-size="14.00">1</text>
<polyline fill="none" stroke="black" points="198,-678.5 337,-678.5 "/>
<text text-anchor="middle" x="267.5" y="-663.3" font-family="Times,serif" font-size="14.00">ModuloStructure</text>
<text text-anchor="middle" x="267.5" y="-648.3" font-family="Times,serif" font-size="14.00">ℤ</text>
</a>
</g>
</g>
<!-- Ring&#45;&gt;Rng -->
<g id="edge14" class="edge">
<title>Ring&#45;&gt;Rng</title>
<path fill="none" stroke="black" d="M267.14,-640.24C267.07,-631.75 267.01,-622.82 266.94,-614.08"/>
<polygon fill="none" stroke="black" points="270.44,-613.92 266.87,-603.94 263.44,-613.97 270.44,-613.92"/>
</g>
<!-- MultiplicativeAbelianGroup -->
<g id="node14" class="node">
<title>MultiplicativeAbelianGroup</title>
<g id="a_node14"><a xlink:href="https://github.com/mihxil/math/blob/main/mihxil-math/src/main/java/org/meeuw/math/abstractalgebra/MultiplicativeAbelianGroup.java" xlink:title="{\N|{ ⋅ &#160;/ \n⇆ | 1}}">
<polygon fill="none" stroke="black" points="451,-659.5 451,-720.5 664,-720.5 664,-659.5 451,-659.5"/>
<text text-anchor="middle" x="557.5" y="-705.3" font-family="Times,serif" font-size="14.00">MultiplicativeAbelianGroup</text>
<polyline fill="none" stroke="black" points="451,-697.5 664,-697.5 "/>
<text text-anchor="middle" x="505" y="-682.3" font-family="Times,serif" font-size="14.00">⋅/ </text>
<text text-anchor="middle" x="505" y="-667.3" font-family="Times,serif" font-size="14.00">⇆</text>
<polyline fill="none" stroke="black" points="559,-659.5 559,-697.5 "/>
<text text-anchor="middle" x="611.5" y="-674.8" font-family="Times,serif" font-size="14.00">1</text>
</a>
</g>
</g>
<!-- MultiplicativeAbelianGroup&#45;&gt;MultiplicativeAbelianSemiGroup -->
<g id="edge15" class="edge">
<title>MultiplicativeAbelianGroup&#45;&gt;MultiplicativeAbelianSemiGroup</title>
<path fill="none" stroke="black" d="M566.52,-659.4C579.99,-615.22 605.52,-531.45 622.01,-477.34"/>
<polygon fill="none" stroke="black" points="625.41,-478.19 624.97,-467.6 618.71,-476.14 625.41,-478.19"/>
</g>
<!-- MultiplicativeAbelianGroup&#45;&gt;MultiplicativeGroup -->
<g id="edge16" class="edge">
<title>MultiplicativeAbelianGroup&#45;&gt;MultiplicativeGroup</title>
<path fill="none" stroke="black" d="M531.53,-659.26C517.34,-643 499.39,-622.45 483.2,-603.9"/>
<polygon fill="none" stroke="black" points="485.59,-601.32 476.38,-596.09 480.32,-605.92 485.59,-601.32"/>
</g>
<!-- DivisionRing -->
<g id="node15" class="node">
<title>DivisionRing</title>
<g id="a_node15"><a xlink:href="https://github.com/mihxil/math/blob/main/mihxil-math/src/main/java/org/meeuw/math/abstractalgebra/DivisionRing.java" xlink:title="{\N|{ + &#160;&#45; \n⇆ | &#160;⋅ &#160;/ &#160;| 0 | 1}|ℍ(ℚ)}">
<polygon fill="none" stroke="black" points="357.5,-776.5 357.5,-860.5 477.5,-860.5 477.5,-776.5 357.5,-776.5"/>
<text text-anchor="middle" x="417.5" y="-845.3" font-family="Times,serif" font-size="14.00">DivisionRing</text>
<polyline fill="none" stroke="black" points="357.5,-837.5 477.5,-837.5 "/>
<text text-anchor="middle" x="378.5" y="-822.3" font-family="Times,serif" font-size="14.00">+ &#45; </text>
<text text-anchor="middle" x="378.5" y="-807.3" font-family="Times,serif" font-size="14.00">⇆</text>
<polyline fill="none" stroke="black" points="399.5,-799.5 399.5,-837.5 "/>
<text text-anchor="middle" x="412.5" y="-814.8" font-family="Times,serif" font-size="14.00">⋅/</text>
<polyline fill="none" stroke="black" points="425.5,-799.5 425.5,-837.5 "/>
<text text-anchor="middle" x="438.5" y="-814.8" font-family="Times,serif" font-size="14.00">0</text>
<polyline fill="none" stroke="black" points="451.5,-799.5 451.5,-837.5 "/>
<text text-anchor="middle" x="464.5" y="-814.8" font-family="Times,serif" font-size="14.00">1</text>
<polyline fill="none" stroke="black" points="357.5,-799.5 477.5,-799.5 "/>
<text text-anchor="middle" x="417.5" y="-784.3" font-family="Times,serif" font-size="14.00">ℍ(ℚ)</text>
</a>
</g>
</g>
<!-- DivisionRing&#45;&gt;MultiplicativeGroup -->
<g id="edge17" class="edge">
<title>DivisionRing&#45;&gt;MultiplicativeGroup</title>
<path fill="none" stroke="black" d="M421.09,-776.48C425.12,-730.58 431.64,-656.13 436,-606.38"/>
<polygon fill="none" stroke="black" points="439.51,-606.43 436.89,-596.16 432.53,-605.82 439.51,-606.43"/>
</g>
<!-- DivisionRing&#45;&gt;Ring -->
<g id="edge18" class="edge">
<title>DivisionRing&#45;&gt;Ring</title>
<path fill="none" stroke="black" d="M368.8,-776.43C357.36,-766.78 344.99,-756.35 332.95,-746.2"/>
<polygon fill="none" stroke="black" points="335,-743.35 325.1,-739.58 330.49,-748.7 335,-743.35"/>
</g>
<!-- AbelianRing -->
<g id="node16" class="node">
<title>AbelianRing</title>
<g id="a_node16"><a xlink:href="https://github.com/mihxil/math/blob/main/mihxil-math/src/main/java/org/meeuw/math/abstractalgebra/AbelianRing.java" xlink:title="{\N|{ + &#160;&#45; \n⇆ | &#160;⋅ \n⇆ | 0 | 1}}">
<polygon fill="none" stroke="black" points="206,-788 206,-849 329,-849 329,-788 206,-788"/>
<text text-anchor="middle" x="267.5" y="-833.8" font-family="Times,serif" font-size="14.00">AbelianRing</text>
<polyline fill="none" stroke="black" points="206,-826 329,-826 "/>
<text text-anchor="middle" x="227" y="-810.8" font-family="Times,serif" font-size="14.00">+ &#45; </text>
<text text-anchor="middle" x="227" y="-795.8" font-family="Times,serif" font-size="14.00">⇆</text>
<polyline fill="none" stroke="black" points="248,-788 248,-826 "/>
<text text-anchor="middle" x="262.5" y="-810.8" font-family="Times,serif" font-size="14.00">⋅</text>
<text text-anchor="middle" x="262.5" y="-795.8" font-family="Times,serif" font-size="14.00">⇆</text>
<polyline fill="none" stroke="black" points="277,-788 277,-826 "/>
<text text-anchor="middle" x="290" y="-803.3" font-family="Times,serif" font-size="14.00">0</text>
<polyline fill="none" stroke="black" points="303,-788 303,-826 "/>
<text text-anchor="middle" x="316" y="-803.3" font-family="Times,serif" font-size="14.00">1</text>
</a>
</g>
</g>
<!-- AbelianRing&#45;&gt;Ring -->
<g id="edge19" class="edge">
<title>AbelianRing&#45;&gt;Ring</title>
<path fill="none" stroke="black" d="M267.5,-787.84C267.5,-776.44 267.5,-762.98 267.5,-749.78"/>
<polygon fill="none" stroke="black" points="271,-749.78 267.5,-739.78 264,-749.78 271,-749.78"/>
</g>
<!-- DivisibleGroup -->
<g id="node17" class="node">
<title>DivisibleGroup</title>
<g id="a_node17"><a xlink:href="https://github.com/mihxil/math/blob/main/mihxil-math/src/main/java/org/meeuw/math/abstractalgebra/DivisibleGroup.java" xlink:title="{\N|{ ⋅ &#160;/ \n⇆ | 1}}">
<polygon fill="none" stroke="black" points="496,-788 496,-849 619,-849 619,-788 496,-788"/>
<text text-anchor="middle" x="557.5" y="-833.8" font-family="Times,serif" font-size="14.00">DivisibleGroup</text>
<polyline fill="none" stroke="black" points="496,-826 619,-826 "/>
<text text-anchor="middle" x="527.5" y="-810.8" font-family="Times,serif" font-size="14.00">⋅/ </text>
<text text-anchor="middle" x="527.5" y="-795.8" font-family="Times,serif" font-size="14.00">⇆</text>
<polyline fill="none" stroke="black" points="559,-788 559,-826 "/>
<text text-anchor="middle" x="589" y="-803.3" font-family="Times,serif" font-size="14.00">1</text>
</a>
</g>
</g>
<!-- DivisibleGroup&#45;&gt;MultiplicativeAbelianGroup -->
<g id="edge20" class="edge">
<title>DivisibleGroup&#45;&gt;MultiplicativeAbelianGroup</title>
<path fill="none" stroke="black" d="M557.5,-787.84C557.5,-770.91 557.5,-749.46 557.5,-731.06"/>
<polygon fill="none" stroke="black" points="561,-730.91 557.5,-720.91 554,-730.91 561,-730.91"/>
</g>
<!-- Field -->
<g id="node18" class="node">
<title>Field</title>
<g id="a_node18"><a xlink:href="https://github.com/mihxil/math/blob/main/mihxil-math/src/main/java/org/meeuw/math/abstractalgebra/Field.java" xlink:title="{\N|{ + &#160;&#45; \n⇆ | &#160;⋅ &#160;/ \n⇆ | 0 | 1}|ModuloField\nGaussianRationals ᵁ0(i)}">
<polygon fill="none" stroke="black" points="336,-897.5 336,-996.5 521,-996.5 521,-897.5 336,-897.5"/>
<text text-anchor="middle" x="428.5" y="-981.3" font-family="Times,serif" font-size="14.00">Field</text>
<polyline fill="none" stroke="black" points="336,-973.5 521,-973.5 "/>
<text text-anchor="middle" x="364.5" y="-958.3" font-family="Times,serif" font-size="14.00">+ &#45; </text>
<text text-anchor="middle" x="364.5" y="-943.3" font-family="Times,serif" font-size="14.00">⇆</text>
<polyline fill="none" stroke="black" points="393,-935.5 393,-973.5 "/>
<text text-anchor="middle" x="415.5" y="-958.3" font-family="Times,serif" font-size="14.00">⋅/ </text>
<text text-anchor="middle" x="415.5" y="-943.3" font-family="Times,serif" font-size="14.00">⇆</text>
<polyline fill="none" stroke="black" points="438,-935.5 438,-973.5 "/>
<text text-anchor="middle" x="458.5" y="-950.8" font-family="Times,serif" font-size="14.00">0</text>
<polyline fill="none" stroke="black" points="479,-935.5 479,-973.5 "/>
<text text-anchor="middle" x="500" y="-950.8" font-family="Times,serif" font-size="14.00">1</text>
<polyline fill="none" stroke="black" points="336,-935.5 521,-935.5 "/>
<text text-anchor="middle" x="428.5" y="-920.3" font-family="Times,serif" font-size="14.00">ModuloField</text>
<text text-anchor="middle" x="428.5" y="-905.3" font-family="Times,serif" font-size="14.00">GaussianRationals ᵁ0(i)</text>
</a>
</g>
</g>
<!-- Field&#45;&gt;DivisionRing -->
<g id="edge21" class="edge">
<title>Field&#45;&gt;DivisionRing</title>
<path fill="none" stroke="black" d="M424.28,-897.45C423.52,-888.74 422.73,-879.63 421.96,-870.84"/>
<polygon fill="none" stroke="black" points="425.44,-870.37 421.08,-860.71 418.46,-870.98 425.44,-870.37"/>
</g>
<!-- Field&#45;&gt;AbelianRing -->
<g id="edge22" class="edge">
<title>Field&#45;&gt;AbelianRing</title>
<path fill="none" stroke="black" d="M366.71,-897.45C348.88,-883.44 329.75,-868.41 313.09,-855.32"/>
<polygon fill="none" stroke="black" points="315.16,-852.49 305.13,-849.07 310.83,-858 315.16,-852.49"/>
</g>
<!-- Field&#45;&gt;DivisibleGroup -->
<g id="edge23" class="edge">
<title>Field&#45;&gt;DivisibleGroup</title>
<path fill="none" stroke="black" d="M478.01,-897.45C491.9,-883.82 506.79,-869.23 519.87,-856.4"/>
<polygon fill="none" stroke="black" points="522.66,-858.57 527.35,-849.07 517.76,-853.57 522.66,-858.57"/>
</g>
<!-- VectorSpace -->
<g id="node19" class="node">
<title>VectorSpace</title>
<g id="a_node19"><a xlink:href="https://github.com/mihxil/math/blob/main/mihxil-math/src/main/java/org/meeuw/math/abstractalgebra/VectorSpace.java" xlink:title="{\N|{ + &#160;&#45; \n⇆ | &#160;⋅ \n⇆ | 0 | 1}|Vector3Space ℝₚ³\nℚ³}">
<polygon fill="none" stroke="black" points="177,-897.5 177,-996.5 318,-996.5 318,-897.5 177,-897.5"/>
<text text-anchor="middle" x="247.5" y="-981.3" font-family="Times,serif" font-size="14.00">VectorSpace</text>
<polyline fill="none" stroke="black" points="177,-973.5 318,-973.5 "/>
<text text-anchor="middle" x="200" y="-958.3" font-family="Times,serif" font-size="14.00">+ &#45; </text>
<text text-anchor="middle" x="200" y="-943.3" font-family="Times,serif" font-size="14.00">⇆</text>
<polyline fill="none" stroke="black" points="223,-935.5 223,-973.5 "/>
<text text-anchor="middle" x="240" y="-958.3" font-family="Times,serif" font-size="14.00">⋅</text>
<text text-anchor="middle" x="240" y="-943.3" font-family="Times,serif" font-size="14.00">⇆</text>
<polyline fill="none" stroke="black" points="257,-935.5 257,-973.5 "/>
<text text-anchor="middle" x="272" y="-950.8" font-family="Times,serif" font-size="14.00">0</text>
<polyline fill="none" stroke="black" points="287,-935.5 287,-973.5 "/>
<text text-anchor="middle" x="302.5" y="-950.8" font-family="Times,serif" font-size="14.00">1</text>
<polyline fill="none" stroke="black" points="177,-935.5 318,-935.5 "/>
<text text-anchor="middle" x="247.5" y="-920.3" font-family="Times,serif" font-size="14.00">Vector3Space ℝₚ³</text>
<text text-anchor="middle" x="247.5" y="-905.3" font-family="Times,serif" font-size="14.00">ℚ³</text>
</a>
</g>
</g>
<!-- VectorSpace&#45;&gt;AbelianRing -->
<g id="edge24" class="edge">
<title>VectorSpace&#45;&gt;AbelianRing</title>
<path fill="none" stroke="black" d="M255.18,-897.45C257.17,-884.84 259.29,-871.41 261.21,-859.31"/>
<polygon fill="none" stroke="black" points="264.72,-859.49 262.83,-849.07 257.81,-858.4 264.72,-859.49"/>
</g>
<!-- ScalarField -->
<g id="node20" class="node">
<title>ScalarField</title>
<g id="a_node20"><a xlink:href="https://github.com/mihxil/math/blob/main/mihxil-math/src/main/java/org/meeuw/math/abstractalgebra/ScalarField.java" xlink:title="{\N|{ + &#160;&#45; \n⇆ | &#160;⋅ &#160;/ \n⇆ | 0 | 1}|RationalNumbers ℚ}">
<polygon fill="none" stroke="black" points="349.5,-1033.5 349.5,-1117.5 507.5,-1117.5 507.5,-1033.5 349.5,-1033.5"/>
<text text-anchor="middle" x="428.5" y="-1102.3" font-family="Times,serif" font-size="14.00">ScalarField</text>
<polyline fill="none" stroke="black" points="349.5,-1094.5 507.5,-1094.5 "/>
<text text-anchor="middle" x="374.5" y="-1079.3" font-family="Times,serif" font-size="14.00">+ &#45; </text>
<text text-anchor="middle" x="374.5" y="-1064.3" font-family="Times,serif" font-size="14.00">⇆</text>
<polyline fill="none" stroke="black" points="399.5,-1056.5 399.5,-1094.5 "/>
<text text-anchor="middle" x="419" y="-1079.3" font-family="Times,serif" font-size="14.00">⋅/ </text>
<text text-anchor="middle" x="419" y="-1064.3" font-family="Times,serif" font-size="14.00">⇆</text>
<polyline fill="none" stroke="black" points="438.5,-1056.5 438.5,-1094.5 "/>
<text text-anchor="middle" x="455.5" y="-1071.8" font-family="Times,serif" font-size="14.00">0</text>
<polyline fill="none" stroke="black" points="472.5,-1056.5 472.5,-1094.5 "/>
<text text-anchor="middle" x="490" y="-1071.8" font-family="Times,serif" font-size="14.00">1</text>
<polyline fill="none" stroke="black" points="349.5,-1056.5 507.5,-1056.5 "/>
<text text-anchor="middle" x="428.5" y="-1041.3" font-family="Times,serif" font-size="14.00">RationalNumbers ℚ</text>
</a>
</g>
</g>
<!-- ScalarField&#45;&gt;Field -->
<g id="edge25" class="edge">
<title>ScalarField&#45;&gt;Field</title>
<path fill="none" stroke="black" d="M428.5,-1033.43C428.5,-1024.94 428.5,-1015.84 428.5,-1006.85"/>
<polygon fill="none" stroke="black" points="432,-1006.8 428.5,-996.8 425,-1006.8 432,-1006.8"/>
</g>
<!-- CompleteField -->
<g id="node21" class="node">
<title>CompleteField</title>
<g id="a_node21"><a xlink:href="https://github.com/mihxil/math/blob/main/mihxil-math/src/main/java/org/meeuw/math/abstractalgebra/CompleteField.java" xlink:title="{\N|{ + &#160;&#45; \n⇆ | &#160;⋅ &#160;/ \n⇆ | 0 | 1}|BigDecimalField ℝ\nRealField ℝₚ}">
<polygon fill="none" stroke="black" points="353,-1154.5 353,-1253.5 504,-1253.5 504,-1154.5 353,-1154.5"/>
<text text-anchor="middle" x="428.5" y="-1238.3" font-family="Times,serif" font-size="14.00">CompleteField</text>
<polyline fill="none" stroke="black" points="353,-1230.5 504,-1230.5 "/>
<text text-anchor="middle" x="377" y="-1215.3" font-family="Times,serif" font-size="14.00">+ &#45; </text>
<text text-anchor="middle" x="377" y="-1200.3" font-family="Times,serif" font-size="14.00">⇆</text>
<polyline fill="none" stroke="black" points="401,-1192.5 401,-1230.5 "/>
<text text-anchor="middle" x="419.5" y="-1215.3" font-family="Times,serif" font-size="14.00">⋅/ </text>
<text text-anchor="middle" x="419.5" y="-1200.3" font-family="Times,serif" font-size="14.00">⇆</text>
<polyline fill="none" stroke="black" points="438,-1192.5 438,-1230.5 "/>
<text text-anchor="middle" x="454.5" y="-1207.8" font-family="Times,serif" font-size="14.00">0</text>
<polyline fill="none" stroke="black" points="471,-1192.5 471,-1230.5 "/>
<text text-anchor="middle" x="487.5" y="-1207.8" font-family="Times,serif" font-size="14.00">1</text>
<polyline fill="none" stroke="black" points="353,-1192.5 504,-1192.5 "/>
<text text-anchor="middle" x="428.5" y="-1177.3" font-family="Times,serif" font-size="14.00">BigDecimalField ℝ</text>
<text text-anchor="middle" x="428.5" y="-1162.3" font-family="Times,serif" font-size="14.00">RealField ℝₚ</text>
</a>
</g>
</g>
<!-- CompleteField&#45;&gt;ScalarField -->
<g id="edge26" class="edge">
<title>CompleteField&#45;&gt;ScalarField</title>
<path fill="none" stroke="black" d="M428.5,-1154.45C428.5,-1145.74 428.5,-1136.63 428.5,-1127.84"/>
<polygon fill="none" stroke="black" points="432,-1127.71 428.5,-1117.71 425,-1127.71 432,-1127.71"/>
</g>
</g>
</svg>
