<?xml version="1.0" encoding="UTF-8" standalone="no"?>
<!DOCTYPE svg PUBLIC "-//W3C//DTD SVG 1.1//EN"
 "http://www.w3.org/Graphics/SVG/1.1/DTD/svg11.dtd">
<!-- Generated by graphviz version 2.44.0 ()
 -->
<!-- Pages: 1 -->
<svg width="512pt" height="1156pt"
 viewBox="0.00 0.00 512.00 1156.00" xmlns="http://www.w3.org/2000/svg" xmlns:xlink="http://www.w3.org/1999/xlink">
<g id="graph0" class="graph" transform="scale(1 1) rotate(0) translate(4 1152)">
<polygon fill="white" stroke="transparent" points="-4,4 -4,-1152 508,-1152 508,4 -4,4"/>
<!-- AdditiveSemiGroup -->
<g id="node1" class="node">
<title>AdditiveSemiGroup</title>
<g id="a_node1"><a xlink:href="https://github.com/mihxil/math/blob/main/mihxil-math/src/main/java/org/meeuw/math/abstractalgebra/AdditiveSemiGroup.java" xlink:title="{\N|{ + }}">
<polygon fill="none" stroke="black" points="125.5,-73.5 125.5,-119.5 281.5,-119.5 281.5,-73.5 125.5,-73.5"/>
<text text-anchor="middle" x="203.5" y="-104.3" font-family="Times,serif" font-size="14.00">AdditiveSemiGroup</text>
<polyline fill="none" stroke="black" points="125.5,-96.5 281.5,-96.5 "/>
<text text-anchor="middle" x="203.5" y="-81.3" font-family="Times,serif" font-size="14.00">+</text>
</a>
</g>
</g>
<!-- AlgebraicStructure -->
<g id="node2" class="node">
<title>AlgebraicStructure</title>
<polygon fill="none" stroke="black" points="180,-0.5 180,-36.5 333,-36.5 333,-0.5 180,-0.5"/>
<text text-anchor="middle" x="256.5" y="-14.8" font-family="Times,serif" font-size="14.00">AlgebraicStructure</text>
</g>
<!-- AdditiveSemiGroup&#45;&gt;AlgebraicStructure -->
<g id="edge1" class="edge">
<title>AdditiveSemiGroup&#45;&gt;AlgebraicStructure</title>
<path fill="none" stroke="black" d="M219.12,-73.11C225.22,-64.35 232.27,-54.25 238.58,-45.2"/>
<polygon fill="none" stroke="black" points="241.51,-47.12 244.36,-36.91 235.77,-43.11 241.51,-47.12"/>
</g>
<!-- MultiplicativeSemiGroup -->
<g id="node3" class="node">
<title>MultiplicativeSemiGroup</title>
<g id="a_node3"><a xlink:href="https://github.com/mihxil/math/blob/main/mihxil-math/src/main/java/org/meeuw/math/abstractalgebra/MultiplicativeSemiGroup.java" xlink:title="{\N|{ * }}">
<polygon fill="none" stroke="black" points="224.5,-353 224.5,-399 420.5,-399 420.5,-353 224.5,-353"/>
<text text-anchor="middle" x="322.5" y="-383.8" font-family="Times,serif" font-size="14.00">MultiplicativeSemiGroup</text>
<polyline fill="none" stroke="black" points="224.5,-376 420.5,-376 "/>
<text text-anchor="middle" x="322.5" y="-360.8" font-family="Times,serif" font-size="14.00">*</text>
</a>
</g>
</g>
<!-- MultiplicativeSemiGroup&#45;&gt;AlgebraicStructure -->
<g id="edge2" class="edge">
<title>MultiplicativeSemiGroup&#45;&gt;AlgebraicStructure</title>
<path fill="none" stroke="black" d="M323.55,-352.64C325.24,-301.52 325.34,-172.81 290.5,-73 287.11,-63.28 281.66,-53.53 276.1,-45.06"/>
<polygon fill="none" stroke="black" points="278.93,-42.98 270.36,-36.75 273.17,-46.97 278.93,-42.98"/>
</g>
<!-- AdditiveMonoid -->
<g id="node4" class="node">
<title>AdditiveMonoid</title>
<g id="a_node4"><a xlink:href="https://github.com/mihxil/math/blob/main/mihxil-math/src/main/java/org/meeuw/math/abstractalgebra/AdditiveMonoid.java" xlink:title="{\N|{ + &#160;| 0}|StringMonoid}">
<polygon fill="none" stroke="black" points="127,-156.5 127,-225.5 256,-225.5 256,-156.5 127,-156.5"/>
<text text-anchor="middle" x="191.5" y="-210.3" font-family="Times,serif" font-size="14.00">AdditiveMonoid</text>
<polyline fill="none" stroke="black" points="127,-202.5 256,-202.5 "/>
<text text-anchor="middle" x="160" y="-187.3" font-family="Times,serif" font-size="14.00">+</text>
<polyline fill="none" stroke="black" points="193,-179.5 193,-202.5 "/>
<text text-anchor="middle" x="224.5" y="-187.3" font-family="Times,serif" font-size="14.00">0</text>
<polyline fill="none" stroke="black" points="127,-179.5 256,-179.5 "/>
<text text-anchor="middle" x="191.5" y="-164.3" font-family="Times,serif" font-size="14.00">StringMonoid</text>
</a>
</g>
</g>
<!-- AdditiveMonoid&#45;&gt;AdditiveSemiGroup -->
<g id="edge3" class="edge">
<title>AdditiveMonoid&#45;&gt;AdditiveSemiGroup</title>
<path fill="none" stroke="black" d="M195.87,-156.34C196.99,-147.68 198.2,-138.37 199.31,-129.78"/>
<polygon fill="none" stroke="black" points="202.8,-130.1 200.62,-119.74 195.86,-129.2 202.8,-130.1"/>
</g>
<!-- MultiplicativeMonoid -->
<g id="node5" class="node">
<title>MultiplicativeMonoid</title>
<g id="a_node5"><a xlink:href="https://github.com/mihxil/math/blob/main/mihxil-math/src/main/java/org/meeuw/math/abstractalgebra/MultiplicativeMonoid.java" xlink:title="{\N|{ * &#160;| 1}|OddIntegers}">
<polygon fill="none" stroke="black" points="238,-451 238,-520 407,-520 407,-451 238,-451"/>
<text text-anchor="middle" x="322.5" y="-504.8" font-family="Times,serif" font-size="14.00">MultiplicativeMonoid</text>
<polyline fill="none" stroke="black" points="238,-497 407,-497 "/>
<text text-anchor="middle" x="279.5" y="-481.8" font-family="Times,serif" font-size="14.00">*</text>
<polyline fill="none" stroke="black" points="321,-474 321,-497 "/>
<text text-anchor="middle" x="364" y="-481.8" font-family="Times,serif" font-size="14.00">1</text>
<polyline fill="none" stroke="black" points="238,-474 407,-474 "/>
<text text-anchor="middle" x="322.5" y="-458.8" font-family="Times,serif" font-size="14.00">OddIntegers</text>
</a>
</g>
</g>
<!-- MultiplicativeMonoid&#45;&gt;MultiplicativeSemiGroup -->
<g id="edge4" class="edge">
<title>MultiplicativeMonoid&#45;&gt;MultiplicativeSemiGroup</title>
<path fill="none" stroke="black" d="M322.5,-450.78C322.5,-437.47 322.5,-422.24 322.5,-409.09"/>
<polygon fill="none" stroke="black" points="326,-409.07 322.5,-399.07 319,-409.07 326,-409.07"/>
</g>
<!-- Rng -->
<g id="node6" class="node">
<title>Rng</title>
<g id="a_node6"><a xlink:href="https://github.com/mihxil/math/blob/main/mihxil-math/src/main/java/org/meeuw/math/abstractalgebra/Rng.java" xlink:title="{\N|{ + &#160;&#45; \n⇆ | &#160;* &#160;| 0}|EvenIntegers}">
<polygon fill="none" stroke="black" points="81,-443.5 81,-527.5 194,-527.5 194,-443.5 81,-443.5"/>
<text text-anchor="middle" x="137.5" y="-512.3" font-family="Times,serif" font-size="14.00">Rng</text>
<polyline fill="none" stroke="black" points="81,-504.5 194,-504.5 "/>
<text text-anchor="middle" x="105.5" y="-489.3" font-family="Times,serif" font-size="14.00">+ &#45; </text>
<text text-anchor="middle" x="105.5" y="-474.3" font-family="Times,serif" font-size="14.00">⇆</text>
<polyline fill="none" stroke="black" points="130,-466.5 130,-504.5 "/>
<text text-anchor="middle" x="145" y="-481.8" font-family="Times,serif" font-size="14.00">*</text>
<polyline fill="none" stroke="black" points="160,-466.5 160,-504.5 "/>
<text text-anchor="middle" x="177" y="-481.8" font-family="Times,serif" font-size="14.00">0</text>
<polyline fill="none" stroke="black" points="81,-466.5 194,-466.5 "/>
<text text-anchor="middle" x="137.5" y="-451.3" font-family="Times,serif" font-size="14.00">EvenIntegers</text>
</a>
</g>
</g>
<!-- Rng&#45;&gt;MultiplicativeSemiGroup -->
<g id="edge5" class="edge">
<title>Rng&#45;&gt;MultiplicativeSemiGroup</title>
<path fill="none" stroke="black" d="M194.01,-451.66C220.13,-436.48 250.79,-418.67 275.6,-404.25"/>
<polygon fill="none" stroke="black" points="277.57,-407.15 284.46,-399.1 274.06,-401.1 277.57,-407.15"/>
</g>
<!-- AdditiveAbelianGroup -->
<g id="node7" class="node">
<title>AdditiveAbelianGroup</title>
<g id="a_node7"><a xlink:href="https://github.com/mihxil/math/blob/main/mihxil-math/src/main/java/org/meeuw/math/abstractalgebra/AdditiveAbelianGroup.java" xlink:title="{\N|{ + &#160;&#45; \n⇆ | 0}}">
<polygon fill="none" stroke="black" points="33,-345.5 33,-406.5 206,-406.5 206,-345.5 33,-345.5"/>
<text text-anchor="middle" x="119.5" y="-391.3" font-family="Times,serif" font-size="14.00">AdditiveAbelianGroup</text>
<polyline fill="none" stroke="black" points="33,-383.5 206,-383.5 "/>
<text text-anchor="middle" x="80" y="-368.3" font-family="Times,serif" font-size="14.00">+ &#45; </text>
<text text-anchor="middle" x="80" y="-353.3" font-family="Times,serif" font-size="14.00">⇆</text>
<polyline fill="none" stroke="black" points="127,-345.5 127,-383.5 "/>
<text text-anchor="middle" x="166.5" y="-360.8" font-family="Times,serif" font-size="14.00">0</text>
</a>
</g>
</g>
<!-- Rng&#45;&gt;AdditiveAbelianGroup -->
<g id="edge6" class="edge">
<title>Rng&#45;&gt;AdditiveAbelianGroup</title>
<path fill="none" stroke="black" d="M130.59,-443.25C129.12,-434.48 127.58,-425.24 126.12,-416.54"/>
<polygon fill="none" stroke="black" points="129.57,-415.92 124.46,-406.63 122.66,-417.07 129.57,-415.92"/>
</g>
<!-- AdditiveGroup -->
<g id="node8" class="node">
<title>AdditiveGroup</title>
<g id="a_node8"><a xlink:href="https://github.com/mihxil/math/blob/main/mihxil-math/src/main/java/org/meeuw/math/abstractalgebra/AdditiveGroup.java" xlink:title="{\N|{ + &#160;&#45; &#160;| 0}}">
<polygon fill="none" stroke="black" points="107.5,-262.5 107.5,-308.5 227.5,-308.5 227.5,-262.5 107.5,-262.5"/>
<text text-anchor="middle" x="167.5" y="-293.3" font-family="Times,serif" font-size="14.00">AdditiveGroup</text>
<polyline fill="none" stroke="black" points="107.5,-285.5 227.5,-285.5 "/>
<text text-anchor="middle" x="140.5" y="-270.3" font-family="Times,serif" font-size="14.00">+ &#45;</text>
<polyline fill="none" stroke="black" points="173.5,-262.5 173.5,-285.5 "/>
<text text-anchor="middle" x="200.5" y="-270.3" font-family="Times,serif" font-size="14.00">0</text>
</a>
</g>
</g>
<!-- AdditiveAbelianGroup&#45;&gt;AdditiveGroup -->
<g id="edge10" class="edge">
<title>AdditiveAbelianGroup&#45;&gt;AdditiveGroup</title>
<path fill="none" stroke="black" d="M135.75,-345.04C140.55,-336.18 145.82,-326.47 150.66,-317.54"/>
<polygon fill="none" stroke="black" points="153.82,-319.06 155.52,-308.6 147.67,-315.72 153.82,-319.06"/>
</g>
<!-- AdditiveGroup&#45;&gt;AdditiveMonoid -->
<g id="edge7" class="edge">
<title>AdditiveGroup&#45;&gt;AdditiveMonoid</title>
<path fill="none" stroke="black" d="M173.31,-262.11C175.39,-254.1 177.81,-244.77 180.19,-235.59"/>
<polygon fill="none" stroke="black" points="183.62,-236.3 182.74,-225.75 176.84,-234.55 183.62,-236.3"/>
</g>
<!-- MultiplicativeGroup -->
<g id="node9" class="node">
<title>MultiplicativeGroup</title>
<g id="a_node9"><a xlink:href="https://github.com/mihxil/math/blob/main/mihxil-math/src/main/java/org/meeuw/math/abstractalgebra/MultiplicativeGroup.java" xlink:title="{\N|{ * &#160;/ &#160;| 1}|PermutationGroup}">
<polygon fill="none" stroke="black" points="242.5,-572 242.5,-641 402.5,-641 402.5,-572 242.5,-572"/>
<text text-anchor="middle" x="322.5" y="-625.8" font-family="Times,serif" font-size="14.00">MultiplicativeGroup</text>
<polyline fill="none" stroke="black" points="242.5,-618 402.5,-618 "/>
<text text-anchor="middle" x="284" y="-602.8" font-family="Times,serif" font-size="14.00">* /</text>
<polyline fill="none" stroke="black" points="325.5,-595 325.5,-618 "/>
<text text-anchor="middle" x="364" y="-602.8" font-family="Times,serif" font-size="14.00">1</text>
<polyline fill="none" stroke="black" points="242.5,-595 402.5,-595 "/>
<text text-anchor="middle" x="322.5" y="-579.8" font-family="Times,serif" font-size="14.00">PermutationGroup</text>
</a>
</g>
</g>
<!-- MultiplicativeGroup&#45;&gt;MultiplicativeMonoid -->
<g id="edge8" class="edge">
<title>MultiplicativeGroup&#45;&gt;MultiplicativeMonoid</title>
<path fill="none" stroke="black" d="M322.5,-571.72C322.5,-558.9 322.5,-544.12 322.5,-530.5"/>
<polygon fill="none" stroke="black" points="326,-530.37 322.5,-520.37 319,-530.37 326,-530.37"/>
</g>
<!-- Ring -->
<g id="node10" class="node">
<title>Ring</title>
<g id="a_node10"><a xlink:href="https://github.com/mihxil/math/blob/main/mihxil-math/src/main/java/org/meeuw/math/abstractalgebra/Ring.java" xlink:title="{\N|{ + &#160;&#45; \n⇆ | &#160;* &#160;| 0 | 1}|ModuloStructure}">
<polygon fill="none" stroke="black" points="68,-564.5 68,-648.5 207,-648.5 207,-564.5 68,-564.5"/>
<text text-anchor="middle" x="137.5" y="-633.3" font-family="Times,serif" font-size="14.00">Ring</text>
<polyline fill="none" stroke="black" points="68,-625.5 207,-625.5 "/>
<text text-anchor="middle" x="91.5" y="-610.3" font-family="Times,serif" font-size="14.00">+ &#45; </text>
<text text-anchor="middle" x="91.5" y="-595.3" font-family="Times,serif" font-size="14.00">⇆</text>
<polyline fill="none" stroke="black" points="115,-587.5 115,-625.5 "/>
<text text-anchor="middle" x="129.5" y="-602.8" font-family="Times,serif" font-size="14.00">*</text>
<polyline fill="none" stroke="black" points="144,-587.5 144,-625.5 "/>
<text text-anchor="middle" x="159.5" y="-602.8" font-family="Times,serif" font-size="14.00">0</text>
<polyline fill="none" stroke="black" points="175,-587.5 175,-625.5 "/>
<text text-anchor="middle" x="191" y="-602.8" font-family="Times,serif" font-size="14.00">1</text>
<polyline fill="none" stroke="black" points="68,-587.5 207,-587.5 "/>
<text text-anchor="middle" x="137.5" y="-572.3" font-family="Times,serif" font-size="14.00">ModuloStructure</text>
</a>
</g>
</g>
<!-- Ring&#45;&gt;Rng -->
<g id="edge9" class="edge">
<title>Ring&#45;&gt;Rng</title>
<path fill="none" stroke="black" d="M137.5,-564.21C137.5,-555.72 137.5,-546.68 137.5,-537.88"/>
<polygon fill="none" stroke="black" points="141,-537.71 137.5,-527.71 134,-537.71 141,-537.71"/>
</g>
<!-- MultiplicativeAbelianGroup -->
<g id="node11" class="node">
<title>MultiplicativeAbelianGroup</title>
<g id="a_node11"><a xlink:href="https://github.com/mihxil/math/blob/main/mihxil-math/src/main/java/org/meeuw/math/abstractalgebra/MultiplicativeAbelianGroup.java" xlink:title="{\N|{ * &#160;/ \n⇆ | 1}}">
<polygon fill="none" stroke="black" points="291,-697 291,-758 504,-758 504,-697 291,-697"/>
<text text-anchor="middle" x="397.5" y="-742.8" font-family="Times,serif" font-size="14.00">MultiplicativeAbelianGroup</text>
<polyline fill="none" stroke="black" points="291,-735 504,-735 "/>
<text text-anchor="middle" x="347" y="-719.8" font-family="Times,serif" font-size="14.00">* / </text>
<text text-anchor="middle" x="347" y="-704.8" font-family="Times,serif" font-size="14.00">⇆</text>
<polyline fill="none" stroke="black" points="403,-697 403,-735 "/>
<text text-anchor="middle" x="453.5" y="-712.3" font-family="Times,serif" font-size="14.00">1</text>
</a>
</g>
</g>
<!-- MultiplicativeAbelianGroup&#45;&gt;MultiplicativeGroup -->
<g id="edge11" class="edge">
<title>MultiplicativeAbelianGroup&#45;&gt;MultiplicativeGroup</title>
<path fill="none" stroke="black" d="M378.77,-696.78C369.76,-682.49 358.81,-665.11 348.97,-649.5"/>
<polygon fill="none" stroke="black" points="351.93,-647.63 343.64,-641.04 346.01,-651.37 351.93,-647.63"/>
</g>
<!-- DivisionRing -->
<g id="node12" class="node">
<title>DivisionRing</title>
<g id="a_node12"><a xlink:href="https://github.com/mihxil/math/blob/main/mihxil-math/src/main/java/org/meeuw/math/abstractalgebra/DivisionRing.java" xlink:title="{\N|{ + &#160;&#45; \n⇆ | &#160;* &#160;/ &#160;| 0 | 1}|Quaternions}">
<polygon fill="none" stroke="black" points="146.5,-685.5 146.5,-769.5 272.5,-769.5 272.5,-685.5 146.5,-685.5"/>
<text text-anchor="middle" x="209.5" y="-754.3" font-family="Times,serif" font-size="14.00">DivisionRing</text>
<polyline fill="none" stroke="black" points="146.5,-746.5 272.5,-746.5 "/>
<text text-anchor="middle" x="167.5" y="-731.3" font-family="Times,serif" font-size="14.00">+ &#45; </text>
<text text-anchor="middle" x="167.5" y="-716.3" font-family="Times,serif" font-size="14.00">⇆</text>
<polyline fill="none" stroke="black" points="188.5,-708.5 188.5,-746.5 "/>
<text text-anchor="middle" x="204.5" y="-723.8" font-family="Times,serif" font-size="14.00">* /</text>
<polyline fill="none" stroke="black" points="220.5,-708.5 220.5,-746.5 "/>
<text text-anchor="middle" x="233.5" y="-723.8" font-family="Times,serif" font-size="14.00">0</text>
<polyline fill="none" stroke="black" points="246.5,-708.5 246.5,-746.5 "/>
<text text-anchor="middle" x="259.5" y="-723.8" font-family="Times,serif" font-size="14.00">1</text>
<polyline fill="none" stroke="black" points="146.5,-708.5 272.5,-708.5 "/>
<text text-anchor="middle" x="209.5" y="-693.3" font-family="Times,serif" font-size="14.00">Quaternions</text>
</a>
</g>
</g>
<!-- DivisionRing&#45;&gt;MultiplicativeGroup -->
<g id="edge12" class="edge">
<title>DivisionRing&#45;&gt;MultiplicativeGroup</title>
<path fill="none" stroke="black" d="M248.7,-685.21C259.89,-673.43 272.09,-660.59 283.28,-648.8"/>
<polygon fill="none" stroke="black" points="286.12,-650.9 290.47,-641.23 281.04,-646.08 286.12,-650.9"/>
</g>
<!-- DivisionRing&#45;&gt;Ring -->
<g id="edge13" class="edge">
<title>DivisionRing&#45;&gt;Ring</title>
<path fill="none" stroke="black" d="M184.52,-685.21C179.1,-676.26 173.32,-666.7 167.72,-657.45"/>
<polygon fill="none" stroke="black" points="170.61,-655.46 162.44,-648.71 164.62,-659.08 170.61,-655.46"/>
</g>
<!-- AbelianRing -->
<g id="node13" class="node">
<title>AbelianRing</title>
<g id="a_node13"><a xlink:href="https://github.com/mihxil/math/blob/main/mihxil-math/src/main/java/org/meeuw/math/abstractalgebra/AbelianRing.java" xlink:title="{\N|{ + &#160;&#45; \n⇆ | &#160;* \n⇆ | 0 | 1}}">
<polygon fill="none" stroke="black" points="5,-697 5,-758 128,-758 128,-697 5,-697"/>
<text text-anchor="middle" x="66.5" y="-742.8" font-family="Times,serif" font-size="14.00">AbelianRing</text>
<polyline fill="none" stroke="black" points="5,-735 128,-735 "/>
<text text-anchor="middle" x="26" y="-719.8" font-family="Times,serif" font-size="14.00">+ &#45; </text>
<text text-anchor="middle" x="26" y="-704.8" font-family="Times,serif" font-size="14.00">⇆</text>
<polyline fill="none" stroke="black" points="47,-697 47,-735 "/>
<text text-anchor="middle" x="61.5" y="-719.8" font-family="Times,serif" font-size="14.00">* </text>
<text text-anchor="middle" x="61.5" y="-704.8" font-family="Times,serif" font-size="14.00">⇆</text>
<polyline fill="none" stroke="black" points="76,-697 76,-735 "/>
<text text-anchor="middle" x="89" y="-712.3" font-family="Times,serif" font-size="14.00">0</text>
<polyline fill="none" stroke="black" points="102,-697 102,-735 "/>
<text text-anchor="middle" x="115" y="-712.3" font-family="Times,serif" font-size="14.00">1</text>
</a>
</g>
</g>
<!-- AbelianRing&#45;&gt;Ring -->
<g id="edge14" class="edge">
<title>AbelianRing&#45;&gt;Ring</title>
<path fill="none" stroke="black" d="M84.23,-696.78C91.38,-684.81 99.81,-670.67 107.84,-657.21"/>
<polygon fill="none" stroke="black" points="110.92,-658.88 113.04,-648.5 104.91,-655.3 110.92,-658.88"/>
</g>
<!-- Field -->
<g id="node14" class="node">
<title>Field</title>
<g id="a_node14"><a xlink:href="https://github.com/mihxil/math/blob/main/mihxil-math/src/main/java/org/meeuw/math/abstractalgebra/Field.java" xlink:title="{\N|{ + &#160;&#45; \n⇆ | &#160;* &#160;/ \n⇆ | 0 | 1}|ModuloField\nGaussianRationals}">
<polygon fill="none" stroke="black" points="141,-806.5 141,-905.5 290,-905.5 290,-806.5 141,-806.5"/>
<text text-anchor="middle" x="215.5" y="-890.3" font-family="Times,serif" font-size="14.00">Field</text>
<polyline fill="none" stroke="black" points="141,-882.5 290,-882.5 "/>
<text text-anchor="middle" x="164" y="-867.3" font-family="Times,serif" font-size="14.00">+ &#45; </text>
<text text-anchor="middle" x="164" y="-852.3" font-family="Times,serif" font-size="14.00">⇆</text>
<polyline fill="none" stroke="black" points="187,-844.5 187,-882.5 "/>
<text text-anchor="middle" x="208" y="-867.3" font-family="Times,serif" font-size="14.00">* / </text>
<text text-anchor="middle" x="208" y="-852.3" font-family="Times,serif" font-size="14.00">⇆</text>
<polyline fill="none" stroke="black" points="229,-844.5 229,-882.5 "/>
<text text-anchor="middle" x="244" y="-859.8" font-family="Times,serif" font-size="14.00">0</text>
<polyline fill="none" stroke="black" points="259,-844.5 259,-882.5 "/>
<text text-anchor="middle" x="274.5" y="-859.8" font-family="Times,serif" font-size="14.00">1</text>
<polyline fill="none" stroke="black" points="141,-844.5 290,-844.5 "/>
<text text-anchor="middle" x="215.5" y="-829.3" font-family="Times,serif" font-size="14.00">ModuloField</text>
<text text-anchor="middle" x="215.5" y="-814.3" font-family="Times,serif" font-size="14.00">GaussianRationals</text>
</a>
</g>
</g>
<!-- Field&#45;&gt;MultiplicativeAbelianGroup -->
<g id="edge15" class="edge">
<title>Field&#45;&gt;MultiplicativeAbelianGroup</title>
<path fill="none" stroke="black" d="M285.35,-806.45C305.78,-792.25 327.72,-777 346.73,-763.79"/>
<polygon fill="none" stroke="black" points="348.74,-766.65 354.96,-758.07 344.75,-760.9 348.74,-766.65"/>
</g>
<!-- Field&#45;&gt;DivisionRing -->
<g id="edge16" class="edge">
<title>Field&#45;&gt;DivisionRing</title>
<path fill="none" stroke="black" d="M213.2,-806.45C212.78,-797.74 212.35,-788.63 211.94,-779.84"/>
<polygon fill="none" stroke="black" points="215.42,-779.54 211.45,-769.71 208.43,-779.87 215.42,-779.54"/>
</g>
<!-- Field&#45;&gt;AbelianRing -->
<g id="edge17" class="edge">
<title>Field&#45;&gt;AbelianRing</title>
<path fill="none" stroke="black" d="M158.32,-806.45C141.97,-792.57 124.43,-777.69 109.12,-764.68"/>
<polygon fill="none" stroke="black" points="111.22,-761.87 101.33,-758.07 106.69,-767.21 111.22,-761.87"/>
</g>
<!-- VectorSpace -->
<g id="node15" class="node">
<title>VectorSpace</title>
<g id="a_node15"><a xlink:href="https://github.com/mihxil/math/blob/main/mihxil-math/src/main/java/org/meeuw/math/abstractalgebra/VectorSpace.java" xlink:title="{\N|{ + &#160;&#45; \n⇆ | &#160;* \n⇆ | 0 | 1}|Vector3Space}">
<polygon fill="none" stroke="black" points="0,-814 0,-898 123,-898 123,-814 0,-814"/>
<text text-anchor="middle" x="61.5" y="-882.8" font-family="Times,serif" font-size="14.00">VectorSpace</text>
<polyline fill="none" stroke="black" points="0,-875 123,-875 "/>
<text text-anchor="middle" x="21" y="-859.8" font-family="Times,serif" font-size="14.00">+ &#45; </text>
<text text-anchor="middle" x="21" y="-844.8" font-family="Times,serif" font-size="14.00">⇆</text>
<polyline fill="none" stroke="black" points="42,-837 42,-875 "/>
<text text-anchor="middle" x="56.5" y="-859.8" font-family="Times,serif" font-size="14.00">* </text>
<text text-anchor="middle" x="56.5" y="-844.8" font-family="Times,serif" font-size="14.00">⇆</text>
<polyline fill="none" stroke="black" points="71,-837 71,-875 "/>
<text text-anchor="middle" x="84" y="-852.3" font-family="Times,serif" font-size="14.00">0</text>
<polyline fill="none" stroke="black" points="97,-837 97,-875 "/>
<text text-anchor="middle" x="110" y="-852.3" font-family="Times,serif" font-size="14.00">1</text>
<polyline fill="none" stroke="black" points="0,-837 123,-837 "/>
<text text-anchor="middle" x="61.5" y="-821.8" font-family="Times,serif" font-size="14.00">Vector3Space</text>
</a>
</g>
</g>
<!-- VectorSpace&#45;&gt;AbelianRing -->
<g id="edge18" class="edge">
<title>VectorSpace&#45;&gt;AbelianRing</title>
<path fill="none" stroke="black" d="M63.12,-813.93C63.7,-799.3 64.35,-782.86 64.93,-768.33"/>
<polygon fill="none" stroke="black" points="68.43,-768.28 65.33,-758.15 61.44,-768.01 68.43,-768.28"/>
</g>
<!-- ScalarField -->
<g id="node16" class="node">
<title>ScalarField</title>
<g id="a_node16"><a xlink:href="https://github.com/mihxil/math/blob/main/mihxil-math/src/main/java/org/meeuw/math/abstractalgebra/ScalarField.java" xlink:title="{\N|{ + &#160;&#45; \n⇆ | &#160;* &#160;/ \n⇆ | 0 | 1}|RationalNumbers}">
<polygon fill="none" stroke="black" points="144.5,-942.5 144.5,-1026.5 286.5,-1026.5 286.5,-942.5 144.5,-942.5"/>
<text text-anchor="middle" x="215.5" y="-1011.3" font-family="Times,serif" font-size="14.00">ScalarField</text>
<polyline fill="none" stroke="black" points="144.5,-1003.5 286.5,-1003.5 "/>
<text text-anchor="middle" x="166.5" y="-988.3" font-family="Times,serif" font-size="14.00">+ &#45; </text>
<text text-anchor="middle" x="166.5" y="-973.3" font-family="Times,serif" font-size="14.00">⇆</text>
<polyline fill="none" stroke="black" points="188.5,-965.5 188.5,-1003.5 "/>
<text text-anchor="middle" x="208.5" y="-988.3" font-family="Times,serif" font-size="14.00">* / </text>
<text text-anchor="middle" x="208.5" y="-973.3" font-family="Times,serif" font-size="14.00">⇆</text>
<polyline fill="none" stroke="black" points="228.5,-965.5 228.5,-1003.5 "/>
<text text-anchor="middle" x="243" y="-980.8" font-family="Times,serif" font-size="14.00">0</text>
<polyline fill="none" stroke="black" points="257.5,-965.5 257.5,-1003.5 "/>
<text text-anchor="middle" x="272" y="-980.8" font-family="Times,serif" font-size="14.00">1</text>
<polyline fill="none" stroke="black" points="144.5,-965.5 286.5,-965.5 "/>
<text text-anchor="middle" x="215.5" y="-950.3" font-family="Times,serif" font-size="14.00">RationalNumbers</text>
</a>
</g>
</g>
<!-- ScalarField&#45;&gt;Field -->
<g id="edge19" class="edge">
<title>ScalarField&#45;&gt;Field</title>
<path fill="none" stroke="black" d="M215.5,-942.43C215.5,-933.94 215.5,-924.84 215.5,-915.85"/>
<polygon fill="none" stroke="black" points="219,-915.8 215.5,-905.8 212,-915.8 219,-915.8"/>
</g>
<!-- CompleteField -->
<g id="node17" class="node">
<title>CompleteField</title>
<g id="a_node17"><a xlink:href="https://github.com/mihxil/math/blob/main/mihxil-math/src/main/java/org/meeuw/math/abstractalgebra/CompleteField.java" xlink:title="{\N|{ + &#160;&#45; \n⇆ | &#160;* &#160;/ \n⇆ | 0 | 1}|RealField}">
<polygon fill="none" stroke="black" points="150,-1063.5 150,-1147.5 281,-1147.5 281,-1063.5 150,-1063.5"/>
<text text-anchor="middle" x="215.5" y="-1132.3" font-family="Times,serif" font-size="14.00">CompleteField</text>
<polyline fill="none" stroke="black" points="150,-1124.5 281,-1124.5 "/>
<text text-anchor="middle" x="171" y="-1109.3" font-family="Times,serif" font-size="14.00">+ &#45; </text>
<text text-anchor="middle" x="171" y="-1094.3" font-family="Times,serif" font-size="14.00">⇆</text>
<polyline fill="none" stroke="black" points="192,-1086.5 192,-1124.5 "/>
<text text-anchor="middle" x="210.5" y="-1109.3" font-family="Times,serif" font-size="14.00">* / </text>
<text text-anchor="middle" x="210.5" y="-1094.3" font-family="Times,serif" font-size="14.00">⇆</text>
<polyline fill="none" stroke="black" points="229,-1086.5 229,-1124.5 "/>
<text text-anchor="middle" x="242" y="-1101.8" font-family="Times,serif" font-size="14.00">0</text>
<polyline fill="none" stroke="black" points="255,-1086.5 255,-1124.5 "/>
<text text-anchor="middle" x="268" y="-1101.8" font-family="Times,serif" font-size="14.00">1</text>
<polyline fill="none" stroke="black" points="150,-1086.5 281,-1086.5 "/>
<text text-anchor="middle" x="215.5" y="-1071.3" font-family="Times,serif" font-size="14.00">RealField</text>
</a>
</g>
</g>
<!-- CompleteField&#45;&gt;ScalarField -->
<g id="edge20" class="edge">
<title>CompleteField&#45;&gt;ScalarField</title>
<path fill="none" stroke="black" d="M215.5,-1063.21C215.5,-1054.72 215.5,-1045.68 215.5,-1036.88"/>
<polygon fill="none" stroke="black" points="219,-1036.71 215.5,-1026.71 212,-1036.71 219,-1036.71"/>
</g>
</g>
</svg>
