<?xml version="1.0" encoding="UTF-8" standalone="no"?>
<!DOCTYPE svg PUBLIC "-//W3C//DTD SVG 1.1//EN"
 "http://www.w3.org/Graphics/SVG/1.1/DTD/svg11.dtd">
<!-- Generated by graphviz version 2.49.3 (20211027.1534)
 -->
<!-- Pages: 1 -->
<svg width="727pt" height="1212pt"
 viewBox="0.00 0.00 726.50 1212.00" xmlns="http://www.w3.org/2000/svg" xmlns:xlink="http://www.w3.org/1999/xlink">
<g id="graph0" class="graph" transform="scale(1 1) rotate(0) translate(4 1208)">
<polygon fill="white" stroke="transparent" points="-4,4 -4,-1208 722.5,-1208 722.5,4 -4,4"/>
<!-- Magma -->
<g id="node1" class="node">
<title>Magma</title>
<g id="a_node1_0"><a xlink:href="https://github.com/mihxil/math/blob/main/mihxil-math/src/main/java/org/meeuw/math/abstractalgebra/Magma.java" xlink:title="Magma">
<polygon fill="none" stroke="black" points="357.5,-74 357.5,-93 415.5,-93 415.5,-74 357.5,-74"/>
<text text-anchor="start" x="359.5" y="-79.8" font-family="Times,serif" font-size="14.00" fill="#0000a0">Magma</text>
</a>
</g>
<polygon fill="none" stroke="black" points="357.5,-55 357.5,-74 415.5,-74 415.5,-55 357.5,-55"/>
<text text-anchor="start" x="380.5" y="-60.8" font-family="Times,serif" font-size="14.00"> *</text>
</g>
<!-- AlgebraicStructure -->
<g id="node2" class="node">
<title>AlgebraicStructure</title>
<g id="a_node2_1"><a xlink:href="https://github.com/mihxil/math/blob/main/mihxil-math/src/main/java/org/meeuw/math/abstractalgebra/AlgebraicStructure.java" xlink:title="AlgebraicStructure">
<polygon fill="none" stroke="black" points="316.5,0.5 316.5,-18.5 457.5,-18.5 457.5,0.5 316.5,0.5"/>
<text text-anchor="start" x="318.5" y="-5.3" font-family="Times,serif" font-size="14.00" fill="#0000a0">AlgebraicStructure</text>
</a>
</g>
</g>
<!-- Magma&#45;&gt;AlgebraicStructure -->
<g id="edge1" class="edge">
<title>Magma&#45;&gt;AlgebraicStructure</title>
<path fill="none" stroke="black" d="M386.5,-54.92C386.5,-46.79 386.5,-37.21 386.5,-29.03"/>
<polygon fill="none" stroke="black" points="390,-29.01 386.5,-19.01 383,-29.01 390,-29.01"/>
</g>
<!-- Group -->
<g id="node3" class="node">
<title>Group</title>
<g id="a_node3_2"><a xlink:href="https://github.com/mihxil/math/blob/main/mihxil-math/src/main/java/org/meeuw/math/abstractalgebra/Group.java" xlink:title="Group">
<polygon fill="none" stroke="black" points="621.5,-260 621.5,-279 670.5,-279 670.5,-260 621.5,-260"/>
<text text-anchor="start" x="623.5" y="-265.8" font-family="Times,serif" font-size="14.00" fill="#0000a0">Group</text>
</a>
</g>
<polygon fill="none" stroke="black" points="621.5,-241 621.5,-260 646.5,-260 646.5,-241 621.5,-241"/>
<text text-anchor="start" x="628" y="-246.8" font-family="Times,serif" font-size="14.00"> *</text>
<polygon fill="none" stroke="black" points="646.5,-241 646.5,-260 670.5,-260 670.5,-241 646.5,-241"/>
<text text-anchor="start" x="653.5" y="-246.8" font-family="Times,serif" font-size="14.00">u</text>
<g id="a_node3_3"><a xlink:href="https://github.com/mihxil/math/blob/main/mihxil-algebra/src/main/java/org/meeuw/math/abstractalgebra/integers/Integers.java" xlink:title="Integers">
<polygon fill="none" stroke="black" points="621.5,-222 621.5,-241 670.5,-241 670.5,-222 621.5,-222"/>
<text text-anchor="start" x="640.5" y="-227.8" font-family="Times,serif" font-size="14.00" fill="#0000a0">ℤ</text>
</a>
</g>
<g id="a_node3_4"><a xlink:href="https://github.com/mihxil/math/blob/main/mihxil-algebra/src/main/java/org/meeuw/math/abstractalgebra/klein/KleinGroup.java" xlink:title="KleinGroup">
<polygon fill="none" stroke="black" points="621.5,-203 621.5,-222 670.5,-222 670.5,-203 621.5,-203"/>
<text text-anchor="start" x="641" y="-208.8" font-family="Times,serif" font-size="14.00" fill="#0000a0">V</text>
</a>
</g>
</g>
<!-- Group&#45;&gt;Magma -->
<g id="edge2" class="edge">
<title>Group&#45;&gt;Magma</title>
<path fill="none" stroke="black" d="M620.67,-224.18C574.85,-194.99 476.83,-132.55 423.28,-98.43"/>
<polygon fill="none" stroke="black" points="425.08,-95.43 414.77,-93.01 421.32,-101.33 425.08,-95.43"/>
</g>
<!-- AdditiveSemiGroup -->
<g id="node4" class="node">
<title>AdditiveSemiGroup</title>
<g id="a_node4_5"><a xlink:href="https://github.com/mihxil/math/blob/main/mihxil-math/src/main/java/org/meeuw/math/abstractalgebra/AdditiveSemiGroup.java" xlink:title="AdditiveSemiGroup">
<polygon fill="none" stroke="black" points="187.5,-148 187.5,-167 331.5,-167 331.5,-148 187.5,-148"/>
<text text-anchor="start" x="189.5" y="-153.8" font-family="Times,serif" font-size="14.00" fill="#0000a0">AdditiveSemiGroup</text>
</a>
</g>
<polygon fill="none" stroke="black" points="187.5,-129 187.5,-148 331.5,-148 331.5,-129 187.5,-129"/>
<text text-anchor="start" x="248.5" y="-134.8" font-family="Times,serif" font-size="14.00"> + </text>
</g>
<!-- AdditiveSemiGroup&#45;&gt;Magma -->
<g id="edge3" class="edge">
<title>AdditiveSemiGroup&#45;&gt;Magma</title>
<path fill="none" stroke="black" d="M291.55,-128.83C308.69,-119.11 329.93,-107.07 347.97,-96.84"/>
<polygon fill="none" stroke="black" points="350.1,-99.66 357.07,-91.68 346.65,-93.57 350.1,-99.66"/>
</g>
<!-- MultiplicativeSemiGroup -->
<g id="node5" class="node">
<title>MultiplicativeSemiGroup</title>
<g id="a_node5_6"><a xlink:href="https://github.com/mihxil/math/blob/main/mihxil-math/src/main/java/org/meeuw/math/abstractalgebra/MultiplicativeSemiGroup.java" xlink:title="MultiplicativeSemiGroup">
<polygon fill="none" stroke="black" points="279.5,-334 279.5,-353 463.5,-353 463.5,-334 279.5,-334"/>
<text text-anchor="start" x="281.5" y="-339.8" font-family="Times,serif" font-size="14.00" fill="#0000a0">MultiplicativeSemiGroup</text>
</a>
</g>
<polygon fill="none" stroke="black" points="279.5,-315 279.5,-334 463.5,-334 463.5,-315 279.5,-315"/>
<text text-anchor="start" x="364.5" y="-320.8" font-family="Times,serif" font-size="14.00"> ⋅ </text>
</g>
<!-- MultiplicativeSemiGroup&#45;&gt;Magma -->
<g id="edge4" class="edge">
<title>MultiplicativeSemiGroup&#45;&gt;Magma</title>
<path fill="none" stroke="black" d="M372.55,-314.86C375.13,-270.54 381.76,-156.51 384.86,-103.23"/>
<polygon fill="none" stroke="black" points="388.36,-103.31 385.45,-93.12 381.37,-102.9 388.36,-103.31"/>
</g>
<!-- Field -->
<g id="node6" class="node">
<title>Field</title>
<g id="a_node6_7"><a xlink:href="https://github.com/mihxil/math/blob/main/mihxil-math/src/main/java/org/meeuw/math/abstractalgebra/Field.java" xlink:title="Field">
<polygon fill="none" stroke="black" points="419.5,-950 419.5,-969 592.5,-969 592.5,-950 419.5,-950"/>
<text text-anchor="start" x="487.5" y="-955.8" font-family="Times,serif" font-size="14.00" fill="#0000a0">Field</text>
</a>
</g>
<polygon fill="none" stroke="black" points="419.5,-916 419.5,-950 480.5,-950 480.5,-916 419.5,-916"/>
<text text-anchor="start" x="432.5" y="-936.8" font-family="Times,serif" font-size="14.00"> + &#160;&#45; </text>
<text text-anchor="start" x="443.5" y="-921.8" font-family="Times,serif" font-size="14.00">⇆</text>
<polygon fill="none" stroke="black" points="480.5,-916 480.5,-950 523.5,-950 523.5,-916 480.5,-916"/>
<text text-anchor="start" x="488" y="-936.8" font-family="Times,serif" font-size="14.00"> ⋅ &#160;/ </text>
<text text-anchor="start" x="495.5" y="-921.8" font-family="Times,serif" font-size="14.00">⇆</text>
<polygon fill="none" stroke="black" points="523.5,-916 523.5,-950 544.5,-950 544.5,-916 523.5,-916"/>
<text text-anchor="start" x="528" y="-929.3" font-family="Times,serif" font-size="14.00"> *</text>
<polygon fill="none" stroke="black" points="544.5,-916 544.5,-950 561.5,-950 561.5,-916 544.5,-916"/>
<text text-anchor="start" x="548" y="-929.3" font-family="Times,serif" font-size="14.00">0</text>
<polygon fill="none" stroke="black" points="561.5,-916 561.5,-950 576.5,-950 576.5,-916 561.5,-916"/>
<text text-anchor="start" x="564" y="-929.3" font-family="Times,serif" font-size="14.00">1</text>
<polygon fill="none" stroke="black" points="576.5,-916 576.5,-950 592.5,-950 592.5,-916 576.5,-916"/>
<text text-anchor="start" x="579.5" y="-929.3" font-family="Times,serif" font-size="14.00">u</text>
<g id="a_node6_8"><a xlink:href="https://github.com/mihxil/math/blob/main/mihxil-algebra/src/main/java/org/meeuw/math/abstractalgebra/integers/ModuloField.java" xlink:title="ModuloField">
<polygon fill="none" stroke="black" points="419.5,-897 419.5,-916 592.5,-916 592.5,-897 419.5,-897"/>
<text text-anchor="start" x="488.5" y="-902.8" font-family="Times,serif" font-size="14.00" fill="#0000a0">ℤ/nℤ</text>
</a>
</g>
<g id="a_node6_9"><a xlink:href="https://github.com/mihxil/math/blob/main/mihxil-algebra/src/main/java/org/meeuw/math/abstractalgebra/complex/GaussianRationals.java" xlink:title="GaussianRationals">
<polygon fill="none" stroke="black" points="419.5,-878 419.5,-897 592.5,-897 592.5,-878 419.5,-878"/>
<text text-anchor="start" x="421.5" y="-883.8" font-family="Times,serif" font-size="14.00" fill="#0000a0">GaussianRationals ᵁ0(i)</text>
</a>
</g>
<g id="a_node6_10"><a xlink:href="https://github.com/mihxil/math/blob/main/mihxil-algebra/src/main/java/org/meeuw/math/abstractalgebra/integers/ModuloField.java" xlink:title="ModuloField">
<polygon fill="none" stroke="black" points="419.5,-859 419.5,-878 592.5,-878 592.5,-859 419.5,-859"/>
<text text-anchor="start" x="488.5" y="-864.8" font-family="Times,serif" font-size="14.00" fill="#0000a0">ℤ/3ℤ</text>
</a>
</g>
</g>
<!-- Field&#45;&gt;Group -->
<g id="edge5" class="edge">
<title>Field&#45;&gt;Group</title>
<path fill="none" stroke="black" d="M592.14,-860.7C651.11,-817.83 718.5,-751.19 718.5,-670.5 718.5,-670.5 718.5,-670.5 718.5,-424 718.5,-374.88 695.31,-323.32 675.08,-287.67"/>
<polygon fill="none" stroke="black" points="678.06,-285.85 670.01,-278.96 672.01,-289.37 678.06,-285.85"/>
</g>
<!-- DivisionRing -->
<g id="node7" class="node">
<title>DivisionRing</title>
<g id="a_node7_11"><a xlink:href="https://github.com/mihxil/math/blob/main/mihxil-math/src/main/java/org/meeuw/math/abstractalgebra/DivisionRing.java" xlink:title="DivisionRing">
<polygon fill="none" stroke="black" points="367.5,-804 367.5,-823 466.5,-823 466.5,-804 367.5,-804"/>
<text text-anchor="start" x="371.5" y="-809.8" font-family="Times,serif" font-size="14.00" fill="#0000a0">DivisionRing</text>
</a>
</g>
<polygon fill="none" stroke="black" points="367.5,-770 367.5,-804 406.5,-804 406.5,-770 367.5,-770"/>
<text text-anchor="start" x="369.5" y="-790.8" font-family="Times,serif" font-size="14.00"> + &#160;&#45; </text>
<text text-anchor="start" x="380.5" y="-775.8" font-family="Times,serif" font-size="14.00">⇆</text>
<polygon fill="none" stroke="black" points="406.5,-770 406.5,-804 438.5,-804 438.5,-770 406.5,-770"/>
<text text-anchor="start" x="408.5" y="-783.3" font-family="Times,serif" font-size="14.00"> ⋅ &#160;/ </text>
<polygon fill="none" stroke="black" points="438.5,-770 438.5,-804 452.5,-804 452.5,-770 438.5,-770"/>
<text text-anchor="start" x="440.5" y="-783.3" font-family="Times,serif" font-size="14.00">0</text>
<polygon fill="none" stroke="black" points="452.5,-770 452.5,-804 466.5,-804 466.5,-770 452.5,-770"/>
<text text-anchor="start" x="454.5" y="-783.3" font-family="Times,serif" font-size="14.00">1</text>
<g id="a_node7_12"><a xlink:href="https://github.com/mihxil/math/blob/main/mihxil-algebra/src/main/java/org/meeuw/math/abstractalgebra/quaternions/Quaternions.java" xlink:title="Quaternions">
<polygon fill="none" stroke="black" points="367.5,-751 367.5,-770 466.5,-770 466.5,-751 367.5,-751"/>
<text text-anchor="start" x="398.5" y="-756.8" font-family="Times,serif" font-size="14.00" fill="#0000a0">ℍ(ℚ)</text>
</a>
</g>
</g>
<!-- Field&#45;&gt;DivisionRing -->
<g id="edge6" class="edge">
<title>Field&#45;&gt;DivisionRing</title>
<path fill="none" stroke="black" d="M466.98,-858.9C460.43,-849.7 453.7,-840.25 447.38,-831.37"/>
<polygon fill="none" stroke="black" points="450.12,-829.18 441.47,-823.06 444.41,-833.24 450.12,-829.18"/>
</g>
<!-- DivisibleGroup -->
<g id="node8" class="node">
<title>DivisibleGroup</title>
<g id="a_node8_13"><a xlink:href="https://github.com/mihxil/math/blob/main/mihxil-math/src/main/java/org/meeuw/math/abstractalgebra/DivisibleGroup.java" xlink:title="DivisibleGroup">
<polygon fill="none" stroke="black" points="487.5,-794 487.5,-813 598.5,-813 598.5,-794 487.5,-794"/>
<text text-anchor="start" x="489.5" y="-799.8" font-family="Times,serif" font-size="14.00" fill="#0000a0">DivisibleGroup</text>
</a>
</g>
<polygon fill="none" stroke="black" points="487.5,-760 487.5,-794 551.5,-794 551.5,-760 487.5,-760"/>
<text text-anchor="start" x="505.5" y="-780.8" font-family="Times,serif" font-size="14.00"> ⋅ &#160;/ </text>
<text text-anchor="start" x="513" y="-765.8" font-family="Times,serif" font-size="14.00">⇆</text>
<polygon fill="none" stroke="black" points="551.5,-760 551.5,-794 598.5,-794 598.5,-760 551.5,-760"/>
<text text-anchor="start" x="570" y="-773.3" font-family="Times,serif" font-size="14.00">1</text>
</g>
<!-- Field&#45;&gt;DivisibleGroup -->
<g id="edge7" class="edge">
<title>Field&#45;&gt;DivisibleGroup</title>
<path fill="none" stroke="black" d="M521.51,-858.9C525.07,-846.88 528.76,-834.43 532.03,-823.39"/>
<polygon fill="none" stroke="black" points="535.41,-824.27 534.9,-813.69 528.7,-822.29 535.41,-824.27"/>
</g>
<!-- AbelianRing -->
<g id="node9" class="node">
<title>AbelianRing</title>
<g id="a_node9_14"><a xlink:href="https://github.com/mihxil/math/blob/main/mihxil-math/src/main/java/org/meeuw/math/abstractalgebra/AbelianRing.java" xlink:title="AbelianRing">
<polygon fill="none" stroke="black" points="258.5,-794 258.5,-813 349.5,-813 349.5,-794 258.5,-794"/>
<text text-anchor="start" x="260.5" y="-799.8" font-family="Times,serif" font-size="14.00" fill="#0000a0">AbelianRing</text>
</a>
</g>
<polygon fill="none" stroke="black" points="258.5,-760 258.5,-794 300.5,-794 300.5,-760 258.5,-760"/>
<text text-anchor="start" x="262" y="-780.8" font-family="Times,serif" font-size="14.00"> + &#160;&#45; </text>
<text text-anchor="start" x="273" y="-765.8" font-family="Times,serif" font-size="14.00">⇆</text>
<polygon fill="none" stroke="black" points="300.5,-760 300.5,-794 319.5,-794 319.5,-760 300.5,-760"/>
<text text-anchor="start" x="303" y="-780.8" font-family="Times,serif" font-size="14.00"> ⋅ </text>
<text text-anchor="start" x="303.5" y="-765.8" font-family="Times,serif" font-size="14.00">⇆</text>
<polygon fill="none" stroke="black" points="319.5,-760 319.5,-794 334.5,-794 334.5,-760 319.5,-760"/>
<text text-anchor="start" x="322" y="-773.3" font-family="Times,serif" font-size="14.00">0</text>
<polygon fill="none" stroke="black" points="334.5,-760 334.5,-794 349.5,-794 349.5,-760 334.5,-760"/>
<text text-anchor="start" x="337" y="-773.3" font-family="Times,serif" font-size="14.00">1</text>
</g>
<!-- Field&#45;&gt;AbelianRing -->
<g id="edge8" class="edge">
<title>Field&#45;&gt;AbelianRing</title>
<path fill="none" stroke="black" d="M418.77,-860.83C398.59,-848.53 377.24,-835.39 357.5,-823 355.54,-821.77 353.54,-820.51 351.53,-819.23"/>
<polygon fill="none" stroke="black" points="352.95,-815.99 342.64,-813.56 349.19,-821.89 352.95,-815.99"/>
</g>
<!-- MultiplicativeGroup -->
<g id="node18" class="node">
<title>MultiplicativeGroup</title>
<g id="a_node18_15"><a xlink:href="https://github.com/mihxil/math/blob/main/mihxil-math/src/main/java/org/meeuw/math/abstractalgebra/MultiplicativeGroup.java" xlink:title="MultiplicativeGroup">
<polygon fill="none" stroke="black" points="340.5,-561.5 340.5,-580.5 488.5,-580.5 488.5,-561.5 340.5,-561.5"/>
<text text-anchor="start" x="342.5" y="-567.3" font-family="Times,serif" font-size="14.00" fill="#0000a0">MultiplicativeGroup</text>
</a>
</g>
<polygon fill="none" stroke="black" points="340.5,-542.5 340.5,-561.5 423.5,-561.5 423.5,-542.5 340.5,-542.5"/>
<text text-anchor="start" x="368" y="-548.3" font-family="Times,serif" font-size="14.00"> ⋅ &#160;/ </text>
<polygon fill="none" stroke="black" points="423.5,-542.5 423.5,-561.5 488.5,-561.5 488.5,-542.5 423.5,-542.5"/>
<text text-anchor="start" x="451" y="-548.3" font-family="Times,serif" font-size="14.00">1</text>
<g id="a_node18_16"><a xlink:href="https://github.com/mihxil/math/blob/main/mihxil-algebra/src/main/java/org/meeuw/math/abstractalgebra/permutations/PermutationGroup.java" xlink:title="PermutationGroup">
<polygon fill="none" stroke="black" points="340.5,-523.5 340.5,-542.5 488.5,-542.5 488.5,-523.5 340.5,-523.5"/>
<text text-anchor="start" x="348" y="-529.3" font-family="Times,serif" font-size="14.00" fill="#0000a0">PermutationGroup</text>
</a>
</g>
<g id="a_node18_17"><a xlink:href="https://github.com/mihxil/math/blob/main/mihxil-algebra/src/main/java/org/meeuw/math/abstractalgebra/linear/GeneralLinearGroup.java" xlink:title="GeneralLinearGroup">
<polygon fill="none" stroke="black" points="340.5,-504.5 340.5,-523.5 488.5,-523.5 488.5,-504.5 340.5,-504.5"/>
<text text-anchor="start" x="390" y="-510.3" font-family="Times,serif" font-size="14.00" fill="#0000a0">GL₂(ℚ)</text>
</a>
</g>
</g>
<!-- DivisionRing&#45;&gt;MultiplicativeGroup -->
<g id="edge24" class="edge">
<title>DivisionRing&#45;&gt;MultiplicativeGroup</title>
<path fill="none" stroke="black" d="M416.21,-751C415.86,-708.93 415.28,-638.14 414.89,-591.12"/>
<polygon fill="none" stroke="black" points="418.39,-590.85 414.81,-580.88 411.39,-590.91 418.39,-590.85"/>
</g>
<!-- Ring -->
<g id="node19" class="node">
<title>Ring</title>
<g id="a_node19_18"><a xlink:href="https://github.com/mihxil/math/blob/main/mihxil-math/src/main/java/org/meeuw/math/abstractalgebra/Ring.java" xlink:title="Ring">
<polygon fill="none" stroke="black" points="240.5,-695.5 240.5,-714.5 367.5,-714.5 367.5,-695.5 240.5,-695.5"/>
<text text-anchor="start" x="287" y="-701.3" font-family="Times,serif" font-size="14.00" fill="#0000a0">Ring</text>
</a>
</g>
<polygon fill="none" stroke="black" points="240.5,-661.5 240.5,-695.5 300.5,-695.5 300.5,-661.5 240.5,-661.5"/>
<text text-anchor="start" x="253" y="-682.3" font-family="Times,serif" font-size="14.00"> + &#160;&#45; </text>
<text text-anchor="start" x="264" y="-667.3" font-family="Times,serif" font-size="14.00">⇆</text>
<polygon fill="none" stroke="black" points="300.5,-661.5 300.5,-695.5 328.5,-695.5 328.5,-661.5 300.5,-661.5"/>
<text text-anchor="start" x="307.5" y="-674.8" font-family="Times,serif" font-size="14.00"> ⋅ </text>
<polygon fill="none" stroke="black" points="328.5,-661.5 328.5,-695.5 347.5,-695.5 347.5,-661.5 328.5,-661.5"/>
<text text-anchor="start" x="333" y="-674.8" font-family="Times,serif" font-size="14.00">0</text>
<polygon fill="none" stroke="black" points="347.5,-661.5 347.5,-695.5 367.5,-695.5 367.5,-661.5 347.5,-661.5"/>
<text text-anchor="start" x="352.5" y="-674.8" font-family="Times,serif" font-size="14.00">1</text>
<g id="a_node19_19"><a xlink:href="https://github.com/mihxil/math/blob/main/mihxil-algebra/src/main/java/org/meeuw/math/abstractalgebra/integers/ModuloStructure.java" xlink:title="ModuloStructure">
<polygon fill="none" stroke="black" points="240.5,-642.5 240.5,-661.5 367.5,-661.5 367.5,-642.5 240.5,-642.5"/>
<text text-anchor="start" x="242.5" y="-648.3" font-family="Times,serif" font-size="14.00" fill="#0000a0">ModuloStructure</text>
</a>
</g>
<g id="a_node19_20"><a xlink:href="https://github.com/mihxil/math/blob/main/mihxil-algebra/src/main/java/org/meeuw/math/abstractalgebra/integers/Integers.java" xlink:title="Integers">
<polygon fill="none" stroke="black" points="240.5,-623.5 240.5,-642.5 367.5,-642.5 367.5,-623.5 240.5,-623.5"/>
<text text-anchor="start" x="298.5" y="-629.3" font-family="Times,serif" font-size="14.00" fill="#0000a0">ℤ</text>
</a>
</g>
</g>
<!-- DivisionRing&#45;&gt;Ring -->
<g id="edge25" class="edge">
<title>DivisionRing&#45;&gt;Ring</title>
<path fill="none" stroke="black" d="M381.98,-750.72C373.29,-741.84 363.78,-732.12 354.47,-722.6"/>
<polygon fill="none" stroke="black" points="356.91,-720.08 347.41,-715.38 351.9,-724.98 356.91,-720.08"/>
</g>
<!-- MultiplicativeAbelianGroup -->
<g id="node20" class="node">
<title>MultiplicativeAbelianGroup</title>
<g id="a_node20_21"><a xlink:href="https://github.com/mihxil/math/blob/main/mihxil-math/src/main/java/org/meeuw/math/abstractalgebra/MultiplicativeAbelianGroup.java" xlink:title="MultiplicativeAbelianGroup">
<polygon fill="none" stroke="black" points="443.5,-676.5 443.5,-695.5 644.5,-695.5 644.5,-676.5 443.5,-676.5"/>
<text text-anchor="start" x="445.5" y="-682.3" font-family="Times,serif" font-size="14.00" fill="#0000a0">MultiplicativeAbelianGroup</text>
</a>
</g>
<polygon fill="none" stroke="black" points="443.5,-642.5 443.5,-676.5 552.5,-676.5 552.5,-642.5 443.5,-642.5"/>
<text text-anchor="start" x="484" y="-663.3" font-family="Times,serif" font-size="14.00"> ⋅ &#160;/ </text>
<text text-anchor="start" x="491.5" y="-648.3" font-family="Times,serif" font-size="14.00">⇆</text>
<polygon fill="none" stroke="black" points="552.5,-642.5 552.5,-676.5 644.5,-676.5 644.5,-642.5 552.5,-642.5"/>
<text text-anchor="start" x="593.5" y="-655.8" font-family="Times,serif" font-size="14.00">1</text>
</g>
<!-- DivisibleGroup&#45;&gt;MultiplicativeAbelianGroup -->
<g id="edge27" class="edge">
<title>DivisibleGroup&#45;&gt;MultiplicativeAbelianGroup</title>
<path fill="none" stroke="black" d="M542.72,-760.37C542.86,-744.52 543.04,-723.93 543.19,-706.46"/>
<polygon fill="none" stroke="black" points="546.69,-706.09 543.28,-696.06 539.69,-706.03 546.69,-706.09"/>
</g>
<!-- AbelianRing&#45;&gt;Ring -->
<g id="edge26" class="edge">
<title>AbelianRing&#45;&gt;Ring</title>
<path fill="none" stroke="black" d="M303.5,-760.37C303.5,-749.98 303.5,-737.57 303.5,-725.33"/>
<polygon fill="none" stroke="black" points="307,-725.13 303.5,-715.13 300,-725.13 307,-725.13"/>
</g>
<!-- AdditiveAbelianSemiGroup -->
<g id="node10" class="node">
<title>AdditiveAbelianSemiGroup</title>
<g id="a_node10_22"><a xlink:href="https://github.com/mihxil/math/blob/main/mihxil-math/src/main/java/org/meeuw/math/abstractalgebra/AdditiveAbelianSemiGroup.java" xlink:title="AdditiveAbelianSemiGroup">
<polygon fill="none" stroke="black" points="161.5,-258 161.5,-277 358.5,-277 358.5,-258 161.5,-258"/>
<text text-anchor="start" x="163.5" y="-263.8" font-family="Times,serif" font-size="14.00" fill="#0000a0">AdditiveAbelianSemiGroup</text>
</a>
</g>
<polygon fill="none" stroke="black" points="161.5,-224 161.5,-258 358.5,-258 358.5,-224 161.5,-224"/>
<text text-anchor="start" x="249" y="-244.8" font-family="Times,serif" font-size="14.00"> + </text>
<text text-anchor="start" x="253.5" y="-229.8" font-family="Times,serif" font-size="14.00">⇆</text>
<g id="a_node10_23"><a xlink:href="https://github.com/mihxil/math/blob/main/mihxil-algebra/src/main/java/org/meeuw/math/abstractalgebra/integers/NegativeIntegers.java" xlink:title="NegativeIntegers">
<polygon fill="none" stroke="black" points="161.5,-205 161.5,-224 358.5,-224 358.5,-205 161.5,-205"/>
<text text-anchor="start" x="185" y="-210.8" font-family="Times,serif" font-size="14.00" fill="#0000a0">NegativeIntegers ℕ⁻</text>
</a>
</g>
</g>
<!-- AdditiveAbelianSemiGroup&#45;&gt;AdditiveSemiGroup -->
<g id="edge9" class="edge">
<title>AdditiveAbelianSemiGroup&#45;&gt;AdditiveSemiGroup</title>
<path fill="none" stroke="black" d="M259.5,-204.82C259.5,-195.71 259.5,-186.03 259.5,-177.33"/>
<polygon fill="none" stroke="black" points="263,-177.31 259.5,-167.31 256,-177.31 263,-177.31"/>
</g>
<!-- AdditiveMonoid -->
<g id="node11" class="node">
<title>AdditiveMonoid</title>
<g id="a_node11_24"><a xlink:href="https://github.com/mihxil/math/blob/main/mihxil-math/src/main/java/org/meeuw/math/abstractalgebra/AdditiveMonoid.java" xlink:title="AdditiveMonoid">
<polygon fill="none" stroke="black" points="0.5,-260 0.5,-279 143.5,-279 143.5,-260 0.5,-260"/>
<text text-anchor="start" x="15.5" y="-265.8" font-family="Times,serif" font-size="14.00" fill="#0000a0">AdditiveMonoid</text>
</a>
</g>
<polygon fill="none" stroke="black" points="0.5,-241 0.5,-260 77.5,-260 77.5,-241 0.5,-241"/>
<text text-anchor="start" x="28" y="-246.8" font-family="Times,serif" font-size="14.00"> + </text>
<polygon fill="none" stroke="black" points="77.5,-241 77.5,-260 143.5,-260 143.5,-241 77.5,-241"/>
<text text-anchor="start" x="105.5" y="-246.8" font-family="Times,serif" font-size="14.00">0</text>
<g id="a_node11_25"><a xlink:href="https://github.com/mihxil/math/blob/main/mihxil-algebra/src/main/java/org/meeuw/math/abstractalgebra/strings/StringMonoid.java" xlink:title="StringMonoid">
<polygon fill="none" stroke="black" points="0.5,-222 0.5,-241 143.5,-241 143.5,-222 0.5,-222"/>
<text text-anchor="start" x="22.5" y="-227.8" font-family="Times,serif" font-size="14.00" fill="#0000a0">StringMonoid</text>
</a>
</g>
<g id="a_node11_26"><a xlink:href="https://github.com/mihxil/math/blob/main/mihxil-algebra/src/main/java/org/meeuw/math/abstractalgebra/integers/NaturalNumbers.java" xlink:title="NaturalNumbers">
<polygon fill="none" stroke="black" points="0.5,-203 0.5,-222 143.5,-222 143.5,-203 0.5,-203"/>
<text text-anchor="start" x="2.5" y="-208.8" font-family="Times,serif" font-size="14.00" fill="#0000a0">NaturalNumbers ℕ</text>
</a>
</g>
</g>
<!-- AdditiveMonoid&#45;&gt;AdditiveSemiGroup -->
<g id="edge10" class="edge">
<title>AdditiveMonoid&#45;&gt;AdditiveSemiGroup</title>
<path fill="none" stroke="black" d="M143.11,-205.34C166.61,-193.96 192.1,-181.63 213.21,-171.41"/>
<polygon fill="none" stroke="black" points="214.8,-174.53 222.28,-167.02 211.75,-168.22 214.8,-174.53"/>
</g>
<!-- MultiplicativeMonoid -->
<g id="node12" class="node">
<title>MultiplicativeMonoid</title>
<g id="a_node12_27"><a xlink:href="https://github.com/mihxil/math/blob/main/mihxil-math/src/main/java/org/meeuw/math/abstractalgebra/MultiplicativeMonoid.java" xlink:title="MultiplicativeMonoid">
<polygon fill="none" stroke="black" points="278.5,-434 278.5,-453 435.5,-453 435.5,-434 278.5,-434"/>
<text text-anchor="start" x="280.5" y="-439.8" font-family="Times,serif" font-size="14.00" fill="#0000a0">MultiplicativeMonoid</text>
</a>
</g>
<polygon fill="none" stroke="black" points="278.5,-415 278.5,-434 358.5,-434 358.5,-415 278.5,-415"/>
<text text-anchor="start" x="311.5" y="-420.8" font-family="Times,serif" font-size="14.00"> ⋅ </text>
<polygon fill="none" stroke="black" points="358.5,-415 358.5,-434 435.5,-434 435.5,-415 358.5,-415"/>
<text text-anchor="start" x="392" y="-420.8" font-family="Times,serif" font-size="14.00">1</text>
<g id="a_node12_28"><a xlink:href="https://github.com/mihxil/math/blob/main/mihxil-algebra/src/main/java/org/meeuw/math/abstractalgebra/integers/OddIntegers.java" xlink:title="OddIntegers">
<polygon fill="none" stroke="black" points="278.5,-396 278.5,-415 435.5,-415 435.5,-396 278.5,-396"/>
<text text-anchor="start" x="299.5" y="-401.8" font-family="Times,serif" font-size="14.00" fill="#0000a0">OddIntegers ℕo</text>
</a>
</g>
</g>
<!-- MultiplicativeMonoid&#45;&gt;MultiplicativeSemiGroup -->
<g id="edge11" class="edge">
<title>MultiplicativeMonoid&#45;&gt;MultiplicativeSemiGroup</title>
<path fill="none" stroke="black" d="M361.16,-396.33C362.94,-385.76 364.97,-373.72 366.76,-363.12"/>
<polygon fill="none" stroke="black" points="370.24,-363.54 368.45,-353.1 363.34,-362.38 370.24,-363.54"/>
</g>
<!-- Rng -->
<g id="node13" class="node">
<title>Rng</title>
<g id="a_node13_29"><a xlink:href="https://github.com/mihxil/math/blob/main/mihxil-math/src/main/java/org/meeuw/math/abstractalgebra/Rng.java" xlink:title="Rng">
<polygon fill="none" stroke="black" points="187.5,-568.5 187.5,-587.5 312.5,-587.5 312.5,-568.5 187.5,-568.5"/>
<text text-anchor="start" x="235.5" y="-574.3" font-family="Times,serif" font-size="14.00" fill="#0000a0">Rng</text>
</a>
</g>
<polygon fill="none" stroke="black" points="187.5,-534.5 187.5,-568.5 253.5,-568.5 253.5,-534.5 187.5,-534.5"/>
<text text-anchor="start" x="203" y="-555.3" font-family="Times,serif" font-size="14.00"> + &#160;&#45; </text>
<text text-anchor="start" x="214" y="-540.3" font-family="Times,serif" font-size="14.00">⇆</text>
<polygon fill="none" stroke="black" points="253.5,-534.5 253.5,-568.5 284.5,-568.5 284.5,-534.5 253.5,-534.5"/>
<text text-anchor="start" x="262" y="-547.8" font-family="Times,serif" font-size="14.00"> ⋅ </text>
<polygon fill="none" stroke="black" points="284.5,-534.5 284.5,-568.5 312.5,-568.5 312.5,-534.5 284.5,-534.5"/>
<text text-anchor="start" x="293.5" y="-547.8" font-family="Times,serif" font-size="14.00">0</text>
<g id="a_node13_30"><a xlink:href="https://github.com/mihxil/math/blob/main/mihxil-algebra/src/main/java/org/meeuw/math/abstractalgebra/integers/EvenIntegers.java" xlink:title="EvenIntegers">
<polygon fill="none" stroke="black" points="187.5,-515.5 187.5,-534.5 312.5,-534.5 312.5,-515.5 187.5,-515.5"/>
<text text-anchor="start" x="189.5" y="-521.3" font-family="Times,serif" font-size="14.00" fill="#0000a0">EvenIntegers 2ℤ</text>
</a>
</g>
<g id="a_node13_31"><a xlink:href="https://github.com/mihxil/math/blob/main/mihxil-algebra/src/main/java/org/meeuw/math/abstractalgebra/integers/NDivisibleIntegers.java" xlink:title="NDivisibleIntegers">
<polygon fill="none" stroke="black" points="187.5,-496.5 187.5,-515.5 312.5,-515.5 312.5,-496.5 187.5,-496.5"/>
<text text-anchor="start" x="240" y="-502.3" font-family="Times,serif" font-size="14.00" fill="#0000a0">3ℤ</text>
</a>
</g>
</g>
<!-- Rng&#45;&gt;MultiplicativeSemiGroup -->
<g id="edge12" class="edge">
<title>Rng&#45;&gt;MultiplicativeSemiGroup</title>
<path fill="none" stroke="black" d="M244.64,-496.92C243.39,-464.27 246.77,-420.36 268.5,-389 277.69,-375.74 291.18,-365.49 305.39,-357.67"/>
<polygon fill="none" stroke="black" points="306.99,-360.79 314.3,-353.12 303.8,-354.56 306.99,-360.79"/>
</g>
<!-- AdditiveAbelianGroup -->
<g id="node14" class="node">
<title>AdditiveAbelianGroup</title>
<g id="a_node14_32"><a xlink:href="https://github.com/mihxil/math/blob/main/mihxil-math/src/main/java/org/meeuw/math/abstractalgebra/AdditiveAbelianGroup.java" xlink:title="AdditiveAbelianGroup">
<polygon fill="none" stroke="black" points="60.5,-432 60.5,-451 221.5,-451 221.5,-432 60.5,-432"/>
<text text-anchor="start" x="62.5" y="-437.8" font-family="Times,serif" font-size="14.00" fill="#0000a0">AdditiveAbelianGroup</text>
</a>
</g>
<polygon fill="none" stroke="black" points="60.5,-398 60.5,-432 153.5,-432 153.5,-398 60.5,-398"/>
<text text-anchor="start" x="89.5" y="-418.8" font-family="Times,serif" font-size="14.00"> + &#160;&#45; </text>
<text text-anchor="start" x="100.5" y="-403.8" font-family="Times,serif" font-size="14.00">⇆</text>
<polygon fill="none" stroke="black" points="153.5,-398 153.5,-432 221.5,-432 221.5,-398 153.5,-398"/>
<text text-anchor="start" x="182.5" y="-411.3" font-family="Times,serif" font-size="14.00">0</text>
</g>
<!-- Rng&#45;&gt;AdditiveAbelianGroup -->
<g id="edge13" class="edge">
<title>Rng&#45;&gt;AdditiveAbelianGroup</title>
<path fill="none" stroke="black" d="M207.36,-496.84C195.47,-484.24 182.74,-470.76 171.62,-458.98"/>
<polygon fill="none" stroke="black" points="173.98,-456.38 164.57,-451.51 168.89,-461.18 173.98,-456.38"/>
</g>
<!-- AdditiveAbelianGroup&#45;&gt;AdditiveAbelianSemiGroup -->
<g id="edge16" class="edge">
<title>AdditiveAbelianGroup&#45;&gt;AdditiveAbelianSemiGroup</title>
<path fill="none" stroke="black" d="M157.3,-398.31C176.37,-369.13 207.83,-321.02 230.81,-285.87"/>
<polygon fill="none" stroke="black" points="233.92,-287.52 236.46,-277.24 228.06,-283.69 233.92,-287.52"/>
</g>
<!-- AdditiveGroup -->
<g id="node17" class="node">
<title>AdditiveGroup</title>
<g id="a_node17_33"><a xlink:href="https://github.com/mihxil/math/blob/main/mihxil-math/src/main/java/org/meeuw/math/abstractalgebra/AdditiveGroup.java" xlink:title="AdditiveGroup">
<polygon fill="none" stroke="black" points="40.5,-334 40.5,-353 148.5,-353 148.5,-334 40.5,-334"/>
<text text-anchor="start" x="42.5" y="-339.8" font-family="Times,serif" font-size="14.00" fill="#0000a0">AdditiveGroup</text>
</a>
</g>
<polygon fill="none" stroke="black" points="40.5,-315 40.5,-334 106.5,-334 106.5,-315 40.5,-315"/>
<text text-anchor="start" x="56" y="-320.8" font-family="Times,serif" font-size="14.00"> + &#160;&#45; </text>
<polygon fill="none" stroke="black" points="106.5,-315 106.5,-334 148.5,-334 148.5,-315 106.5,-315"/>
<text text-anchor="start" x="122.5" y="-320.8" font-family="Times,serif" font-size="14.00">0</text>
</g>
<!-- AdditiveAbelianGroup&#45;&gt;AdditiveGroup -->
<g id="edge17" class="edge">
<title>AdditiveAbelianGroup&#45;&gt;AdditiveGroup</title>
<path fill="none" stroke="black" d="M127.19,-398.26C121.35,-386.95 114.48,-373.66 108.55,-362.19"/>
<polygon fill="none" stroke="black" points="111.54,-360.34 103.84,-353.06 105.32,-363.55 111.54,-360.34"/>
</g>
<!-- MultiplicativeAbelianSemiGroup -->
<g id="node15" class="node">
<title>MultiplicativeAbelianSemiGroup</title>
<g id="a_node15_34"><a xlink:href="https://github.com/mihxil/math/blob/main/mihxil-math/src/main/java/org/meeuw/math/abstractalgebra/MultiplicativeAbelianSemiGroup.java" xlink:title="MultiplicativeAbelianSemiGroup">
<polygon fill="none" stroke="black" points="453.5,-442 453.5,-461 690.5,-461 690.5,-442 453.5,-442"/>
<text text-anchor="start" x="455.5" y="-447.8" font-family="Times,serif" font-size="14.00" fill="#0000a0">MultiplicativeAbelianSemiGroup</text>
</a>
</g>
<polygon fill="none" stroke="black" points="453.5,-408 453.5,-442 690.5,-442 690.5,-408 453.5,-408"/>
<text text-anchor="start" x="565" y="-428.8" font-family="Times,serif" font-size="14.00"> ⋅ </text>
<text text-anchor="start" x="565.5" y="-413.8" font-family="Times,serif" font-size="14.00">⇆</text>
<g id="a_node15_35"><a xlink:href="https://github.com/mihxil/math/blob/main/mihxil-algebra/src/main/java/org/meeuw/math/abstractalgebra/integers/OddIntegers.java" xlink:title="OddIntegers">
<polygon fill="none" stroke="black" points="453.5,-389 453.5,-408 690.5,-408 690.5,-389 453.5,-389"/>
<text text-anchor="start" x="514.5" y="-394.8" font-family="Times,serif" font-size="14.00" fill="#0000a0">OddIntegers ℕo</text>
</a>
</g>
</g>
<!-- MultiplicativeAbelianSemiGroup&#45;&gt;MultiplicativeSemiGroup -->
<g id="edge14" class="edge">
<title>MultiplicativeAbelianSemiGroup&#45;&gt;MultiplicativeSemiGroup</title>
<path fill="none" stroke="black" d="M492.74,-388.95C468.65,-378.23 442.84,-366.74 421.24,-357.14"/>
<polygon fill="none" stroke="black" points="422.51,-353.87 411.96,-353 419.67,-360.27 422.51,-353.87"/>
</g>
<!-- ScalarField -->
<g id="node16" class="node">
<title>ScalarField</title>
<g id="a_node16_36"><a xlink:href="https://github.com/mihxil/math/blob/main/mihxil-math/src/main/java/org/meeuw/math/abstractalgebra/ScalarField.java" xlink:title="ScalarField">
<polygon fill="none" stroke="black" points="432.5,-1058 432.5,-1077 578.5,-1077 578.5,-1058 432.5,-1058"/>
<text text-anchor="start" x="464.5" y="-1063.8" font-family="Times,serif" font-size="14.00" fill="#0000a0">ScalarField</text>
</a>
</g>
<polygon fill="none" stroke="black" points="432.5,-1024 432.5,-1058 479.5,-1058 479.5,-1024 432.5,-1024"/>
<text text-anchor="start" x="438.5" y="-1044.8" font-family="Times,serif" font-size="14.00"> + &#160;&#45; </text>
<text text-anchor="start" x="449.5" y="-1029.8" font-family="Times,serif" font-size="14.00">⇆</text>
<polygon fill="none" stroke="black" points="479.5,-1024 479.5,-1058 515.5,-1058 515.5,-1024 479.5,-1024"/>
<text text-anchor="start" x="483.5" y="-1044.8" font-family="Times,serif" font-size="14.00"> ⋅ &#160;/ </text>
<text text-anchor="start" x="491" y="-1029.8" font-family="Times,serif" font-size="14.00">⇆</text>
<polygon fill="none" stroke="black" points="515.5,-1024 515.5,-1058 533.5,-1058 533.5,-1024 515.5,-1024"/>
<text text-anchor="start" x="518.5" y="-1037.3" font-family="Times,serif" font-size="14.00"> *</text>
<polygon fill="none" stroke="black" points="533.5,-1024 533.5,-1058 548.5,-1058 548.5,-1024 533.5,-1024"/>
<text text-anchor="start" x="536" y="-1037.3" font-family="Times,serif" font-size="14.00">0</text>
<polygon fill="none" stroke="black" points="548.5,-1024 548.5,-1058 563.5,-1058 563.5,-1024 548.5,-1024"/>
<text text-anchor="start" x="551" y="-1037.3" font-family="Times,serif" font-size="14.00">1</text>
<polygon fill="none" stroke="black" points="563.5,-1024 563.5,-1058 578.5,-1058 578.5,-1024 563.5,-1024"/>
<text text-anchor="start" x="566" y="-1037.3" font-family="Times,serif" font-size="14.00">u</text>
<g id="a_node16_37"><a xlink:href="https://github.com/mihxil/math/blob/main/mihxil-algebra/src/main/java/org/meeuw/math/abstractalgebra/rationalnumbers/RationalNumbers.java" xlink:title="RationalNumbers">
<polygon fill="none" stroke="black" points="432.5,-1005 432.5,-1024 578.5,-1024 578.5,-1005 432.5,-1005"/>
<text text-anchor="start" x="434.5" y="-1010.8" font-family="Times,serif" font-size="14.00" fill="#0000a0">RationalNumbers ℚ</text>
</a>
</g>
</g>
<!-- ScalarField&#45;&gt;Field -->
<g id="edge15" class="edge">
<title>ScalarField&#45;&gt;Field</title>
<path fill="none" stroke="black" d="M505.5,-1004.85C505.5,-996.77 505.5,-987.93 505.5,-979.05"/>
<polygon fill="none" stroke="black" points="509,-979.04 505.5,-969.04 502,-979.04 509,-979.04"/>
</g>
<!-- AdditiveGroup&#45;&gt;AdditiveMonoid -->
<g id="edge18" class="edge">
<title>AdditiveGroup&#45;&gt;AdditiveMonoid</title>
<path fill="none" stroke="black" d="M89.85,-314.58C87.96,-307.11 85.68,-298.1 83.38,-289.01"/>
<polygon fill="none" stroke="black" points="86.74,-288.02 80.9,-279.19 79.96,-289.74 86.74,-288.02"/>
</g>
<!-- MultiplicativeGroup&#45;&gt;MultiplicativeMonoid -->
<g id="edge19" class="edge">
<title>MultiplicativeGroup&#45;&gt;MultiplicativeMonoid</title>
<path fill="none" stroke="black" d="M395.83,-504.32C389.17,-491.05 381.67,-476.12 375.02,-462.88"/>
<polygon fill="none" stroke="black" points="377.97,-460.95 370.35,-453.58 371.71,-464.09 377.97,-460.95"/>
</g>
<!-- Ring&#45;&gt;Rng -->
<g id="edge20" class="edge">
<title>Ring&#45;&gt;Rng</title>
<path fill="none" stroke="black" d="M284.16,-623.73C280.51,-615.29 276.66,-606.38 272.91,-597.69"/>
<polygon fill="none" stroke="black" points="276.07,-596.17 268.89,-588.38 269.64,-598.95 276.07,-596.17"/>
</g>
<!-- MultiplicativeAbelianGroup&#45;&gt;MultiplicativeAbelianSemiGroup -->
<g id="edge21" class="edge">
<title>MultiplicativeAbelianGroup&#45;&gt;MultiplicativeAbelianSemiGroup</title>
<path fill="none" stroke="black" d="M546.5,-642.55C551.22,-601.63 560.46,-521.58 566.29,-471.1"/>
<polygon fill="none" stroke="black" points="569.78,-471.45 567.45,-461.12 562.82,-470.65 569.78,-471.45"/>
</g>
<!-- MultiplicativeAbelianGroup&#45;&gt;MultiplicativeGroup -->
<g id="edge22" class="edge">
<title>MultiplicativeAbelianGroup&#45;&gt;MultiplicativeGroup</title>
<path fill="none" stroke="black" d="M517.08,-642.9C500.82,-627.14 479.51,-606.49 460.53,-588.11"/>
<polygon fill="none" stroke="black" points="462.74,-585.37 453.12,-580.92 457.86,-590.39 462.74,-585.37"/>
</g>
<!-- CompleteField -->
<g id="node21" class="node">
<title>CompleteField</title>
<g id="a_node21_38"><a xlink:href="https://github.com/mihxil/math/blob/main/mihxil-math/src/main/java/org/meeuw/math/abstractalgebra/CompleteField.java" xlink:title="CompleteField">
<polygon fill="none" stroke="black" points="436.5,-1184.5 436.5,-1203.5 575.5,-1203.5 575.5,-1184.5 436.5,-1184.5"/>
<text text-anchor="start" x="453.5" y="-1190.3" font-family="Times,serif" font-size="14.00" fill="#0000a0">CompleteField</text>
</a>
</g>
<polygon fill="none" stroke="black" points="436.5,-1150.5 436.5,-1184.5 480.5,-1184.5 480.5,-1150.5 436.5,-1150.5"/>
<text text-anchor="start" x="441" y="-1171.3" font-family="Times,serif" font-size="14.00"> + &#160;&#45; </text>
<text text-anchor="start" x="452" y="-1156.3" font-family="Times,serif" font-size="14.00">⇆</text>
<polygon fill="none" stroke="black" points="480.5,-1150.5 480.5,-1184.5 514.5,-1184.5 514.5,-1150.5 480.5,-1150.5"/>
<text text-anchor="start" x="483.5" y="-1171.3" font-family="Times,serif" font-size="14.00"> ⋅ &#160;/ </text>
<text text-anchor="start" x="491" y="-1156.3" font-family="Times,serif" font-size="14.00">⇆</text>
<polygon fill="none" stroke="black" points="514.5,-1150.5 514.5,-1184.5 531.5,-1184.5 531.5,-1150.5 514.5,-1150.5"/>
<text text-anchor="start" x="517" y="-1163.8" font-family="Times,serif" font-size="14.00"> *</text>
<polygon fill="none" stroke="black" points="531.5,-1150.5 531.5,-1184.5 546.5,-1184.5 546.5,-1150.5 531.5,-1150.5"/>
<text text-anchor="start" x="534" y="-1163.8" font-family="Times,serif" font-size="14.00">0</text>
<polygon fill="none" stroke="black" points="546.5,-1150.5 546.5,-1184.5 560.5,-1184.5 560.5,-1150.5 546.5,-1150.5"/>
<text text-anchor="start" x="548.5" y="-1163.8" font-family="Times,serif" font-size="14.00">1</text>
<polygon fill="none" stroke="black" points="560.5,-1150.5 560.5,-1184.5 575.5,-1184.5 575.5,-1150.5 560.5,-1150.5"/>
<text text-anchor="start" x="563" y="-1163.8" font-family="Times,serif" font-size="14.00">u</text>
<g id="a_node21_39"><a xlink:href="https://github.com/mihxil/math/blob/main/mihxil-algebra/src/main/java/org/meeuw/math/abstractalgebra/reals/BigDecimalField.java" xlink:title="BigDecimalField">
<polygon fill="none" stroke="black" points="436.5,-1131.5 436.5,-1150.5 575.5,-1150.5 575.5,-1131.5 436.5,-1131.5"/>
<text text-anchor="start" x="438.5" y="-1137.3" font-family="Times,serif" font-size="14.00" fill="#0000a0">BigDecimalField ℝ</text>
</a>
</g>
<g id="a_node21_40"><a xlink:href="https://github.com/mihxil/math/blob/main/mihxil-algebra/src/main/java/org/meeuw/math/abstractalgebra/reals/RealField.java" xlink:title="RealField">
<polygon fill="none" stroke="black" points="436.5,-1112.5 436.5,-1131.5 575.5,-1131.5 575.5,-1112.5 436.5,-1112.5"/>
<text text-anchor="start" x="461" y="-1118.3" font-family="Times,serif" font-size="14.00" fill="#0000a0">RealField ℝₚ</text>
</a>
</g>
</g>
<!-- CompleteField&#45;&gt;ScalarField -->
<g id="edge23" class="edge">
<title>CompleteField&#45;&gt;ScalarField</title>
<path fill="none" stroke="black" d="M505.5,-1112.84C505.5,-1104.45 505.5,-1095.67 505.5,-1087.25"/>
<polygon fill="none" stroke="black" points="509,-1087.23 505.5,-1077.23 502,-1087.23 509,-1087.23"/>
</g>
<!-- VectorSpace -->
<g id="node22" class="node">
<title>VectorSpace</title>
<g id="a_node22_41"><a xlink:href="https://github.com/mihxil/math/blob/main/mihxil-math/src/main/java/org/meeuw/math/abstractalgebra/VectorSpace.java" xlink:title="VectorSpace">
<polygon fill="none" stroke="black" points="239.5,-940 239.5,-959 368.5,-959 368.5,-940 239.5,-940"/>
<text text-anchor="start" x="259.5" y="-945.8" font-family="Times,serif" font-size="14.00" fill="#0000a0">VectorSpace</text>
</a>
</g>
<polygon fill="none" stroke="black" points="239.5,-906 239.5,-940 300.5,-940 300.5,-906 239.5,-906"/>
<text text-anchor="start" x="252.5" y="-926.8" font-family="Times,serif" font-size="14.00"> + &#160;&#45; </text>
<text text-anchor="start" x="263.5" y="-911.8" font-family="Times,serif" font-size="14.00">⇆</text>
<polygon fill="none" stroke="black" points="300.5,-906 300.5,-940 329.5,-940 329.5,-906 300.5,-906"/>
<text text-anchor="start" x="308" y="-926.8" font-family="Times,serif" font-size="14.00"> ⋅ </text>
<text text-anchor="start" x="308.5" y="-911.8" font-family="Times,serif" font-size="14.00">⇆</text>
<polygon fill="none" stroke="black" points="329.5,-906 329.5,-940 348.5,-940 348.5,-906 329.5,-906"/>
<text text-anchor="start" x="334" y="-919.3" font-family="Times,serif" font-size="14.00">0</text>
<polygon fill="none" stroke="black" points="348.5,-906 348.5,-940 368.5,-940 368.5,-906 348.5,-906"/>
<text text-anchor="start" x="353.5" y="-919.3" font-family="Times,serif" font-size="14.00">1</text>
<g id="a_node22_42"><a xlink:href="https://github.com/mihxil/math/blob/main/mihxil-algebra/src/main/java/org/meeuw/math/abstractalgebra/dim3/Vector3Space.java" xlink:title="Vector3Space">
<polygon fill="none" stroke="black" points="239.5,-887 239.5,-906 368.5,-906 368.5,-887 239.5,-887"/>
<text text-anchor="start" x="241.5" y="-892.8" font-family="Times,serif" font-size="14.00" fill="#0000a0">Vector3Space ℝₚ³</text>
</a>
</g>
<g id="a_node22_43"><a xlink:href="https://github.com/mihxil/math/blob/main/mihxil-algebra/src/main/java/org/meeuw/math/abstractalgebra/vectorspace/NVectorSpace.java" xlink:title="NVectorSpace">
<polygon fill="none" stroke="black" points="239.5,-868 239.5,-887 368.5,-887 368.5,-868 239.5,-868"/>
<text text-anchor="start" x="295" y="-873.8" font-family="Times,serif" font-size="14.00" fill="#0000a0">ℚ³</text>
</a>
</g>
</g>
<!-- VectorSpace&#45;&gt;AbelianRing -->
<g id="edge28" class="edge">
<title>VectorSpace&#45;&gt;AbelianRing</title>
<path fill="none" stroke="black" d="M303.5,-868.23C303.5,-853.6 303.5,-837.56 303.5,-823.7"/>
<polygon fill="none" stroke="black" points="307,-823.57 303.5,-813.57 300,-823.57 307,-823.57"/>
</g>
</g>
</svg>
