<?xml version="1.0" encoding="UTF-8" standalone="no"?>
<!DOCTYPE svg PUBLIC "-//W3C//DTD SVG 1.1//EN"
 "http://www.w3.org/Graphics/SVG/1.1/DTD/svg11.dtd">
<!-- Generated by graphviz version 2.49.1 (20210923.0004)
 -->
<!-- Pages: 1 -->
<svg width="400pt" height="714pt"
 viewBox="0.00 0.00 400.00 714.00" xmlns="http://www.w3.org/2000/svg" xmlns:xlink="http://www.w3.org/1999/xlink">
<g id="graph0" class="graph" transform="scale(1 1) rotate(0) translate(4 710)">
<polygon fill="white" stroke="transparent" points="-4,4 -4,-710 396,-710 396,4 -4,4"/>
<!-- AlgebraicStructure -->
<g id="node1" class="node">
<title>AlgebraicStructure</title>
<polygon fill="none" stroke="black" points="126.5,-0.5 126.5,-46.5 249.5,-46.5 249.5,-0.5 126.5,-0.5"/>
<text text-anchor="middle" x="188" y="-31.3" font-family="Times,serif" font-size="14.00">AlgebraicStructure</text>
<polyline fill="none" stroke="black" points="126.5,-23.5 249.5,-23.5 "/>
<text text-anchor="middle" x="188" y="-8.3" font-family="Times,serif" font-size="14.00">no operators</text>
</g>
<!-- AdditiveSemiGroup -->
<g id="node2" class="node">
<title>AdditiveSemiGroup</title>
<polygon fill="none" stroke="black" points="77,-83.5 77,-129.5 207,-129.5 207,-83.5 77,-83.5"/>
<text text-anchor="middle" x="142" y="-114.3" font-family="Times,serif" font-size="14.00">AdditiveSemiGroup</text>
<polyline fill="none" stroke="black" points="77,-106.5 207,-106.5 "/>
<text text-anchor="middle" x="142" y="-91.3" font-family="Times,serif" font-size="14.00">+</text>
</g>
<!-- AdditiveSemiGroup&#45;&gt;AlgebraicStructure -->
<g id="edge1" class="edge">
<title>AdditiveSemiGroup&#45;&gt;AlgebraicStructure</title>
<path fill="none" stroke="black" d="M154.57,-83.37C159.44,-74.79 165.1,-64.83 170.36,-55.56"/>
<polygon fill="none" stroke="black" points="173.55,-57.03 175.45,-46.61 167.46,-53.57 173.55,-57.03"/>
</g>
<!-- AdditiveMonoid -->
<g id="node3" class="node">
<title>AdditiveMonoid</title>
<polygon fill="none" stroke="black" points="77,-166.5 77,-212.5 187,-212.5 187,-166.5 77,-166.5"/>
<text text-anchor="middle" x="132" y="-197.3" font-family="Times,serif" font-size="14.00">AdditiveMonoid</text>
<polyline fill="none" stroke="black" points="77,-189.5 187,-189.5 "/>
<text text-anchor="middle" x="132" y="-174.3" font-family="Times,serif" font-size="14.00">+, 0</text>
</g>
<!-- AdditiveMonoid&#45;&gt;AdditiveSemiGroup -->
<g id="edge2" class="edge">
<title>AdditiveMonoid&#45;&gt;AdditiveSemiGroup</title>
<path fill="none" stroke="black" d="M134.73,-166.37C135.75,-158.15 136.92,-148.66 138.02,-139.73"/>
<polygon fill="none" stroke="black" points="141.52,-139.96 139.27,-129.61 134.57,-139.1 141.52,-139.96"/>
</g>
<!-- AdditiveGroup -->
<g id="node4" class="node">
<title>AdditiveGroup</title>
<polygon fill="none" stroke="black" points="62.5,-249.5 62.5,-295.5 163.5,-295.5 163.5,-249.5 62.5,-249.5"/>
<text text-anchor="middle" x="113" y="-280.3" font-family="Times,serif" font-size="14.00">AdditiveGroup</text>
<polyline fill="none" stroke="black" points="62.5,-272.5 163.5,-272.5 "/>
<text text-anchor="middle" x="113" y="-257.3" font-family="Times,serif" font-size="14.00">+, &#45;, 0</text>
</g>
<!-- AdditiveGroup&#45;&gt;AdditiveMonoid -->
<g id="edge3" class="edge">
<title>AdditiveGroup&#45;&gt;AdditiveMonoid</title>
<path fill="none" stroke="black" d="M118.19,-249.37C120.14,-241.06 122.39,-231.45 124.51,-222.43"/>
<polygon fill="none" stroke="black" points="127.94,-223.14 126.81,-212.61 121.12,-221.54 127.94,-223.14"/>
</g>
<!-- AdditiveAbelianGroup -->
<g id="node5" class="node">
<title>AdditiveAbelianGroup</title>
<polygon fill="none" stroke="black" points="1,-332.5 1,-393.5 147,-393.5 147,-332.5 1,-332.5"/>
<text text-anchor="middle" x="74" y="-378.3" font-family="Times,serif" font-size="14.00">AdditiveAbelianGroup</text>
<polyline fill="none" stroke="black" points="1,-370.5 147,-370.5 "/>
<text text-anchor="middle" x="28" y="-355.3" font-family="Times,serif" font-size="14.00">+</text>
<text text-anchor="middle" x="28" y="-340.3" font-family="Times,serif" font-size="14.00">↔</text>
<polyline fill="none" stroke="black" points="55,-332.5 55,-370.5 "/>
<text text-anchor="middle" x="77.5" y="-347.8" font-family="Times,serif" font-size="14.00">&#45;</text>
<polyline fill="none" stroke="black" points="100,-332.5 100,-370.5 "/>
<text text-anchor="middle" x="123.5" y="-347.8" font-family="Times,serif" font-size="14.00">0</text>
</g>
<!-- AdditiveAbelianGroup&#45;&gt;AdditiveGroup -->
<g id="edge4" class="edge">
<title>AdditiveAbelianGroup&#45;&gt;AdditiveGroup</title>
<path fill="none" stroke="black" d="M87.2,-332.04C91.07,-323.27 95.3,-313.67 99.2,-304.82"/>
<polygon fill="none" stroke="black" points="102.43,-306.16 103.26,-295.6 96.03,-303.34 102.43,-306.16"/>
</g>
<!-- Rng -->
<g id="node6" class="node">
<title>Rng</title>
<polygon fill="none" stroke="black" points="69.5,-430.5 69.5,-476.5 126.5,-476.5 126.5,-430.5 69.5,-430.5"/>
<text text-anchor="middle" x="98" y="-461.3" font-family="Times,serif" font-size="14.00">Rng</text>
<polyline fill="none" stroke="black" points="69.5,-453.5 126.5,-453.5 "/>
<text text-anchor="middle" x="98" y="-438.3" font-family="Times,serif" font-size="14.00">+,&#45;,*, 0</text>
</g>
<!-- Rng&#45;&gt;AdditiveAbelianGroup -->
<g id="edge6" class="edge">
<title>Rng&#45;&gt;AdditiveAbelianGroup</title>
<path fill="none" stroke="black" d="M91.94,-430.17C89.74,-422.05 87.18,-412.6 84.7,-403.44"/>
<polygon fill="none" stroke="black" points="88.05,-402.42 82.05,-393.68 81.29,-404.25 88.05,-402.42"/>
</g>
<!-- MultiplicativeSemiGroup -->
<g id="node9" class="node">
<title>MultiplicativeSemiGroup</title>
<polygon fill="none" stroke="black" points="165,-345 165,-381 325,-381 325,-345 165,-345"/>
<text text-anchor="middle" x="245" y="-359.3" font-family="Times,serif" font-size="14.00">MultiplicativeSemiGroup</text>
</g>
<!-- Rng&#45;&gt;MultiplicativeSemiGroup -->
<g id="edge7" class="edge">
<title>Rng&#45;&gt;MultiplicativeSemiGroup</title>
<path fill="none" stroke="black" d="M126.69,-435.23C149.94,-421.23 182.85,-401.42 208.06,-386.24"/>
<polygon fill="none" stroke="black" points="209.87,-389.24 216.63,-381.08 206.26,-383.24 209.87,-389.24"/>
</g>
<!-- Ring -->
<g id="node7" class="node">
<title>Ring</title>
<polygon fill="none" stroke="black" points="58.5,-513.5 58.5,-559.5 137.5,-559.5 137.5,-513.5 58.5,-513.5"/>
<text text-anchor="middle" x="98" y="-544.3" font-family="Times,serif" font-size="14.00">Ring</text>
<polyline fill="none" stroke="black" points="58.5,-536.5 137.5,-536.5 "/>
<text text-anchor="middle" x="98" y="-521.3" font-family="Times,serif" font-size="14.00">+ ↔,,&#45;,*, 0</text>
</g>
<!-- Ring&#45;&gt;Rng -->
<g id="edge5" class="edge">
<title>Ring&#45;&gt;Rng</title>
<path fill="none" stroke="black" d="M98,-513.37C98,-505.15 98,-495.66 98,-486.73"/>
<polygon fill="none" stroke="black" points="101.5,-486.61 98,-476.61 94.5,-486.61 101.5,-486.61"/>
</g>
<!-- DivisionRing -->
<g id="node8" class="node">
<title>DivisionRing</title>
<polygon fill="none" stroke="black" points="106,-596.5 106,-632.5 198,-632.5 198,-596.5 106,-596.5"/>
<text text-anchor="middle" x="152" y="-610.8" font-family="Times,serif" font-size="14.00">DivisionRing</text>
</g>
<!-- DivisionRing&#45;&gt;Ring -->
<g id="edge8" class="edge">
<title>DivisionRing&#45;&gt;Ring</title>
<path fill="none" stroke="black" d="M139.75,-596.25C133.78,-587.85 126.42,-577.5 119.56,-567.84"/>
<polygon fill="none" stroke="black" points="122.34,-565.72 113.7,-559.59 116.64,-569.77 122.34,-565.72"/>
</g>
<!-- MultiplicativeGroup -->
<g id="node11" class="node">
<title>MultiplicativeGroup</title>
<polygon fill="none" stroke="black" points="179,-518.5 179,-554.5 311,-554.5 311,-518.5 179,-518.5"/>
<text text-anchor="middle" x="245" y="-532.8" font-family="Times,serif" font-size="14.00">MultiplicativeGroup</text>
</g>
<!-- DivisionRing&#45;&gt;MultiplicativeGroup -->
<g id="edge9" class="edge">
<title>DivisionRing&#45;&gt;MultiplicativeGroup</title>
<path fill="none" stroke="black" d="M173.1,-596.25C185.83,-585.86 202.21,-572.47 216.12,-561.1"/>
<polygon fill="none" stroke="black" points="218.45,-563.72 223.98,-554.68 214.02,-558.3 218.45,-563.72"/>
</g>
<!-- MultiplicativeSemiGroup&#45;&gt;AlgebraicStructure -->
<g id="edge11" class="edge">
<title>MultiplicativeSemiGroup&#45;&gt;AlgebraicStructure</title>
<path fill="none" stroke="black" d="M245.23,-344.96C245.41,-300.78 243.17,-179.32 216,-83 213.4,-73.77 209.42,-64.2 205.28,-55.55"/>
<polygon fill="none" stroke="black" points="208.39,-53.94 200.78,-46.57 202.14,-57.08 208.39,-53.94"/>
</g>
<!-- MultiplicativeMonoid -->
<g id="node10" class="node">
<title>MultiplicativeMonoid</title>
<polygon fill="none" stroke="black" points="175,-435.5 175,-471.5 315,-471.5 315,-435.5 175,-435.5"/>
<text text-anchor="middle" x="245" y="-449.8" font-family="Times,serif" font-size="14.00">MultiplicativeMonoid</text>
</g>
<!-- MultiplicativeMonoid&#45;&gt;MultiplicativeSemiGroup -->
<g id="edge12" class="edge">
<title>MultiplicativeMonoid&#45;&gt;MultiplicativeSemiGroup</title>
<path fill="none" stroke="black" d="M245,-435.44C245,-422.95 245,-405.74 245,-391.35"/>
<polygon fill="none" stroke="black" points="248.5,-391.01 245,-381.01 241.5,-391.01 248.5,-391.01"/>
</g>
<!-- MultiplicativeGroup&#45;&gt;MultiplicativeMonoid -->
<g id="edge13" class="edge">
<title>MultiplicativeGroup&#45;&gt;MultiplicativeMonoid</title>
<path fill="none" stroke="black" d="M245,-518.32C245,-507.69 245,-493.81 245,-481.7"/>
<polygon fill="none" stroke="black" points="248.5,-481.65 245,-471.65 241.5,-481.65 248.5,-481.65"/>
</g>
<!-- MultiplicativeAbelianGroup -->
<g id="node12" class="node">
<title>MultiplicativeAbelianGroup</title>
<polygon fill="none" stroke="black" points="216,-596.5 216,-632.5 392,-632.5 392,-596.5 216,-596.5"/>
<text text-anchor="middle" x="304" y="-610.8" font-family="Times,serif" font-size="14.00">MultiplicativeAbelianGroup</text>
</g>
<!-- MultiplicativeAbelianGroup&#45;&gt;MultiplicativeGroup -->
<g id="edge14" class="edge">
<title>MultiplicativeAbelianGroup&#45;&gt;MultiplicativeGroup</title>
<path fill="none" stroke="black" d="M290.61,-596.25C282.92,-586.34 273.11,-573.71 264.57,-562.71"/>
<polygon fill="none" stroke="black" points="267.23,-560.43 258.34,-554.68 261.7,-564.72 267.23,-560.43"/>
</g>
<!-- Field -->
<g id="node13" class="node">
<title>Field</title>
<polygon fill="none" stroke="black" points="125,-669.5 125,-705.5 179,-705.5 179,-669.5 125,-669.5"/>
<text text-anchor="middle" x="152" y="-683.8" font-family="Times,serif" font-size="14.00">Field</text>
</g>
<!-- Field&#45;&gt;DivisionRing -->
<g id="edge15" class="edge">
<title>Field&#45;&gt;DivisionRing</title>
<path fill="none" stroke="black" d="M152,-669.31C152,-661.29 152,-651.55 152,-642.57"/>
<polygon fill="none" stroke="black" points="155.5,-642.53 152,-632.53 148.5,-642.53 155.5,-642.53"/>
</g>
<!-- Field&#45;&gt;MultiplicativeAbelianGroup -->
<g id="edge16" class="edge">
<title>Field&#45;&gt;MultiplicativeAbelianGroup</title>
<path fill="none" stroke="black" d="M179.17,-673.81C201.08,-663.58 232.36,-648.96 258.13,-636.92"/>
<polygon fill="none" stroke="black" points="259.77,-640.02 267.35,-632.62 256.81,-633.68 259.77,-640.02"/>
</g>
<!-- AbelianRing -->
<g id="node14" class="node">
<title>AbelianRing</title>
<polygon fill="none" stroke="black" points="0,-596.5 0,-632.5 88,-632.5 88,-596.5 0,-596.5"/>
<text text-anchor="middle" x="44" y="-610.8" font-family="Times,serif" font-size="14.00">AbelianRing</text>
</g>
<!-- Field&#45;&gt;AbelianRing -->
<g id="edge17" class="edge">
<title>Field&#45;&gt;AbelianRing</title>
<path fill="none" stroke="black" d="M126.13,-669.49C111.94,-660.17 94.16,-648.47 78.77,-638.36"/>
<polygon fill="none" stroke="black" points="80.31,-635.18 70.03,-632.61 76.47,-641.03 80.31,-635.18"/>
</g>
<!-- AbelianRing&#45;&gt;Ring -->
<g id="edge10" class="edge">
<title>AbelianRing&#45;&gt;Ring</title>
<path fill="none" stroke="black" d="M56.25,-596.25C62.22,-587.85 69.58,-577.5 76.44,-567.84"/>
<polygon fill="none" stroke="black" points="79.36,-569.77 82.3,-559.59 73.66,-565.72 79.36,-569.77"/>
</g>
</g>
</svg>
