<?xml version="1.0" encoding="UTF-8" standalone="no"?>
<!DOCTYPE svg PUBLIC "-//W3C//DTD SVG 1.1//EN"
 "http://www.w3.org/Graphics/SVG/1.1/DTD/svg11.dtd">
<!-- Generated by graphviz version 2.49.3 (20211027.1534)
 -->
<!-- Pages: 1 -->
<svg width="1053pt" height="1262pt"
 viewBox="0.00 0.00 1052.50 1262.00" xmlns="http://www.w3.org/2000/svg" xmlns:xlink="http://www.w3.org/1999/xlink">
<g id="graph0" class="graph" transform="scale(1 1) rotate(0) translate(4 1258)">
<polygon fill="white" stroke="transparent" points="-4,4 -4,-1258 1048.5,-1258 1048.5,4 -4,4"/>
<!-- Group -->
<g id="node1" class="node">
<title>Group</title>
<g id="a_node1"><a xlink:href="https://github.com/mihxil/math/blob/main/mihxil-math/src/main/java/org/meeuw/math/abstractalgebra/Group.java" xlink:title="{\N|{}|org.meeuw.math.abstractalgebra.klein.KleinGroup@48e41b5d}">
<polygon fill="none" stroke="black" points="0,-73.5 0,-142.5 464,-142.5 464,-73.5 0,-73.5"/>
<text text-anchor="middle" x="232" y="-127.3" font-family="Times,serif" font-size="14.00">Group</text>
<polyline fill="none" stroke="black" points="0,-119.5 464,-119.5 "/>
<text text-anchor="middle" x="232" y="-104.3" font-family="Times,serif" font-size="14.00"> </text>
<polyline fill="none" stroke="black" points="0,-96.5 464,-96.5 "/>
<text text-anchor="middle" x="232" y="-81.3" font-family="Times,serif" font-size="14.00">org.meeuw.math.abstractalgebra.klein.KleinGroup@48e41b5d</text>
</a>
</g>
</g>
<!-- AlgebraicStructure -->
<g id="node2" class="node">
<title>AlgebraicStructure</title>
<polygon fill="none" stroke="black" points="483.5,-0.5 483.5,-36.5 636.5,-36.5 636.5,-0.5 483.5,-0.5"/>
<text text-anchor="middle" x="560" y="-14.8" font-family="Times,serif" font-size="14.00">AlgebraicStructure</text>
</g>
<!-- Group&#45;&gt;AlgebraicStructure -->
<g id="edge1" class="edge">
<title>Group&#45;&gt;AlgebraicStructure</title>
<path fill="none" stroke="black" d="M357.88,-73.42C401.16,-61.87 448.19,-49.33 485.99,-39.24"/>
<polygon fill="none" stroke="black" points="487.13,-42.56 495.89,-36.6 485.33,-35.8 487.13,-42.56"/>
</g>
<!-- AdditiveSemiGroup -->
<g id="node3" class="node">
<title>AdditiveSemiGroup</title>
<g id="a_node3"><a xlink:href="https://github.com/mihxil/math/blob/main/mihxil-math/src/main/java/org/meeuw/math/abstractalgebra/AdditiveSemiGroup.java" xlink:title="{\N|{ + }}">
<polygon fill="none" stroke="black" points="482,-85 482,-131 638,-131 638,-85 482,-85"/>
<text text-anchor="middle" x="560" y="-115.8" font-family="Times,serif" font-size="14.00">AdditiveSemiGroup</text>
<polyline fill="none" stroke="black" points="482,-108 638,-108 "/>
<text text-anchor="middle" x="560" y="-92.8" font-family="Times,serif" font-size="14.00">+</text>
</a>
</g>
</g>
<!-- AdditiveSemiGroup&#45;&gt;AlgebraicStructure -->
<g id="edge2" class="edge">
<title>AdditiveSemiGroup&#45;&gt;AlgebraicStructure</title>
<path fill="none" stroke="black" d="M560,-84.92C560,-73.33 560,-59.02 560,-46.75"/>
<polygon fill="none" stroke="black" points="563.5,-46.6 560,-36.6 556.5,-46.6 563.5,-46.6"/>
</g>
<!-- MultiplicativeSemiGroup -->
<g id="node4" class="node">
<title>MultiplicativeSemiGroup</title>
<g id="a_node4"><a xlink:href="https://github.com/mihxil/math/blob/main/mihxil-math/src/main/java/org/meeuw/math/abstractalgebra/MultiplicativeSemiGroup.java" xlink:title="{\N|{ ⋅ }}">
<polygon fill="none" stroke="black" points="595,-300.5 595,-346.5 791,-346.5 791,-300.5 595,-300.5"/>
<text text-anchor="middle" x="693" y="-331.3" font-family="Times,serif" font-size="14.00">MultiplicativeSemiGroup</text>
<polyline fill="none" stroke="black" points="595,-323.5 791,-323.5 "/>
<text text-anchor="middle" x="693" y="-308.3" font-family="Times,serif" font-size="14.00">⋅</text>
</a>
</g>
</g>
<!-- MultiplicativeSemiGroup&#45;&gt;AlgebraicStructure -->
<g id="edge3" class="edge">
<title>MultiplicativeSemiGroup&#45;&gt;AlgebraicStructure</title>
<path fill="none" stroke="black" d="M694.97,-300.34C697.94,-253.52 698.56,-143.06 647,-73 637.52,-60.11 623.91,-49.66 610.26,-41.54"/>
<polygon fill="none" stroke="black" points="611.77,-38.37 601.33,-36.53 608.34,-44.47 611.77,-38.37"/>
</g>
<!-- AdditiveAbelianSemiGroup -->
<g id="node5" class="node">
<title>AdditiveAbelianSemiGroup</title>
<g id="a_node5"><a xlink:href="https://github.com/mihxil/math/blob/main/mihxil-math/src/main/java/org/meeuw/math/abstractalgebra/AdditiveAbelianSemiGroup.java" xlink:title="{\N|{ + \n⇆}|NegativeIntegers ℕ⁻}">
<polygon fill="none" stroke="black" points="455.5,-179.5 455.5,-263.5 664.5,-263.5 664.5,-179.5 455.5,-179.5"/>
<text text-anchor="middle" x="560" y="-248.3" font-family="Times,serif" font-size="14.00">AdditiveAbelianSemiGroup</text>
<polyline fill="none" stroke="black" points="455.5,-240.5 664.5,-240.5 "/>
<text text-anchor="middle" x="560" y="-225.3" font-family="Times,serif" font-size="14.00">+ </text>
<text text-anchor="middle" x="560" y="-210.3" font-family="Times,serif" font-size="14.00">⇆</text>
<polyline fill="none" stroke="black" points="455.5,-202.5 664.5,-202.5 "/>
<text text-anchor="middle" x="560" y="-187.3" font-family="Times,serif" font-size="14.00">NegativeIntegers ℕ⁻</text>
</a>
</g>
</g>
<!-- AdditiveAbelianSemiGroup&#45;&gt;AdditiveSemiGroup -->
<g id="edge4" class="edge">
<title>AdditiveAbelianSemiGroup&#45;&gt;AdditiveSemiGroup</title>
<path fill="none" stroke="black" d="M560,-179.3C560,-166.85 560,-153.37 560,-141.57"/>
<polygon fill="none" stroke="black" points="563.5,-141.29 560,-131.29 556.5,-141.29 563.5,-141.29"/>
</g>
<!-- AdditiveMonoid -->
<g id="node6" class="node">
<title>AdditiveMonoid</title>
<g id="a_node6"><a xlink:href="https://github.com/mihxil/math/blob/main/mihxil-math/src/main/java/org/meeuw/math/abstractalgebra/AdditiveMonoid.java" xlink:title="{\N|{ + &#160;| 0}|StringMonoid\nNaturalNumbers ℕ}">
<polygon fill="none" stroke="black" points="282.5,-179.5 282.5,-263.5 437.5,-263.5 437.5,-179.5 282.5,-179.5"/>
<text text-anchor="middle" x="360" y="-248.3" font-family="Times,serif" font-size="14.00">AdditiveMonoid</text>
<polyline fill="none" stroke="black" points="282.5,-240.5 437.5,-240.5 "/>
<text text-anchor="middle" x="322" y="-225.3" font-family="Times,serif" font-size="14.00">+</text>
<polyline fill="none" stroke="black" points="361.5,-217.5 361.5,-240.5 "/>
<text text-anchor="middle" x="399.5" y="-225.3" font-family="Times,serif" font-size="14.00">0</text>
<polyline fill="none" stroke="black" points="282.5,-217.5 437.5,-217.5 "/>
<text text-anchor="middle" x="360" y="-202.3" font-family="Times,serif" font-size="14.00">StringMonoid</text>
<text text-anchor="middle" x="360" y="-187.3" font-family="Times,serif" font-size="14.00">NaturalNumbers ℕ</text>
</a>
</g>
</g>
<!-- AdditiveMonoid&#45;&gt;AdditiveSemiGroup -->
<g id="edge5" class="edge">
<title>AdditiveMonoid&#45;&gt;AdditiveSemiGroup</title>
<path fill="none" stroke="black" d="M433.62,-179.46C459.58,-164.98 488.09,-149.09 511.45,-136.06"/>
<polygon fill="none" stroke="black" points="513.44,-138.97 520.47,-131.04 510.03,-132.85 513.44,-138.97"/>
</g>
<!-- MultiplicativeMonoid -->
<g id="node7" class="node">
<title>MultiplicativeMonoid</title>
<g id="a_node7"><a xlink:href="https://github.com/mihxil/math/blob/main/mihxil-math/src/main/java/org/meeuw/math/abstractalgebra/MultiplicativeMonoid.java" xlink:title="{\N|{ ⋅ &#160;| 1}|OddIntegers ℕo}">
<polygon fill="none" stroke="black" points="608.5,-391 608.5,-460 777.5,-460 777.5,-391 608.5,-391"/>
<text text-anchor="middle" x="693" y="-444.8" font-family="Times,serif" font-size="14.00">MultiplicativeMonoid</text>
<polyline fill="none" stroke="black" points="608.5,-437 777.5,-437 "/>
<text text-anchor="middle" x="649.5" y="-421.8" font-family="Times,serif" font-size="14.00">⋅</text>
<polyline fill="none" stroke="black" points="690.5,-414 690.5,-437 "/>
<text text-anchor="middle" x="734" y="-421.8" font-family="Times,serif" font-size="14.00">1</text>
<polyline fill="none" stroke="black" points="608.5,-414 777.5,-414 "/>
<text text-anchor="middle" x="693" y="-398.8" font-family="Times,serif" font-size="14.00">OddIntegers ℕo</text>
</a>
</g>
</g>
<!-- MultiplicativeMonoid&#45;&gt;MultiplicativeSemiGroup -->
<g id="edge6" class="edge">
<title>MultiplicativeMonoid&#45;&gt;MultiplicativeSemiGroup</title>
<path fill="none" stroke="black" d="M693,-390.92C693,-379.83 693,-367.52 693,-356.55"/>
<polygon fill="none" stroke="black" points="696.5,-356.51 693,-346.51 689.5,-356.51 696.5,-356.51"/>
</g>
<!-- Rng -->
<g id="node8" class="node">
<title>Rng</title>
<g id="a_node8"><a xlink:href="https://github.com/mihxil/math/blob/main/mihxil-math/src/main/java/org/meeuw/math/abstractalgebra/Rng.java" xlink:title="{\N|{ + &#160;&#45; \n⇆ | &#160;⋅ &#160;| 0}|EvenIntegers 2ℤ\nNDivisibleIntegers}">
<polygon fill="none" stroke="black" points="473.5,-504.5 473.5,-603.5 624.5,-603.5 624.5,-504.5 473.5,-504.5"/>
<text text-anchor="middle" x="549" y="-588.3" font-family="Times,serif" font-size="14.00">Rng</text>
<polyline fill="none" stroke="black" points="473.5,-580.5 624.5,-580.5 "/>
<text text-anchor="middle" x="504.5" y="-565.3" font-family="Times,serif" font-size="14.00">+ &#45; </text>
<text text-anchor="middle" x="504.5" y="-550.3" font-family="Times,serif" font-size="14.00">⇆</text>
<polyline fill="none" stroke="black" points="535.5,-542.5 535.5,-580.5 "/>
<text text-anchor="middle" x="556.5" y="-557.8" font-family="Times,serif" font-size="14.00">⋅</text>
<polyline fill="none" stroke="black" points="577.5,-542.5 577.5,-580.5 "/>
<text text-anchor="middle" x="601" y="-557.8" font-family="Times,serif" font-size="14.00">0</text>
<polyline fill="none" stroke="black" points="473.5,-542.5 624.5,-542.5 "/>
<text text-anchor="middle" x="549" y="-527.3" font-family="Times,serif" font-size="14.00">EvenIntegers 2ℤ</text>
<text text-anchor="middle" x="549" y="-512.3" font-family="Times,serif" font-size="14.00">NDivisibleIntegers</text>
</a>
</g>
</g>
<!-- Rng&#45;&gt;MultiplicativeSemiGroup -->
<g id="edge7" class="edge">
<title>Rng&#45;&gt;MultiplicativeSemiGroup</title>
<path fill="none" stroke="black" d="M559.6,-504.2C569.69,-461.07 585.45,-402.13 600,-383 609.38,-370.67 622.17,-360.28 635.26,-351.83"/>
<polygon fill="none" stroke="black" points="637.17,-354.77 643.87,-346.56 633.51,-348.8 637.17,-354.77"/>
</g>
<!-- AdditiveAbelianGroup -->
<g id="node9" class="node">
<title>AdditiveAbelianGroup</title>
<g id="a_node9"><a xlink:href="https://github.com/mihxil/math/blob/main/mihxil-math/src/main/java/org/meeuw/math/abstractalgebra/AdditiveAbelianGroup.java" xlink:title="{\N|{ + &#160;&#45; \n⇆ | 0}}">
<polygon fill="none" stroke="black" points="379.5,-395 379.5,-456 552.5,-456 552.5,-395 379.5,-395"/>
<text text-anchor="middle" x="466" y="-440.8" font-family="Times,serif" font-size="14.00">AdditiveAbelianGroup</text>
<polyline fill="none" stroke="black" points="379.5,-433 552.5,-433 "/>
<text text-anchor="middle" x="426.5" y="-417.8" font-family="Times,serif" font-size="14.00">+ &#45; </text>
<text text-anchor="middle" x="426.5" y="-402.8" font-family="Times,serif" font-size="14.00">⇆</text>
<polyline fill="none" stroke="black" points="473.5,-395 473.5,-433 "/>
<text text-anchor="middle" x="513" y="-410.3" font-family="Times,serif" font-size="14.00">0</text>
</a>
</g>
</g>
<!-- Rng&#45;&gt;AdditiveAbelianGroup -->
<g id="edge8" class="edge">
<title>Rng&#45;&gt;AdditiveAbelianGroup</title>
<path fill="none" stroke="black" d="M517.15,-504.45C508.46,-491.21 499.17,-477.05 490.92,-464.48"/>
<polygon fill="none" stroke="black" points="493.81,-462.51 485.4,-456.07 487.96,-466.35 493.81,-462.51"/>
</g>
<!-- AdditiveAbelianGroup&#45;&gt;AdditiveAbelianSemiGroup -->
<g id="edge10" class="edge">
<title>AdditiveAbelianGroup&#45;&gt;AdditiveAbelianSemiGroup</title>
<path fill="none" stroke="black" d="M479.87,-394.69C494.75,-362.72 518.64,-311.39 536.46,-273.08"/>
<polygon fill="none" stroke="black" points="539.81,-274.18 540.86,-263.64 533.46,-271.23 539.81,-274.18"/>
</g>
<!-- AdditiveGroup -->
<g id="node11" class="node">
<title>AdditiveGroup</title>
<g id="a_node11"><a xlink:href="https://github.com/mihxil/math/blob/main/mihxil-math/src/main/java/org/meeuw/math/abstractalgebra/AdditiveGroup.java" xlink:title="{\N|{ + &#160;&#45; &#160;| 0}}">
<polygon fill="none" stroke="black" points="332,-300.5 332,-346.5 452,-346.5 452,-300.5 332,-300.5"/>
<text text-anchor="middle" x="392" y="-331.3" font-family="Times,serif" font-size="14.00">AdditiveGroup</text>
<polyline fill="none" stroke="black" points="332,-323.5 452,-323.5 "/>
<text text-anchor="middle" x="365" y="-308.3" font-family="Times,serif" font-size="14.00">+ &#45;</text>
<polyline fill="none" stroke="black" points="398,-300.5 398,-323.5 "/>
<text text-anchor="middle" x="425" y="-308.3" font-family="Times,serif" font-size="14.00">0</text>
</a>
</g>
</g>
<!-- AdditiveAbelianGroup&#45;&gt;AdditiveGroup -->
<g id="edge11" class="edge">
<title>AdditiveAbelianGroup&#45;&gt;AdditiveGroup</title>
<path fill="none" stroke="black" d="M444,-394.77C434.72,-382.23 423.93,-367.65 414.59,-355.03"/>
<polygon fill="none" stroke="black" points="417.15,-352.61 408.39,-346.65 411.53,-356.77 417.15,-352.61"/>
</g>
<!-- MultiplicativeAbelianSemiGroup -->
<g id="node10" class="node">
<title>MultiplicativeAbelianSemiGroup</title>
<g id="a_node10"><a xlink:href="https://github.com/mihxil/math/blob/main/mihxil-math/src/main/java/org/meeuw/math/abstractalgebra/MultiplicativeAbelianSemiGroup.java" xlink:title="{\N|{ ⋅ \n⇆}|OddIntegers ℕo}">
<polygon fill="none" stroke="black" points="795.5,-383.5 795.5,-467.5 1044.5,-467.5 1044.5,-383.5 795.5,-383.5"/>
<text text-anchor="middle" x="920" y="-452.3" font-family="Times,serif" font-size="14.00">MultiplicativeAbelianSemiGroup</text>
<polyline fill="none" stroke="black" points="795.5,-444.5 1044.5,-444.5 "/>
<text text-anchor="middle" x="920" y="-429.3" font-family="Times,serif" font-size="14.00">⋅</text>
<text text-anchor="middle" x="920" y="-414.3" font-family="Times,serif" font-size="14.00">⇆</text>
<polyline fill="none" stroke="black" points="795.5,-406.5 1044.5,-406.5 "/>
<text text-anchor="middle" x="920" y="-391.3" font-family="Times,serif" font-size="14.00">OddIntegers ℕo</text>
</a>
</g>
</g>
<!-- MultiplicativeAbelianSemiGroup&#45;&gt;MultiplicativeSemiGroup -->
<g id="edge9" class="edge">
<title>MultiplicativeAbelianSemiGroup&#45;&gt;MultiplicativeSemiGroup</title>
<path fill="none" stroke="black" d="M826.69,-383.39C801.54,-372.31 775.02,-360.63 752.3,-350.62"/>
<polygon fill="none" stroke="black" points="753.69,-347.41 743.13,-346.58 750.87,-353.82 753.69,-347.41"/>
</g>
<!-- AdditiveGroup&#45;&gt;AdditiveMonoid -->
<g id="edge12" class="edge">
<title>AdditiveGroup&#45;&gt;AdditiveMonoid</title>
<path fill="none" stroke="black" d="M384.9,-300.31C382.3,-292.19 379.25,-282.65 376.18,-273.07"/>
<polygon fill="none" stroke="black" points="379.52,-272 373.13,-263.54 372.85,-274.13 379.52,-272"/>
</g>
<!-- MultiplicativeGroup -->
<g id="node12" class="node">
<title>MultiplicativeGroup</title>
<g id="a_node12"><a xlink:href="https://github.com/mihxil/math/blob/main/mihxil-math/src/main/java/org/meeuw/math/abstractalgebra/MultiplicativeGroup.java" xlink:title="{\N|{ ⋅ &#160;/ &#160;| 1}|PermutationGroup\nGL₂(ℚ)}">
<polygon fill="none" stroke="black" points="643,-512 643,-596 803,-596 803,-512 643,-512"/>
<text text-anchor="middle" x="723" y="-580.8" font-family="Times,serif" font-size="14.00">MultiplicativeGroup</text>
<polyline fill="none" stroke="black" points="643,-573 803,-573 "/>
<text text-anchor="middle" x="683" y="-557.8" font-family="Times,serif" font-size="14.00">⋅/</text>
<polyline fill="none" stroke="black" points="723,-550 723,-573 "/>
<text text-anchor="middle" x="763" y="-557.8" font-family="Times,serif" font-size="14.00">1</text>
<polyline fill="none" stroke="black" points="643,-550 803,-550 "/>
<text text-anchor="middle" x="723" y="-534.8" font-family="Times,serif" font-size="14.00">PermutationGroup</text>
<text text-anchor="middle" x="723" y="-519.8" font-family="Times,serif" font-size="14.00">GL₂(ℚ)</text>
</a>
</g>
</g>
<!-- MultiplicativeGroup&#45;&gt;MultiplicativeMonoid -->
<g id="edge13" class="edge">
<title>MultiplicativeGroup&#45;&gt;MultiplicativeMonoid</title>
<path fill="none" stroke="black" d="M713.26,-511.93C710.1,-498.59 706.58,-483.75 703.37,-470.22"/>
<polygon fill="none" stroke="black" points="706.7,-469.11 700.99,-460.19 699.89,-470.72 706.7,-469.11"/>
</g>
<!-- Ring -->
<g id="node13" class="node">
<title>Ring</title>
<g id="a_node13"><a xlink:href="https://github.com/mihxil/math/blob/main/mihxil-math/src/main/java/org/meeuw/math/abstractalgebra/Ring.java" xlink:title="{\N|{ + &#160;&#45; \n⇆ | &#160;⋅ &#160;| 0 | 1}|ModuloStructure\nℤ}">
<polygon fill="none" stroke="black" points="480.5,-640.5 480.5,-739.5 619.5,-739.5 619.5,-640.5 480.5,-640.5"/>
<text text-anchor="middle" x="550" y="-724.3" font-family="Times,serif" font-size="14.00">Ring</text>
<polyline fill="none" stroke="black" points="480.5,-716.5 619.5,-716.5 "/>
<text text-anchor="middle" x="504.5" y="-701.3" font-family="Times,serif" font-size="14.00">+ &#45; </text>
<text text-anchor="middle" x="504.5" y="-686.3" font-family="Times,serif" font-size="14.00">⇆</text>
<polyline fill="none" stroke="black" points="528.5,-678.5 528.5,-716.5 "/>
<text text-anchor="middle" x="542" y="-693.8" font-family="Times,serif" font-size="14.00">⋅</text>
<polyline fill="none" stroke="black" points="555.5,-678.5 555.5,-716.5 "/>
<text text-anchor="middle" x="571.5" y="-693.8" font-family="Times,serif" font-size="14.00">0</text>
<polyline fill="none" stroke="black" points="587.5,-678.5 587.5,-716.5 "/>
<text text-anchor="middle" x="603.5" y="-693.8" font-family="Times,serif" font-size="14.00">1</text>
<polyline fill="none" stroke="black" points="480.5,-678.5 619.5,-678.5 "/>
<text text-anchor="middle" x="550" y="-663.3" font-family="Times,serif" font-size="14.00">ModuloStructure</text>
<text text-anchor="middle" x="550" y="-648.3" font-family="Times,serif" font-size="14.00">ℤ</text>
</a>
</g>
</g>
<!-- Ring&#45;&gt;Rng -->
<g id="edge14" class="edge">
<title>Ring&#45;&gt;Rng</title>
<path fill="none" stroke="black" d="M549.64,-640.24C549.57,-631.75 549.51,-622.82 549.44,-614.08"/>
<polygon fill="none" stroke="black" points="552.94,-613.92 549.37,-603.94 545.94,-613.97 552.94,-613.92"/>
</g>
<!-- MultiplicativeAbelianGroup -->
<g id="node14" class="node">
<title>MultiplicativeAbelianGroup</title>
<g id="a_node14"><a xlink:href="https://github.com/mihxil/math/blob/main/mihxil-math/src/main/java/org/meeuw/math/abstractalgebra/MultiplicativeAbelianGroup.java" xlink:title="{\N|{ ⋅ &#160;/ \n⇆ | 1}}">
<polygon fill="none" stroke="black" points="733.5,-659.5 733.5,-720.5 946.5,-720.5 946.5,-659.5 733.5,-659.5"/>
<text text-anchor="middle" x="840" y="-705.3" font-family="Times,serif" font-size="14.00">MultiplicativeAbelianGroup</text>
<polyline fill="none" stroke="black" points="733.5,-697.5 946.5,-697.5 "/>
<text text-anchor="middle" x="787.5" y="-682.3" font-family="Times,serif" font-size="14.00">⋅/ </text>
<text text-anchor="middle" x="787.5" y="-667.3" font-family="Times,serif" font-size="14.00">⇆</text>
<polyline fill="none" stroke="black" points="841.5,-659.5 841.5,-697.5 "/>
<text text-anchor="middle" x="894" y="-674.8" font-family="Times,serif" font-size="14.00">1</text>
</a>
</g>
</g>
<!-- MultiplicativeAbelianGroup&#45;&gt;MultiplicativeAbelianSemiGroup -->
<g id="edge15" class="edge">
<title>MultiplicativeAbelianGroup&#45;&gt;MultiplicativeAbelianSemiGroup</title>
<path fill="none" stroke="black" d="M849.02,-659.4C862.49,-615.22 888.02,-531.45 904.51,-477.34"/>
<polygon fill="none" stroke="black" points="907.91,-478.19 907.47,-467.6 901.21,-476.14 907.91,-478.19"/>
</g>
<!-- MultiplicativeAbelianGroup&#45;&gt;MultiplicativeGroup -->
<g id="edge16" class="edge">
<title>MultiplicativeAbelianGroup&#45;&gt;MultiplicativeGroup</title>
<path fill="none" stroke="black" d="M814.03,-659.26C799.84,-643 781.89,-622.45 765.7,-603.9"/>
<polygon fill="none" stroke="black" points="768.09,-601.32 758.88,-596.09 762.82,-605.92 768.09,-601.32"/>
</g>
<!-- DivisionRing -->
<g id="node15" class="node">
<title>DivisionRing</title>
<g id="a_node15"><a xlink:href="https://github.com/mihxil/math/blob/main/mihxil-math/src/main/java/org/meeuw/math/abstractalgebra/DivisionRing.java" xlink:title="{\N|{ + &#160;&#45; \n⇆ | &#160;⋅ &#160;/ &#160;| 0 | 1}|ℍ(ℚ)}">
<polygon fill="none" stroke="black" points="640,-776.5 640,-860.5 760,-860.5 760,-776.5 640,-776.5"/>
<text text-anchor="middle" x="700" y="-845.3" font-family="Times,serif" font-size="14.00">DivisionRing</text>
<polyline fill="none" stroke="black" points="640,-837.5 760,-837.5 "/>
<text text-anchor="middle" x="661" y="-822.3" font-family="Times,serif" font-size="14.00">+ &#45; </text>
<text text-anchor="middle" x="661" y="-807.3" font-family="Times,serif" font-size="14.00">⇆</text>
<polyline fill="none" stroke="black" points="682,-799.5 682,-837.5 "/>
<text text-anchor="middle" x="695" y="-814.8" font-family="Times,serif" font-size="14.00">⋅/</text>
<polyline fill="none" stroke="black" points="708,-799.5 708,-837.5 "/>
<text text-anchor="middle" x="721" y="-814.8" font-family="Times,serif" font-size="14.00">0</text>
<polyline fill="none" stroke="black" points="734,-799.5 734,-837.5 "/>
<text text-anchor="middle" x="747" y="-814.8" font-family="Times,serif" font-size="14.00">1</text>
<polyline fill="none" stroke="black" points="640,-799.5 760,-799.5 "/>
<text text-anchor="middle" x="700" y="-784.3" font-family="Times,serif" font-size="14.00">ℍ(ℚ)</text>
</a>
</g>
</g>
<!-- DivisionRing&#45;&gt;MultiplicativeGroup -->
<g id="edge17" class="edge">
<title>DivisionRing&#45;&gt;MultiplicativeGroup</title>
<path fill="none" stroke="black" d="M703.59,-776.48C707.62,-730.58 714.14,-656.13 718.5,-606.38"/>
<polygon fill="none" stroke="black" points="722.01,-606.43 719.39,-596.16 715.03,-605.82 722.01,-606.43"/>
</g>
<!-- DivisionRing&#45;&gt;Ring -->
<g id="edge18" class="edge">
<title>DivisionRing&#45;&gt;Ring</title>
<path fill="none" stroke="black" d="M651.3,-776.43C639.86,-766.78 627.49,-756.35 615.45,-746.2"/>
<polygon fill="none" stroke="black" points="617.5,-743.35 607.6,-739.58 612.99,-748.7 617.5,-743.35"/>
</g>
<!-- AbelianRing -->
<g id="node16" class="node">
<title>AbelianRing</title>
<g id="a_node16"><a xlink:href="https://github.com/mihxil/math/blob/main/mihxil-math/src/main/java/org/meeuw/math/abstractalgebra/AbelianRing.java" xlink:title="{\N|{ + &#160;&#45; \n⇆ | &#160;⋅ \n⇆ | 0 | 1}}">
<polygon fill="none" stroke="black" points="488.5,-788 488.5,-849 611.5,-849 611.5,-788 488.5,-788"/>
<text text-anchor="middle" x="550" y="-833.8" font-family="Times,serif" font-size="14.00">AbelianRing</text>
<polyline fill="none" stroke="black" points="488.5,-826 611.5,-826 "/>
<text text-anchor="middle" x="509.5" y="-810.8" font-family="Times,serif" font-size="14.00">+ &#45; </text>
<text text-anchor="middle" x="509.5" y="-795.8" font-family="Times,serif" font-size="14.00">⇆</text>
<polyline fill="none" stroke="black" points="530.5,-788 530.5,-826 "/>
<text text-anchor="middle" x="545" y="-810.8" font-family="Times,serif" font-size="14.00">⋅</text>
<text text-anchor="middle" x="545" y="-795.8" font-family="Times,serif" font-size="14.00">⇆</text>
<polyline fill="none" stroke="black" points="559.5,-788 559.5,-826 "/>
<text text-anchor="middle" x="572.5" y="-803.3" font-family="Times,serif" font-size="14.00">0</text>
<polyline fill="none" stroke="black" points="585.5,-788 585.5,-826 "/>
<text text-anchor="middle" x="598.5" y="-803.3" font-family="Times,serif" font-size="14.00">1</text>
</a>
</g>
</g>
<!-- AbelianRing&#45;&gt;Ring -->
<g id="edge19" class="edge">
<title>AbelianRing&#45;&gt;Ring</title>
<path fill="none" stroke="black" d="M550,-787.84C550,-776.44 550,-762.98 550,-749.78"/>
<polygon fill="none" stroke="black" points="553.5,-749.78 550,-739.78 546.5,-749.78 553.5,-749.78"/>
</g>
<!-- DivisibleGroup -->
<g id="node17" class="node">
<title>DivisibleGroup</title>
<g id="a_node17"><a xlink:href="https://github.com/mihxil/math/blob/main/mihxil-math/src/main/java/org/meeuw/math/abstractalgebra/DivisibleGroup.java" xlink:title="{\N|{ ⋅ &#160;/ \n⇆ | 1}}">
<polygon fill="none" stroke="black" points="778.5,-788 778.5,-849 901.5,-849 901.5,-788 778.5,-788"/>
<text text-anchor="middle" x="840" y="-833.8" font-family="Times,serif" font-size="14.00">DivisibleGroup</text>
<polyline fill="none" stroke="black" points="778.5,-826 901.5,-826 "/>
<text text-anchor="middle" x="810" y="-810.8" font-family="Times,serif" font-size="14.00">⋅/ </text>
<text text-anchor="middle" x="810" y="-795.8" font-family="Times,serif" font-size="14.00">⇆</text>
<polyline fill="none" stroke="black" points="841.5,-788 841.5,-826 "/>
<text text-anchor="middle" x="871.5" y="-803.3" font-family="Times,serif" font-size="14.00">1</text>
</a>
</g>
</g>
<!-- DivisibleGroup&#45;&gt;MultiplicativeAbelianGroup -->
<g id="edge20" class="edge">
<title>DivisibleGroup&#45;&gt;MultiplicativeAbelianGroup</title>
<path fill="none" stroke="black" d="M840,-787.84C840,-770.91 840,-749.46 840,-731.06"/>
<polygon fill="none" stroke="black" points="843.5,-730.91 840,-720.91 836.5,-730.91 843.5,-730.91"/>
</g>
<!-- Field -->
<g id="node18" class="node">
<title>Field</title>
<g id="a_node18"><a xlink:href="https://github.com/mihxil/math/blob/main/mihxil-math/src/main/java/org/meeuw/math/abstractalgebra/Field.java" xlink:title="{\N|{ + &#160;&#45; \n⇆ | &#160;⋅ &#160;/ \n⇆ | 0 | 1}|ModuloField\nGaussianRationals ᵁ0(i)}">
<polygon fill="none" stroke="black" points="618.5,-897.5 618.5,-996.5 803.5,-996.5 803.5,-897.5 618.5,-897.5"/>
<text text-anchor="middle" x="711" y="-981.3" font-family="Times,serif" font-size="14.00">Field</text>
<polyline fill="none" stroke="black" points="618.5,-973.5 803.5,-973.5 "/>
<text text-anchor="middle" x="647" y="-958.3" font-family="Times,serif" font-size="14.00">+ &#45; </text>
<text text-anchor="middle" x="647" y="-943.3" font-family="Times,serif" font-size="14.00">⇆</text>
<polyline fill="none" stroke="black" points="675.5,-935.5 675.5,-973.5 "/>
<text text-anchor="middle" x="698" y="-958.3" font-family="Times,serif" font-size="14.00">⋅/ </text>
<text text-anchor="middle" x="698" y="-943.3" font-family="Times,serif" font-size="14.00">⇆</text>
<polyline fill="none" stroke="black" points="720.5,-935.5 720.5,-973.5 "/>
<text text-anchor="middle" x="741" y="-950.8" font-family="Times,serif" font-size="14.00">0</text>
<polyline fill="none" stroke="black" points="761.5,-935.5 761.5,-973.5 "/>
<text text-anchor="middle" x="782.5" y="-950.8" font-family="Times,serif" font-size="14.00">1</text>
<polyline fill="none" stroke="black" points="618.5,-935.5 803.5,-935.5 "/>
<text text-anchor="middle" x="711" y="-920.3" font-family="Times,serif" font-size="14.00">ModuloField</text>
<text text-anchor="middle" x="711" y="-905.3" font-family="Times,serif" font-size="14.00">GaussianRationals ᵁ0(i)</text>
</a>
</g>
</g>
<!-- Field&#45;&gt;DivisionRing -->
<g id="edge21" class="edge">
<title>Field&#45;&gt;DivisionRing</title>
<path fill="none" stroke="black" d="M706.78,-897.45C706.02,-888.74 705.23,-879.63 704.46,-870.84"/>
<polygon fill="none" stroke="black" points="707.94,-870.37 703.58,-860.71 700.96,-870.98 707.94,-870.37"/>
</g>
<!-- Field&#45;&gt;AbelianRing -->
<g id="edge22" class="edge">
<title>Field&#45;&gt;AbelianRing</title>
<path fill="none" stroke="black" d="M649.21,-897.45C631.38,-883.44 612.25,-868.41 595.59,-855.32"/>
<polygon fill="none" stroke="black" points="597.66,-852.49 587.63,-849.07 593.33,-858 597.66,-852.49"/>
</g>
<!-- Field&#45;&gt;DivisibleGroup -->
<g id="edge23" class="edge">
<title>Field&#45;&gt;DivisibleGroup</title>
<path fill="none" stroke="black" d="M760.51,-897.45C774.4,-883.82 789.29,-869.23 802.37,-856.4"/>
<polygon fill="none" stroke="black" points="805.16,-858.57 809.85,-849.07 800.26,-853.57 805.16,-858.57"/>
</g>
<!-- VectorSpace -->
<g id="node19" class="node">
<title>VectorSpace</title>
<g id="a_node19"><a xlink:href="https://github.com/mihxil/math/blob/main/mihxil-math/src/main/java/org/meeuw/math/abstractalgebra/VectorSpace.java" xlink:title="{\N|{ + &#160;&#45; \n⇆ | &#160;⋅ \n⇆ | 0 | 1}|Vector3Space ℝₚ³\nℚ³}">
<polygon fill="none" stroke="black" points="459.5,-897.5 459.5,-996.5 600.5,-996.5 600.5,-897.5 459.5,-897.5"/>
<text text-anchor="middle" x="530" y="-981.3" font-family="Times,serif" font-size="14.00">VectorSpace</text>
<polyline fill="none" stroke="black" points="459.5,-973.5 600.5,-973.5 "/>
<text text-anchor="middle" x="482.5" y="-958.3" font-family="Times,serif" font-size="14.00">+ &#45; </text>
<text text-anchor="middle" x="482.5" y="-943.3" font-family="Times,serif" font-size="14.00">⇆</text>
<polyline fill="none" stroke="black" points="505.5,-935.5 505.5,-973.5 "/>
<text text-anchor="middle" x="522.5" y="-958.3" font-family="Times,serif" font-size="14.00">⋅</text>
<text text-anchor="middle" x="522.5" y="-943.3" font-family="Times,serif" font-size="14.00">⇆</text>
<polyline fill="none" stroke="black" points="539.5,-935.5 539.5,-973.5 "/>
<text text-anchor="middle" x="554.5" y="-950.8" font-family="Times,serif" font-size="14.00">0</text>
<polyline fill="none" stroke="black" points="569.5,-935.5 569.5,-973.5 "/>
<text text-anchor="middle" x="585" y="-950.8" font-family="Times,serif" font-size="14.00">1</text>
<polyline fill="none" stroke="black" points="459.5,-935.5 600.5,-935.5 "/>
<text text-anchor="middle" x="530" y="-920.3" font-family="Times,serif" font-size="14.00">Vector3Space ℝₚ³</text>
<text text-anchor="middle" x="530" y="-905.3" font-family="Times,serif" font-size="14.00">ℚ³</text>
</a>
</g>
</g>
<!-- VectorSpace&#45;&gt;AbelianRing -->
<g id="edge24" class="edge">
<title>VectorSpace&#45;&gt;AbelianRing</title>
<path fill="none" stroke="black" d="M537.68,-897.45C539.67,-884.84 541.79,-871.41 543.71,-859.31"/>
<polygon fill="none" stroke="black" points="547.22,-859.49 545.33,-849.07 540.31,-858.4 547.22,-859.49"/>
</g>
<!-- ScalarField -->
<g id="node20" class="node">
<title>ScalarField</title>
<g id="a_node20"><a xlink:href="https://github.com/mihxil/math/blob/main/mihxil-math/src/main/java/org/meeuw/math/abstractalgebra/ScalarField.java" xlink:title="{\N|{ + &#160;&#45; \n⇆ | &#160;⋅ &#160;/ \n⇆ | 0 | 1}|RationalNumbers ℚ}">
<polygon fill="none" stroke="black" points="632,-1033.5 632,-1117.5 790,-1117.5 790,-1033.5 632,-1033.5"/>
<text text-anchor="middle" x="711" y="-1102.3" font-family="Times,serif" font-size="14.00">ScalarField</text>
<polyline fill="none" stroke="black" points="632,-1094.5 790,-1094.5 "/>
<text text-anchor="middle" x="657" y="-1079.3" font-family="Times,serif" font-size="14.00">+ &#45; </text>
<text text-anchor="middle" x="657" y="-1064.3" font-family="Times,serif" font-size="14.00">⇆</text>
<polyline fill="none" stroke="black" points="682,-1056.5 682,-1094.5 "/>
<text text-anchor="middle" x="701.5" y="-1079.3" font-family="Times,serif" font-size="14.00">⋅/ </text>
<text text-anchor="middle" x="701.5" y="-1064.3" font-family="Times,serif" font-size="14.00">⇆</text>
<polyline fill="none" stroke="black" points="721,-1056.5 721,-1094.5 "/>
<text text-anchor="middle" x="738" y="-1071.8" font-family="Times,serif" font-size="14.00">0</text>
<polyline fill="none" stroke="black" points="755,-1056.5 755,-1094.5 "/>
<text text-anchor="middle" x="772.5" y="-1071.8" font-family="Times,serif" font-size="14.00">1</text>
<polyline fill="none" stroke="black" points="632,-1056.5 790,-1056.5 "/>
<text text-anchor="middle" x="711" y="-1041.3" font-family="Times,serif" font-size="14.00">RationalNumbers ℚ</text>
</a>
</g>
</g>
<!-- ScalarField&#45;&gt;Field -->
<g id="edge25" class="edge">
<title>ScalarField&#45;&gt;Field</title>
<path fill="none" stroke="black" d="M711,-1033.43C711,-1024.94 711,-1015.84 711,-1006.85"/>
<polygon fill="none" stroke="black" points="714.5,-1006.8 711,-996.8 707.5,-1006.8 714.5,-1006.8"/>
</g>
<!-- CompleteField -->
<g id="node21" class="node">
<title>CompleteField</title>
<g id="a_node21"><a xlink:href="https://github.com/mihxil/math/blob/main/mihxil-math/src/main/java/org/meeuw/math/abstractalgebra/CompleteField.java" xlink:title="{\N|{ + &#160;&#45; \n⇆ | &#160;⋅ &#160;/ \n⇆ | 0 | 1}|BigDecimalField ℝ\nRealField ℝₚ}">
<polygon fill="none" stroke="black" points="635.5,-1154.5 635.5,-1253.5 786.5,-1253.5 786.5,-1154.5 635.5,-1154.5"/>
<text text-anchor="middle" x="711" y="-1238.3" font-family="Times,serif" font-size="14.00">CompleteField</text>
<polyline fill="none" stroke="black" points="635.5,-1230.5 786.5,-1230.5 "/>
<text text-anchor="middle" x="659.5" y="-1215.3" font-family="Times,serif" font-size="14.00">+ &#45; </text>
<text text-anchor="middle" x="659.5" y="-1200.3" font-family="Times,serif" font-size="14.00">⇆</text>
<polyline fill="none" stroke="black" points="683.5,-1192.5 683.5,-1230.5 "/>
<text text-anchor="middle" x="702" y="-1215.3" font-family="Times,serif" font-size="14.00">⋅/ </text>
<text text-anchor="middle" x="702" y="-1200.3" font-family="Times,serif" font-size="14.00">⇆</text>
<polyline fill="none" stroke="black" points="720.5,-1192.5 720.5,-1230.5 "/>
<text text-anchor="middle" x="737" y="-1207.8" font-family="Times,serif" font-size="14.00">0</text>
<polyline fill="none" stroke="black" points="753.5,-1192.5 753.5,-1230.5 "/>
<text text-anchor="middle" x="770" y="-1207.8" font-family="Times,serif" font-size="14.00">1</text>
<polyline fill="none" stroke="black" points="635.5,-1192.5 786.5,-1192.5 "/>
<text text-anchor="middle" x="711" y="-1177.3" font-family="Times,serif" font-size="14.00">BigDecimalField ℝ</text>
<text text-anchor="middle" x="711" y="-1162.3" font-family="Times,serif" font-size="14.00">RealField ℝₚ</text>
</a>
</g>
</g>
<!-- CompleteField&#45;&gt;ScalarField -->
<g id="edge26" class="edge">
<title>CompleteField&#45;&gt;ScalarField</title>
<path fill="none" stroke="black" d="M711,-1154.45C711,-1145.74 711,-1136.63 711,-1127.84"/>
<polygon fill="none" stroke="black" points="714.5,-1127.71 711,-1117.71 707.5,-1127.71 714.5,-1127.71"/>
</g>
</g>
</svg>
