<?xml version="1.0" encoding="UTF-8" standalone="no"?>
<!DOCTYPE svg PUBLIC "-//W3C//DTD SVG 1.1//EN"
 "http://www.w3.org/Graphics/SVG/1.1/DTD/svg11.dtd">
<!-- Generated by graphviz version 2.49.3 (20211027.1534)
 -->
<!-- Pages: 1 -->
<svg width="744pt" height="1239pt"
 viewBox="0.00 0.00 744.00 1239.00" xmlns="http://www.w3.org/2000/svg" xmlns:xlink="http://www.w3.org/1999/xlink">
<g id="graph0" class="graph" transform="scale(1 1) rotate(0) translate(4 1235)">
<polygon fill="white" stroke="transparent" points="-4,4 -4,-1235 740,-1235 740,4 -4,4"/>
<!-- Group -->
<g id="node1" class="node">
<title>Group</title>
<g id="a_node1"><a xlink:href="https://github.com/mihxil/math/blob/main/mihxil-math/src/main/java/org/meeuw/math/abstractalgebra/Group.java" xlink:title="{\N|{ * | u}|V}">
<polygon fill="none" stroke="black" points="94,-73.5 94,-142.5 155,-142.5 155,-73.5 94,-73.5"/>
<text text-anchor="middle" x="124.5" y="-127.3" font-family="Times,serif" font-size="14.00">Group</text>
<polyline fill="none" stroke="black" points="94,-119.5 155,-119.5 "/>
<text text-anchor="middle" x="108.5" y="-104.3" font-family="Times,serif" font-size="14.00">*</text>
<polyline fill="none" stroke="black" points="123,-96.5 123,-119.5 "/>
<text text-anchor="middle" x="139" y="-104.3" font-family="Times,serif" font-size="14.00">u</text>
<polyline fill="none" stroke="black" points="94,-96.5 155,-96.5 "/>
<text text-anchor="middle" x="124.5" y="-81.3" font-family="Times,serif" font-size="14.00">V</text>
</a>
</g>
</g>
<!-- AlgebraicStructure -->
<g id="node2" class="node">
<title>AlgebraicStructure</title>
<polygon fill="none" stroke="black" points="175,-0.5 175,-36.5 328,-36.5 328,-0.5 175,-0.5"/>
<text text-anchor="middle" x="251.5" y="-14.8" font-family="Times,serif" font-size="14.00">AlgebraicStructure</text>
</g>
<!-- Group&#45;&gt;AlgebraicStructure -->
<g id="edge1" class="edge">
<title>Group&#45;&gt;AlgebraicStructure</title>
<path fill="none" stroke="black" d="M155.13,-80.16C158.24,-77.67 161.4,-75.25 164.5,-73 179.61,-62.03 197.02,-51.03 212.27,-41.88"/>
<polygon fill="none" stroke="black" points="214.15,-44.83 220.97,-36.72 210.58,-38.81 214.15,-44.83"/>
</g>
<!-- AdditiveSemiGroup -->
<g id="node3" class="node">
<title>AdditiveSemiGroup</title>
<g id="a_node3"><a xlink:href="https://github.com/mihxil/math/blob/main/mihxil-math/src/main/java/org/meeuw/math/abstractalgebra/AdditiveSemiGroup.java" xlink:title="{\N|{ + }}">
<polygon fill="none" stroke="black" points="173.5,-85 173.5,-131 329.5,-131 329.5,-85 173.5,-85"/>
<text text-anchor="middle" x="251.5" y="-115.8" font-family="Times,serif" font-size="14.00">AdditiveSemiGroup</text>
<polyline fill="none" stroke="black" points="173.5,-108 329.5,-108 "/>
<text text-anchor="middle" x="251.5" y="-92.8" font-family="Times,serif" font-size="14.00">+</text>
</a>
</g>
</g>
<!-- AdditiveSemiGroup&#45;&gt;AlgebraicStructure -->
<g id="edge2" class="edge">
<title>AdditiveSemiGroup&#45;&gt;AlgebraicStructure</title>
<path fill="none" stroke="black" d="M251.5,-84.92C251.5,-73.33 251.5,-59.02 251.5,-46.75"/>
<polygon fill="none" stroke="black" points="255,-46.6 251.5,-36.6 248,-46.6 255,-46.6"/>
</g>
<!-- MultiplicativeSemiGroup -->
<g id="node4" class="node">
<title>MultiplicativeSemiGroup</title>
<g id="a_node4"><a xlink:href="https://github.com/mihxil/math/blob/main/mihxil-math/src/main/java/org/meeuw/math/abstractalgebra/MultiplicativeSemiGroup.java" xlink:title="{\N|{ ⋅ }}">
<polygon fill="none" stroke="black" points="286.5,-300.5 286.5,-346.5 482.5,-346.5 482.5,-300.5 286.5,-300.5"/>
<text text-anchor="middle" x="384.5" y="-331.3" font-family="Times,serif" font-size="14.00">MultiplicativeSemiGroup</text>
<polyline fill="none" stroke="black" points="286.5,-323.5 482.5,-323.5 "/>
<text text-anchor="middle" x="384.5" y="-308.3" font-family="Times,serif" font-size="14.00">⋅</text>
</a>
</g>
</g>
<!-- MultiplicativeSemiGroup&#45;&gt;AlgebraicStructure -->
<g id="edge3" class="edge">
<title>MultiplicativeSemiGroup&#45;&gt;AlgebraicStructure</title>
<path fill="none" stroke="black" d="M386.47,-300.34C389.44,-253.52 390.06,-143.06 338.5,-73 329.02,-60.11 315.41,-49.66 301.76,-41.54"/>
<polygon fill="none" stroke="black" points="303.27,-38.37 292.83,-36.53 299.84,-44.47 303.27,-38.37"/>
</g>
<!-- AdditiveAbelianSemiGroup -->
<g id="node5" class="node">
<title>AdditiveAbelianSemiGroup</title>
<g id="a_node5"><a xlink:href="https://github.com/mihxil/math/blob/main/mihxil-math/src/main/java/org/meeuw/math/abstractalgebra/AdditiveAbelianSemiGroup.java" xlink:title="{\N|{ + \n⇆}| ℕ⁻}">
<polygon fill="none" stroke="black" points="147,-179.5 147,-263.5 356,-263.5 356,-179.5 147,-179.5"/>
<text text-anchor="middle" x="251.5" y="-248.3" font-family="Times,serif" font-size="14.00">AdditiveAbelianSemiGroup</text>
<polyline fill="none" stroke="black" points="147,-240.5 356,-240.5 "/>
<text text-anchor="middle" x="251.5" y="-225.3" font-family="Times,serif" font-size="14.00">+ </text>
<text text-anchor="middle" x="251.5" y="-210.3" font-family="Times,serif" font-size="14.00">⇆</text>
<polyline fill="none" stroke="black" points="147,-202.5 356,-202.5 "/>
<text text-anchor="middle" x="251.5" y="-187.3" font-family="Times,serif" font-size="14.00">ℕ⁻</text>
</a>
</g>
</g>
<!-- AdditiveAbelianSemiGroup&#45;&gt;AdditiveSemiGroup -->
<g id="edge4" class="edge">
<title>AdditiveAbelianSemiGroup&#45;&gt;AdditiveSemiGroup</title>
<path fill="none" stroke="black" d="M251.5,-179.3C251.5,-166.85 251.5,-153.37 251.5,-141.57"/>
<polygon fill="none" stroke="black" points="255,-141.29 251.5,-131.29 248,-141.29 255,-141.29"/>
</g>
<!-- AdditiveMonoid -->
<g id="node6" class="node">
<title>AdditiveMonoid</title>
<g id="a_node6"><a xlink:href="https://github.com/mihxil/math/blob/main/mihxil-math/src/main/java/org/meeuw/math/abstractalgebra/AdditiveMonoid.java" xlink:title="{\N|{ + &#160;| 0}| StringMonoid\n ℕ}">
<polygon fill="none" stroke="black" points="0,-179.5 0,-263.5 129,-263.5 129,-179.5 0,-179.5"/>
<text text-anchor="middle" x="64.5" y="-248.3" font-family="Times,serif" font-size="14.00">AdditiveMonoid</text>
<polyline fill="none" stroke="black" points="0,-240.5 129,-240.5 "/>
<text text-anchor="middle" x="33" y="-225.3" font-family="Times,serif" font-size="14.00">+</text>
<polyline fill="none" stroke="black" points="66,-217.5 66,-240.5 "/>
<text text-anchor="middle" x="97.5" y="-225.3" font-family="Times,serif" font-size="14.00">0</text>
<polyline fill="none" stroke="black" points="0,-217.5 129,-217.5 "/>
<text text-anchor="middle" x="64.5" y="-202.3" font-family="Times,serif" font-size="14.00">StringMonoid</text>
<text text-anchor="middle" x="64.5" y="-187.3" font-family="Times,serif" font-size="14.00"> ℕ</text>
</a>
</g>
</g>
<!-- AdditiveMonoid&#45;&gt;AdditiveSemiGroup -->
<g id="edge5" class="edge">
<title>AdditiveMonoid&#45;&gt;AdditiveSemiGroup</title>
<path fill="none" stroke="black" d="M129.12,-181.97C154.28,-166.97 182.54,-150.12 205.56,-136.39"/>
<polygon fill="none" stroke="black" points="207.63,-139.23 214.43,-131.11 204.04,-133.22 207.63,-139.23"/>
</g>
<!-- MultiplicativeMonoid -->
<g id="node7" class="node">
<title>MultiplicativeMonoid</title>
<g id="a_node7"><a xlink:href="https://github.com/mihxil/math/blob/main/mihxil-math/src/main/java/org/meeuw/math/abstractalgebra/MultiplicativeMonoid.java" xlink:title="{\N|{ ⋅ &#160;| 1}|OddIntegers ℕo}">
<polygon fill="none" stroke="black" points="300,-391 300,-460 469,-460 469,-391 300,-391"/>
<text text-anchor="middle" x="384.5" y="-444.8" font-family="Times,serif" font-size="14.00">MultiplicativeMonoid</text>
<polyline fill="none" stroke="black" points="300,-437 469,-437 "/>
<text text-anchor="middle" x="341" y="-421.8" font-family="Times,serif" font-size="14.00">⋅</text>
<polyline fill="none" stroke="black" points="382,-414 382,-437 "/>
<text text-anchor="middle" x="425.5" y="-421.8" font-family="Times,serif" font-size="14.00">1</text>
<polyline fill="none" stroke="black" points="300,-414 469,-414 "/>
<text text-anchor="middle" x="384.5" y="-398.8" font-family="Times,serif" font-size="14.00">OddIntegers ℕo</text>
</a>
</g>
</g>
<!-- MultiplicativeMonoid&#45;&gt;MultiplicativeSemiGroup -->
<g id="edge6" class="edge">
<title>MultiplicativeMonoid&#45;&gt;MultiplicativeSemiGroup</title>
<path fill="none" stroke="black" d="M384.5,-390.92C384.5,-379.83 384.5,-367.52 384.5,-356.55"/>
<polygon fill="none" stroke="black" points="388,-356.51 384.5,-346.51 381,-356.51 388,-356.51"/>
</g>
<!-- Rng -->
<g id="node8" class="node">
<title>Rng</title>
<g id="a_node8"><a xlink:href="https://github.com/mihxil/math/blob/main/mihxil-math/src/main/java/org/meeuw/math/abstractalgebra/Rng.java" xlink:title="{\N|{ + &#160;&#45; \n⇆ | &#160;⋅ &#160;| 0}| 2ℤ\n3ℤ}">
<polygon fill="none" stroke="black" points="212,-504.5 212,-603.5 301,-603.5 301,-504.5 212,-504.5"/>
<text text-anchor="middle" x="256.5" y="-588.3" font-family="Times,serif" font-size="14.00">Rng</text>
<polyline fill="none" stroke="black" points="212,-580.5 301,-580.5 "/>
<text text-anchor="middle" x="233" y="-565.3" font-family="Times,serif" font-size="14.00">+ &#45; </text>
<text text-anchor="middle" x="233" y="-550.3" font-family="Times,serif" font-size="14.00">⇆</text>
<polyline fill="none" stroke="black" points="254,-542.5 254,-580.5 "/>
<text text-anchor="middle" x="264.5" y="-557.8" font-family="Times,serif" font-size="14.00">⋅</text>
<polyline fill="none" stroke="black" points="275,-542.5 275,-580.5 "/>
<text text-anchor="middle" x="288" y="-557.8" font-family="Times,serif" font-size="14.00">0</text>
<polyline fill="none" stroke="black" points="212,-542.5 301,-542.5 "/>
<text text-anchor="middle" x="256.5" y="-527.3" font-family="Times,serif" font-size="14.00">2ℤ</text>
<text text-anchor="middle" x="256.5" y="-512.3" font-family="Times,serif" font-size="14.00">3ℤ</text>
</a>
</g>
</g>
<!-- Rng&#45;&gt;MultiplicativeSemiGroup -->
<g id="edge7" class="edge">
<title>Rng&#45;&gt;MultiplicativeSemiGroup</title>
<path fill="none" stroke="black" d="M256.54,-504.33C258.79,-467.99 266.78,-418.66 291.5,-383 300.06,-370.65 312.17,-360.35 324.83,-352.02"/>
<polygon fill="none" stroke="black" points="326.98,-354.81 333.64,-346.57 323.29,-348.86 326.98,-354.81"/>
</g>
<!-- AdditiveAbelianGroup -->
<g id="node9" class="node">
<title>AdditiveAbelianGroup</title>
<g id="a_node9"><a xlink:href="https://github.com/mihxil/math/blob/main/mihxil-math/src/main/java/org/meeuw/math/abstractalgebra/AdditiveAbelianGroup.java" xlink:title="{\N|{ + &#160;&#45; \n⇆ | 0}}">
<polygon fill="none" stroke="black" points="71,-395 71,-456 244,-456 244,-395 71,-395"/>
<text text-anchor="middle" x="157.5" y="-440.8" font-family="Times,serif" font-size="14.00">AdditiveAbelianGroup</text>
<polyline fill="none" stroke="black" points="71,-433 244,-433 "/>
<text text-anchor="middle" x="118" y="-417.8" font-family="Times,serif" font-size="14.00">+ &#45; </text>
<text text-anchor="middle" x="118" y="-402.8" font-family="Times,serif" font-size="14.00">⇆</text>
<polyline fill="none" stroke="black" points="165,-395 165,-433 "/>
<text text-anchor="middle" x="204.5" y="-410.3" font-family="Times,serif" font-size="14.00">0</text>
</a>
</g>
</g>
<!-- Rng&#45;&gt;AdditiveAbelianGroup -->
<g id="edge8" class="edge">
<title>Rng&#45;&gt;AdditiveAbelianGroup</title>
<path fill="none" stroke="black" d="M218.51,-504.45C208.04,-491.08 196.85,-476.78 186.94,-464.12"/>
<polygon fill="none" stroke="black" points="189.56,-461.79 180.64,-456.07 184.05,-466.1 189.56,-461.79"/>
</g>
<!-- AdditiveAbelianGroup&#45;&gt;AdditiveAbelianSemiGroup -->
<g id="edge10" class="edge">
<title>AdditiveAbelianGroup&#45;&gt;AdditiveAbelianSemiGroup</title>
<path fill="none" stroke="black" d="M171.37,-394.69C186.25,-362.72 210.14,-311.39 227.96,-273.08"/>
<polygon fill="none" stroke="black" points="231.31,-274.18 232.36,-263.64 224.96,-271.23 231.31,-274.18"/>
</g>
<!-- AdditiveGroup -->
<g id="node11" class="node">
<title>AdditiveGroup</title>
<g id="a_node11"><a xlink:href="https://github.com/mihxil/math/blob/main/mihxil-math/src/main/java/org/meeuw/math/abstractalgebra/AdditiveGroup.java" xlink:title="{\N|{ + &#160;&#45; &#160;| 0}}">
<polygon fill="none" stroke="black" points="30.5,-300.5 30.5,-346.5 150.5,-346.5 150.5,-300.5 30.5,-300.5"/>
<text text-anchor="middle" x="90.5" y="-331.3" font-family="Times,serif" font-size="14.00">AdditiveGroup</text>
<polyline fill="none" stroke="black" points="30.5,-323.5 150.5,-323.5 "/>
<text text-anchor="middle" x="63.5" y="-308.3" font-family="Times,serif" font-size="14.00">+ &#45;</text>
<polyline fill="none" stroke="black" points="96.5,-300.5 96.5,-323.5 "/>
<text text-anchor="middle" x="123.5" y="-308.3" font-family="Times,serif" font-size="14.00">0</text>
</a>
</g>
</g>
<!-- AdditiveAbelianGroup&#45;&gt;AdditiveGroup -->
<g id="edge11" class="edge">
<title>AdditiveAbelianGroup&#45;&gt;AdditiveGroup</title>
<path fill="none" stroke="black" d="M137.58,-394.77C129.18,-382.23 119.41,-367.65 110.95,-355.03"/>
<polygon fill="none" stroke="black" points="113.82,-353.01 105.34,-346.65 108,-356.91 113.82,-353.01"/>
</g>
<!-- MultiplicativeAbelianSemiGroup -->
<g id="node10" class="node">
<title>MultiplicativeAbelianSemiGroup</title>
<g id="a_node10"><a xlink:href="https://github.com/mihxil/math/blob/main/mihxil-math/src/main/java/org/meeuw/math/abstractalgebra/MultiplicativeAbelianSemiGroup.java" xlink:title="{\N|{ ⋅ \n⇆}|OddIntegers ℕo}">
<polygon fill="none" stroke="black" points="487,-383.5 487,-467.5 736,-467.5 736,-383.5 487,-383.5"/>
<text text-anchor="middle" x="611.5" y="-452.3" font-family="Times,serif" font-size="14.00">MultiplicativeAbelianSemiGroup</text>
<polyline fill="none" stroke="black" points="487,-444.5 736,-444.5 "/>
<text text-anchor="middle" x="611.5" y="-429.3" font-family="Times,serif" font-size="14.00">⋅</text>
<text text-anchor="middle" x="611.5" y="-414.3" font-family="Times,serif" font-size="14.00">⇆</text>
<polyline fill="none" stroke="black" points="487,-406.5 736,-406.5 "/>
<text text-anchor="middle" x="611.5" y="-391.3" font-family="Times,serif" font-size="14.00">OddIntegers ℕo</text>
</a>
</g>
</g>
<!-- MultiplicativeAbelianSemiGroup&#45;&gt;MultiplicativeSemiGroup -->
<g id="edge9" class="edge">
<title>MultiplicativeAbelianSemiGroup&#45;&gt;MultiplicativeSemiGroup</title>
<path fill="none" stroke="black" d="M518.19,-383.39C493.04,-372.31 466.52,-360.63 443.8,-350.62"/>
<polygon fill="none" stroke="black" points="445.19,-347.41 434.63,-346.58 442.37,-353.82 445.19,-347.41"/>
</g>
<!-- AdditiveGroup&#45;&gt;AdditiveMonoid -->
<g id="edge12" class="edge">
<title>AdditiveGroup&#45;&gt;AdditiveMonoid</title>
<path fill="none" stroke="black" d="M84.73,-300.31C82.64,-292.28 80.19,-282.85 77.73,-273.37"/>
<polygon fill="none" stroke="black" points="81.08,-272.34 75.17,-263.54 74.3,-274.1 81.08,-272.34"/>
</g>
<!-- MultiplicativeGroup -->
<g id="node12" class="node">
<title>MultiplicativeGroup</title>
<g id="a_node12"><a xlink:href="https://github.com/mihxil/math/blob/main/mihxil-math/src/main/java/org/meeuw/math/abstractalgebra/MultiplicativeGroup.java" xlink:title="{\N|{ ⋅ &#160;/ &#160;| 1}|\nGL₂(ℚ)}">
<polygon fill="none" stroke="black" points="319.5,-511.5 319.5,-596.5 479.5,-596.5 479.5,-511.5 319.5,-511.5"/>
<text text-anchor="middle" x="399.5" y="-581.3" font-family="Times,serif" font-size="14.00">MultiplicativeGroup</text>
<polyline fill="none" stroke="black" points="319.5,-573.5 479.5,-573.5 "/>
<text text-anchor="middle" x="359.5" y="-558.3" font-family="Times,serif" font-size="14.00">⋅/</text>
<polyline fill="none" stroke="black" points="399.5,-550.5 399.5,-573.5 "/>
<text text-anchor="middle" x="439.5" y="-558.3" font-family="Times,serif" font-size="14.00">1</text>
<polyline fill="none" stroke="black" points="319.5,-550.5 479.5,-550.5 "/>
<text text-anchor="middle" x="399.5" y="-519.3" font-family="Times,serif" font-size="14.00">GL₂(ℚ)</text>
</a>
</g>
</g>
<!-- MultiplicativeGroup&#45;&gt;MultiplicativeMonoid -->
<g id="edge13" class="edge">
<title>MultiplicativeGroup&#45;&gt;MultiplicativeMonoid</title>
<path fill="none" stroke="black" d="M394.55,-511.23C393,-498.17 391.29,-483.72 389.72,-470.51"/>
<polygon fill="none" stroke="black" points="393.15,-469.75 388.5,-460.23 386.2,-470.57 393.15,-469.75"/>
</g>
<!-- Ring -->
<g id="node13" class="node">
<title>Ring</title>
<g id="a_node13"><a xlink:href="https://github.com/mihxil/math/blob/main/mihxil-math/src/main/java/org/meeuw/math/abstractalgebra/Ring.java" xlink:title="{\N|{ + &#160;&#45; \n⇆ | &#160;⋅ &#160;| 0 | 1}}">
<polygon fill="none" stroke="black" points="200,-640.5 200,-701.5 315,-701.5 315,-640.5 200,-640.5"/>
<text text-anchor="middle" x="257.5" y="-686.3" font-family="Times,serif" font-size="14.00">Ring</text>
<polyline fill="none" stroke="black" points="200,-678.5 315,-678.5 "/>
<text text-anchor="middle" x="221" y="-663.3" font-family="Times,serif" font-size="14.00">+ &#45; </text>
<text text-anchor="middle" x="221" y="-648.3" font-family="Times,serif" font-size="14.00">⇆</text>
<polyline fill="none" stroke="black" points="242,-640.5 242,-678.5 "/>
<text text-anchor="middle" x="252.5" y="-655.8" font-family="Times,serif" font-size="14.00">⋅</text>
<polyline fill="none" stroke="black" points="263,-640.5 263,-678.5 "/>
<text text-anchor="middle" x="276" y="-655.8" font-family="Times,serif" font-size="14.00">0</text>
<polyline fill="none" stroke="black" points="289,-640.5 289,-678.5 "/>
<text text-anchor="middle" x="302" y="-655.8" font-family="Times,serif" font-size="14.00">1</text>
</a>
</g>
</g>
<!-- Ring&#45;&gt;Rng -->
<g id="edge14" class="edge">
<title>Ring&#45;&gt;Rng</title>
<path fill="none" stroke="black" d="M257.24,-640.38C257.17,-632.17 257.09,-622.96 257.01,-613.71"/>
<polygon fill="none" stroke="black" points="260.51,-613.67 256.92,-603.7 253.51,-613.73 260.51,-613.67"/>
</g>
<!-- MultiplicativeAbelianGroup -->
<g id="node14" class="node">
<title>MultiplicativeAbelianGroup</title>
<g id="a_node14"><a xlink:href="https://github.com/mihxil/math/blob/main/mihxil-math/src/main/java/org/meeuw/math/abstractalgebra/MultiplicativeAbelianGroup.java" xlink:title="{\N|{ ⋅ &#160;/ \n⇆ | 1}}">
<polygon fill="none" stroke="black" points="431,-640.5 431,-701.5 644,-701.5 644,-640.5 431,-640.5"/>
<text text-anchor="middle" x="537.5" y="-686.3" font-family="Times,serif" font-size="14.00">MultiplicativeAbelianGroup</text>
<polyline fill="none" stroke="black" points="431,-678.5 644,-678.5 "/>
<text text-anchor="middle" x="485" y="-663.3" font-family="Times,serif" font-size="14.00">⋅/ </text>
<text text-anchor="middle" x="485" y="-648.3" font-family="Times,serif" font-size="14.00">⇆</text>
<polyline fill="none" stroke="black" points="539,-640.5 539,-678.5 "/>
<text text-anchor="middle" x="591.5" y="-655.8" font-family="Times,serif" font-size="14.00">1</text>
</a>
</g>
</g>
<!-- MultiplicativeAbelianGroup&#45;&gt;MultiplicativeAbelianSemiGroup -->
<g id="edge15" class="edge">
<title>MultiplicativeAbelianGroup&#45;&gt;MultiplicativeAbelianSemiGroup</title>
<path fill="none" stroke="black" d="M546.57,-640.14C558.89,-599.63 581.06,-526.66 596.03,-477.41"/>
<polygon fill="none" stroke="black" points="599.46,-478.17 599.01,-467.58 592.76,-476.13 599.46,-478.17"/>
</g>
<!-- MultiplicativeAbelianGroup&#45;&gt;MultiplicativeGroup -->
<g id="edge16" class="edge">
<title>MultiplicativeAbelianGroup&#45;&gt;MultiplicativeGroup</title>
<path fill="none" stroke="black" d="M501.96,-640.38C488.36,-629.05 472.47,-615.81 457.32,-603.18"/>
<polygon fill="none" stroke="black" points="459.4,-600.36 449.48,-596.65 454.92,-605.74 459.4,-600.36"/>
</g>
<!-- DivisionRing -->
<g id="node15" class="node">
<title>DivisionRing</title>
<g id="a_node15"><a xlink:href="https://github.com/mihxil/math/blob/main/mihxil-math/src/main/java/org/meeuw/math/abstractalgebra/DivisionRing.java" xlink:title="{\N|{ + &#160;&#45; \n⇆ | &#160;⋅ &#160;/ &#160;| 0 | 1}|ℍ(ℚ)}">
<polygon fill="none" stroke="black" points="337.5,-738.5 337.5,-822.5 457.5,-822.5 457.5,-738.5 337.5,-738.5"/>
<text text-anchor="middle" x="397.5" y="-807.3" font-family="Times,serif" font-size="14.00">DivisionRing</text>
<polyline fill="none" stroke="black" points="337.5,-799.5 457.5,-799.5 "/>
<text text-anchor="middle" x="358.5" y="-784.3" font-family="Times,serif" font-size="14.00">+ &#45; </text>
<text text-anchor="middle" x="358.5" y="-769.3" font-family="Times,serif" font-size="14.00">⇆</text>
<polyline fill="none" stroke="black" points="379.5,-761.5 379.5,-799.5 "/>
<text text-anchor="middle" x="392.5" y="-776.8" font-family="Times,serif" font-size="14.00">⋅/</text>
<polyline fill="none" stroke="black" points="405.5,-761.5 405.5,-799.5 "/>
<text text-anchor="middle" x="418.5" y="-776.8" font-family="Times,serif" font-size="14.00">0</text>
<polyline fill="none" stroke="black" points="431.5,-761.5 431.5,-799.5 "/>
<text text-anchor="middle" x="444.5" y="-776.8" font-family="Times,serif" font-size="14.00">1</text>
<polyline fill="none" stroke="black" points="337.5,-761.5 457.5,-761.5 "/>
<text text-anchor="middle" x="397.5" y="-746.3" font-family="Times,serif" font-size="14.00">ℍ(ℚ)</text>
</a>
</g>
</g>
<!-- DivisionRing&#45;&gt;MultiplicativeGroup -->
<g id="edge17" class="edge">
<title>DivisionRing&#45;&gt;MultiplicativeGroup</title>
<path fill="none" stroke="black" d="M397.87,-738.32C398.2,-701.29 398.68,-646.73 399.04,-606.76"/>
<polygon fill="none" stroke="black" points="402.54,-606.71 399.13,-596.68 395.54,-606.64 402.54,-606.71"/>
</g>
<!-- DivisionRing&#45;&gt;Ring -->
<g id="edge18" class="edge">
<title>DivisionRing&#45;&gt;Ring</title>
<path fill="none" stroke="black" d="M343.77,-738.25C330.74,-728.24 316.92,-717.62 304.24,-707.89"/>
<polygon fill="none" stroke="black" points="306.15,-704.95 296.09,-701.63 301.89,-710.5 306.15,-704.95"/>
</g>
<!-- AbelianRing -->
<g id="node16" class="node">
<title>AbelianRing</title>
<g id="a_node16"><a xlink:href="https://github.com/mihxil/math/blob/main/mihxil-math/src/main/java/org/meeuw/math/abstractalgebra/AbelianRing.java" xlink:title="{\N|{ + &#160;&#45; \n⇆ | &#160;⋅ \n⇆ | 0 | 1}}">
<polygon fill="none" stroke="black" points="196,-750 196,-811 319,-811 319,-750 196,-750"/>
<text text-anchor="middle" x="257.5" y="-795.8" font-family="Times,serif" font-size="14.00">AbelianRing</text>
<polyline fill="none" stroke="black" points="196,-788 319,-788 "/>
<text text-anchor="middle" x="217" y="-772.8" font-family="Times,serif" font-size="14.00">+ &#45; </text>
<text text-anchor="middle" x="217" y="-757.8" font-family="Times,serif" font-size="14.00">⇆</text>
<polyline fill="none" stroke="black" points="238,-750 238,-788 "/>
<text text-anchor="middle" x="252.5" y="-772.8" font-family="Times,serif" font-size="14.00">⋅</text>
<text text-anchor="middle" x="252.5" y="-757.8" font-family="Times,serif" font-size="14.00">⇆</text>
<polyline fill="none" stroke="black" points="267,-750 267,-788 "/>
<text text-anchor="middle" x="280" y="-765.3" font-family="Times,serif" font-size="14.00">0</text>
<polyline fill="none" stroke="black" points="293,-750 293,-788 "/>
<text text-anchor="middle" x="306" y="-765.3" font-family="Times,serif" font-size="14.00">1</text>
</a>
</g>
</g>
<!-- AbelianRing&#45;&gt;Ring -->
<g id="edge19" class="edge">
<title>AbelianRing&#45;&gt;Ring</title>
<path fill="none" stroke="black" d="M257.5,-749.84C257.5,-738.09 257.5,-724.4 257.5,-711.81"/>
<polygon fill="none" stroke="black" points="261,-711.56 257.5,-701.56 254,-711.56 261,-711.56"/>
</g>
<!-- DivisibleGroup -->
<g id="node17" class="node">
<title>DivisibleGroup</title>
<g id="a_node17"><a xlink:href="https://github.com/mihxil/math/blob/main/mihxil-math/src/main/java/org/meeuw/math/abstractalgebra/DivisibleGroup.java" xlink:title="{\N|{ ⋅ &#160;/ \n⇆ | 1}}">
<polygon fill="none" stroke="black" points="476,-750 476,-811 599,-811 599,-750 476,-750"/>
<text text-anchor="middle" x="537.5" y="-795.8" font-family="Times,serif" font-size="14.00">DivisibleGroup</text>
<polyline fill="none" stroke="black" points="476,-788 599,-788 "/>
<text text-anchor="middle" x="507.5" y="-772.8" font-family="Times,serif" font-size="14.00">⋅/ </text>
<text text-anchor="middle" x="507.5" y="-757.8" font-family="Times,serif" font-size="14.00">⇆</text>
<polyline fill="none" stroke="black" points="539,-750 539,-788 "/>
<text text-anchor="middle" x="569" y="-765.3" font-family="Times,serif" font-size="14.00">1</text>
</a>
</g>
</g>
<!-- DivisibleGroup&#45;&gt;MultiplicativeAbelianGroup -->
<g id="edge20" class="edge">
<title>DivisibleGroup&#45;&gt;MultiplicativeAbelianGroup</title>
<path fill="none" stroke="black" d="M537.5,-749.84C537.5,-738.09 537.5,-724.4 537.5,-711.81"/>
<polygon fill="none" stroke="black" points="541,-711.56 537.5,-701.56 534,-711.56 541,-711.56"/>
</g>
<!-- Field -->
<g id="node18" class="node">
<title>Field</title>
<g id="a_node18"><a xlink:href="https://github.com/mihxil/math/blob/main/mihxil-math/src/main/java/org/meeuw/math/abstractalgebra/Field.java" xlink:title="{\N|{ + &#160;&#45; \n⇆ | &#160;⋅ &#160;/ \n⇆ | 0 | 1}|ModuloField\n ᵁ0(i)\nℤ/3ℤ}">
<polygon fill="none" stroke="black" points="336.5,-859.5 336.5,-973.5 460.5,-973.5 460.5,-859.5 336.5,-859.5"/>
<text text-anchor="middle" x="398.5" y="-958.3" font-family="Times,serif" font-size="14.00">Field</text>
<polyline fill="none" stroke="black" points="336.5,-950.5 460.5,-950.5 "/>
<text text-anchor="middle" x="357.5" y="-935.3" font-family="Times,serif" font-size="14.00">+ &#45; </text>
<text text-anchor="middle" x="357.5" y="-920.3" font-family="Times,serif" font-size="14.00">⇆</text>
<polyline fill="none" stroke="black" points="378.5,-912.5 378.5,-950.5 "/>
<text text-anchor="middle" x="393.5" y="-935.3" font-family="Times,serif" font-size="14.00">⋅/ </text>
<text text-anchor="middle" x="393.5" y="-920.3" font-family="Times,serif" font-size="14.00">⇆</text>
<polyline fill="none" stroke="black" points="408.5,-912.5 408.5,-950.5 "/>
<text text-anchor="middle" x="421.5" y="-927.8" font-family="Times,serif" font-size="14.00">0</text>
<polyline fill="none" stroke="black" points="434.5,-912.5 434.5,-950.5 "/>
<text text-anchor="middle" x="447.5" y="-927.8" font-family="Times,serif" font-size="14.00">1</text>
<polyline fill="none" stroke="black" points="336.5,-912.5 460.5,-912.5 "/>
<text text-anchor="middle" x="398.5" y="-897.3" font-family="Times,serif" font-size="14.00">ModuloField</text>
<text text-anchor="middle" x="398.5" y="-882.3" font-family="Times,serif" font-size="14.00"> ᵁ0(i)</text>
<text text-anchor="middle" x="398.5" y="-867.3" font-family="Times,serif" font-size="14.00">ℤ/3ℤ</text>
</a>
</g>
</g>
<!-- Field&#45;&gt;DivisionRing -->
<g id="edge21" class="edge">
<title>Field&#45;&gt;DivisionRing</title>
<path fill="none" stroke="black" d="M398.08,-859.45C398.02,-850.58 397.95,-841.45 397.88,-832.71"/>
<polygon fill="none" stroke="black" points="401.38,-832.62 397.81,-822.65 394.38,-832.68 401.38,-832.62"/>
</g>
<!-- Field&#45;&gt;AbelianRing -->
<g id="edge22" class="edge">
<title>Field&#45;&gt;AbelianRing</title>
<path fill="none" stroke="black" d="M339.52,-859.45C324.75,-845.41 309.28,-830.71 295.81,-817.91"/>
<polygon fill="none" stroke="black" points="298.21,-815.36 288.55,-811.01 293.39,-820.44 298.21,-815.36"/>
</g>
<!-- Field&#45;&gt;DivisibleGroup -->
<g id="edge23" class="edge">
<title>Field&#45;&gt;DivisibleGroup</title>
<path fill="none" stroke="black" d="M456.64,-859.45C471.07,-845.54 486.17,-830.98 499.36,-818.27"/>
<polygon fill="none" stroke="black" points="502.12,-820.47 506.89,-811.01 497.26,-815.43 502.12,-820.47"/>
</g>
<!-- VectorSpace -->
<g id="node19" class="node">
<title>VectorSpace</title>
<g id="a_node19"><a xlink:href="https://github.com/mihxil/math/blob/main/mihxil-math/src/main/java/org/meeuw/math/abstractalgebra/VectorSpace.java" xlink:title="{\N|{ + &#160;&#45; \n⇆ | &#160;⋅ \n⇆ | 0 | 1}| ℝₚ³\nℚ³}">
<polygon fill="none" stroke="black" points="195,-867 195,-966 318,-966 318,-867 195,-867"/>
<text text-anchor="middle" x="256.5" y="-950.8" font-family="Times,serif" font-size="14.00">VectorSpace</text>
<polyline fill="none" stroke="black" points="195,-943 318,-943 "/>
<text text-anchor="middle" x="216" y="-927.8" font-family="Times,serif" font-size="14.00">+ &#45; </text>
<text text-anchor="middle" x="216" y="-912.8" font-family="Times,serif" font-size="14.00">⇆</text>
<polyline fill="none" stroke="black" points="237,-905 237,-943 "/>
<text text-anchor="middle" x="251.5" y="-927.8" font-family="Times,serif" font-size="14.00">⋅</text>
<text text-anchor="middle" x="251.5" y="-912.8" font-family="Times,serif" font-size="14.00">⇆</text>
<polyline fill="none" stroke="black" points="266,-905 266,-943 "/>
<text text-anchor="middle" x="279" y="-920.3" font-family="Times,serif" font-size="14.00">0</text>
<polyline fill="none" stroke="black" points="292,-905 292,-943 "/>
<text text-anchor="middle" x="305" y="-920.3" font-family="Times,serif" font-size="14.00">1</text>
<polyline fill="none" stroke="black" points="195,-905 318,-905 "/>
<text text-anchor="middle" x="256.5" y="-889.8" font-family="Times,serif" font-size="14.00">ℝₚ³</text>
<text text-anchor="middle" x="256.5" y="-874.8" font-family="Times,serif" font-size="14.00">ℚ³</text>
</a>
</g>
</g>
<!-- VectorSpace&#45;&gt;AbelianRing -->
<g id="edge24" class="edge">
<title>VectorSpace&#45;&gt;AbelianRing</title>
<path fill="none" stroke="black" d="M256.86,-866.74C256.97,-851.96 257.09,-835.88 257.2,-821.72"/>
<polygon fill="none" stroke="black" points="260.7,-821.34 257.28,-811.32 253.7,-821.29 260.7,-821.34"/>
</g>
<!-- ScalarField -->
<g id="node20" class="node">
<title>ScalarField</title>
<g id="a_node20"><a xlink:href="https://github.com/mihxil/math/blob/main/mihxil-math/src/main/java/org/meeuw/math/abstractalgebra/ScalarField.java" xlink:title="{\N|{ + &#160;&#45; \n⇆ | &#160;⋅ &#160;/ \n⇆ | 0 | 1}| ℚ}">
<polygon fill="none" stroke="black" points="336.5,-1010.5 336.5,-1094.5 460.5,-1094.5 460.5,-1010.5 336.5,-1010.5"/>
<text text-anchor="middle" x="398.5" y="-1079.3" font-family="Times,serif" font-size="14.00">ScalarField</text>
<polyline fill="none" stroke="black" points="336.5,-1071.5 460.5,-1071.5 "/>
<text text-anchor="middle" x="357.5" y="-1056.3" font-family="Times,serif" font-size="14.00">+ &#45; </text>
<text text-anchor="middle" x="357.5" y="-1041.3" font-family="Times,serif" font-size="14.00">⇆</text>
<polyline fill="none" stroke="black" points="378.5,-1033.5 378.5,-1071.5 "/>
<text text-anchor="middle" x="393.5" y="-1056.3" font-family="Times,serif" font-size="14.00">⋅/ </text>
<text text-anchor="middle" x="393.5" y="-1041.3" font-family="Times,serif" font-size="14.00">⇆</text>
<polyline fill="none" stroke="black" points="408.5,-1033.5 408.5,-1071.5 "/>
<text text-anchor="middle" x="421.5" y="-1048.8" font-family="Times,serif" font-size="14.00">0</text>
<polyline fill="none" stroke="black" points="434.5,-1033.5 434.5,-1071.5 "/>
<text text-anchor="middle" x="447.5" y="-1048.8" font-family="Times,serif" font-size="14.00">1</text>
<polyline fill="none" stroke="black" points="336.5,-1033.5 460.5,-1033.5 "/>
<text text-anchor="middle" x="398.5" y="-1018.3" font-family="Times,serif" font-size="14.00">ℚ</text>
</a>
</g>
</g>
<!-- ScalarField&#45;&gt;Field -->
<g id="edge25" class="edge">
<title>ScalarField&#45;&gt;Field</title>
<path fill="none" stroke="black" d="M398.5,-1010.2C398.5,-1001.82 398.5,-992.81 398.5,-983.81"/>
<polygon fill="none" stroke="black" points="402,-983.7 398.5,-973.7 395,-983.7 402,-983.7"/>
</g>
<!-- CompleteField -->
<g id="node21" class="node">
<title>CompleteField</title>
<g id="a_node21"><a xlink:href="https://github.com/mihxil/math/blob/main/mihxil-math/src/main/java/org/meeuw/math/abstractalgebra/CompleteField.java" xlink:title="{\N|{ + &#160;&#45; \n⇆ | &#160;⋅ &#160;/ \n⇆ | 0 | 1}| ℝ\n ℝₚ}">
<polygon fill="none" stroke="black" points="336.5,-1131.5 336.5,-1230.5 460.5,-1230.5 460.5,-1131.5 336.5,-1131.5"/>
<text text-anchor="middle" x="398.5" y="-1215.3" font-family="Times,serif" font-size="14.00">CompleteField</text>
<polyline fill="none" stroke="black" points="336.5,-1207.5 460.5,-1207.5 "/>
<text text-anchor="middle" x="357.5" y="-1192.3" font-family="Times,serif" font-size="14.00">+ &#45; </text>
<text text-anchor="middle" x="357.5" y="-1177.3" font-family="Times,serif" font-size="14.00">⇆</text>
<polyline fill="none" stroke="black" points="378.5,-1169.5 378.5,-1207.5 "/>
<text text-anchor="middle" x="393.5" y="-1192.3" font-family="Times,serif" font-size="14.00">⋅/ </text>
<text text-anchor="middle" x="393.5" y="-1177.3" font-family="Times,serif" font-size="14.00">⇆</text>
<polyline fill="none" stroke="black" points="408.5,-1169.5 408.5,-1207.5 "/>
<text text-anchor="middle" x="421.5" y="-1184.8" font-family="Times,serif" font-size="14.00">0</text>
<polyline fill="none" stroke="black" points="434.5,-1169.5 434.5,-1207.5 "/>
<text text-anchor="middle" x="447.5" y="-1184.8" font-family="Times,serif" font-size="14.00">1</text>
<polyline fill="none" stroke="black" points="336.5,-1169.5 460.5,-1169.5 "/>
<text text-anchor="middle" x="398.5" y="-1154.3" font-family="Times,serif" font-size="14.00">ℝ</text>
<text text-anchor="middle" x="398.5" y="-1139.3" font-family="Times,serif" font-size="14.00"> ℝₚ</text>
</a>
</g>
</g>
<!-- CompleteField&#45;&gt;ScalarField -->
<g id="edge26" class="edge">
<title>CompleteField&#45;&gt;ScalarField</title>
<path fill="none" stroke="black" d="M398.5,-1131.45C398.5,-1122.74 398.5,-1113.63 398.5,-1104.84"/>
<polygon fill="none" stroke="black" points="402,-1104.71 398.5,-1094.71 395,-1104.71 402,-1104.71"/>
</g>
</g>
</svg>
