<?xml version="1.0" encoding="UTF-8" standalone="no"?>
<!DOCTYPE svg PUBLIC "-//W3C//DTD SVG 1.1//EN"
 "http://www.w3.org/Graphics/SVG/1.1/DTD/svg11.dtd">
<!-- Generated by graphviz version 2.44.0 ()
 -->
<!-- Pages: 1 -->
<svg width="548pt" height="1156pt"
 viewBox="0.00 0.00 547.50 1156.00" xmlns="http://www.w3.org/2000/svg" xmlns:xlink="http://www.w3.org/1999/xlink">
<g id="graph0" class="graph" transform="scale(1 1) rotate(0) translate(4 1152)">
<polygon fill="white" stroke="transparent" points="-4,4 -4,-1152 543.5,-1152 543.5,4 -4,4"/>
<!-- AdditiveSemiGroup -->
<g id="node1" class="node">
<title>AdditiveSemiGroup</title>
<g id="a_node1"><a xlink:href="https://github.com/mihxil/math/blob/main/mihxil-math/src/main/java/org/meeuw/math/abstractalgebra/AdditiveSemiGroup.java" xlink:title="{\N|{ + }}">
<polygon fill="none" stroke="black" points="161,-73.5 161,-119.5 317,-119.5 317,-73.5 161,-73.5"/>
<text text-anchor="middle" x="239" y="-104.3" font-family="Times,serif" font-size="14.00">AdditiveSemiGroup</text>
<polyline fill="none" stroke="black" points="161,-96.5 317,-96.5 "/>
<text text-anchor="middle" x="239" y="-81.3" font-family="Times,serif" font-size="14.00">+</text>
</a>
</g>
</g>
<!-- AlgebraicStructure -->
<g id="node2" class="node">
<title>AlgebraicStructure</title>
<polygon fill="none" stroke="black" points="215.5,-0.5 215.5,-36.5 368.5,-36.5 368.5,-0.5 215.5,-0.5"/>
<text text-anchor="middle" x="292" y="-14.8" font-family="Times,serif" font-size="14.00">AlgebraicStructure</text>
</g>
<!-- AdditiveSemiGroup&#45;&gt;AlgebraicStructure -->
<g id="edge1" class="edge">
<title>AdditiveSemiGroup&#45;&gt;AlgebraicStructure</title>
<path fill="none" stroke="black" d="M254.62,-73.11C260.72,-64.35 267.77,-54.25 274.08,-45.2"/>
<polygon fill="none" stroke="black" points="277.01,-47.12 279.86,-36.91 271.27,-43.11 277.01,-47.12"/>
</g>
<!-- MultiplicativeSemiGroup -->
<g id="node3" class="node">
<title>MultiplicativeSemiGroup</title>
<g id="a_node3"><a xlink:href="https://github.com/mihxil/math/blob/main/mihxil-math/src/main/java/org/meeuw/math/abstractalgebra/MultiplicativeSemiGroup.java" xlink:title="{\N|{ * }}">
<polygon fill="none" stroke="black" points="260,-353 260,-399 456,-399 456,-353 260,-353"/>
<text text-anchor="middle" x="358" y="-383.8" font-family="Times,serif" font-size="14.00">MultiplicativeSemiGroup</text>
<polyline fill="none" stroke="black" points="260,-376 456,-376 "/>
<text text-anchor="middle" x="358" y="-360.8" font-family="Times,serif" font-size="14.00">*</text>
</a>
</g>
</g>
<!-- MultiplicativeSemiGroup&#45;&gt;AlgebraicStructure -->
<g id="edge2" class="edge">
<title>MultiplicativeSemiGroup&#45;&gt;AlgebraicStructure</title>
<path fill="none" stroke="black" d="M359.05,-352.64C360.74,-301.52 360.84,-172.81 326,-73 322.61,-63.28 317.16,-53.53 311.6,-45.06"/>
<polygon fill="none" stroke="black" points="314.43,-42.98 305.86,-36.75 308.67,-46.97 314.43,-42.98"/>
</g>
<!-- AdditiveMonoid -->
<g id="node4" class="node">
<title>AdditiveMonoid</title>
<g id="a_node4"><a xlink:href="https://github.com/mihxil/math/blob/main/mihxil-math/src/main/java/org/meeuw/math/abstractalgebra/AdditiveMonoid.java" xlink:title="{\N|{ + &#160;| 0}|StringMonoid}">
<polygon fill="none" stroke="black" points="162.5,-156.5 162.5,-225.5 291.5,-225.5 291.5,-156.5 162.5,-156.5"/>
<text text-anchor="middle" x="227" y="-210.3" font-family="Times,serif" font-size="14.00">AdditiveMonoid</text>
<polyline fill="none" stroke="black" points="162.5,-202.5 291.5,-202.5 "/>
<text text-anchor="middle" x="195.5" y="-187.3" font-family="Times,serif" font-size="14.00">+</text>
<polyline fill="none" stroke="black" points="228.5,-179.5 228.5,-202.5 "/>
<text text-anchor="middle" x="260" y="-187.3" font-family="Times,serif" font-size="14.00">0</text>
<polyline fill="none" stroke="black" points="162.5,-179.5 291.5,-179.5 "/>
<text text-anchor="middle" x="227" y="-164.3" font-family="Times,serif" font-size="14.00">StringMonoid</text>
</a>
</g>
</g>
<!-- AdditiveMonoid&#45;&gt;AdditiveSemiGroup -->
<g id="edge3" class="edge">
<title>AdditiveMonoid&#45;&gt;AdditiveSemiGroup</title>
<path fill="none" stroke="black" d="M231.37,-156.34C232.49,-147.68 233.7,-138.37 234.81,-129.78"/>
<polygon fill="none" stroke="black" points="238.3,-130.1 236.12,-119.74 231.36,-129.2 238.3,-130.1"/>
</g>
<!-- MultiplicativeMonoid -->
<g id="node5" class="node">
<title>MultiplicativeMonoid</title>
<g id="a_node5"><a xlink:href="https://github.com/mihxil/math/blob/main/mihxil-math/src/main/java/org/meeuw/math/abstractalgebra/MultiplicativeMonoid.java" xlink:title="{\N|{ * &#160;| 1}|OddIntegers}">
<polygon fill="none" stroke="black" points="273.5,-451 273.5,-520 442.5,-520 442.5,-451 273.5,-451"/>
<text text-anchor="middle" x="358" y="-504.8" font-family="Times,serif" font-size="14.00">MultiplicativeMonoid</text>
<polyline fill="none" stroke="black" points="273.5,-497 442.5,-497 "/>
<text text-anchor="middle" x="315" y="-481.8" font-family="Times,serif" font-size="14.00">*</text>
<polyline fill="none" stroke="black" points="356.5,-474 356.5,-497 "/>
<text text-anchor="middle" x="399.5" y="-481.8" font-family="Times,serif" font-size="14.00">1</text>
<polyline fill="none" stroke="black" points="273.5,-474 442.5,-474 "/>
<text text-anchor="middle" x="358" y="-458.8" font-family="Times,serif" font-size="14.00">OddIntegers</text>
</a>
</g>
</g>
<!-- MultiplicativeMonoid&#45;&gt;MultiplicativeSemiGroup -->
<g id="edge4" class="edge">
<title>MultiplicativeMonoid&#45;&gt;MultiplicativeSemiGroup</title>
<path fill="none" stroke="black" d="M358,-450.78C358,-437.47 358,-422.24 358,-409.09"/>
<polygon fill="none" stroke="black" points="361.5,-409.07 358,-399.07 354.5,-409.07 361.5,-409.07"/>
</g>
<!-- Rng -->
<g id="node6" class="node">
<title>Rng</title>
<g id="a_node6"><a xlink:href="https://github.com/mihxil/math/blob/main/mihxil-math/src/main/java/org/meeuw/math/abstractalgebra/Rng.java" xlink:title="{\N|{ + &#160;&#45; \n⇆ | &#160;* &#160;| 0}|EvenIntegers}">
<polygon fill="none" stroke="black" points="116.5,-443.5 116.5,-527.5 229.5,-527.5 229.5,-443.5 116.5,-443.5"/>
<text text-anchor="middle" x="173" y="-512.3" font-family="Times,serif" font-size="14.00">Rng</text>
<polyline fill="none" stroke="black" points="116.5,-504.5 229.5,-504.5 "/>
<text text-anchor="middle" x="141" y="-489.3" font-family="Times,serif" font-size="14.00">+ &#45; </text>
<text text-anchor="middle" x="141" y="-474.3" font-family="Times,serif" font-size="14.00">⇆</text>
<polyline fill="none" stroke="black" points="165.5,-466.5 165.5,-504.5 "/>
<text text-anchor="middle" x="180.5" y="-481.8" font-family="Times,serif" font-size="14.00">*</text>
<polyline fill="none" stroke="black" points="195.5,-466.5 195.5,-504.5 "/>
<text text-anchor="middle" x="212.5" y="-481.8" font-family="Times,serif" font-size="14.00">0</text>
<polyline fill="none" stroke="black" points="116.5,-466.5 229.5,-466.5 "/>
<text text-anchor="middle" x="173" y="-451.3" font-family="Times,serif" font-size="14.00">EvenIntegers</text>
</a>
</g>
</g>
<!-- Rng&#45;&gt;MultiplicativeSemiGroup -->
<g id="edge5" class="edge">
<title>Rng&#45;&gt;MultiplicativeSemiGroup</title>
<path fill="none" stroke="black" d="M229.51,-451.66C255.63,-436.48 286.29,-418.67 311.1,-404.25"/>
<polygon fill="none" stroke="black" points="313.07,-407.15 319.96,-399.1 309.56,-401.1 313.07,-407.15"/>
</g>
<!-- AdditiveAbelianGroup -->
<g id="node7" class="node">
<title>AdditiveAbelianGroup</title>
<g id="a_node7"><a xlink:href="https://github.com/mihxil/math/blob/main/mihxil-math/src/main/java/org/meeuw/math/abstractalgebra/AdditiveAbelianGroup.java" xlink:title="{\N|{ + &#160;&#45; \n⇆ | 0}}">
<polygon fill="none" stroke="black" points="68.5,-345.5 68.5,-406.5 241.5,-406.5 241.5,-345.5 68.5,-345.5"/>
<text text-anchor="middle" x="155" y="-391.3" font-family="Times,serif" font-size="14.00">AdditiveAbelianGroup</text>
<polyline fill="none" stroke="black" points="68.5,-383.5 241.5,-383.5 "/>
<text text-anchor="middle" x="115.5" y="-368.3" font-family="Times,serif" font-size="14.00">+ &#45; </text>
<text text-anchor="middle" x="115.5" y="-353.3" font-family="Times,serif" font-size="14.00">⇆</text>
<polyline fill="none" stroke="black" points="162.5,-345.5 162.5,-383.5 "/>
<text text-anchor="middle" x="202" y="-360.8" font-family="Times,serif" font-size="14.00">0</text>
</a>
</g>
</g>
<!-- Rng&#45;&gt;AdditiveAbelianGroup -->
<g id="edge6" class="edge">
<title>Rng&#45;&gt;AdditiveAbelianGroup</title>
<path fill="none" stroke="black" d="M166.09,-443.25C164.62,-434.48 163.08,-425.24 161.62,-416.54"/>
<polygon fill="none" stroke="black" points="165.07,-415.92 159.96,-406.63 158.16,-417.07 165.07,-415.92"/>
</g>
<!-- AdditiveGroup -->
<g id="node8" class="node">
<title>AdditiveGroup</title>
<g id="a_node8"><a xlink:href="https://github.com/mihxil/math/blob/main/mihxil-math/src/main/java/org/meeuw/math/abstractalgebra/AdditiveGroup.java" xlink:title="{\N|{ + &#160;&#45; &#160;| 0}}">
<polygon fill="none" stroke="black" points="143,-262.5 143,-308.5 263,-308.5 263,-262.5 143,-262.5"/>
<text text-anchor="middle" x="203" y="-293.3" font-family="Times,serif" font-size="14.00">AdditiveGroup</text>
<polyline fill="none" stroke="black" points="143,-285.5 263,-285.5 "/>
<text text-anchor="middle" x="176" y="-270.3" font-family="Times,serif" font-size="14.00">+ &#45;</text>
<polyline fill="none" stroke="black" points="209,-262.5 209,-285.5 "/>
<text text-anchor="middle" x="236" y="-270.3" font-family="Times,serif" font-size="14.00">0</text>
</a>
</g>
</g>
<!-- AdditiveAbelianGroup&#45;&gt;AdditiveGroup -->
<g id="edge10" class="edge">
<title>AdditiveAbelianGroup&#45;&gt;AdditiveGroup</title>
<path fill="none" stroke="black" d="M171.25,-345.04C176.05,-336.18 181.32,-326.47 186.16,-317.54"/>
<polygon fill="none" stroke="black" points="189.32,-319.06 191.02,-308.6 183.17,-315.72 189.32,-319.06"/>
</g>
<!-- AdditiveGroup&#45;&gt;AdditiveMonoid -->
<g id="edge7" class="edge">
<title>AdditiveGroup&#45;&gt;AdditiveMonoid</title>
<path fill="none" stroke="black" d="M208.81,-262.11C210.89,-254.1 213.31,-244.77 215.69,-235.59"/>
<polygon fill="none" stroke="black" points="219.12,-236.3 218.24,-225.75 212.34,-234.55 219.12,-236.3"/>
</g>
<!-- MultiplicativeGroup -->
<g id="node9" class="node">
<title>MultiplicativeGroup</title>
<g id="a_node9"><a xlink:href="https://github.com/mihxil/math/blob/main/mihxil-math/src/main/java/org/meeuw/math/abstractalgebra/MultiplicativeGroup.java" xlink:title="{\N|{ * &#160;/ &#160;| 1}|PermutationGroup}">
<polygon fill="none" stroke="black" points="278,-572 278,-641 438,-641 438,-572 278,-572"/>
<text text-anchor="middle" x="358" y="-625.8" font-family="Times,serif" font-size="14.00">MultiplicativeGroup</text>
<polyline fill="none" stroke="black" points="278,-618 438,-618 "/>
<text text-anchor="middle" x="319.5" y="-602.8" font-family="Times,serif" font-size="14.00">* /</text>
<polyline fill="none" stroke="black" points="361,-595 361,-618 "/>
<text text-anchor="middle" x="399.5" y="-602.8" font-family="Times,serif" font-size="14.00">1</text>
<polyline fill="none" stroke="black" points="278,-595 438,-595 "/>
<text text-anchor="middle" x="358" y="-579.8" font-family="Times,serif" font-size="14.00">PermutationGroup</text>
</a>
</g>
</g>
<!-- MultiplicativeGroup&#45;&gt;MultiplicativeMonoid -->
<g id="edge8" class="edge">
<title>MultiplicativeGroup&#45;&gt;MultiplicativeMonoid</title>
<path fill="none" stroke="black" d="M358,-571.72C358,-558.9 358,-544.12 358,-530.5"/>
<polygon fill="none" stroke="black" points="361.5,-530.37 358,-520.37 354.5,-530.37 361.5,-530.37"/>
</g>
<!-- Ring -->
<g id="node10" class="node">
<title>Ring</title>
<g id="a_node10"><a xlink:href="https://github.com/mihxil/math/blob/main/mihxil-math/src/main/java/org/meeuw/math/abstractalgebra/Ring.java" xlink:title="{\N|{ + &#160;&#45; \n⇆ | &#160;* &#160;| 0 | 1}|ModuloStructure}">
<polygon fill="none" stroke="black" points="103.5,-564.5 103.5,-648.5 242.5,-648.5 242.5,-564.5 103.5,-564.5"/>
<text text-anchor="middle" x="173" y="-633.3" font-family="Times,serif" font-size="14.00">Ring</text>
<polyline fill="none" stroke="black" points="103.5,-625.5 242.5,-625.5 "/>
<text text-anchor="middle" x="127" y="-610.3" font-family="Times,serif" font-size="14.00">+ &#45; </text>
<text text-anchor="middle" x="127" y="-595.3" font-family="Times,serif" font-size="14.00">⇆</text>
<polyline fill="none" stroke="black" points="150.5,-587.5 150.5,-625.5 "/>
<text text-anchor="middle" x="165" y="-602.8" font-family="Times,serif" font-size="14.00">*</text>
<polyline fill="none" stroke="black" points="179.5,-587.5 179.5,-625.5 "/>
<text text-anchor="middle" x="195" y="-602.8" font-family="Times,serif" font-size="14.00">0</text>
<polyline fill="none" stroke="black" points="210.5,-587.5 210.5,-625.5 "/>
<text text-anchor="middle" x="226.5" y="-602.8" font-family="Times,serif" font-size="14.00">1</text>
<polyline fill="none" stroke="black" points="103.5,-587.5 242.5,-587.5 "/>
<text text-anchor="middle" x="173" y="-572.3" font-family="Times,serif" font-size="14.00">ModuloStructure</text>
</a>
</g>
</g>
<!-- Ring&#45;&gt;Rng -->
<g id="edge9" class="edge">
<title>Ring&#45;&gt;Rng</title>
<path fill="none" stroke="black" d="M173,-564.21C173,-555.72 173,-546.68 173,-537.88"/>
<polygon fill="none" stroke="black" points="176.5,-537.71 173,-527.71 169.5,-537.71 176.5,-537.71"/>
</g>
<!-- MultiplicativeAbelianGroup -->
<g id="node11" class="node">
<title>MultiplicativeAbelianGroup</title>
<g id="a_node11"><a xlink:href="https://github.com/mihxil/math/blob/main/mihxil-math/src/main/java/org/meeuw/math/abstractalgebra/MultiplicativeAbelianGroup.java" xlink:title="{\N|{ * &#160;/ \n⇆ | 1}}">
<polygon fill="none" stroke="black" points="326.5,-697 326.5,-758 539.5,-758 539.5,-697 326.5,-697"/>
<text text-anchor="middle" x="433" y="-742.8" font-family="Times,serif" font-size="14.00">MultiplicativeAbelianGroup</text>
<polyline fill="none" stroke="black" points="326.5,-735 539.5,-735 "/>
<text text-anchor="middle" x="382.5" y="-719.8" font-family="Times,serif" font-size="14.00">* / </text>
<text text-anchor="middle" x="382.5" y="-704.8" font-family="Times,serif" font-size="14.00">⇆</text>
<polyline fill="none" stroke="black" points="438.5,-697 438.5,-735 "/>
<text text-anchor="middle" x="489" y="-712.3" font-family="Times,serif" font-size="14.00">1</text>
</a>
</g>
</g>
<!-- MultiplicativeAbelianGroup&#45;&gt;MultiplicativeGroup -->
<g id="edge11" class="edge">
<title>MultiplicativeAbelianGroup&#45;&gt;MultiplicativeGroup</title>
<path fill="none" stroke="black" d="M414.27,-696.78C405.26,-682.49 394.31,-665.11 384.47,-649.5"/>
<polygon fill="none" stroke="black" points="387.43,-647.63 379.14,-641.04 381.51,-651.37 387.43,-647.63"/>
</g>
<!-- DivisionRing -->
<g id="node12" class="node">
<title>DivisionRing</title>
<g id="a_node12"><a xlink:href="https://github.com/mihxil/math/blob/main/mihxil-math/src/main/java/org/meeuw/math/abstractalgebra/DivisionRing.java" xlink:title="{\N|{ + &#160;&#45; \n⇆ | &#160;* &#160;/ &#160;| 0 | 1}|Quaternions}">
<polygon fill="none" stroke="black" points="182,-685.5 182,-769.5 308,-769.5 308,-685.5 182,-685.5"/>
<text text-anchor="middle" x="245" y="-754.3" font-family="Times,serif" font-size="14.00">DivisionRing</text>
<polyline fill="none" stroke="black" points="182,-746.5 308,-746.5 "/>
<text text-anchor="middle" x="203" y="-731.3" font-family="Times,serif" font-size="14.00">+ &#45; </text>
<text text-anchor="middle" x="203" y="-716.3" font-family="Times,serif" font-size="14.00">⇆</text>
<polyline fill="none" stroke="black" points="224,-708.5 224,-746.5 "/>
<text text-anchor="middle" x="240" y="-723.8" font-family="Times,serif" font-size="14.00">* /</text>
<polyline fill="none" stroke="black" points="256,-708.5 256,-746.5 "/>
<text text-anchor="middle" x="269" y="-723.8" font-family="Times,serif" font-size="14.00">0</text>
<polyline fill="none" stroke="black" points="282,-708.5 282,-746.5 "/>
<text text-anchor="middle" x="295" y="-723.8" font-family="Times,serif" font-size="14.00">1</text>
<polyline fill="none" stroke="black" points="182,-708.5 308,-708.5 "/>
<text text-anchor="middle" x="245" y="-693.3" font-family="Times,serif" font-size="14.00">Quaternions</text>
</a>
</g>
</g>
<!-- DivisionRing&#45;&gt;MultiplicativeGroup -->
<g id="edge12" class="edge">
<title>DivisionRing&#45;&gt;MultiplicativeGroup</title>
<path fill="none" stroke="black" d="M284.2,-685.21C295.39,-673.43 307.59,-660.59 318.78,-648.8"/>
<polygon fill="none" stroke="black" points="321.62,-650.9 325.97,-641.23 316.54,-646.08 321.62,-650.9"/>
</g>
<!-- DivisionRing&#45;&gt;Ring -->
<g id="edge13" class="edge">
<title>DivisionRing&#45;&gt;Ring</title>
<path fill="none" stroke="black" d="M220.02,-685.21C214.6,-676.26 208.82,-666.7 203.22,-657.45"/>
<polygon fill="none" stroke="black" points="206.11,-655.46 197.94,-648.71 200.12,-659.08 206.11,-655.46"/>
</g>
<!-- AbelianRing -->
<g id="node13" class="node">
<title>AbelianRing</title>
<g id="a_node13"><a xlink:href="https://github.com/mihxil/math/blob/main/mihxil-math/src/main/java/org/meeuw/math/abstractalgebra/AbelianRing.java" xlink:title="{\N|{ + &#160;&#45; \n⇆ | &#160;* \n⇆ | 0 | 1}}">
<polygon fill="none" stroke="black" points="40.5,-697 40.5,-758 163.5,-758 163.5,-697 40.5,-697"/>
<text text-anchor="middle" x="102" y="-742.8" font-family="Times,serif" font-size="14.00">AbelianRing</text>
<polyline fill="none" stroke="black" points="40.5,-735 163.5,-735 "/>
<text text-anchor="middle" x="61.5" y="-719.8" font-family="Times,serif" font-size="14.00">+ &#45; </text>
<text text-anchor="middle" x="61.5" y="-704.8" font-family="Times,serif" font-size="14.00">⇆</text>
<polyline fill="none" stroke="black" points="82.5,-697 82.5,-735 "/>
<text text-anchor="middle" x="97" y="-719.8" font-family="Times,serif" font-size="14.00">* </text>
<text text-anchor="middle" x="97" y="-704.8" font-family="Times,serif" font-size="14.00">⇆</text>
<polyline fill="none" stroke="black" points="111.5,-697 111.5,-735 "/>
<text text-anchor="middle" x="124.5" y="-712.3" font-family="Times,serif" font-size="14.00">0</text>
<polyline fill="none" stroke="black" points="137.5,-697 137.5,-735 "/>
<text text-anchor="middle" x="150.5" y="-712.3" font-family="Times,serif" font-size="14.00">1</text>
</a>
</g>
</g>
<!-- AbelianRing&#45;&gt;Ring -->
<g id="edge14" class="edge">
<title>AbelianRing&#45;&gt;Ring</title>
<path fill="none" stroke="black" d="M119.73,-696.78C126.88,-684.81 135.31,-670.67 143.34,-657.21"/>
<polygon fill="none" stroke="black" points="146.42,-658.88 148.54,-648.5 140.41,-655.3 146.42,-658.88"/>
</g>
<!-- Field -->
<g id="node14" class="node">
<title>Field</title>
<g id="a_node14"><a xlink:href="https://github.com/mihxil/math/blob/main/mihxil-math/src/main/java/org/meeuw/math/abstractalgebra/Field.java" xlink:title="{\N|{ + &#160;&#45; \n⇆ | &#160;* &#160;/ \n⇆ | 0 | 1}|ModuloField\nGaussianRationals}">
<polygon fill="none" stroke="black" points="188.5,-806.5 188.5,-905.5 337.5,-905.5 337.5,-806.5 188.5,-806.5"/>
<text text-anchor="middle" x="263" y="-890.3" font-family="Times,serif" font-size="14.00">Field</text>
<polyline fill="none" stroke="black" points="188.5,-882.5 337.5,-882.5 "/>
<text text-anchor="middle" x="211.5" y="-867.3" font-family="Times,serif" font-size="14.00">+ &#45; </text>
<text text-anchor="middle" x="211.5" y="-852.3" font-family="Times,serif" font-size="14.00">⇆</text>
<polyline fill="none" stroke="black" points="234.5,-844.5 234.5,-882.5 "/>
<text text-anchor="middle" x="255.5" y="-867.3" font-family="Times,serif" font-size="14.00">* / </text>
<text text-anchor="middle" x="255.5" y="-852.3" font-family="Times,serif" font-size="14.00">⇆</text>
<polyline fill="none" stroke="black" points="276.5,-844.5 276.5,-882.5 "/>
<text text-anchor="middle" x="291.5" y="-859.8" font-family="Times,serif" font-size="14.00">0</text>
<polyline fill="none" stroke="black" points="306.5,-844.5 306.5,-882.5 "/>
<text text-anchor="middle" x="322" y="-859.8" font-family="Times,serif" font-size="14.00">1</text>
<polyline fill="none" stroke="black" points="188.5,-844.5 337.5,-844.5 "/>
<text text-anchor="middle" x="263" y="-829.3" font-family="Times,serif" font-size="14.00">ModuloField</text>
<text text-anchor="middle" x="263" y="-814.3" font-family="Times,serif" font-size="14.00">GaussianRationals</text>
</a>
</g>
</g>
<!-- Field&#45;&gt;MultiplicativeAbelianGroup -->
<g id="edge15" class="edge">
<title>Field&#45;&gt;MultiplicativeAbelianGroup</title>
<path fill="none" stroke="black" d="M328.24,-806.45C347.07,-792.44 367.27,-777.41 384.86,-764.32"/>
<polygon fill="none" stroke="black" points="387.33,-766.85 393.26,-758.07 383.15,-761.23 387.33,-766.85"/>
</g>
<!-- Field&#45;&gt;DivisionRing -->
<g id="edge16" class="edge">
<title>Field&#45;&gt;DivisionRing</title>
<path fill="none" stroke="black" d="M256.09,-806.45C254.85,-797.74 253.56,-788.63 252.31,-779.84"/>
<polygon fill="none" stroke="black" points="255.74,-779.12 250.86,-769.71 248.81,-780.11 255.74,-779.12"/>
</g>
<!-- Field&#45;&gt;AbelianRing -->
<g id="edge17" class="edge">
<title>Field&#45;&gt;AbelianRing</title>
<path fill="none" stroke="black" d="M201.21,-806.45C183.38,-792.44 164.25,-777.41 147.59,-764.32"/>
<polygon fill="none" stroke="black" points="149.66,-761.49 139.63,-758.07 145.33,-767 149.66,-761.49"/>
</g>
<!-- VectorSpaceInterface -->
<g id="node15" class="node">
<title>VectorSpaceInterface</title>
<g id="a_node15"><a xlink:href="https://github.com/mihxil/math/blob/main/mihxil-math/src/main/java/org/meeuw/math/abstractalgebra/VectorSpaceInterface.java" xlink:title="{\N|{ + &#160;&#45; \n⇆ | &#160;* \n⇆ | 0 | 1}|Vector3Space}">
<polygon fill="none" stroke="black" points="0,-814 0,-898 170,-898 170,-814 0,-814"/>
<text text-anchor="middle" x="85" y="-882.8" font-family="Times,serif" font-size="14.00">VectorSpaceInterface</text>
<polyline fill="none" stroke="black" points="0,-875 170,-875 "/>
<text text-anchor="middle" x="26.5" y="-859.8" font-family="Times,serif" font-size="14.00">+ &#45; </text>
<text text-anchor="middle" x="26.5" y="-844.8" font-family="Times,serif" font-size="14.00">⇆</text>
<polyline fill="none" stroke="black" points="53,-837 53,-875 "/>
<text text-anchor="middle" x="73.5" y="-859.8" font-family="Times,serif" font-size="14.00">* </text>
<text text-anchor="middle" x="73.5" y="-844.8" font-family="Times,serif" font-size="14.00">⇆</text>
<polyline fill="none" stroke="black" points="94,-837 94,-875 "/>
<text text-anchor="middle" x="113" y="-852.3" font-family="Times,serif" font-size="14.00">0</text>
<polyline fill="none" stroke="black" points="132,-837 132,-875 "/>
<text text-anchor="middle" x="151" y="-852.3" font-family="Times,serif" font-size="14.00">1</text>
<polyline fill="none" stroke="black" points="0,-837 170,-837 "/>
<text text-anchor="middle" x="85" y="-821.8" font-family="Times,serif" font-size="14.00">Vector3Space</text>
</a>
</g>
</g>
<!-- VectorSpaceInterface&#45;&gt;AbelianRing -->
<g id="edge18" class="edge">
<title>VectorSpaceInterface&#45;&gt;AbelianRing</title>
<path fill="none" stroke="black" d="M90.52,-813.93C92.49,-799.3 94.69,-782.86 96.65,-768.33"/>
<polygon fill="none" stroke="black" points="100.15,-768.53 98.02,-758.15 93.21,-767.6 100.15,-768.53"/>
</g>
<!-- ScalarField -->
<g id="node16" class="node">
<title>ScalarField</title>
<g id="a_node16"><a xlink:href="https://github.com/mihxil/math/blob/main/mihxil-math/src/main/java/org/meeuw/math/abstractalgebra/ScalarField.java" xlink:title="{\N|{ + &#160;&#45; \n⇆ | &#160;* &#160;/ \n⇆ | 0 | 1}|RationalNumbers}">
<polygon fill="none" stroke="black" points="192,-942.5 192,-1026.5 334,-1026.5 334,-942.5 192,-942.5"/>
<text text-anchor="middle" x="263" y="-1011.3" font-family="Times,serif" font-size="14.00">ScalarField</text>
<polyline fill="none" stroke="black" points="192,-1003.5 334,-1003.5 "/>
<text text-anchor="middle" x="214" y="-988.3" font-family="Times,serif" font-size="14.00">+ &#45; </text>
<text text-anchor="middle" x="214" y="-973.3" font-family="Times,serif" font-size="14.00">⇆</text>
<polyline fill="none" stroke="black" points="236,-965.5 236,-1003.5 "/>
<text text-anchor="middle" x="256" y="-988.3" font-family="Times,serif" font-size="14.00">* / </text>
<text text-anchor="middle" x="256" y="-973.3" font-family="Times,serif" font-size="14.00">⇆</text>
<polyline fill="none" stroke="black" points="276,-965.5 276,-1003.5 "/>
<text text-anchor="middle" x="290.5" y="-980.8" font-family="Times,serif" font-size="14.00">0</text>
<polyline fill="none" stroke="black" points="305,-965.5 305,-1003.5 "/>
<text text-anchor="middle" x="319.5" y="-980.8" font-family="Times,serif" font-size="14.00">1</text>
<polyline fill="none" stroke="black" points="192,-965.5 334,-965.5 "/>
<text text-anchor="middle" x="263" y="-950.3" font-family="Times,serif" font-size="14.00">RationalNumbers</text>
</a>
</g>
</g>
<!-- ScalarField&#45;&gt;Field -->
<g id="edge19" class="edge">
<title>ScalarField&#45;&gt;Field</title>
<path fill="none" stroke="black" d="M263,-942.43C263,-933.94 263,-924.84 263,-915.85"/>
<polygon fill="none" stroke="black" points="266.5,-915.8 263,-905.8 259.5,-915.8 266.5,-915.8"/>
</g>
<!-- CompleteField -->
<g id="node17" class="node">
<title>CompleteField</title>
<g id="a_node17"><a xlink:href="https://github.com/mihxil/math/blob/main/mihxil-math/src/main/java/org/meeuw/math/abstractalgebra/CompleteField.java" xlink:title="{\N|{ + &#160;&#45; \n⇆ | &#160;* &#160;/ \n⇆ | 0 | 1}|RealField}">
<polygon fill="none" stroke="black" points="197.5,-1063.5 197.5,-1147.5 328.5,-1147.5 328.5,-1063.5 197.5,-1063.5"/>
<text text-anchor="middle" x="263" y="-1132.3" font-family="Times,serif" font-size="14.00">CompleteField</text>
<polyline fill="none" stroke="black" points="197.5,-1124.5 328.5,-1124.5 "/>
<text text-anchor="middle" x="218.5" y="-1109.3" font-family="Times,serif" font-size="14.00">+ &#45; </text>
<text text-anchor="middle" x="218.5" y="-1094.3" font-family="Times,serif" font-size="14.00">⇆</text>
<polyline fill="none" stroke="black" points="239.5,-1086.5 239.5,-1124.5 "/>
<text text-anchor="middle" x="258" y="-1109.3" font-family="Times,serif" font-size="14.00">* / </text>
<text text-anchor="middle" x="258" y="-1094.3" font-family="Times,serif" font-size="14.00">⇆</text>
<polyline fill="none" stroke="black" points="276.5,-1086.5 276.5,-1124.5 "/>
<text text-anchor="middle" x="289.5" y="-1101.8" font-family="Times,serif" font-size="14.00">0</text>
<polyline fill="none" stroke="black" points="302.5,-1086.5 302.5,-1124.5 "/>
<text text-anchor="middle" x="315.5" y="-1101.8" font-family="Times,serif" font-size="14.00">1</text>
<polyline fill="none" stroke="black" points="197.5,-1086.5 328.5,-1086.5 "/>
<text text-anchor="middle" x="263" y="-1071.3" font-family="Times,serif" font-size="14.00">RealField</text>
</a>
</g>
</g>
<!-- CompleteField&#45;&gt;ScalarField -->
<g id="edge20" class="edge">
<title>CompleteField&#45;&gt;ScalarField</title>
<path fill="none" stroke="black" d="M263,-1063.21C263,-1054.72 263,-1045.68 263,-1036.88"/>
<polygon fill="none" stroke="black" points="266.5,-1036.71 263,-1026.71 259.5,-1036.71 266.5,-1036.71"/>
</g>
</g>
</svg>
