<?xml version="1.0" encoding="UTF-8" standalone="no"?>
<!DOCTYPE svg PUBLIC "-//W3C//DTD SVG 1.1//EN"
 "http://www.w3.org/Graphics/SVG/1.1/DTD/svg11.dtd">
<!-- Generated by graphviz version 2.44.0 ()
 -->
<!-- Pages: 1 -->
<svg width="732pt" height="1186pt"
 viewBox="0.00 0.00 732.00 1186.00" xmlns="http://www.w3.org/2000/svg" xmlns:xlink="http://www.w3.org/1999/xlink">
<g id="graph0" class="graph" transform="scale(1 1) rotate(0) translate(4 1182)">
<polygon fill="white" stroke="transparent" points="-4,4 -4,-1182 728,-1182 728,4 -4,4"/>
<!-- AdditiveSemiGroup -->
<g id="node1" class="node">
<title>AdditiveSemiGroup</title>
<g id="a_node1"><a xlink:href="https://github.com/mihxil/math/blob/main/mihxil-math/src/main/java/org/meeuw/math/abstractalgebra/AdditiveSemiGroup.java" xlink:title="{\N|{ + }}">
<polygon fill="none" stroke="black" points="386.5,-73.5 386.5,-119.5 542.5,-119.5 542.5,-73.5 386.5,-73.5"/>
<text text-anchor="middle" x="464.5" y="-104.3" font-family="Times,serif" font-size="14.00">AdditiveSemiGroup</text>
<polyline fill="none" stroke="black" points="386.5,-96.5 542.5,-96.5 "/>
<text text-anchor="middle" x="464.5" y="-81.3" font-family="Times,serif" font-size="14.00">+</text>
</a>
</g>
</g>
<!-- AlgebraicStructure -->
<g id="node2" class="node">
<title>AlgebraicStructure</title>
<polygon fill="none" stroke="black" points="321,-0.5 321,-36.5 474,-36.5 474,-0.5 321,-0.5"/>
<text text-anchor="middle" x="397.5" y="-14.8" font-family="Times,serif" font-size="14.00">AlgebraicStructure</text>
</g>
<!-- AdditiveSemiGroup&#45;&gt;AlgebraicStructure -->
<g id="edge1" class="edge">
<title>AdditiveSemiGroup&#45;&gt;AlgebraicStructure</title>
<path fill="none" stroke="black" d="M444.76,-73.11C436.88,-64.17 427.77,-53.83 419.66,-44.64"/>
<polygon fill="none" stroke="black" points="422.09,-42.1 412.85,-36.91 416.84,-46.73 422.09,-42.1"/>
</g>
<!-- MultiplicativeSemiGroup -->
<g id="node3" class="node">
<title>MultiplicativeSemiGroup</title>
<g id="a_node3"><a xlink:href="https://github.com/mihxil/math/blob/main/mihxil-math/src/main/java/org/meeuw/math/abstractalgebra/MultiplicativeSemiGroup.java" xlink:title="{\N|{ * }}">
<polygon fill="none" stroke="black" points="233.5,-368 233.5,-414 429.5,-414 429.5,-368 233.5,-368"/>
<text text-anchor="middle" x="331.5" y="-398.8" font-family="Times,serif" font-size="14.00">MultiplicativeSemiGroup</text>
<polyline fill="none" stroke="black" points="233.5,-391 429.5,-391 "/>
<text text-anchor="middle" x="331.5" y="-375.8" font-family="Times,serif" font-size="14.00">*</text>
</a>
</g>
</g>
<!-- MultiplicativeSemiGroup&#45;&gt;AlgebraicStructure -->
<g id="edge2" class="edge">
<title>MultiplicativeSemiGroup&#45;&gt;AlgebraicStructure</title>
<path fill="none" stroke="black" d="M331.59,-367.82C332.12,-325.99 335.12,-232.73 350.5,-156 358.12,-117.96 364.71,-109.62 377.5,-73 380.56,-64.25 384.05,-54.76 387.24,-46.24"/>
<polygon fill="none" stroke="black" points="390.56,-47.37 390.82,-36.78 384.01,-44.89 390.56,-47.37"/>
</g>
<!-- AdditiveAbelianSemiGroup -->
<g id="node4" class="node">
<title>AdditiveAbelianSemiGroup</title>
<g id="a_node4"><a xlink:href="https://github.com/mihxil/math/blob/main/mihxil-math/src/main/java/org/meeuw/math/abstractalgebra/AdditiveAbelianSemiGroup.java" xlink:title="{\N|{ + \n⇆}|NaturalNumbers}">
<polygon fill="none" stroke="black" points="360,-156.5 360,-240.5 569,-240.5 569,-156.5 360,-156.5"/>
<text text-anchor="middle" x="464.5" y="-225.3" font-family="Times,serif" font-size="14.00">AdditiveAbelianSemiGroup</text>
<polyline fill="none" stroke="black" points="360,-217.5 569,-217.5 "/>
<text text-anchor="middle" x="464.5" y="-202.3" font-family="Times,serif" font-size="14.00">+ </text>
<text text-anchor="middle" x="464.5" y="-187.3" font-family="Times,serif" font-size="14.00">⇆</text>
<polyline fill="none" stroke="black" points="360,-179.5 569,-179.5 "/>
<text text-anchor="middle" x="464.5" y="-164.3" font-family="Times,serif" font-size="14.00">NaturalNumbers</text>
</a>
</g>
</g>
<!-- AdditiveAbelianSemiGroup&#45;&gt;AdditiveSemiGroup -->
<g id="edge3" class="edge">
<title>AdditiveAbelianSemiGroup&#45;&gt;AdditiveSemiGroup</title>
<path fill="none" stroke="black" d="M464.5,-156.25C464.5,-147.4 464.5,-138.17 464.5,-129.72"/>
<polygon fill="none" stroke="black" points="468,-129.52 464.5,-119.52 461,-129.52 468,-129.52"/>
</g>
<!-- AdditiveMonoid -->
<g id="node5" class="node">
<title>AdditiveMonoid</title>
<g id="a_node5"><a xlink:href="https://github.com/mihxil/math/blob/main/mihxil-math/src/main/java/org/meeuw/math/abstractalgebra/AdditiveMonoid.java" xlink:title="{\N|{ + &#160;| 0}|StringMonoid\nNaturalNumbers}">
<polygon fill="none" stroke="black" points="587,-156.5 587,-240.5 724,-240.5 724,-156.5 587,-156.5"/>
<text text-anchor="middle" x="655.5" y="-225.3" font-family="Times,serif" font-size="14.00">AdditiveMonoid</text>
<polyline fill="none" stroke="black" points="587,-217.5 724,-217.5 "/>
<text text-anchor="middle" x="622" y="-202.3" font-family="Times,serif" font-size="14.00">+</text>
<polyline fill="none" stroke="black" points="657,-194.5 657,-217.5 "/>
<text text-anchor="middle" x="690.5" y="-202.3" font-family="Times,serif" font-size="14.00">0</text>
<polyline fill="none" stroke="black" points="587,-194.5 724,-194.5 "/>
<text text-anchor="middle" x="655.5" y="-179.3" font-family="Times,serif" font-size="14.00">StringMonoid</text>
<text text-anchor="middle" x="655.5" y="-164.3" font-family="Times,serif" font-size="14.00">NaturalNumbers</text>
</a>
</g>
</g>
<!-- AdditiveMonoid&#45;&gt;AdditiveSemiGroup -->
<g id="edge4" class="edge">
<title>AdditiveMonoid&#45;&gt;AdditiveSemiGroup</title>
<path fill="none" stroke="black" d="M586.69,-160.33C583.93,-158.86 581.19,-157.41 578.5,-156 558.44,-145.45 536.3,-134.03 516.9,-124.11"/>
<polygon fill="none" stroke="black" points="518.41,-120.95 507.91,-119.52 515.23,-127.18 518.41,-120.95"/>
</g>
<!-- MultiplicativeMonoid -->
<g id="node6" class="node">
<title>MultiplicativeMonoid</title>
<g id="a_node6"><a xlink:href="https://github.com/mihxil/math/blob/main/mihxil-math/src/main/java/org/meeuw/math/abstractalgebra/MultiplicativeMonoid.java" xlink:title="{\N|{ * &#160;| 1}|OddIntegers}">
<polygon fill="none" stroke="black" points="267,-466 267,-535 436,-535 436,-466 267,-466"/>
<text text-anchor="middle" x="351.5" y="-519.8" font-family="Times,serif" font-size="14.00">MultiplicativeMonoid</text>
<polyline fill="none" stroke="black" points="267,-512 436,-512 "/>
<text text-anchor="middle" x="308.5" y="-496.8" font-family="Times,serif" font-size="14.00">*</text>
<polyline fill="none" stroke="black" points="350,-489 350,-512 "/>
<text text-anchor="middle" x="393" y="-496.8" font-family="Times,serif" font-size="14.00">1</text>
<polyline fill="none" stroke="black" points="267,-489 436,-489 "/>
<text text-anchor="middle" x="351.5" y="-473.8" font-family="Times,serif" font-size="14.00">OddIntegers</text>
</a>
</g>
</g>
<!-- MultiplicativeMonoid&#45;&gt;MultiplicativeSemiGroup -->
<g id="edge5" class="edge">
<title>MultiplicativeMonoid&#45;&gt;MultiplicativeSemiGroup</title>
<path fill="none" stroke="black" d="M345.23,-465.78C342.75,-452.47 339.92,-437.24 337.47,-424.09"/>
<polygon fill="none" stroke="black" points="340.88,-423.26 335.61,-414.07 333.99,-424.54 340.88,-423.26"/>
</g>
<!-- Rng -->
<g id="node7" class="node">
<title>Rng</title>
<g id="a_node7"><a xlink:href="https://github.com/mihxil/math/blob/main/mihxil-math/src/main/java/org/meeuw/math/abstractalgebra/Rng.java" xlink:title="{\N|{ + &#160;&#45; \n⇆ | &#160;* &#160;| 0}|EvenIntegers}">
<polygon fill="none" stroke="black" points="458,-458.5 458,-542.5 571,-542.5 571,-458.5 458,-458.5"/>
<text text-anchor="middle" x="514.5" y="-527.3" font-family="Times,serif" font-size="14.00">Rng</text>
<polyline fill="none" stroke="black" points="458,-519.5 571,-519.5 "/>
<text text-anchor="middle" x="482.5" y="-504.3" font-family="Times,serif" font-size="14.00">+ &#45; </text>
<text text-anchor="middle" x="482.5" y="-489.3" font-family="Times,serif" font-size="14.00">⇆</text>
<polyline fill="none" stroke="black" points="507,-481.5 507,-519.5 "/>
<text text-anchor="middle" x="522" y="-496.8" font-family="Times,serif" font-size="14.00">*</text>
<polyline fill="none" stroke="black" points="537,-481.5 537,-519.5 "/>
<text text-anchor="middle" x="554" y="-496.8" font-family="Times,serif" font-size="14.00">0</text>
<polyline fill="none" stroke="black" points="458,-481.5 571,-481.5 "/>
<text text-anchor="middle" x="514.5" y="-466.3" font-family="Times,serif" font-size="14.00">EvenIntegers</text>
</a>
</g>
</g>
<!-- Rng&#45;&gt;MultiplicativeSemiGroup -->
<g id="edge6" class="edge">
<title>Rng&#45;&gt;MultiplicativeSemiGroup</title>
<path fill="none" stroke="black" d="M457.98,-465.95C453.42,-463.25 448.88,-460.58 444.5,-458 422.75,-445.2 398.61,-431.09 378.24,-419.21"/>
<polygon fill="none" stroke="black" points="379.86,-416.1 369.46,-414.09 376.34,-422.15 379.86,-416.1"/>
</g>
<!-- AdditiveAbelianGroup -->
<g id="node8" class="node">
<title>AdditiveAbelianGroup</title>
<g id="a_node8"><a xlink:href="https://github.com/mihxil/math/blob/main/mihxil-math/src/main/java/org/meeuw/math/abstractalgebra/AdditiveAbelianGroup.java" xlink:title="{\N|{ + &#160;&#45; \n⇆ | 0}}">
<polygon fill="none" stroke="black" points="448,-360.5 448,-421.5 621,-421.5 621,-360.5 448,-360.5"/>
<text text-anchor="middle" x="534.5" y="-406.3" font-family="Times,serif" font-size="14.00">AdditiveAbelianGroup</text>
<polyline fill="none" stroke="black" points="448,-398.5 621,-398.5 "/>
<text text-anchor="middle" x="495" y="-383.3" font-family="Times,serif" font-size="14.00">+ &#45; </text>
<text text-anchor="middle" x="495" y="-368.3" font-family="Times,serif" font-size="14.00">⇆</text>
<polyline fill="none" stroke="black" points="542,-360.5 542,-398.5 "/>
<text text-anchor="middle" x="581.5" y="-375.8" font-family="Times,serif" font-size="14.00">0</text>
</a>
</g>
</g>
<!-- Rng&#45;&gt;AdditiveAbelianGroup -->
<g id="edge7" class="edge">
<title>Rng&#45;&gt;AdditiveAbelianGroup</title>
<path fill="none" stroke="black" d="M522.18,-458.25C523.81,-449.48 525.52,-440.24 527.14,-431.54"/>
<polygon fill="none" stroke="black" points="530.6,-432.1 528.99,-421.63 523.72,-430.82 530.6,-432.1"/>
</g>
<!-- AdditiveAbelianGroup&#45;&gt;AdditiveAbelianSemiGroup -->
<g id="edge9" class="edge">
<title>AdditiveAbelianGroup&#45;&gt;AdditiveAbelianSemiGroup</title>
<path fill="none" stroke="black" d="M523.56,-360.23C512.77,-330.87 496.07,-285.41 483.17,-250.32"/>
<polygon fill="none" stroke="black" points="486.38,-248.9 479.65,-240.72 479.81,-251.31 486.38,-248.9"/>
</g>
<!-- AdditiveGroup -->
<g id="node10" class="node">
<title>AdditiveGroup</title>
<g id="a_node10"><a xlink:href="https://github.com/mihxil/math/blob/main/mihxil-math/src/main/java/org/meeuw/math/abstractalgebra/AdditiveGroup.java" xlink:title="{\N|{ + &#160;&#45; &#160;| 0}}">
<polygon fill="none" stroke="black" points="569.5,-277.5 569.5,-323.5 689.5,-323.5 689.5,-277.5 569.5,-277.5"/>
<text text-anchor="middle" x="629.5" y="-308.3" font-family="Times,serif" font-size="14.00">AdditiveGroup</text>
<polyline fill="none" stroke="black" points="569.5,-300.5 689.5,-300.5 "/>
<text text-anchor="middle" x="602.5" y="-285.3" font-family="Times,serif" font-size="14.00">+ &#45;</text>
<polyline fill="none" stroke="black" points="635.5,-277.5 635.5,-300.5 "/>
<text text-anchor="middle" x="662.5" y="-285.3" font-family="Times,serif" font-size="14.00">0</text>
</a>
</g>
</g>
<!-- AdditiveAbelianGroup&#45;&gt;AdditiveGroup -->
<g id="edge10" class="edge">
<title>AdditiveAbelianGroup&#45;&gt;AdditiveGroup</title>
<path fill="none" stroke="black" d="M566.4,-360.28C576.62,-350.76 587.93,-340.23 598.11,-330.74"/>
<polygon fill="none" stroke="black" points="600.72,-333.1 605.65,-323.72 595.95,-327.97 600.72,-333.1"/>
</g>
<!-- MultiplicativeAbelianSemiGroup -->
<g id="node9" class="node">
<title>MultiplicativeAbelianSemiGroup</title>
<g id="a_node9"><a xlink:href="https://github.com/mihxil/math/blob/main/mihxil-math/src/main/java/org/meeuw/math/abstractalgebra/MultiplicativeAbelianSemiGroup.java" xlink:title="{\N|{ * \n⇆}|OddIntegers}">
<polygon fill="none" stroke="black" points="0,-458.5 0,-542.5 249,-542.5 249,-458.5 0,-458.5"/>
<text text-anchor="middle" x="124.5" y="-527.3" font-family="Times,serif" font-size="14.00">MultiplicativeAbelianSemiGroup</text>
<polyline fill="none" stroke="black" points="0,-519.5 249,-519.5 "/>
<text text-anchor="middle" x="124.5" y="-504.3" font-family="Times,serif" font-size="14.00">* </text>
<text text-anchor="middle" x="124.5" y="-489.3" font-family="Times,serif" font-size="14.00">⇆</text>
<polyline fill="none" stroke="black" points="0,-481.5 249,-481.5 "/>
<text text-anchor="middle" x="124.5" y="-466.3" font-family="Times,serif" font-size="14.00">OddIntegers</text>
</a>
</g>
</g>
<!-- MultiplicativeAbelianSemiGroup&#45;&gt;MultiplicativeSemiGroup -->
<g id="edge8" class="edge">
<title>MultiplicativeAbelianSemiGroup&#45;&gt;MultiplicativeSemiGroup</title>
<path fill="none" stroke="black" d="M203.64,-458.4C229.24,-445.11 256.94,-430.72 279.99,-418.75"/>
<polygon fill="none" stroke="black" points="281.64,-421.83 288.91,-414.12 278.42,-415.62 281.64,-421.83"/>
</g>
<!-- AdditiveGroup&#45;&gt;AdditiveMonoid -->
<g id="edge11" class="edge">
<title>AdditiveGroup&#45;&gt;AdditiveMonoid</title>
<path fill="none" stroke="black" d="M635.27,-277.31C637.36,-269.28 639.81,-259.85 642.27,-250.37"/>
<polygon fill="none" stroke="black" points="645.7,-251.1 644.83,-240.54 638.92,-249.34 645.7,-251.1"/>
</g>
<!-- MultiplicativeGroup -->
<g id="node11" class="node">
<title>MultiplicativeGroup</title>
<g id="a_node11"><a xlink:href="https://github.com/mihxil/math/blob/main/mihxil-math/src/main/java/org/meeuw/math/abstractalgebra/MultiplicativeGroup.java" xlink:title="{\N|{ * &#160;/ &#160;| 1}|PermutationGroup}">
<polygon fill="none" stroke="black" points="266.5,-587 266.5,-656 426.5,-656 426.5,-587 266.5,-587"/>
<text text-anchor="middle" x="346.5" y="-640.8" font-family="Times,serif" font-size="14.00">MultiplicativeGroup</text>
<polyline fill="none" stroke="black" points="266.5,-633 426.5,-633 "/>
<text text-anchor="middle" x="308" y="-617.8" font-family="Times,serif" font-size="14.00">* /</text>
<polyline fill="none" stroke="black" points="349.5,-610 349.5,-633 "/>
<text text-anchor="middle" x="388" y="-617.8" font-family="Times,serif" font-size="14.00">1</text>
<polyline fill="none" stroke="black" points="266.5,-610 426.5,-610 "/>
<text text-anchor="middle" x="346.5" y="-594.8" font-family="Times,serif" font-size="14.00">PermutationGroup</text>
</a>
</g>
</g>
<!-- MultiplicativeGroup&#45;&gt;MultiplicativeMonoid -->
<g id="edge12" class="edge">
<title>MultiplicativeGroup&#45;&gt;MultiplicativeMonoid</title>
<path fill="none" stroke="black" d="M347.92,-586.72C348.46,-573.9 349.08,-559.12 349.65,-545.5"/>
<polygon fill="none" stroke="black" points="353.15,-545.5 350.08,-535.37 346.16,-545.21 353.15,-545.5"/>
</g>
<!-- Ring -->
<g id="node12" class="node">
<title>Ring</title>
<g id="a_node12"><a xlink:href="https://github.com/mihxil/math/blob/main/mihxil-math/src/main/java/org/meeuw/math/abstractalgebra/Ring.java" xlink:title="{\N|{ + &#160;&#45; \n⇆ | &#160;* &#160;| 0 | 1}|ModuloStructure}">
<polygon fill="none" stroke="black" points="445,-579.5 445,-663.5 584,-663.5 584,-579.5 445,-579.5"/>
<text text-anchor="middle" x="514.5" y="-648.3" font-family="Times,serif" font-size="14.00">Ring</text>
<polyline fill="none" stroke="black" points="445,-640.5 584,-640.5 "/>
<text text-anchor="middle" x="468.5" y="-625.3" font-family="Times,serif" font-size="14.00">+ &#45; </text>
<text text-anchor="middle" x="468.5" y="-610.3" font-family="Times,serif" font-size="14.00">⇆</text>
<polyline fill="none" stroke="black" points="492,-602.5 492,-640.5 "/>
<text text-anchor="middle" x="506.5" y="-617.8" font-family="Times,serif" font-size="14.00">*</text>
<polyline fill="none" stroke="black" points="521,-602.5 521,-640.5 "/>
<text text-anchor="middle" x="536.5" y="-617.8" font-family="Times,serif" font-size="14.00">0</text>
<polyline fill="none" stroke="black" points="552,-602.5 552,-640.5 "/>
<text text-anchor="middle" x="568" y="-617.8" font-family="Times,serif" font-size="14.00">1</text>
<polyline fill="none" stroke="black" points="445,-602.5 584,-602.5 "/>
<text text-anchor="middle" x="514.5" y="-587.3" font-family="Times,serif" font-size="14.00">ModuloStructure</text>
</a>
</g>
</g>
<!-- Ring&#45;&gt;Rng -->
<g id="edge13" class="edge">
<title>Ring&#45;&gt;Rng</title>
<path fill="none" stroke="black" d="M514.5,-579.21C514.5,-570.72 514.5,-561.68 514.5,-552.88"/>
<polygon fill="none" stroke="black" points="518,-552.71 514.5,-542.71 511,-552.71 518,-552.71"/>
</g>
<!-- MultiplicativeAbelianGroup -->
<g id="node13" class="node">
<title>MultiplicativeAbelianGroup</title>
<g id="a_node13"><a xlink:href="https://github.com/mihxil/math/blob/main/mihxil-math/src/main/java/org/meeuw/math/abstractalgebra/MultiplicativeAbelianGroup.java" xlink:title="{\N|{ * &#160;/ \n⇆ | 1}}">
<polygon fill="none" stroke="black" points="72,-712 72,-773 285,-773 285,-712 72,-712"/>
<text text-anchor="middle" x="178.5" y="-757.8" font-family="Times,serif" font-size="14.00">MultiplicativeAbelianGroup</text>
<polyline fill="none" stroke="black" points="72,-750 285,-750 "/>
<text text-anchor="middle" x="128" y="-734.8" font-family="Times,serif" font-size="14.00">* / </text>
<text text-anchor="middle" x="128" y="-719.8" font-family="Times,serif" font-size="14.00">⇆</text>
<polyline fill="none" stroke="black" points="184,-712 184,-750 "/>
<text text-anchor="middle" x="234.5" y="-727.3" font-family="Times,serif" font-size="14.00">1</text>
</a>
</g>
</g>
<!-- MultiplicativeAbelianGroup&#45;&gt;MultiplicativeAbelianSemiGroup -->
<g id="edge14" class="edge">
<title>MultiplicativeAbelianGroup&#45;&gt;MultiplicativeAbelianSemiGroup</title>
<path fill="none" stroke="black" d="M171.77,-711.59C162.82,-671.82 146.87,-600.94 136,-552.61"/>
<polygon fill="none" stroke="black" points="139.37,-551.65 133.76,-542.66 132.54,-553.18 139.37,-551.65"/>
</g>
<!-- MultiplicativeAbelianGroup&#45;&gt;MultiplicativeGroup -->
<g id="edge15" class="edge">
<title>MultiplicativeAbelianGroup&#45;&gt;MultiplicativeGroup</title>
<path fill="none" stroke="black" d="M220.46,-711.78C241.75,-696.7 267.9,-678.17 290.85,-661.92"/>
<polygon fill="none" stroke="black" points="293.01,-664.68 299.15,-656.04 288.97,-658.96 293.01,-664.68"/>
</g>
<!-- DivisionRing -->
<g id="node14" class="node">
<title>DivisionRing</title>
<g id="a_node14"><a xlink:href="https://github.com/mihxil/math/blob/main/mihxil-math/src/main/java/org/meeuw/math/abstractalgebra/DivisionRing.java" xlink:title="{\N|{ + &#160;&#45; \n⇆ | &#160;* &#160;/ &#160;| 0 | 1}|Quaternions}">
<polygon fill="none" stroke="black" points="303.5,-700.5 303.5,-784.5 429.5,-784.5 429.5,-700.5 303.5,-700.5"/>
<text text-anchor="middle" x="366.5" y="-769.3" font-family="Times,serif" font-size="14.00">DivisionRing</text>
<polyline fill="none" stroke="black" points="303.5,-761.5 429.5,-761.5 "/>
<text text-anchor="middle" x="324.5" y="-746.3" font-family="Times,serif" font-size="14.00">+ &#45; </text>
<text text-anchor="middle" x="324.5" y="-731.3" font-family="Times,serif" font-size="14.00">⇆</text>
<polyline fill="none" stroke="black" points="345.5,-723.5 345.5,-761.5 "/>
<text text-anchor="middle" x="361.5" y="-738.8" font-family="Times,serif" font-size="14.00">* /</text>
<polyline fill="none" stroke="black" points="377.5,-723.5 377.5,-761.5 "/>
<text text-anchor="middle" x="390.5" y="-738.8" font-family="Times,serif" font-size="14.00">0</text>
<polyline fill="none" stroke="black" points="403.5,-723.5 403.5,-761.5 "/>
<text text-anchor="middle" x="416.5" y="-738.8" font-family="Times,serif" font-size="14.00">1</text>
<polyline fill="none" stroke="black" points="303.5,-723.5 429.5,-723.5 "/>
<text text-anchor="middle" x="366.5" y="-708.3" font-family="Times,serif" font-size="14.00">Quaternions</text>
</a>
</g>
</g>
<!-- DivisionRing&#45;&gt;MultiplicativeGroup -->
<g id="edge16" class="edge">
<title>DivisionRing&#45;&gt;MultiplicativeGroup</title>
<path fill="none" stroke="black" d="M359.56,-700.21C357.71,-689.21 355.71,-677.3 353.84,-666.18"/>
<polygon fill="none" stroke="black" points="357.28,-665.52 352.17,-656.23 350.38,-666.68 357.28,-665.52"/>
</g>
<!-- DivisionRing&#45;&gt;Ring -->
<g id="edge17" class="edge">
<title>DivisionRing&#45;&gt;Ring</title>
<path fill="none" stroke="black" d="M417.85,-700.21C429.9,-690.52 442.84,-680.12 455.21,-670.17"/>
<polygon fill="none" stroke="black" points="457.64,-672.71 463.24,-663.71 453.26,-667.25 457.64,-672.71"/>
</g>
<!-- AbelianRing -->
<g id="node15" class="node">
<title>AbelianRing</title>
<g id="a_node15"><a xlink:href="https://github.com/mihxil/math/blob/main/mihxil-math/src/main/java/org/meeuw/math/abstractalgebra/AbelianRing.java" xlink:title="{\N|{ + &#160;&#45; \n⇆ | &#160;* \n⇆ | 0 | 1}}">
<polygon fill="none" stroke="black" points="453,-712 453,-773 576,-773 576,-712 453,-712"/>
<text text-anchor="middle" x="514.5" y="-757.8" font-family="Times,serif" font-size="14.00">AbelianRing</text>
<polyline fill="none" stroke="black" points="453,-750 576,-750 "/>
<text text-anchor="middle" x="474" y="-734.8" font-family="Times,serif" font-size="14.00">+ &#45; </text>
<text text-anchor="middle" x="474" y="-719.8" font-family="Times,serif" font-size="14.00">⇆</text>
<polyline fill="none" stroke="black" points="495,-712 495,-750 "/>
<text text-anchor="middle" x="509.5" y="-734.8" font-family="Times,serif" font-size="14.00">* </text>
<text text-anchor="middle" x="509.5" y="-719.8" font-family="Times,serif" font-size="14.00">⇆</text>
<polyline fill="none" stroke="black" points="524,-712 524,-750 "/>
<text text-anchor="middle" x="537" y="-727.3" font-family="Times,serif" font-size="14.00">0</text>
<polyline fill="none" stroke="black" points="550,-712 550,-750 "/>
<text text-anchor="middle" x="563" y="-727.3" font-family="Times,serif" font-size="14.00">1</text>
</a>
</g>
</g>
<!-- AbelianRing&#45;&gt;Ring -->
<g id="edge18" class="edge">
<title>AbelianRing&#45;&gt;Ring</title>
<path fill="none" stroke="black" d="M514.5,-711.78C514.5,-700.26 514.5,-686.74 514.5,-673.75"/>
<polygon fill="none" stroke="black" points="518,-673.5 514.5,-663.5 511,-673.5 518,-673.5"/>
</g>
<!-- Field -->
<g id="node16" class="node">
<title>Field</title>
<g id="a_node16"><a xlink:href="https://github.com/mihxil/math/blob/main/mihxil-math/src/main/java/org/meeuw/math/abstractalgebra/Field.java" xlink:title="{\N|{ + &#160;&#45; \n⇆ | &#160;* &#160;/ \n⇆ | 0 | 1}|ModuloField\nGaussianRationals}">
<polygon fill="none" stroke="black" points="289,-821.5 289,-920.5 438,-920.5 438,-821.5 289,-821.5"/>
<text text-anchor="middle" x="363.5" y="-905.3" font-family="Times,serif" font-size="14.00">Field</text>
<polyline fill="none" stroke="black" points="289,-897.5 438,-897.5 "/>
<text text-anchor="middle" x="312" y="-882.3" font-family="Times,serif" font-size="14.00">+ &#45; </text>
<text text-anchor="middle" x="312" y="-867.3" font-family="Times,serif" font-size="14.00">⇆</text>
<polyline fill="none" stroke="black" points="335,-859.5 335,-897.5 "/>
<text text-anchor="middle" x="356" y="-882.3" font-family="Times,serif" font-size="14.00">* / </text>
<text text-anchor="middle" x="356" y="-867.3" font-family="Times,serif" font-size="14.00">⇆</text>
<polyline fill="none" stroke="black" points="377,-859.5 377,-897.5 "/>
<text text-anchor="middle" x="392" y="-874.8" font-family="Times,serif" font-size="14.00">0</text>
<polyline fill="none" stroke="black" points="407,-859.5 407,-897.5 "/>
<text text-anchor="middle" x="422.5" y="-874.8" font-family="Times,serif" font-size="14.00">1</text>
<polyline fill="none" stroke="black" points="289,-859.5 438,-859.5 "/>
<text text-anchor="middle" x="363.5" y="-844.3" font-family="Times,serif" font-size="14.00">ModuloField</text>
<text text-anchor="middle" x="363.5" y="-829.3" font-family="Times,serif" font-size="14.00">GaussianRationals</text>
</a>
</g>
</g>
<!-- Field&#45;&gt;MultiplicativeAbelianGroup -->
<g id="edge19" class="edge">
<title>Field&#45;&gt;MultiplicativeAbelianGroup</title>
<path fill="none" stroke="black" d="M292.5,-821.45C271.73,-807.25 249.43,-792 230.11,-778.79"/>
<polygon fill="none" stroke="black" points="231.97,-775.82 221.74,-773.07 228.02,-781.6 231.97,-775.82"/>
</g>
<!-- Field&#45;&gt;DivisionRing -->
<g id="edge20" class="edge">
<title>Field&#45;&gt;DivisionRing</title>
<path fill="none" stroke="black" d="M364.65,-821.45C364.86,-812.74 365.07,-803.63 365.28,-794.84"/>
<polygon fill="none" stroke="black" points="368.78,-794.79 365.52,-784.71 361.79,-794.63 368.78,-794.79"/>
</g>
<!-- Field&#45;&gt;AbelianRing -->
<g id="edge21" class="edge">
<title>Field&#45;&gt;AbelianRing</title>
<path fill="none" stroke="black" d="M421.45,-821.45C438.02,-807.57 455.79,-792.69 471.31,-779.68"/>
<polygon fill="none" stroke="black" points="473.79,-782.17 479.2,-773.07 469.29,-776.81 473.79,-782.17"/>
</g>
<!-- VectorSpace -->
<g id="node17" class="node">
<title>VectorSpace</title>
<g id="a_node17"><a xlink:href="https://github.com/mihxil/math/blob/main/mihxil-math/src/main/java/org/meeuw/math/abstractalgebra/VectorSpace.java" xlink:title="{\N|{ + &#160;&#45; \n⇆ | &#160;* \n⇆ | 0 | 1}|Vector3Space}">
<polygon fill="none" stroke="black" points="456,-829 456,-913 579,-913 579,-829 456,-829"/>
<text text-anchor="middle" x="517.5" y="-897.8" font-family="Times,serif" font-size="14.00">VectorSpace</text>
<polyline fill="none" stroke="black" points="456,-890 579,-890 "/>
<text text-anchor="middle" x="477" y="-874.8" font-family="Times,serif" font-size="14.00">+ &#45; </text>
<text text-anchor="middle" x="477" y="-859.8" font-family="Times,serif" font-size="14.00">⇆</text>
<polyline fill="none" stroke="black" points="498,-852 498,-890 "/>
<text text-anchor="middle" x="512.5" y="-874.8" font-family="Times,serif" font-size="14.00">* </text>
<text text-anchor="middle" x="512.5" y="-859.8" font-family="Times,serif" font-size="14.00">⇆</text>
<polyline fill="none" stroke="black" points="527,-852 527,-890 "/>
<text text-anchor="middle" x="540" y="-867.3" font-family="Times,serif" font-size="14.00">0</text>
<polyline fill="none" stroke="black" points="553,-852 553,-890 "/>
<text text-anchor="middle" x="566" y="-867.3" font-family="Times,serif" font-size="14.00">1</text>
<polyline fill="none" stroke="black" points="456,-852 579,-852 "/>
<text text-anchor="middle" x="517.5" y="-836.8" font-family="Times,serif" font-size="14.00">Vector3Space</text>
</a>
</g>
</g>
<!-- VectorSpace&#45;&gt;AbelianRing -->
<g id="edge22" class="edge">
<title>VectorSpace&#45;&gt;AbelianRing</title>
<path fill="none" stroke="black" d="M516.53,-828.93C516.18,-814.3 515.79,-797.86 515.44,-783.33"/>
<polygon fill="none" stroke="black" points="518.94,-783.07 515.2,-773.15 511.94,-783.23 518.94,-783.07"/>
</g>
<!-- ScalarField -->
<g id="node18" class="node">
<title>ScalarField</title>
<g id="a_node18"><a xlink:href="https://github.com/mihxil/math/blob/main/mihxil-math/src/main/java/org/meeuw/math/abstractalgebra/ScalarField.java" xlink:title="{\N|{ + &#160;&#45; \n⇆ | &#160;* &#160;/ \n⇆ | 0 | 1}|RationalNumbers}">
<polygon fill="none" stroke="black" points="292.5,-957.5 292.5,-1041.5 434.5,-1041.5 434.5,-957.5 292.5,-957.5"/>
<text text-anchor="middle" x="363.5" y="-1026.3" font-family="Times,serif" font-size="14.00">ScalarField</text>
<polyline fill="none" stroke="black" points="292.5,-1018.5 434.5,-1018.5 "/>
<text text-anchor="middle" x="314.5" y="-1003.3" font-family="Times,serif" font-size="14.00">+ &#45; </text>
<text text-anchor="middle" x="314.5" y="-988.3" font-family="Times,serif" font-size="14.00">⇆</text>
<polyline fill="none" stroke="black" points="336.5,-980.5 336.5,-1018.5 "/>
<text text-anchor="middle" x="356.5" y="-1003.3" font-family="Times,serif" font-size="14.00">* / </text>
<text text-anchor="middle" x="356.5" y="-988.3" font-family="Times,serif" font-size="14.00">⇆</text>
<polyline fill="none" stroke="black" points="376.5,-980.5 376.5,-1018.5 "/>
<text text-anchor="middle" x="391" y="-995.8" font-family="Times,serif" font-size="14.00">0</text>
<polyline fill="none" stroke="black" points="405.5,-980.5 405.5,-1018.5 "/>
<text text-anchor="middle" x="420" y="-995.8" font-family="Times,serif" font-size="14.00">1</text>
<polyline fill="none" stroke="black" points="292.5,-980.5 434.5,-980.5 "/>
<text text-anchor="middle" x="363.5" y="-965.3" font-family="Times,serif" font-size="14.00">RationalNumbers</text>
</a>
</g>
</g>
<!-- ScalarField&#45;&gt;Field -->
<g id="edge23" class="edge">
<title>ScalarField&#45;&gt;Field</title>
<path fill="none" stroke="black" d="M363.5,-957.43C363.5,-948.94 363.5,-939.84 363.5,-930.85"/>
<polygon fill="none" stroke="black" points="367,-930.8 363.5,-920.8 360,-930.8 367,-930.8"/>
</g>
<!-- CompleteField -->
<g id="node19" class="node">
<title>CompleteField</title>
<g id="a_node19"><a xlink:href="https://github.com/mihxil/math/blob/main/mihxil-math/src/main/java/org/meeuw/math/abstractalgebra/CompleteField.java" xlink:title="{\N|{ + &#160;&#45; \n⇆ | &#160;* &#160;/ \n⇆ | 0 | 1}|BigDecimalField\nRealField}">
<polygon fill="none" stroke="black" points="296.5,-1078.5 296.5,-1177.5 430.5,-1177.5 430.5,-1078.5 296.5,-1078.5"/>
<text text-anchor="middle" x="363.5" y="-1162.3" font-family="Times,serif" font-size="14.00">CompleteField</text>
<polyline fill="none" stroke="black" points="296.5,-1154.5 430.5,-1154.5 "/>
<text text-anchor="middle" x="317.5" y="-1139.3" font-family="Times,serif" font-size="14.00">+ &#45; </text>
<text text-anchor="middle" x="317.5" y="-1124.3" font-family="Times,serif" font-size="14.00">⇆</text>
<polyline fill="none" stroke="black" points="338.5,-1116.5 338.5,-1154.5 "/>
<text text-anchor="middle" x="357.5" y="-1139.3" font-family="Times,serif" font-size="14.00">* / </text>
<text text-anchor="middle" x="357.5" y="-1124.3" font-family="Times,serif" font-size="14.00">⇆</text>
<polyline fill="none" stroke="black" points="376.5,-1116.5 376.5,-1154.5 "/>
<text text-anchor="middle" x="390" y="-1131.8" font-family="Times,serif" font-size="14.00">0</text>
<polyline fill="none" stroke="black" points="403.5,-1116.5 403.5,-1154.5 "/>
<text text-anchor="middle" x="417" y="-1131.8" font-family="Times,serif" font-size="14.00">1</text>
<polyline fill="none" stroke="black" points="296.5,-1116.5 430.5,-1116.5 "/>
<text text-anchor="middle" x="363.5" y="-1101.3" font-family="Times,serif" font-size="14.00">BigDecimalField</text>
<text text-anchor="middle" x="363.5" y="-1086.3" font-family="Times,serif" font-size="14.00">RealField</text>
</a>
</g>
</g>
<!-- CompleteField&#45;&gt;ScalarField -->
<g id="edge24" class="edge">
<title>CompleteField&#45;&gt;ScalarField</title>
<path fill="none" stroke="black" d="M363.5,-1078.45C363.5,-1069.74 363.5,-1060.63 363.5,-1051.84"/>
<polygon fill="none" stroke="black" points="367,-1051.71 363.5,-1041.71 360,-1051.71 367,-1051.71"/>
</g>
</g>
</svg>
