<?xml version="1.0" encoding="UTF-8" standalone="no"?>
<!DOCTYPE svg PUBLIC "-//W3C//DTD SVG 1.1//EN"
 "http://www.w3.org/Graphics/SVG/1.1/DTD/svg11.dtd">
<!-- Generated by graphviz version 2.49.1 (20210923.0004)
 -->
<!-- Pages: 1 -->
<svg width="466pt" height="1156pt"
 viewBox="0.00 0.00 466.00 1156.00" xmlns="http://www.w3.org/2000/svg" xmlns:xlink="http://www.w3.org/1999/xlink">
<g id="graph0" class="graph" transform="scale(1 1) rotate(0) translate(4 1152)">
<polygon fill="white" stroke="transparent" points="-4,4 -4,-1152 462,-1152 462,4 -4,4"/>
<!-- AdditiveSemiGroup -->
<g id="node1" class="node">
<title>AdditiveSemiGroup</title>
<g id="a_node1"><a xlink:href="https://github.com/mihxil/math/blob/main/mihxil-math/src/main/java/" xlink:title="{AdditiveSemiGroup|{ + }}">
<polygon fill="none" stroke="black" points="128,-73.5 128,-119.5 258,-119.5 258,-73.5 128,-73.5"/>
<text text-anchor="middle" x="193" y="-104.3" font-family="Times,serif" font-size="14.00">AdditiveSemiGroup</text>
<polyline fill="none" stroke="black" points="128,-96.5 258,-96.5 "/>
<text text-anchor="middle" x="193" y="-81.3" font-family="Times,serif" font-size="14.00">+</text>
</a>
</g>
</g>
<!-- AlgebraicStructure -->
<g id="node2" class="node">
<title>AlgebraicStructure</title>
<polygon fill="none" stroke="black" points="177.5,-0.5 177.5,-36.5 300.5,-36.5 300.5,-0.5 177.5,-0.5"/>
<text text-anchor="middle" x="239" y="-14.8" font-family="Times,serif" font-size="14.00">AlgebraicStructure</text>
</g>
<!-- AdditiveSemiGroup&#45;&gt;AlgebraicStructure -->
<g id="edge1" class="edge">
<title>AdditiveSemiGroup&#45;&gt;AlgebraicStructure</title>
<path fill="none" stroke="black" d="M206.55,-73.11C211.8,-64.44 217.84,-54.46 223.28,-45.48"/>
<polygon fill="none" stroke="black" points="226.28,-47.28 228.46,-36.91 220.29,-43.65 226.28,-47.28"/>
</g>
<!-- MultiplicativeSemiGroup -->
<g id="node3" class="node">
<title>MultiplicativeSemiGroup</title>
<g id="a_node3"><a xlink:href="https://github.com/mihxil/math/blob/main/mihxil-math/src/main/java/" xlink:title="{MultiplicativeSemiGroup|{ * }}">
<polygon fill="none" stroke="black" points="216,-353 216,-399 376,-399 376,-353 216,-353"/>
<text text-anchor="middle" x="296" y="-383.8" font-family="Times,serif" font-size="14.00">MultiplicativeSemiGroup</text>
<polyline fill="none" stroke="black" points="216,-376 376,-376 "/>
<text text-anchor="middle" x="296" y="-360.8" font-family="Times,serif" font-size="14.00">*</text>
</a>
</g>
</g>
<!-- MultiplicativeSemiGroup&#45;&gt;AlgebraicStructure -->
<g id="edge2" class="edge">
<title>MultiplicativeSemiGroup&#45;&gt;AlgebraicStructure</title>
<path fill="none" stroke="black" d="M296.74,-352.85C297.84,-302.14 297.09,-174.23 267,-73 264.19,-63.55 259.67,-53.83 255.07,-45.31"/>
<polygon fill="none" stroke="black" points="258.11,-43.57 250.13,-36.6 252.02,-47.03 258.11,-43.57"/>
</g>
<!-- AdditiveMonoid -->
<g id="node4" class="node">
<title>AdditiveMonoid</title>
<g id="a_node4"><a xlink:href="https://github.com/mihxil/math/blob/main/mihxil-math/src/main/java/" xlink:title="{AdditiveMonoid|{ + &#160;| 0}|StringMonoid}">
<polygon fill="none" stroke="black" points="128,-156.5 128,-225.5 238,-225.5 238,-156.5 128,-156.5"/>
<text text-anchor="middle" x="183" y="-210.3" font-family="Times,serif" font-size="14.00">AdditiveMonoid</text>
<polyline fill="none" stroke="black" points="128,-202.5 238,-202.5 "/>
<text text-anchor="middle" x="155.5" y="-187.3" font-family="Times,serif" font-size="14.00">+</text>
<polyline fill="none" stroke="black" points="183,-179.5 183,-202.5 "/>
<text text-anchor="middle" x="210.5" y="-187.3" font-family="Times,serif" font-size="14.00">0</text>
<polyline fill="none" stroke="black" points="128,-179.5 238,-179.5 "/>
<text text-anchor="middle" x="183" y="-164.3" font-family="Times,serif" font-size="14.00">StringMonoid</text>
</a>
</g>
</g>
<!-- AdditiveMonoid&#45;&gt;AdditiveSemiGroup -->
<g id="edge3" class="edge">
<title>AdditiveMonoid&#45;&gt;AdditiveSemiGroup</title>
<path fill="none" stroke="black" d="M186.64,-156.34C187.58,-147.68 188.58,-138.37 189.51,-129.78"/>
<polygon fill="none" stroke="black" points="193,-130.05 190.6,-119.74 186.04,-129.3 193,-130.05"/>
</g>
<!-- MultiplicativeMonoid -->
<g id="node5" class="node">
<title>MultiplicativeMonoid</title>
<g id="a_node5"><a xlink:href="https://github.com/mihxil/math/blob/main/mihxil-math/src/main/java/" xlink:title="{MultiplicativeMonoid|{ * &#160;| 1}|OddIntegers}">
<polygon fill="none" stroke="black" points="226,-451 226,-520 366,-520 366,-451 226,-451"/>
<text text-anchor="middle" x="296" y="-504.8" font-family="Times,serif" font-size="14.00">MultiplicativeMonoid</text>
<polyline fill="none" stroke="black" points="226,-497 366,-497 "/>
<text text-anchor="middle" x="261" y="-481.8" font-family="Times,serif" font-size="14.00">*</text>
<polyline fill="none" stroke="black" points="296,-474 296,-497 "/>
<text text-anchor="middle" x="331" y="-481.8" font-family="Times,serif" font-size="14.00">1</text>
<polyline fill="none" stroke="black" points="226,-474 366,-474 "/>
<text text-anchor="middle" x="296" y="-458.8" font-family="Times,serif" font-size="14.00">OddIntegers</text>
</a>
</g>
</g>
<!-- MultiplicativeMonoid&#45;&gt;MultiplicativeSemiGroup -->
<g id="edge4" class="edge">
<title>MultiplicativeMonoid&#45;&gt;MultiplicativeSemiGroup</title>
<path fill="none" stroke="black" d="M296,-450.78C296,-437.47 296,-422.24 296,-409.09"/>
<polygon fill="none" stroke="black" points="299.5,-409.07 296,-399.07 292.5,-409.07 299.5,-409.07"/>
</g>
<!-- Rng -->
<g id="node6" class="node">
<title>Rng</title>
<g id="a_node6"><a xlink:href="https://github.com/mihxil/math/blob/main/mihxil-math/src/main/java/" xlink:title="{Rng|{ + &#160;&#45; \n⇆ | &#160;* &#160;| 0}|EvenIntegers}">
<polygon fill="none" stroke="black" points="96,-443.5 96,-527.5 186,-527.5 186,-443.5 96,-443.5"/>
<text text-anchor="middle" x="141" y="-512.3" font-family="Times,serif" font-size="14.00">Rng</text>
<polyline fill="none" stroke="black" points="96,-504.5 186,-504.5 "/>
<text text-anchor="middle" x="115" y="-489.3" font-family="Times,serif" font-size="14.00">+ &#45; </text>
<text text-anchor="middle" x="115" y="-474.3" font-family="Times,serif" font-size="14.00">⇆</text>
<polyline fill="none" stroke="black" points="134,-466.5 134,-504.5 "/>
<text text-anchor="middle" x="147" y="-481.8" font-family="Times,serif" font-size="14.00">*</text>
<polyline fill="none" stroke="black" points="160,-466.5 160,-504.5 "/>
<text text-anchor="middle" x="173" y="-481.8" font-family="Times,serif" font-size="14.00">0</text>
<polyline fill="none" stroke="black" points="96,-466.5 186,-466.5 "/>
<text text-anchor="middle" x="141" y="-451.3" font-family="Times,serif" font-size="14.00">EvenIntegers</text>
</a>
</g>
</g>
<!-- Rng&#45;&gt;MultiplicativeSemiGroup -->
<g id="edge5" class="edge">
<title>Rng&#45;&gt;MultiplicativeSemiGroup</title>
<path fill="none" stroke="black" d="M186.25,-453.12C208.24,-437.87 234.45,-419.69 255.73,-404.93"/>
<polygon fill="none" stroke="black" points="258.01,-407.61 264.23,-399.03 254.02,-401.86 258.01,-407.61"/>
</g>
<!-- AdditiveAbelianGroup -->
<g id="node7" class="node">
<title>AdditiveAbelianGroup</title>
<g id="a_node7"><a xlink:href="https://github.com/mihxil/math/blob/main/mihxil-math/src/main/java/" xlink:title="{AdditiveAbelianGroup|{ + &#160;&#45; \n⇆ | 0}}">
<polygon fill="none" stroke="black" points="52,-345.5 52,-406.5 198,-406.5 198,-345.5 52,-345.5"/>
<text text-anchor="middle" x="125" y="-391.3" font-family="Times,serif" font-size="14.00">AdditiveAbelianGroup</text>
<polyline fill="none" stroke="black" points="52,-383.5 198,-383.5 "/>
<text text-anchor="middle" x="91.5" y="-368.3" font-family="Times,serif" font-size="14.00">+ &#45; </text>
<text text-anchor="middle" x="91.5" y="-353.3" font-family="Times,serif" font-size="14.00">⇆</text>
<polyline fill="none" stroke="black" points="131,-345.5 131,-383.5 "/>
<text text-anchor="middle" x="164.5" y="-360.8" font-family="Times,serif" font-size="14.00">0</text>
</a>
</g>
</g>
<!-- Rng&#45;&gt;AdditiveAbelianGroup -->
<g id="edge6" class="edge">
<title>Rng&#45;&gt;AdditiveAbelianGroup</title>
<path fill="none" stroke="black" d="M134.86,-443.25C133.55,-434.48 132.18,-425.24 130.89,-416.54"/>
<polygon fill="none" stroke="black" points="134.34,-416.01 129.41,-406.63 127.42,-417.04 134.34,-416.01"/>
</g>
<!-- AdditiveGroup -->
<g id="node8" class="node">
<title>AdditiveGroup</title>
<g id="a_node8"><a xlink:href="https://github.com/mihxil/math/blob/main/mihxil-math/src/main/java/" xlink:title="{AdditiveGroup|{ + &#160;&#45; &#160;| 0}}">
<polygon fill="none" stroke="black" points="113.5,-262.5 113.5,-308.5 214.5,-308.5 214.5,-262.5 113.5,-262.5"/>
<text text-anchor="middle" x="164" y="-293.3" font-family="Times,serif" font-size="14.00">AdditiveGroup</text>
<polyline fill="none" stroke="black" points="113.5,-285.5 214.5,-285.5 "/>
<text text-anchor="middle" x="141" y="-270.3" font-family="Times,serif" font-size="14.00">+ &#45;</text>
<polyline fill="none" stroke="black" points="168.5,-262.5 168.5,-285.5 "/>
<text text-anchor="middle" x="191.5" y="-270.3" font-family="Times,serif" font-size="14.00">0</text>
</a>
</g>
</g>
<!-- AdditiveAbelianGroup&#45;&gt;AdditiveGroup -->
<g id="edge10" class="edge">
<title>AdditiveAbelianGroup&#45;&gt;AdditiveGroup</title>
<path fill="none" stroke="black" d="M138.2,-345.04C142.07,-336.27 146.3,-326.67 150.2,-317.82"/>
<polygon fill="none" stroke="black" points="153.43,-319.16 154.26,-308.6 147.03,-316.34 153.43,-319.16"/>
</g>
<!-- AdditiveGroup&#45;&gt;AdditiveMonoid -->
<g id="edge7" class="edge">
<title>AdditiveGroup&#45;&gt;AdditiveMonoid</title>
<path fill="none" stroke="black" d="M168.6,-262.11C170.24,-254.1 172.16,-244.77 174.05,-235.59"/>
<polygon fill="none" stroke="black" points="177.48,-236.25 176.07,-225.75 170.63,-234.84 177.48,-236.25"/>
</g>
<!-- MultiplicativeGroup -->
<g id="node9" class="node">
<title>MultiplicativeGroup</title>
<g id="a_node9"><a xlink:href="https://github.com/mihxil/math/blob/main/mihxil-math/src/main/java/" xlink:title="{MultiplicativeGroup|{ * &#160;/ &#160;| 1}|PermutationGroup}">
<polygon fill="none" stroke="black" points="230,-572 230,-641 362,-641 362,-572 230,-572"/>
<text text-anchor="middle" x="296" y="-625.8" font-family="Times,serif" font-size="14.00">MultiplicativeGroup</text>
<polyline fill="none" stroke="black" points="230,-618 362,-618 "/>
<text text-anchor="middle" x="265" y="-602.8" font-family="Times,serif" font-size="14.00">* /</text>
<polyline fill="none" stroke="black" points="300,-595 300,-618 "/>
<text text-anchor="middle" x="331" y="-602.8" font-family="Times,serif" font-size="14.00">1</text>
<polyline fill="none" stroke="black" points="230,-595 362,-595 "/>
<text text-anchor="middle" x="296" y="-579.8" font-family="Times,serif" font-size="14.00">PermutationGroup</text>
</a>
</g>
</g>
<!-- MultiplicativeGroup&#45;&gt;MultiplicativeMonoid -->
<g id="edge8" class="edge">
<title>MultiplicativeGroup&#45;&gt;MultiplicativeMonoid</title>
<path fill="none" stroke="black" d="M296,-571.72C296,-558.9 296,-544.12 296,-530.5"/>
<polygon fill="none" stroke="black" points="299.5,-530.37 296,-520.37 292.5,-530.37 299.5,-530.37"/>
</g>
<!-- Ring -->
<g id="node10" class="node">
<title>Ring</title>
<g id="a_node10"><a xlink:href="https://github.com/mihxil/math/blob/main/mihxil-math/src/main/java/" xlink:title="{Ring|{ + &#160;&#45; \n⇆ | &#160;* &#160;| 0 | 1}|ModuloStructure}">
<polygon fill="none" stroke="black" points="85,-564.5 85,-648.5 197,-648.5 197,-564.5 85,-564.5"/>
<text text-anchor="middle" x="141" y="-633.3" font-family="Times,serif" font-size="14.00">Ring</text>
<polyline fill="none" stroke="black" points="85,-625.5 197,-625.5 "/>
<text text-anchor="middle" x="103.5" y="-610.3" font-family="Times,serif" font-size="14.00">+ &#45; </text>
<text text-anchor="middle" x="103.5" y="-595.3" font-family="Times,serif" font-size="14.00">⇆</text>
<polyline fill="none" stroke="black" points="122,-587.5 122,-625.5 "/>
<text text-anchor="middle" x="134.5" y="-602.8" font-family="Times,serif" font-size="14.00">*</text>
<polyline fill="none" stroke="black" points="147,-587.5 147,-625.5 "/>
<text text-anchor="middle" x="159.5" y="-602.8" font-family="Times,serif" font-size="14.00">0</text>
<polyline fill="none" stroke="black" points="172,-587.5 172,-625.5 "/>
<text text-anchor="middle" x="184.5" y="-602.8" font-family="Times,serif" font-size="14.00">1</text>
<polyline fill="none" stroke="black" points="85,-587.5 197,-587.5 "/>
<text text-anchor="middle" x="141" y="-572.3" font-family="Times,serif" font-size="14.00">ModuloStructure</text>
</a>
</g>
</g>
<!-- Ring&#45;&gt;Rng -->
<g id="edge9" class="edge">
<title>Ring&#45;&gt;Rng</title>
<path fill="none" stroke="black" d="M141,-564.21C141,-555.72 141,-546.68 141,-537.88"/>
<polygon fill="none" stroke="black" points="144.5,-537.71 141,-527.71 137.5,-537.71 144.5,-537.71"/>
</g>
<!-- MultiplicativeAbelianGroup -->
<g id="node11" class="node">
<title>MultiplicativeAbelianGroup</title>
<g id="a_node11"><a xlink:href="https://github.com/mihxil/math/blob/main/mihxil-math/src/main/java/" xlink:title="{MultiplicativeAbelianGroup|{ * &#160;/ \n⇆ | 1}}">
<polygon fill="none" stroke="black" points="282,-697 282,-758 458,-758 458,-697 282,-697"/>
<text text-anchor="middle" x="370" y="-742.8" font-family="Times,serif" font-size="14.00">MultiplicativeAbelianGroup</text>
<polyline fill="none" stroke="black" points="282,-735 458,-735 "/>
<text text-anchor="middle" x="328.5" y="-719.8" font-family="Times,serif" font-size="14.00">* / </text>
<text text-anchor="middle" x="328.5" y="-704.8" font-family="Times,serif" font-size="14.00">⇆</text>
<polyline fill="none" stroke="black" points="375,-697 375,-735 "/>
<text text-anchor="middle" x="416.5" y="-712.3" font-family="Times,serif" font-size="14.00">1</text>
</a>
</g>
</g>
<!-- MultiplicativeAbelianGroup&#45;&gt;MultiplicativeGroup -->
<g id="edge11" class="edge">
<title>MultiplicativeAbelianGroup&#45;&gt;MultiplicativeGroup</title>
<path fill="none" stroke="black" d="M351.52,-696.78C342.71,-682.62 332.03,-665.43 322.39,-649.94"/>
<polygon fill="none" stroke="black" points="325.11,-647.68 316.86,-641.04 319.17,-651.38 325.11,-647.68"/>
</g>
<!-- DivisionRing -->
<g id="node12" class="node">
<title>DivisionRing</title>
<g id="a_node12"><a xlink:href="https://github.com/mihxil/math/blob/main/mihxil-math/src/main/java/" xlink:title="{DivisionRing|{ + &#160;&#45; \n⇆ | &#160;* &#160;/ &#160;| 0 | 1}|Quaternions}">
<polygon fill="none" stroke="black" points="150.5,-685.5 150.5,-769.5 263.5,-769.5 263.5,-685.5 150.5,-685.5"/>
<text text-anchor="middle" x="207" y="-754.3" font-family="Times,serif" font-size="14.00">DivisionRing</text>
<polyline fill="none" stroke="black" points="150.5,-746.5 263.5,-746.5 "/>
<text text-anchor="middle" x="168.5" y="-731.3" font-family="Times,serif" font-size="14.00">+ &#45; </text>
<text text-anchor="middle" x="168.5" y="-716.3" font-family="Times,serif" font-size="14.00">⇆</text>
<polyline fill="none" stroke="black" points="186.5,-708.5 186.5,-746.5 "/>
<text text-anchor="middle" x="202" y="-723.8" font-family="Times,serif" font-size="14.00">* /</text>
<polyline fill="none" stroke="black" points="217.5,-708.5 217.5,-746.5 "/>
<text text-anchor="middle" x="229" y="-723.8" font-family="Times,serif" font-size="14.00">0</text>
<polyline fill="none" stroke="black" points="240.5,-708.5 240.5,-746.5 "/>
<text text-anchor="middle" x="252" y="-723.8" font-family="Times,serif" font-size="14.00">1</text>
<polyline fill="none" stroke="black" points="150.5,-708.5 263.5,-708.5 "/>
<text text-anchor="middle" x="207" y="-693.3" font-family="Times,serif" font-size="14.00">Quaternions</text>
</a>
</g>
</g>
<!-- DivisionRing&#45;&gt;MultiplicativeGroup -->
<g id="edge12" class="edge">
<title>DivisionRing&#45;&gt;MultiplicativeGroup</title>
<path fill="none" stroke="black" d="M237.88,-685.21C246.52,-673.65 255.93,-661.08 264.6,-649.48"/>
<polygon fill="none" stroke="black" points="267.58,-651.34 270.77,-641.23 261.98,-647.15 267.58,-651.34"/>
</g>
<!-- DivisionRing&#45;&gt;Ring -->
<g id="edge13" class="edge">
<title>DivisionRing&#45;&gt;Ring</title>
<path fill="none" stroke="black" d="M184.1,-685.21C179.19,-676.35 173.94,-666.9 168.86,-657.74"/>
<polygon fill="none" stroke="black" points="171.77,-655.76 163.86,-648.71 165.65,-659.16 171.77,-655.76"/>
</g>
<!-- AbelianRing -->
<g id="node13" class="node">
<title>AbelianRing</title>
<g id="a_node13"><a xlink:href="https://github.com/mihxil/math/blob/main/mihxil-math/src/main/java/" xlink:title="{AbelianRing|{ + &#160;&#45; \n⇆ | &#160;* \n⇆ | 0 | 1}}">
<polygon fill="none" stroke="black" points="20,-697 20,-758 132,-758 132,-697 20,-697"/>
<text text-anchor="middle" x="76" y="-742.8" font-family="Times,serif" font-size="14.00">AbelianRing</text>
<polyline fill="none" stroke="black" points="20,-735 132,-735 "/>
<text text-anchor="middle" x="38" y="-719.8" font-family="Times,serif" font-size="14.00">+ &#45; </text>
<text text-anchor="middle" x="38" y="-704.8" font-family="Times,serif" font-size="14.00">⇆</text>
<polyline fill="none" stroke="black" points="56,-697 56,-735 "/>
<text text-anchor="middle" x="71" y="-719.8" font-family="Times,serif" font-size="14.00">* </text>
<text text-anchor="middle" x="71" y="-704.8" font-family="Times,serif" font-size="14.00">⇆</text>
<polyline fill="none" stroke="black" points="86,-697 86,-735 "/>
<text text-anchor="middle" x="97.5" y="-712.3" font-family="Times,serif" font-size="14.00">0</text>
<polyline fill="none" stroke="black" points="109,-697 109,-735 "/>
<text text-anchor="middle" x="120.5" y="-712.3" font-family="Times,serif" font-size="14.00">1</text>
</a>
</g>
</g>
<!-- AbelianRing&#45;&gt;Ring -->
<g id="edge14" class="edge">
<title>AbelianRing&#45;&gt;Ring</title>
<path fill="none" stroke="black" d="M92.23,-696.78C98.71,-684.92 106.35,-670.94 113.64,-657.6"/>
<polygon fill="none" stroke="black" points="116.88,-658.96 118.6,-648.5 110.74,-655.6 116.88,-658.96"/>
</g>
<!-- Field -->
<g id="node14" class="node">
<title>Field</title>
<g id="a_node14"><a xlink:href="https://github.com/mihxil/math/blob/main/mihxil-math/src/main/java/" xlink:title="{Field|{ + &#160;&#45; \n⇆ | &#160;* &#160;/ \n⇆ | 0 | 1}|ModuloField\nGaussianRationals}">
<polygon fill="none" stroke="black" points="154.5,-806.5 154.5,-905.5 275.5,-905.5 275.5,-806.5 154.5,-806.5"/>
<text text-anchor="middle" x="215" y="-890.3" font-family="Times,serif" font-size="14.00">Field</text>
<polyline fill="none" stroke="black" points="154.5,-882.5 275.5,-882.5 "/>
<text text-anchor="middle" x="173" y="-867.3" font-family="Times,serif" font-size="14.00">+ &#45; </text>
<text text-anchor="middle" x="173" y="-852.3" font-family="Times,serif" font-size="14.00">⇆</text>
<polyline fill="none" stroke="black" points="191.5,-844.5 191.5,-882.5 "/>
<text text-anchor="middle" x="209" y="-867.3" font-family="Times,serif" font-size="14.00">* / </text>
<text text-anchor="middle" x="209" y="-852.3" font-family="Times,serif" font-size="14.00">⇆</text>
<polyline fill="none" stroke="black" points="226.5,-844.5 226.5,-882.5 "/>
<text text-anchor="middle" x="238.5" y="-859.8" font-family="Times,serif" font-size="14.00">0</text>
<polyline fill="none" stroke="black" points="250.5,-844.5 250.5,-882.5 "/>
<text text-anchor="middle" x="263" y="-859.8" font-family="Times,serif" font-size="14.00">1</text>
<polyline fill="none" stroke="black" points="154.5,-844.5 275.5,-844.5 "/>
<text text-anchor="middle" x="215" y="-829.3" font-family="Times,serif" font-size="14.00">ModuloField</text>
<text text-anchor="middle" x="215" y="-814.3" font-family="Times,serif" font-size="14.00">GaussianRationals</text>
</a>
</g>
</g>
<!-- Field&#45;&gt;MultiplicativeAbelianGroup -->
<g id="edge15" class="edge">
<title>Field&#45;&gt;MultiplicativeAbelianGroup</title>
<path fill="none" stroke="black" d="M274.48,-806.45C291.5,-792.57 309.73,-777.69 325.67,-764.68"/>
<polygon fill="none" stroke="black" points="328.24,-767.1 333.77,-758.07 323.81,-761.68 328.24,-767.1"/>
</g>
<!-- Field&#45;&gt;DivisionRing -->
<g id="edge16" class="edge">
<title>Field&#45;&gt;DivisionRing</title>
<path fill="none" stroke="black" d="M211.93,-806.45C211.38,-797.74 210.8,-788.63 210.25,-779.84"/>
<polygon fill="none" stroke="black" points="213.73,-779.47 209.61,-769.71 206.74,-779.91 213.73,-779.47"/>
</g>
<!-- Field&#45;&gt;AbelianRing -->
<g id="edge17" class="edge">
<title>Field&#45;&gt;AbelianRing</title>
<path fill="none" stroke="black" d="M161.66,-806.45C146.54,-792.7 130.35,-777.96 116.15,-765.04"/>
<polygon fill="none" stroke="black" points="118.24,-762.21 108.49,-758.07 113.53,-767.39 118.24,-762.21"/>
</g>
<!-- VectorSpaceInterface -->
<g id="node15" class="node">
<title>VectorSpaceInterface</title>
<g id="a_node15"><a xlink:href="https://github.com/mihxil/math/blob/main/mihxil-math/src/main/java/" xlink:title="{VectorSpaceInterface|{ + &#160;&#45; \n⇆ | &#160;* \n⇆ | 0 | 1}|Vector3Space}">
<polygon fill="none" stroke="black" points="0,-814 0,-898 136,-898 136,-814 0,-814"/>
<text text-anchor="middle" x="68" y="-882.8" font-family="Times,serif" font-size="14.00">VectorSpaceInterface</text>
<polyline fill="none" stroke="black" points="0,-875 136,-875 "/>
<text text-anchor="middle" x="21" y="-859.8" font-family="Times,serif" font-size="14.00">+ &#45; </text>
<text text-anchor="middle" x="21" y="-844.8" font-family="Times,serif" font-size="14.00">⇆</text>
<polyline fill="none" stroke="black" points="42,-837 42,-875 "/>
<text text-anchor="middle" x="60" y="-859.8" font-family="Times,serif" font-size="14.00">* </text>
<text text-anchor="middle" x="60" y="-844.8" font-family="Times,serif" font-size="14.00">⇆</text>
<polyline fill="none" stroke="black" points="78,-837 78,-875 "/>
<text text-anchor="middle" x="92.5" y="-852.3" font-family="Times,serif" font-size="14.00">0</text>
<polyline fill="none" stroke="black" points="107,-837 107,-875 "/>
<text text-anchor="middle" x="121.5" y="-852.3" font-family="Times,serif" font-size="14.00">1</text>
<polyline fill="none" stroke="black" points="0,-837 136,-837 "/>
<text text-anchor="middle" x="68" y="-821.8" font-family="Times,serif" font-size="14.00">Vector3Space</text>
</a>
</g>
</g>
<!-- VectorSpaceInterface&#45;&gt;AbelianRing -->
<g id="edge18" class="edge">
<title>VectorSpaceInterface&#45;&gt;AbelianRing</title>
<path fill="none" stroke="black" d="M70.6,-813.93C71.52,-799.3 72.56,-782.86 73.48,-768.33"/>
<polygon fill="none" stroke="black" points="76.99,-768.35 74.12,-758.15 70,-767.91 76.99,-768.35"/>
</g>
<!-- ScalarField -->
<g id="node16" class="node">
<title>ScalarField</title>
<g id="a_node16"><a xlink:href="https://github.com/mihxil/math/blob/main/mihxil-math/src/main/java/" xlink:title="{ScalarField|{ + &#160;&#45; \n⇆ | &#160;* &#160;/ \n⇆ | 0 | 1}|RationalNumbers}">
<polygon fill="none" stroke="black" points="157,-942.5 157,-1026.5 273,-1026.5 273,-942.5 157,-942.5"/>
<text text-anchor="middle" x="215" y="-1011.3" font-family="Times,serif" font-size="14.00">ScalarField</text>
<polyline fill="none" stroke="black" points="157,-1003.5 273,-1003.5 "/>
<text text-anchor="middle" x="175" y="-988.3" font-family="Times,serif" font-size="14.00">+ &#45; </text>
<text text-anchor="middle" x="175" y="-973.3" font-family="Times,serif" font-size="14.00">⇆</text>
<polyline fill="none" stroke="black" points="193,-965.5 193,-1003.5 "/>
<text text-anchor="middle" x="210" y="-988.3" font-family="Times,serif" font-size="14.00">* / </text>
<text text-anchor="middle" x="210" y="-973.3" font-family="Times,serif" font-size="14.00">⇆</text>
<polyline fill="none" stroke="black" points="227,-965.5 227,-1003.5 "/>
<text text-anchor="middle" x="238.5" y="-980.8" font-family="Times,serif" font-size="14.00">0</text>
<polyline fill="none" stroke="black" points="250,-965.5 250,-1003.5 "/>
<text text-anchor="middle" x="261.5" y="-980.8" font-family="Times,serif" font-size="14.00">1</text>
<polyline fill="none" stroke="black" points="157,-965.5 273,-965.5 "/>
<text text-anchor="middle" x="215" y="-950.3" font-family="Times,serif" font-size="14.00">RationalNumbers</text>
</a>
</g>
</g>
<!-- ScalarField&#45;&gt;Field -->
<g id="edge19" class="edge">
<title>ScalarField&#45;&gt;Field</title>
<path fill="none" stroke="black" d="M215,-942.43C215,-933.94 215,-924.84 215,-915.85"/>
<polygon fill="none" stroke="black" points="218.5,-915.8 215,-905.8 211.5,-915.8 218.5,-915.8"/>
</g>
<!-- CompleteField -->
<g id="node17" class="node">
<title>CompleteField</title>
<g id="a_node17"><a xlink:href="https://github.com/mihxil/math/blob/main/mihxil-math/src/main/java/" xlink:title="{CompleteField|{ + &#160;&#45; \n⇆ | &#160;* &#160;/ \n⇆ | 0 | 1}|RealField}">
<polygon fill="none" stroke="black" points="157,-1063.5 157,-1147.5 273,-1147.5 273,-1063.5 157,-1063.5"/>
<text text-anchor="middle" x="215" y="-1132.3" font-family="Times,serif" font-size="14.00">CompleteField</text>
<polyline fill="none" stroke="black" points="157,-1124.5 273,-1124.5 "/>
<text text-anchor="middle" x="175" y="-1109.3" font-family="Times,serif" font-size="14.00">+ &#45; </text>
<text text-anchor="middle" x="175" y="-1094.3" font-family="Times,serif" font-size="14.00">⇆</text>
<polyline fill="none" stroke="black" points="193,-1086.5 193,-1124.5 "/>
<text text-anchor="middle" x="210" y="-1109.3" font-family="Times,serif" font-size="14.00">* / </text>
<text text-anchor="middle" x="210" y="-1094.3" font-family="Times,serif" font-size="14.00">⇆</text>
<polyline fill="none" stroke="black" points="227,-1086.5 227,-1124.5 "/>
<text text-anchor="middle" x="238.5" y="-1101.8" font-family="Times,serif" font-size="14.00">0</text>
<polyline fill="none" stroke="black" points="250,-1086.5 250,-1124.5 "/>
<text text-anchor="middle" x="261.5" y="-1101.8" font-family="Times,serif" font-size="14.00">1</text>
<polyline fill="none" stroke="black" points="157,-1086.5 273,-1086.5 "/>
<text text-anchor="middle" x="215" y="-1071.3" font-family="Times,serif" font-size="14.00">RealField</text>
</a>
</g>
</g>
<!-- CompleteField&#45;&gt;ScalarField -->
<g id="edge20" class="edge">
<title>CompleteField&#45;&gt;ScalarField</title>
<path fill="none" stroke="black" d="M215,-1063.21C215,-1054.72 215,-1045.68 215,-1036.88"/>
<polygon fill="none" stroke="black" points="218.5,-1036.71 215,-1026.71 211.5,-1036.71 218.5,-1036.71"/>
</g>
</g>
</svg>
