<?xml version="1.0" encoding="UTF-8" standalone="no"?>
<!DOCTYPE svg PUBLIC "-//W3C//DTD SVG 1.1//EN"
 "http://www.w3.org/Graphics/SVG/1.1/DTD/svg11.dtd">
<!-- Generated by graphviz version 2.44.0 ()
 -->
<!-- Pages: 1 -->
<svg width="513pt" height="779pt"
 viewBox="0.00 0.00 513.00 779.00" xmlns="http://www.w3.org/2000/svg" xmlns:xlink="http://www.w3.org/1999/xlink">
<g id="graph0" class="graph" transform="scale(1 1) rotate(0) translate(4 775)">
<polygon fill="white" stroke="transparent" points="-4,4 -4,-775 509,-775 509,4 -4,4"/>
<!-- AlgebraicStructure -->
<g id="node1" class="node">
<title>AlgebraicStructure</title>
<polygon fill="none" stroke="black" points="162,-0.5 162,-46.5 315,-46.5 315,-0.5 162,-0.5"/>
<text text-anchor="middle" x="238.5" y="-31.3" font-family="Times,serif" font-size="14.00">AlgebraicStructure</text>
<polyline fill="none" stroke="black" points="162,-23.5 315,-23.5 "/>
<text text-anchor="middle" x="238.5" y="-8.3" font-family="Times,serif" font-size="14.00">no operators</text>
</g>
<!-- AdditiveSemiGroup -->
<g id="node2" class="node">
<title>AdditiveSemiGroup</title>
<polygon fill="none" stroke="black" points="107.5,-83.5 107.5,-129.5 263.5,-129.5 263.5,-83.5 107.5,-83.5"/>
<text text-anchor="middle" x="185.5" y="-114.3" font-family="Times,serif" font-size="14.00">AdditiveSemiGroup</text>
<polyline fill="none" stroke="black" points="107.5,-106.5 263.5,-106.5 "/>
<text text-anchor="middle" x="185.5" y="-91.3" font-family="Times,serif" font-size="14.00">+</text>
</g>
<!-- AdditiveSemiGroup&#45;&gt;AlgebraicStructure -->
<g id="edge1" class="edge">
<title>AdditiveSemiGroup&#45;&gt;AlgebraicStructure</title>
<path fill="none" stroke="black" d="M199.98,-83.37C205.71,-74.62 212.38,-64.41 218.55,-54.99"/>
<polygon fill="none" stroke="black" points="221.49,-56.89 224.04,-46.61 215.63,-53.06 221.49,-56.89"/>
</g>
<!-- AdditiveMonoid -->
<g id="node3" class="node">
<title>AdditiveMonoid</title>
<polygon fill="none" stroke="black" points="109,-166.5 109,-212.5 238,-212.5 238,-166.5 109,-166.5"/>
<text text-anchor="middle" x="173.5" y="-197.3" font-family="Times,serif" font-size="14.00">AdditiveMonoid</text>
<polyline fill="none" stroke="black" points="109,-189.5 238,-189.5 "/>
<text text-anchor="middle" x="142" y="-174.3" font-family="Times,serif" font-size="14.00">+</text>
<polyline fill="none" stroke="black" points="175,-166.5 175,-189.5 "/>
<text text-anchor="middle" x="206.5" y="-174.3" font-family="Times,serif" font-size="14.00">0</text>
</g>
<!-- AdditiveMonoid&#45;&gt;AdditiveSemiGroup -->
<g id="edge2" class="edge">
<title>AdditiveMonoid&#45;&gt;AdditiveSemiGroup</title>
<path fill="none" stroke="black" d="M176.78,-166.37C178,-158.15 179.4,-148.66 180.73,-139.73"/>
<polygon fill="none" stroke="black" points="184.22,-140.01 182.22,-129.61 177.3,-138.99 184.22,-140.01"/>
</g>
<!-- AdditiveGroup -->
<g id="node4" class="node">
<title>AdditiveGroup</title>
<polygon fill="none" stroke="black" points="89.5,-249.5 89.5,-295.5 209.5,-295.5 209.5,-249.5 89.5,-249.5"/>
<text text-anchor="middle" x="149.5" y="-280.3" font-family="Times,serif" font-size="14.00">AdditiveGroup</text>
<polyline fill="none" stroke="black" points="89.5,-272.5 209.5,-272.5 "/>
<text text-anchor="middle" x="111" y="-257.3" font-family="Times,serif" font-size="14.00">+</text>
<polyline fill="none" stroke="black" points="132.5,-249.5 132.5,-272.5 "/>
<text text-anchor="middle" x="150.5" y="-257.3" font-family="Times,serif" font-size="14.00">&#45;</text>
<polyline fill="none" stroke="black" points="168.5,-249.5 168.5,-272.5 "/>
<text text-anchor="middle" x="189" y="-257.3" font-family="Times,serif" font-size="14.00">0</text>
</g>
<!-- AdditiveGroup&#45;&gt;AdditiveMonoid -->
<g id="edge3" class="edge">
<title>AdditiveGroup&#45;&gt;AdditiveMonoid</title>
<path fill="none" stroke="black" d="M156.06,-249.37C158.52,-241.06 161.37,-231.45 164.04,-222.43"/>
<polygon fill="none" stroke="black" points="167.46,-223.19 166.95,-212.61 160.75,-221.2 167.46,-223.19"/>
</g>
<!-- AdditiveAbelianGroup -->
<g id="node5" class="node">
<title>AdditiveAbelianGroup</title>
<polygon fill="none" stroke="black" points="15,-332.5 15,-393.5 188,-393.5 188,-332.5 15,-332.5"/>
<text text-anchor="middle" x="101.5" y="-378.3" font-family="Times,serif" font-size="14.00">AdditiveAbelianGroup</text>
<polyline fill="none" stroke="black" points="15,-370.5 188,-370.5 "/>
<text text-anchor="middle" x="62" y="-355.3" font-family="Times,serif" font-size="14.00">+ &#45; </text>
<text text-anchor="middle" x="62" y="-340.3" font-family="Times,serif" font-size="14.00">⇆</text>
<polyline fill="none" stroke="black" points="109,-332.5 109,-370.5 "/>
<text text-anchor="middle" x="148.5" y="-347.8" font-family="Times,serif" font-size="14.00">0</text>
</g>
<!-- AdditiveAbelianGroup&#45;&gt;AdditiveGroup -->
<g id="edge4" class="edge">
<title>AdditiveAbelianGroup&#45;&gt;AdditiveGroup</title>
<path fill="none" stroke="black" d="M117.75,-332.04C122.55,-323.18 127.82,-313.47 132.66,-304.54"/>
<polygon fill="none" stroke="black" points="135.82,-306.06 137.52,-295.6 129.67,-302.72 135.82,-306.06"/>
</g>
<!-- Rng -->
<g id="node6" class="node">
<title>Rng</title>
<polygon fill="none" stroke="black" points="81,-430.5 81,-476.5 168,-476.5 168,-430.5 81,-430.5"/>
<text text-anchor="middle" x="124.5" y="-461.3" font-family="Times,serif" font-size="14.00">Rng</text>
<polyline fill="none" stroke="black" points="81,-453.5 168,-453.5 "/>
<text text-anchor="middle" x="100" y="-438.3" font-family="Times,serif" font-size="14.00">+ &#45;</text>
<polyline fill="none" stroke="black" points="119,-430.5 119,-453.5 "/>
<text text-anchor="middle" x="130.5" y="-438.3" font-family="Times,serif" font-size="14.00">*</text>
<polyline fill="none" stroke="black" points="142,-430.5 142,-453.5 "/>
<text text-anchor="middle" x="155" y="-438.3" font-family="Times,serif" font-size="14.00">0</text>
</g>
<!-- Rng&#45;&gt;AdditiveAbelianGroup -->
<g id="edge6" class="edge">
<title>Rng&#45;&gt;AdditiveAbelianGroup</title>
<path fill="none" stroke="black" d="M118.7,-430.17C116.59,-422.05 114.13,-412.6 111.75,-403.44"/>
<polygon fill="none" stroke="black" points="115.12,-402.48 109.21,-393.68 108.34,-404.24 115.12,-402.48"/>
</g>
<!-- MultiplicativeSemiGroup -->
<g id="node9" class="node">
<title>MultiplicativeSemiGroup</title>
<polygon fill="none" stroke="black" points="206.5,-345 206.5,-381 402.5,-381 402.5,-345 206.5,-345"/>
<text text-anchor="middle" x="304.5" y="-359.3" font-family="Times,serif" font-size="14.00">MultiplicativeSemiGroup</text>
</g>
<!-- Rng&#45;&gt;MultiplicativeSemiGroup -->
<g id="edge7" class="edge">
<title>Rng&#45;&gt;MultiplicativeSemiGroup</title>
<path fill="none" stroke="black" d="M168.07,-431.08C196.12,-417.29 232.44,-399.43 260.56,-385.6"/>
<polygon fill="none" stroke="black" points="262.32,-388.64 269.75,-381.08 259.24,-382.35 262.32,-388.64"/>
</g>
<!-- Ring -->
<g id="node7" class="node">
<title>Ring</title>
<polygon fill="none" stroke="black" points="66,-513.5 66,-574.5 183,-574.5 183,-513.5 66,-513.5"/>
<text text-anchor="middle" x="124.5" y="-559.3" font-family="Times,serif" font-size="14.00">Ring</text>
<polyline fill="none" stroke="black" points="66,-551.5 183,-551.5 "/>
<text text-anchor="middle" x="87" y="-536.3" font-family="Times,serif" font-size="14.00">+ &#45; </text>
<text text-anchor="middle" x="87" y="-521.3" font-family="Times,serif" font-size="14.00">⇆</text>
<polyline fill="none" stroke="black" points="108,-513.5 108,-551.5 "/>
<text text-anchor="middle" x="119.5" y="-528.8" font-family="Times,serif" font-size="14.00">*</text>
<polyline fill="none" stroke="black" points="131,-513.5 131,-551.5 "/>
<text text-anchor="middle" x="144" y="-528.8" font-family="Times,serif" font-size="14.00">0</text>
<polyline fill="none" stroke="black" points="157,-513.5 157,-551.5 "/>
<text text-anchor="middle" x="170" y="-528.8" font-family="Times,serif" font-size="14.00">1</text>
</g>
<!-- Ring&#45;&gt;Rng -->
<g id="edge5" class="edge">
<title>Ring&#45;&gt;Rng</title>
<path fill="none" stroke="black" d="M124.5,-513.04C124.5,-504.55 124.5,-495.28 124.5,-486.67"/>
<polygon fill="none" stroke="black" points="128,-486.6 124.5,-476.6 121,-486.6 128,-486.6"/>
</g>
<!-- DivisionRing -->
<g id="node8" class="node">
<title>DivisionRing</title>
<polygon fill="none" stroke="black" points="121.5,-611.5 121.5,-672.5 273.5,-672.5 273.5,-611.5 121.5,-611.5"/>
<text text-anchor="middle" x="197.5" y="-657.3" font-family="Times,serif" font-size="14.00">DivisionRing</text>
<polyline fill="none" stroke="black" points="121.5,-649.5 273.5,-649.5 "/>
<text text-anchor="middle" x="142.5" y="-634.3" font-family="Times,serif" font-size="14.00">+ &#45; </text>
<text text-anchor="middle" x="142.5" y="-619.3" font-family="Times,serif" font-size="14.00">⇆</text>
<polyline fill="none" stroke="black" points="163.5,-611.5 163.5,-649.5 "/>
<text text-anchor="middle" x="176.5" y="-626.8" font-family="Times,serif" font-size="14.00">0</text>
<polyline fill="none" stroke="black" points="189.5,-611.5 189.5,-649.5 "/>
<text text-anchor="middle" x="205.5" y="-626.8" font-family="Times,serif" font-size="14.00">* /</text>
<polyline fill="none" stroke="black" points="221.5,-611.5 221.5,-649.5 "/>
<text text-anchor="middle" x="234.5" y="-626.8" font-family="Times,serif" font-size="14.00">0</text>
<polyline fill="none" stroke="black" points="247.5,-611.5 247.5,-649.5 "/>
<text text-anchor="middle" x="260.5" y="-626.8" font-family="Times,serif" font-size="14.00">1</text>
</g>
<!-- DivisionRing&#45;&gt;Ring -->
<g id="edge8" class="edge">
<title>DivisionRing&#45;&gt;Ring</title>
<path fill="none" stroke="black" d="M175,-611.41C168.13,-602.38 160.48,-592.32 153.26,-582.82"/>
<polygon fill="none" stroke="black" points="155.89,-580.5 147.05,-574.65 150.32,-584.73 155.89,-580.5"/>
</g>
<!-- MultiplicativeGroup -->
<g id="node11" class="node">
<title>MultiplicativeGroup</title>
<polygon fill="none" stroke="black" points="224.5,-526 224.5,-562 384.5,-562 384.5,-526 224.5,-526"/>
<text text-anchor="middle" x="304.5" y="-540.3" font-family="Times,serif" font-size="14.00">MultiplicativeGroup</text>
</g>
<!-- DivisionRing&#45;&gt;MultiplicativeGroup -->
<g id="edge9" class="edge">
<title>DivisionRing&#45;&gt;MultiplicativeGroup</title>
<path fill="none" stroke="black" d="M230.48,-611.41C245.71,-597.75 263.56,-581.73 277.91,-568.86"/>
<polygon fill="none" stroke="black" points="280.38,-571.34 285.49,-562.06 275.71,-566.13 280.38,-571.34"/>
</g>
<!-- MultiplicativeSemiGroup&#45;&gt;AlgebraicStructure -->
<g id="edge11" class="edge">
<title>MultiplicativeSemiGroup&#45;&gt;AlgebraicStructure</title>
<path fill="none" stroke="black" d="M304.94,-344.81C305.57,-300.3 304.05,-178.09 272.5,-83 269.34,-73.48 264.51,-63.81 259.47,-55.14"/>
<polygon fill="none" stroke="black" points="262.41,-53.23 254.21,-46.52 256.43,-56.88 262.41,-53.23"/>
</g>
<!-- MultiplicativeMonoid -->
<g id="node10" class="node">
<title>MultiplicativeMonoid</title>
<polygon fill="none" stroke="black" points="220,-435.5 220,-471.5 389,-471.5 389,-435.5 220,-435.5"/>
<text text-anchor="middle" x="304.5" y="-449.8" font-family="Times,serif" font-size="14.00">MultiplicativeMonoid</text>
</g>
<!-- MultiplicativeMonoid&#45;&gt;MultiplicativeSemiGroup -->
<g id="edge12" class="edge">
<title>MultiplicativeMonoid&#45;&gt;MultiplicativeSemiGroup</title>
<path fill="none" stroke="black" d="M304.5,-435.44C304.5,-422.95 304.5,-405.74 304.5,-391.35"/>
<polygon fill="none" stroke="black" points="308,-391.01 304.5,-381.01 301,-391.01 308,-391.01"/>
</g>
<!-- MultiplicativeGroup&#45;&gt;MultiplicativeMonoid -->
<g id="edge13" class="edge">
<title>MultiplicativeGroup&#45;&gt;MultiplicativeMonoid</title>
<path fill="none" stroke="black" d="M304.5,-525.94C304.5,-513.45 304.5,-496.24 304.5,-481.85"/>
<polygon fill="none" stroke="black" points="308,-481.51 304.5,-471.51 301,-481.51 308,-481.51"/>
</g>
<!-- MultiplicativeAbelianGroup -->
<g id="node12" class="node">
<title>MultiplicativeAbelianGroup</title>
<polygon fill="none" stroke="black" points="292,-624 292,-660 505,-660 505,-624 292,-624"/>
<text text-anchor="middle" x="398.5" y="-638.3" font-family="Times,serif" font-size="14.00">MultiplicativeAbelianGroup</text>
</g>
<!-- MultiplicativeAbelianGroup&#45;&gt;MultiplicativeGroup -->
<g id="edge14" class="edge">
<title>MultiplicativeAbelianGroup&#45;&gt;MultiplicativeGroup</title>
<path fill="none" stroke="black" d="M381.69,-623.84C366.86,-608.68 345.06,-586.42 328.41,-569.41"/>
<polygon fill="none" stroke="black" points="330.66,-566.71 321.16,-562.01 325.66,-571.61 330.66,-566.71"/>
</g>
<!-- Field -->
<g id="node13" class="node">
<title>Field</title>
<polygon fill="none" stroke="black" points="119,-709.5 119,-770.5 276,-770.5 276,-709.5 119,-709.5"/>
<text text-anchor="middle" x="197.5" y="-755.3" font-family="Times,serif" font-size="14.00">Field</text>
<polyline fill="none" stroke="black" points="119,-747.5 276,-747.5 "/>
<text text-anchor="middle" x="140" y="-732.3" font-family="Times,serif" font-size="14.00">+ &#45; </text>
<text text-anchor="middle" x="140" y="-717.3" font-family="Times,serif" font-size="14.00">⇆</text>
<polyline fill="none" stroke="black" points="161,-709.5 161,-747.5 "/>
<text text-anchor="middle" x="174" y="-724.8" font-family="Times,serif" font-size="14.00">0</text>
<polyline fill="none" stroke="black" points="187,-709.5 187,-747.5 "/>
<text text-anchor="middle" x="205.5" y="-732.3" font-family="Times,serif" font-size="14.00">* / </text>
<text text-anchor="middle" x="205.5" y="-717.3" font-family="Times,serif" font-size="14.00"> ⇆</text>
<polyline fill="none" stroke="black" points="224,-709.5 224,-747.5 "/>
<text text-anchor="middle" x="237" y="-724.8" font-family="Times,serif" font-size="14.00">0</text>
<polyline fill="none" stroke="black" points="250,-709.5 250,-747.5 "/>
<text text-anchor="middle" x="263" y="-724.8" font-family="Times,serif" font-size="14.00">1</text>
</g>
<!-- Field&#45;&gt;DivisionRing -->
<g id="edge15" class="edge">
<title>Field&#45;&gt;DivisionRing</title>
<path fill="none" stroke="black" d="M197.5,-709.41C197.5,-701.02 197.5,-691.74 197.5,-682.84"/>
<polygon fill="none" stroke="black" points="201,-682.65 197.5,-672.65 194,-682.65 201,-682.65"/>
</g>
<!-- Field&#45;&gt;MultiplicativeAbelianGroup -->
<g id="edge16" class="edge">
<title>Field&#45;&gt;MultiplicativeAbelianGroup</title>
<path fill="none" stroke="black" d="M259.45,-709.41C289.92,-694.86 325.96,-677.65 353.71,-664.39"/>
<polygon fill="none" stroke="black" points="355.27,-667.53 362.78,-660.06 352.25,-661.21 355.27,-667.53"/>
</g>
<!-- AbelianRing -->
<g id="node14" class="node">
<title>AbelianRing</title>
<polygon fill="none" stroke="black" points="0,-624 0,-660 103,-660 103,-624 0,-624"/>
<text text-anchor="middle" x="51.5" y="-638.3" font-family="Times,serif" font-size="14.00">AbelianRing</text>
</g>
<!-- Field&#45;&gt;AbelianRing -->
<g id="edge17" class="edge">
<title>Field&#45;&gt;AbelianRing</title>
<path fill="none" stroke="black" d="M152.5,-709.41C131.05,-695.3 105.78,-678.69 85.89,-665.61"/>
<polygon fill="none" stroke="black" points="87.72,-662.63 77.44,-660.06 83.88,-668.48 87.72,-662.63"/>
</g>
<!-- AbelianRing&#45;&gt;Ring -->
<g id="edge10" class="edge">
<title>AbelianRing&#45;&gt;Ring</title>
<path fill="none" stroke="black" d="M64.55,-623.84C73.19,-612.48 84.87,-597.12 95.62,-582.98"/>
<polygon fill="none" stroke="black" points="98.55,-584.91 101.82,-574.83 92.98,-580.67 98.55,-584.91"/>
</g>
</g>
</svg>
