<?xml version="1.0" encoding="UTF-8" standalone="no"?>
<!DOCTYPE svg PUBLIC "-//W3C//DTD SVG 1.1//EN"
 "http://www.w3.org/Graphics/SVG/1.1/DTD/svg11.dtd">
<!-- Generated by graphviz version 2.49.3 (20211027.1534)
 -->
<!-- Pages: 1 -->
<svg width="701pt" height="1202pt"
 viewBox="0.00 0.00 700.50 1202.00" xmlns="http://www.w3.org/2000/svg" xmlns:xlink="http://www.w3.org/1999/xlink">
<g id="graph0" class="graph" transform="scale(1 1) rotate(0) translate(4 1198)">
<polygon fill="white" stroke="transparent" points="-4,4 -4,-1198 696.5,-1198 696.5,4 -4,4"/>
<!-- Group -->
<g id="node1" class="node">
<title>Group</title>
<g id="a_node1_0"><a xlink:href="https://github.com/mihxil/math/blob/main/mihxil-math/src/main/java/org/meeuw/math/abstractalgebra/Group.java" xlink:title="Group">
<polygon fill="none" stroke="black" points="118,-192 118,-213 169,-213 169,-192 118,-192"/>
<text text-anchor="start" x="121" y="-198.8" font-family="Times,serif" font-size="14.00" fill="#0000a0">Group</text>
</a>
</g>
<polygon fill="none" stroke="black" points="118,-171 118,-192 144,-192 144,-171 118,-171"/>
<text text-anchor="start" x="125" y="-177.8" font-family="Times,serif" font-size="14.00"> *</text>
<polygon fill="none" stroke="black" points="144,-171 144,-192 169,-192 169,-171 144,-171"/>
<text text-anchor="start" x="151.5" y="-177.8" font-family="Times,serif" font-size="14.00">u</text>
<g id="a_node1_1"><a xlink:href="https://github.com/mihxil/math/blob/main/mihxil-algebra/src/main/java/org/meeuw/math/abstractalgebra/integers/Integers.java" xlink:title="Integers">
<polygon fill="none" stroke="black" points="118,-150 118,-171 169,-171 169,-150 118,-150"/>
<text text-anchor="start" x="138" y="-156.8" font-family="Times,serif" font-size="14.00" fill="#0000a0">ℤ</text>
</a>
</g>
<g id="a_node1_2"><a xlink:href="https://github.com/mihxil/math/blob/main/mihxil-algebra/src/main/java/org/meeuw/math/abstractalgebra/klein/KleinGroup.java" xlink:title="KleinGroup">
<polygon fill="none" stroke="black" points="118,-129 118,-150 169,-150 169,-129 118,-129"/>
<text text-anchor="start" x="138.5" y="-135.8" font-family="Times,serif" font-size="14.00" fill="#0000a0">V</text>
</a>
</g>
</g>
<!-- AlgebraicStructure -->
<g id="node2" class="node">
<title>AlgebraicStructure</title>
<text text-anchor="middle" x="302" y="-3.8" font-family="Times,serif" font-size="14.00">AlgebraicStructure</text>
</g>
<!-- Group&#45;&gt;AlgebraicStructure -->
<g id="edge1" class="edge">
<title>Group&#45;&gt;AlgebraicStructure</title>
<path fill="none" stroke="black" d="M168.55,-144.05C202.6,-109.47 261.65,-49.49 288.28,-22.44"/>
<polygon fill="none" stroke="black" points="290.91,-24.75 295.44,-15.17 285.93,-19.84 290.91,-24.75"/>
</g>
<!-- AdditiveSemiGroup -->
<g id="node3" class="node">
<title>AdditiveSemiGroup</title>
<g id="a_node3_3"><a xlink:href="https://github.com/mihxil/math/blob/main/mihxil-math/src/main/java/org/meeuw/math/abstractalgebra/AdditiveSemiGroup.java" xlink:title="AdditiveSemiGroup">
<polygon fill="none" stroke="black" points="357,-72 357,-93 503,-93 503,-72 357,-72"/>
<text text-anchor="start" x="360" y="-78.8" font-family="Times,serif" font-size="14.00" fill="#0000a0">AdditiveSemiGroup</text>
</a>
</g>
<polygon fill="none" stroke="black" points="357,-51 357,-72 503,-72 503,-51 357,-51"/>
<text text-anchor="start" x="419" y="-57.8" font-family="Times,serif" font-size="14.00"> + </text>
</g>
<!-- AdditiveSemiGroup&#45;&gt;AlgebraicStructure -->
<g id="edge2" class="edge">
<title>AdditiveSemiGroup&#45;&gt;AlgebraicStructure</title>
<path fill="none" stroke="black" d="M388.8,-50.88C367.46,-40.46 342.24,-28.15 324.5,-19.48"/>
<polygon fill="none" stroke="black" points="326,-16.33 315.48,-15.08 322.93,-22.62 326,-16.33"/>
</g>
<!-- MultiplicativeSemiGroup -->
<g id="node4" class="node">
<title>MultiplicativeSemiGroup</title>
<g id="a_node4_4"><a xlink:href="https://github.com/mihxil/math/blob/main/mihxil-math/src/main/java/org/meeuw/math/abstractalgebra/MultiplicativeSemiGroup.java" xlink:title="MultiplicativeSemiGroup">
<polygon fill="none" stroke="black" points="259,-270 259,-291 445,-291 445,-270 259,-270"/>
<text text-anchor="start" x="262" y="-276.8" font-family="Times,serif" font-size="14.00" fill="#0000a0">MultiplicativeSemiGroup</text>
</a>
</g>
<polygon fill="none" stroke="black" points="259,-249 259,-270 445,-270 445,-249 259,-249"/>
<text text-anchor="start" x="345" y="-255.8" font-family="Times,serif" font-size="14.00"> ⋅ </text>
</g>
<!-- MultiplicativeSemiGroup&#45;&gt;AlgebraicStructure -->
<g id="edge3" class="edge">
<title>MultiplicativeSemiGroup&#45;&gt;AlgebraicStructure</title>
<path fill="none" stroke="black" d="M338.7,-248.84C332.56,-238.54 325.81,-225.56 322,-213 301.61,-145.82 300.75,-61.08 301.44,-25.47"/>
<polygon fill="none" stroke="black" points="304.95,-25.13 301.72,-15.04 297.96,-24.94 304.95,-25.13"/>
</g>
<!-- Field -->
<g id="node5" class="node">
<title>Field</title>
<g id="a_node5_5"><a xlink:href="https://github.com/mihxil/math/blob/main/mihxil-math/src/main/java/org/meeuw/math/abstractalgebra/Field.java" xlink:title="Field">
<polygon fill="none" stroke="black" points="126,-924 126,-945 301,-945 301,-924 126,-924"/>
<text text-anchor="start" x="195" y="-930.8" font-family="Times,serif" font-size="14.00" fill="#0000a0">Field</text>
</a>
</g>
<polygon fill="none" stroke="black" points="126,-888 126,-924 184,-924 184,-888 126,-888"/>
<text text-anchor="start" x="137.5" y="-909.8" font-family="Times,serif" font-size="14.00"> + &#160;&#45; </text>
<text text-anchor="start" x="148.5" y="-894.8" font-family="Times,serif" font-size="14.00">⇆</text>
<polygon fill="none" stroke="black" points="184,-888 184,-924 226,-924 226,-888 184,-888"/>
<text text-anchor="start" x="191" y="-909.8" font-family="Times,serif" font-size="14.00"> ⋅ &#160;/ </text>
<text text-anchor="start" x="198.5" y="-894.8" font-family="Times,serif" font-size="14.00">⇆</text>
<polygon fill="none" stroke="black" points="226,-888 226,-924 248,-924 248,-888 226,-888"/>
<text text-anchor="start" x="231" y="-902.3" font-family="Times,serif" font-size="14.00"> *</text>
<polygon fill="none" stroke="black" points="248,-888 248,-924 266,-924 266,-888 248,-888"/>
<text text-anchor="start" x="252" y="-902.3" font-family="Times,serif" font-size="14.00">0</text>
<polygon fill="none" stroke="black" points="266,-888 266,-924 283,-924 283,-888 266,-888"/>
<text text-anchor="start" x="269.5" y="-902.3" font-family="Times,serif" font-size="14.00">1</text>
<polygon fill="none" stroke="black" points="283,-888 283,-924 301,-924 301,-888 283,-888"/>
<text text-anchor="start" x="287" y="-902.3" font-family="Times,serif" font-size="14.00">u</text>
<g id="a_node5_6"><a xlink:href="https://github.com/mihxil/math/blob/main/mihxil-algebra/src/main/java/org/meeuw/math/abstractalgebra/integers/ModuloField.java" xlink:title="ModuloField">
<polygon fill="none" stroke="black" points="126,-867 126,-888 301,-888 301,-867 126,-867"/>
<text text-anchor="start" x="196" y="-873.8" font-family="Times,serif" font-size="14.00" fill="#0000a0">ℤ/nℤ</text>
</a>
</g>
<g id="a_node5_7"><a xlink:href="https://github.com/mihxil/math/blob/main/mihxil-algebra/src/main/java/org/meeuw/math/abstractalgebra/complex/GaussianRationals.java" xlink:title="GaussianRationals">
<polygon fill="none" stroke="black" points="126,-846 126,-867 301,-867 301,-846 126,-846"/>
<text text-anchor="start" x="129" y="-852.8" font-family="Times,serif" font-size="14.00" fill="#0000a0">GaussianRationals ᵁ0(i)</text>
</a>
</g>
<g id="a_node5_8"><a xlink:href="https://github.com/mihxil/math/blob/main/mihxil-algebra/src/main/java/org/meeuw/math/abstractalgebra/integers/ModuloField.java" xlink:title="ModuloField">
<polygon fill="none" stroke="black" points="126,-825 126,-846 301,-846 301,-825 126,-825"/>
<text text-anchor="start" x="196" y="-831.8" font-family="Times,serif" font-size="14.00" fill="#0000a0">ℤ/3ℤ</text>
</a>
</g>
</g>
<!-- Field&#45;&gt;Group -->
<g id="edge4" class="edge">
<title>Field&#45;&gt;Group</title>
<path fill="none" stroke="black" d="M125.44,-826.51C66.69,-780.34 0,-709.61 0,-626.5 0,-626.5 0,-626.5 0,-365 0,-291.89 67.06,-228.4 109.34,-195.64"/>
<polygon fill="none" stroke="black" points="111.58,-198.34 117.43,-189.51 107.35,-192.76 111.58,-198.34"/>
</g>
<!-- DivisionRing -->
<g id="node6" class="node">
<title>DivisionRing</title>
<g id="a_node6_9"><a xlink:href="https://github.com/mihxil/math/blob/main/mihxil-math/src/main/java/org/meeuw/math/abstractalgebra/DivisionRing.java" xlink:title="DivisionRing">
<polygon fill="none" stroke="black" points="251,-768 251,-789 358,-789 358,-768 251,-768"/>
<text text-anchor="start" x="259" y="-774.8" font-family="Times,serif" font-size="14.00" fill="#0000a0">DivisionRing</text>
</a>
</g>
<polygon fill="none" stroke="black" points="251,-732 251,-768 292,-768 292,-732 251,-732"/>
<text text-anchor="start" x="254" y="-753.8" font-family="Times,serif" font-size="14.00"> + &#160;&#45; </text>
<text text-anchor="start" x="265" y="-738.8" font-family="Times,serif" font-size="14.00">⇆</text>
<polygon fill="none" stroke="black" points="292,-732 292,-768 326,-768 326,-732 292,-732"/>
<text text-anchor="start" x="295" y="-746.3" font-family="Times,serif" font-size="14.00"> ⋅ &#160;/ </text>
<polygon fill="none" stroke="black" points="326,-732 326,-768 342,-768 342,-732 326,-732"/>
<text text-anchor="start" x="329" y="-746.3" font-family="Times,serif" font-size="14.00">0</text>
<polygon fill="none" stroke="black" points="342,-732 342,-768 358,-768 358,-732 342,-732"/>
<text text-anchor="start" x="345" y="-746.3" font-family="Times,serif" font-size="14.00">1</text>
<g id="a_node6_10"><a xlink:href="https://github.com/mihxil/math/blob/main/mihxil-algebra/src/main/java/org/meeuw/math/abstractalgebra/quaternions/Quaternions.java" xlink:title="Quaternions">
<polygon fill="none" stroke="black" points="251,-711 251,-732 358,-732 358,-711 251,-711"/>
<text text-anchor="start" x="286" y="-717.8" font-family="Times,serif" font-size="14.00" fill="#0000a0">ℍ(ℚ)</text>
</a>
</g>
</g>
<!-- Field&#45;&gt;DivisionRing -->
<g id="edge5" class="edge">
<title>Field&#45;&gt;DivisionRing</title>
<path fill="none" stroke="black" d="M253.44,-824.89C259.7,-815.74 266.09,-806.4 272.13,-797.58"/>
<polygon fill="none" stroke="black" points="275.03,-799.54 277.79,-789.31 269.26,-795.58 275.03,-799.54"/>
</g>
<!-- DivisibleGroup -->
<g id="node7" class="node">
<title>DivisibleGroup</title>
<g id="a_node7_11"><a xlink:href="https://github.com/mihxil/math/blob/main/mihxil-math/src/main/java/org/meeuw/math/abstractalgebra/DivisibleGroup.java" xlink:title="DivisibleGroup">
<polygon fill="none" stroke="black" points="119,-757 119,-778 232,-778 232,-757 119,-757"/>
<text text-anchor="start" x="122" y="-763.8" font-family="Times,serif" font-size="14.00" fill="#0000a0">DivisibleGroup</text>
</a>
</g>
<polygon fill="none" stroke="black" points="119,-721 119,-757 184,-757 184,-721 119,-721"/>
<text text-anchor="start" x="137.5" y="-742.8" font-family="Times,serif" font-size="14.00"> ⋅ &#160;/ </text>
<text text-anchor="start" x="145" y="-727.8" font-family="Times,serif" font-size="14.00">⇆</text>
<polygon fill="none" stroke="black" points="184,-721 184,-757 232,-757 232,-721 184,-721"/>
<text text-anchor="start" x="203" y="-735.3" font-family="Times,serif" font-size="14.00">1</text>
</g>
<!-- Field&#45;&gt;DivisibleGroup -->
<g id="edge6" class="edge">
<title>Field&#45;&gt;DivisibleGroup</title>
<path fill="none" stroke="black" d="M196.11,-824.89C192.59,-812.57 188.97,-799.9 185.75,-788.61"/>
<polygon fill="none" stroke="black" points="189.02,-787.34 182.91,-778.68 182.29,-789.26 189.02,-787.34"/>
</g>
<!-- AbelianRing -->
<g id="node8" class="node">
<title>AbelianRing</title>
<g id="a_node8_12"><a xlink:href="https://github.com/mihxil/math/blob/main/mihxil-math/src/main/java/org/meeuw/math/abstractalgebra/AbelianRing.java" xlink:title="AbelianRing">
<polygon fill="none" stroke="black" points="376,-757 376,-778 469,-778 469,-757 376,-757"/>
<text text-anchor="start" x="379" y="-763.8" font-family="Times,serif" font-size="14.00" fill="#0000a0">AbelianRing</text>
</a>
</g>
<polygon fill="none" stroke="black" points="376,-721 376,-757 417,-757 417,-721 376,-721"/>
<text text-anchor="start" x="379" y="-742.8" font-family="Times,serif" font-size="14.00"> + &#160;&#45; </text>
<text text-anchor="start" x="390" y="-727.8" font-family="Times,serif" font-size="14.00">⇆</text>
<polygon fill="none" stroke="black" points="417,-721 417,-757 437,-757 437,-721 417,-721"/>
<text text-anchor="start" x="420" y="-742.8" font-family="Times,serif" font-size="14.00"> ⋅ </text>
<text text-anchor="start" x="420.5" y="-727.8" font-family="Times,serif" font-size="14.00">⇆</text>
<polygon fill="none" stroke="black" points="437,-721 437,-757 453,-757 453,-721 437,-721"/>
<text text-anchor="start" x="440" y="-735.3" font-family="Times,serif" font-size="14.00">0</text>
<polygon fill="none" stroke="black" points="453,-721 453,-757 469,-757 469,-721 453,-721"/>
<text text-anchor="start" x="456" y="-735.3" font-family="Times,serif" font-size="14.00">1</text>
</g>
<!-- Field&#45;&gt;AbelianRing -->
<g id="edge7" class="edge">
<title>Field&#45;&gt;AbelianRing</title>
<path fill="none" stroke="black" d="M300.64,-831.02C322.46,-817.54 345.7,-802.92 367,-789 369.21,-787.56 371.46,-786.07 373.73,-784.56"/>
<polygon fill="none" stroke="black" points="376.17,-787.13 382.51,-778.65 372.26,-781.33 376.17,-787.13"/>
</g>
<!-- MultiplicativeGroup -->
<g id="node17" class="node">
<title>MultiplicativeGroup</title>
<g id="a_node17_13"><a xlink:href="https://github.com/mihxil/math/blob/main/mihxil-math/src/main/java/org/meeuw/math/abstractalgebra/MultiplicativeGroup.java" xlink:title="MultiplicativeGroup">
<polygon fill="none" stroke="black" points="230,-511.5 230,-532.5 380,-532.5 380,-511.5 230,-511.5"/>
<text text-anchor="start" x="233" y="-518.3" font-family="Times,serif" font-size="14.00" fill="#0000a0">MultiplicativeGroup</text>
</a>
</g>
<polygon fill="none" stroke="black" points="230,-490.5 230,-511.5 314,-511.5 314,-490.5 230,-490.5"/>
<text text-anchor="start" x="258" y="-497.3" font-family="Times,serif" font-size="14.00"> ⋅ &#160;/ </text>
<polygon fill="none" stroke="black" points="314,-490.5 314,-511.5 380,-511.5 380,-490.5 314,-490.5"/>
<text text-anchor="start" x="342" y="-497.3" font-family="Times,serif" font-size="14.00">1</text>
<g id="a_node17_14"><a xlink:href="https://github.com/mihxil/math/blob/main/mihxil-algebra/src/main/java/org/meeuw/math/abstractalgebra/permutations/PermutationGroup.java" xlink:title="PermutationGroup">
<polygon fill="none" stroke="black" points="230,-469.5 230,-490.5 380,-490.5 380,-469.5 230,-469.5"/>
<text text-anchor="start" x="238.5" y="-476.3" font-family="Times,serif" font-size="14.00" fill="#0000a0">PermutationGroup</text>
</a>
</g>
<g id="a_node17_15"><a xlink:href="https://github.com/mihxil/math/blob/main/mihxil-algebra/src/main/java/org/meeuw/math/abstractalgebra/linear/GeneralLinearGroup.java" xlink:title="GeneralLinearGroup">
<polygon fill="none" stroke="black" points="230,-448.5 230,-469.5 380,-469.5 380,-448.5 230,-448.5"/>
<text text-anchor="start" x="280.5" y="-455.3" font-family="Times,serif" font-size="14.00" fill="#0000a0">GL₂(ℚ)</text>
</a>
</g>
</g>
<!-- DivisionRing&#45;&gt;MultiplicativeGroup -->
<g id="edge23" class="edge">
<title>DivisionRing&#45;&gt;MultiplicativeGroup</title>
<path fill="none" stroke="black" d="M304.15,-710.73C304.32,-666.13 304.61,-592.23 304.8,-542.72"/>
<polygon fill="none" stroke="black" points="308.3,-542.55 304.84,-532.54 301.3,-542.53 308.3,-542.55"/>
</g>
<!-- Ring -->
<g id="node18" class="node">
<title>Ring</title>
<g id="a_node18_16"><a xlink:href="https://github.com/mihxil/math/blob/main/mihxil-math/src/main/java/org/meeuw/math/abstractalgebra/Ring.java" xlink:title="Ring">
<polygon fill="none" stroke="black" points="358,-653.5 358,-674.5 487,-674.5 487,-653.5 358,-653.5"/>
<text text-anchor="start" x="405.5" y="-660.3" font-family="Times,serif" font-size="14.00" fill="#0000a0">Ring</text>
</a>
</g>
<polygon fill="none" stroke="black" points="358,-617.5 358,-653.5 417,-653.5 417,-617.5 358,-617.5"/>
<text text-anchor="start" x="370" y="-639.3" font-family="Times,serif" font-size="14.00"> + &#160;&#45; </text>
<text text-anchor="start" x="381" y="-624.3" font-family="Times,serif" font-size="14.00">⇆</text>
<polygon fill="none" stroke="black" points="417,-617.5 417,-653.5 446,-653.5 446,-617.5 417,-617.5"/>
<text text-anchor="start" x="424.5" y="-631.8" font-family="Times,serif" font-size="14.00"> ⋅ </text>
<polygon fill="none" stroke="black" points="446,-617.5 446,-653.5 466,-653.5 466,-617.5 446,-617.5"/>
<text text-anchor="start" x="451" y="-631.8" font-family="Times,serif" font-size="14.00">0</text>
<polygon fill="none" stroke="black" points="466,-617.5 466,-653.5 487,-653.5 487,-617.5 466,-617.5"/>
<text text-anchor="start" x="471.5" y="-631.8" font-family="Times,serif" font-size="14.00">1</text>
<g id="a_node18_17"><a xlink:href="https://github.com/mihxil/math/blob/main/mihxil-algebra/src/main/java/org/meeuw/math/abstractalgebra/integers/ModuloStructure.java" xlink:title="ModuloStructure">
<polygon fill="none" stroke="black" points="358,-596.5 358,-617.5 487,-617.5 487,-596.5 358,-596.5"/>
<text text-anchor="start" x="361" y="-603.3" font-family="Times,serif" font-size="14.00" fill="#0000a0">ModuloStructure</text>
</a>
</g>
<g id="a_node18_18"><a xlink:href="https://github.com/mihxil/math/blob/main/mihxil-algebra/src/main/java/org/meeuw/math/abstractalgebra/integers/Integers.java" xlink:title="Integers">
<polygon fill="none" stroke="black" points="358,-575.5 358,-596.5 487,-596.5 487,-575.5 358,-575.5"/>
<text text-anchor="start" x="417" y="-582.3" font-family="Times,serif" font-size="14.00" fill="#0000a0">ℤ</text>
</a>
</g>
</g>
<!-- DivisionRing&#45;&gt;Ring -->
<g id="edge24" class="edge">
<title>DivisionRing&#45;&gt;Ring</title>
<path fill="none" stroke="black" d="M340.69,-710.91C349.32,-701.96 358.69,-692.23 367.9,-682.66"/>
<polygon fill="none" stroke="black" points="370.48,-685.03 374.9,-675.4 365.44,-680.17 370.48,-685.03"/>
</g>
<!-- MultiplicativeAbelianGroup -->
<g id="node19" class="node">
<title>MultiplicativeAbelianGroup</title>
<g id="a_node19_19"><a xlink:href="https://github.com/mihxil/math/blob/main/mihxil-math/src/main/java/org/meeuw/math/abstractalgebra/MultiplicativeAbelianGroup.java" xlink:title="MultiplicativeAbelianGroup">
<polygon fill="none" stroke="black" points="74,-632.5 74,-653.5 277,-653.5 277,-632.5 74,-632.5"/>
<text text-anchor="start" x="77" y="-639.3" font-family="Times,serif" font-size="14.00" fill="#0000a0">MultiplicativeAbelianGroup</text>
</a>
</g>
<polygon fill="none" stroke="black" points="74,-596.5 74,-632.5 184,-632.5 184,-596.5 74,-596.5"/>
<text text-anchor="start" x="115" y="-618.3" font-family="Times,serif" font-size="14.00"> ⋅ &#160;/ </text>
<text text-anchor="start" x="122.5" y="-603.3" font-family="Times,serif" font-size="14.00">⇆</text>
<polygon fill="none" stroke="black" points="184,-596.5 184,-632.5 277,-632.5 277,-596.5 184,-596.5"/>
<text text-anchor="start" x="225.5" y="-610.8" font-family="Times,serif" font-size="14.00">1</text>
</g>
<!-- DivisibleGroup&#45;&gt;MultiplicativeAbelianGroup -->
<g id="edge26" class="edge">
<title>DivisibleGroup&#45;&gt;MultiplicativeAbelianGroup</title>
<path fill="none" stroke="black" d="M175,-721.2C175,-704.37 175,-682.66 175,-664.28"/>
<polygon fill="none" stroke="black" points="178.5,-664.19 175,-654.19 171.5,-664.19 178.5,-664.19"/>
</g>
<!-- AbelianRing&#45;&gt;Ring -->
<g id="edge25" class="edge">
<title>AbelianRing&#45;&gt;Ring</title>
<path fill="none" stroke="black" d="M422,-721.2C422,-710.61 422,-698.1 422,-685.7"/>
<polygon fill="none" stroke="black" points="425.5,-685.36 422,-675.36 418.5,-685.36 425.5,-685.36"/>
</g>
<!-- AdditiveAbelianSemiGroup -->
<g id="node9" class="node">
<title>AdditiveAbelianSemiGroup</title>
<g id="a_node9_20"><a xlink:href="https://github.com/mihxil/math/blob/main/mihxil-math/src/main/java/org/meeuw/math/abstractalgebra/AdditiveAbelianSemiGroup.java" xlink:title="AdditiveAbelianSemiGroup">
<polygon fill="none" stroke="black" points="331,-189 331,-210 530,-210 530,-189 331,-189"/>
<text text-anchor="start" x="334" y="-195.8" font-family="Times,serif" font-size="14.00" fill="#0000a0">AdditiveAbelianSemiGroup</text>
</a>
</g>
<polygon fill="none" stroke="black" points="331,-153 331,-189 530,-189 530,-153 331,-153"/>
<text text-anchor="start" x="419.5" y="-174.8" font-family="Times,serif" font-size="14.00"> + </text>
<text text-anchor="start" x="424" y="-159.8" font-family="Times,serif" font-size="14.00">⇆</text>
<g id="a_node9_21"><a xlink:href="https://github.com/mihxil/math/blob/main/mihxil-algebra/src/main/java/org/meeuw/math/abstractalgebra/integers/NegativeIntegers.java" xlink:title="NegativeIntegers">
<polygon fill="none" stroke="black" points="331,-132 331,-153 530,-153 530,-132 331,-132"/>
<text text-anchor="start" x="355.5" y="-138.8" font-family="Times,serif" font-size="14.00" fill="#0000a0">NegativeIntegers ℕ⁻</text>
</a>
</g>
</g>
<!-- AdditiveAbelianSemiGroup&#45;&gt;AdditiveSemiGroup -->
<g id="edge8" class="edge">
<title>AdditiveAbelianSemiGroup&#45;&gt;AdditiveSemiGroup</title>
<path fill="none" stroke="black" d="M430,-131.94C430,-122.4 430,-112.3 430,-103.21"/>
<polygon fill="none" stroke="black" points="433.5,-103.08 430,-93.08 426.5,-103.08 433.5,-103.08"/>
</g>
<!-- AdditiveMonoid -->
<g id="node10" class="node">
<title>AdditiveMonoid</title>
<g id="a_node10_22"><a xlink:href="https://github.com/mihxil/math/blob/main/mihxil-math/src/main/java/org/meeuw/math/abstractalgebra/AdditiveMonoid.java" xlink:title="AdditiveMonoid">
<polygon fill="none" stroke="black" points="548,-192 548,-213 693,-213 693,-192 548,-192"/>
<text text-anchor="start" x="564" y="-198.8" font-family="Times,serif" font-size="14.00" fill="#0000a0">AdditiveMonoid</text>
</a>
</g>
<polygon fill="none" stroke="black" points="548,-171 548,-192 626,-192 626,-171 548,-171"/>
<text text-anchor="start" x="576" y="-177.8" font-family="Times,serif" font-size="14.00"> + </text>
<polygon fill="none" stroke="black" points="626,-171 626,-192 693,-192 693,-171 626,-171"/>
<text text-anchor="start" x="654.5" y="-177.8" font-family="Times,serif" font-size="14.00">0</text>
<g id="a_node10_23"><a xlink:href="https://github.com/mihxil/math/blob/main/mihxil-algebra/src/main/java/org/meeuw/math/abstractalgebra/strings/StringMonoid.java" xlink:title="StringMonoid">
<polygon fill="none" stroke="black" points="548,-150 548,-171 693,-171 693,-150 548,-150"/>
<text text-anchor="start" x="571" y="-156.8" font-family="Times,serif" font-size="14.00" fill="#0000a0">StringMonoid</text>
</a>
</g>
<g id="a_node10_24"><a xlink:href="https://github.com/mihxil/math/blob/main/mihxil-algebra/src/main/java/org/meeuw/math/abstractalgebra/integers/NaturalNumbers.java" xlink:title="NaturalNumbers">
<polygon fill="none" stroke="black" points="548,-129 548,-150 693,-150 693,-129 548,-129"/>
<text text-anchor="start" x="551" y="-135.8" font-family="Times,serif" font-size="14.00" fill="#0000a0">NaturalNumbers ℕ</text>
</a>
</g>
</g>
<!-- AdditiveMonoid&#45;&gt;AdditiveSemiGroup -->
<g id="edge9" class="edge">
<title>AdditiveMonoid&#45;&gt;AdditiveSemiGroup</title>
<path fill="none" stroke="black" d="M547.36,-132.91C524.27,-121.13 499.31,-108.39 478.37,-97.7"/>
<polygon fill="none" stroke="black" points="479.86,-94.53 469.36,-93.1 476.68,-100.76 479.86,-94.53"/>
</g>
<!-- MultiplicativeMonoid -->
<g id="node11" class="node">
<title>MultiplicativeMonoid</title>
<g id="a_node11_25"><a xlink:href="https://github.com/mihxil/math/blob/main/mihxil-math/src/main/java/org/meeuw/math/abstractalgebra/MultiplicativeMonoid.java" xlink:title="MultiplicativeMonoid">
<polygon fill="none" stroke="black" points="286,-376 286,-397 445,-397 445,-376 286,-376"/>
<text text-anchor="start" x="289" y="-382.8" font-family="Times,serif" font-size="14.00" fill="#0000a0">MultiplicativeMonoid</text>
</a>
</g>
<polygon fill="none" stroke="black" points="286,-355 286,-376 367,-376 367,-355 286,-355"/>
<text text-anchor="start" x="319.5" y="-361.8" font-family="Times,serif" font-size="14.00"> ⋅ </text>
<polygon fill="none" stroke="black" points="367,-355 367,-376 445,-376 445,-355 367,-355"/>
<text text-anchor="start" x="401" y="-361.8" font-family="Times,serif" font-size="14.00">1</text>
<g id="a_node11_26"><a xlink:href="https://github.com/mihxil/math/blob/main/mihxil-algebra/src/main/java/org/meeuw/math/abstractalgebra/integers/OddIntegers.java" xlink:title="OddIntegers">
<polygon fill="none" stroke="black" points="286,-334 286,-355 445,-355 445,-334 286,-334"/>
<text text-anchor="start" x="308" y="-340.8" font-family="Times,serif" font-size="14.00" fill="#0000a0">OddIntegers ℕo</text>
</a>
</g>
</g>
<!-- MultiplicativeMonoid&#45;&gt;MultiplicativeSemiGroup -->
<g id="edge10" class="edge">
<title>MultiplicativeMonoid&#45;&gt;MultiplicativeSemiGroup</title>
<path fill="none" stroke="black" d="M360.78,-334.48C359.3,-323.79 357.64,-311.79 356.17,-301.13"/>
<polygon fill="none" stroke="black" points="359.6,-300.43 354.77,-291.01 352.67,-301.39 359.6,-300.43"/>
</g>
<!-- Rng -->
<g id="node12" class="node">
<title>Rng</title>
<g id="a_node12_27"><a xlink:href="https://github.com/mihxil/math/blob/main/mihxil-math/src/main/java/org/meeuw/math/abstractalgebra/Rng.java" xlink:title="Rng">
<polygon fill="none" stroke="black" points="409,-518.5 409,-539.5 536,-539.5 536,-518.5 409,-518.5"/>
<text text-anchor="start" x="458" y="-525.3" font-family="Times,serif" font-size="14.00" fill="#0000a0">Rng</text>
</a>
</g>
<polygon fill="none" stroke="black" points="409,-482.5 409,-518.5 475,-518.5 475,-482.5 409,-482.5"/>
<text text-anchor="start" x="424.5" y="-504.3" font-family="Times,serif" font-size="14.00"> + &#160;&#45; </text>
<text text-anchor="start" x="435.5" y="-489.3" font-family="Times,serif" font-size="14.00">⇆</text>
<polygon fill="none" stroke="black" points="475,-482.5 475,-518.5 507,-518.5 507,-482.5 475,-482.5"/>
<text text-anchor="start" x="484" y="-496.8" font-family="Times,serif" font-size="14.00"> ⋅ </text>
<polygon fill="none" stroke="black" points="507,-482.5 507,-518.5 536,-518.5 536,-482.5 507,-482.5"/>
<text text-anchor="start" x="516.5" y="-496.8" font-family="Times,serif" font-size="14.00">0</text>
<g id="a_node12_28"><a xlink:href="https://github.com/mihxil/math/blob/main/mihxil-algebra/src/main/java/org/meeuw/math/abstractalgebra/integers/EvenIntegers.java" xlink:title="EvenIntegers">
<polygon fill="none" stroke="black" points="409,-461.5 409,-482.5 536,-482.5 536,-461.5 409,-461.5"/>
<text text-anchor="start" x="412" y="-468.3" font-family="Times,serif" font-size="14.00" fill="#0000a0">EvenIntegers 2ℤ</text>
</a>
</g>
<g id="a_node12_29"><a xlink:href="https://github.com/mihxil/math/blob/main/mihxil-algebra/src/main/java/org/meeuw/math/abstractalgebra/integers/NDivisibleIntegers.java" xlink:title="NDivisibleIntegers">
<polygon fill="none" stroke="black" points="409,-440.5 409,-461.5 536,-461.5 536,-440.5 409,-440.5"/>
<text text-anchor="start" x="462.5" y="-447.3" font-family="Times,serif" font-size="14.00" fill="#0000a0">3ℤ</text>
</a>
</g>
</g>
<!-- Rng&#45;&gt;MultiplicativeSemiGroup -->
<g id="edge11" class="edge">
<title>Rng&#45;&gt;MultiplicativeSemiGroup</title>
<path fill="none" stroke="black" d="M477.84,-440.72C479.45,-406.18 476.25,-360.27 454,-327 445.39,-314.12 432.78,-303.93 419.34,-295.98"/>
<polygon fill="none" stroke="black" points="420.87,-292.83 410.43,-291.07 417.5,-298.96 420.87,-292.83"/>
</g>
<!-- AdditiveAbelianGroup -->
<g id="node13" class="node">
<title>AdditiveAbelianGroup</title>
<g id="a_node13_30"><a xlink:href="https://github.com/mihxil/math/blob/main/mihxil-math/src/main/java/org/meeuw/math/abstractalgebra/AdditiveAbelianGroup.java" xlink:title="AdditiveAbelianGroup">
<polygon fill="none" stroke="black" points="501,-373 501,-394 664,-394 664,-373 501,-373"/>
<text text-anchor="start" x="504" y="-379.8" font-family="Times,serif" font-size="14.00" fill="#0000a0">AdditiveAbelianGroup</text>
</a>
</g>
<polygon fill="none" stroke="black" points="501,-337 501,-373 595,-373 595,-337 501,-337"/>
<text text-anchor="start" x="530.5" y="-358.8" font-family="Times,serif" font-size="14.00"> + &#160;&#45; </text>
<text text-anchor="start" x="541.5" y="-343.8" font-family="Times,serif" font-size="14.00">⇆</text>
<polygon fill="none" stroke="black" points="595,-337 595,-373 664,-373 664,-337 595,-337"/>
<text text-anchor="start" x="624.5" y="-351.3" font-family="Times,serif" font-size="14.00">0</text>
</g>
<!-- Rng&#45;&gt;AdditiveAbelianGroup -->
<g id="edge12" class="edge">
<title>Rng&#45;&gt;AdditiveAbelianGroup</title>
<path fill="none" stroke="black" d="M515.79,-440.73C527.29,-427.93 539.47,-414.36 550.21,-402.4"/>
<polygon fill="none" stroke="black" points="552.96,-404.58 557.04,-394.8 547.75,-399.9 552.96,-404.58"/>
</g>
<!-- AdditiveAbelianGroup&#45;&gt;AdditiveAbelianSemiGroup -->
<g id="edge15" class="edge">
<title>AdditiveAbelianGroup&#45;&gt;AdditiveAbelianSemiGroup</title>
<path fill="none" stroke="black" d="M560.22,-337.35C535.8,-306.34 495.79,-255.54 466.56,-218.42"/>
<polygon fill="none" stroke="black" points="469.06,-215.94 460.12,-210.25 463.56,-220.27 469.06,-215.94"/>
</g>
<!-- AdditiveGroup -->
<g id="node16" class="node">
<title>AdditiveGroup</title>
<g id="a_node16_31"><a xlink:href="https://github.com/mihxil/math/blob/main/mihxil-math/src/main/java/org/meeuw/math/abstractalgebra/AdditiveGroup.java" xlink:title="AdditiveGroup">
<polygon fill="none" stroke="black" points="540,-270 540,-291 650,-291 650,-270 540,-270"/>
<text text-anchor="start" x="543" y="-276.8" font-family="Times,serif" font-size="14.00" fill="#0000a0">AdditiveGroup</text>
</a>
</g>
<polygon fill="none" stroke="black" points="540,-249 540,-270 607,-270 607,-249 540,-249"/>
<text text-anchor="start" x="556" y="-255.8" font-family="Times,serif" font-size="14.00"> + &#160;&#45; </text>
<polygon fill="none" stroke="black" points="607,-249 607,-270 650,-270 650,-249 607,-249"/>
<text text-anchor="start" x="623.5" y="-255.8" font-family="Times,serif" font-size="14.00">0</text>
</g>
<!-- AdditiveAbelianGroup&#45;&gt;AdditiveGroup -->
<g id="edge16" class="edge">
<title>AdditiveAbelianGroup&#45;&gt;AdditiveGroup</title>
<path fill="none" stroke="black" d="M585.83,-337.31C587.4,-325.94 589.22,-312.76 590.83,-301.16"/>
<polygon fill="none" stroke="black" points="594.33,-301.43 592.23,-291.04 587.39,-300.47 594.33,-301.43"/>
</g>
<!-- MultiplicativeAbelianSemiGroup -->
<g id="node14" class="node">
<title>MultiplicativeAbelianSemiGroup</title>
<g id="a_node14_32"><a xlink:href="https://github.com/mihxil/math/blob/main/mihxil-math/src/main/java/org/meeuw/math/abstractalgebra/MultiplicativeAbelianSemiGroup.java" xlink:title="MultiplicativeAbelianSemiGroup">
<polygon fill="none" stroke="black" points="29,-384 29,-405 268,-405 268,-384 29,-384"/>
<text text-anchor="start" x="32" y="-390.8" font-family="Times,serif" font-size="14.00" fill="#0000a0">MultiplicativeAbelianSemiGroup</text>
</a>
</g>
<polygon fill="none" stroke="black" points="29,-348 29,-384 268,-384 268,-348 29,-348"/>
<text text-anchor="start" x="141.5" y="-369.8" font-family="Times,serif" font-size="14.00"> ⋅ </text>
<text text-anchor="start" x="142" y="-354.8" font-family="Times,serif" font-size="14.00">⇆</text>
<g id="a_node14_33"><a xlink:href="https://github.com/mihxil/math/blob/main/mihxil-algebra/src/main/java/org/meeuw/math/abstractalgebra/integers/OddIntegers.java" xlink:title="OddIntegers">
<polygon fill="none" stroke="black" points="29,-327 29,-348 268,-348 268,-327 29,-327"/>
<text text-anchor="start" x="91" y="-333.8" font-family="Times,serif" font-size="14.00" fill="#0000a0">OddIntegers ℕo</text>
</a>
</g>
</g>
<!-- MultiplicativeAbelianSemiGroup&#45;&gt;MultiplicativeSemiGroup -->
<g id="edge13" class="edge">
<title>MultiplicativeAbelianSemiGroup&#45;&gt;MultiplicativeSemiGroup</title>
<path fill="none" stroke="black" d="M230.68,-326.9C253.76,-316.27 278.22,-305 299.07,-295.39"/>
<polygon fill="none" stroke="black" points="300.77,-298.46 308.39,-291.1 297.84,-292.1 300.77,-298.46"/>
</g>
<!-- ScalarField -->
<g id="node15" class="node">
<title>ScalarField</title>
<g id="a_node15_34"><a xlink:href="https://github.com/mihxil/math/blob/main/mihxil-math/src/main/java/org/meeuw/math/abstractalgebra/ScalarField.java" xlink:title="ScalarField">
<polygon fill="none" stroke="black" points="139,-1038 139,-1059 287,-1059 287,-1038 139,-1038"/>
<text text-anchor="start" x="172" y="-1044.8" font-family="Times,serif" font-size="14.00" fill="#0000a0">ScalarField</text>
</a>
</g>
<polygon fill="none" stroke="black" points="139,-1002 139,-1038 183,-1038 183,-1002 139,-1002"/>
<text text-anchor="start" x="143.5" y="-1023.8" font-family="Times,serif" font-size="14.00"> + &#160;&#45; </text>
<text text-anchor="start" x="154.5" y="-1008.8" font-family="Times,serif" font-size="14.00">⇆</text>
<polygon fill="none" stroke="black" points="183,-1002 183,-1038 219,-1038 219,-1002 183,-1002"/>
<text text-anchor="start" x="187" y="-1023.8" font-family="Times,serif" font-size="14.00"> ⋅ &#160;/ </text>
<text text-anchor="start" x="194.5" y="-1008.8" font-family="Times,serif" font-size="14.00">⇆</text>
<polygon fill="none" stroke="black" points="219,-1002 219,-1038 238,-1038 238,-1002 219,-1002"/>
<text text-anchor="start" x="222.5" y="-1016.3" font-family="Times,serif" font-size="14.00"> *</text>
<polygon fill="none" stroke="black" points="238,-1002 238,-1038 254,-1038 254,-1002 238,-1002"/>
<text text-anchor="start" x="241" y="-1016.3" font-family="Times,serif" font-size="14.00">0</text>
<polygon fill="none" stroke="black" points="254,-1002 254,-1038 270,-1038 270,-1002 254,-1002"/>
<text text-anchor="start" x="257" y="-1016.3" font-family="Times,serif" font-size="14.00">1</text>
<polygon fill="none" stroke="black" points="270,-1002 270,-1038 287,-1038 287,-1002 270,-1002"/>
<text text-anchor="start" x="273.5" y="-1016.3" font-family="Times,serif" font-size="14.00">u</text>
<g id="a_node15_35"><a xlink:href="https://github.com/mihxil/math/blob/main/mihxil-algebra/src/main/java/org/meeuw/math/abstractalgebra/rationalnumbers/RationalNumbers.java" xlink:title="RationalNumbers">
<polygon fill="none" stroke="black" points="139,-981 139,-1002 287,-1002 287,-981 139,-981"/>
<text text-anchor="start" x="142" y="-987.8" font-family="Times,serif" font-size="14.00" fill="#0000a0">RationalNumbers ℚ</text>
</a>
</g>
</g>
<!-- ScalarField&#45;&gt;Field -->
<g id="edge14" class="edge">
<title>ScalarField&#45;&gt;Field</title>
<path fill="none" stroke="black" d="M213,-980.89C213,-972.89 213,-964.21 213,-955.47"/>
<polygon fill="none" stroke="black" points="216.5,-955.21 213,-945.21 209.5,-955.21 216.5,-955.21"/>
</g>
<!-- AdditiveGroup&#45;&gt;AdditiveMonoid -->
<g id="edge17" class="edge">
<title>AdditiveGroup&#45;&gt;AdditiveMonoid</title>
<path fill="none" stroke="black" d="M600.18,-248.9C602.13,-241.32 604.46,-232.31 606.81,-223.18"/>
<polygon fill="none" stroke="black" points="610.26,-223.83 609.36,-213.28 603.48,-222.09 610.26,-223.83"/>
</g>
<!-- MultiplicativeGroup&#45;&gt;MultiplicativeMonoid -->
<g id="edge18" class="edge">
<title>MultiplicativeGroup&#45;&gt;MultiplicativeMonoid</title>
<path fill="none" stroke="black" d="M325.15,-448.37C331.67,-435.06 338.88,-420.32 345.37,-407.08"/>
<polygon fill="none" stroke="black" points="348.68,-408.28 349.94,-397.76 342.39,-405.2 348.68,-408.28"/>
</g>
<!-- Ring&#45;&gt;Rng -->
<g id="edge19" class="edge">
<title>Ring&#45;&gt;Rng</title>
<path fill="none" stroke="black" d="M440.33,-575.73C443.49,-567.33 446.81,-558.52 450.05,-549.89"/>
<polygon fill="none" stroke="black" points="453.43,-550.86 453.67,-540.26 446.87,-548.39 453.43,-550.86"/>
</g>
<!-- MultiplicativeAbelianGroup&#45;&gt;MultiplicativeAbelianSemiGroup -->
<g id="edge20" class="edge">
<title>MultiplicativeAbelianGroup&#45;&gt;MultiplicativeAbelianSemiGroup</title>
<path fill="none" stroke="black" d="M172.11,-596.94C167.56,-553.55 158.67,-468.73 153.05,-415.13"/>
<polygon fill="none" stroke="black" points="156.53,-414.75 152,-405.17 149.56,-415.48 156.53,-414.75"/>
</g>
<!-- MultiplicativeAbelianGroup&#45;&gt;MultiplicativeGroup -->
<g id="edge21" class="edge">
<title>MultiplicativeAbelianGroup&#45;&gt;MultiplicativeGroup</title>
<path fill="none" stroke="black" d="M201.94,-596.94C218.03,-580.48 238.92,-559.1 257.69,-539.9"/>
<polygon fill="none" stroke="black" points="260.28,-542.26 264.76,-532.67 255.27,-537.37 260.28,-542.26"/>
</g>
<!-- CompleteField -->
<g id="node20" class="node">
<title>CompleteField</title>
<g id="a_node20_36"><a xlink:href="https://github.com/mihxil/math/blob/main/mihxil-math/src/main/java/org/meeuw/math/abstractalgebra/CompleteField.java" xlink:title="CompleteField">
<polygon fill="none" stroke="black" points="143,-1172.5 143,-1193.5 284,-1193.5 284,-1172.5 143,-1172.5"/>
<text text-anchor="start" x="161" y="-1179.3" font-family="Times,serif" font-size="14.00" fill="#0000a0">CompleteField</text>
</a>
</g>
<polygon fill="none" stroke="black" points="143,-1136.5 143,-1172.5 193,-1172.5 193,-1136.5 143,-1136.5"/>
<text text-anchor="start" x="150.5" y="-1158.3" font-family="Times,serif" font-size="14.00"> + &#160;&#45; </text>
<text text-anchor="start" x="161.5" y="-1143.3" font-family="Times,serif" font-size="14.00">⇆</text>
<polygon fill="none" stroke="black" points="193,-1136.5 193,-1172.5 231,-1172.5 231,-1136.5 193,-1136.5"/>
<text text-anchor="start" x="198" y="-1158.3" font-family="Times,serif" font-size="14.00"> ⋅ &#160;/ </text>
<text text-anchor="start" x="205.5" y="-1143.3" font-family="Times,serif" font-size="14.00">⇆</text>
<polygon fill="none" stroke="black" points="231,-1136.5 231,-1172.5 249,-1172.5 249,-1136.5 231,-1136.5"/>
<text text-anchor="start" x="235" y="-1150.8" font-family="Times,serif" font-size="14.00">0</text>
<polygon fill="none" stroke="black" points="249,-1136.5 249,-1172.5 266,-1172.5 266,-1136.5 249,-1136.5"/>
<text text-anchor="start" x="252.5" y="-1150.8" font-family="Times,serif" font-size="14.00">1</text>
<polygon fill="none" stroke="black" points="266,-1136.5 266,-1172.5 284,-1172.5 284,-1136.5 266,-1136.5"/>
<text text-anchor="start" x="270" y="-1150.8" font-family="Times,serif" font-size="14.00">u</text>
<g id="a_node20_37"><a xlink:href="https://github.com/mihxil/math/blob/main/mihxil-algebra/src/main/java/org/meeuw/math/abstractalgebra/reals/BigDecimalField.java" xlink:title="BigDecimalField">
<polygon fill="none" stroke="black" points="143,-1115.5 143,-1136.5 284,-1136.5 284,-1115.5 143,-1115.5"/>
<text text-anchor="start" x="146" y="-1122.3" font-family="Times,serif" font-size="14.00" fill="#0000a0">BigDecimalField ℝ</text>
</a>
</g>
<g id="a_node20_38"><a xlink:href="https://github.com/mihxil/math/blob/main/mihxil-algebra/src/main/java/org/meeuw/math/abstractalgebra/reals/RealField.java" xlink:title="RealField">
<polygon fill="none" stroke="black" points="143,-1094.5 143,-1115.5 284,-1115.5 284,-1094.5 143,-1094.5"/>
<text text-anchor="start" x="168.5" y="-1101.3" font-family="Times,serif" font-size="14.00" fill="#0000a0">RealField ℝₚ</text>
</a>
</g>
</g>
<!-- CompleteField&#45;&gt;ScalarField -->
<g id="edge22" class="edge">
<title>CompleteField&#45;&gt;ScalarField</title>
<path fill="none" stroke="black" d="M213,-1094.73C213,-1086.29 213,-1077.52 213,-1069.09"/>
<polygon fill="none" stroke="black" points="216.5,-1069.03 213,-1059.03 209.5,-1069.03 216.5,-1069.03"/>
</g>
<!-- VectorSpace -->
<g id="node21" class="node">
<title>VectorSpace</title>
<g id="a_node21_39"><a xlink:href="https://github.com/mihxil/math/blob/main/mihxil-math/src/main/java/org/meeuw/math/abstractalgebra/VectorSpace.java" xlink:title="VectorSpace">
<polygon fill="none" stroke="black" points="357,-913 357,-934 488,-934 488,-913 357,-913"/>
<text text-anchor="start" x="378" y="-919.8" font-family="Times,serif" font-size="14.00" fill="#0000a0">VectorSpace</text>
</a>
</g>
<polygon fill="none" stroke="black" points="357,-877 357,-913 417,-913 417,-877 357,-877"/>
<text text-anchor="start" x="369.5" y="-898.8" font-family="Times,serif" font-size="14.00"> + &#160;&#45; </text>
<text text-anchor="start" x="380.5" y="-883.8" font-family="Times,serif" font-size="14.00">⇆</text>
<polygon fill="none" stroke="black" points="417,-877 417,-913 446,-913 446,-877 417,-877"/>
<text text-anchor="start" x="424.5" y="-898.8" font-family="Times,serif" font-size="14.00"> ⋅ </text>
<text text-anchor="start" x="425" y="-883.8" font-family="Times,serif" font-size="14.00">⇆</text>
<polygon fill="none" stroke="black" points="446,-877 446,-913 467,-913 467,-877 446,-877"/>
<text text-anchor="start" x="451.5" y="-891.3" font-family="Times,serif" font-size="14.00">0</text>
<polygon fill="none" stroke="black" points="467,-877 467,-913 488,-913 488,-877 467,-877"/>
<text text-anchor="start" x="472.5" y="-891.3" font-family="Times,serif" font-size="14.00">1</text>
<g id="a_node21_40"><a xlink:href="https://github.com/mihxil/math/blob/main/mihxil-algebra/src/main/java/org/meeuw/math/abstractalgebra/dim3/Vector3Space.java" xlink:title="Vector3Space">
<polygon fill="none" stroke="black" points="357,-856 357,-877 488,-877 488,-856 357,-856"/>
<text text-anchor="start" x="360" y="-862.8" font-family="Times,serif" font-size="14.00" fill="#0000a0">Vector3Space ℝₚ³</text>
</a>
</g>
<g id="a_node21_41"><a xlink:href="https://github.com/mihxil/math/blob/main/mihxil-algebra/src/main/java/org/meeuw/math/abstractalgebra/vectorspace/NVectorSpace.java" xlink:title="NVectorSpace">
<polygon fill="none" stroke="black" points="357,-835 357,-856 488,-856 488,-835 357,-835"/>
<text text-anchor="start" x="413.5" y="-841.8" font-family="Times,serif" font-size="14.00" fill="#0000a0">ℚ³</text>
</a>
</g>
</g>
<!-- VectorSpace&#45;&gt;AbelianRing -->
<g id="edge27" class="edge">
<title>VectorSpace&#45;&gt;AbelianRing</title>
<path fill="none" stroke="black" d="M422,-835.23C422,-819.96 422,-803.34 422,-788.93"/>
<polygon fill="none" stroke="black" points="425.5,-788.88 422,-778.88 418.5,-788.88 425.5,-788.88"/>
</g>
</g>
</svg>
