<?xml version="1.0" encoding="UTF-8" standalone="no"?>
<!DOCTYPE svg PUBLIC "-//W3C//DTD SVG 1.1//EN"
 "http://www.w3.org/Graphics/SVG/1.1/DTD/svg11.dtd">
<!-- Generated by graphviz version 2.49.3 (20211027.1534)
 -->
<!-- Pages: 1 -->
<svg width="968pt" height="1224pt"
 viewBox="0.00 0.00 968.00 1224.00" xmlns="http://www.w3.org/2000/svg" xmlns:xlink="http://www.w3.org/1999/xlink">
<g id="graph0" class="graph" transform="scale(1 1) rotate(0) translate(4 1220)">
<polygon fill="white" stroke="transparent" points="-4,4 -4,-1220 964,-1220 964,4 -4,4"/>
<!-- AdditiveSemiGroup -->
<g id="node1" class="node">
<title>AdditiveSemiGroup</title>
<g id="a_node1"><a xlink:href="https://github.com/mihxil/math/blob/main/mihxil-math/src/main/java/org/meeuw/math/abstractalgebra/AdditiveSemiGroup.java" xlink:title="{\N|{ + }}">
<polygon fill="none" stroke="black" points="397.5,-73.5 397.5,-119.5 553.5,-119.5 553.5,-73.5 397.5,-73.5"/>
<text text-anchor="middle" x="475.5" y="-104.3" font-family="Times,serif" font-size="14.00">AdditiveSemiGroup</text>
<polyline fill="none" stroke="black" points="397.5,-96.5 553.5,-96.5 "/>
<text text-anchor="middle" x="475.5" y="-81.3" font-family="Times,serif" font-size="14.00">+</text>
</a>
</g>
</g>
<!-- AlgebraicStructure -->
<g id="node2" class="node">
<title>AlgebraicStructure</title>
<polygon fill="none" stroke="black" points="465,-0.5 465,-36.5 618,-36.5 618,-0.5 465,-0.5"/>
<text text-anchor="middle" x="541.5" y="-14.8" font-family="Times,serif" font-size="14.00">AlgebraicStructure</text>
</g>
<!-- AdditiveSemiGroup&#45;&gt;AlgebraicStructure -->
<g id="edge1" class="edge">
<title>AdditiveSemiGroup&#45;&gt;AlgebraicStructure</title>
<path fill="none" stroke="black" d="M494.95,-73.11C502.71,-64.17 511.68,-53.83 519.67,-44.64"/>
<polygon fill="none" stroke="black" points="522.46,-46.76 526.38,-36.91 517.18,-42.17 522.46,-46.76"/>
</g>
<!-- MultiplicativeSemiGroup -->
<g id="node3" class="node">
<title>MultiplicativeSemiGroup</title>
<g id="a_node3"><a xlink:href="https://github.com/mihxil/math/blob/main/mihxil-math/src/main/java/org/meeuw/math/abstractalgebra/MultiplicativeSemiGroup.java" xlink:title="{\N|{ * }}">
<polygon fill="none" stroke="black" points="510.5,-277.5 510.5,-323.5 706.5,-323.5 706.5,-277.5 510.5,-277.5"/>
<text text-anchor="middle" x="608.5" y="-308.3" font-family="Times,serif" font-size="14.00">MultiplicativeSemiGroup</text>
<polyline fill="none" stroke="black" points="510.5,-300.5 706.5,-300.5 "/>
<text text-anchor="middle" x="608.5" y="-285.3" font-family="Times,serif" font-size="14.00">*</text>
</a>
</g>
</g>
<!-- MultiplicativeSemiGroup&#45;&gt;AlgebraicStructure -->
<g id="edge2" class="edge">
<title>MultiplicativeSemiGroup&#45;&gt;AlgebraicStructure</title>
<path fill="none" stroke="black" d="M606.84,-277.4C604.41,-249.03 599.12,-198.4 589.5,-156 580.92,-118.17 575.59,-109.52 562.5,-73 559.35,-64.22 555.71,-54.73 552.34,-46.2"/>
<polygon fill="none" stroke="black" points="555.53,-44.74 548.57,-36.75 549.03,-47.33 555.53,-44.74"/>
</g>
<!-- AdditiveAbelianSemiGroup -->
<g id="node4" class="node">
<title>AdditiveAbelianSemiGroup</title>
<g id="a_node4"><a xlink:href="https://github.com/mihxil/math/blob/main/mihxil-math/src/main/java/org/meeuw/math/abstractalgebra/AdditiveAbelianSemiGroup.java" xlink:title="{\N|{ + \n⇆}|NegativeIntegers ℕ⁻}">
<polygon fill="none" stroke="black" points="371,-156.5 371,-240.5 580,-240.5 580,-156.5 371,-156.5"/>
<text text-anchor="middle" x="475.5" y="-225.3" font-family="Times,serif" font-size="14.00">AdditiveAbelianSemiGroup</text>
<polyline fill="none" stroke="black" points="371,-217.5 580,-217.5 "/>
<text text-anchor="middle" x="475.5" y="-202.3" font-family="Times,serif" font-size="14.00">+ </text>
<text text-anchor="middle" x="475.5" y="-187.3" font-family="Times,serif" font-size="14.00">⇆</text>
<polyline fill="none" stroke="black" points="371,-179.5 580,-179.5 "/>
<text text-anchor="middle" x="475.5" y="-164.3" font-family="Times,serif" font-size="14.00">NegativeIntegers ℕ⁻</text>
</a>
</g>
</g>
<!-- AdditiveAbelianSemiGroup&#45;&gt;AdditiveSemiGroup -->
<g id="edge3" class="edge">
<title>AdditiveAbelianSemiGroup&#45;&gt;AdditiveSemiGroup</title>
<path fill="none" stroke="black" d="M475.5,-156.25C475.5,-147.4 475.5,-138.17 475.5,-129.72"/>
<polygon fill="none" stroke="black" points="479,-129.52 475.5,-119.52 472,-129.52 479,-129.52"/>
</g>
<!-- AdditiveMonoid -->
<g id="node5" class="node">
<title>AdditiveMonoid</title>
<g id="a_node5"><a xlink:href="https://github.com/mihxil/math/blob/main/mihxil-math/src/main/java/org/meeuw/math/abstractalgebra/AdditiveMonoid.java" xlink:title="{\N|{ + &#160;| 0}|StringMonoid StringMonoid\nNaturalNumbers ℕ}">
<polygon fill="none" stroke="black" points="134.5,-156.5 134.5,-240.5 352.5,-240.5 352.5,-156.5 134.5,-156.5"/>
<text text-anchor="middle" x="243.5" y="-225.3" font-family="Times,serif" font-size="14.00">AdditiveMonoid</text>
<polyline fill="none" stroke="black" points="134.5,-217.5 352.5,-217.5 "/>
<text text-anchor="middle" x="189.5" y="-202.3" font-family="Times,serif" font-size="14.00">+</text>
<polyline fill="none" stroke="black" points="244.5,-194.5 244.5,-217.5 "/>
<text text-anchor="middle" x="298.5" y="-202.3" font-family="Times,serif" font-size="14.00">0</text>
<polyline fill="none" stroke="black" points="134.5,-194.5 352.5,-194.5 "/>
<text text-anchor="middle" x="243.5" y="-179.3" font-family="Times,serif" font-size="14.00">StringMonoid StringMonoid</text>
<text text-anchor="middle" x="243.5" y="-164.3" font-family="Times,serif" font-size="14.00">NaturalNumbers ℕ</text>
</a>
</g>
</g>
<!-- AdditiveMonoid&#45;&gt;AdditiveSemiGroup -->
<g id="edge4" class="edge">
<title>AdditiveMonoid&#45;&gt;AdditiveSemiGroup</title>
<path fill="none" stroke="black" d="M338.87,-156.39C364.57,-145.31 391.67,-133.63 414.9,-123.62"/>
<polygon fill="none" stroke="black" points="416.47,-126.76 424.26,-119.58 413.7,-120.33 416.47,-126.76"/>
</g>
<!-- MultiplicativeMonoid -->
<g id="node6" class="node">
<title>MultiplicativeMonoid</title>
<g id="a_node6"><a xlink:href="https://github.com/mihxil/math/blob/main/mihxil-math/src/main/java/org/meeuw/math/abstractalgebra/MultiplicativeMonoid.java" xlink:title="{\N|{ * &#160;| 1}|OddIntegers ℕo}">
<polygon fill="none" stroke="black" points="524,-368 524,-437 693,-437 693,-368 524,-368"/>
<text text-anchor="middle" x="608.5" y="-421.8" font-family="Times,serif" font-size="14.00">MultiplicativeMonoid</text>
<polyline fill="none" stroke="black" points="524,-414 693,-414 "/>
<text text-anchor="middle" x="565.5" y="-398.8" font-family="Times,serif" font-size="14.00">*</text>
<polyline fill="none" stroke="black" points="607,-391 607,-414 "/>
<text text-anchor="middle" x="650" y="-398.8" font-family="Times,serif" font-size="14.00">1</text>
<polyline fill="none" stroke="black" points="524,-391 693,-391 "/>
<text text-anchor="middle" x="608.5" y="-375.8" font-family="Times,serif" font-size="14.00">OddIntegers ℕo</text>
</a>
</g>
</g>
<!-- MultiplicativeMonoid&#45;&gt;MultiplicativeSemiGroup -->
<g id="edge5" class="edge">
<title>MultiplicativeMonoid&#45;&gt;MultiplicativeSemiGroup</title>
<path fill="none" stroke="black" d="M608.5,-367.92C608.5,-356.83 608.5,-344.52 608.5,-333.55"/>
<polygon fill="none" stroke="black" points="612,-333.51 608.5,-323.51 605,-333.51 612,-333.51"/>
</g>
<!-- Rng -->
<g id="node7" class="node">
<title>Rng</title>
<g id="a_node7"><a xlink:href="https://github.com/mihxil/math/blob/main/mihxil-math/src/main/java/org/meeuw/math/abstractalgebra/Rng.java" xlink:title="{\N|{ + &#160;&#45; \n⇆ | &#160;* &#160;| 0}|EvenIntegers 2ℤ\nNDivisibleIntegers}">
<polygon fill="none" stroke="black" points="380,-481.5 380,-580.5 531,-580.5 531,-481.5 380,-481.5"/>
<text text-anchor="middle" x="455.5" y="-565.3" font-family="Times,serif" font-size="14.00">Rng</text>
<polyline fill="none" stroke="black" points="380,-557.5 531,-557.5 "/>
<text text-anchor="middle" x="411" y="-542.3" font-family="Times,serif" font-size="14.00">+ &#45; </text>
<text text-anchor="middle" x="411" y="-527.3" font-family="Times,serif" font-size="14.00">⇆</text>
<polyline fill="none" stroke="black" points="442,-519.5 442,-557.5 "/>
<text text-anchor="middle" x="463.5" y="-534.8" font-family="Times,serif" font-size="14.00">*</text>
<polyline fill="none" stroke="black" points="485,-519.5 485,-557.5 "/>
<text text-anchor="middle" x="508" y="-534.8" font-family="Times,serif" font-size="14.00">0</text>
<polyline fill="none" stroke="black" points="380,-519.5 531,-519.5 "/>
<text text-anchor="middle" x="455.5" y="-504.3" font-family="Times,serif" font-size="14.00">EvenIntegers 2ℤ</text>
<text text-anchor="middle" x="455.5" y="-489.3" font-family="Times,serif" font-size="14.00">NDivisibleIntegers</text>
</a>
</g>
</g>
<!-- Rng&#45;&gt;MultiplicativeSemiGroup -->
<g id="edge6" class="edge">
<title>Rng&#45;&gt;MultiplicativeSemiGroup</title>
<path fill="none" stroke="black" d="M468.84,-481.18C481.31,-438.03 500.26,-379.07 515.5,-360 525.27,-347.78 538.33,-337.38 551.56,-328.9"/>
<polygon fill="none" stroke="black" points="553.54,-331.79 560.25,-323.6 549.89,-325.81 553.54,-331.79"/>
</g>
<!-- AdditiveAbelianGroup -->
<g id="node8" class="node">
<title>AdditiveAbelianGroup</title>
<g id="a_node8"><a xlink:href="https://github.com/mihxil/math/blob/main/mihxil-math/src/main/java/org/meeuw/math/abstractalgebra/AdditiveAbelianGroup.java" xlink:title="{\N|{ + &#160;&#45; \n⇆ | 0}}">
<polygon fill="none" stroke="black" points="295,-372 295,-433 468,-433 468,-372 295,-372"/>
<text text-anchor="middle" x="381.5" y="-417.8" font-family="Times,serif" font-size="14.00">AdditiveAbelianGroup</text>
<polyline fill="none" stroke="black" points="295,-410 468,-410 "/>
<text text-anchor="middle" x="342" y="-394.8" font-family="Times,serif" font-size="14.00">+ &#45; </text>
<text text-anchor="middle" x="342" y="-379.8" font-family="Times,serif" font-size="14.00">⇆</text>
<polyline fill="none" stroke="black" points="389,-372 389,-410 "/>
<text text-anchor="middle" x="428.5" y="-387.3" font-family="Times,serif" font-size="14.00">0</text>
</a>
</g>
</g>
<!-- Rng&#45;&gt;AdditiveAbelianGroup -->
<g id="edge7" class="edge">
<title>Rng&#45;&gt;AdditiveAbelianGroup</title>
<path fill="none" stroke="black" d="M427.1,-481.45C419.43,-468.33 411.23,-454.32 403.93,-441.85"/>
<polygon fill="none" stroke="black" points="406.87,-439.93 398.8,-433.07 400.83,-443.47 406.87,-439.93"/>
</g>
<!-- AdditiveAbelianGroup&#45;&gt;AdditiveAbelianSemiGroup -->
<g id="edge9" class="edge">
<title>AdditiveAbelianGroup&#45;&gt;AdditiveAbelianSemiGroup</title>
<path fill="none" stroke="black" d="M395.37,-371.69C410.25,-339.72 434.14,-288.39 451.96,-250.08"/>
<polygon fill="none" stroke="black" points="455.31,-251.18 456.36,-240.64 448.96,-248.23 455.31,-251.18"/>
</g>
<!-- AdditiveGroup -->
<g id="node10" class="node">
<title>AdditiveGroup</title>
<g id="a_node10"><a xlink:href="https://github.com/mihxil/math/blob/main/mihxil-math/src/main/java/org/meeuw/math/abstractalgebra/AdditiveGroup.java" xlink:title="{\N|{ + &#160;&#45; &#160;| 0}}">
<polygon fill="none" stroke="black" points="231.5,-277.5 231.5,-323.5 351.5,-323.5 351.5,-277.5 231.5,-277.5"/>
<text text-anchor="middle" x="291.5" y="-308.3" font-family="Times,serif" font-size="14.00">AdditiveGroup</text>
<polyline fill="none" stroke="black" points="231.5,-300.5 351.5,-300.5 "/>
<text text-anchor="middle" x="264.5" y="-285.3" font-family="Times,serif" font-size="14.00">+ &#45;</text>
<polyline fill="none" stroke="black" points="297.5,-277.5 297.5,-300.5 "/>
<text text-anchor="middle" x="324.5" y="-285.3" font-family="Times,serif" font-size="14.00">0</text>
</a>
</g>
</g>
<!-- AdditiveAbelianGroup&#45;&gt;AdditiveGroup -->
<g id="edge10" class="edge">
<title>AdditiveAbelianGroup&#45;&gt;AdditiveGroup</title>
<path fill="none" stroke="black" d="M354.74,-371.77C343.24,-358.99 329.83,-344.09 318.32,-331.3"/>
<polygon fill="none" stroke="black" points="320.73,-328.74 311.44,-323.65 315.53,-333.43 320.73,-328.74"/>
</g>
<!-- MultiplicativeAbelianSemiGroup -->
<g id="node9" class="node">
<title>MultiplicativeAbelianSemiGroup</title>
<g id="a_node9"><a xlink:href="https://github.com/mihxil/math/blob/main/mihxil-math/src/main/java/org/meeuw/math/abstractalgebra/MultiplicativeAbelianSemiGroup.java" xlink:title="{\N|{ * \n⇆}|OddIntegers ℕo}">
<polygon fill="none" stroke="black" points="711,-360.5 711,-444.5 960,-444.5 960,-360.5 711,-360.5"/>
<text text-anchor="middle" x="835.5" y="-429.3" font-family="Times,serif" font-size="14.00">MultiplicativeAbelianSemiGroup</text>
<polyline fill="none" stroke="black" points="711,-421.5 960,-421.5 "/>
<text text-anchor="middle" x="835.5" y="-406.3" font-family="Times,serif" font-size="14.00">* </text>
<text text-anchor="middle" x="835.5" y="-391.3" font-family="Times,serif" font-size="14.00">⇆</text>
<polyline fill="none" stroke="black" points="711,-383.5 960,-383.5 "/>
<text text-anchor="middle" x="835.5" y="-368.3" font-family="Times,serif" font-size="14.00">OddIntegers ℕo</text>
</a>
</g>
</g>
<!-- MultiplicativeAbelianSemiGroup&#45;&gt;MultiplicativeSemiGroup -->
<g id="edge8" class="edge">
<title>MultiplicativeAbelianSemiGroup&#45;&gt;MultiplicativeSemiGroup</title>
<path fill="none" stroke="black" d="M742.19,-360.39C717.04,-349.31 690.52,-337.63 667.8,-327.62"/>
<polygon fill="none" stroke="black" points="669.19,-324.41 658.63,-323.58 666.37,-330.82 669.19,-324.41"/>
</g>
<!-- AdditiveGroup&#45;&gt;AdditiveMonoid -->
<g id="edge11" class="edge">
<title>AdditiveGroup&#45;&gt;AdditiveMonoid</title>
<path fill="none" stroke="black" d="M280.85,-277.31C276.91,-269.11 272.28,-259.45 267.63,-249.78"/>
<polygon fill="none" stroke="black" points="270.68,-248.04 263.2,-240.54 264.37,-251.07 270.68,-248.04"/>
</g>
<!-- MultiplicativeGroup -->
<g id="node11" class="node">
<title>MultiplicativeGroup</title>
<g id="a_node11"><a xlink:href="https://github.com/mihxil/math/blob/main/mihxil-math/src/main/java/org/meeuw/math/abstractalgebra/MultiplicativeGroup.java" xlink:title="{\N|{ * &#160;/ &#160;| 1}|PermutationGroup}">
<polygon fill="none" stroke="black" points="549.5,-496.5 549.5,-565.5 709.5,-565.5 709.5,-496.5 549.5,-496.5"/>
<text text-anchor="middle" x="629.5" y="-550.3" font-family="Times,serif" font-size="14.00">MultiplicativeGroup</text>
<polyline fill="none" stroke="black" points="549.5,-542.5 709.5,-542.5 "/>
<text text-anchor="middle" x="591" y="-527.3" font-family="Times,serif" font-size="14.00">* /</text>
<polyline fill="none" stroke="black" points="632.5,-519.5 632.5,-542.5 "/>
<text text-anchor="middle" x="671" y="-527.3" font-family="Times,serif" font-size="14.00">1</text>
<polyline fill="none" stroke="black" points="549.5,-519.5 709.5,-519.5 "/>
<text text-anchor="middle" x="629.5" y="-504.3" font-family="Times,serif" font-size="14.00">PermutationGroup</text>
</a>
</g>
</g>
<!-- MultiplicativeGroup&#45;&gt;MultiplicativeMonoid -->
<g id="edge12" class="edge">
<title>MultiplicativeGroup&#45;&gt;MultiplicativeMonoid</title>
<path fill="none" stroke="black" d="M623.93,-496.43C621.44,-481.42 618.46,-463.53 615.8,-447.47"/>
<polygon fill="none" stroke="black" points="619.19,-446.52 614.1,-437.22 612.28,-447.66 619.19,-446.52"/>
</g>
<!-- Ring -->
<g id="node12" class="node">
<title>Ring</title>
<g id="a_node12"><a xlink:href="https://github.com/mihxil/math/blob/main/mihxil-math/src/main/java/org/meeuw/math/abstractalgebra/Ring.java" xlink:title="{\N|{ + &#160;&#45; \n⇆ | &#160;* &#160;| 0 | 1}|ModuloStructure}">
<polygon fill="none" stroke="black" points="401,-617.5 401,-701.5 540,-701.5 540,-617.5 401,-617.5"/>
<text text-anchor="middle" x="470.5" y="-686.3" font-family="Times,serif" font-size="14.00">Ring</text>
<polyline fill="none" stroke="black" points="401,-678.5 540,-678.5 "/>
<text text-anchor="middle" x="424.5" y="-663.3" font-family="Times,serif" font-size="14.00">+ &#45; </text>
<text text-anchor="middle" x="424.5" y="-648.3" font-family="Times,serif" font-size="14.00">⇆</text>
<polyline fill="none" stroke="black" points="448,-640.5 448,-678.5 "/>
<text text-anchor="middle" x="462.5" y="-655.8" font-family="Times,serif" font-size="14.00">*</text>
<polyline fill="none" stroke="black" points="477,-640.5 477,-678.5 "/>
<text text-anchor="middle" x="492.5" y="-655.8" font-family="Times,serif" font-size="14.00">0</text>
<polyline fill="none" stroke="black" points="508,-640.5 508,-678.5 "/>
<text text-anchor="middle" x="524" y="-655.8" font-family="Times,serif" font-size="14.00">1</text>
<polyline fill="none" stroke="black" points="401,-640.5 540,-640.5 "/>
<text text-anchor="middle" x="470.5" y="-625.3" font-family="Times,serif" font-size="14.00">ModuloStructure</text>
</a>
</g>
</g>
<!-- Ring&#45;&gt;Rng -->
<g id="edge13" class="edge">
<title>Ring&#45;&gt;Rng</title>
<path fill="none" stroke="black" d="M465.63,-617.43C464.62,-608.94 463.54,-599.84 462.48,-590.85"/>
<polygon fill="none" stroke="black" points="465.94,-590.32 461.29,-580.8 458.99,-591.14 465.94,-590.32"/>
</g>
<!-- MultiplicativeAbelianGroup -->
<g id="node13" class="node">
<title>MultiplicativeAbelianGroup</title>
<g id="a_node13"><a xlink:href="https://github.com/mihxil/math/blob/main/mihxil-math/src/main/java/org/meeuw/math/abstractalgebra/MultiplicativeAbelianGroup.java" xlink:title="{\N|{ * &#160;/ \n⇆ | 1}}">
<polygon fill="none" stroke="black" points="658,-629 658,-690 871,-690 871,-629 658,-629"/>
<text text-anchor="middle" x="764.5" y="-674.8" font-family="Times,serif" font-size="14.00">MultiplicativeAbelianGroup</text>
<polyline fill="none" stroke="black" points="658,-667 871,-667 "/>
<text text-anchor="middle" x="714" y="-651.8" font-family="Times,serif" font-size="14.00">* / </text>
<text text-anchor="middle" x="714" y="-636.8" font-family="Times,serif" font-size="14.00">⇆</text>
<polyline fill="none" stroke="black" points="770,-629 770,-667 "/>
<text text-anchor="middle" x="820.5" y="-644.3" font-family="Times,serif" font-size="14.00">1</text>
</a>
</g>
</g>
<!-- MultiplicativeAbelianGroup&#45;&gt;MultiplicativeAbelianSemiGroup -->
<g id="edge14" class="edge">
<title>MultiplicativeAbelianGroup&#45;&gt;MultiplicativeAbelianSemiGroup</title>
<path fill="none" stroke="black" d="M772.71,-629C784.58,-586.38 806.68,-506.99 821.25,-454.69"/>
<polygon fill="none" stroke="black" points="824.65,-455.51 823.96,-444.94 817.91,-453.63 824.65,-455.51"/>
</g>
<!-- MultiplicativeAbelianGroup&#45;&gt;MultiplicativeGroup -->
<g id="edge15" class="edge">
<title>MultiplicativeAbelianGroup&#45;&gt;MultiplicativeGroup</title>
<path fill="none" stroke="black" d="M732.85,-628.84C715.1,-612.21 692.69,-591.21 673.28,-573.02"/>
<polygon fill="none" stroke="black" points="675.41,-570.23 665.72,-565.94 670.63,-575.33 675.41,-570.23"/>
</g>
<!-- DivisionRing -->
<g id="node14" class="node">
<title>DivisionRing</title>
<g id="a_node14"><a xlink:href="https://github.com/mihxil/math/blob/main/mihxil-math/src/main/java/org/meeuw/math/abstractalgebra/DivisionRing.java" xlink:title="{\N|{ + &#160;&#45; \n⇆ | &#160;* &#160;/ &#160;| 0 | 1}|Quaternions}">
<polygon fill="none" stroke="black" points="558.5,-738.5 558.5,-822.5 684.5,-822.5 684.5,-738.5 558.5,-738.5"/>
<text text-anchor="middle" x="621.5" y="-807.3" font-family="Times,serif" font-size="14.00">DivisionRing</text>
<polyline fill="none" stroke="black" points="558.5,-799.5 684.5,-799.5 "/>
<text text-anchor="middle" x="579.5" y="-784.3" font-family="Times,serif" font-size="14.00">+ &#45; </text>
<text text-anchor="middle" x="579.5" y="-769.3" font-family="Times,serif" font-size="14.00">⇆</text>
<polyline fill="none" stroke="black" points="600.5,-761.5 600.5,-799.5 "/>
<text text-anchor="middle" x="616.5" y="-776.8" font-family="Times,serif" font-size="14.00">* /</text>
<polyline fill="none" stroke="black" points="632.5,-761.5 632.5,-799.5 "/>
<text text-anchor="middle" x="645.5" y="-776.8" font-family="Times,serif" font-size="14.00">0</text>
<polyline fill="none" stroke="black" points="658.5,-761.5 658.5,-799.5 "/>
<text text-anchor="middle" x="671.5" y="-776.8" font-family="Times,serif" font-size="14.00">1</text>
<polyline fill="none" stroke="black" points="558.5,-761.5 684.5,-761.5 "/>
<text text-anchor="middle" x="621.5" y="-746.3" font-family="Times,serif" font-size="14.00">Quaternions</text>
</a>
</g>
</g>
<!-- DivisionRing&#45;&gt;MultiplicativeGroup -->
<g id="edge16" class="edge">
<title>DivisionRing&#45;&gt;MultiplicativeGroup</title>
<path fill="none" stroke="black" d="M622.83,-738.35C624.28,-693.46 626.59,-621.89 628.08,-575.93"/>
<polygon fill="none" stroke="black" points="631.59,-575.79 628.41,-565.68 624.59,-575.57 631.59,-575.79"/>
</g>
<!-- DivisionRing&#45;&gt;Ring -->
<g id="edge17" class="edge">
<title>DivisionRing&#45;&gt;Ring</title>
<path fill="none" stroke="black" d="M569.11,-738.21C556.63,-728.37 543.21,-717.8 530.41,-707.72"/>
<polygon fill="none" stroke="black" points="532.56,-704.95 522.54,-701.51 528.23,-710.45 532.56,-704.95"/>
</g>
<!-- AbelianRing -->
<g id="node15" class="node">
<title>AbelianRing</title>
<g id="a_node15"><a xlink:href="https://github.com/mihxil/math/blob/main/mihxil-math/src/main/java/org/meeuw/math/abstractalgebra/AbelianRing.java" xlink:title="{\N|{ + &#160;&#45; \n⇆ | &#160;* \n⇆ | 0 | 1}}">
<polygon fill="none" stroke="black" points="409,-750 409,-811 532,-811 532,-750 409,-750"/>
<text text-anchor="middle" x="470.5" y="-795.8" font-family="Times,serif" font-size="14.00">AbelianRing</text>
<polyline fill="none" stroke="black" points="409,-788 532,-788 "/>
<text text-anchor="middle" x="430" y="-772.8" font-family="Times,serif" font-size="14.00">+ &#45; </text>
<text text-anchor="middle" x="430" y="-757.8" font-family="Times,serif" font-size="14.00">⇆</text>
<polyline fill="none" stroke="black" points="451,-750 451,-788 "/>
<text text-anchor="middle" x="465.5" y="-772.8" font-family="Times,serif" font-size="14.00">* </text>
<text text-anchor="middle" x="465.5" y="-757.8" font-family="Times,serif" font-size="14.00">⇆</text>
<polyline fill="none" stroke="black" points="480,-750 480,-788 "/>
<text text-anchor="middle" x="493" y="-765.3" font-family="Times,serif" font-size="14.00">0</text>
<polyline fill="none" stroke="black" points="506,-750 506,-788 "/>
<text text-anchor="middle" x="519" y="-765.3" font-family="Times,serif" font-size="14.00">1</text>
</a>
</g>
</g>
<!-- AbelianRing&#45;&gt;Ring -->
<g id="edge18" class="edge">
<title>AbelianRing&#45;&gt;Ring</title>
<path fill="none" stroke="black" d="M470.5,-749.78C470.5,-738.26 470.5,-724.74 470.5,-711.75"/>
<polygon fill="none" stroke="black" points="474,-711.5 470.5,-701.5 467,-711.5 474,-711.5"/>
</g>
<!-- DivisibleGroup -->
<g id="node16" class="node">
<title>DivisibleGroup</title>
<g id="a_node16"><a xlink:href="https://github.com/mihxil/math/blob/main/mihxil-math/src/main/java/org/meeuw/math/abstractalgebra/DivisibleGroup.java" xlink:title="{\N|{ * &#160;/ \n⇆ | 1}}">
<polygon fill="none" stroke="black" points="703,-750 703,-811 826,-811 826,-750 703,-750"/>
<text text-anchor="middle" x="764.5" y="-795.8" font-family="Times,serif" font-size="14.00">DivisibleGroup</text>
<polyline fill="none" stroke="black" points="703,-788 826,-788 "/>
<text text-anchor="middle" x="736.5" y="-772.8" font-family="Times,serif" font-size="14.00">* / </text>
<text text-anchor="middle" x="736.5" y="-757.8" font-family="Times,serif" font-size="14.00">⇆</text>
<polyline fill="none" stroke="black" points="770,-750 770,-788 "/>
<text text-anchor="middle" x="798" y="-765.3" font-family="Times,serif" font-size="14.00">1</text>
</a>
</g>
</g>
<!-- DivisibleGroup&#45;&gt;MultiplicativeAbelianGroup -->
<g id="edge19" class="edge">
<title>DivisibleGroup&#45;&gt;MultiplicativeAbelianGroup</title>
<path fill="none" stroke="black" d="M764.5,-749.78C764.5,-734.87 764.5,-716.6 764.5,-700.48"/>
<polygon fill="none" stroke="black" points="768,-700.26 764.5,-690.26 761,-700.26 768,-700.26"/>
</g>
<!-- Field -->
<g id="node17" class="node">
<title>Field</title>
<g id="a_node17"><a xlink:href="https://github.com/mihxil/math/blob/main/mihxil-math/src/main/java/org/meeuw/math/abstractalgebra/Field.java" xlink:title="{\N|{ + &#160;&#45; \n⇆ | &#160;* &#160;/ \n⇆ | 0 | 1}|ModuloField\nGaussianRationals ᵁ0(i)}">
<polygon fill="none" stroke="black" points="601,-859.5 601,-958.5 786,-958.5 786,-859.5 601,-859.5"/>
<text text-anchor="middle" x="693.5" y="-943.3" font-family="Times,serif" font-size="14.00">Field</text>
<polyline fill="none" stroke="black" points="601,-935.5 786,-935.5 "/>
<text text-anchor="middle" x="628.5" y="-920.3" font-family="Times,serif" font-size="14.00">+ &#45; </text>
<text text-anchor="middle" x="628.5" y="-905.3" font-family="Times,serif" font-size="14.00">⇆</text>
<polyline fill="none" stroke="black" points="656,-897.5 656,-935.5 "/>
<text text-anchor="middle" x="681.5" y="-920.3" font-family="Times,serif" font-size="14.00">* / </text>
<text text-anchor="middle" x="681.5" y="-905.3" font-family="Times,serif" font-size="14.00">⇆</text>
<polyline fill="none" stroke="black" points="707,-897.5 707,-935.5 "/>
<text text-anchor="middle" x="726.5" y="-912.8" font-family="Times,serif" font-size="14.00">0</text>
<polyline fill="none" stroke="black" points="746,-897.5 746,-935.5 "/>
<text text-anchor="middle" x="766" y="-912.8" font-family="Times,serif" font-size="14.00">1</text>
<polyline fill="none" stroke="black" points="601,-897.5 786,-897.5 "/>
<text text-anchor="middle" x="693.5" y="-882.3" font-family="Times,serif" font-size="14.00">ModuloField</text>
<text text-anchor="middle" x="693.5" y="-867.3" font-family="Times,serif" font-size="14.00">GaussianRationals ᵁ0(i)</text>
</a>
</g>
</g>
<!-- Field&#45;&gt;DivisionRing -->
<g id="edge20" class="edge">
<title>Field&#45;&gt;DivisionRing</title>
<path fill="none" stroke="black" d="M665.87,-859.45C660.64,-850.27 655.16,-840.64 649.91,-831.41"/>
<polygon fill="none" stroke="black" points="652.95,-829.67 644.96,-822.71 646.86,-833.14 652.95,-829.67"/>
</g>
<!-- Field&#45;&gt;AbelianRing -->
<g id="edge21" class="edge">
<title>Field&#45;&gt;AbelianRing</title>
<path fill="none" stroke="black" d="M607.92,-859.45C582.43,-845 555.04,-829.45 531.46,-816.08"/>
<polygon fill="none" stroke="black" points="533.05,-812.96 522.63,-811.07 529.6,-819.05 533.05,-812.96"/>
</g>
<!-- Field&#45;&gt;DivisibleGroup -->
<g id="edge22" class="edge">
<title>Field&#45;&gt;DivisibleGroup</title>
<path fill="none" stroke="black" d="M720.75,-859.45C728.11,-846.33 735.98,-832.32 742.98,-819.85"/>
<polygon fill="none" stroke="black" points="746.06,-821.5 747.9,-811.07 739.96,-818.08 746.06,-821.5"/>
</g>
<!-- VectorSpace -->
<g id="node18" class="node">
<title>VectorSpace</title>
<g id="a_node18"><a xlink:href="https://github.com/mihxil/math/blob/main/mihxil-math/src/main/java/org/meeuw/math/abstractalgebra/VectorSpace.java" xlink:title="{\N|{ + &#160;&#45; \n⇆ | &#160;* \n⇆ | 0 | 1}|Vector3Space org.meeuw.math.abstractalgebra.dim3.Vector3Space@36d582cb}">
<polygon fill="none" stroke="black" points="0,-867 0,-951 583,-951 583,-867 0,-867"/>
<text text-anchor="middle" x="291.5" y="-935.8" font-family="Times,serif" font-size="14.00">VectorSpace</text>
<polyline fill="none" stroke="black" points="0,-928 583,-928 "/>
<text text-anchor="middle" x="78.5" y="-912.8" font-family="Times,serif" font-size="14.00">+ &#45; </text>
<text text-anchor="middle" x="78.5" y="-897.8" font-family="Times,serif" font-size="14.00">⇆</text>
<polyline fill="none" stroke="black" points="157,-890 157,-928 "/>
<text text-anchor="middle" x="229" y="-912.8" font-family="Times,serif" font-size="14.00">* </text>
<text text-anchor="middle" x="229" y="-897.8" font-family="Times,serif" font-size="14.00">⇆</text>
<polyline fill="none" stroke="black" points="301,-890 301,-928 "/>
<text text-anchor="middle" x="371.5" y="-905.3" font-family="Times,serif" font-size="14.00">0</text>
<polyline fill="none" stroke="black" points="442,-890 442,-928 "/>
<text text-anchor="middle" x="512.5" y="-905.3" font-family="Times,serif" font-size="14.00">1</text>
<polyline fill="none" stroke="black" points="0,-890 583,-890 "/>
<text text-anchor="middle" x="291.5" y="-874.8" font-family="Times,serif" font-size="14.00">Vector3Space org.meeuw.math.abstractalgebra.dim3.Vector3Space@36d582cb</text>
</a>
</g>
</g>
<!-- VectorSpace&#45;&gt;AbelianRing -->
<g id="edge23" class="edge">
<title>VectorSpace&#45;&gt;AbelianRing</title>
<path fill="none" stroke="black" d="M349.62,-866.93C372.43,-850.81 398.35,-832.49 420.33,-816.96"/>
<polygon fill="none" stroke="black" points="422.4,-819.78 428.54,-811.15 418.36,-814.06 422.4,-819.78"/>
</g>
<!-- ScalarField -->
<g id="node19" class="node">
<title>ScalarField</title>
<g id="a_node19"><a xlink:href="https://github.com/mihxil/math/blob/main/mihxil-math/src/main/java/org/meeuw/math/abstractalgebra/ScalarField.java" xlink:title="{\N|{ + &#160;&#45; \n⇆ | &#160;* &#160;/ \n⇆ | 0 | 1}|RationalNumbers ℚ}">
<polygon fill="none" stroke="black" points="614.5,-995.5 614.5,-1079.5 772.5,-1079.5 772.5,-995.5 614.5,-995.5"/>
<text text-anchor="middle" x="693.5" y="-1064.3" font-family="Times,serif" font-size="14.00">ScalarField</text>
<polyline fill="none" stroke="black" points="614.5,-1056.5 772.5,-1056.5 "/>
<text text-anchor="middle" x="638.5" y="-1041.3" font-family="Times,serif" font-size="14.00">+ &#45; </text>
<text text-anchor="middle" x="638.5" y="-1026.3" font-family="Times,serif" font-size="14.00">⇆</text>
<polyline fill="none" stroke="black" points="662.5,-1018.5 662.5,-1056.5 "/>
<text text-anchor="middle" x="684.5" y="-1041.3" font-family="Times,serif" font-size="14.00">* / </text>
<text text-anchor="middle" x="684.5" y="-1026.3" font-family="Times,serif" font-size="14.00">⇆</text>
<polyline fill="none" stroke="black" points="706.5,-1018.5 706.5,-1056.5 "/>
<text text-anchor="middle" x="723" y="-1033.8" font-family="Times,serif" font-size="14.00">0</text>
<polyline fill="none" stroke="black" points="739.5,-1018.5 739.5,-1056.5 "/>
<text text-anchor="middle" x="756" y="-1033.8" font-family="Times,serif" font-size="14.00">1</text>
<polyline fill="none" stroke="black" points="614.5,-1018.5 772.5,-1018.5 "/>
<text text-anchor="middle" x="693.5" y="-1003.3" font-family="Times,serif" font-size="14.00">RationalNumbers ℚ</text>
</a>
</g>
</g>
<!-- ScalarField&#45;&gt;Field -->
<g id="edge24" class="edge">
<title>ScalarField&#45;&gt;Field</title>
<path fill="none" stroke="black" d="M693.5,-995.43C693.5,-986.94 693.5,-977.84 693.5,-968.85"/>
<polygon fill="none" stroke="black" points="697,-968.8 693.5,-958.8 690,-968.8 697,-968.8"/>
</g>
<!-- CompleteField -->
<g id="node20" class="node">
<title>CompleteField</title>
<g id="a_node20"><a xlink:href="https://github.com/mihxil/math/blob/main/mihxil-math/src/main/java/org/meeuw/math/abstractalgebra/CompleteField.java" xlink:title="{\N|{ + &#160;&#45; \n⇆ | &#160;* &#160;/ \n⇆ | 0 | 1}|BigDecimalField BigDecimalField\nRealField ℝ}">
<polygon fill="none" stroke="black" points="565,-1116.5 565,-1215.5 822,-1215.5 822,-1116.5 565,-1116.5"/>
<text text-anchor="middle" x="693.5" y="-1200.3" font-family="Times,serif" font-size="14.00">CompleteField</text>
<polyline fill="none" stroke="black" points="565,-1192.5 822,-1192.5 "/>
<text text-anchor="middle" x="601.5" y="-1177.3" font-family="Times,serif" font-size="14.00">+ &#45; </text>
<text text-anchor="middle" x="601.5" y="-1162.3" font-family="Times,serif" font-size="14.00">⇆</text>
<polyline fill="none" stroke="black" points="638,-1154.5 638,-1192.5 "/>
<text text-anchor="middle" x="672.5" y="-1177.3" font-family="Times,serif" font-size="14.00">* / </text>
<text text-anchor="middle" x="672.5" y="-1162.3" font-family="Times,serif" font-size="14.00">⇆</text>
<polyline fill="none" stroke="black" points="707,-1154.5 707,-1192.5 "/>
<text text-anchor="middle" x="735.5" y="-1169.8" font-family="Times,serif" font-size="14.00">0</text>
<polyline fill="none" stroke="black" points="764,-1154.5 764,-1192.5 "/>
<text text-anchor="middle" x="793" y="-1169.8" font-family="Times,serif" font-size="14.00">1</text>
<polyline fill="none" stroke="black" points="565,-1154.5 822,-1154.5 "/>
<text text-anchor="middle" x="693.5" y="-1139.3" font-family="Times,serif" font-size="14.00">BigDecimalField BigDecimalField</text>
<text text-anchor="middle" x="693.5" y="-1124.3" font-family="Times,serif" font-size="14.00">RealField ℝ</text>
</a>
</g>
</g>
<!-- CompleteField&#45;&gt;ScalarField -->
<g id="edge25" class="edge">
<title>CompleteField&#45;&gt;ScalarField</title>
<path fill="none" stroke="black" d="M693.5,-1116.45C693.5,-1107.74 693.5,-1098.63 693.5,-1089.84"/>
<polygon fill="none" stroke="black" points="697,-1089.71 693.5,-1079.71 690,-1089.71 697,-1089.71"/>
</g>
</g>
</svg>
