<?xml version="1.0" encoding="UTF-8" standalone="no"?>
<!DOCTYPE svg PUBLIC "-//W3C//DTD SVG 1.1//EN"
 "http://www.w3.org/Graphics/SVG/1.1/DTD/svg11.dtd">
<!-- Generated by graphviz version 2.49.3 (20211027.1534)
 -->
<!-- Pages: 1 -->
<svg width="1049pt" height="1262pt"
 viewBox="0.00 0.00 1048.50 1262.00" xmlns="http://www.w3.org/2000/svg" xmlns:xlink="http://www.w3.org/1999/xlink">
<g id="graph0" class="graph" transform="scale(1 1) rotate(0) translate(4 1258)">
<polygon fill="white" stroke="transparent" points="-4,4 -4,-1258 1044.5,-1258 1044.5,4 -4,4"/>
<!-- Group -->
<g id="node1" class="node">
<title>Group</title>
<g id="a_node1"><a xlink:href="https://github.com/mihxil/math/blob/main/mihxil-math/src/main/java/org/meeuw/math/abstractalgebra/Group.java" xlink:title="{\N|{}|org.meeuw.math.abstractalgebra.klein.KleinGroup@41def031}">
<polygon fill="none" stroke="black" points="0,-73.5 0,-142.5 460,-142.5 460,-73.5 0,-73.5"/>
<text text-anchor="middle" x="230" y="-127.3" font-family="Times,serif" font-size="14.00">Group</text>
<polyline fill="none" stroke="black" points="0,-119.5 460,-119.5 "/>
<text text-anchor="middle" x="230" y="-104.3" font-family="Times,serif" font-size="14.00"> </text>
<polyline fill="none" stroke="black" points="0,-96.5 460,-96.5 "/>
<text text-anchor="middle" x="230" y="-81.3" font-family="Times,serif" font-size="14.00">org.meeuw.math.abstractalgebra.klein.KleinGroup@41def031</text>
</a>
</g>
</g>
<!-- AlgebraicStructure -->
<g id="node2" class="node">
<title>AlgebraicStructure</title>
<polygon fill="none" stroke="black" points="479.5,-0.5 479.5,-36.5 632.5,-36.5 632.5,-0.5 479.5,-0.5"/>
<text text-anchor="middle" x="556" y="-14.8" font-family="Times,serif" font-size="14.00">AlgebraicStructure</text>
</g>
<!-- Group&#45;&gt;AlgebraicStructure -->
<g id="edge1" class="edge">
<title>Group&#45;&gt;AlgebraicStructure</title>
<path fill="none" stroke="black" d="M355.11,-73.42C398.13,-61.87 444.88,-49.33 482.44,-39.24"/>
<polygon fill="none" stroke="black" points="483.53,-42.57 492.29,-36.6 481.72,-35.81 483.53,-42.57"/>
</g>
<!-- AdditiveSemiGroup -->
<g id="node3" class="node">
<title>AdditiveSemiGroup</title>
<g id="a_node3"><a xlink:href="https://github.com/mihxil/math/blob/main/mihxil-math/src/main/java/org/meeuw/math/abstractalgebra/AdditiveSemiGroup.java" xlink:title="{\N|{ + }}">
<polygon fill="none" stroke="black" points="478,-85 478,-131 634,-131 634,-85 478,-85"/>
<text text-anchor="middle" x="556" y="-115.8" font-family="Times,serif" font-size="14.00">AdditiveSemiGroup</text>
<polyline fill="none" stroke="black" points="478,-108 634,-108 "/>
<text text-anchor="middle" x="556" y="-92.8" font-family="Times,serif" font-size="14.00">+</text>
</a>
</g>
</g>
<!-- AdditiveSemiGroup&#45;&gt;AlgebraicStructure -->
<g id="edge2" class="edge">
<title>AdditiveSemiGroup&#45;&gt;AlgebraicStructure</title>
<path fill="none" stroke="black" d="M556,-84.92C556,-73.33 556,-59.02 556,-46.75"/>
<polygon fill="none" stroke="black" points="559.5,-46.6 556,-36.6 552.5,-46.6 559.5,-46.6"/>
</g>
<!-- MultiplicativeSemiGroup -->
<g id="node4" class="node">
<title>MultiplicativeSemiGroup</title>
<g id="a_node4"><a xlink:href="https://github.com/mihxil/math/blob/main/mihxil-math/src/main/java/org/meeuw/math/abstractalgebra/MultiplicativeSemiGroup.java" xlink:title="{\N|{ ⋅ }}">
<polygon fill="none" stroke="black" points="591,-300.5 591,-346.5 787,-346.5 787,-300.5 591,-300.5"/>
<text text-anchor="middle" x="689" y="-331.3" font-family="Times,serif" font-size="14.00">MultiplicativeSemiGroup</text>
<polyline fill="none" stroke="black" points="591,-323.5 787,-323.5 "/>
<text text-anchor="middle" x="689" y="-308.3" font-family="Times,serif" font-size="14.00">⋅</text>
</a>
</g>
</g>
<!-- MultiplicativeSemiGroup&#45;&gt;AlgebraicStructure -->
<g id="edge3" class="edge">
<title>MultiplicativeSemiGroup&#45;&gt;AlgebraicStructure</title>
<path fill="none" stroke="black" d="M690.97,-300.34C693.94,-253.52 694.56,-143.06 643,-73 633.52,-60.11 619.91,-49.66 606.26,-41.54"/>
<polygon fill="none" stroke="black" points="607.77,-38.37 597.33,-36.53 604.34,-44.47 607.77,-38.37"/>
</g>
<!-- AdditiveAbelianSemiGroup -->
<g id="node5" class="node">
<title>AdditiveAbelianSemiGroup</title>
<g id="a_node5"><a xlink:href="https://github.com/mihxil/math/blob/main/mihxil-math/src/main/java/org/meeuw/math/abstractalgebra/AdditiveAbelianSemiGroup.java" xlink:title="{\N|{ + \n⇆}|NegativeIntegers ℕ⁻}">
<polygon fill="none" stroke="black" points="451.5,-179.5 451.5,-263.5 660.5,-263.5 660.5,-179.5 451.5,-179.5"/>
<text text-anchor="middle" x="556" y="-248.3" font-family="Times,serif" font-size="14.00">AdditiveAbelianSemiGroup</text>
<polyline fill="none" stroke="black" points="451.5,-240.5 660.5,-240.5 "/>
<text text-anchor="middle" x="556" y="-225.3" font-family="Times,serif" font-size="14.00">+ </text>
<text text-anchor="middle" x="556" y="-210.3" font-family="Times,serif" font-size="14.00">⇆</text>
<polyline fill="none" stroke="black" points="451.5,-202.5 660.5,-202.5 "/>
<text text-anchor="middle" x="556" y="-187.3" font-family="Times,serif" font-size="14.00">NegativeIntegers ℕ⁻</text>
</a>
</g>
</g>
<!-- AdditiveAbelianSemiGroup&#45;&gt;AdditiveSemiGroup -->
<g id="edge4" class="edge">
<title>AdditiveAbelianSemiGroup&#45;&gt;AdditiveSemiGroup</title>
<path fill="none" stroke="black" d="M556,-179.3C556,-166.85 556,-153.37 556,-141.57"/>
<polygon fill="none" stroke="black" points="559.5,-141.29 556,-131.29 552.5,-141.29 559.5,-141.29"/>
</g>
<!-- AdditiveMonoid -->
<g id="node6" class="node">
<title>AdditiveMonoid</title>
<g id="a_node6"><a xlink:href="https://github.com/mihxil/math/blob/main/mihxil-math/src/main/java/org/meeuw/math/abstractalgebra/AdditiveMonoid.java" xlink:title="{\N|{ + &#160;| 0}|StringMonoid\nNaturalNumbers ℕ}">
<polygon fill="none" stroke="black" points="278.5,-179.5 278.5,-263.5 433.5,-263.5 433.5,-179.5 278.5,-179.5"/>
<text text-anchor="middle" x="356" y="-248.3" font-family="Times,serif" font-size="14.00">AdditiveMonoid</text>
<polyline fill="none" stroke="black" points="278.5,-240.5 433.5,-240.5 "/>
<text text-anchor="middle" x="318" y="-225.3" font-family="Times,serif" font-size="14.00">+</text>
<polyline fill="none" stroke="black" points="357.5,-217.5 357.5,-240.5 "/>
<text text-anchor="middle" x="395.5" y="-225.3" font-family="Times,serif" font-size="14.00">0</text>
<polyline fill="none" stroke="black" points="278.5,-217.5 433.5,-217.5 "/>
<text text-anchor="middle" x="356" y="-202.3" font-family="Times,serif" font-size="14.00">StringMonoid</text>
<text text-anchor="middle" x="356" y="-187.3" font-family="Times,serif" font-size="14.00">NaturalNumbers ℕ</text>
</a>
</g>
</g>
<!-- AdditiveMonoid&#45;&gt;AdditiveSemiGroup -->
<g id="edge5" class="edge">
<title>AdditiveMonoid&#45;&gt;AdditiveSemiGroup</title>
<path fill="none" stroke="black" d="M429.62,-179.46C455.58,-164.98 484.09,-149.09 507.45,-136.06"/>
<polygon fill="none" stroke="black" points="509.44,-138.97 516.47,-131.04 506.03,-132.85 509.44,-138.97"/>
</g>
<!-- MultiplicativeMonoid -->
<g id="node7" class="node">
<title>MultiplicativeMonoid</title>
<g id="a_node7"><a xlink:href="https://github.com/mihxil/math/blob/main/mihxil-math/src/main/java/org/meeuw/math/abstractalgebra/MultiplicativeMonoid.java" xlink:title="{\N|{ ⋅ &#160;| 1}|OddIntegers ℕo}">
<polygon fill="none" stroke="black" points="604.5,-391 604.5,-460 773.5,-460 773.5,-391 604.5,-391"/>
<text text-anchor="middle" x="689" y="-444.8" font-family="Times,serif" font-size="14.00">MultiplicativeMonoid</text>
<polyline fill="none" stroke="black" points="604.5,-437 773.5,-437 "/>
<text text-anchor="middle" x="645.5" y="-421.8" font-family="Times,serif" font-size="14.00">⋅</text>
<polyline fill="none" stroke="black" points="686.5,-414 686.5,-437 "/>
<text text-anchor="middle" x="730" y="-421.8" font-family="Times,serif" font-size="14.00">1</text>
<polyline fill="none" stroke="black" points="604.5,-414 773.5,-414 "/>
<text text-anchor="middle" x="689" y="-398.8" font-family="Times,serif" font-size="14.00">OddIntegers ℕo</text>
</a>
</g>
</g>
<!-- MultiplicativeMonoid&#45;&gt;MultiplicativeSemiGroup -->
<g id="edge6" class="edge">
<title>MultiplicativeMonoid&#45;&gt;MultiplicativeSemiGroup</title>
<path fill="none" stroke="black" d="M689,-390.92C689,-379.83 689,-367.52 689,-356.55"/>
<polygon fill="none" stroke="black" points="692.5,-356.51 689,-346.51 685.5,-356.51 692.5,-356.51"/>
</g>
<!-- Rng -->
<g id="node8" class="node">
<title>Rng</title>
<g id="a_node8"><a xlink:href="https://github.com/mihxil/math/blob/main/mihxil-math/src/main/java/org/meeuw/math/abstractalgebra/Rng.java" xlink:title="{\N|{ + &#160;&#45; \n⇆ | &#160;⋅ &#160;| 0}|EvenIntegers 2ℤ\nNDivisibleIntegers}">
<polygon fill="none" stroke="black" points="469.5,-504.5 469.5,-603.5 620.5,-603.5 620.5,-504.5 469.5,-504.5"/>
<text text-anchor="middle" x="545" y="-588.3" font-family="Times,serif" font-size="14.00">Rng</text>
<polyline fill="none" stroke="black" points="469.5,-580.5 620.5,-580.5 "/>
<text text-anchor="middle" x="500.5" y="-565.3" font-family="Times,serif" font-size="14.00">+ &#45; </text>
<text text-anchor="middle" x="500.5" y="-550.3" font-family="Times,serif" font-size="14.00">⇆</text>
<polyline fill="none" stroke="black" points="531.5,-542.5 531.5,-580.5 "/>
<text text-anchor="middle" x="552.5" y="-557.8" font-family="Times,serif" font-size="14.00">⋅</text>
<polyline fill="none" stroke="black" points="573.5,-542.5 573.5,-580.5 "/>
<text text-anchor="middle" x="597" y="-557.8" font-family="Times,serif" font-size="14.00">0</text>
<polyline fill="none" stroke="black" points="469.5,-542.5 620.5,-542.5 "/>
<text text-anchor="middle" x="545" y="-527.3" font-family="Times,serif" font-size="14.00">EvenIntegers 2ℤ</text>
<text text-anchor="middle" x="545" y="-512.3" font-family="Times,serif" font-size="14.00">NDivisibleIntegers</text>
</a>
</g>
</g>
<!-- Rng&#45;&gt;MultiplicativeSemiGroup -->
<g id="edge7" class="edge">
<title>Rng&#45;&gt;MultiplicativeSemiGroup</title>
<path fill="none" stroke="black" d="M555.6,-504.2C565.69,-461.07 581.45,-402.13 596,-383 605.38,-370.67 618.17,-360.28 631.26,-351.83"/>
<polygon fill="none" stroke="black" points="633.17,-354.77 639.87,-346.56 629.51,-348.8 633.17,-354.77"/>
</g>
<!-- AdditiveAbelianGroup -->
<g id="node9" class="node">
<title>AdditiveAbelianGroup</title>
<g id="a_node9"><a xlink:href="https://github.com/mihxil/math/blob/main/mihxil-math/src/main/java/org/meeuw/math/abstractalgebra/AdditiveAbelianGroup.java" xlink:title="{\N|{ + &#160;&#45; \n⇆ | 0}}">
<polygon fill="none" stroke="black" points="375.5,-395 375.5,-456 548.5,-456 548.5,-395 375.5,-395"/>
<text text-anchor="middle" x="462" y="-440.8" font-family="Times,serif" font-size="14.00">AdditiveAbelianGroup</text>
<polyline fill="none" stroke="black" points="375.5,-433 548.5,-433 "/>
<text text-anchor="middle" x="422.5" y="-417.8" font-family="Times,serif" font-size="14.00">+ &#45; </text>
<text text-anchor="middle" x="422.5" y="-402.8" font-family="Times,serif" font-size="14.00">⇆</text>
<polyline fill="none" stroke="black" points="469.5,-395 469.5,-433 "/>
<text text-anchor="middle" x="509" y="-410.3" font-family="Times,serif" font-size="14.00">0</text>
</a>
</g>
</g>
<!-- Rng&#45;&gt;AdditiveAbelianGroup -->
<g id="edge8" class="edge">
<title>Rng&#45;&gt;AdditiveAbelianGroup</title>
<path fill="none" stroke="black" d="M513.15,-504.45C504.46,-491.21 495.17,-477.05 486.92,-464.48"/>
<polygon fill="none" stroke="black" points="489.81,-462.51 481.4,-456.07 483.96,-466.35 489.81,-462.51"/>
</g>
<!-- AdditiveAbelianGroup&#45;&gt;AdditiveAbelianSemiGroup -->
<g id="edge10" class="edge">
<title>AdditiveAbelianGroup&#45;&gt;AdditiveAbelianSemiGroup</title>
<path fill="none" stroke="black" d="M475.87,-394.69C490.75,-362.72 514.64,-311.39 532.46,-273.08"/>
<polygon fill="none" stroke="black" points="535.81,-274.18 536.86,-263.64 529.46,-271.23 535.81,-274.18"/>
</g>
<!-- AdditiveGroup -->
<g id="node11" class="node">
<title>AdditiveGroup</title>
<g id="a_node11"><a xlink:href="https://github.com/mihxil/math/blob/main/mihxil-math/src/main/java/org/meeuw/math/abstractalgebra/AdditiveGroup.java" xlink:title="{\N|{ + &#160;&#45; &#160;| 0}}">
<polygon fill="none" stroke="black" points="328,-300.5 328,-346.5 448,-346.5 448,-300.5 328,-300.5"/>
<text text-anchor="middle" x="388" y="-331.3" font-family="Times,serif" font-size="14.00">AdditiveGroup</text>
<polyline fill="none" stroke="black" points="328,-323.5 448,-323.5 "/>
<text text-anchor="middle" x="361" y="-308.3" font-family="Times,serif" font-size="14.00">+ &#45;</text>
<polyline fill="none" stroke="black" points="394,-300.5 394,-323.5 "/>
<text text-anchor="middle" x="421" y="-308.3" font-family="Times,serif" font-size="14.00">0</text>
</a>
</g>
</g>
<!-- AdditiveAbelianGroup&#45;&gt;AdditiveGroup -->
<g id="edge11" class="edge">
<title>AdditiveAbelianGroup&#45;&gt;AdditiveGroup</title>
<path fill="none" stroke="black" d="M440,-394.77C430.72,-382.23 419.93,-367.65 410.59,-355.03"/>
<polygon fill="none" stroke="black" points="413.15,-352.61 404.39,-346.65 407.53,-356.77 413.15,-352.61"/>
</g>
<!-- MultiplicativeAbelianSemiGroup -->
<g id="node10" class="node">
<title>MultiplicativeAbelianSemiGroup</title>
<g id="a_node10"><a xlink:href="https://github.com/mihxil/math/blob/main/mihxil-math/src/main/java/org/meeuw/math/abstractalgebra/MultiplicativeAbelianSemiGroup.java" xlink:title="{\N|{ ⋅ \n⇆}|OddIntegers ℕo}">
<polygon fill="none" stroke="black" points="791.5,-383.5 791.5,-467.5 1040.5,-467.5 1040.5,-383.5 791.5,-383.5"/>
<text text-anchor="middle" x="916" y="-452.3" font-family="Times,serif" font-size="14.00">MultiplicativeAbelianSemiGroup</text>
<polyline fill="none" stroke="black" points="791.5,-444.5 1040.5,-444.5 "/>
<text text-anchor="middle" x="916" y="-429.3" font-family="Times,serif" font-size="14.00">⋅</text>
<text text-anchor="middle" x="916" y="-414.3" font-family="Times,serif" font-size="14.00">⇆</text>
<polyline fill="none" stroke="black" points="791.5,-406.5 1040.5,-406.5 "/>
<text text-anchor="middle" x="916" y="-391.3" font-family="Times,serif" font-size="14.00">OddIntegers ℕo</text>
</a>
</g>
</g>
<!-- MultiplicativeAbelianSemiGroup&#45;&gt;MultiplicativeSemiGroup -->
<g id="edge9" class="edge">
<title>MultiplicativeAbelianSemiGroup&#45;&gt;MultiplicativeSemiGroup</title>
<path fill="none" stroke="black" d="M822.69,-383.39C797.54,-372.31 771.02,-360.63 748.3,-350.62"/>
<polygon fill="none" stroke="black" points="749.69,-347.41 739.13,-346.58 746.87,-353.82 749.69,-347.41"/>
</g>
<!-- AdditiveGroup&#45;&gt;AdditiveMonoid -->
<g id="edge12" class="edge">
<title>AdditiveGroup&#45;&gt;AdditiveMonoid</title>
<path fill="none" stroke="black" d="M380.9,-300.31C378.3,-292.19 375.25,-282.65 372.18,-273.07"/>
<polygon fill="none" stroke="black" points="375.52,-272 369.13,-263.54 368.85,-274.13 375.52,-272"/>
</g>
<!-- MultiplicativeGroup -->
<g id="node12" class="node">
<title>MultiplicativeGroup</title>
<g id="a_node12"><a xlink:href="https://github.com/mihxil/math/blob/main/mihxil-math/src/main/java/org/meeuw/math/abstractalgebra/MultiplicativeGroup.java" xlink:title="{\N|{ ⋅ &#160;/ &#160;| 1}|PermutationGroup\nGL₂(ℚ)}">
<polygon fill="none" stroke="black" points="639,-512 639,-596 799,-596 799,-512 639,-512"/>
<text text-anchor="middle" x="719" y="-580.8" font-family="Times,serif" font-size="14.00">MultiplicativeGroup</text>
<polyline fill="none" stroke="black" points="639,-573 799,-573 "/>
<text text-anchor="middle" x="679" y="-557.8" font-family="Times,serif" font-size="14.00">⋅/</text>
<polyline fill="none" stroke="black" points="719,-550 719,-573 "/>
<text text-anchor="middle" x="759" y="-557.8" font-family="Times,serif" font-size="14.00">1</text>
<polyline fill="none" stroke="black" points="639,-550 799,-550 "/>
<text text-anchor="middle" x="719" y="-534.8" font-family="Times,serif" font-size="14.00">PermutationGroup</text>
<text text-anchor="middle" x="719" y="-519.8" font-family="Times,serif" font-size="14.00">GL₂(ℚ)</text>
</a>
</g>
</g>
<!-- MultiplicativeGroup&#45;&gt;MultiplicativeMonoid -->
<g id="edge13" class="edge">
<title>MultiplicativeGroup&#45;&gt;MultiplicativeMonoid</title>
<path fill="none" stroke="black" d="M709.26,-511.93C706.1,-498.59 702.58,-483.75 699.37,-470.22"/>
<polygon fill="none" stroke="black" points="702.7,-469.11 696.99,-460.19 695.89,-470.72 702.7,-469.11"/>
</g>
<!-- Ring -->
<g id="node13" class="node">
<title>Ring</title>
<g id="a_node13"><a xlink:href="https://github.com/mihxil/math/blob/main/mihxil-math/src/main/java/org/meeuw/math/abstractalgebra/Ring.java" xlink:title="{\N|{ + &#160;&#45; \n⇆ | &#160;⋅ &#160;| 0 | 1}|ModuloStructure\nℤ}">
<polygon fill="none" stroke="black" points="476.5,-640.5 476.5,-739.5 615.5,-739.5 615.5,-640.5 476.5,-640.5"/>
<text text-anchor="middle" x="546" y="-724.3" font-family="Times,serif" font-size="14.00">Ring</text>
<polyline fill="none" stroke="black" points="476.5,-716.5 615.5,-716.5 "/>
<text text-anchor="middle" x="500.5" y="-701.3" font-family="Times,serif" font-size="14.00">+ &#45; </text>
<text text-anchor="middle" x="500.5" y="-686.3" font-family="Times,serif" font-size="14.00">⇆</text>
<polyline fill="none" stroke="black" points="524.5,-678.5 524.5,-716.5 "/>
<text text-anchor="middle" x="538" y="-693.8" font-family="Times,serif" font-size="14.00">⋅</text>
<polyline fill="none" stroke="black" points="551.5,-678.5 551.5,-716.5 "/>
<text text-anchor="middle" x="567.5" y="-693.8" font-family="Times,serif" font-size="14.00">0</text>
<polyline fill="none" stroke="black" points="583.5,-678.5 583.5,-716.5 "/>
<text text-anchor="middle" x="599.5" y="-693.8" font-family="Times,serif" font-size="14.00">1</text>
<polyline fill="none" stroke="black" points="476.5,-678.5 615.5,-678.5 "/>
<text text-anchor="middle" x="546" y="-663.3" font-family="Times,serif" font-size="14.00">ModuloStructure</text>
<text text-anchor="middle" x="546" y="-648.3" font-family="Times,serif" font-size="14.00">ℤ</text>
</a>
</g>
</g>
<!-- Ring&#45;&gt;Rng -->
<g id="edge14" class="edge">
<title>Ring&#45;&gt;Rng</title>
<path fill="none" stroke="black" d="M545.64,-640.24C545.57,-631.75 545.51,-622.82 545.44,-614.08"/>
<polygon fill="none" stroke="black" points="548.94,-613.92 545.37,-603.94 541.94,-613.97 548.94,-613.92"/>
</g>
<!-- MultiplicativeAbelianGroup -->
<g id="node14" class="node">
<title>MultiplicativeAbelianGroup</title>
<g id="a_node14"><a xlink:href="https://github.com/mihxil/math/blob/main/mihxil-math/src/main/java/org/meeuw/math/abstractalgebra/MultiplicativeAbelianGroup.java" xlink:title="{\N|{ ⋅ &#160;/ \n⇆ | 1}}">
<polygon fill="none" stroke="black" points="729.5,-659.5 729.5,-720.5 942.5,-720.5 942.5,-659.5 729.5,-659.5"/>
<text text-anchor="middle" x="836" y="-705.3" font-family="Times,serif" font-size="14.00">MultiplicativeAbelianGroup</text>
<polyline fill="none" stroke="black" points="729.5,-697.5 942.5,-697.5 "/>
<text text-anchor="middle" x="783.5" y="-682.3" font-family="Times,serif" font-size="14.00">⋅/ </text>
<text text-anchor="middle" x="783.5" y="-667.3" font-family="Times,serif" font-size="14.00">⇆</text>
<polyline fill="none" stroke="black" points="837.5,-659.5 837.5,-697.5 "/>
<text text-anchor="middle" x="890" y="-674.8" font-family="Times,serif" font-size="14.00">1</text>
</a>
</g>
</g>
<!-- MultiplicativeAbelianGroup&#45;&gt;MultiplicativeAbelianSemiGroup -->
<g id="edge15" class="edge">
<title>MultiplicativeAbelianGroup&#45;&gt;MultiplicativeAbelianSemiGroup</title>
<path fill="none" stroke="black" d="M845.02,-659.4C858.49,-615.22 884.02,-531.45 900.51,-477.34"/>
<polygon fill="none" stroke="black" points="903.91,-478.19 903.47,-467.6 897.21,-476.14 903.91,-478.19"/>
</g>
<!-- MultiplicativeAbelianGroup&#45;&gt;MultiplicativeGroup -->
<g id="edge16" class="edge">
<title>MultiplicativeAbelianGroup&#45;&gt;MultiplicativeGroup</title>
<path fill="none" stroke="black" d="M810.03,-659.26C795.84,-643 777.89,-622.45 761.7,-603.9"/>
<polygon fill="none" stroke="black" points="764.09,-601.32 754.88,-596.09 758.82,-605.92 764.09,-601.32"/>
</g>
<!-- DivisionRing -->
<g id="node15" class="node">
<title>DivisionRing</title>
<g id="a_node15"><a xlink:href="https://github.com/mihxil/math/blob/main/mihxil-math/src/main/java/org/meeuw/math/abstractalgebra/DivisionRing.java" xlink:title="{\N|{ + &#160;&#45; \n⇆ | &#160;⋅ &#160;/ &#160;| 0 | 1}|ℍ(ℚ)}">
<polygon fill="none" stroke="black" points="636,-776.5 636,-860.5 756,-860.5 756,-776.5 636,-776.5"/>
<text text-anchor="middle" x="696" y="-845.3" font-family="Times,serif" font-size="14.00">DivisionRing</text>
<polyline fill="none" stroke="black" points="636,-837.5 756,-837.5 "/>
<text text-anchor="middle" x="657" y="-822.3" font-family="Times,serif" font-size="14.00">+ &#45; </text>
<text text-anchor="middle" x="657" y="-807.3" font-family="Times,serif" font-size="14.00">⇆</text>
<polyline fill="none" stroke="black" points="678,-799.5 678,-837.5 "/>
<text text-anchor="middle" x="691" y="-814.8" font-family="Times,serif" font-size="14.00">⋅/</text>
<polyline fill="none" stroke="black" points="704,-799.5 704,-837.5 "/>
<text text-anchor="middle" x="717" y="-814.8" font-family="Times,serif" font-size="14.00">0</text>
<polyline fill="none" stroke="black" points="730,-799.5 730,-837.5 "/>
<text text-anchor="middle" x="743" y="-814.8" font-family="Times,serif" font-size="14.00">1</text>
<polyline fill="none" stroke="black" points="636,-799.5 756,-799.5 "/>
<text text-anchor="middle" x="696" y="-784.3" font-family="Times,serif" font-size="14.00">ℍ(ℚ)</text>
</a>
</g>
</g>
<!-- DivisionRing&#45;&gt;MultiplicativeGroup -->
<g id="edge17" class="edge">
<title>DivisionRing&#45;&gt;MultiplicativeGroup</title>
<path fill="none" stroke="black" d="M699.59,-776.48C703.62,-730.58 710.14,-656.13 714.5,-606.38"/>
<polygon fill="none" stroke="black" points="718.01,-606.43 715.39,-596.16 711.03,-605.82 718.01,-606.43"/>
</g>
<!-- DivisionRing&#45;&gt;Ring -->
<g id="edge18" class="edge">
<title>DivisionRing&#45;&gt;Ring</title>
<path fill="none" stroke="black" d="M647.3,-776.43C635.86,-766.78 623.49,-756.35 611.45,-746.2"/>
<polygon fill="none" stroke="black" points="613.5,-743.35 603.6,-739.58 608.99,-748.7 613.5,-743.35"/>
</g>
<!-- AbelianRing -->
<g id="node16" class="node">
<title>AbelianRing</title>
<g id="a_node16"><a xlink:href="https://github.com/mihxil/math/blob/main/mihxil-math/src/main/java/org/meeuw/math/abstractalgebra/AbelianRing.java" xlink:title="{\N|{ + &#160;&#45; \n⇆ | &#160;⋅ \n⇆ | 0 | 1}}">
<polygon fill="none" stroke="black" points="484.5,-788 484.5,-849 607.5,-849 607.5,-788 484.5,-788"/>
<text text-anchor="middle" x="546" y="-833.8" font-family="Times,serif" font-size="14.00">AbelianRing</text>
<polyline fill="none" stroke="black" points="484.5,-826 607.5,-826 "/>
<text text-anchor="middle" x="505.5" y="-810.8" font-family="Times,serif" font-size="14.00">+ &#45; </text>
<text text-anchor="middle" x="505.5" y="-795.8" font-family="Times,serif" font-size="14.00">⇆</text>
<polyline fill="none" stroke="black" points="526.5,-788 526.5,-826 "/>
<text text-anchor="middle" x="541" y="-810.8" font-family="Times,serif" font-size="14.00">⋅</text>
<text text-anchor="middle" x="541" y="-795.8" font-family="Times,serif" font-size="14.00">⇆</text>
<polyline fill="none" stroke="black" points="555.5,-788 555.5,-826 "/>
<text text-anchor="middle" x="568.5" y="-803.3" font-family="Times,serif" font-size="14.00">0</text>
<polyline fill="none" stroke="black" points="581.5,-788 581.5,-826 "/>
<text text-anchor="middle" x="594.5" y="-803.3" font-family="Times,serif" font-size="14.00">1</text>
</a>
</g>
</g>
<!-- AbelianRing&#45;&gt;Ring -->
<g id="edge19" class="edge">
<title>AbelianRing&#45;&gt;Ring</title>
<path fill="none" stroke="black" d="M546,-787.84C546,-776.44 546,-762.98 546,-749.78"/>
<polygon fill="none" stroke="black" points="549.5,-749.78 546,-739.78 542.5,-749.78 549.5,-749.78"/>
</g>
<!-- DivisibleGroup -->
<g id="node17" class="node">
<title>DivisibleGroup</title>
<g id="a_node17"><a xlink:href="https://github.com/mihxil/math/blob/main/mihxil-math/src/main/java/org/meeuw/math/abstractalgebra/DivisibleGroup.java" xlink:title="{\N|{ ⋅ &#160;/ \n⇆ | 1}}">
<polygon fill="none" stroke="black" points="774.5,-788 774.5,-849 897.5,-849 897.5,-788 774.5,-788"/>
<text text-anchor="middle" x="836" y="-833.8" font-family="Times,serif" font-size="14.00">DivisibleGroup</text>
<polyline fill="none" stroke="black" points="774.5,-826 897.5,-826 "/>
<text text-anchor="middle" x="806" y="-810.8" font-family="Times,serif" font-size="14.00">⋅/ </text>
<text text-anchor="middle" x="806" y="-795.8" font-family="Times,serif" font-size="14.00">⇆</text>
<polyline fill="none" stroke="black" points="837.5,-788 837.5,-826 "/>
<text text-anchor="middle" x="867.5" y="-803.3" font-family="Times,serif" font-size="14.00">1</text>
</a>
</g>
</g>
<!-- DivisibleGroup&#45;&gt;MultiplicativeAbelianGroup -->
<g id="edge20" class="edge">
<title>DivisibleGroup&#45;&gt;MultiplicativeAbelianGroup</title>
<path fill="none" stroke="black" d="M836,-787.84C836,-770.91 836,-749.46 836,-731.06"/>
<polygon fill="none" stroke="black" points="839.5,-730.91 836,-720.91 832.5,-730.91 839.5,-730.91"/>
</g>
<!-- Field -->
<g id="node18" class="node">
<title>Field</title>
<g id="a_node18"><a xlink:href="https://github.com/mihxil/math/blob/main/mihxil-math/src/main/java/org/meeuw/math/abstractalgebra/Field.java" xlink:title="{\N|{ + &#160;&#45; \n⇆ | &#160;⋅ &#160;/ \n⇆ | 0 | 1}|ModuloField\nGaussianRationals ᵁ0(i)}">
<polygon fill="none" stroke="black" points="614.5,-897.5 614.5,-996.5 799.5,-996.5 799.5,-897.5 614.5,-897.5"/>
<text text-anchor="middle" x="707" y="-981.3" font-family="Times,serif" font-size="14.00">Field</text>
<polyline fill="none" stroke="black" points="614.5,-973.5 799.5,-973.5 "/>
<text text-anchor="middle" x="643" y="-958.3" font-family="Times,serif" font-size="14.00">+ &#45; </text>
<text text-anchor="middle" x="643" y="-943.3" font-family="Times,serif" font-size="14.00">⇆</text>
<polyline fill="none" stroke="black" points="671.5,-935.5 671.5,-973.5 "/>
<text text-anchor="middle" x="694" y="-958.3" font-family="Times,serif" font-size="14.00">⋅/ </text>
<text text-anchor="middle" x="694" y="-943.3" font-family="Times,serif" font-size="14.00">⇆</text>
<polyline fill="none" stroke="black" points="716.5,-935.5 716.5,-973.5 "/>
<text text-anchor="middle" x="737" y="-950.8" font-family="Times,serif" font-size="14.00">0</text>
<polyline fill="none" stroke="black" points="757.5,-935.5 757.5,-973.5 "/>
<text text-anchor="middle" x="778.5" y="-950.8" font-family="Times,serif" font-size="14.00">1</text>
<polyline fill="none" stroke="black" points="614.5,-935.5 799.5,-935.5 "/>
<text text-anchor="middle" x="707" y="-920.3" font-family="Times,serif" font-size="14.00">ModuloField</text>
<text text-anchor="middle" x="707" y="-905.3" font-family="Times,serif" font-size="14.00">GaussianRationals ᵁ0(i)</text>
</a>
</g>
</g>
<!-- Field&#45;&gt;DivisionRing -->
<g id="edge21" class="edge">
<title>Field&#45;&gt;DivisionRing</title>
<path fill="none" stroke="black" d="M702.78,-897.45C702.02,-888.74 701.23,-879.63 700.46,-870.84"/>
<polygon fill="none" stroke="black" points="703.94,-870.37 699.58,-860.71 696.96,-870.98 703.94,-870.37"/>
</g>
<!-- Field&#45;&gt;AbelianRing -->
<g id="edge22" class="edge">
<title>Field&#45;&gt;AbelianRing</title>
<path fill="none" stroke="black" d="M645.21,-897.45C627.38,-883.44 608.25,-868.41 591.59,-855.32"/>
<polygon fill="none" stroke="black" points="593.66,-852.49 583.63,-849.07 589.33,-858 593.66,-852.49"/>
</g>
<!-- Field&#45;&gt;DivisibleGroup -->
<g id="edge23" class="edge">
<title>Field&#45;&gt;DivisibleGroup</title>
<path fill="none" stroke="black" d="M756.51,-897.45C770.4,-883.82 785.29,-869.23 798.37,-856.4"/>
<polygon fill="none" stroke="black" points="801.16,-858.57 805.85,-849.07 796.26,-853.57 801.16,-858.57"/>
</g>
<!-- VectorSpace -->
<g id="node19" class="node">
<title>VectorSpace</title>
<g id="a_node19"><a xlink:href="https://github.com/mihxil/math/blob/main/mihxil-math/src/main/java/org/meeuw/math/abstractalgebra/VectorSpace.java" xlink:title="{\N|{ + &#160;&#45; \n⇆ | &#160;⋅ \n⇆ | 0 | 1}|Vector3Space ℝₚ³\nℚ³}">
<polygon fill="none" stroke="black" points="455.5,-897.5 455.5,-996.5 596.5,-996.5 596.5,-897.5 455.5,-897.5"/>
<text text-anchor="middle" x="526" y="-981.3" font-family="Times,serif" font-size="14.00">VectorSpace</text>
<polyline fill="none" stroke="black" points="455.5,-973.5 596.5,-973.5 "/>
<text text-anchor="middle" x="478.5" y="-958.3" font-family="Times,serif" font-size="14.00">+ &#45; </text>
<text text-anchor="middle" x="478.5" y="-943.3" font-family="Times,serif" font-size="14.00">⇆</text>
<polyline fill="none" stroke="black" points="501.5,-935.5 501.5,-973.5 "/>
<text text-anchor="middle" x="518.5" y="-958.3" font-family="Times,serif" font-size="14.00">⋅</text>
<text text-anchor="middle" x="518.5" y="-943.3" font-family="Times,serif" font-size="14.00">⇆</text>
<polyline fill="none" stroke="black" points="535.5,-935.5 535.5,-973.5 "/>
<text text-anchor="middle" x="550.5" y="-950.8" font-family="Times,serif" font-size="14.00">0</text>
<polyline fill="none" stroke="black" points="565.5,-935.5 565.5,-973.5 "/>
<text text-anchor="middle" x="581" y="-950.8" font-family="Times,serif" font-size="14.00">1</text>
<polyline fill="none" stroke="black" points="455.5,-935.5 596.5,-935.5 "/>
<text text-anchor="middle" x="526" y="-920.3" font-family="Times,serif" font-size="14.00">Vector3Space ℝₚ³</text>
<text text-anchor="middle" x="526" y="-905.3" font-family="Times,serif" font-size="14.00">ℚ³</text>
</a>
</g>
</g>
<!-- VectorSpace&#45;&gt;AbelianRing -->
<g id="edge24" class="edge">
<title>VectorSpace&#45;&gt;AbelianRing</title>
<path fill="none" stroke="black" d="M533.68,-897.45C535.67,-884.84 537.79,-871.41 539.71,-859.31"/>
<polygon fill="none" stroke="black" points="543.22,-859.49 541.33,-849.07 536.31,-858.4 543.22,-859.49"/>
</g>
<!-- ScalarField -->
<g id="node20" class="node">
<title>ScalarField</title>
<g id="a_node20"><a xlink:href="https://github.com/mihxil/math/blob/main/mihxil-math/src/main/java/org/meeuw/math/abstractalgebra/ScalarField.java" xlink:title="{\N|{ + &#160;&#45; \n⇆ | &#160;⋅ &#160;/ \n⇆ | 0 | 1}|RationalNumbers ℚ}">
<polygon fill="none" stroke="black" points="628,-1033.5 628,-1117.5 786,-1117.5 786,-1033.5 628,-1033.5"/>
<text text-anchor="middle" x="707" y="-1102.3" font-family="Times,serif" font-size="14.00">ScalarField</text>
<polyline fill="none" stroke="black" points="628,-1094.5 786,-1094.5 "/>
<text text-anchor="middle" x="653" y="-1079.3" font-family="Times,serif" font-size="14.00">+ &#45; </text>
<text text-anchor="middle" x="653" y="-1064.3" font-family="Times,serif" font-size="14.00">⇆</text>
<polyline fill="none" stroke="black" points="678,-1056.5 678,-1094.5 "/>
<text text-anchor="middle" x="697.5" y="-1079.3" font-family="Times,serif" font-size="14.00">⋅/ </text>
<text text-anchor="middle" x="697.5" y="-1064.3" font-family="Times,serif" font-size="14.00">⇆</text>
<polyline fill="none" stroke="black" points="717,-1056.5 717,-1094.5 "/>
<text text-anchor="middle" x="734" y="-1071.8" font-family="Times,serif" font-size="14.00">0</text>
<polyline fill="none" stroke="black" points="751,-1056.5 751,-1094.5 "/>
<text text-anchor="middle" x="768.5" y="-1071.8" font-family="Times,serif" font-size="14.00">1</text>
<polyline fill="none" stroke="black" points="628,-1056.5 786,-1056.5 "/>
<text text-anchor="middle" x="707" y="-1041.3" font-family="Times,serif" font-size="14.00">RationalNumbers ℚ</text>
</a>
</g>
</g>
<!-- ScalarField&#45;&gt;Field -->
<g id="edge25" class="edge">
<title>ScalarField&#45;&gt;Field</title>
<path fill="none" stroke="black" d="M707,-1033.43C707,-1024.94 707,-1015.84 707,-1006.85"/>
<polygon fill="none" stroke="black" points="710.5,-1006.8 707,-996.8 703.5,-1006.8 710.5,-1006.8"/>
</g>
<!-- CompleteField -->
<g id="node21" class="node">
<title>CompleteField</title>
<g id="a_node21"><a xlink:href="https://github.com/mihxil/math/blob/main/mihxil-math/src/main/java/org/meeuw/math/abstractalgebra/CompleteField.java" xlink:title="{\N|{ + &#160;&#45; \n⇆ | &#160;⋅ &#160;/ \n⇆ | 0 | 1}|BigDecimalField ℝ\nRealField ℝₚ}">
<polygon fill="none" stroke="black" points="631.5,-1154.5 631.5,-1253.5 782.5,-1253.5 782.5,-1154.5 631.5,-1154.5"/>
<text text-anchor="middle" x="707" y="-1238.3" font-family="Times,serif" font-size="14.00">CompleteField</text>
<polyline fill="none" stroke="black" points="631.5,-1230.5 782.5,-1230.5 "/>
<text text-anchor="middle" x="655.5" y="-1215.3" font-family="Times,serif" font-size="14.00">+ &#45; </text>
<text text-anchor="middle" x="655.5" y="-1200.3" font-family="Times,serif" font-size="14.00">⇆</text>
<polyline fill="none" stroke="black" points="679.5,-1192.5 679.5,-1230.5 "/>
<text text-anchor="middle" x="698" y="-1215.3" font-family="Times,serif" font-size="14.00">⋅/ </text>
<text text-anchor="middle" x="698" y="-1200.3" font-family="Times,serif" font-size="14.00">⇆</text>
<polyline fill="none" stroke="black" points="716.5,-1192.5 716.5,-1230.5 "/>
<text text-anchor="middle" x="733" y="-1207.8" font-family="Times,serif" font-size="14.00">0</text>
<polyline fill="none" stroke="black" points="749.5,-1192.5 749.5,-1230.5 "/>
<text text-anchor="middle" x="766" y="-1207.8" font-family="Times,serif" font-size="14.00">1</text>
<polyline fill="none" stroke="black" points="631.5,-1192.5 782.5,-1192.5 "/>
<text text-anchor="middle" x="707" y="-1177.3" font-family="Times,serif" font-size="14.00">BigDecimalField ℝ</text>
<text text-anchor="middle" x="707" y="-1162.3" font-family="Times,serif" font-size="14.00">RealField ℝₚ</text>
</a>
</g>
</g>
<!-- CompleteField&#45;&gt;ScalarField -->
<g id="edge26" class="edge">
<title>CompleteField&#45;&gt;ScalarField</title>
<path fill="none" stroke="black" d="M707,-1154.45C707,-1145.74 707,-1136.63 707,-1127.84"/>
<polygon fill="none" stroke="black" points="710.5,-1127.71 707,-1117.71 703.5,-1127.71 710.5,-1127.71"/>
</g>
</g>
</svg>
