<?xml version="1.0" encoding="UTF-8" standalone="no"?>
<!DOCTYPE svg PUBLIC "-//W3C//DTD SVG 1.1//EN"
 "http://www.w3.org/Graphics/SVG/1.1/DTD/svg11.dtd">
<!-- Generated by graphviz version 2.50.0 (20211204.2007)
 -->
<!-- Pages: 1 -->
<svg width="445pt" height="1156pt"
 viewBox="0.00 0.00 444.50 1156.00" xmlns="http://www.w3.org/2000/svg" xmlns:xlink="http://www.w3.org/1999/xlink">
<g id="graph0" class="graph" transform="scale(1 1) rotate(0) translate(4 1152)">
<polygon fill="white" stroke="transparent" points="-4,4 -4,-1152 440.5,-1152 440.5,4 -4,4"/>
<!-- AdditiveSemiGroup -->
<g id="node1" class="node">
<title>AdditiveSemiGroup</title>
<g id="a_node1"><a xlink:href="https://github.com/mihxil/math/blob/main/mihxil-math/src/main/java/org/meeuw/math/abstractalgebra/AdditiveSemiGroup.java" xlink:title="{\N|{ + }}">
<polygon fill="none" stroke="black" points="110.5,-73.5 110.5,-119.5 237.5,-119.5 237.5,-73.5 110.5,-73.5"/>
<text text-anchor="middle" x="174" y="-104.3" font-family="Times,serif" font-size="14.00">AdditiveSemiGroup</text>
<polyline fill="none" stroke="black" points="110.5,-96.5 237.5,-96.5 "/>
<text text-anchor="middle" x="174" y="-81.3" font-family="Times,serif" font-size="14.00">+</text>
</a>
</g>
</g>
<!-- AlgebraicStructure -->
<g id="node2" class="node">
<title>AlgebraicStructure</title>
<polygon fill="none" stroke="black" points="160.5,-0.5 160.5,-36.5 279.5,-36.5 279.5,-0.5 160.5,-0.5"/>
<text text-anchor="middle" x="220" y="-14.8" font-family="Times,serif" font-size="14.00">AlgebraicStructure</text>
</g>
<!-- AdditiveSemiGroup&#45;&gt;AlgebraicStructure -->
<g id="edge1" class="edge">
<title>AdditiveSemiGroup&#45;&gt;AlgebraicStructure</title>
<path fill="none" stroke="black" d="M187.55,-73.11C192.8,-64.44 198.84,-54.46 204.28,-45.48"/>
<polygon fill="none" stroke="black" points="207.28,-47.28 209.46,-36.91 201.29,-43.65 207.28,-47.28"/>
</g>
<!-- MultiplicativeSemiGroup -->
<g id="node3" class="node">
<title>MultiplicativeSemiGroup</title>
<g id="a_node3"><a xlink:href="https://github.com/mihxil/math/blob/main/mihxil-math/src/main/java/org/meeuw/math/abstractalgebra/MultiplicativeSemiGroup.java" xlink:title="{\N|{ * }}">
<polygon fill="none" stroke="black" points="197.5,-353 197.5,-399 354.5,-399 354.5,-353 197.5,-353"/>
<text text-anchor="middle" x="276" y="-383.8" font-family="Times,serif" font-size="14.00">MultiplicativeSemiGroup</text>
<polyline fill="none" stroke="black" points="197.5,-376 354.5,-376 "/>
<text text-anchor="middle" x="276" y="-360.8" font-family="Times,serif" font-size="14.00">*</text>
</a>
</g>
</g>
<!-- MultiplicativeSemiGroup&#45;&gt;AlgebraicStructure -->
<g id="edge2" class="edge">
<title>MultiplicativeSemiGroup&#45;&gt;AlgebraicStructure</title>
<path fill="none" stroke="black" d="M276.64,-352.88C277.51,-302.24 276.34,-174.45 247,-73 244.31,-63.71 240.01,-54.1 235.63,-45.64"/>
<polygon fill="none" stroke="black" points="238.59,-43.76 230.72,-36.66 232.44,-47.11 238.59,-43.76"/>
</g>
<!-- AdditiveMonoid -->
<g id="node4" class="node">
<title>AdditiveMonoid</title>
<g id="a_node4"><a xlink:href="https://github.com/mihxil/math/blob/main/mihxil-math/src/main/java/org/meeuw/math/abstractalgebra/AdditiveMonoid.java" xlink:title="{\N|{ + &#160;| 0}|StringMonoid}">
<polygon fill="none" stroke="black" points="111.5,-156.5 111.5,-225.5 218.5,-225.5 218.5,-156.5 111.5,-156.5"/>
<text text-anchor="middle" x="165" y="-210.3" font-family="Times,serif" font-size="14.00">AdditiveMonoid</text>
<polyline fill="none" stroke="black" points="111.5,-202.5 218.5,-202.5 "/>
<text text-anchor="middle" x="138.5" y="-187.3" font-family="Times,serif" font-size="14.00">+</text>
<polyline fill="none" stroke="black" points="165.5,-179.5 165.5,-202.5 "/>
<text text-anchor="middle" x="192" y="-187.3" font-family="Times,serif" font-size="14.00">0</text>
<polyline fill="none" stroke="black" points="111.5,-179.5 218.5,-179.5 "/>
<text text-anchor="middle" x="165" y="-164.3" font-family="Times,serif" font-size="14.00">StringMonoid</text>
</a>
</g>
</g>
<!-- AdditiveMonoid&#45;&gt;AdditiveSemiGroup -->
<g id="edge3" class="edge">
<title>AdditiveMonoid&#45;&gt;AdditiveSemiGroup</title>
<path fill="none" stroke="black" d="M168.27,-156.34C169.12,-147.68 170.02,-138.37 170.86,-129.78"/>
<polygon fill="none" stroke="black" points="174.35,-130.03 171.84,-119.74 167.38,-129.35 174.35,-130.03"/>
</g>
<!-- MultiplicativeMonoid -->
<g id="node5" class="node">
<title>MultiplicativeMonoid</title>
<g id="a_node5"><a xlink:href="https://github.com/mihxil/math/blob/main/mihxil-math/src/main/java/org/meeuw/math/abstractalgebra/MultiplicativeMonoid.java" xlink:title="{\N|{ * &#160;| 1}|OddIntegers}">
<polygon fill="none" stroke="black" points="207.5,-451 207.5,-520 344.5,-520 344.5,-451 207.5,-451"/>
<text text-anchor="middle" x="276" y="-504.8" font-family="Times,serif" font-size="14.00">MultiplicativeMonoid</text>
<polyline fill="none" stroke="black" points="207.5,-497 344.5,-497 "/>
<text text-anchor="middle" x="241.5" y="-481.8" font-family="Times,serif" font-size="14.00">*</text>
<polyline fill="none" stroke="black" points="275.5,-474 275.5,-497 "/>
<text text-anchor="middle" x="310" y="-481.8" font-family="Times,serif" font-size="14.00">1</text>
<polyline fill="none" stroke="black" points="207.5,-474 344.5,-474 "/>
<text text-anchor="middle" x="276" y="-458.8" font-family="Times,serif" font-size="14.00">OddIntegers</text>
</a>
</g>
</g>
<!-- MultiplicativeMonoid&#45;&gt;MultiplicativeSemiGroup -->
<g id="edge4" class="edge">
<title>MultiplicativeMonoid&#45;&gt;MultiplicativeSemiGroup</title>
<path fill="none" stroke="black" d="M276,-450.78C276,-437.47 276,-422.24 276,-409.09"/>
<polygon fill="none" stroke="black" points="279.5,-409.07 276,-399.07 272.5,-409.07 279.5,-409.07"/>
</g>
<!-- Rng -->
<g id="node6" class="node">
<title>Rng</title>
<g id="a_node6"><a xlink:href="https://github.com/mihxil/math/blob/main/mihxil-math/src/main/java/org/meeuw/math/abstractalgebra/Rng.java" xlink:title="{\N|{ + &#160;&#45; \n⇆ | &#160;* &#160;| 0}|EvenIntegers}">
<polygon fill="none" stroke="black" points="80,-443.5 80,-527.5 168,-527.5 168,-443.5 80,-443.5"/>
<text text-anchor="middle" x="124" y="-512.3" font-family="Times,serif" font-size="14.00">Rng</text>
<polyline fill="none" stroke="black" points="80,-504.5 168,-504.5 "/>
<text text-anchor="middle" x="99" y="-489.3" font-family="Times,serif" font-size="14.00">+ &#45; </text>
<text text-anchor="middle" x="99" y="-474.3" font-family="Times,serif" font-size="14.00">⇆</text>
<polyline fill="none" stroke="black" points="118,-466.5 118,-504.5 "/>
<text text-anchor="middle" x="130.5" y="-481.8" font-family="Times,serif" font-size="14.00">*</text>
<polyline fill="none" stroke="black" points="143,-466.5 143,-504.5 "/>
<text text-anchor="middle" x="155.5" y="-481.8" font-family="Times,serif" font-size="14.00">0</text>
<polyline fill="none" stroke="black" points="80,-466.5 168,-466.5 "/>
<text text-anchor="middle" x="124" y="-451.3" font-family="Times,serif" font-size="14.00">EvenIntegers</text>
</a>
</g>
</g>
<!-- Rng&#45;&gt;MultiplicativeSemiGroup -->
<g id="edge5" class="edge">
<title>Rng&#45;&gt;MultiplicativeSemiGroup</title>
<path fill="none" stroke="black" d="M168.37,-453.12C189.94,-437.87 215.64,-419.69 236.51,-404.93"/>
<polygon fill="none" stroke="black" points="238.7,-407.67 244.85,-399.03 234.66,-401.95 238.7,-407.67"/>
</g>
<!-- AdditiveAbelianGroup -->
<g id="node7" class="node">
<title>AdditiveAbelianGroup</title>
<g id="a_node7"><a xlink:href="https://github.com/mihxil/math/blob/main/mihxil-math/src/main/java/org/meeuw/math/abstractalgebra/AdditiveAbelianGroup.java" xlink:title="{\N|{ + &#160;&#45; \n⇆ | 0}}">
<polygon fill="none" stroke="black" points="38.5,-345.5 38.5,-406.5 179.5,-406.5 179.5,-345.5 38.5,-345.5"/>
<text text-anchor="middle" x="109" y="-391.3" font-family="Times,serif" font-size="14.00">AdditiveAbelianGroup</text>
<polyline fill="none" stroke="black" points="38.5,-383.5 179.5,-383.5 "/>
<text text-anchor="middle" x="77" y="-368.3" font-family="Times,serif" font-size="14.00">+ &#45; </text>
<text text-anchor="middle" x="77" y="-353.3" font-family="Times,serif" font-size="14.00">⇆</text>
<polyline fill="none" stroke="black" points="115.5,-345.5 115.5,-383.5 "/>
<text text-anchor="middle" x="147.5" y="-360.8" font-family="Times,serif" font-size="14.00">0</text>
</a>
</g>
</g>
<!-- Rng&#45;&gt;AdditiveAbelianGroup -->
<g id="edge6" class="edge">
<title>Rng&#45;&gt;AdditiveAbelianGroup</title>
<path fill="none" stroke="black" d="M118.24,-443.25C117.02,-434.48 115.73,-425.24 114.52,-416.54"/>
<polygon fill="none" stroke="black" points="117.98,-416.05 113.13,-406.63 111.05,-417.02 117.98,-416.05"/>
</g>
<!-- AdditiveGroup -->
<g id="node8" class="node">
<title>AdditiveGroup</title>
<g id="a_node8"><a xlink:href="https://github.com/mihxil/math/blob/main/mihxil-math/src/main/java/org/meeuw/math/abstractalgebra/AdditiveGroup.java" xlink:title="{\N|{ + &#160;&#45; &#160;| 0}}">
<polygon fill="none" stroke="black" points="97,-262.5 97,-308.5 195,-308.5 195,-262.5 97,-262.5"/>
<text text-anchor="middle" x="146" y="-293.3" font-family="Times,serif" font-size="14.00">AdditiveGroup</text>
<polyline fill="none" stroke="black" points="97,-285.5 195,-285.5 "/>
<text text-anchor="middle" x="124" y="-270.3" font-family="Times,serif" font-size="14.00">+ &#45;</text>
<polyline fill="none" stroke="black" points="151,-262.5 151,-285.5 "/>
<text text-anchor="middle" x="173" y="-270.3" font-family="Times,serif" font-size="14.00">0</text>
</a>
</g>
</g>
<!-- AdditiveAbelianGroup&#45;&gt;AdditiveGroup -->
<g id="edge10" class="edge">
<title>AdditiveAbelianGroup&#45;&gt;AdditiveGroup</title>
<path fill="none" stroke="black" d="M121.53,-345.04C125.19,-336.27 129.21,-326.67 132.9,-317.82"/>
<polygon fill="none" stroke="black" points="136.13,-319.17 136.76,-308.6 129.68,-316.47 136.13,-319.17"/>
</g>
<!-- AdditiveGroup&#45;&gt;AdditiveMonoid -->
<g id="edge7" class="edge">
<title>AdditiveGroup&#45;&gt;AdditiveMonoid</title>
<path fill="none" stroke="black" d="M150.6,-262.11C152.24,-254.1 154.16,-244.77 156.05,-235.59"/>
<polygon fill="none" stroke="black" points="159.48,-236.25 158.07,-225.75 152.63,-234.84 159.48,-236.25"/>
</g>
<!-- MultiplicativeGroup -->
<g id="node9" class="node">
<title>MultiplicativeGroup</title>
<g id="a_node9"><a xlink:href="https://github.com/mihxil/math/blob/main/mihxil-math/src/main/java/org/meeuw/math/abstractalgebra/MultiplicativeGroup.java" xlink:title="{\N|{ * &#160;/ &#160;| 1}|PermutationGroup}">
<polygon fill="none" stroke="black" points="212,-572 212,-641 340,-641 340,-572 212,-572"/>
<text text-anchor="middle" x="276" y="-625.8" font-family="Times,serif" font-size="14.00">MultiplicativeGroup</text>
<polyline fill="none" stroke="black" points="212,-618 340,-618 "/>
<text text-anchor="middle" x="246" y="-602.8" font-family="Times,serif" font-size="14.00">* /</text>
<polyline fill="none" stroke="black" points="280,-595 280,-618 "/>
<text text-anchor="middle" x="310" y="-602.8" font-family="Times,serif" font-size="14.00">1</text>
<polyline fill="none" stroke="black" points="212,-595 340,-595 "/>
<text text-anchor="middle" x="276" y="-579.8" font-family="Times,serif" font-size="14.00">PermutationGroup</text>
</a>
</g>
</g>
<!-- MultiplicativeGroup&#45;&gt;MultiplicativeMonoid -->
<g id="edge8" class="edge">
<title>MultiplicativeGroup&#45;&gt;MultiplicativeMonoid</title>
<path fill="none" stroke="black" d="M276,-571.72C276,-558.9 276,-544.12 276,-530.5"/>
<polygon fill="none" stroke="black" points="279.5,-530.37 276,-520.37 272.5,-530.37 279.5,-530.37"/>
</g>
<!-- Ring -->
<g id="node10" class="node">
<title>Ring</title>
<g id="a_node10"><a xlink:href="https://github.com/mihxil/math/blob/main/mihxil-math/src/main/java/org/meeuw/math/abstractalgebra/Ring.java" xlink:title="{\N|{ + &#160;&#45; \n⇆ | &#160;* &#160;| 0 | 1}|ModuloStructure}">
<polygon fill="none" stroke="black" points="69,-564.5 69,-648.5 179,-648.5 179,-564.5 69,-564.5"/>
<text text-anchor="middle" x="124" y="-633.3" font-family="Times,serif" font-size="14.00">Ring</text>
<polyline fill="none" stroke="black" points="69,-625.5 179,-625.5 "/>
<text text-anchor="middle" x="88" y="-610.3" font-family="Times,serif" font-size="14.00">+ &#45; </text>
<text text-anchor="middle" x="88" y="-595.3" font-family="Times,serif" font-size="14.00">⇆</text>
<polyline fill="none" stroke="black" points="107,-587.5 107,-625.5 "/>
<text text-anchor="middle" x="119" y="-602.8" font-family="Times,serif" font-size="14.00">*</text>
<polyline fill="none" stroke="black" points="131,-587.5 131,-625.5 "/>
<text text-anchor="middle" x="143" y="-602.8" font-family="Times,serif" font-size="14.00">0</text>
<polyline fill="none" stroke="black" points="155,-587.5 155,-625.5 "/>
<text text-anchor="middle" x="167" y="-602.8" font-family="Times,serif" font-size="14.00">1</text>
<polyline fill="none" stroke="black" points="69,-587.5 179,-587.5 "/>
<text text-anchor="middle" x="124" y="-572.3" font-family="Times,serif" font-size="14.00">ModuloStructure</text>
</a>
</g>
</g>
<!-- Ring&#45;&gt;Rng -->
<g id="edge9" class="edge">
<title>Ring&#45;&gt;Rng</title>
<path fill="none" stroke="black" d="M124,-564.21C124,-555.72 124,-546.68 124,-537.88"/>
<polygon fill="none" stroke="black" points="127.5,-537.71 124,-527.71 120.5,-537.71 127.5,-537.71"/>
</g>
<!-- MultiplicativeAbelianGroup -->
<g id="node11" class="node">
<title>MultiplicativeAbelianGroup</title>
<g id="a_node11"><a xlink:href="https://github.com/mihxil/math/blob/main/mihxil-math/src/main/java/org/meeuw/math/abstractalgebra/MultiplicativeAbelianGroup.java" xlink:title="{\N|{ * &#160;/ \n⇆ | 1}}">
<polygon fill="none" stroke="black" points="265.5,-697 265.5,-758 436.5,-758 436.5,-697 265.5,-697"/>
<text text-anchor="middle" x="351" y="-742.8" font-family="Times,serif" font-size="14.00">MultiplicativeAbelianGroup</text>
<polyline fill="none" stroke="black" points="265.5,-735 436.5,-735 "/>
<text text-anchor="middle" x="311" y="-719.8" font-family="Times,serif" font-size="14.00">* / </text>
<text text-anchor="middle" x="311" y="-704.8" font-family="Times,serif" font-size="14.00">⇆</text>
<polyline fill="none" stroke="black" points="356.5,-697 356.5,-735 "/>
<text text-anchor="middle" x="396.5" y="-712.3" font-family="Times,serif" font-size="14.00">1</text>
</a>
</g>
</g>
<!-- MultiplicativeAbelianGroup&#45;&gt;MultiplicativeGroup -->
<g id="edge11" class="edge">
<title>MultiplicativeAbelianGroup&#45;&gt;MultiplicativeGroup</title>
<path fill="none" stroke="black" d="M332.27,-696.78C323.26,-682.49 312.31,-665.11 302.47,-649.5"/>
<polygon fill="none" stroke="black" points="305.43,-647.63 297.14,-641.04 299.51,-651.37 305.43,-647.63"/>
</g>
<!-- DivisionRing -->
<g id="node12" class="node">
<title>DivisionRing</title>
<g id="a_node12"><a xlink:href="https://github.com/mihxil/math/blob/main/mihxil-math/src/main/java/org/meeuw/math/abstractalgebra/DivisionRing.java" xlink:title="{\N|{ + &#160;&#45; \n⇆ | &#160;* &#160;/ &#160;| 0 | 1}|Quaternions}">
<polygon fill="none" stroke="black" points="133,-685.5 133,-769.5 247,-769.5 247,-685.5 133,-685.5"/>
<text text-anchor="middle" x="190" y="-754.3" font-family="Times,serif" font-size="14.00">DivisionRing</text>
<polyline fill="none" stroke="black" points="133,-746.5 247,-746.5 "/>
<text text-anchor="middle" x="151.5" y="-731.3" font-family="Times,serif" font-size="14.00">+ &#45; </text>
<text text-anchor="middle" x="151.5" y="-716.3" font-family="Times,serif" font-size="14.00">⇆</text>
<polyline fill="none" stroke="black" points="170,-708.5 170,-746.5 "/>
<text text-anchor="middle" x="185.5" y="-723.8" font-family="Times,serif" font-size="14.00">* /</text>
<polyline fill="none" stroke="black" points="201,-708.5 201,-746.5 "/>
<text text-anchor="middle" x="212.5" y="-723.8" font-family="Times,serif" font-size="14.00">0</text>
<polyline fill="none" stroke="black" points="224,-708.5 224,-746.5 "/>
<text text-anchor="middle" x="235.5" y="-723.8" font-family="Times,serif" font-size="14.00">1</text>
<polyline fill="none" stroke="black" points="133,-708.5 247,-708.5 "/>
<text text-anchor="middle" x="190" y="-693.3" font-family="Times,serif" font-size="14.00">Quaternions</text>
</a>
</g>
</g>
<!-- DivisionRing&#45;&gt;MultiplicativeGroup -->
<g id="edge12" class="edge">
<title>DivisionRing&#45;&gt;MultiplicativeGroup</title>
<path fill="none" stroke="black" d="M219.84,-685.21C228.19,-673.65 237.28,-661.08 245.66,-649.48"/>
<polygon fill="none" stroke="black" points="248.6,-651.39 251.62,-641.23 242.93,-647.29 248.6,-651.39"/>
</g>
<!-- DivisionRing&#45;&gt;Ring -->
<g id="edge13" class="edge">
<title>DivisionRing&#45;&gt;Ring</title>
<path fill="none" stroke="black" d="M167.1,-685.21C162.19,-676.35 156.94,-666.9 151.86,-657.74"/>
<polygon fill="none" stroke="black" points="154.77,-655.76 146.86,-648.71 148.65,-659.16 154.77,-655.76"/>
</g>
<!-- AbelianRing -->
<g id="node13" class="node">
<title>AbelianRing</title>
<g id="a_node13"><a xlink:href="https://github.com/mihxil/math/blob/main/mihxil-math/src/main/java/org/meeuw/math/abstractalgebra/AbelianRing.java" xlink:title="{\N|{ + &#160;&#45; \n⇆ | &#160;* \n⇆ | 0 | 1}}">
<polygon fill="none" stroke="black" points="1,-697 1,-758 115,-758 115,-697 1,-697"/>
<text text-anchor="middle" x="58" y="-742.8" font-family="Times,serif" font-size="14.00">AbelianRing</text>
<polyline fill="none" stroke="black" points="1,-735 115,-735 "/>
<text text-anchor="middle" x="19.5" y="-719.8" font-family="Times,serif" font-size="14.00">+ &#45; </text>
<text text-anchor="middle" x="19.5" y="-704.8" font-family="Times,serif" font-size="14.00">⇆</text>
<polyline fill="none" stroke="black" points="38,-697 38,-735 "/>
<text text-anchor="middle" x="53.5" y="-719.8" font-family="Times,serif" font-size="14.00">* </text>
<text text-anchor="middle" x="53.5" y="-704.8" font-family="Times,serif" font-size="14.00">⇆</text>
<polyline fill="none" stroke="black" points="69,-697 69,-735 "/>
<text text-anchor="middle" x="80.5" y="-712.3" font-family="Times,serif" font-size="14.00">0</text>
<polyline fill="none" stroke="black" points="92,-697 92,-735 "/>
<text text-anchor="middle" x="103.5" y="-712.3" font-family="Times,serif" font-size="14.00">1</text>
</a>
</g>
</g>
<!-- AbelianRing&#45;&gt;Ring -->
<g id="edge14" class="edge">
<title>AbelianRing&#45;&gt;Ring</title>
<path fill="none" stroke="black" d="M74.48,-696.78C81.06,-684.92 88.82,-670.94 96.21,-657.6"/>
<polygon fill="none" stroke="black" points="99.47,-658.95 101.26,-648.5 93.35,-655.55 99.47,-658.95"/>
</g>
<!-- Field -->
<g id="node14" class="node">
<title>Field</title>
<g id="a_node14"><a xlink:href="https://github.com/mihxil/math/blob/main/mihxil-math/src/main/java/org/meeuw/math/abstractalgebra/Field.java" xlink:title="{\N|{ + &#160;&#45; \n⇆ | &#160;* &#160;/ \n⇆ | 0 | 1}|ModuloField\nGaussianRationals}">
<polygon fill="none" stroke="black" points="132,-806.5 132,-905.5 250,-905.5 250,-806.5 132,-806.5"/>
<text text-anchor="middle" x="191" y="-890.3" font-family="Times,serif" font-size="14.00">Field</text>
<polyline fill="none" stroke="black" points="132,-882.5 250,-882.5 "/>
<text text-anchor="middle" x="150.5" y="-867.3" font-family="Times,serif" font-size="14.00">+ &#45; </text>
<text text-anchor="middle" x="150.5" y="-852.3" font-family="Times,serif" font-size="14.00">⇆</text>
<polyline fill="none" stroke="black" points="169,-844.5 169,-882.5 "/>
<text text-anchor="middle" x="186.5" y="-867.3" font-family="Times,serif" font-size="14.00">* / </text>
<text text-anchor="middle" x="186.5" y="-852.3" font-family="Times,serif" font-size="14.00">⇆</text>
<polyline fill="none" stroke="black" points="204,-844.5 204,-882.5 "/>
<text text-anchor="middle" x="215.5" y="-859.8" font-family="Times,serif" font-size="14.00">0</text>
<polyline fill="none" stroke="black" points="227,-844.5 227,-882.5 "/>
<text text-anchor="middle" x="238.5" y="-859.8" font-family="Times,serif" font-size="14.00">1</text>
<polyline fill="none" stroke="black" points="132,-844.5 250,-844.5 "/>
<text text-anchor="middle" x="191" y="-829.3" font-family="Times,serif" font-size="14.00">ModuloField</text>
<text text-anchor="middle" x="191" y="-814.3" font-family="Times,serif" font-size="14.00">GaussianRationals</text>
</a>
</g>
</g>
<!-- Field&#45;&gt;MultiplicativeAbelianGroup -->
<g id="edge15" class="edge">
<title>Field&#45;&gt;MultiplicativeAbelianGroup</title>
<path fill="none" stroke="black" d="M250.12,-808.26C268.33,-793.86 288.09,-778.24 305.25,-764.67"/>
<polygon fill="none" stroke="black" points="307.78,-767.13 313.45,-758.18 303.44,-761.64 307.78,-767.13"/>
</g>
<!-- Field&#45;&gt;DivisionRing -->
<g id="edge16" class="edge">
<title>Field&#45;&gt;DivisionRing</title>
<path fill="none" stroke="black" d="M190.62,-806.45C190.55,-797.74 190.48,-788.63 190.41,-779.84"/>
<polygon fill="none" stroke="black" points="193.9,-779.68 190.33,-769.71 186.91,-779.74 193.9,-779.68"/>
</g>
<!-- Field&#45;&gt;AbelianRing -->
<g id="edge17" class="edge">
<title>Field&#45;&gt;AbelianRing</title>
<path fill="none" stroke="black" d="M139.96,-806.45C125.5,-792.7 110,-777.96 96.42,-765.04"/>
<polygon fill="none" stroke="black" points="98.75,-762.42 89.09,-758.07 93.92,-767.5 98.75,-762.42"/>
</g>
<!-- VectorSpace -->
<g id="node15" class="node">
<title>VectorSpace</title>
<g id="a_node15"><a xlink:href="https://github.com/mihxil/math/blob/main/mihxil-math/src/main/java/org/meeuw/math/abstractalgebra/VectorSpace.java" xlink:title="{\N|{ + &#160;&#45; \n⇆ | &#160;* \n⇆ | 0 | 1}|Vector3Space}">
<polygon fill="none" stroke="black" points="0,-814 0,-898 114,-898 114,-814 0,-814"/>
<text text-anchor="middle" x="57" y="-882.8" font-family="Times,serif" font-size="14.00">VectorSpace</text>
<polyline fill="none" stroke="black" points="0,-875 114,-875 "/>
<text text-anchor="middle" x="18.5" y="-859.8" font-family="Times,serif" font-size="14.00">+ &#45; </text>
<text text-anchor="middle" x="18.5" y="-844.8" font-family="Times,serif" font-size="14.00">⇆</text>
<polyline fill="none" stroke="black" points="37,-837 37,-875 "/>
<text text-anchor="middle" x="52.5" y="-859.8" font-family="Times,serif" font-size="14.00">* </text>
<text text-anchor="middle" x="52.5" y="-844.8" font-family="Times,serif" font-size="14.00">⇆</text>
<polyline fill="none" stroke="black" points="68,-837 68,-875 "/>
<text text-anchor="middle" x="79.5" y="-852.3" font-family="Times,serif" font-size="14.00">0</text>
<polyline fill="none" stroke="black" points="91,-837 91,-875 "/>
<text text-anchor="middle" x="102.5" y="-852.3" font-family="Times,serif" font-size="14.00">1</text>
<polyline fill="none" stroke="black" points="0,-837 114,-837 "/>
<text text-anchor="middle" x="57" y="-821.8" font-family="Times,serif" font-size="14.00">Vector3Space</text>
</a>
</g>
</g>
<!-- VectorSpace&#45;&gt;AbelianRing -->
<g id="edge18" class="edge">
<title>VectorSpace&#45;&gt;AbelianRing</title>
<path fill="none" stroke="black" d="M57.32,-813.93C57.44,-799.3 57.57,-782.86 57.69,-768.33"/>
<polygon fill="none" stroke="black" points="61.19,-768.18 57.77,-758.15 54.19,-768.12 61.19,-768.18"/>
</g>
<!-- ScalarField -->
<g id="node16" class="node">
<title>ScalarField</title>
<g id="a_node16"><a xlink:href="https://github.com/mihxil/math/blob/main/mihxil-math/src/main/java/org/meeuw/math/abstractalgebra/ScalarField.java" xlink:title="{\N|{ + &#160;&#45; \n⇆ | &#160;* &#160;/ \n⇆ | 0 | 1}|RationalNumbers}">
<polygon fill="none" stroke="black" points="132,-942.5 132,-1026.5 250,-1026.5 250,-942.5 132,-942.5"/>
<text text-anchor="middle" x="191" y="-1011.3" font-family="Times,serif" font-size="14.00">ScalarField</text>
<polyline fill="none" stroke="black" points="132,-1003.5 250,-1003.5 "/>
<text text-anchor="middle" x="150.5" y="-988.3" font-family="Times,serif" font-size="14.00">+ &#45; </text>
<text text-anchor="middle" x="150.5" y="-973.3" font-family="Times,serif" font-size="14.00">⇆</text>
<polyline fill="none" stroke="black" points="169,-965.5 169,-1003.5 "/>
<text text-anchor="middle" x="186.5" y="-988.3" font-family="Times,serif" font-size="14.00">* / </text>
<text text-anchor="middle" x="186.5" y="-973.3" font-family="Times,serif" font-size="14.00">⇆</text>
<polyline fill="none" stroke="black" points="204,-965.5 204,-1003.5 "/>
<text text-anchor="middle" x="215.5" y="-980.8" font-family="Times,serif" font-size="14.00">0</text>
<polyline fill="none" stroke="black" points="227,-965.5 227,-1003.5 "/>
<text text-anchor="middle" x="238.5" y="-980.8" font-family="Times,serif" font-size="14.00">1</text>
<polyline fill="none" stroke="black" points="132,-965.5 250,-965.5 "/>
<text text-anchor="middle" x="191" y="-950.3" font-family="Times,serif" font-size="14.00">RationalNumbers</text>
</a>
</g>
</g>
<!-- ScalarField&#45;&gt;Field -->
<g id="edge19" class="edge">
<title>ScalarField&#45;&gt;Field</title>
<path fill="none" stroke="black" d="M191,-942.43C191,-933.94 191,-924.84 191,-915.85"/>
<polygon fill="none" stroke="black" points="194.5,-915.8 191,-905.8 187.5,-915.8 194.5,-915.8"/>
</g>
<!-- CompleteField -->
<g id="node17" class="node">
<title>CompleteField</title>
<g id="a_node17"><a xlink:href="https://github.com/mihxil/math/blob/main/mihxil-math/src/main/java/org/meeuw/math/abstractalgebra/CompleteField.java" xlink:title="{\N|{ + &#160;&#45; \n⇆ | &#160;* &#160;/ \n⇆ | 0 | 1}|RealField}">
<polygon fill="none" stroke="black" points="132,-1063.5 132,-1147.5 250,-1147.5 250,-1063.5 132,-1063.5"/>
<text text-anchor="middle" x="191" y="-1132.3" font-family="Times,serif" font-size="14.00">CompleteField</text>
<polyline fill="none" stroke="black" points="132,-1124.5 250,-1124.5 "/>
<text text-anchor="middle" x="150.5" y="-1109.3" font-family="Times,serif" font-size="14.00">+ &#45; </text>
<text text-anchor="middle" x="150.5" y="-1094.3" font-family="Times,serif" font-size="14.00">⇆</text>
<polyline fill="none" stroke="black" points="169,-1086.5 169,-1124.5 "/>
<text text-anchor="middle" x="186.5" y="-1109.3" font-family="Times,serif" font-size="14.00">* / </text>
<text text-anchor="middle" x="186.5" y="-1094.3" font-family="Times,serif" font-size="14.00">⇆</text>
<polyline fill="none" stroke="black" points="204,-1086.5 204,-1124.5 "/>
<text text-anchor="middle" x="215.5" y="-1101.8" font-family="Times,serif" font-size="14.00">0</text>
<polyline fill="none" stroke="black" points="227,-1086.5 227,-1124.5 "/>
<text text-anchor="middle" x="238.5" y="-1101.8" font-family="Times,serif" font-size="14.00">1</text>
<polyline fill="none" stroke="black" points="132,-1086.5 250,-1086.5 "/>
<text text-anchor="middle" x="191" y="-1071.3" font-family="Times,serif" font-size="14.00">RealField</text>
</a>
</g>
</g>
<!-- CompleteField&#45;&gt;ScalarField -->
<g id="edge20" class="edge">
<title>CompleteField&#45;&gt;ScalarField</title>
<path fill="none" stroke="black" d="M191,-1063.21C191,-1054.72 191,-1045.68 191,-1036.88"/>
<polygon fill="none" stroke="black" points="194.5,-1036.71 191,-1026.71 187.5,-1036.71 194.5,-1036.71"/>
</g>
</g>
</svg>
