<?xml version="1.0" encoding="UTF-8" standalone="no"?>
<!DOCTYPE svg PUBLIC "-//W3C//DTD SVG 1.1//EN"
 "http://www.w3.org/Graphics/SVG/1.1/DTD/svg11.dtd">
<!-- Generated by graphviz version 2.49.3 (20211027.1534)
 -->
<!-- Pages: 1 -->
<svg width="727pt" height="1142pt"
 viewBox="0.00 0.00 726.50 1142.00" xmlns="http://www.w3.org/2000/svg" xmlns:xlink="http://www.w3.org/1999/xlink">
<g id="graph0" class="graph" transform="scale(1 1) rotate(0) translate(4 1138)">
<polygon fill="white" stroke="transparent" points="-4,4 -4,-1138 722.5,-1138 722.5,4 -4,4"/>
<!-- AdditiveSemiGroup -->
<g id="node1" class="node">
<title>AdditiveSemiGroup</title>
<g id="a_node1_0"><a xlink:href="https://github.com/mihxil/math/blob/main/mihxil-math/src/main/java/org/meeuw/math/abstractalgebra/AdditiveSemiGroup.java" xlink:title="AdditiveSemiGroup">
<polygon fill="none" stroke="black" points="187.5,-74 187.5,-93 331.5,-93 331.5,-74 187.5,-74"/>
<text text-anchor="start" x="189.5" y="-79.8" font-family="Times,serif" font-size="14.00" fill="#0000a0">AdditiveSemiGroup</text>
</a>
</g>
<polygon fill="none" stroke="black" points="187.5,-55 187.5,-74 331.5,-74 331.5,-55 187.5,-55"/>
<text text-anchor="start" x="248.5" y="-60.8" font-family="Times,serif" font-size="14.00"> + </text>
</g>
<!-- AlgebraicStructure -->
<g id="node2" class="node">
<title>AlgebraicStructure</title>
<g id="a_node2_1"><a xlink:href="https://github.com/mihxil/math/blob/main/mihxil-math/src/main/java/org/meeuw/math/abstractalgebra/AlgebraicStructure.java" xlink:title="AlgebraicStructure">
<polygon fill="none" stroke="black" points="316.5,0.5 316.5,-18.5 457.5,-18.5 457.5,0.5 316.5,0.5"/>
<text text-anchor="start" x="318.5" y="-5.3" font-family="Times,serif" font-size="14.00" fill="#0000a0">AlgebraicStructure</text>
</a>
</g>
</g>
<!-- AdditiveSemiGroup&#45;&gt;AlgebraicStructure -->
<g id="edge1" class="edge">
<title>AdditiveSemiGroup&#45;&gt;AlgebraicStructure</title>
<path fill="none" stroke="black" d="M296.23,-54.92C316.7,-44.85 341.7,-32.55 360.19,-23.45"/>
<polygon fill="none" stroke="black" points="361.79,-26.56 369.22,-19.01 358.7,-20.28 361.79,-26.56"/>
</g>
<!-- Magma -->
<g id="node3" class="node">
<title>Magma</title>
<g id="a_node3_2"><a xlink:href="https://github.com/mihxil/math/blob/main/mihxil-math/src/main/java/org/meeuw/math/abstractalgebra/Magma.java" xlink:title="Magma">
<polygon fill="none" stroke="black" points="616.5,-167 616.5,-186 674.5,-186 674.5,-167 616.5,-167"/>
<text text-anchor="start" x="618.5" y="-172.8" font-family="Times,serif" font-size="14.00" fill="#0000a0">Magma</text>
</a>
</g>
<polygon fill="none" stroke="black" points="616.5,-148 616.5,-167 674.5,-167 674.5,-148 616.5,-148"/>
<text text-anchor="start" x="639.5" y="-153.8" font-family="Times,serif" font-size="14.00"> *</text>
</g>
<!-- Magma&#45;&gt;AlgebraicStructure -->
<g id="edge2" class="edge">
<title>Magma&#45;&gt;AlgebraicStructure</title>
<path fill="none" stroke="black" d="M616.29,-148.46C564.31,-117.25 456.77,-52.69 409.57,-24.35"/>
<polygon fill="none" stroke="black" points="411.09,-21.18 400.71,-19.03 407.48,-27.18 411.09,-21.18"/>
</g>
<!-- MultiplicativeSemiGroup -->
<g id="node4" class="node">
<title>MultiplicativeSemiGroup</title>
<g id="a_node4_3"><a xlink:href="https://github.com/mihxil/math/blob/main/mihxil-math/src/main/java/org/meeuw/math/abstractalgebra/MultiplicativeSemiGroup.java" xlink:title="MultiplicativeSemiGroup">
<polygon fill="none" stroke="black" points="279.5,-260 279.5,-279 463.5,-279 463.5,-260 279.5,-260"/>
<text text-anchor="start" x="281.5" y="-265.8" font-family="Times,serif" font-size="14.00" fill="#0000a0">MultiplicativeSemiGroup</text>
</a>
</g>
<polygon fill="none" stroke="black" points="279.5,-241 279.5,-260 463.5,-260 463.5,-241 279.5,-241"/>
<text text-anchor="start" x="364.5" y="-246.8" font-family="Times,serif" font-size="14.00"> ⋅ </text>
</g>
<!-- MultiplicativeSemiGroup&#45;&gt;AlgebraicStructure -->
<g id="edge3" class="edge">
<title>MultiplicativeSemiGroup&#45;&gt;AlgebraicStructure</title>
<path fill="none" stroke="black" d="M372.6,-240.73C375.36,-195.06 382.53,-76.26 385.34,-29.66"/>
<polygon fill="none" stroke="black" points="388.85,-29.65 385.96,-19.46 381.86,-29.23 388.85,-29.65"/>
</g>
<!-- AdditiveAbelianSemiGroup -->
<g id="node5" class="node">
<title>AdditiveAbelianSemiGroup</title>
<g id="a_node5_4"><a xlink:href="https://github.com/mihxil/math/blob/main/mihxil-math/src/main/java/org/meeuw/math/abstractalgebra/AdditiveAbelianSemiGroup.java" xlink:title="AdditiveAbelianSemiGroup">
<polygon fill="none" stroke="black" points="161.5,-184 161.5,-203 358.5,-203 358.5,-184 161.5,-184"/>
<text text-anchor="start" x="163.5" y="-189.8" font-family="Times,serif" font-size="14.00" fill="#0000a0">AdditiveAbelianSemiGroup</text>
</a>
</g>
<polygon fill="none" stroke="black" points="161.5,-150 161.5,-184 358.5,-184 358.5,-150 161.5,-150"/>
<text text-anchor="start" x="249" y="-170.8" font-family="Times,serif" font-size="14.00"> + </text>
<text text-anchor="start" x="253.5" y="-155.8" font-family="Times,serif" font-size="14.00">⇆</text>
<g id="a_node5_5"><a xlink:href="https://github.com/mihxil/math/blob/main/mihxil-algebra/src/main/java/org/meeuw/math/abstractalgebra/integers/NegativeIntegers.java" xlink:title="NegativeIntegers">
<polygon fill="none" stroke="black" points="161.5,-131 161.5,-150 358.5,-150 358.5,-131 161.5,-131"/>
<text text-anchor="start" x="185" y="-136.8" font-family="Times,serif" font-size="14.00" fill="#0000a0">NegativeIntegers ℕ⁻</text>
</a>
</g>
</g>
<!-- AdditiveAbelianSemiGroup&#45;&gt;AdditiveSemiGroup -->
<g id="edge4" class="edge">
<title>AdditiveAbelianSemiGroup&#45;&gt;AdditiveSemiGroup</title>
<path fill="none" stroke="black" d="M259.5,-130.82C259.5,-121.71 259.5,-112.03 259.5,-103.33"/>
<polygon fill="none" stroke="black" points="263,-103.31 259.5,-93.31 256,-103.31 263,-103.31"/>
</g>
<!-- AdditiveMonoid -->
<g id="node6" class="node">
<title>AdditiveMonoid</title>
<g id="a_node6_6"><a xlink:href="https://github.com/mihxil/math/blob/main/mihxil-math/src/main/java/org/meeuw/math/abstractalgebra/AdditiveMonoid.java" xlink:title="AdditiveMonoid">
<polygon fill="none" stroke="black" points="0.5,-186 0.5,-205 143.5,-205 143.5,-186 0.5,-186"/>
<text text-anchor="start" x="15.5" y="-191.8" font-family="Times,serif" font-size="14.00" fill="#0000a0">AdditiveMonoid</text>
</a>
</g>
<polygon fill="none" stroke="black" points="0.5,-167 0.5,-186 77.5,-186 77.5,-167 0.5,-167"/>
<text text-anchor="start" x="28" y="-172.8" font-family="Times,serif" font-size="14.00"> + </text>
<polygon fill="none" stroke="black" points="77.5,-167 77.5,-186 143.5,-186 143.5,-167 77.5,-167"/>
<text text-anchor="start" x="105.5" y="-172.8" font-family="Times,serif" font-size="14.00">0</text>
<g id="a_node6_7"><a xlink:href="https://github.com/mihxil/math/blob/main/mihxil-algebra/src/main/java/org/meeuw/math/abstractalgebra/strings/StringMonoid.java" xlink:title="StringMonoid">
<polygon fill="none" stroke="black" points="0.5,-148 0.5,-167 143.5,-167 143.5,-148 0.5,-148"/>
<text text-anchor="start" x="22.5" y="-153.8" font-family="Times,serif" font-size="14.00" fill="#0000a0">StringMonoid</text>
</a>
</g>
<g id="a_node6_8"><a xlink:href="https://github.com/mihxil/math/blob/main/mihxil-algebra/src/main/java/org/meeuw/math/abstractalgebra/integers/NaturalNumbers.java" xlink:title="NaturalNumbers">
<polygon fill="none" stroke="black" points="0.5,-129 0.5,-148 143.5,-148 143.5,-129 0.5,-129"/>
<text text-anchor="start" x="2.5" y="-134.8" font-family="Times,serif" font-size="14.00" fill="#0000a0">NaturalNumbers ℕ</text>
</a>
</g>
</g>
<!-- AdditiveMonoid&#45;&gt;AdditiveSemiGroup -->
<g id="edge5" class="edge">
<title>AdditiveMonoid&#45;&gt;AdditiveSemiGroup</title>
<path fill="none" stroke="black" d="M143.11,-131.34C166.61,-119.96 192.1,-107.63 213.21,-97.41"/>
<polygon fill="none" stroke="black" points="214.8,-100.53 222.28,-93.02 211.75,-94.22 214.8,-100.53"/>
</g>
<!-- Group -->
<g id="node7" class="node">
<title>Group</title>
<g id="a_node7_9"><a xlink:href="https://github.com/mihxil/math/blob/main/mihxil-math/src/main/java/org/meeuw/math/abstractalgebra/Group.java" xlink:title="Group">
<polygon fill="none" stroke="black" points="654.5,-734 654.5,-753 703.5,-753 703.5,-734 654.5,-734"/>
<text text-anchor="start" x="656.5" y="-739.8" font-family="Times,serif" font-size="14.00" fill="#0000a0">Group</text>
</a>
</g>
<polygon fill="none" stroke="black" points="654.5,-715 654.5,-734 679.5,-734 679.5,-715 654.5,-715"/>
<text text-anchor="start" x="661" y="-720.8" font-family="Times,serif" font-size="14.00"> *</text>
<polygon fill="none" stroke="black" points="679.5,-715 679.5,-734 703.5,-734 703.5,-715 679.5,-715"/>
<text text-anchor="start" x="686.5" y="-720.8" font-family="Times,serif" font-size="14.00">u</text>
<g id="a_node7_10"><a xlink:href="https://github.com/mihxil/math/blob/main/mihxil-algebra/src/main/java/org/meeuw/math/abstractalgebra/integers/Integers.java" xlink:title="Integers">
<polygon fill="none" stroke="black" points="654.5,-696 654.5,-715 703.5,-715 703.5,-696 654.5,-696"/>
<text text-anchor="start" x="673.5" y="-701.8" font-family="Times,serif" font-size="14.00" fill="#0000a0">ℤ</text>
</a>
</g>
<g id="a_node7_11"><a xlink:href="https://github.com/mihxil/math/blob/main/mihxil-algebra/src/main/java/org/meeuw/math/abstractalgebra/klein/KleinGroup.java" xlink:title="KleinGroup">
<polygon fill="none" stroke="black" points="654.5,-677 654.5,-696 703.5,-696 703.5,-677 654.5,-677"/>
<text text-anchor="start" x="674" y="-682.8" font-family="Times,serif" font-size="14.00" fill="#0000a0">V</text>
</a>
</g>
</g>
<!-- Group&#45;&gt;Magma -->
<g id="edge6" class="edge">
<title>Group&#45;&gt;Magma</title>
<path fill="none" stroke="black" d="M688.49,-676.61C700.34,-628.92 718.5,-543.7 718.5,-469.5 718.5,-469.5 718.5,-469.5 718.5,-350 718.5,-291.25 685.32,-229 663.7,-194.67"/>
<polygon fill="none" stroke="black" points="666.58,-192.66 658.22,-186.15 660.69,-196.46 666.58,-192.66"/>
</g>
<!-- MultiplicativeMonoid -->
<g id="node8" class="node">
<title>MultiplicativeMonoid</title>
<g id="a_node8_12"><a xlink:href="https://github.com/mihxil/math/blob/main/mihxil-math/src/main/java/org/meeuw/math/abstractalgebra/MultiplicativeMonoid.java" xlink:title="MultiplicativeMonoid">
<polygon fill="none" stroke="black" points="278.5,-360 278.5,-379 435.5,-379 435.5,-360 278.5,-360"/>
<text text-anchor="start" x="280.5" y="-365.8" font-family="Times,serif" font-size="14.00" fill="#0000a0">MultiplicativeMonoid</text>
</a>
</g>
<polygon fill="none" stroke="black" points="278.5,-341 278.5,-360 358.5,-360 358.5,-341 278.5,-341"/>
<text text-anchor="start" x="311.5" y="-346.8" font-family="Times,serif" font-size="14.00"> ⋅ </text>
<polygon fill="none" stroke="black" points="358.5,-341 358.5,-360 435.5,-360 435.5,-341 358.5,-341"/>
<text text-anchor="start" x="392" y="-346.8" font-family="Times,serif" font-size="14.00">1</text>
<g id="a_node8_13"><a xlink:href="https://github.com/mihxil/math/blob/main/mihxil-algebra/src/main/java/org/meeuw/math/abstractalgebra/integers/OddIntegers.java" xlink:title="OddIntegers">
<polygon fill="none" stroke="black" points="278.5,-322 278.5,-341 435.5,-341 435.5,-322 278.5,-322"/>
<text text-anchor="start" x="299.5" y="-327.8" font-family="Times,serif" font-size="14.00" fill="#0000a0">OddIntegers ℕo</text>
</a>
</g>
</g>
<!-- MultiplicativeMonoid&#45;&gt;MultiplicativeSemiGroup -->
<g id="edge7" class="edge">
<title>MultiplicativeMonoid&#45;&gt;MultiplicativeSemiGroup</title>
<path fill="none" stroke="black" d="M361.16,-322.33C362.94,-311.76 364.97,-299.72 366.76,-289.12"/>
<polygon fill="none" stroke="black" points="370.24,-289.54 368.45,-279.1 363.34,-288.38 370.24,-289.54"/>
</g>
<!-- Rng -->
<g id="node9" class="node">
<title>Rng</title>
<g id="a_node9_14"><a xlink:href="https://github.com/mihxil/math/blob/main/mihxil-math/src/main/java/org/meeuw/math/abstractalgebra/Rng.java" xlink:title="Rng">
<polygon fill="none" stroke="black" points="187.5,-494.5 187.5,-513.5 312.5,-513.5 312.5,-494.5 187.5,-494.5"/>
<text text-anchor="start" x="235.5" y="-500.3" font-family="Times,serif" font-size="14.00" fill="#0000a0">Rng</text>
</a>
</g>
<polygon fill="none" stroke="black" points="187.5,-460.5 187.5,-494.5 253.5,-494.5 253.5,-460.5 187.5,-460.5"/>
<text text-anchor="start" x="203" y="-481.3" font-family="Times,serif" font-size="14.00"> + &#160;&#45; </text>
<text text-anchor="start" x="214" y="-466.3" font-family="Times,serif" font-size="14.00">⇆</text>
<polygon fill="none" stroke="black" points="253.5,-460.5 253.5,-494.5 284.5,-494.5 284.5,-460.5 253.5,-460.5"/>
<text text-anchor="start" x="262" y="-473.8" font-family="Times,serif" font-size="14.00"> ⋅ </text>
<polygon fill="none" stroke="black" points="284.5,-460.5 284.5,-494.5 312.5,-494.5 312.5,-460.5 284.5,-460.5"/>
<text text-anchor="start" x="293.5" y="-473.8" font-family="Times,serif" font-size="14.00">0</text>
<g id="a_node9_15"><a xlink:href="https://github.com/mihxil/math/blob/main/mihxil-algebra/src/main/java/org/meeuw/math/abstractalgebra/integers/EvenIntegers.java" xlink:title="EvenIntegers">
<polygon fill="none" stroke="black" points="187.5,-441.5 187.5,-460.5 312.5,-460.5 312.5,-441.5 187.5,-441.5"/>
<text text-anchor="start" x="189.5" y="-447.3" font-family="Times,serif" font-size="14.00" fill="#0000a0">EvenIntegers 2ℤ</text>
</a>
</g>
<g id="a_node9_16"><a xlink:href="https://github.com/mihxil/math/blob/main/mihxil-algebra/src/main/java/org/meeuw/math/abstractalgebra/integers/NDivisibleIntegers.java" xlink:title="NDivisibleIntegers">
<polygon fill="none" stroke="black" points="187.5,-422.5 187.5,-441.5 312.5,-441.5 312.5,-422.5 187.5,-422.5"/>
<text text-anchor="start" x="240" y="-428.3" font-family="Times,serif" font-size="14.00" fill="#0000a0">3ℤ</text>
</a>
</g>
</g>
<!-- Rng&#45;&gt;MultiplicativeSemiGroup -->
<g id="edge8" class="edge">
<title>Rng&#45;&gt;MultiplicativeSemiGroup</title>
<path fill="none" stroke="black" d="M244.64,-422.92C243.39,-390.27 246.77,-346.36 268.5,-315 277.69,-301.74 291.18,-291.49 305.39,-283.67"/>
<polygon fill="none" stroke="black" points="306.99,-286.79 314.3,-279.12 303.8,-280.56 306.99,-286.79"/>
</g>
<!-- AdditiveAbelianGroup -->
<g id="node10" class="node">
<title>AdditiveAbelianGroup</title>
<g id="a_node10_17"><a xlink:href="https://github.com/mihxil/math/blob/main/mihxil-math/src/main/java/org/meeuw/math/abstractalgebra/AdditiveAbelianGroup.java" xlink:title="AdditiveAbelianGroup">
<polygon fill="none" stroke="black" points="60.5,-358 60.5,-377 221.5,-377 221.5,-358 60.5,-358"/>
<text text-anchor="start" x="62.5" y="-363.8" font-family="Times,serif" font-size="14.00" fill="#0000a0">AdditiveAbelianGroup</text>
</a>
</g>
<polygon fill="none" stroke="black" points="60.5,-324 60.5,-358 153.5,-358 153.5,-324 60.5,-324"/>
<text text-anchor="start" x="89.5" y="-344.8" font-family="Times,serif" font-size="14.00"> + &#160;&#45; </text>
<text text-anchor="start" x="100.5" y="-329.8" font-family="Times,serif" font-size="14.00">⇆</text>
<polygon fill="none" stroke="black" points="153.5,-324 153.5,-358 221.5,-358 221.5,-324 153.5,-324"/>
<text text-anchor="start" x="182.5" y="-337.3" font-family="Times,serif" font-size="14.00">0</text>
</g>
<!-- Rng&#45;&gt;AdditiveAbelianGroup -->
<g id="edge9" class="edge">
<title>Rng&#45;&gt;AdditiveAbelianGroup</title>
<path fill="none" stroke="black" d="M207.36,-422.84C195.47,-410.24 182.74,-396.76 171.62,-384.98"/>
<polygon fill="none" stroke="black" points="173.98,-382.38 164.57,-377.51 168.89,-387.18 173.98,-382.38"/>
</g>
<!-- AdditiveAbelianGroup&#45;&gt;AdditiveAbelianSemiGroup -->
<g id="edge11" class="edge">
<title>AdditiveAbelianGroup&#45;&gt;AdditiveAbelianSemiGroup</title>
<path fill="none" stroke="black" d="M157.3,-324.31C176.37,-295.13 207.83,-247.02 230.81,-211.87"/>
<polygon fill="none" stroke="black" points="233.92,-213.52 236.46,-203.24 228.06,-209.69 233.92,-213.52"/>
</g>
<!-- AdditiveGroup -->
<g id="node12" class="node">
<title>AdditiveGroup</title>
<g id="a_node12_18"><a xlink:href="https://github.com/mihxil/math/blob/main/mihxil-math/src/main/java/org/meeuw/math/abstractalgebra/AdditiveGroup.java" xlink:title="AdditiveGroup">
<polygon fill="none" stroke="black" points="40.5,-260 40.5,-279 148.5,-279 148.5,-260 40.5,-260"/>
<text text-anchor="start" x="42.5" y="-265.8" font-family="Times,serif" font-size="14.00" fill="#0000a0">AdditiveGroup</text>
</a>
</g>
<polygon fill="none" stroke="black" points="40.5,-241 40.5,-260 106.5,-260 106.5,-241 40.5,-241"/>
<text text-anchor="start" x="56" y="-246.8" font-family="Times,serif" font-size="14.00"> + &#160;&#45; </text>
<polygon fill="none" stroke="black" points="106.5,-241 106.5,-260 148.5,-260 148.5,-241 106.5,-241"/>
<text text-anchor="start" x="122.5" y="-246.8" font-family="Times,serif" font-size="14.00">0</text>
</g>
<!-- AdditiveAbelianGroup&#45;&gt;AdditiveGroup -->
<g id="edge12" class="edge">
<title>AdditiveAbelianGroup&#45;&gt;AdditiveGroup</title>
<path fill="none" stroke="black" d="M127.19,-324.26C121.35,-312.95 114.48,-299.66 108.55,-288.19"/>
<polygon fill="none" stroke="black" points="111.54,-286.34 103.84,-279.06 105.32,-289.55 111.54,-286.34"/>
</g>
<!-- MultiplicativeAbelianSemiGroup -->
<g id="node11" class="node">
<title>MultiplicativeAbelianSemiGroup</title>
<g id="a_node11_19"><a xlink:href="https://github.com/mihxil/math/blob/main/mihxil-math/src/main/java/org/meeuw/math/abstractalgebra/MultiplicativeAbelianSemiGroup.java" xlink:title="MultiplicativeAbelianSemiGroup">
<polygon fill="none" stroke="black" points="453.5,-368 453.5,-387 690.5,-387 690.5,-368 453.5,-368"/>
<text text-anchor="start" x="455.5" y="-373.8" font-family="Times,serif" font-size="14.00" fill="#0000a0">MultiplicativeAbelianSemiGroup</text>
</a>
</g>
<polygon fill="none" stroke="black" points="453.5,-334 453.5,-368 690.5,-368 690.5,-334 453.5,-334"/>
<text text-anchor="start" x="565" y="-354.8" font-family="Times,serif" font-size="14.00"> ⋅ </text>
<text text-anchor="start" x="565.5" y="-339.8" font-family="Times,serif" font-size="14.00">⇆</text>
<g id="a_node11_20"><a xlink:href="https://github.com/mihxil/math/blob/main/mihxil-algebra/src/main/java/org/meeuw/math/abstractalgebra/integers/OddIntegers.java" xlink:title="OddIntegers">
<polygon fill="none" stroke="black" points="453.5,-315 453.5,-334 690.5,-334 690.5,-315 453.5,-315"/>
<text text-anchor="start" x="514.5" y="-320.8" font-family="Times,serif" font-size="14.00" fill="#0000a0">OddIntegers ℕo</text>
</a>
</g>
</g>
<!-- MultiplicativeAbelianSemiGroup&#45;&gt;MultiplicativeSemiGroup -->
<g id="edge10" class="edge">
<title>MultiplicativeAbelianSemiGroup&#45;&gt;MultiplicativeSemiGroup</title>
<path fill="none" stroke="black" d="M492.74,-314.95C468.65,-304.23 442.84,-292.74 421.24,-283.14"/>
<polygon fill="none" stroke="black" points="422.51,-279.87 411.96,-279 419.67,-286.27 422.51,-279.87"/>
</g>
<!-- AdditiveGroup&#45;&gt;AdditiveMonoid -->
<g id="edge13" class="edge">
<title>AdditiveGroup&#45;&gt;AdditiveMonoid</title>
<path fill="none" stroke="black" d="M89.85,-240.58C87.96,-233.11 85.68,-224.1 83.38,-215.01"/>
<polygon fill="none" stroke="black" points="86.74,-214.02 80.9,-205.19 79.96,-215.74 86.74,-214.02"/>
</g>
<!-- Field -->
<g id="node13" class="node">
<title>Field</title>
<g id="a_node13_21"><a xlink:href="https://github.com/mihxil/math/blob/main/mihxil-math/src/main/java/org/meeuw/math/abstractalgebra/Field.java" xlink:title="Field">
<polygon fill="none" stroke="black" points="419.5,-880 419.5,-899 592.5,-899 592.5,-880 419.5,-880"/>
<text text-anchor="start" x="487.5" y="-885.8" font-family="Times,serif" font-size="14.00" fill="#0000a0">Field</text>
</a>
</g>
<polygon fill="none" stroke="black" points="419.5,-846 419.5,-880 480.5,-880 480.5,-846 419.5,-846"/>
<text text-anchor="start" x="432.5" y="-866.8" font-family="Times,serif" font-size="14.00"> + &#160;&#45; </text>
<text text-anchor="start" x="443.5" y="-851.8" font-family="Times,serif" font-size="14.00">⇆</text>
<polygon fill="none" stroke="black" points="480.5,-846 480.5,-880 523.5,-880 523.5,-846 480.5,-846"/>
<text text-anchor="start" x="488" y="-866.8" font-family="Times,serif" font-size="14.00"> ⋅ &#160;/ </text>
<text text-anchor="start" x="495.5" y="-851.8" font-family="Times,serif" font-size="14.00">⇆</text>
<polygon fill="none" stroke="black" points="523.5,-846 523.5,-880 544.5,-880 544.5,-846 523.5,-846"/>
<text text-anchor="start" x="528" y="-859.3" font-family="Times,serif" font-size="14.00"> *</text>
<polygon fill="none" stroke="black" points="544.5,-846 544.5,-880 561.5,-880 561.5,-846 544.5,-846"/>
<text text-anchor="start" x="548" y="-859.3" font-family="Times,serif" font-size="14.00">0</text>
<polygon fill="none" stroke="black" points="561.5,-846 561.5,-880 576.5,-880 576.5,-846 561.5,-846"/>
<text text-anchor="start" x="564" y="-859.3" font-family="Times,serif" font-size="14.00">1</text>
<polygon fill="none" stroke="black" points="576.5,-846 576.5,-880 592.5,-880 592.5,-846 576.5,-846"/>
<text text-anchor="start" x="579.5" y="-859.3" font-family="Times,serif" font-size="14.00">u</text>
<g id="a_node13_22"><a xlink:href="https://github.com/mihxil/math/blob/main/mihxil-algebra/src/main/java/org/meeuw/math/abstractalgebra/integers/ModuloField.java" xlink:title="ModuloField">
<polygon fill="none" stroke="black" points="419.5,-827 419.5,-846 592.5,-846 592.5,-827 419.5,-827"/>
<text text-anchor="start" x="488.5" y="-832.8" font-family="Times,serif" font-size="14.00" fill="#0000a0">ℤ/nℤ</text>
</a>
</g>
<g id="a_node13_23"><a xlink:href="https://github.com/mihxil/math/blob/main/mihxil-algebra/src/main/java/org/meeuw/math/abstractalgebra/complex/GaussianRationals.java" xlink:title="GaussianRationals">
<polygon fill="none" stroke="black" points="419.5,-808 419.5,-827 592.5,-827 592.5,-808 419.5,-808"/>
<text text-anchor="start" x="421.5" y="-813.8" font-family="Times,serif" font-size="14.00" fill="#0000a0">GaussianRationals ᵁ0(i)</text>
</a>
</g>
<g id="a_node13_24"><a xlink:href="https://github.com/mihxil/math/blob/main/mihxil-algebra/src/main/java/org/meeuw/math/abstractalgebra/integers/ModuloField.java" xlink:title="ModuloField">
<polygon fill="none" stroke="black" points="419.5,-789 419.5,-808 592.5,-808 592.5,-789 419.5,-789"/>
<text text-anchor="start" x="488.5" y="-794.8" font-family="Times,serif" font-size="14.00" fill="#0000a0">ℤ/3ℤ</text>
</a>
</g>
</g>
<!-- Field&#45;&gt;Group -->
<g id="edge14" class="edge">
<title>Field&#45;&gt;Group</title>
<path fill="none" stroke="black" d="M579.12,-788.96C602.25,-771.98 626.63,-754.08 645.46,-740.26"/>
<polygon fill="none" stroke="black" points="647.7,-742.95 653.69,-734.21 643.56,-737.31 647.7,-742.95"/>
</g>
<!-- DivisionRing -->
<g id="node14" class="node">
<title>DivisionRing</title>
<g id="a_node14_25"><a xlink:href="https://github.com/mihxil/math/blob/main/mihxil-math/src/main/java/org/meeuw/math/abstractalgebra/DivisionRing.java" xlink:title="DivisionRing">
<polygon fill="none" stroke="black" points="367.5,-732 367.5,-751 466.5,-751 466.5,-732 367.5,-732"/>
<text text-anchor="start" x="371.5" y="-737.8" font-family="Times,serif" font-size="14.00" fill="#0000a0">DivisionRing</text>
</a>
</g>
<polygon fill="none" stroke="black" points="367.5,-698 367.5,-732 406.5,-732 406.5,-698 367.5,-698"/>
<text text-anchor="start" x="369.5" y="-718.8" font-family="Times,serif" font-size="14.00"> + &#160;&#45; </text>
<text text-anchor="start" x="380.5" y="-703.8" font-family="Times,serif" font-size="14.00">⇆</text>
<polygon fill="none" stroke="black" points="406.5,-698 406.5,-732 438.5,-732 438.5,-698 406.5,-698"/>
<text text-anchor="start" x="408.5" y="-711.3" font-family="Times,serif" font-size="14.00"> ⋅ &#160;/ </text>
<polygon fill="none" stroke="black" points="438.5,-698 438.5,-732 452.5,-732 452.5,-698 438.5,-698"/>
<text text-anchor="start" x="440.5" y="-711.3" font-family="Times,serif" font-size="14.00">0</text>
<polygon fill="none" stroke="black" points="452.5,-698 452.5,-732 466.5,-732 466.5,-698 452.5,-698"/>
<text text-anchor="start" x="454.5" y="-711.3" font-family="Times,serif" font-size="14.00">1</text>
<g id="a_node14_26"><a xlink:href="https://github.com/mihxil/math/blob/main/mihxil-algebra/src/main/java/org/meeuw/math/abstractalgebra/quaternions/Quaternions.java" xlink:title="Quaternions">
<polygon fill="none" stroke="black" points="367.5,-679 367.5,-698 466.5,-698 466.5,-679 367.5,-679"/>
<text text-anchor="start" x="398.5" y="-684.8" font-family="Times,serif" font-size="14.00" fill="#0000a0">ℍ(ℚ)</text>
</a>
</g>
</g>
<!-- Field&#45;&gt;DivisionRing -->
<g id="edge15" class="edge">
<title>Field&#45;&gt;DivisionRing</title>
<path fill="none" stroke="black" d="M467.5,-788.77C460.7,-779.07 453.69,-769.07 447.13,-759.71"/>
<polygon fill="none" stroke="black" points="449.85,-757.5 441.25,-751.32 444.12,-761.51 449.85,-757.5"/>
</g>
<!-- DivisibleGroup -->
<g id="node15" class="node">
<title>DivisibleGroup</title>
<g id="a_node15_27"><a xlink:href="https://github.com/mihxil/math/blob/main/mihxil-math/src/main/java/org/meeuw/math/abstractalgebra/DivisibleGroup.java" xlink:title="DivisibleGroup">
<polygon fill="none" stroke="black" points="487.5,-722 487.5,-741 598.5,-741 598.5,-722 487.5,-722"/>
<text text-anchor="start" x="489.5" y="-727.8" font-family="Times,serif" font-size="14.00" fill="#0000a0">DivisibleGroup</text>
</a>
</g>
<polygon fill="none" stroke="black" points="487.5,-688 487.5,-722 551.5,-722 551.5,-688 487.5,-688"/>
<text text-anchor="start" x="505.5" y="-708.8" font-family="Times,serif" font-size="14.00"> ⋅ &#160;/ </text>
<text text-anchor="start" x="513" y="-693.8" font-family="Times,serif" font-size="14.00">⇆</text>
<polygon fill="none" stroke="black" points="551.5,-688 551.5,-722 598.5,-722 598.5,-688 551.5,-688"/>
<text text-anchor="start" x="570" y="-701.3" font-family="Times,serif" font-size="14.00">1</text>
</g>
<!-- Field&#45;&gt;DivisibleGroup -->
<g id="edge16" class="edge">
<title>Field&#45;&gt;DivisibleGroup</title>
<path fill="none" stroke="black" d="M521.3,-788.77C524.98,-776.15 528.8,-763.04 532.17,-751.47"/>
<polygon fill="none" stroke="black" points="535.56,-752.34 535,-741.76 528.84,-750.38 535.56,-752.34"/>
</g>
<!-- AbelianRing -->
<g id="node16" class="node">
<title>AbelianRing</title>
<g id="a_node16_28"><a xlink:href="https://github.com/mihxil/math/blob/main/mihxil-math/src/main/java/org/meeuw/math/abstractalgebra/AbelianRing.java" xlink:title="AbelianRing">
<polygon fill="none" stroke="black" points="258.5,-722 258.5,-741 349.5,-741 349.5,-722 258.5,-722"/>
<text text-anchor="start" x="260.5" y="-727.8" font-family="Times,serif" font-size="14.00" fill="#0000a0">AbelianRing</text>
</a>
</g>
<polygon fill="none" stroke="black" points="258.5,-688 258.5,-722 300.5,-722 300.5,-688 258.5,-688"/>
<text text-anchor="start" x="262" y="-708.8" font-family="Times,serif" font-size="14.00"> + &#160;&#45; </text>
<text text-anchor="start" x="273" y="-693.8" font-family="Times,serif" font-size="14.00">⇆</text>
<polygon fill="none" stroke="black" points="300.5,-688 300.5,-722 319.5,-722 319.5,-688 300.5,-688"/>
<text text-anchor="start" x="303" y="-708.8" font-family="Times,serif" font-size="14.00"> ⋅ </text>
<text text-anchor="start" x="303.5" y="-693.8" font-family="Times,serif" font-size="14.00">⇆</text>
<polygon fill="none" stroke="black" points="319.5,-688 319.5,-722 334.5,-722 334.5,-688 319.5,-688"/>
<text text-anchor="start" x="322" y="-701.3" font-family="Times,serif" font-size="14.00">0</text>
<polygon fill="none" stroke="black" points="334.5,-688 334.5,-722 349.5,-722 349.5,-688 334.5,-688"/>
<text text-anchor="start" x="337" y="-701.3" font-family="Times,serif" font-size="14.00">1</text>
</g>
<!-- Field&#45;&gt;AbelianRing -->
<g id="edge17" class="edge">
<title>Field&#45;&gt;AbelianRing</title>
<path fill="none" stroke="black" d="M418.92,-791.43C398.64,-779.05 377.2,-765.73 357.5,-753 354.6,-751.12 351.62,-749.17 348.63,-747.19"/>
<polygon fill="none" stroke="black" points="350.47,-744.21 340.21,-741.55 346.57,-750.02 350.47,-744.21"/>
</g>
<!-- MultiplicativeGroup -->
<g id="node17" class="node">
<title>MultiplicativeGroup</title>
<g id="a_node17_29"><a xlink:href="https://github.com/mihxil/math/blob/main/mihxil-math/src/main/java/org/meeuw/math/abstractalgebra/MultiplicativeGroup.java" xlink:title="MultiplicativeGroup">
<polygon fill="none" stroke="black" points="340.5,-487.5 340.5,-506.5 488.5,-506.5 488.5,-487.5 340.5,-487.5"/>
<text text-anchor="start" x="342.5" y="-493.3" font-family="Times,serif" font-size="14.00" fill="#0000a0">MultiplicativeGroup</text>
</a>
</g>
<polygon fill="none" stroke="black" points="340.5,-468.5 340.5,-487.5 423.5,-487.5 423.5,-468.5 340.5,-468.5"/>
<text text-anchor="start" x="368" y="-474.3" font-family="Times,serif" font-size="14.00"> ⋅ &#160;/ </text>
<polygon fill="none" stroke="black" points="423.5,-468.5 423.5,-487.5 488.5,-487.5 488.5,-468.5 423.5,-468.5"/>
<text text-anchor="start" x="451" y="-474.3" font-family="Times,serif" font-size="14.00">1</text>
<g id="a_node17_30"><a xlink:href="https://github.com/mihxil/math/blob/main/mihxil-algebra/src/main/java/org/meeuw/math/abstractalgebra/permutations/PermutationGroup.java" xlink:title="PermutationGroup">
<polygon fill="none" stroke="black" points="340.5,-449.5 340.5,-468.5 488.5,-468.5 488.5,-449.5 340.5,-449.5"/>
<text text-anchor="start" x="348" y="-455.3" font-family="Times,serif" font-size="14.00" fill="#0000a0">PermutationGroup</text>
</a>
</g>
<g id="a_node17_31"><a xlink:href="https://github.com/mihxil/math/blob/main/mihxil-algebra/src/main/java/org/meeuw/math/abstractalgebra/linear/GeneralLinearGroup.java" xlink:title="GeneralLinearGroup">
<polygon fill="none" stroke="black" points="340.5,-430.5 340.5,-449.5 488.5,-449.5 488.5,-430.5 340.5,-430.5"/>
<text text-anchor="start" x="390" y="-436.3" font-family="Times,serif" font-size="14.00" fill="#0000a0">GL₂(ℚ)</text>
</a>
</g>
</g>
<!-- DivisionRing&#45;&gt;MultiplicativeGroup -->
<g id="edge23" class="edge">
<title>DivisionRing&#45;&gt;MultiplicativeGroup</title>
<path fill="none" stroke="black" d="M416.21,-678.97C415.87,-636.41 415.28,-564.41 414.89,-516.91"/>
<polygon fill="none" stroke="black" points="418.39,-516.84 414.81,-506.87 411.39,-516.9 418.39,-516.84"/>
</g>
<!-- Ring -->
<g id="node18" class="node">
<title>Ring</title>
<g id="a_node18_32"><a xlink:href="https://github.com/mihxil/math/blob/main/mihxil-math/src/main/java/org/meeuw/math/abstractalgebra/Ring.java" xlink:title="Ring">
<polygon fill="none" stroke="black" points="240.5,-621.5 240.5,-640.5 367.5,-640.5 367.5,-621.5 240.5,-621.5"/>
<text text-anchor="start" x="287" y="-627.3" font-family="Times,serif" font-size="14.00" fill="#0000a0">Ring</text>
</a>
</g>
<polygon fill="none" stroke="black" points="240.5,-587.5 240.5,-621.5 300.5,-621.5 300.5,-587.5 240.5,-587.5"/>
<text text-anchor="start" x="253" y="-608.3" font-family="Times,serif" font-size="14.00"> + &#160;&#45; </text>
<text text-anchor="start" x="264" y="-593.3" font-family="Times,serif" font-size="14.00">⇆</text>
<polygon fill="none" stroke="black" points="300.5,-587.5 300.5,-621.5 328.5,-621.5 328.5,-587.5 300.5,-587.5"/>
<text text-anchor="start" x="307.5" y="-600.8" font-family="Times,serif" font-size="14.00"> ⋅ </text>
<polygon fill="none" stroke="black" points="328.5,-587.5 328.5,-621.5 347.5,-621.5 347.5,-587.5 328.5,-587.5"/>
<text text-anchor="start" x="333" y="-600.8" font-family="Times,serif" font-size="14.00">0</text>
<polygon fill="none" stroke="black" points="347.5,-587.5 347.5,-621.5 367.5,-621.5 367.5,-587.5 347.5,-587.5"/>
<text text-anchor="start" x="352.5" y="-600.8" font-family="Times,serif" font-size="14.00">1</text>
<g id="a_node18_33"><a xlink:href="https://github.com/mihxil/math/blob/main/mihxil-algebra/src/main/java/org/meeuw/math/abstractalgebra/integers/ModuloStructure.java" xlink:title="ModuloStructure">
<polygon fill="none" stroke="black" points="240.5,-568.5 240.5,-587.5 367.5,-587.5 367.5,-568.5 240.5,-568.5"/>
<text text-anchor="start" x="242.5" y="-574.3" font-family="Times,serif" font-size="14.00" fill="#0000a0">ModuloStructure</text>
</a>
</g>
<g id="a_node18_34"><a xlink:href="https://github.com/mihxil/math/blob/main/mihxil-algebra/src/main/java/org/meeuw/math/abstractalgebra/integers/Integers.java" xlink:title="Integers">
<polygon fill="none" stroke="black" points="240.5,-549.5 240.5,-568.5 367.5,-568.5 367.5,-549.5 240.5,-549.5"/>
<text text-anchor="start" x="298.5" y="-555.3" font-family="Times,serif" font-size="14.00" fill="#0000a0">ℤ</text>
</a>
</g>
</g>
<!-- DivisionRing&#45;&gt;Ring -->
<g id="edge24" class="edge">
<title>DivisionRing&#45;&gt;Ring</title>
<path fill="none" stroke="black" d="M382.6,-678.75C373.49,-669.28 363.45,-658.84 353.67,-648.67"/>
<polygon fill="none" stroke="black" points="356.07,-646.11 346.61,-641.33 351.02,-650.96 356.07,-646.11"/>
</g>
<!-- MultiplicativeAbelianGroup -->
<g id="node19" class="node">
<title>MultiplicativeAbelianGroup</title>
<g id="a_node19_35"><a xlink:href="https://github.com/mihxil/math/blob/main/mihxil-math/src/main/java/org/meeuw/math/abstractalgebra/MultiplicativeAbelianGroup.java" xlink:title="MultiplicativeAbelianGroup">
<polygon fill="none" stroke="black" points="443.5,-602.5 443.5,-621.5 644.5,-621.5 644.5,-602.5 443.5,-602.5"/>
<text text-anchor="start" x="445.5" y="-608.3" font-family="Times,serif" font-size="14.00" fill="#0000a0">MultiplicativeAbelianGroup</text>
</a>
</g>
<polygon fill="none" stroke="black" points="443.5,-568.5 443.5,-602.5 552.5,-602.5 552.5,-568.5 443.5,-568.5"/>
<text text-anchor="start" x="484" y="-589.3" font-family="Times,serif" font-size="14.00"> ⋅ &#160;/ </text>
<text text-anchor="start" x="491.5" y="-574.3" font-family="Times,serif" font-size="14.00">⇆</text>
<polygon fill="none" stroke="black" points="552.5,-568.5 552.5,-602.5 644.5,-602.5 644.5,-568.5 552.5,-568.5"/>
<text text-anchor="start" x="593.5" y="-581.8" font-family="Times,serif" font-size="14.00">1</text>
</g>
<!-- DivisibleGroup&#45;&gt;MultiplicativeAbelianGroup -->
<g id="edge26" class="edge">
<title>DivisibleGroup&#45;&gt;MultiplicativeAbelianGroup</title>
<path fill="none" stroke="black" d="M542.72,-688.21C542.86,-671.84 543.04,-650.41 543.19,-632.38"/>
<polygon fill="none" stroke="black" points="546.7,-632.26 543.28,-622.23 539.7,-632.2 546.7,-632.26"/>
</g>
<!-- AbelianRing&#45;&gt;Ring -->
<g id="edge25" class="edge">
<title>AbelianRing&#45;&gt;Ring</title>
<path fill="none" stroke="black" d="M303.5,-688.21C303.5,-677.34 303.5,-664.24 303.5,-651.38"/>
<polygon fill="none" stroke="black" points="307,-651.18 303.5,-641.18 300,-651.18 307,-651.18"/>
</g>
<!-- MultiplicativeGroup&#45;&gt;MultiplicativeMonoid -->
<g id="edge18" class="edge">
<title>MultiplicativeGroup&#45;&gt;MultiplicativeMonoid</title>
<path fill="none" stroke="black" d="M395.83,-430.32C389.17,-417.05 381.67,-402.12 375.02,-388.88"/>
<polygon fill="none" stroke="black" points="377.97,-386.95 370.35,-379.58 371.71,-390.09 377.97,-386.95"/>
</g>
<!-- Ring&#45;&gt;Rng -->
<g id="edge19" class="edge">
<title>Ring&#45;&gt;Rng</title>
<path fill="none" stroke="black" d="M284.16,-549.73C280.51,-541.29 276.66,-532.38 272.91,-523.69"/>
<polygon fill="none" stroke="black" points="276.07,-522.17 268.89,-514.38 269.64,-524.95 276.07,-522.17"/>
</g>
<!-- MultiplicativeAbelianGroup&#45;&gt;MultiplicativeAbelianSemiGroup -->
<g id="edge20" class="edge">
<title>MultiplicativeAbelianGroup&#45;&gt;MultiplicativeAbelianSemiGroup</title>
<path fill="none" stroke="black" d="M546.5,-568.55C551.22,-527.63 560.46,-447.58 566.29,-397.1"/>
<polygon fill="none" stroke="black" points="569.78,-397.45 567.45,-387.12 562.82,-396.65 569.78,-397.45"/>
</g>
<!-- MultiplicativeAbelianGroup&#45;&gt;MultiplicativeGroup -->
<g id="edge21" class="edge">
<title>MultiplicativeAbelianGroup&#45;&gt;MultiplicativeGroup</title>
<path fill="none" stroke="black" d="M517.08,-568.9C500.82,-553.14 479.51,-532.49 460.53,-514.11"/>
<polygon fill="none" stroke="black" points="462.74,-511.37 453.12,-506.92 457.86,-516.39 462.74,-511.37"/>
</g>
<!-- ScalarField -->
<g id="node20" class="node">
<title>ScalarField</title>
<g id="a_node20_36"><a xlink:href="https://github.com/mihxil/math/blob/main/mihxil-math/src/main/java/org/meeuw/math/abstractalgebra/ScalarField.java" xlink:title="ScalarField">
<polygon fill="none" stroke="black" points="432.5,-988 432.5,-1007 578.5,-1007 578.5,-988 432.5,-988"/>
<text text-anchor="start" x="464.5" y="-993.8" font-family="Times,serif" font-size="14.00" fill="#0000a0">ScalarField</text>
</a>
</g>
<polygon fill="none" stroke="black" points="432.5,-954 432.5,-988 479.5,-988 479.5,-954 432.5,-954"/>
<text text-anchor="start" x="438.5" y="-974.8" font-family="Times,serif" font-size="14.00"> + &#160;&#45; </text>
<text text-anchor="start" x="449.5" y="-959.8" font-family="Times,serif" font-size="14.00">⇆</text>
<polygon fill="none" stroke="black" points="479.5,-954 479.5,-988 515.5,-988 515.5,-954 479.5,-954"/>
<text text-anchor="start" x="483.5" y="-974.8" font-family="Times,serif" font-size="14.00"> ⋅ &#160;/ </text>
<text text-anchor="start" x="491" y="-959.8" font-family="Times,serif" font-size="14.00">⇆</text>
<polygon fill="none" stroke="black" points="515.5,-954 515.5,-988 533.5,-988 533.5,-954 515.5,-954"/>
<text text-anchor="start" x="518.5" y="-967.3" font-family="Times,serif" font-size="14.00"> *</text>
<polygon fill="none" stroke="black" points="533.5,-954 533.5,-988 548.5,-988 548.5,-954 533.5,-954"/>
<text text-anchor="start" x="536" y="-967.3" font-family="Times,serif" font-size="14.00">0</text>
<polygon fill="none" stroke="black" points="548.5,-954 548.5,-988 563.5,-988 563.5,-954 548.5,-954"/>
<text text-anchor="start" x="551" y="-967.3" font-family="Times,serif" font-size="14.00">1</text>
<polygon fill="none" stroke="black" points="563.5,-954 563.5,-988 578.5,-988 578.5,-954 563.5,-954"/>
<text text-anchor="start" x="566" y="-967.3" font-family="Times,serif" font-size="14.00">u</text>
<g id="a_node20_37"><a xlink:href="https://github.com/mihxil/math/blob/main/mihxil-algebra/src/main/java/org/meeuw/math/abstractalgebra/rationalnumbers/RationalNumbers.java" xlink:title="RationalNumbers">
<polygon fill="none" stroke="black" points="432.5,-935 432.5,-954 578.5,-954 578.5,-935 432.5,-935"/>
<text text-anchor="start" x="434.5" y="-940.8" font-family="Times,serif" font-size="14.00" fill="#0000a0">RationalNumbers ℚ</text>
</a>
</g>
</g>
<!-- ScalarField&#45;&gt;Field -->
<g id="edge22" class="edge">
<title>ScalarField&#45;&gt;Field</title>
<path fill="none" stroke="black" d="M505.5,-934.85C505.5,-926.77 505.5,-917.93 505.5,-909.05"/>
<polygon fill="none" stroke="black" points="509,-909.04 505.5,-899.04 502,-909.04 509,-909.04"/>
</g>
<!-- CompleteField -->
<g id="node21" class="node">
<title>CompleteField</title>
<g id="a_node21_38"><a xlink:href="https://github.com/mihxil/math/blob/main/mihxil-math/src/main/java/org/meeuw/math/abstractalgebra/CompleteField.java" xlink:title="CompleteField">
<polygon fill="none" stroke="black" points="436.5,-1114.5 436.5,-1133.5 575.5,-1133.5 575.5,-1114.5 436.5,-1114.5"/>
<text text-anchor="start" x="453.5" y="-1120.3" font-family="Times,serif" font-size="14.00" fill="#0000a0">CompleteField</text>
</a>
</g>
<polygon fill="none" stroke="black" points="436.5,-1080.5 436.5,-1114.5 480.5,-1114.5 480.5,-1080.5 436.5,-1080.5"/>
<text text-anchor="start" x="441" y="-1101.3" font-family="Times,serif" font-size="14.00"> + &#160;&#45; </text>
<text text-anchor="start" x="452" y="-1086.3" font-family="Times,serif" font-size="14.00">⇆</text>
<polygon fill="none" stroke="black" points="480.5,-1080.5 480.5,-1114.5 514.5,-1114.5 514.5,-1080.5 480.5,-1080.5"/>
<text text-anchor="start" x="483.5" y="-1101.3" font-family="Times,serif" font-size="14.00"> ⋅ &#160;/ </text>
<text text-anchor="start" x="491" y="-1086.3" font-family="Times,serif" font-size="14.00">⇆</text>
<polygon fill="none" stroke="black" points="514.5,-1080.5 514.5,-1114.5 531.5,-1114.5 531.5,-1080.5 514.5,-1080.5"/>
<text text-anchor="start" x="517" y="-1093.8" font-family="Times,serif" font-size="14.00"> *</text>
<polygon fill="none" stroke="black" points="531.5,-1080.5 531.5,-1114.5 546.5,-1114.5 546.5,-1080.5 531.5,-1080.5"/>
<text text-anchor="start" x="534" y="-1093.8" font-family="Times,serif" font-size="14.00">0</text>
<polygon fill="none" stroke="black" points="546.5,-1080.5 546.5,-1114.5 560.5,-1114.5 560.5,-1080.5 546.5,-1080.5"/>
<text text-anchor="start" x="548.5" y="-1093.8" font-family="Times,serif" font-size="14.00">1</text>
<polygon fill="none" stroke="black" points="560.5,-1080.5 560.5,-1114.5 575.5,-1114.5 575.5,-1080.5 560.5,-1080.5"/>
<text text-anchor="start" x="563" y="-1093.8" font-family="Times,serif" font-size="14.00">u</text>
<g id="a_node21_39"><a xlink:href="https://github.com/mihxil/math/blob/main/mihxil-algebra/src/main/java/org/meeuw/math/abstractalgebra/reals/BigDecimalField.java" xlink:title="BigDecimalField">
<polygon fill="none" stroke="black" points="436.5,-1061.5 436.5,-1080.5 575.5,-1080.5 575.5,-1061.5 436.5,-1061.5"/>
<text text-anchor="start" x="438.5" y="-1067.3" font-family="Times,serif" font-size="14.00" fill="#0000a0">BigDecimalField ℝ</text>
</a>
</g>
<g id="a_node21_40"><a xlink:href="https://github.com/mihxil/math/blob/main/mihxil-algebra/src/main/java/org/meeuw/math/abstractalgebra/reals/RealField.java" xlink:title="RealField">
<polygon fill="none" stroke="black" points="436.5,-1042.5 436.5,-1061.5 575.5,-1061.5 575.5,-1042.5 436.5,-1042.5"/>
<text text-anchor="start" x="461" y="-1048.3" font-family="Times,serif" font-size="14.00" fill="#0000a0">RealField ℝₚ</text>
</a>
</g>
</g>
<!-- CompleteField&#45;&gt;ScalarField -->
<g id="edge27" class="edge">
<title>CompleteField&#45;&gt;ScalarField</title>
<path fill="none" stroke="black" d="M505.5,-1042.84C505.5,-1034.45 505.5,-1025.67 505.5,-1017.25"/>
<polygon fill="none" stroke="black" points="509,-1017.23 505.5,-1007.23 502,-1017.23 509,-1017.23"/>
</g>
<!-- VectorSpace -->
<g id="node22" class="node">
<title>VectorSpace</title>
<g id="a_node22_41"><a xlink:href="https://github.com/mihxil/math/blob/main/mihxil-math/src/main/java/org/meeuw/math/abstractalgebra/VectorSpace.java" xlink:title="VectorSpace">
<polygon fill="none" stroke="black" points="239.5,-870 239.5,-889 368.5,-889 368.5,-870 239.5,-870"/>
<text text-anchor="start" x="259.5" y="-875.8" font-family="Times,serif" font-size="14.00" fill="#0000a0">VectorSpace</text>
</a>
</g>
<polygon fill="none" stroke="black" points="239.5,-836 239.5,-870 300.5,-870 300.5,-836 239.5,-836"/>
<text text-anchor="start" x="252.5" y="-856.8" font-family="Times,serif" font-size="14.00"> + &#160;&#45; </text>
<text text-anchor="start" x="263.5" y="-841.8" font-family="Times,serif" font-size="14.00">⇆</text>
<polygon fill="none" stroke="black" points="300.5,-836 300.5,-870 329.5,-870 329.5,-836 300.5,-836"/>
<text text-anchor="start" x="308" y="-856.8" font-family="Times,serif" font-size="14.00"> ⋅ </text>
<text text-anchor="start" x="308.5" y="-841.8" font-family="Times,serif" font-size="14.00">⇆</text>
<polygon fill="none" stroke="black" points="329.5,-836 329.5,-870 348.5,-870 348.5,-836 329.5,-836"/>
<text text-anchor="start" x="334" y="-849.3" font-family="Times,serif" font-size="14.00">0</text>
<polygon fill="none" stroke="black" points="348.5,-836 348.5,-870 368.5,-870 368.5,-836 348.5,-836"/>
<text text-anchor="start" x="353.5" y="-849.3" font-family="Times,serif" font-size="14.00">1</text>
<g id="a_node22_42"><a xlink:href="https://github.com/mihxil/math/blob/main/mihxil-algebra/src/main/java/org/meeuw/math/abstractalgebra/dim3/Vector3Space.java" xlink:title="Vector3Space">
<polygon fill="none" stroke="black" points="239.5,-817 239.5,-836 368.5,-836 368.5,-817 239.5,-817"/>
<text text-anchor="start" x="241.5" y="-822.8" font-family="Times,serif" font-size="14.00" fill="#0000a0">Vector3Space ℝₚ³</text>
</a>
</g>
<g id="a_node22_43"><a xlink:href="https://github.com/mihxil/math/blob/main/mihxil-algebra/src/main/java/org/meeuw/math/abstractalgebra/vectorspace/NVectorSpace.java" xlink:title="NVectorSpace">
<polygon fill="none" stroke="black" points="239.5,-798 239.5,-817 368.5,-817 368.5,-798 239.5,-798"/>
<text text-anchor="start" x="295" y="-803.8" font-family="Times,serif" font-size="14.00" fill="#0000a0">ℚ³</text>
</a>
</g>
</g>
<!-- VectorSpace&#45;&gt;AbelianRing -->
<g id="edge28" class="edge">
<title>VectorSpace&#45;&gt;AbelianRing</title>
<path fill="none" stroke="black" d="M303.5,-798.22C303.5,-782.94 303.5,-766.06 303.5,-751.6"/>
<polygon fill="none" stroke="black" points="307,-751.55 303.5,-741.55 300,-751.55 307,-751.55"/>
</g>
</g>
</svg>
