<?xml version="1.0" encoding="UTF-8" standalone="no"?>
<!DOCTYPE svg PUBLIC "-//W3C//DTD SVG 1.1//EN"
 "http://www.w3.org/Graphics/SVG/1.1/DTD/svg11.dtd">
<!-- Generated by graphviz version 2.49.3 (20211027.1534)
 -->
<!-- Pages: 1 -->
<svg width="752pt" height="1224pt"
 viewBox="0.00 0.00 752.00 1224.00" xmlns="http://www.w3.org/2000/svg" xmlns:xlink="http://www.w3.org/1999/xlink">
<g id="graph0" class="graph" transform="scale(1 1) rotate(0) translate(4 1220)">
<polygon fill="white" stroke="transparent" points="-4,4 -4,-1220 748,-1220 748,4 -4,4"/>
<!-- AdditiveSemiGroup -->
<g id="node1" class="node">
<title>AdditiveSemiGroup</title>
<g id="a_node1"><a xlink:href="https://github.com/mihxil/math/blob/main/mihxil-math/src/main/java/org/meeuw/math/abstractalgebra/AdditiveSemiGroup.java" xlink:title="{\N|{ + }}">
<polygon fill="none" stroke="black" points="181.5,-73.5 181.5,-119.5 337.5,-119.5 337.5,-73.5 181.5,-73.5"/>
<text text-anchor="middle" x="259.5" y="-104.3" font-family="Times,serif" font-size="14.00">AdditiveSemiGroup</text>
<polyline fill="none" stroke="black" points="181.5,-96.5 337.5,-96.5 "/>
<text text-anchor="middle" x="259.5" y="-81.3" font-family="Times,serif" font-size="14.00">+</text>
</a>
</g>
</g>
<!-- AlgebraicStructure -->
<g id="node2" class="node">
<title>AlgebraicStructure</title>
<polygon fill="none" stroke="black" points="249,-0.5 249,-36.5 402,-36.5 402,-0.5 249,-0.5"/>
<text text-anchor="middle" x="325.5" y="-14.8" font-family="Times,serif" font-size="14.00">AlgebraicStructure</text>
</g>
<!-- AdditiveSemiGroup&#45;&gt;AlgebraicStructure -->
<g id="edge1" class="edge">
<title>AdditiveSemiGroup&#45;&gt;AlgebraicStructure</title>
<path fill="none" stroke="black" d="M278.95,-73.11C286.71,-64.17 295.68,-53.83 303.67,-44.64"/>
<polygon fill="none" stroke="black" points="306.46,-46.76 310.38,-36.91 301.18,-42.17 306.46,-46.76"/>
</g>
<!-- MultiplicativeSemiGroup -->
<g id="node3" class="node">
<title>MultiplicativeSemiGroup</title>
<g id="a_node3"><a xlink:href="https://github.com/mihxil/math/blob/main/mihxil-math/src/main/java/org/meeuw/math/abstractalgebra/MultiplicativeSemiGroup.java" xlink:title="{\N|{ * }}">
<polygon fill="none" stroke="black" points="294.5,-277.5 294.5,-323.5 490.5,-323.5 490.5,-277.5 294.5,-277.5"/>
<text text-anchor="middle" x="392.5" y="-308.3" font-family="Times,serif" font-size="14.00">MultiplicativeSemiGroup</text>
<polyline fill="none" stroke="black" points="294.5,-300.5 490.5,-300.5 "/>
<text text-anchor="middle" x="392.5" y="-285.3" font-family="Times,serif" font-size="14.00">*</text>
</a>
</g>
</g>
<!-- MultiplicativeSemiGroup&#45;&gt;AlgebraicStructure -->
<g id="edge2" class="edge">
<title>MultiplicativeSemiGroup&#45;&gt;AlgebraicStructure</title>
<path fill="none" stroke="black" d="M390.84,-277.4C388.41,-249.03 383.12,-198.4 373.5,-156 364.92,-118.17 359.59,-109.52 346.5,-73 343.35,-64.22 339.71,-54.73 336.34,-46.2"/>
<polygon fill="none" stroke="black" points="339.53,-44.74 332.57,-36.75 333.03,-47.33 339.53,-44.74"/>
</g>
<!-- AdditiveAbelianSemiGroup -->
<g id="node4" class="node">
<title>AdditiveAbelianSemiGroup</title>
<g id="a_node4"><a xlink:href="https://github.com/mihxil/math/blob/main/mihxil-math/src/main/java/org/meeuw/math/abstractalgebra/AdditiveAbelianSemiGroup.java" xlink:title="{\N|{ + \n⇆}|NegativeIntegers}">
<polygon fill="none" stroke="black" points="155,-156.5 155,-240.5 364,-240.5 364,-156.5 155,-156.5"/>
<text text-anchor="middle" x="259.5" y="-225.3" font-family="Times,serif" font-size="14.00">AdditiveAbelianSemiGroup</text>
<polyline fill="none" stroke="black" points="155,-217.5 364,-217.5 "/>
<text text-anchor="middle" x="259.5" y="-202.3" font-family="Times,serif" font-size="14.00">+ </text>
<text text-anchor="middle" x="259.5" y="-187.3" font-family="Times,serif" font-size="14.00">⇆</text>
<polyline fill="none" stroke="black" points="155,-179.5 364,-179.5 "/>
<text text-anchor="middle" x="259.5" y="-164.3" font-family="Times,serif" font-size="14.00">NegativeIntegers</text>
</a>
</g>
</g>
<!-- AdditiveAbelianSemiGroup&#45;&gt;AdditiveSemiGroup -->
<g id="edge3" class="edge">
<title>AdditiveAbelianSemiGroup&#45;&gt;AdditiveSemiGroup</title>
<path fill="none" stroke="black" d="M259.5,-156.25C259.5,-147.4 259.5,-138.17 259.5,-129.72"/>
<polygon fill="none" stroke="black" points="263,-129.52 259.5,-119.52 256,-129.52 263,-129.52"/>
</g>
<!-- AdditiveMonoid -->
<g id="node5" class="node">
<title>AdditiveMonoid</title>
<g id="a_node5"><a xlink:href="https://github.com/mihxil/math/blob/main/mihxil-math/src/main/java/org/meeuw/math/abstractalgebra/AdditiveMonoid.java" xlink:title="{\N|{ + &#160;| 0}|StringMonoid\nNaturalNumbers}">
<polygon fill="none" stroke="black" points="0,-156.5 0,-240.5 137,-240.5 137,-156.5 0,-156.5"/>
<text text-anchor="middle" x="68.5" y="-225.3" font-family="Times,serif" font-size="14.00">AdditiveMonoid</text>
<polyline fill="none" stroke="black" points="0,-217.5 137,-217.5 "/>
<text text-anchor="middle" x="35" y="-202.3" font-family="Times,serif" font-size="14.00">+</text>
<polyline fill="none" stroke="black" points="70,-194.5 70,-217.5 "/>
<text text-anchor="middle" x="103.5" y="-202.3" font-family="Times,serif" font-size="14.00">0</text>
<polyline fill="none" stroke="black" points="0,-194.5 137,-194.5 "/>
<text text-anchor="middle" x="68.5" y="-179.3" font-family="Times,serif" font-size="14.00">StringMonoid</text>
<text text-anchor="middle" x="68.5" y="-164.3" font-family="Times,serif" font-size="14.00">NaturalNumbers</text>
</a>
</g>
</g>
<!-- AdditiveMonoid&#45;&gt;AdditiveSemiGroup -->
<g id="edge4" class="edge">
<title>AdditiveMonoid&#45;&gt;AdditiveSemiGroup</title>
<path fill="none" stroke="black" d="M137.31,-160.33C140.07,-158.86 142.81,-157.41 145.5,-156 165.56,-145.45 187.7,-134.03 207.1,-124.11"/>
<polygon fill="none" stroke="black" points="208.77,-127.18 216.09,-119.52 205.59,-120.95 208.77,-127.18"/>
</g>
<!-- MultiplicativeMonoid -->
<g id="node6" class="node">
<title>MultiplicativeMonoid</title>
<g id="a_node6"><a xlink:href="https://github.com/mihxil/math/blob/main/mihxil-math/src/main/java/org/meeuw/math/abstractalgebra/MultiplicativeMonoid.java" xlink:title="{\N|{ * &#160;| 1}|OddIntegers}">
<polygon fill="none" stroke="black" points="308,-368 308,-437 477,-437 477,-368 308,-368"/>
<text text-anchor="middle" x="392.5" y="-421.8" font-family="Times,serif" font-size="14.00">MultiplicativeMonoid</text>
<polyline fill="none" stroke="black" points="308,-414 477,-414 "/>
<text text-anchor="middle" x="349.5" y="-398.8" font-family="Times,serif" font-size="14.00">*</text>
<polyline fill="none" stroke="black" points="391,-391 391,-414 "/>
<text text-anchor="middle" x="434" y="-398.8" font-family="Times,serif" font-size="14.00">1</text>
<polyline fill="none" stroke="black" points="308,-391 477,-391 "/>
<text text-anchor="middle" x="392.5" y="-375.8" font-family="Times,serif" font-size="14.00">OddIntegers</text>
</a>
</g>
</g>
<!-- MultiplicativeMonoid&#45;&gt;MultiplicativeSemiGroup -->
<g id="edge5" class="edge">
<title>MultiplicativeMonoid&#45;&gt;MultiplicativeSemiGroup</title>
<path fill="none" stroke="black" d="M392.5,-367.92C392.5,-356.83 392.5,-344.52 392.5,-333.55"/>
<polygon fill="none" stroke="black" points="396,-333.51 392.5,-323.51 389,-333.51 396,-333.51"/>
</g>
<!-- Rng -->
<g id="node7" class="node">
<title>Rng</title>
<g id="a_node7"><a xlink:href="https://github.com/mihxil/math/blob/main/mihxil-math/src/main/java/org/meeuw/math/abstractalgebra/Rng.java" xlink:title="{\N|{ + &#160;&#45; \n⇆ | &#160;* &#160;| 0}|EvenIntegers\nNDivisibleIntegers}">
<polygon fill="none" stroke="black" points="166,-481.5 166,-580.5 317,-580.5 317,-481.5 166,-481.5"/>
<text text-anchor="middle" x="241.5" y="-565.3" font-family="Times,serif" font-size="14.00">Rng</text>
<polyline fill="none" stroke="black" points="166,-557.5 317,-557.5 "/>
<text text-anchor="middle" x="197" y="-542.3" font-family="Times,serif" font-size="14.00">+ &#45; </text>
<text text-anchor="middle" x="197" y="-527.3" font-family="Times,serif" font-size="14.00">⇆</text>
<polyline fill="none" stroke="black" points="228,-519.5 228,-557.5 "/>
<text text-anchor="middle" x="249.5" y="-534.8" font-family="Times,serif" font-size="14.00">*</text>
<polyline fill="none" stroke="black" points="271,-519.5 271,-557.5 "/>
<text text-anchor="middle" x="294" y="-534.8" font-family="Times,serif" font-size="14.00">0</text>
<polyline fill="none" stroke="black" points="166,-519.5 317,-519.5 "/>
<text text-anchor="middle" x="241.5" y="-504.3" font-family="Times,serif" font-size="14.00">EvenIntegers</text>
<text text-anchor="middle" x="241.5" y="-489.3" font-family="Times,serif" font-size="14.00">NDivisibleIntegers</text>
</a>
</g>
</g>
<!-- Rng&#45;&gt;MultiplicativeSemiGroup -->
<g id="edge6" class="edge">
<title>Rng&#45;&gt;MultiplicativeSemiGroup</title>
<path fill="none" stroke="black" d="M254.23,-481.18C266.18,-438.03 284.41,-379.08 299.5,-360 309.2,-347.73 322.24,-337.31 335.47,-328.83"/>
<polygon fill="none" stroke="black" points="337.45,-331.72 344.17,-323.53 333.8,-325.74 337.45,-331.72"/>
</g>
<!-- AdditiveAbelianGroup -->
<g id="node8" class="node">
<title>AdditiveAbelianGroup</title>
<g id="a_node8"><a xlink:href="https://github.com/mihxil/math/blob/main/mihxil-math/src/main/java/org/meeuw/math/abstractalgebra/AdditiveAbelianGroup.java" xlink:title="{\N|{ + &#160;&#45; \n⇆ | 0}}">
<polygon fill="none" stroke="black" points="79,-372 79,-433 252,-433 252,-372 79,-372"/>
<text text-anchor="middle" x="165.5" y="-417.8" font-family="Times,serif" font-size="14.00">AdditiveAbelianGroup</text>
<polyline fill="none" stroke="black" points="79,-410 252,-410 "/>
<text text-anchor="middle" x="126" y="-394.8" font-family="Times,serif" font-size="14.00">+ &#45; </text>
<text text-anchor="middle" x="126" y="-379.8" font-family="Times,serif" font-size="14.00">⇆</text>
<polyline fill="none" stroke="black" points="173,-372 173,-410 "/>
<text text-anchor="middle" x="212.5" y="-387.3" font-family="Times,serif" font-size="14.00">0</text>
</a>
</g>
</g>
<!-- Rng&#45;&gt;AdditiveAbelianGroup -->
<g id="edge7" class="edge">
<title>Rng&#45;&gt;AdditiveAbelianGroup</title>
<path fill="none" stroke="black" d="M212.33,-481.45C204.45,-468.33 196.03,-454.32 188.54,-441.85"/>
<polygon fill="none" stroke="black" points="191.41,-439.84 183.26,-433.07 185.41,-443.44 191.41,-439.84"/>
</g>
<!-- AdditiveAbelianGroup&#45;&gt;AdditiveAbelianSemiGroup -->
<g id="edge9" class="edge">
<title>AdditiveAbelianGroup&#45;&gt;AdditiveAbelianSemiGroup</title>
<path fill="none" stroke="black" d="M179.37,-371.69C194.25,-339.72 218.14,-288.39 235.96,-250.08"/>
<polygon fill="none" stroke="black" points="239.31,-251.18 240.36,-240.64 232.96,-248.23 239.31,-251.18"/>
</g>
<!-- AdditiveGroup -->
<g id="node10" class="node">
<title>AdditiveGroup</title>
<g id="a_node10"><a xlink:href="https://github.com/mihxil/math/blob/main/mihxil-math/src/main/java/org/meeuw/math/abstractalgebra/AdditiveGroup.java" xlink:title="{\N|{ + &#160;&#45; &#160;| 0}}">
<polygon fill="none" stroke="black" points="36.5,-277.5 36.5,-323.5 156.5,-323.5 156.5,-277.5 36.5,-277.5"/>
<text text-anchor="middle" x="96.5" y="-308.3" font-family="Times,serif" font-size="14.00">AdditiveGroup</text>
<polyline fill="none" stroke="black" points="36.5,-300.5 156.5,-300.5 "/>
<text text-anchor="middle" x="69.5" y="-285.3" font-family="Times,serif" font-size="14.00">+ &#45;</text>
<polyline fill="none" stroke="black" points="102.5,-277.5 102.5,-300.5 "/>
<text text-anchor="middle" x="129.5" y="-285.3" font-family="Times,serif" font-size="14.00">0</text>
</a>
</g>
</g>
<!-- AdditiveAbelianGroup&#45;&gt;AdditiveGroup -->
<g id="edge10" class="edge">
<title>AdditiveAbelianGroup&#45;&gt;AdditiveGroup</title>
<path fill="none" stroke="black" d="M144.98,-371.77C136.33,-359.23 126.27,-344.65 117.56,-332.03"/>
<polygon fill="none" stroke="black" points="120.35,-329.9 111.79,-323.65 114.58,-333.87 120.35,-329.9"/>
</g>
<!-- MultiplicativeAbelianSemiGroup -->
<g id="node9" class="node">
<title>MultiplicativeAbelianSemiGroup</title>
<g id="a_node9"><a xlink:href="https://github.com/mihxil/math/blob/main/mihxil-math/src/main/java/org/meeuw/math/abstractalgebra/MultiplicativeAbelianSemiGroup.java" xlink:title="{\N|{ * \n⇆}|OddIntegers}">
<polygon fill="none" stroke="black" points="495,-360.5 495,-444.5 744,-444.5 744,-360.5 495,-360.5"/>
<text text-anchor="middle" x="619.5" y="-429.3" font-family="Times,serif" font-size="14.00">MultiplicativeAbelianSemiGroup</text>
<polyline fill="none" stroke="black" points="495,-421.5 744,-421.5 "/>
<text text-anchor="middle" x="619.5" y="-406.3" font-family="Times,serif" font-size="14.00">* </text>
<text text-anchor="middle" x="619.5" y="-391.3" font-family="Times,serif" font-size="14.00">⇆</text>
<polyline fill="none" stroke="black" points="495,-383.5 744,-383.5 "/>
<text text-anchor="middle" x="619.5" y="-368.3" font-family="Times,serif" font-size="14.00">OddIntegers</text>
</a>
</g>
</g>
<!-- MultiplicativeAbelianSemiGroup&#45;&gt;MultiplicativeSemiGroup -->
<g id="edge8" class="edge">
<title>MultiplicativeAbelianSemiGroup&#45;&gt;MultiplicativeSemiGroup</title>
<path fill="none" stroke="black" d="M526.19,-360.39C501.04,-349.31 474.52,-337.63 451.8,-327.62"/>
<polygon fill="none" stroke="black" points="453.19,-324.41 442.63,-323.58 450.37,-330.82 453.19,-324.41"/>
</g>
<!-- AdditiveGroup&#45;&gt;AdditiveMonoid -->
<g id="edge11" class="edge">
<title>AdditiveGroup&#45;&gt;AdditiveMonoid</title>
<path fill="none" stroke="black" d="M90.29,-277.31C88.04,-269.28 85.4,-259.85 82.74,-250.37"/>
<polygon fill="none" stroke="black" points="86.06,-249.23 79.99,-240.54 79.32,-251.12 86.06,-249.23"/>
</g>
<!-- MultiplicativeGroup -->
<g id="node11" class="node">
<title>MultiplicativeGroup</title>
<g id="a_node11"><a xlink:href="https://github.com/mihxil/math/blob/main/mihxil-math/src/main/java/org/meeuw/math/abstractalgebra/MultiplicativeGroup.java" xlink:title="{\N|{ * &#160;/ &#160;| 1}|PermutationGroup}">
<polygon fill="none" stroke="black" points="335.5,-496.5 335.5,-565.5 495.5,-565.5 495.5,-496.5 335.5,-496.5"/>
<text text-anchor="middle" x="415.5" y="-550.3" font-family="Times,serif" font-size="14.00">MultiplicativeGroup</text>
<polyline fill="none" stroke="black" points="335.5,-542.5 495.5,-542.5 "/>
<text text-anchor="middle" x="377" y="-527.3" font-family="Times,serif" font-size="14.00">* /</text>
<polyline fill="none" stroke="black" points="418.5,-519.5 418.5,-542.5 "/>
<text text-anchor="middle" x="457" y="-527.3" font-family="Times,serif" font-size="14.00">1</text>
<polyline fill="none" stroke="black" points="335.5,-519.5 495.5,-519.5 "/>
<text text-anchor="middle" x="415.5" y="-504.3" font-family="Times,serif" font-size="14.00">PermutationGroup</text>
</a>
</g>
</g>
<!-- MultiplicativeGroup&#45;&gt;MultiplicativeMonoid -->
<g id="edge12" class="edge">
<title>MultiplicativeGroup&#45;&gt;MultiplicativeMonoid</title>
<path fill="none" stroke="black" d="M409.4,-496.43C406.67,-481.42 403.41,-463.53 400.49,-447.47"/>
<polygon fill="none" stroke="black" points="403.86,-446.44 398.63,-437.22 396.98,-447.69 403.86,-446.44"/>
</g>
<!-- Ring -->
<g id="node12" class="node">
<title>Ring</title>
<g id="a_node12"><a xlink:href="https://github.com/mihxil/math/blob/main/mihxil-math/src/main/java/org/meeuw/math/abstractalgebra/Ring.java" xlink:title="{\N|{ + &#160;&#45; \n⇆ | &#160;* &#160;| 0 | 1}|ModuloStructure}">
<polygon fill="none" stroke="black" points="187,-617.5 187,-701.5 326,-701.5 326,-617.5 187,-617.5"/>
<text text-anchor="middle" x="256.5" y="-686.3" font-family="Times,serif" font-size="14.00">Ring</text>
<polyline fill="none" stroke="black" points="187,-678.5 326,-678.5 "/>
<text text-anchor="middle" x="210.5" y="-663.3" font-family="Times,serif" font-size="14.00">+ &#45; </text>
<text text-anchor="middle" x="210.5" y="-648.3" font-family="Times,serif" font-size="14.00">⇆</text>
<polyline fill="none" stroke="black" points="234,-640.5 234,-678.5 "/>
<text text-anchor="middle" x="248.5" y="-655.8" font-family="Times,serif" font-size="14.00">*</text>
<polyline fill="none" stroke="black" points="263,-640.5 263,-678.5 "/>
<text text-anchor="middle" x="278.5" y="-655.8" font-family="Times,serif" font-size="14.00">0</text>
<polyline fill="none" stroke="black" points="294,-640.5 294,-678.5 "/>
<text text-anchor="middle" x="310" y="-655.8" font-family="Times,serif" font-size="14.00">1</text>
<polyline fill="none" stroke="black" points="187,-640.5 326,-640.5 "/>
<text text-anchor="middle" x="256.5" y="-625.3" font-family="Times,serif" font-size="14.00">ModuloStructure</text>
</a>
</g>
</g>
<!-- Ring&#45;&gt;Rng -->
<g id="edge13" class="edge">
<title>Ring&#45;&gt;Rng</title>
<path fill="none" stroke="black" d="M251.63,-617.43C250.62,-608.94 249.54,-599.84 248.48,-590.85"/>
<polygon fill="none" stroke="black" points="251.94,-590.32 247.29,-580.8 244.99,-591.14 251.94,-590.32"/>
</g>
<!-- MultiplicativeAbelianGroup -->
<g id="node13" class="node">
<title>MultiplicativeAbelianGroup</title>
<g id="a_node13"><a xlink:href="https://github.com/mihxil/math/blob/main/mihxil-math/src/main/java/org/meeuw/math/abstractalgebra/MultiplicativeAbelianGroup.java" xlink:title="{\N|{ * &#160;/ \n⇆ | 1}}">
<polygon fill="none" stroke="black" points="439,-629 439,-690 652,-690 652,-629 439,-629"/>
<text text-anchor="middle" x="545.5" y="-674.8" font-family="Times,serif" font-size="14.00">MultiplicativeAbelianGroup</text>
<polyline fill="none" stroke="black" points="439,-667 652,-667 "/>
<text text-anchor="middle" x="495" y="-651.8" font-family="Times,serif" font-size="14.00">* / </text>
<text text-anchor="middle" x="495" y="-636.8" font-family="Times,serif" font-size="14.00">⇆</text>
<polyline fill="none" stroke="black" points="551,-629 551,-667 "/>
<text text-anchor="middle" x="601.5" y="-644.3" font-family="Times,serif" font-size="14.00">1</text>
</a>
</g>
</g>
<!-- MultiplicativeAbelianGroup&#45;&gt;MultiplicativeAbelianSemiGroup -->
<g id="edge14" class="edge">
<title>MultiplicativeAbelianGroup&#45;&gt;MultiplicativeAbelianSemiGroup</title>
<path fill="none" stroke="black" d="M554.06,-629C566.43,-586.38 589.47,-506.99 604.64,-454.69"/>
<polygon fill="none" stroke="black" points="608.05,-455.52 607.48,-444.94 601.33,-453.56 608.05,-455.52"/>
</g>
<!-- MultiplicativeAbelianGroup&#45;&gt;MultiplicativeGroup -->
<g id="edge15" class="edge">
<title>MultiplicativeAbelianGroup&#45;&gt;MultiplicativeGroup</title>
<path fill="none" stroke="black" d="M515.02,-628.84C497.93,-612.21 476.35,-591.21 457.66,-573.02"/>
<polygon fill="none" stroke="black" points="459.99,-570.41 450.38,-565.94 455.11,-575.42 459.99,-570.41"/>
</g>
<!-- DivisionRing -->
<g id="node14" class="node">
<title>DivisionRing</title>
<g id="a_node14"><a xlink:href="https://github.com/mihxil/math/blob/main/mihxil-math/src/main/java/org/meeuw/math/abstractalgebra/DivisionRing.java" xlink:title="{\N|{ + &#160;&#45; \n⇆ | &#160;* &#160;/ &#160;| 0 | 1}|Quaternions}">
<polygon fill="none" stroke="black" points="339.5,-738.5 339.5,-822.5 465.5,-822.5 465.5,-738.5 339.5,-738.5"/>
<text text-anchor="middle" x="402.5" y="-807.3" font-family="Times,serif" font-size="14.00">DivisionRing</text>
<polyline fill="none" stroke="black" points="339.5,-799.5 465.5,-799.5 "/>
<text text-anchor="middle" x="360.5" y="-784.3" font-family="Times,serif" font-size="14.00">+ &#45; </text>
<text text-anchor="middle" x="360.5" y="-769.3" font-family="Times,serif" font-size="14.00">⇆</text>
<polyline fill="none" stroke="black" points="381.5,-761.5 381.5,-799.5 "/>
<text text-anchor="middle" x="397.5" y="-776.8" font-family="Times,serif" font-size="14.00">* /</text>
<polyline fill="none" stroke="black" points="413.5,-761.5 413.5,-799.5 "/>
<text text-anchor="middle" x="426.5" y="-776.8" font-family="Times,serif" font-size="14.00">0</text>
<polyline fill="none" stroke="black" points="439.5,-761.5 439.5,-799.5 "/>
<text text-anchor="middle" x="452.5" y="-776.8" font-family="Times,serif" font-size="14.00">1</text>
<polyline fill="none" stroke="black" points="339.5,-761.5 465.5,-761.5 "/>
<text text-anchor="middle" x="402.5" y="-746.3" font-family="Times,serif" font-size="14.00">Quaternions</text>
</a>
</g>
</g>
<!-- DivisionRing&#45;&gt;MultiplicativeGroup -->
<g id="edge16" class="edge">
<title>DivisionRing&#45;&gt;MultiplicativeGroup</title>
<path fill="none" stroke="black" d="M404.66,-738.35C407.02,-693.46 410.78,-621.89 413.19,-575.93"/>
<polygon fill="none" stroke="black" points="416.7,-575.85 413.73,-565.68 409.71,-575.49 416.7,-575.85"/>
</g>
<!-- DivisionRing&#45;&gt;Ring -->
<g id="edge17" class="edge">
<title>DivisionRing&#45;&gt;Ring</title>
<path fill="none" stroke="black" d="M351.85,-738.21C339.96,-728.52 327.19,-718.12 314.99,-708.17"/>
<polygon fill="none" stroke="black" points="317.03,-705.32 307.06,-701.71 312.6,-710.74 317.03,-705.32"/>
</g>
<!-- AbelianRing -->
<g id="node15" class="node">
<title>AbelianRing</title>
<g id="a_node15"><a xlink:href="https://github.com/mihxil/math/blob/main/mihxil-math/src/main/java/org/meeuw/math/abstractalgebra/AbelianRing.java" xlink:title="{\N|{ + &#160;&#45; \n⇆ | &#160;* \n⇆ | 0 | 1}}">
<polygon fill="none" stroke="black" points="195,-750 195,-811 318,-811 318,-750 195,-750"/>
<text text-anchor="middle" x="256.5" y="-795.8" font-family="Times,serif" font-size="14.00">AbelianRing</text>
<polyline fill="none" stroke="black" points="195,-788 318,-788 "/>
<text text-anchor="middle" x="216" y="-772.8" font-family="Times,serif" font-size="14.00">+ &#45; </text>
<text text-anchor="middle" x="216" y="-757.8" font-family="Times,serif" font-size="14.00">⇆</text>
<polyline fill="none" stroke="black" points="237,-750 237,-788 "/>
<text text-anchor="middle" x="251.5" y="-772.8" font-family="Times,serif" font-size="14.00">* </text>
<text text-anchor="middle" x="251.5" y="-757.8" font-family="Times,serif" font-size="14.00">⇆</text>
<polyline fill="none" stroke="black" points="266,-750 266,-788 "/>
<text text-anchor="middle" x="279" y="-765.3" font-family="Times,serif" font-size="14.00">0</text>
<polyline fill="none" stroke="black" points="292,-750 292,-788 "/>
<text text-anchor="middle" x="305" y="-765.3" font-family="Times,serif" font-size="14.00">1</text>
</a>
</g>
</g>
<!-- AbelianRing&#45;&gt;Ring -->
<g id="edge18" class="edge">
<title>AbelianRing&#45;&gt;Ring</title>
<path fill="none" stroke="black" d="M256.5,-749.78C256.5,-738.26 256.5,-724.74 256.5,-711.75"/>
<polygon fill="none" stroke="black" points="260,-711.5 256.5,-701.5 253,-711.5 260,-711.5"/>
</g>
<!-- DivisibleGroup -->
<g id="node16" class="node">
<title>DivisibleGroup</title>
<g id="a_node16"><a xlink:href="https://github.com/mihxil/math/blob/main/mihxil-math/src/main/java/org/meeuw/math/abstractalgebra/DivisibleGroup.java" xlink:title="{\N|{ * &#160;/ \n⇆ | 1}}">
<polygon fill="none" stroke="black" points="484,-750 484,-811 607,-811 607,-750 484,-750"/>
<text text-anchor="middle" x="545.5" y="-795.8" font-family="Times,serif" font-size="14.00">DivisibleGroup</text>
<polyline fill="none" stroke="black" points="484,-788 607,-788 "/>
<text text-anchor="middle" x="517.5" y="-772.8" font-family="Times,serif" font-size="14.00">* / </text>
<text text-anchor="middle" x="517.5" y="-757.8" font-family="Times,serif" font-size="14.00">⇆</text>
<polyline fill="none" stroke="black" points="551,-750 551,-788 "/>
<text text-anchor="middle" x="579" y="-765.3" font-family="Times,serif" font-size="14.00">1</text>
</a>
</g>
</g>
<!-- DivisibleGroup&#45;&gt;MultiplicativeAbelianGroup -->
<g id="edge19" class="edge">
<title>DivisibleGroup&#45;&gt;MultiplicativeAbelianGroup</title>
<path fill="none" stroke="black" d="M545.5,-749.78C545.5,-734.87 545.5,-716.6 545.5,-700.48"/>
<polygon fill="none" stroke="black" points="549,-700.26 545.5,-690.26 542,-700.26 549,-700.26"/>
</g>
<!-- Field -->
<g id="node17" class="node">
<title>Field</title>
<g id="a_node17"><a xlink:href="https://github.com/mihxil/math/blob/main/mihxil-math/src/main/java/org/meeuw/math/abstractalgebra/Field.java" xlink:title="{\N|{ + &#160;&#45; \n⇆ | &#160;* &#160;/ \n⇆ | 0 | 1}|ModuloField\nGaussianRationals}">
<polygon fill="none" stroke="black" points="331,-859.5 331,-958.5 480,-958.5 480,-859.5 331,-859.5"/>
<text text-anchor="middle" x="405.5" y="-943.3" font-family="Times,serif" font-size="14.00">Field</text>
<polyline fill="none" stroke="black" points="331,-935.5 480,-935.5 "/>
<text text-anchor="middle" x="354" y="-920.3" font-family="Times,serif" font-size="14.00">+ &#45; </text>
<text text-anchor="middle" x="354" y="-905.3" font-family="Times,serif" font-size="14.00">⇆</text>
<polyline fill="none" stroke="black" points="377,-897.5 377,-935.5 "/>
<text text-anchor="middle" x="398" y="-920.3" font-family="Times,serif" font-size="14.00">* / </text>
<text text-anchor="middle" x="398" y="-905.3" font-family="Times,serif" font-size="14.00">⇆</text>
<polyline fill="none" stroke="black" points="419,-897.5 419,-935.5 "/>
<text text-anchor="middle" x="434" y="-912.8" font-family="Times,serif" font-size="14.00">0</text>
<polyline fill="none" stroke="black" points="449,-897.5 449,-935.5 "/>
<text text-anchor="middle" x="464.5" y="-912.8" font-family="Times,serif" font-size="14.00">1</text>
<polyline fill="none" stroke="black" points="331,-897.5 480,-897.5 "/>
<text text-anchor="middle" x="405.5" y="-882.3" font-family="Times,serif" font-size="14.00">ModuloField</text>
<text text-anchor="middle" x="405.5" y="-867.3" font-family="Times,serif" font-size="14.00">GaussianRationals</text>
</a>
</g>
</g>
<!-- Field&#45;&gt;DivisionRing -->
<g id="edge20" class="edge">
<title>Field&#45;&gt;DivisionRing</title>
<path fill="none" stroke="black" d="M404.35,-859.45C404.14,-850.74 403.93,-841.63 403.72,-832.84"/>
<polygon fill="none" stroke="black" points="407.21,-832.63 403.48,-822.71 400.22,-832.79 407.21,-832.63"/>
</g>
<!-- Field&#45;&gt;AbelianRing -->
<g id="edge21" class="edge">
<title>Field&#45;&gt;AbelianRing</title>
<path fill="none" stroke="black" d="M348.32,-859.45C331.97,-845.57 314.43,-830.69 299.12,-817.68"/>
<polygon fill="none" stroke="black" points="301.22,-814.87 291.33,-811.07 296.69,-820.21 301.22,-814.87"/>
</g>
<!-- Field&#45;&gt;DivisibleGroup -->
<g id="edge22" class="edge">
<title>Field&#45;&gt;DivisibleGroup</title>
<path fill="none" stroke="black" d="M459.23,-859.45C474.45,-845.7 490.76,-830.96 505.06,-818.04"/>
<polygon fill="none" stroke="black" points="507.7,-820.37 512.78,-811.07 503.01,-815.18 507.7,-820.37"/>
</g>
<!-- VectorSpace -->
<g id="node18" class="node">
<title>VectorSpace</title>
<g id="a_node18"><a xlink:href="https://github.com/mihxil/math/blob/main/mihxil-math/src/main/java/org/meeuw/math/abstractalgebra/VectorSpace.java" xlink:title="{\N|{ + &#160;&#45; \n⇆ | &#160;* \n⇆ | 0 | 1}|Vector3Space}">
<polygon fill="none" stroke="black" points="190,-867 190,-951 313,-951 313,-867 190,-867"/>
<text text-anchor="middle" x="251.5" y="-935.8" font-family="Times,serif" font-size="14.00">VectorSpace</text>
<polyline fill="none" stroke="black" points="190,-928 313,-928 "/>
<text text-anchor="middle" x="211" y="-912.8" font-family="Times,serif" font-size="14.00">+ &#45; </text>
<text text-anchor="middle" x="211" y="-897.8" font-family="Times,serif" font-size="14.00">⇆</text>
<polyline fill="none" stroke="black" points="232,-890 232,-928 "/>
<text text-anchor="middle" x="246.5" y="-912.8" font-family="Times,serif" font-size="14.00">* </text>
<text text-anchor="middle" x="246.5" y="-897.8" font-family="Times,serif" font-size="14.00">⇆</text>
<polyline fill="none" stroke="black" points="261,-890 261,-928 "/>
<text text-anchor="middle" x="274" y="-905.3" font-family="Times,serif" font-size="14.00">0</text>
<polyline fill="none" stroke="black" points="287,-890 287,-928 "/>
<text text-anchor="middle" x="300" y="-905.3" font-family="Times,serif" font-size="14.00">1</text>
<polyline fill="none" stroke="black" points="190,-890 313,-890 "/>
<text text-anchor="middle" x="251.5" y="-874.8" font-family="Times,serif" font-size="14.00">Vector3Space</text>
</a>
</g>
</g>
<!-- VectorSpace&#45;&gt;AbelianRing -->
<g id="edge23" class="edge">
<title>VectorSpace&#45;&gt;AbelianRing</title>
<path fill="none" stroke="black" d="M253.12,-866.93C253.7,-852.3 254.35,-835.86 254.93,-821.33"/>
<polygon fill="none" stroke="black" points="258.43,-821.28 255.33,-811.15 251.44,-821.01 258.43,-821.28"/>
</g>
<!-- ScalarField -->
<g id="node19" class="node">
<title>ScalarField</title>
<g id="a_node19"><a xlink:href="https://github.com/mihxil/math/blob/main/mihxil-math/src/main/java/org/meeuw/math/abstractalgebra/ScalarField.java" xlink:title="{\N|{ + &#160;&#45; \n⇆ | &#160;* &#160;/ \n⇆ | 0 | 1}|RationalNumbers}">
<polygon fill="none" stroke="black" points="334.5,-995.5 334.5,-1079.5 476.5,-1079.5 476.5,-995.5 334.5,-995.5"/>
<text text-anchor="middle" x="405.5" y="-1064.3" font-family="Times,serif" font-size="14.00">ScalarField</text>
<polyline fill="none" stroke="black" points="334.5,-1056.5 476.5,-1056.5 "/>
<text text-anchor="middle" x="356.5" y="-1041.3" font-family="Times,serif" font-size="14.00">+ &#45; </text>
<text text-anchor="middle" x="356.5" y="-1026.3" font-family="Times,serif" font-size="14.00">⇆</text>
<polyline fill="none" stroke="black" points="378.5,-1018.5 378.5,-1056.5 "/>
<text text-anchor="middle" x="398.5" y="-1041.3" font-family="Times,serif" font-size="14.00">* / </text>
<text text-anchor="middle" x="398.5" y="-1026.3" font-family="Times,serif" font-size="14.00">⇆</text>
<polyline fill="none" stroke="black" points="418.5,-1018.5 418.5,-1056.5 "/>
<text text-anchor="middle" x="433" y="-1033.8" font-family="Times,serif" font-size="14.00">0</text>
<polyline fill="none" stroke="black" points="447.5,-1018.5 447.5,-1056.5 "/>
<text text-anchor="middle" x="462" y="-1033.8" font-family="Times,serif" font-size="14.00">1</text>
<polyline fill="none" stroke="black" points="334.5,-1018.5 476.5,-1018.5 "/>
<text text-anchor="middle" x="405.5" y="-1003.3" font-family="Times,serif" font-size="14.00">RationalNumbers</text>
</a>
</g>
</g>
<!-- ScalarField&#45;&gt;Field -->
<g id="edge24" class="edge">
<title>ScalarField&#45;&gt;Field</title>
<path fill="none" stroke="black" d="M405.5,-995.43C405.5,-986.94 405.5,-977.84 405.5,-968.85"/>
<polygon fill="none" stroke="black" points="409,-968.8 405.5,-958.8 402,-968.8 409,-968.8"/>
</g>
<!-- CompleteField -->
<g id="node20" class="node">
<title>CompleteField</title>
<g id="a_node20"><a xlink:href="https://github.com/mihxil/math/blob/main/mihxil-math/src/main/java/org/meeuw/math/abstractalgebra/CompleteField.java" xlink:title="{\N|{ + &#160;&#45; \n⇆ | &#160;* &#160;/ \n⇆ | 0 | 1}|BigDecimalField\nRealField}">
<polygon fill="none" stroke="black" points="338.5,-1116.5 338.5,-1215.5 472.5,-1215.5 472.5,-1116.5 338.5,-1116.5"/>
<text text-anchor="middle" x="405.5" y="-1200.3" font-family="Times,serif" font-size="14.00">CompleteField</text>
<polyline fill="none" stroke="black" points="338.5,-1192.5 472.5,-1192.5 "/>
<text text-anchor="middle" x="359.5" y="-1177.3" font-family="Times,serif" font-size="14.00">+ &#45; </text>
<text text-anchor="middle" x="359.5" y="-1162.3" font-family="Times,serif" font-size="14.00">⇆</text>
<polyline fill="none" stroke="black" points="380.5,-1154.5 380.5,-1192.5 "/>
<text text-anchor="middle" x="399.5" y="-1177.3" font-family="Times,serif" font-size="14.00">* / </text>
<text text-anchor="middle" x="399.5" y="-1162.3" font-family="Times,serif" font-size="14.00">⇆</text>
<polyline fill="none" stroke="black" points="418.5,-1154.5 418.5,-1192.5 "/>
<text text-anchor="middle" x="432" y="-1169.8" font-family="Times,serif" font-size="14.00">0</text>
<polyline fill="none" stroke="black" points="445.5,-1154.5 445.5,-1192.5 "/>
<text text-anchor="middle" x="459" y="-1169.8" font-family="Times,serif" font-size="14.00">1</text>
<polyline fill="none" stroke="black" points="338.5,-1154.5 472.5,-1154.5 "/>
<text text-anchor="middle" x="405.5" y="-1139.3" font-family="Times,serif" font-size="14.00">BigDecimalField</text>
<text text-anchor="middle" x="405.5" y="-1124.3" font-family="Times,serif" font-size="14.00">RealField</text>
</a>
</g>
</g>
<!-- CompleteField&#45;&gt;ScalarField -->
<g id="edge25" class="edge">
<title>CompleteField&#45;&gt;ScalarField</title>
<path fill="none" stroke="black" d="M405.5,-1116.45C405.5,-1107.74 405.5,-1098.63 405.5,-1089.84"/>
<polygon fill="none" stroke="black" points="409,-1089.71 405.5,-1079.71 402,-1089.71 409,-1089.71"/>
</g>
</g>
</svg>
