<?xml version="1.0" encoding="UTF-8" standalone="no"?>
<!DOCTYPE svg PUBLIC "-//W3C//DTD SVG 1.1//EN"
 "http://www.w3.org/Graphics/SVG/1.1/DTD/svg11.dtd">
<!-- Generated by graphviz version 2.44.0 ()
 -->
<!-- Pages: 1 -->
<svg width="752pt" height="1209pt"
 viewBox="0.00 0.00 752.00 1209.00" xmlns="http://www.w3.org/2000/svg" xmlns:xlink="http://www.w3.org/1999/xlink">
<g id="graph0" class="graph" transform="scale(1 1) rotate(0) translate(4 1205)">
<polygon fill="white" stroke="transparent" points="-4,4 -4,-1205 748,-1205 748,4 -4,4"/>
<!-- AdditiveSemiGroup -->
<g id="node1" class="node">
<title>AdditiveSemiGroup</title>
<g id="a_node1"><a xlink:href="https://github.com/mihxil/math/blob/main/mihxil-math/src/main/java/org/meeuw/math/abstractalgebra/AdditiveSemiGroup.java" xlink:title="{\N|{ + }}">
<polygon fill="none" stroke="black" points="181.5,-73.5 181.5,-119.5 337.5,-119.5 337.5,-73.5 181.5,-73.5"/>
<text text-anchor="middle" x="259.5" y="-104.3" font-family="Times,serif" font-size="14.00">AdditiveSemiGroup</text>
<polyline fill="none" stroke="black" points="181.5,-96.5 337.5,-96.5 "/>
<text text-anchor="middle" x="259.5" y="-81.3" font-family="Times,serif" font-size="14.00">+</text>
</a>
</g>
</g>
<!-- AlgebraicStructure -->
<g id="node2" class="node">
<title>AlgebraicStructure</title>
<polygon fill="none" stroke="black" points="249,-0.5 249,-36.5 402,-36.5 402,-0.5 249,-0.5"/>
<text text-anchor="middle" x="325.5" y="-14.8" font-family="Times,serif" font-size="14.00">AlgebraicStructure</text>
</g>
<!-- AdditiveSemiGroup&#45;&gt;AlgebraicStructure -->
<g id="edge1" class="edge">
<title>AdditiveSemiGroup&#45;&gt;AlgebraicStructure</title>
<path fill="none" stroke="black" d="M278.95,-73.11C286.71,-64.17 295.68,-53.83 303.67,-44.64"/>
<polygon fill="none" stroke="black" points="306.46,-46.76 310.38,-36.91 301.18,-42.17 306.46,-46.76"/>
</g>
<!-- MultiplicativeSemiGroup -->
<g id="node3" class="node">
<title>MultiplicativeSemiGroup</title>
<g id="a_node3"><a xlink:href="https://github.com/mihxil/math/blob/main/mihxil-math/src/main/java/org/meeuw/math/abstractalgebra/MultiplicativeSemiGroup.java" xlink:title="{\N|{ * }}">
<polygon fill="none" stroke="black" points="294.5,-277.5 294.5,-323.5 490.5,-323.5 490.5,-277.5 294.5,-277.5"/>
<text text-anchor="middle" x="392.5" y="-308.3" font-family="Times,serif" font-size="14.00">MultiplicativeSemiGroup</text>
<polyline fill="none" stroke="black" points="294.5,-300.5 490.5,-300.5 "/>
<text text-anchor="middle" x="392.5" y="-285.3" font-family="Times,serif" font-size="14.00">*</text>
</a>
</g>
</g>
<!-- MultiplicativeSemiGroup&#45;&gt;AlgebraicStructure -->
<g id="edge2" class="edge">
<title>MultiplicativeSemiGroup&#45;&gt;AlgebraicStructure</title>
<path fill="none" stroke="black" d="M390.84,-277.4C388.41,-249.03 383.12,-198.4 373.5,-156 364.92,-118.17 359.59,-109.52 346.5,-73 343.35,-64.22 339.71,-54.73 336.34,-46.2"/>
<polygon fill="none" stroke="black" points="339.53,-44.74 332.57,-36.75 333.03,-47.33 339.53,-44.74"/>
</g>
<!-- AdditiveAbelianSemiGroup -->
<g id="node4" class="node">
<title>AdditiveAbelianSemiGroup</title>
<g id="a_node4"><a xlink:href="https://github.com/mihxil/math/blob/main/mihxil-math/src/main/java/org/meeuw/math/abstractalgebra/AdditiveAbelianSemiGroup.java" xlink:title="{\N|{ + \n⇆}|NegativeNumbers}">
<polygon fill="none" stroke="black" points="155,-156.5 155,-240.5 364,-240.5 364,-156.5 155,-156.5"/>
<text text-anchor="middle" x="259.5" y="-225.3" font-family="Times,serif" font-size="14.00">AdditiveAbelianSemiGroup</text>
<polyline fill="none" stroke="black" points="155,-217.5 364,-217.5 "/>
<text text-anchor="middle" x="259.5" y="-202.3" font-family="Times,serif" font-size="14.00">+ </text>
<text text-anchor="middle" x="259.5" y="-187.3" font-family="Times,serif" font-size="14.00">⇆</text>
<polyline fill="none" stroke="black" points="155,-179.5 364,-179.5 "/>
<text text-anchor="middle" x="259.5" y="-164.3" font-family="Times,serif" font-size="14.00">NegativeNumbers</text>
</a>
</g>
</g>
<!-- AdditiveAbelianSemiGroup&#45;&gt;AdditiveSemiGroup -->
<g id="edge3" class="edge">
<title>AdditiveAbelianSemiGroup&#45;&gt;AdditiveSemiGroup</title>
<path fill="none" stroke="black" d="M259.5,-156.25C259.5,-147.4 259.5,-138.17 259.5,-129.72"/>
<polygon fill="none" stroke="black" points="263,-129.52 259.5,-119.52 256,-129.52 263,-129.52"/>
</g>
<!-- AdditiveMonoid -->
<g id="node5" class="node">
<title>AdditiveMonoid</title>
<g id="a_node5"><a xlink:href="https://github.com/mihxil/math/blob/main/mihxil-math/src/main/java/org/meeuw/math/abstractalgebra/AdditiveMonoid.java" xlink:title="{\N|{ + &#160;| 0}|StringMonoid\nNaturalNumbers}">
<polygon fill="none" stroke="black" points="0,-156.5 0,-240.5 137,-240.5 137,-156.5 0,-156.5"/>
<text text-anchor="middle" x="68.5" y="-225.3" font-family="Times,serif" font-size="14.00">AdditiveMonoid</text>
<polyline fill="none" stroke="black" points="0,-217.5 137,-217.5 "/>
<text text-anchor="middle" x="35" y="-202.3" font-family="Times,serif" font-size="14.00">+</text>
<polyline fill="none" stroke="black" points="70,-194.5 70,-217.5 "/>
<text text-anchor="middle" x="103.5" y="-202.3" font-family="Times,serif" font-size="14.00">0</text>
<polyline fill="none" stroke="black" points="0,-194.5 137,-194.5 "/>
<text text-anchor="middle" x="68.5" y="-179.3" font-family="Times,serif" font-size="14.00">StringMonoid</text>
<text text-anchor="middle" x="68.5" y="-164.3" font-family="Times,serif" font-size="14.00">NaturalNumbers</text>
</a>
</g>
</g>
<!-- AdditiveMonoid&#45;&gt;AdditiveSemiGroup -->
<g id="edge4" class="edge">
<title>AdditiveMonoid&#45;&gt;AdditiveSemiGroup</title>
<path fill="none" stroke="black" d="M137.31,-160.33C140.07,-158.86 142.81,-157.41 145.5,-156 165.56,-145.45 187.7,-134.03 207.1,-124.11"/>
<polygon fill="none" stroke="black" points="208.77,-127.18 216.09,-119.52 205.59,-120.95 208.77,-127.18"/>
</g>
<!-- MultiplicativeMonoid -->
<g id="node6" class="node">
<title>MultiplicativeMonoid</title>
<g id="a_node6"><a xlink:href="https://github.com/mihxil/math/blob/main/mihxil-math/src/main/java/org/meeuw/math/abstractalgebra/MultiplicativeMonoid.java" xlink:title="{\N|{ * &#160;| 1}|OddIntegers}">
<polygon fill="none" stroke="black" points="308,-368 308,-437 477,-437 477,-368 308,-368"/>
<text text-anchor="middle" x="392.5" y="-421.8" font-family="Times,serif" font-size="14.00">MultiplicativeMonoid</text>
<polyline fill="none" stroke="black" points="308,-414 477,-414 "/>
<text text-anchor="middle" x="349.5" y="-398.8" font-family="Times,serif" font-size="14.00">*</text>
<polyline fill="none" stroke="black" points="391,-391 391,-414 "/>
<text text-anchor="middle" x="434" y="-398.8" font-family="Times,serif" font-size="14.00">1</text>
<polyline fill="none" stroke="black" points="308,-391 477,-391 "/>
<text text-anchor="middle" x="392.5" y="-375.8" font-family="Times,serif" font-size="14.00">OddIntegers</text>
</a>
</g>
</g>
<!-- MultiplicativeMonoid&#45;&gt;MultiplicativeSemiGroup -->
<g id="edge5" class="edge">
<title>MultiplicativeMonoid&#45;&gt;MultiplicativeSemiGroup</title>
<path fill="none" stroke="black" d="M392.5,-367.92C392.5,-356.83 392.5,-344.52 392.5,-333.55"/>
<polygon fill="none" stroke="black" points="396,-333.51 392.5,-323.51 389,-333.51 396,-333.51"/>
</g>
<!-- Rng -->
<g id="node7" class="node">
<title>Rng</title>
<g id="a_node7"><a xlink:href="https://github.com/mihxil/math/blob/main/mihxil-math/src/main/java/org/meeuw/math/abstractalgebra/Rng.java" xlink:title="{\N|{ + &#160;&#45; \n⇆ | &#160;* &#160;| 0}|EvenIntegers}">
<polygon fill="none" stroke="black" points="202,-481.5 202,-565.5 315,-565.5 315,-481.5 202,-481.5"/>
<text text-anchor="middle" x="258.5" y="-550.3" font-family="Times,serif" font-size="14.00">Rng</text>
<polyline fill="none" stroke="black" points="202,-542.5 315,-542.5 "/>
<text text-anchor="middle" x="226.5" y="-527.3" font-family="Times,serif" font-size="14.00">+ &#45; </text>
<text text-anchor="middle" x="226.5" y="-512.3" font-family="Times,serif" font-size="14.00">⇆</text>
<polyline fill="none" stroke="black" points="251,-504.5 251,-542.5 "/>
<text text-anchor="middle" x="266" y="-519.8" font-family="Times,serif" font-size="14.00">*</text>
<polyline fill="none" stroke="black" points="281,-504.5 281,-542.5 "/>
<text text-anchor="middle" x="298" y="-519.8" font-family="Times,serif" font-size="14.00">0</text>
<polyline fill="none" stroke="black" points="202,-504.5 315,-504.5 "/>
<text text-anchor="middle" x="258.5" y="-489.3" font-family="Times,serif" font-size="14.00">EvenIntegers</text>
</a>
</g>
</g>
<!-- Rng&#45;&gt;MultiplicativeSemiGroup -->
<g id="edge6" class="edge">
<title>Rng&#45;&gt;MultiplicativeSemiGroup</title>
<path fill="none" stroke="black" d="M260.47,-481.2C263.99,-446.03 273.59,-395.66 299.5,-360 308.51,-347.59 321.03,-337.21 333.98,-328.8"/>
<polygon fill="none" stroke="black" points="335.82,-331.78 342.51,-323.56 332.15,-325.81 335.82,-331.78"/>
</g>
<!-- AdditiveAbelianGroup -->
<g id="node8" class="node">
<title>AdditiveAbelianGroup</title>
<g id="a_node8"><a xlink:href="https://github.com/mihxil/math/blob/main/mihxil-math/src/main/java/org/meeuw/math/abstractalgebra/AdditiveAbelianGroup.java" xlink:title="{\N|{ + &#160;&#45; \n⇆ | 0}}">
<polygon fill="none" stroke="black" points="79,-372 79,-433 252,-433 252,-372 79,-372"/>
<text text-anchor="middle" x="165.5" y="-417.8" font-family="Times,serif" font-size="14.00">AdditiveAbelianGroup</text>
<polyline fill="none" stroke="black" points="79,-410 252,-410 "/>
<text text-anchor="middle" x="126" y="-394.8" font-family="Times,serif" font-size="14.00">+ &#45; </text>
<text text-anchor="middle" x="126" y="-379.8" font-family="Times,serif" font-size="14.00">⇆</text>
<polyline fill="none" stroke="black" points="173,-372 173,-410 "/>
<text text-anchor="middle" x="212.5" y="-387.3" font-family="Times,serif" font-size="14.00">0</text>
</a>
</g>
</g>
<!-- Rng&#45;&gt;AdditiveAbelianGroup -->
<g id="edge7" class="edge">
<title>Rng&#45;&gt;AdditiveAbelianGroup</title>
<path fill="none" stroke="black" d="M226.23,-481.21C216.08,-468.22 204.92,-453.94 194.97,-441.21"/>
<polygon fill="none" stroke="black" points="197.54,-438.81 188.63,-433.09 192.03,-443.12 197.54,-438.81"/>
</g>
<!-- AdditiveAbelianGroup&#45;&gt;AdditiveAbelianSemiGroup -->
<g id="edge9" class="edge">
<title>AdditiveAbelianGroup&#45;&gt;AdditiveAbelianSemiGroup</title>
<path fill="none" stroke="black" d="M179.37,-371.69C194.25,-339.72 218.14,-288.39 235.96,-250.08"/>
<polygon fill="none" stroke="black" points="239.31,-251.18 240.36,-240.64 232.96,-248.23 239.31,-251.18"/>
</g>
<!-- AdditiveGroup -->
<g id="node10" class="node">
<title>AdditiveGroup</title>
<g id="a_node10"><a xlink:href="https://github.com/mihxil/math/blob/main/mihxil-math/src/main/java/org/meeuw/math/abstractalgebra/AdditiveGroup.java" xlink:title="{\N|{ + &#160;&#45; &#160;| 0}}">
<polygon fill="none" stroke="black" points="36.5,-277.5 36.5,-323.5 156.5,-323.5 156.5,-277.5 36.5,-277.5"/>
<text text-anchor="middle" x="96.5" y="-308.3" font-family="Times,serif" font-size="14.00">AdditiveGroup</text>
<polyline fill="none" stroke="black" points="36.5,-300.5 156.5,-300.5 "/>
<text text-anchor="middle" x="69.5" y="-285.3" font-family="Times,serif" font-size="14.00">+ &#45;</text>
<polyline fill="none" stroke="black" points="102.5,-277.5 102.5,-300.5 "/>
<text text-anchor="middle" x="129.5" y="-285.3" font-family="Times,serif" font-size="14.00">0</text>
</a>
</g>
</g>
<!-- AdditiveAbelianGroup&#45;&gt;AdditiveGroup -->
<g id="edge10" class="edge">
<title>AdditiveAbelianGroup&#45;&gt;AdditiveGroup</title>
<path fill="none" stroke="black" d="M144.98,-371.77C136.33,-359.23 126.27,-344.65 117.56,-332.03"/>
<polygon fill="none" stroke="black" points="120.35,-329.9 111.79,-323.65 114.58,-333.87 120.35,-329.9"/>
</g>
<!-- MultiplicativeAbelianSemiGroup -->
<g id="node9" class="node">
<title>MultiplicativeAbelianSemiGroup</title>
<g id="a_node9"><a xlink:href="https://github.com/mihxil/math/blob/main/mihxil-math/src/main/java/org/meeuw/math/abstractalgebra/MultiplicativeAbelianSemiGroup.java" xlink:title="{\N|{ * \n⇆}|OddIntegers}">
<polygon fill="none" stroke="black" points="495,-360.5 495,-444.5 744,-444.5 744,-360.5 495,-360.5"/>
<text text-anchor="middle" x="619.5" y="-429.3" font-family="Times,serif" font-size="14.00">MultiplicativeAbelianSemiGroup</text>
<polyline fill="none" stroke="black" points="495,-421.5 744,-421.5 "/>
<text text-anchor="middle" x="619.5" y="-406.3" font-family="Times,serif" font-size="14.00">* </text>
<text text-anchor="middle" x="619.5" y="-391.3" font-family="Times,serif" font-size="14.00">⇆</text>
<polyline fill="none" stroke="black" points="495,-383.5 744,-383.5 "/>
<text text-anchor="middle" x="619.5" y="-368.3" font-family="Times,serif" font-size="14.00">OddIntegers</text>
</a>
</g>
</g>
<!-- MultiplicativeAbelianSemiGroup&#45;&gt;MultiplicativeSemiGroup -->
<g id="edge8" class="edge">
<title>MultiplicativeAbelianSemiGroup&#45;&gt;MultiplicativeSemiGroup</title>
<path fill="none" stroke="black" d="M526.19,-360.39C501.04,-349.31 474.52,-337.63 451.8,-327.62"/>
<polygon fill="none" stroke="black" points="453.19,-324.41 442.63,-323.58 450.37,-330.82 453.19,-324.41"/>
</g>
<!-- AdditiveGroup&#45;&gt;AdditiveMonoid -->
<g id="edge11" class="edge">
<title>AdditiveGroup&#45;&gt;AdditiveMonoid</title>
<path fill="none" stroke="black" d="M90.29,-277.31C88.04,-269.28 85.4,-259.85 82.74,-250.37"/>
<polygon fill="none" stroke="black" points="86.06,-249.23 79.99,-240.54 79.32,-251.12 86.06,-249.23"/>
</g>
<!-- MultiplicativeGroup -->
<g id="node11" class="node">
<title>MultiplicativeGroup</title>
<g id="a_node11"><a xlink:href="https://github.com/mihxil/math/blob/main/mihxil-math/src/main/java/org/meeuw/math/abstractalgebra/MultiplicativeGroup.java" xlink:title="{\N|{ * &#160;/ &#160;| 1}|PermutationGroup}">
<polygon fill="none" stroke="black" points="333.5,-489 333.5,-558 493.5,-558 493.5,-489 333.5,-489"/>
<text text-anchor="middle" x="413.5" y="-542.8" font-family="Times,serif" font-size="14.00">MultiplicativeGroup</text>
<polyline fill="none" stroke="black" points="333.5,-535 493.5,-535 "/>
<text text-anchor="middle" x="375" y="-519.8" font-family="Times,serif" font-size="14.00">* /</text>
<polyline fill="none" stroke="black" points="416.5,-512 416.5,-535 "/>
<text text-anchor="middle" x="455" y="-519.8" font-family="Times,serif" font-size="14.00">1</text>
<polyline fill="none" stroke="black" points="333.5,-512 493.5,-512 "/>
<text text-anchor="middle" x="413.5" y="-496.8" font-family="Times,serif" font-size="14.00">PermutationGroup</text>
</a>
</g>
</g>
<!-- MultiplicativeGroup&#45;&gt;MultiplicativeMonoid -->
<g id="edge12" class="edge">
<title>MultiplicativeGroup&#45;&gt;MultiplicativeMonoid</title>
<path fill="none" stroke="black" d="M407.54,-488.72C405.28,-475.9 402.67,-461.12 400.27,-447.5"/>
<polygon fill="none" stroke="black" points="403.66,-446.61 398.48,-437.37 396.77,-447.82 403.66,-446.61"/>
</g>
<!-- Ring -->
<g id="node12" class="node">
<title>Ring</title>
<g id="a_node12"><a xlink:href="https://github.com/mihxil/math/blob/main/mihxil-math/src/main/java/org/meeuw/math/abstractalgebra/Ring.java" xlink:title="{\N|{ + &#160;&#45; \n⇆ | &#160;* &#160;| 0 | 1}|ModuloStructure}">
<polygon fill="none" stroke="black" points="195,-602.5 195,-686.5 334,-686.5 334,-602.5 195,-602.5"/>
<text text-anchor="middle" x="264.5" y="-671.3" font-family="Times,serif" font-size="14.00">Ring</text>
<polyline fill="none" stroke="black" points="195,-663.5 334,-663.5 "/>
<text text-anchor="middle" x="218.5" y="-648.3" font-family="Times,serif" font-size="14.00">+ &#45; </text>
<text text-anchor="middle" x="218.5" y="-633.3" font-family="Times,serif" font-size="14.00">⇆</text>
<polyline fill="none" stroke="black" points="242,-625.5 242,-663.5 "/>
<text text-anchor="middle" x="256.5" y="-640.8" font-family="Times,serif" font-size="14.00">*</text>
<polyline fill="none" stroke="black" points="271,-625.5 271,-663.5 "/>
<text text-anchor="middle" x="286.5" y="-640.8" font-family="Times,serif" font-size="14.00">0</text>
<polyline fill="none" stroke="black" points="302,-625.5 302,-663.5 "/>
<text text-anchor="middle" x="318" y="-640.8" font-family="Times,serif" font-size="14.00">1</text>
<polyline fill="none" stroke="black" points="195,-625.5 334,-625.5 "/>
<text text-anchor="middle" x="264.5" y="-610.3" font-family="Times,serif" font-size="14.00">ModuloStructure</text>
</a>
</g>
</g>
<!-- Ring&#45;&gt;Rng -->
<g id="edge13" class="edge">
<title>Ring&#45;&gt;Rng</title>
<path fill="none" stroke="black" d="M262.42,-602.21C261.99,-593.72 261.53,-584.68 261.09,-575.88"/>
<polygon fill="none" stroke="black" points="264.58,-575.52 260.58,-565.71 257.59,-575.88 264.58,-575.52"/>
</g>
<!-- MultiplicativeAbelianGroup -->
<g id="node13" class="node">
<title>MultiplicativeAbelianGroup</title>
<g id="a_node13"><a xlink:href="https://github.com/mihxil/math/blob/main/mihxil-math/src/main/java/org/meeuw/math/abstractalgebra/MultiplicativeAbelianGroup.java" xlink:title="{\N|{ * &#160;/ \n⇆ | 1}}">
<polygon fill="none" stroke="black" points="447,-614 447,-675 660,-675 660,-614 447,-614"/>
<text text-anchor="middle" x="553.5" y="-659.8" font-family="Times,serif" font-size="14.00">MultiplicativeAbelianGroup</text>
<polyline fill="none" stroke="black" points="447,-652 660,-652 "/>
<text text-anchor="middle" x="503" y="-636.8" font-family="Times,serif" font-size="14.00">* / </text>
<text text-anchor="middle" x="503" y="-621.8" font-family="Times,serif" font-size="14.00">⇆</text>
<polyline fill="none" stroke="black" points="559,-614 559,-652 "/>
<text text-anchor="middle" x="609.5" y="-629.3" font-family="Times,serif" font-size="14.00">1</text>
</a>
</g>
</g>
<!-- MultiplicativeAbelianGroup&#45;&gt;MultiplicativeAbelianSemiGroup -->
<g id="edge14" class="edge">
<title>MultiplicativeAbelianGroup&#45;&gt;MultiplicativeAbelianSemiGroup</title>
<path fill="none" stroke="black" d="M561.73,-613.59C572.68,-573.74 592.23,-502.65 605.53,-454.31"/>
<polygon fill="none" stroke="black" points="608.9,-455.23 608.18,-444.66 602.16,-453.37 608.9,-455.23"/>
</g>
<!-- MultiplicativeAbelianGroup&#45;&gt;MultiplicativeGroup -->
<g id="edge15" class="edge">
<title>MultiplicativeAbelianGroup&#45;&gt;MultiplicativeGroup</title>
<path fill="none" stroke="black" d="M518.53,-613.78C501.02,-598.89 479.57,-580.66 460.63,-564.56"/>
<polygon fill="none" stroke="black" points="462.85,-561.85 452.96,-558.04 458.31,-567.18 462.85,-561.85"/>
</g>
<!-- DivisionRing -->
<g id="node14" class="node">
<title>DivisionRing</title>
<g id="a_node14"><a xlink:href="https://github.com/mihxil/math/blob/main/mihxil-math/src/main/java/org/meeuw/math/abstractalgebra/DivisionRing.java" xlink:title="{\N|{ + &#160;&#45; \n⇆ | &#160;* &#160;/ &#160;| 0 | 1}|Quaternions}">
<polygon fill="none" stroke="black" points="347.5,-723.5 347.5,-807.5 473.5,-807.5 473.5,-723.5 347.5,-723.5"/>
<text text-anchor="middle" x="410.5" y="-792.3" font-family="Times,serif" font-size="14.00">DivisionRing</text>
<polyline fill="none" stroke="black" points="347.5,-784.5 473.5,-784.5 "/>
<text text-anchor="middle" x="368.5" y="-769.3" font-family="Times,serif" font-size="14.00">+ &#45; </text>
<text text-anchor="middle" x="368.5" y="-754.3" font-family="Times,serif" font-size="14.00">⇆</text>
<polyline fill="none" stroke="black" points="389.5,-746.5 389.5,-784.5 "/>
<text text-anchor="middle" x="405.5" y="-761.8" font-family="Times,serif" font-size="14.00">* /</text>
<polyline fill="none" stroke="black" points="421.5,-746.5 421.5,-784.5 "/>
<text text-anchor="middle" x="434.5" y="-761.8" font-family="Times,serif" font-size="14.00">0</text>
<polyline fill="none" stroke="black" points="447.5,-746.5 447.5,-784.5 "/>
<text text-anchor="middle" x="460.5" y="-761.8" font-family="Times,serif" font-size="14.00">1</text>
<polyline fill="none" stroke="black" points="347.5,-746.5 473.5,-746.5 "/>
<text text-anchor="middle" x="410.5" y="-731.3" font-family="Times,serif" font-size="14.00">Quaternions</text>
</a>
</g>
</g>
<!-- DivisionRing&#45;&gt;MultiplicativeGroup -->
<g id="edge16" class="edge">
<title>DivisionRing&#45;&gt;MultiplicativeGroup</title>
<path fill="none" stroke="black" d="M411.02,-723.24C411.56,-680.06 412.4,-612.53 412.95,-568.39"/>
<polygon fill="none" stroke="black" points="416.45,-568.3 413.08,-558.25 409.45,-568.21 416.45,-568.3"/>
</g>
<!-- DivisionRing&#45;&gt;Ring -->
<g id="edge17" class="edge">
<title>DivisionRing&#45;&gt;Ring</title>
<path fill="none" stroke="black" d="M359.85,-723.21C347.96,-713.52 335.19,-703.12 322.99,-693.17"/>
<polygon fill="none" stroke="black" points="325.03,-690.32 315.06,-686.71 320.6,-695.74 325.03,-690.32"/>
</g>
<!-- AbelianRing -->
<g id="node15" class="node">
<title>AbelianRing</title>
<g id="a_node15"><a xlink:href="https://github.com/mihxil/math/blob/main/mihxil-math/src/main/java/org/meeuw/math/abstractalgebra/AbelianRing.java" xlink:title="{\N|{ + &#160;&#45; \n⇆ | &#160;* \n⇆ | 0 | 1}}">
<polygon fill="none" stroke="black" points="203,-735 203,-796 326,-796 326,-735 203,-735"/>
<text text-anchor="middle" x="264.5" y="-780.8" font-family="Times,serif" font-size="14.00">AbelianRing</text>
<polyline fill="none" stroke="black" points="203,-773 326,-773 "/>
<text text-anchor="middle" x="224" y="-757.8" font-family="Times,serif" font-size="14.00">+ &#45; </text>
<text text-anchor="middle" x="224" y="-742.8" font-family="Times,serif" font-size="14.00">⇆</text>
<polyline fill="none" stroke="black" points="245,-735 245,-773 "/>
<text text-anchor="middle" x="259.5" y="-757.8" font-family="Times,serif" font-size="14.00">* </text>
<text text-anchor="middle" x="259.5" y="-742.8" font-family="Times,serif" font-size="14.00">⇆</text>
<polyline fill="none" stroke="black" points="274,-735 274,-773 "/>
<text text-anchor="middle" x="287" y="-750.3" font-family="Times,serif" font-size="14.00">0</text>
<polyline fill="none" stroke="black" points="300,-735 300,-773 "/>
<text text-anchor="middle" x="313" y="-750.3" font-family="Times,serif" font-size="14.00">1</text>
</a>
</g>
</g>
<!-- AbelianRing&#45;&gt;Ring -->
<g id="edge18" class="edge">
<title>AbelianRing&#45;&gt;Ring</title>
<path fill="none" stroke="black" d="M264.5,-734.78C264.5,-723.26 264.5,-709.74 264.5,-696.75"/>
<polygon fill="none" stroke="black" points="268,-696.5 264.5,-686.5 261,-696.5 268,-696.5"/>
</g>
<!-- DivisibleGroup -->
<g id="node16" class="node">
<title>DivisibleGroup</title>
<g id="a_node16"><a xlink:href="https://github.com/mihxil/math/blob/main/mihxil-math/src/main/java/org/meeuw/math/abstractalgebra/DivisibleGroup.java" xlink:title="{\N|{ * &#160;/ \n⇆ | 1}}">
<polygon fill="none" stroke="black" points="492,-735 492,-796 615,-796 615,-735 492,-735"/>
<text text-anchor="middle" x="553.5" y="-780.8" font-family="Times,serif" font-size="14.00">DivisibleGroup</text>
<polyline fill="none" stroke="black" points="492,-773 615,-773 "/>
<text text-anchor="middle" x="525.5" y="-757.8" font-family="Times,serif" font-size="14.00">* / </text>
<text text-anchor="middle" x="525.5" y="-742.8" font-family="Times,serif" font-size="14.00">⇆</text>
<polyline fill="none" stroke="black" points="559,-735 559,-773 "/>
<text text-anchor="middle" x="587" y="-750.3" font-family="Times,serif" font-size="14.00">1</text>
</a>
</g>
</g>
<!-- DivisibleGroup&#45;&gt;MultiplicativeAbelianGroup -->
<g id="edge19" class="edge">
<title>DivisibleGroup&#45;&gt;MultiplicativeAbelianGroup</title>
<path fill="none" stroke="black" d="M553.5,-734.78C553.5,-719.87 553.5,-701.6 553.5,-685.48"/>
<polygon fill="none" stroke="black" points="557,-685.26 553.5,-675.26 550,-685.26 557,-685.26"/>
</g>
<!-- Field -->
<g id="node17" class="node">
<title>Field</title>
<g id="a_node17"><a xlink:href="https://github.com/mihxil/math/blob/main/mihxil-math/src/main/java/org/meeuw/math/abstractalgebra/Field.java" xlink:title="{\N|{ + &#160;&#45; \n⇆ | &#160;* &#160;/ \n⇆ | 0 | 1}|ModuloField\nGaussianRationals}">
<polygon fill="none" stroke="black" points="339,-844.5 339,-943.5 488,-943.5 488,-844.5 339,-844.5"/>
<text text-anchor="middle" x="413.5" y="-928.3" font-family="Times,serif" font-size="14.00">Field</text>
<polyline fill="none" stroke="black" points="339,-920.5 488,-920.5 "/>
<text text-anchor="middle" x="362" y="-905.3" font-family="Times,serif" font-size="14.00">+ &#45; </text>
<text text-anchor="middle" x="362" y="-890.3" font-family="Times,serif" font-size="14.00">⇆</text>
<polyline fill="none" stroke="black" points="385,-882.5 385,-920.5 "/>
<text text-anchor="middle" x="406" y="-905.3" font-family="Times,serif" font-size="14.00">* / </text>
<text text-anchor="middle" x="406" y="-890.3" font-family="Times,serif" font-size="14.00">⇆</text>
<polyline fill="none" stroke="black" points="427,-882.5 427,-920.5 "/>
<text text-anchor="middle" x="442" y="-897.8" font-family="Times,serif" font-size="14.00">0</text>
<polyline fill="none" stroke="black" points="457,-882.5 457,-920.5 "/>
<text text-anchor="middle" x="472.5" y="-897.8" font-family="Times,serif" font-size="14.00">1</text>
<polyline fill="none" stroke="black" points="339,-882.5 488,-882.5 "/>
<text text-anchor="middle" x="413.5" y="-867.3" font-family="Times,serif" font-size="14.00">ModuloField</text>
<text text-anchor="middle" x="413.5" y="-852.3" font-family="Times,serif" font-size="14.00">GaussianRationals</text>
</a>
</g>
</g>
<!-- Field&#45;&gt;DivisionRing -->
<g id="edge20" class="edge">
<title>Field&#45;&gt;DivisionRing</title>
<path fill="none" stroke="black" d="M412.35,-844.45C412.14,-835.74 411.93,-826.63 411.72,-817.84"/>
<polygon fill="none" stroke="black" points="415.21,-817.63 411.48,-807.71 408.22,-817.79 415.21,-817.63"/>
</g>
<!-- Field&#45;&gt;AbelianRing -->
<g id="edge21" class="edge">
<title>Field&#45;&gt;AbelianRing</title>
<path fill="none" stroke="black" d="M356.32,-844.45C339.97,-830.57 322.43,-815.69 307.12,-802.68"/>
<polygon fill="none" stroke="black" points="309.22,-799.87 299.33,-796.07 304.69,-805.21 309.22,-799.87"/>
</g>
<!-- Field&#45;&gt;DivisibleGroup -->
<g id="edge22" class="edge">
<title>Field&#45;&gt;DivisibleGroup</title>
<path fill="none" stroke="black" d="M467.23,-844.45C482.45,-830.7 498.76,-815.96 513.06,-803.04"/>
<polygon fill="none" stroke="black" points="515.7,-805.37 520.78,-796.07 511.01,-800.18 515.7,-805.37"/>
</g>
<!-- VectorSpace -->
<g id="node18" class="node">
<title>VectorSpace</title>
<g id="a_node18"><a xlink:href="https://github.com/mihxil/math/blob/main/mihxil-math/src/main/java/org/meeuw/math/abstractalgebra/VectorSpace.java" xlink:title="{\N|{ + &#160;&#45; \n⇆ | &#160;* \n⇆ | 0 | 1}|Vector3Space}">
<polygon fill="none" stroke="black" points="198,-852 198,-936 321,-936 321,-852 198,-852"/>
<text text-anchor="middle" x="259.5" y="-920.8" font-family="Times,serif" font-size="14.00">VectorSpace</text>
<polyline fill="none" stroke="black" points="198,-913 321,-913 "/>
<text text-anchor="middle" x="219" y="-897.8" font-family="Times,serif" font-size="14.00">+ &#45; </text>
<text text-anchor="middle" x="219" y="-882.8" font-family="Times,serif" font-size="14.00">⇆</text>
<polyline fill="none" stroke="black" points="240,-875 240,-913 "/>
<text text-anchor="middle" x="254.5" y="-897.8" font-family="Times,serif" font-size="14.00">* </text>
<text text-anchor="middle" x="254.5" y="-882.8" font-family="Times,serif" font-size="14.00">⇆</text>
<polyline fill="none" stroke="black" points="269,-875 269,-913 "/>
<text text-anchor="middle" x="282" y="-890.3" font-family="Times,serif" font-size="14.00">0</text>
<polyline fill="none" stroke="black" points="295,-875 295,-913 "/>
<text text-anchor="middle" x="308" y="-890.3" font-family="Times,serif" font-size="14.00">1</text>
<polyline fill="none" stroke="black" points="198,-875 321,-875 "/>
<text text-anchor="middle" x="259.5" y="-859.8" font-family="Times,serif" font-size="14.00">Vector3Space</text>
</a>
</g>
</g>
<!-- VectorSpace&#45;&gt;AbelianRing -->
<g id="edge23" class="edge">
<title>VectorSpace&#45;&gt;AbelianRing</title>
<path fill="none" stroke="black" d="M261.12,-851.93C261.7,-837.3 262.35,-820.86 262.93,-806.33"/>
<polygon fill="none" stroke="black" points="266.43,-806.28 263.33,-796.15 259.44,-806.01 266.43,-806.28"/>
</g>
<!-- ScalarField -->
<g id="node19" class="node">
<title>ScalarField</title>
<g id="a_node19"><a xlink:href="https://github.com/mihxil/math/blob/main/mihxil-math/src/main/java/org/meeuw/math/abstractalgebra/ScalarField.java" xlink:title="{\N|{ + &#160;&#45; \n⇆ | &#160;* &#160;/ \n⇆ | 0 | 1}|RationalNumbers}">
<polygon fill="none" stroke="black" points="342.5,-980.5 342.5,-1064.5 484.5,-1064.5 484.5,-980.5 342.5,-980.5"/>
<text text-anchor="middle" x="413.5" y="-1049.3" font-family="Times,serif" font-size="14.00">ScalarField</text>
<polyline fill="none" stroke="black" points="342.5,-1041.5 484.5,-1041.5 "/>
<text text-anchor="middle" x="364.5" y="-1026.3" font-family="Times,serif" font-size="14.00">+ &#45; </text>
<text text-anchor="middle" x="364.5" y="-1011.3" font-family="Times,serif" font-size="14.00">⇆</text>
<polyline fill="none" stroke="black" points="386.5,-1003.5 386.5,-1041.5 "/>
<text text-anchor="middle" x="406.5" y="-1026.3" font-family="Times,serif" font-size="14.00">* / </text>
<text text-anchor="middle" x="406.5" y="-1011.3" font-family="Times,serif" font-size="14.00">⇆</text>
<polyline fill="none" stroke="black" points="426.5,-1003.5 426.5,-1041.5 "/>
<text text-anchor="middle" x="441" y="-1018.8" font-family="Times,serif" font-size="14.00">0</text>
<polyline fill="none" stroke="black" points="455.5,-1003.5 455.5,-1041.5 "/>
<text text-anchor="middle" x="470" y="-1018.8" font-family="Times,serif" font-size="14.00">1</text>
<polyline fill="none" stroke="black" points="342.5,-1003.5 484.5,-1003.5 "/>
<text text-anchor="middle" x="413.5" y="-988.3" font-family="Times,serif" font-size="14.00">RationalNumbers</text>
</a>
</g>
</g>
<!-- ScalarField&#45;&gt;Field -->
<g id="edge24" class="edge">
<title>ScalarField&#45;&gt;Field</title>
<path fill="none" stroke="black" d="M413.5,-980.43C413.5,-971.94 413.5,-962.84 413.5,-953.85"/>
<polygon fill="none" stroke="black" points="417,-953.8 413.5,-943.8 410,-953.8 417,-953.8"/>
</g>
<!-- CompleteField -->
<g id="node20" class="node">
<title>CompleteField</title>
<g id="a_node20"><a xlink:href="https://github.com/mihxil/math/blob/main/mihxil-math/src/main/java/org/meeuw/math/abstractalgebra/CompleteField.java" xlink:title="{\N|{ + &#160;&#45; \n⇆ | &#160;* &#160;/ \n⇆ | 0 | 1}|BigDecimalField\nRealField}">
<polygon fill="none" stroke="black" points="346.5,-1101.5 346.5,-1200.5 480.5,-1200.5 480.5,-1101.5 346.5,-1101.5"/>
<text text-anchor="middle" x="413.5" y="-1185.3" font-family="Times,serif" font-size="14.00">CompleteField</text>
<polyline fill="none" stroke="black" points="346.5,-1177.5 480.5,-1177.5 "/>
<text text-anchor="middle" x="367.5" y="-1162.3" font-family="Times,serif" font-size="14.00">+ &#45; </text>
<text text-anchor="middle" x="367.5" y="-1147.3" font-family="Times,serif" font-size="14.00">⇆</text>
<polyline fill="none" stroke="black" points="388.5,-1139.5 388.5,-1177.5 "/>
<text text-anchor="middle" x="407.5" y="-1162.3" font-family="Times,serif" font-size="14.00">* / </text>
<text text-anchor="middle" x="407.5" y="-1147.3" font-family="Times,serif" font-size="14.00">⇆</text>
<polyline fill="none" stroke="black" points="426.5,-1139.5 426.5,-1177.5 "/>
<text text-anchor="middle" x="440" y="-1154.8" font-family="Times,serif" font-size="14.00">0</text>
<polyline fill="none" stroke="black" points="453.5,-1139.5 453.5,-1177.5 "/>
<text text-anchor="middle" x="467" y="-1154.8" font-family="Times,serif" font-size="14.00">1</text>
<polyline fill="none" stroke="black" points="346.5,-1139.5 480.5,-1139.5 "/>
<text text-anchor="middle" x="413.5" y="-1124.3" font-family="Times,serif" font-size="14.00">BigDecimalField</text>
<text text-anchor="middle" x="413.5" y="-1109.3" font-family="Times,serif" font-size="14.00">RealField</text>
</a>
</g>
</g>
<!-- CompleteField&#45;&gt;ScalarField -->
<g id="edge25" class="edge">
<title>CompleteField&#45;&gt;ScalarField</title>
<path fill="none" stroke="black" d="M413.5,-1101.45C413.5,-1092.74 413.5,-1083.63 413.5,-1074.84"/>
<polygon fill="none" stroke="black" points="417,-1074.71 413.5,-1064.71 410,-1074.71 417,-1074.71"/>
</g>
</g>
</svg>
