<?xml version="1.0" encoding="UTF-8" standalone="no"?>
<!DOCTYPE svg PUBLIC "-//W3C//DTD SVG 1.1//EN"
 "http://www.w3.org/Graphics/SVG/1.1/DTD/svg11.dtd">
<!-- Generated by graphviz version 2.49.3 (20211027.1534)
 -->
<!-- Pages: 1 -->
<svg width="735pt" height="1202pt"
 viewBox="0.00 0.00 735.00 1202.00" xmlns="http://www.w3.org/2000/svg" xmlns:xlink="http://www.w3.org/1999/xlink">
<g id="graph0" class="graph" transform="scale(1 1) rotate(0) translate(4 1198)">
<polygon fill="white" stroke="transparent" points="-4,4 -4,-1198 731,-1198 731,4 -4,4"/>
<!-- Group -->
<g id="node1" class="node">
<title>Group</title>
<g id="a_node1_0"><a xlink:href="https://github.com/mihxil/math/blob/main/mihxil-math/src/main/java/org/meeuw/math/abstractalgebra/Group.java" xlink:title="java code">
<polygon fill="none" stroke="black" points="120.5,-92.5 120.5,-113.5 171.5,-113.5 171.5,-92.5 120.5,-92.5"/>
<text text-anchor="start" x="123.5" y="-99.3" font-family="Times,serif" font-size="14.00" fill="#0000a0">Group</text>
</a>
</g>
<polygon fill="none" stroke="black" points="120.5,-71.5 120.5,-92.5 146.5,-92.5 146.5,-71.5 120.5,-71.5"/>
<text text-anchor="start" x="127.5" y="-78.3" font-family="Times,serif" font-size="14.00"> *</text>
<polygon fill="none" stroke="black" points="146.5,-71.5 146.5,-92.5 171.5,-92.5 171.5,-71.5 146.5,-71.5"/>
<text text-anchor="start" x="154" y="-78.3" font-family="Times,serif" font-size="14.00">u</text>
<g id="a_node1_1"><a xlink:href="https://github.com/mihxil/math/blob/main/mihxil-algebra/src/main/java/org/meeuw/math/abstractalgebra/klein/KleinGroup.java" xlink:title="java code">
<polygon fill="none" stroke="black" points="120.5,-50.5 120.5,-71.5 171.5,-71.5 171.5,-50.5 120.5,-50.5"/>
<text text-anchor="start" x="141" y="-57.3" font-family="Times,serif" font-size="14.00" fill="#0000a0">V</text>
</a>
</g>
</g>
<!-- AlgebraicStructure -->
<g id="node2" class="node">
<title>AlgebraicStructure</title>
<text text-anchor="middle" x="262.5" y="-3.8" font-family="Times,serif" font-size="14.00">AlgebraicStructure</text>
</g>
<!-- Group&#45;&gt;AlgebraicStructure -->
<g id="edge1" class="edge">
<title>Group&#45;&gt;AlgebraicStructure</title>
<path fill="none" stroke="black" d="M171.33,-57.81C174.34,-55.41 177.43,-53.09 180.5,-51 198.9,-38.48 221.44,-27.05 238.23,-19.2"/>
<polygon fill="none" stroke="black" points="239.75,-22.36 247.38,-15.01 236.83,-15.99 239.75,-22.36"/>
</g>
<!-- AdditiveSemiGroup -->
<g id="node3" class="node">
<title>AdditiveSemiGroup</title>
<g id="a_node3_2"><a xlink:href="https://github.com/mihxil/math/blob/main/mihxil-math/src/main/java/org/meeuw/math/abstractalgebra/AdditiveSemiGroup.java" xlink:title="java code">
<polygon fill="none" stroke="black" points="189.5,-82.5 189.5,-103.5 335.5,-103.5 335.5,-82.5 189.5,-82.5"/>
<text text-anchor="start" x="192.5" y="-89.3" font-family="Times,serif" font-size="14.00" fill="#0000a0">AdditiveSemiGroup</text>
</a>
</g>
<polygon fill="none" stroke="black" points="189.5,-61.5 189.5,-82.5 335.5,-82.5 335.5,-61.5 189.5,-61.5"/>
<text text-anchor="start" x="251.5" y="-68.3" font-family="Times,serif" font-size="14.00"> + </text>
</g>
<!-- AdditiveSemiGroup&#45;&gt;AlgebraicStructure -->
<g id="edge2" class="edge">
<title>AdditiveSemiGroup&#45;&gt;AlgebraicStructure</title>
<path fill="none" stroke="black" d="M262.5,-61.17C262.5,-49.89 262.5,-36.03 262.5,-25.36"/>
<polygon fill="none" stroke="black" points="266,-25.31 262.5,-15.31 259,-25.31 266,-25.31"/>
</g>
<!-- MultiplicativeSemiGroup -->
<g id="node4" class="node">
<title>MultiplicativeSemiGroup</title>
<g id="a_node4_3"><a xlink:href="https://github.com/mihxil/math/blob/main/mihxil-math/src/main/java/org/meeuw/math/abstractalgebra/MultiplicativeSemiGroup.java" xlink:title="java code">
<polygon fill="none" stroke="black" points="297.5,-291 297.5,-312 483.5,-312 483.5,-291 297.5,-291"/>
<text text-anchor="start" x="300.5" y="-297.8" font-family="Times,serif" font-size="14.00" fill="#0000a0">MultiplicativeSemiGroup</text>
</a>
</g>
<polygon fill="none" stroke="black" points="297.5,-270 297.5,-291 483.5,-291 483.5,-270 297.5,-270"/>
<text text-anchor="start" x="383.5" y="-276.8" font-family="Times,serif" font-size="14.00"> ⋅ </text>
</g>
<!-- MultiplicativeSemiGroup&#45;&gt;AlgebraicStructure -->
<g id="edge3" class="edge">
<title>MultiplicativeSemiGroup&#45;&gt;AlgebraicStructure</title>
<path fill="none" stroke="black" d="M392.51,-269.8C395.82,-225.09 397.47,-116.58 344.5,-51 332.12,-35.67 312.73,-25.27 295.91,-18.59"/>
<polygon fill="none" stroke="black" points="296.98,-15.25 286.38,-15.08 294.56,-21.82 296.98,-15.25"/>
</g>
<!-- AdditiveAbelianSemiGroup -->
<g id="node5" class="node">
<title>AdditiveAbelianSemiGroup</title>
<g id="a_node5_4"><a xlink:href="https://github.com/mihxil/math/blob/main/mihxil-math/src/main/java/org/meeuw/math/abstractalgebra/AdditiveAbelianSemiGroup.java" xlink:title="java code">
<polygon fill="none" stroke="black" points="163.5,-210 163.5,-231 362.5,-231 362.5,-210 163.5,-210"/>
<text text-anchor="start" x="166.5" y="-216.8" font-family="Times,serif" font-size="14.00" fill="#0000a0">AdditiveAbelianSemiGroup</text>
</a>
</g>
<polygon fill="none" stroke="black" points="163.5,-174 163.5,-210 362.5,-210 362.5,-174 163.5,-174"/>
<text text-anchor="start" x="252" y="-195.8" font-family="Times,serif" font-size="14.00"> + </text>
<text text-anchor="start" x="252" y="-180.8" font-family="Times,serif" font-size="14.00">n⇆</text>
<g id="a_node5_5"><a xlink:href="https://github.com/mihxil/math/blob/main/mihxil-algebra/src/main/java/org/meeuw/math/abstractalgebra/integers/NegativeIntegers.java" xlink:title="java code">
<polygon fill="none" stroke="black" points="163.5,-153 163.5,-174 362.5,-174 362.5,-153 163.5,-153"/>
<text text-anchor="start" x="188" y="-159.8" font-family="Times,serif" font-size="14.00" fill="#0000a0">NegativeIntegers ℕ⁻</text>
</a>
</g>
</g>
<!-- AdditiveAbelianSemiGroup&#45;&gt;AdditiveSemiGroup -->
<g id="edge4" class="edge">
<title>AdditiveAbelianSemiGroup&#45;&gt;AdditiveSemiGroup</title>
<path fill="none" stroke="black" d="M262.5,-152.8C262.5,-140.01 262.5,-125.93 262.5,-113.83"/>
<polygon fill="none" stroke="black" points="266,-113.78 262.5,-103.78 259,-113.78 266,-113.78"/>
</g>
<!-- AdditiveMonoid -->
<g id="node6" class="node">
<title>AdditiveMonoid</title>
<g id="a_node6_6"><a xlink:href="https://github.com/mihxil/math/blob/main/mihxil-math/src/main/java/org/meeuw/math/abstractalgebra/AdditiveMonoid.java" xlink:title="java code">
<polygon fill="none" stroke="black" points="0.5,-213 0.5,-234 145.5,-234 145.5,-213 0.5,-213"/>
<text text-anchor="start" x="16.5" y="-219.8" font-family="Times,serif" font-size="14.00" fill="#0000a0">AdditiveMonoid</text>
</a>
</g>
<polygon fill="none" stroke="black" points="0.5,-192 0.5,-213 78.5,-213 78.5,-192 0.5,-192"/>
<text text-anchor="start" x="28.5" y="-198.8" font-family="Times,serif" font-size="14.00"> + </text>
<polygon fill="none" stroke="black" points="78.5,-192 78.5,-213 145.5,-213 145.5,-192 78.5,-192"/>
<text text-anchor="start" x="107" y="-198.8" font-family="Times,serif" font-size="14.00">0</text>
<g id="a_node6_7"><a xlink:href="https://github.com/mihxil/math/blob/main/mihxil-algebra/src/main/java/org/meeuw/math/abstractalgebra/strings/StringMonoid.java" xlink:title="java code">
<polygon fill="none" stroke="black" points="0.5,-171 0.5,-192 145.5,-192 145.5,-171 0.5,-171"/>
<text text-anchor="start" x="23.5" y="-177.8" font-family="Times,serif" font-size="14.00" fill="#0000a0">StringMonoid</text>
</a>
</g>
<g id="a_node6_8"><a xlink:href="https://github.com/mihxil/math/blob/main/mihxil-algebra/src/main/java/org/meeuw/math/abstractalgebra/integers/NaturalNumbers.java" xlink:title="java code">
<polygon fill="none" stroke="black" points="0.5,-150 0.5,-171 145.5,-171 145.5,-150 0.5,-150"/>
<text text-anchor="start" x="3.5" y="-156.8" font-family="Times,serif" font-size="14.00" fill="#0000a0">NaturalNumbers ℕ</text>
</a>
</g>
</g>
<!-- AdditiveMonoid&#45;&gt;AdditiveSemiGroup -->
<g id="edge5" class="edge">
<title>AdditiveMonoid&#45;&gt;AdditiveSemiGroup</title>
<path fill="none" stroke="black" d="M145.14,-149.9C169.71,-136 196.39,-120.9 218.1,-108.62"/>
<polygon fill="none" stroke="black" points="220.09,-111.51 227.07,-103.54 216.65,-105.42 220.09,-111.51"/>
</g>
<!-- MultiplicativeMonoid -->
<g id="node7" class="node">
<title>MultiplicativeMonoid</title>
<g id="a_node7_9"><a xlink:href="https://github.com/mihxil/math/blob/main/mihxil-math/src/main/java/org/meeuw/math/abstractalgebra/MultiplicativeMonoid.java" xlink:title="java code">
<polygon fill="none" stroke="black" points="311.5,-397 311.5,-418 470.5,-418 470.5,-397 311.5,-397"/>
<text text-anchor="start" x="314.5" y="-403.8" font-family="Times,serif" font-size="14.00" fill="#0000a0">MultiplicativeMonoid</text>
</a>
</g>
<polygon fill="none" stroke="black" points="311.5,-376 311.5,-397 392.5,-397 392.5,-376 311.5,-376"/>
<text text-anchor="start" x="345" y="-382.8" font-family="Times,serif" font-size="14.00"> ⋅ </text>
<polygon fill="none" stroke="black" points="392.5,-376 392.5,-397 470.5,-397 470.5,-376 392.5,-376"/>
<text text-anchor="start" x="426.5" y="-382.8" font-family="Times,serif" font-size="14.00">1</text>
<g id="a_node7_10"><a xlink:href="https://github.com/mihxil/math/blob/main/mihxil-algebra/src/main/java/org/meeuw/math/abstractalgebra/integers/OddIntegers.java" xlink:title="java code">
<polygon fill="none" stroke="black" points="311.5,-355 311.5,-376 470.5,-376 470.5,-355 311.5,-355"/>
<text text-anchor="start" x="333.5" y="-361.8" font-family="Times,serif" font-size="14.00" fill="#0000a0">OddIntegers ℕo</text>
</a>
</g>
</g>
<!-- MultiplicativeMonoid&#45;&gt;MultiplicativeSemiGroup -->
<g id="edge6" class="edge">
<title>MultiplicativeMonoid&#45;&gt;MultiplicativeSemiGroup</title>
<path fill="none" stroke="black" d="M390.5,-355.48C390.5,-344.79 390.5,-332.79 390.5,-322.13"/>
<polygon fill="none" stroke="black" points="394,-322.01 390.5,-312.01 387,-322.01 394,-322.01"/>
</g>
<!-- Rng -->
<g id="node8" class="node">
<title>Rng</title>
<g id="a_node8_11"><a xlink:href="https://github.com/mihxil/math/blob/main/mihxil-math/src/main/java/org/meeuw/math/abstractalgebra/Rng.java" xlink:title="java code">
<polygon fill="none" stroke="black" points="195.5,-539.5 195.5,-560.5 322.5,-560.5 322.5,-539.5 195.5,-539.5"/>
<text text-anchor="start" x="244.5" y="-546.3" font-family="Times,serif" font-size="14.00" fill="#0000a0">Rng</text>
</a>
</g>
<polygon fill="none" stroke="black" points="195.5,-503.5 195.5,-539.5 261.5,-539.5 261.5,-503.5 195.5,-503.5"/>
<text text-anchor="start" x="211" y="-525.3" font-family="Times,serif" font-size="14.00"> + &#160;&#45; </text>
<text text-anchor="start" x="217.5" y="-510.3" font-family="Times,serif" font-size="14.00">n⇆</text>
<polygon fill="none" stroke="black" points="261.5,-503.5 261.5,-539.5 293.5,-539.5 293.5,-503.5 261.5,-503.5"/>
<text text-anchor="start" x="270.5" y="-517.8" font-family="Times,serif" font-size="14.00"> ⋅ </text>
<polygon fill="none" stroke="black" points="293.5,-503.5 293.5,-539.5 322.5,-539.5 322.5,-503.5 293.5,-503.5"/>
<text text-anchor="start" x="303" y="-517.8" font-family="Times,serif" font-size="14.00">0</text>
<g id="a_node8_12"><a xlink:href="https://github.com/mihxil/math/blob/main/mihxil-algebra/src/main/java/org/meeuw/math/abstractalgebra/integers/EvenIntegers.java" xlink:title="java code">
<polygon fill="none" stroke="black" points="195.5,-482.5 195.5,-503.5 322.5,-503.5 322.5,-482.5 195.5,-482.5"/>
<text text-anchor="start" x="198.5" y="-489.3" font-family="Times,serif" font-size="14.00" fill="#0000a0">EvenIntegers 2ℤ</text>
</a>
</g>
<g id="a_node8_13"><a xlink:href="https://github.com/mihxil/math/blob/main/mihxil-algebra/src/main/java/org/meeuw/math/abstractalgebra/integers/NDivisibleIntegers.java" xlink:title="java code">
<polygon fill="none" stroke="black" points="195.5,-461.5 195.5,-482.5 322.5,-482.5 322.5,-461.5 195.5,-461.5"/>
<text text-anchor="start" x="249" y="-468.3" font-family="Times,serif" font-size="14.00" fill="#0000a0">3ℤ</text>
</a>
</g>
</g>
<!-- Rng&#45;&gt;MultiplicativeSemiGroup -->
<g id="edge7" class="edge">
<title>Rng&#45;&gt;MultiplicativeSemiGroup</title>
<path fill="none" stroke="black" d="M262.38,-461.68C267.21,-427.12 278.08,-381.2 302.5,-348 311.39,-335.91 323.75,-325.78 336.4,-317.61"/>
<polygon fill="none" stroke="black" points="338.45,-320.46 345.16,-312.26 334.8,-314.48 338.45,-320.46"/>
</g>
<!-- AdditiveAbelianGroup -->
<g id="node9" class="node">
<title>AdditiveAbelianGroup</title>
<g id="a_node9_14"><a xlink:href="https://github.com/mihxil/math/blob/main/mihxil-math/src/main/java/org/meeuw/math/abstractalgebra/AdditiveAbelianGroup.java" xlink:title="java code">
<polygon fill="none" stroke="black" points="92.5,-394 92.5,-415 255.5,-415 255.5,-394 92.5,-394"/>
<text text-anchor="start" x="95.5" y="-400.8" font-family="Times,serif" font-size="14.00" fill="#0000a0">AdditiveAbelianGroup</text>
</a>
</g>
<polygon fill="none" stroke="black" points="92.5,-358 92.5,-394 186.5,-394 186.5,-358 92.5,-358"/>
<text text-anchor="start" x="122" y="-379.8" font-family="Times,serif" font-size="14.00"> + &#160;&#45; </text>
<text text-anchor="start" x="128.5" y="-364.8" font-family="Times,serif" font-size="14.00">n⇆</text>
<polygon fill="none" stroke="black" points="186.5,-358 186.5,-394 255.5,-394 255.5,-358 186.5,-358"/>
<text text-anchor="start" x="216" y="-372.3" font-family="Times,serif" font-size="14.00">0</text>
</g>
<!-- Rng&#45;&gt;AdditiveAbelianGroup -->
<g id="edge8" class="edge">
<title>Rng&#45;&gt;AdditiveAbelianGroup</title>
<path fill="none" stroke="black" d="M224.66,-461.73C215.94,-449.17 206.72,-435.87 198.54,-424.08"/>
<polygon fill="none" stroke="black" points="201.37,-422.02 192.79,-415.8 195.61,-426.01 201.37,-422.02"/>
</g>
<!-- AdditiveAbelianGroup&#45;&gt;AdditiveAbelianSemiGroup -->
<g id="edge10" class="edge">
<title>AdditiveAbelianGroup&#45;&gt;AdditiveAbelianSemiGroup</title>
<path fill="none" stroke="black" d="M186.25,-358.35C200.43,-327.6 223.58,-277.39 240.66,-240.36"/>
<polygon fill="none" stroke="black" points="243.85,-241.79 244.86,-231.25 237.5,-238.86 243.85,-241.79"/>
</g>
<!-- AdditiveGroup -->
<g id="node11" class="node">
<title>AdditiveGroup</title>
<g id="a_node11_15"><a xlink:href="https://github.com/mihxil/math/blob/main/mihxil-math/src/main/java/org/meeuw/math/abstractalgebra/AdditiveGroup.java" xlink:title="java code">
<polygon fill="none" stroke="black" points="48.5,-291 48.5,-312 158.5,-312 158.5,-291 48.5,-291"/>
<text text-anchor="start" x="51.5" y="-297.8" font-family="Times,serif" font-size="14.00" fill="#0000a0">AdditiveGroup</text>
</a>
</g>
<polygon fill="none" stroke="black" points="48.5,-270 48.5,-291 115.5,-291 115.5,-270 48.5,-270"/>
<text text-anchor="start" x="64.5" y="-276.8" font-family="Times,serif" font-size="14.00"> + &#160;&#45; </text>
<polygon fill="none" stroke="black" points="115.5,-270 115.5,-291 158.5,-291 158.5,-270 115.5,-270"/>
<text text-anchor="start" x="132" y="-276.8" font-family="Times,serif" font-size="14.00">0</text>
</g>
<!-- AdditiveAbelianGroup&#45;&gt;AdditiveGroup -->
<g id="edge11" class="edge">
<title>AdditiveAbelianGroup&#45;&gt;AdditiveGroup</title>
<path fill="none" stroke="black" d="M152.88,-358.31C143.98,-346.36 133.59,-332.41 124.65,-320.39"/>
<polygon fill="none" stroke="black" points="127.21,-317.97 118.43,-312.04 121.59,-322.15 127.21,-317.97"/>
</g>
<!-- MultiplicativeAbelianSemiGroup -->
<g id="node10" class="node">
<title>MultiplicativeAbelianSemiGroup</title>
<g id="a_node10_16"><a xlink:href="https://github.com/mihxil/math/blob/main/mihxil-math/src/main/java/org/meeuw/math/abstractalgebra/MultiplicativeAbelianSemiGroup.java" xlink:title="java code">
<polygon fill="none" stroke="black" points="488.5,-405 488.5,-426 727.5,-426 727.5,-405 488.5,-405"/>
<text text-anchor="start" x="491.5" y="-411.8" font-family="Times,serif" font-size="14.00" fill="#0000a0">MultiplicativeAbelianSemiGroup</text>
</a>
</g>
<polygon fill="none" stroke="black" points="488.5,-369 488.5,-405 727.5,-405 727.5,-369 488.5,-369"/>
<text text-anchor="start" x="601" y="-390.8" font-family="Times,serif" font-size="14.00"> ⋅ </text>
<text text-anchor="start" x="601.5" y="-375.8" font-family="Times,serif" font-size="14.00">⇆</text>
<g id="a_node10_17"><a xlink:href="https://github.com/mihxil/math/blob/main/mihxil-algebra/src/main/java/org/meeuw/math/abstractalgebra/integers/OddIntegers.java" xlink:title="java code">
<polygon fill="none" stroke="black" points="488.5,-348 488.5,-369 727.5,-369 727.5,-348 488.5,-348"/>
<text text-anchor="start" x="550.5" y="-354.8" font-family="Times,serif" font-size="14.00" fill="#0000a0">OddIntegers ℕo</text>
</a>
</g>
</g>
<!-- MultiplicativeAbelianSemiGroup&#45;&gt;MultiplicativeSemiGroup -->
<g id="edge9" class="edge">
<title>MultiplicativeAbelianSemiGroup&#45;&gt;MultiplicativeSemiGroup</title>
<path fill="none" stroke="black" d="M519.55,-347.9C494.78,-337.17 468.52,-325.8 446.2,-316.13"/>
<polygon fill="none" stroke="black" points="447.46,-312.86 436.89,-312.1 444.68,-319.28 447.46,-312.86"/>
</g>
<!-- AdditiveGroup&#45;&gt;AdditiveMonoid -->
<g id="edge12" class="edge">
<title>AdditiveGroup&#45;&gt;AdditiveMonoid</title>
<path fill="none" stroke="black" d="M97.08,-269.9C94.63,-262.24 91.71,-253.12 88.76,-243.89"/>
<polygon fill="none" stroke="black" points="92.07,-242.74 85.69,-234.28 85.4,-244.87 92.07,-242.74"/>
</g>
<!-- MultiplicativeGroup -->
<g id="node12" class="node">
<title>MultiplicativeGroup</title>
<g id="a_node12_18"><a xlink:href="https://github.com/mihxil/math/blob/main/mihxil-math/src/main/java/org/meeuw/math/abstractalgebra/MultiplicativeGroup.java" xlink:title="java code">
<polygon fill="none" stroke="black" points="340.5,-532.5 340.5,-553.5 490.5,-553.5 490.5,-532.5 340.5,-532.5"/>
<text text-anchor="start" x="343.5" y="-539.3" font-family="Times,serif" font-size="14.00" fill="#0000a0">MultiplicativeGroup</text>
</a>
</g>
<polygon fill="none" stroke="black" points="340.5,-511.5 340.5,-532.5 424.5,-532.5 424.5,-511.5 340.5,-511.5"/>
<text text-anchor="start" x="368.5" y="-518.3" font-family="Times,serif" font-size="14.00"> ⋅ &#160;/ </text>
<polygon fill="none" stroke="black" points="424.5,-511.5 424.5,-532.5 490.5,-532.5 490.5,-511.5 424.5,-511.5"/>
<text text-anchor="start" x="452.5" y="-518.3" font-family="Times,serif" font-size="14.00">1</text>
<g id="a_node12_19"><a xlink:href="https://github.com/mihxil/math/blob/main/mihxil-algebra/src/main/java/org/meeuw/math/abstractalgebra/permutations/PermutationGroup.java" xlink:title="java code">
<polygon fill="none" stroke="black" points="340.5,-490.5 340.5,-511.5 490.5,-511.5 490.5,-490.5 340.5,-490.5"/>
<text text-anchor="start" x="349" y="-497.3" font-family="Times,serif" font-size="14.00" fill="#0000a0">PermutationGroup</text>
</a>
</g>
<g id="a_node12_20"><a xlink:href="https://github.com/mihxil/math/blob/main/mihxil-algebra/src/main/java/org/meeuw/math/abstractalgebra/linear/GeneralLinearGroup.java" xlink:title="java code">
<polygon fill="none" stroke="black" points="340.5,-469.5 340.5,-490.5 490.5,-490.5 490.5,-469.5 340.5,-469.5"/>
<text text-anchor="start" x="391" y="-476.3" font-family="Times,serif" font-size="14.00" fill="#0000a0">GL₂(ℚ)</text>
</a>
</g>
</g>
<!-- MultiplicativeGroup&#45;&gt;MultiplicativeMonoid -->
<g id="edge13" class="edge">
<title>MultiplicativeGroup&#45;&gt;MultiplicativeMonoid</title>
<path fill="none" stroke="black" d="M407.11,-469.37C404.44,-456.32 401.5,-441.89 398.84,-428.86"/>
<polygon fill="none" stroke="black" points="402.21,-427.85 396.78,-418.76 395.35,-429.25 402.21,-427.85"/>
</g>
<!-- Ring -->
<g id="node13" class="node">
<title>Ring</title>
<g id="a_node13_21"><a xlink:href="https://github.com/mihxil/math/blob/main/mihxil-math/src/main/java/org/meeuw/math/abstractalgebra/Ring.java" xlink:title="java code">
<polygon fill="none" stroke="black" points="200.5,-654 200.5,-675 329.5,-675 329.5,-654 200.5,-654"/>
<text text-anchor="start" x="248" y="-660.8" font-family="Times,serif" font-size="14.00" fill="#0000a0">Ring</text>
</a>
</g>
<polygon fill="none" stroke="black" points="200.5,-618 200.5,-654 259.5,-654 259.5,-618 200.5,-618"/>
<text text-anchor="start" x="212.5" y="-639.8" font-family="Times,serif" font-size="14.00"> + &#160;&#45; </text>
<text text-anchor="start" x="219" y="-624.8" font-family="Times,serif" font-size="14.00">n⇆</text>
<polygon fill="none" stroke="black" points="259.5,-618 259.5,-654 288.5,-654 288.5,-618 259.5,-618"/>
<text text-anchor="start" x="267" y="-632.3" font-family="Times,serif" font-size="14.00"> ⋅ </text>
<polygon fill="none" stroke="black" points="288.5,-618 288.5,-654 308.5,-654 308.5,-618 288.5,-618"/>
<text text-anchor="start" x="293.5" y="-632.3" font-family="Times,serif" font-size="14.00">0</text>
<polygon fill="none" stroke="black" points="308.5,-618 308.5,-654 329.5,-654 329.5,-618 308.5,-618"/>
<text text-anchor="start" x="314" y="-632.3" font-family="Times,serif" font-size="14.00">1</text>
<g id="a_node13_22"><a xlink:href="https://github.com/mihxil/math/blob/main/mihxil-algebra/src/main/java/org/meeuw/math/abstractalgebra/integers/ModuloStructure.java" xlink:title="java code">
<polygon fill="none" stroke="black" points="200.5,-597 200.5,-618 329.5,-618 329.5,-597 200.5,-597"/>
<text text-anchor="start" x="203.5" y="-603.8" font-family="Times,serif" font-size="14.00" fill="#0000a0">ModuloStructure</text>
</a>
</g>
</g>
<!-- Ring&#45;&gt;Rng -->
<g id="edge14" class="edge">
<title>Ring&#45;&gt;Rng</title>
<path fill="none" stroke="black" d="M262.63,-596.91C262.24,-588.83 261.81,-580.13 261.39,-571.48"/>
<polygon fill="none" stroke="black" points="264.88,-571.22 260.9,-561.4 257.89,-571.56 264.88,-571.22"/>
</g>
<!-- MultiplicativeAbelianGroup -->
<g id="node14" class="node">
<title>MultiplicativeAbelianGroup</title>
<g id="a_node14_23"><a xlink:href="https://github.com/mihxil/math/blob/main/mihxil-math/src/main/java/org/meeuw/math/abstractalgebra/MultiplicativeAbelianGroup.java" xlink:title="java code">
<polygon fill="none" stroke="black" points="424.5,-643 424.5,-664 627.5,-664 627.5,-643 424.5,-643"/>
<text text-anchor="start" x="427.5" y="-649.8" font-family="Times,serif" font-size="14.00" fill="#0000a0">MultiplicativeAbelianGroup</text>
</a>
</g>
<polygon fill="none" stroke="black" points="424.5,-607 424.5,-643 534.5,-643 534.5,-607 424.5,-607"/>
<text text-anchor="start" x="465.5" y="-628.8" font-family="Times,serif" font-size="14.00"> ⋅ &#160;/ </text>
<text text-anchor="start" x="473" y="-613.8" font-family="Times,serif" font-size="14.00">⇆</text>
<polygon fill="none" stroke="black" points="534.5,-607 534.5,-643 627.5,-643 627.5,-607 534.5,-607"/>
<text text-anchor="start" x="576" y="-621.3" font-family="Times,serif" font-size="14.00">1</text>
</g>
<!-- MultiplicativeAbelianGroup&#45;&gt;MultiplicativeAbelianSemiGroup -->
<g id="edge15" class="edge">
<title>MultiplicativeAbelianGroup&#45;&gt;MultiplicativeAbelianSemiGroup</title>
<path fill="none" stroke="black" d="M534.75,-607.15C548.53,-565.63 574.65,-486.96 591.55,-436.04"/>
<polygon fill="none" stroke="black" points="594.97,-436.84 594.8,-426.24 588.33,-434.63 594.97,-436.84"/>
</g>
<!-- MultiplicativeAbelianGroup&#45;&gt;MultiplicativeGroup -->
<g id="edge16" class="edge">
<title>MultiplicativeAbelianGroup&#45;&gt;MultiplicativeGroup</title>
<path fill="none" stroke="black" d="M500.54,-607.2C488.34,-593.61 473.29,-576.86 459.26,-561.23"/>
<polygon fill="none" stroke="black" points="461.76,-558.78 452.47,-553.67 456.55,-563.45 461.76,-558.78"/>
</g>
<!-- DivisionRing -->
<g id="node15" class="node">
<title>DivisionRing</title>
<g id="a_node15_24"><a xlink:href="https://github.com/mihxil/math/blob/main/mihxil-math/src/main/java/org/meeuw/math/abstractalgebra/DivisionRing.java" xlink:title="java code">
<polygon fill="none" stroke="black" points="342.5,-768 342.5,-789 449.5,-789 449.5,-768 342.5,-768"/>
<text text-anchor="start" x="350.5" y="-774.8" font-family="Times,serif" font-size="14.00" fill="#0000a0">DivisionRing</text>
</a>
</g>
<polygon fill="none" stroke="black" points="342.5,-732 342.5,-768 383.5,-768 383.5,-732 342.5,-732"/>
<text text-anchor="start" x="345.5" y="-753.8" font-family="Times,serif" font-size="14.00"> + &#160;&#45; </text>
<text text-anchor="start" x="352" y="-738.8" font-family="Times,serif" font-size="14.00">n⇆</text>
<polygon fill="none" stroke="black" points="383.5,-732 383.5,-768 417.5,-768 417.5,-732 383.5,-732"/>
<text text-anchor="start" x="386.5" y="-746.3" font-family="Times,serif" font-size="14.00"> ⋅ &#160;/ </text>
<polygon fill="none" stroke="black" points="417.5,-732 417.5,-768 433.5,-768 433.5,-732 417.5,-732"/>
<text text-anchor="start" x="420.5" y="-746.3" font-family="Times,serif" font-size="14.00">0</text>
<polygon fill="none" stroke="black" points="433.5,-732 433.5,-768 449.5,-768 449.5,-732 433.5,-732"/>
<text text-anchor="start" x="436.5" y="-746.3" font-family="Times,serif" font-size="14.00">1</text>
<g id="a_node15_25"><a xlink:href="https://github.com/mihxil/math/blob/main/mihxil-algebra/src/main/java/org/meeuw/math/abstractalgebra/quaternions/Quaternions.java" xlink:title="java code">
<polygon fill="none" stroke="black" points="342.5,-711 342.5,-732 449.5,-732 449.5,-711 342.5,-711"/>
<text text-anchor="start" x="377.5" y="-717.8" font-family="Times,serif" font-size="14.00" fill="#0000a0">ℍ(ℚ)</text>
</a>
</g>
</g>
<!-- DivisionRing&#45;&gt;MultiplicativeGroup -->
<g id="edge17" class="edge">
<title>DivisionRing&#45;&gt;MultiplicativeGroup</title>
<path fill="none" stroke="black" d="M398.74,-710.74C402.11,-670.84 407.42,-608.06 411.16,-563.86"/>
<polygon fill="none" stroke="black" points="414.64,-564.15 412,-553.89 407.67,-563.56 414.64,-564.15"/>
</g>
<!-- DivisionRing&#45;&gt;Ring -->
<g id="edge18" class="edge">
<title>DivisionRing&#45;&gt;Ring</title>
<path fill="none" stroke="black" d="M350.78,-710.77C339.82,-701.4 328,-691.29 316.72,-681.64"/>
<polygon fill="none" stroke="black" points="318.89,-678.9 309.01,-675.06 314.34,-684.22 318.89,-678.9"/>
</g>
<!-- AbelianRing -->
<g id="node16" class="node">
<title>AbelianRing</title>
<g id="a_node16_26"><a xlink:href="https://github.com/mihxil/math/blob/main/mihxil-math/src/main/java/org/meeuw/math/abstractalgebra/AbelianRing.java" xlink:title="java code">
<polygon fill="none" stroke="black" points="218.5,-757 218.5,-778 311.5,-778 311.5,-757 218.5,-757"/>
<text text-anchor="start" x="221.5" y="-763.8" font-family="Times,serif" font-size="14.00" fill="#0000a0">AbelianRing</text>
</a>
</g>
<polygon fill="none" stroke="black" points="218.5,-721 218.5,-757 259.5,-757 259.5,-721 218.5,-721"/>
<text text-anchor="start" x="221.5" y="-742.8" font-family="Times,serif" font-size="14.00"> + &#160;&#45; </text>
<text text-anchor="start" x="228" y="-727.8" font-family="Times,serif" font-size="14.00">n⇆</text>
<polygon fill="none" stroke="black" points="259.5,-721 259.5,-757 279.5,-757 279.5,-721 259.5,-721"/>
<text text-anchor="start" x="262.5" y="-742.8" font-family="Times,serif" font-size="14.00"> ⋅ </text>
<text text-anchor="start" x="263" y="-727.8" font-family="Times,serif" font-size="14.00">⇆</text>
<polygon fill="none" stroke="black" points="279.5,-721 279.5,-757 295.5,-757 295.5,-721 279.5,-721"/>
<text text-anchor="start" x="282.5" y="-735.3" font-family="Times,serif" font-size="14.00">0</text>
<polygon fill="none" stroke="black" points="295.5,-721 295.5,-757 311.5,-757 311.5,-721 295.5,-721"/>
<text text-anchor="start" x="298.5" y="-735.3" font-family="Times,serif" font-size="14.00">1</text>
</g>
<!-- AbelianRing&#45;&gt;Ring -->
<g id="edge19" class="edge">
<title>AbelianRing&#45;&gt;Ring</title>
<path fill="none" stroke="black" d="M264.5,-721.31C264.5,-710.48 264.5,-697.74 264.5,-685.48"/>
<polygon fill="none" stroke="black" points="268,-685.35 264.5,-675.35 261,-685.35 268,-685.35"/>
</g>
<!-- DivisibleGroup -->
<g id="node17" class="node">
<title>DivisibleGroup</title>
<g id="a_node17_27"><a xlink:href="https://github.com/mihxil/math/blob/main/mihxil-math/src/main/java/org/meeuw/math/abstractalgebra/DivisibleGroup.java" xlink:title="java code">
<polygon fill="none" stroke="black" points="468.5,-757 468.5,-778 581.5,-778 581.5,-757 468.5,-757"/>
<text text-anchor="start" x="471.5" y="-763.8" font-family="Times,serif" font-size="14.00" fill="#0000a0">DivisibleGroup</text>
</a>
</g>
<polygon fill="none" stroke="black" points="468.5,-721 468.5,-757 533.5,-757 533.5,-721 468.5,-721"/>
<text text-anchor="start" x="487" y="-742.8" font-family="Times,serif" font-size="14.00"> ⋅ &#160;/ </text>
<text text-anchor="start" x="494.5" y="-727.8" font-family="Times,serif" font-size="14.00">⇆</text>
<polygon fill="none" stroke="black" points="533.5,-721 533.5,-757 581.5,-757 581.5,-721 533.5,-721"/>
<text text-anchor="start" x="552.5" y="-735.3" font-family="Times,serif" font-size="14.00">1</text>
</g>
<!-- DivisibleGroup&#45;&gt;MultiplicativeAbelianGroup -->
<g id="edge20" class="edge">
<title>DivisibleGroup&#45;&gt;MultiplicativeAbelianGroup</title>
<path fill="none" stroke="black" d="M524.75,-721.31C524.87,-707.31 525.03,-690.11 525.16,-674.9"/>
<polygon fill="none" stroke="black" points="528.66,-674.79 525.25,-664.76 521.66,-674.72 528.66,-674.79"/>
</g>
<!-- Field -->
<g id="node18" class="node">
<title>Field</title>
<g id="a_node18_28"><a xlink:href="https://github.com/mihxil/math/blob/main/mihxil-math/src/main/java/org/meeuw/math/abstractalgebra/Field.java" xlink:title="java code">
<polygon fill="none" stroke="black" points="322.5,-924 322.5,-945 497.5,-945 497.5,-924 322.5,-924"/>
<text text-anchor="start" x="391.5" y="-930.8" font-family="Times,serif" font-size="14.00" fill="#0000a0">Field</text>
</a>
</g>
<polygon fill="none" stroke="black" points="322.5,-888 322.5,-924 397.5,-924 397.5,-888 322.5,-888"/>
<text text-anchor="start" x="342.5" y="-909.8" font-family="Times,serif" font-size="14.00"> + &#160;&#45; </text>
<text text-anchor="start" x="349" y="-894.8" font-family="Times,serif" font-size="14.00">n⇆</text>
<polygon fill="none" stroke="black" points="397.5,-888 397.5,-924 448.5,-924 448.5,-888 397.5,-888"/>
<text text-anchor="start" x="409" y="-909.8" font-family="Times,serif" font-size="14.00"> ⋅ &#160;/ </text>
<text text-anchor="start" x="416.5" y="-894.8" font-family="Times,serif" font-size="14.00">⇆</text>
<polygon fill="none" stroke="black" points="448.5,-888 448.5,-924 472.5,-924 472.5,-888 448.5,-888"/>
<text text-anchor="start" x="455.5" y="-902.3" font-family="Times,serif" font-size="14.00">0</text>
<polygon fill="none" stroke="black" points="472.5,-888 472.5,-924 497.5,-924 497.5,-888 472.5,-888"/>
<text text-anchor="start" x="480" y="-902.3" font-family="Times,serif" font-size="14.00">1</text>
<g id="a_node18_29"><a xlink:href="https://github.com/mihxil/math/blob/main/mihxil-algebra/src/main/java/org/meeuw/math/abstractalgebra/integers/ModuloField.java" xlink:title="java code">
<polygon fill="none" stroke="black" points="322.5,-867 322.5,-888 497.5,-888 497.5,-867 322.5,-867"/>
<text text-anchor="start" x="392.5" y="-873.8" font-family="Times,serif" font-size="14.00" fill="#0000a0">ℤ/nℤ</text>
</a>
</g>
<g id="a_node18_30"><a xlink:href="https://github.com/mihxil/math/blob/main/mihxil-algebra/src/main/java/org/meeuw/math/abstractalgebra/complex/GaussianRationals.java" xlink:title="java code">
<polygon fill="none" stroke="black" points="322.5,-846 322.5,-867 497.5,-867 497.5,-846 322.5,-846"/>
<text text-anchor="start" x="325.5" y="-852.8" font-family="Times,serif" font-size="14.00" fill="#0000a0">GaussianRationals ᵁ0(i)</text>
</a>
</g>
<g id="a_node18_31"><a xlink:href="https://github.com/mihxil/math/blob/main/mihxil-algebra/src/main/java/org/meeuw/math/abstractalgebra/integers/ModuloField.java" xlink:title="java code">
<polygon fill="none" stroke="black" points="322.5,-825 322.5,-846 497.5,-846 497.5,-825 322.5,-825"/>
<text text-anchor="start" x="392.5" y="-831.8" font-family="Times,serif" font-size="14.00" fill="#0000a0">ℤ/3ℤ</text>
</a>
</g>
</g>
<!-- Field&#45;&gt;DivisionRing -->
<g id="edge21" class="edge">
<title>Field&#45;&gt;DivisionRing</title>
<path fill="none" stroke="black" d="M403.28,-824.89C402.38,-816.4 401.47,-807.75 400.61,-799.5"/>
<polygon fill="none" stroke="black" points="404.06,-798.88 399.53,-789.31 397.1,-799.62 404.06,-798.88"/>
</g>
<!-- Field&#45;&gt;AbelianRing -->
<g id="edge22" class="edge">
<title>Field&#45;&gt;AbelianRing</title>
<path fill="none" stroke="black" d="M345.06,-824.89C330.39,-811.43 315.27,-797.57 302.16,-785.54"/>
<polygon fill="none" stroke="black" points="304.42,-782.86 294.68,-778.68 299.69,-788.02 304.42,-782.86"/>
</g>
<!-- Field&#45;&gt;DivisibleGroup -->
<g id="edge23" class="edge">
<title>Field&#45;&gt;DivisibleGroup</title>
<path fill="none" stroke="black" d="M460.61,-824.89C471.92,-811.81 483.56,-798.35 493.76,-786.56"/>
<polygon fill="none" stroke="black" points="496.67,-788.54 500.56,-778.68 491.37,-783.96 496.67,-788.54"/>
</g>
<!-- VectorSpace -->
<g id="node19" class="node">
<title>VectorSpace</title>
<g id="a_node19_32"><a xlink:href="https://github.com/mihxil/math/blob/main/mihxil-math/src/main/java/org/meeuw/math/abstractalgebra/VectorSpace.java" xlink:title="java code">
<polygon fill="none" stroke="black" points="173.5,-913 173.5,-934 304.5,-934 304.5,-913 173.5,-913"/>
<text text-anchor="start" x="194.5" y="-919.8" font-family="Times,serif" font-size="14.00" fill="#0000a0">VectorSpace</text>
</a>
</g>
<polygon fill="none" stroke="black" points="173.5,-877 173.5,-913 233.5,-913 233.5,-877 173.5,-877"/>
<text text-anchor="start" x="186" y="-898.8" font-family="Times,serif" font-size="14.00"> + &#160;&#45; </text>
<text text-anchor="start" x="192.5" y="-883.8" font-family="Times,serif" font-size="14.00">n⇆</text>
<polygon fill="none" stroke="black" points="233.5,-877 233.5,-913 262.5,-913 262.5,-877 233.5,-877"/>
<text text-anchor="start" x="241" y="-898.8" font-family="Times,serif" font-size="14.00"> ⋅ </text>
<text text-anchor="start" x="241.5" y="-883.8" font-family="Times,serif" font-size="14.00">⇆</text>
<polygon fill="none" stroke="black" points="262.5,-877 262.5,-913 283.5,-913 283.5,-877 262.5,-877"/>
<text text-anchor="start" x="268" y="-891.3" font-family="Times,serif" font-size="14.00">0</text>
<polygon fill="none" stroke="black" points="283.5,-877 283.5,-913 304.5,-913 304.5,-877 283.5,-877"/>
<text text-anchor="start" x="289" y="-891.3" font-family="Times,serif" font-size="14.00">1</text>
<g id="a_node19_33"><a xlink:href="https://github.com/mihxil/math/blob/main/mihxil-algebra/src/main/java/org/meeuw/math/abstractalgebra/dim3/Vector3Space.java" xlink:title="java code">
<polygon fill="none" stroke="black" points="173.5,-856 173.5,-877 304.5,-877 304.5,-856 173.5,-856"/>
<text text-anchor="start" x="176.5" y="-862.8" font-family="Times,serif" font-size="14.00" fill="#0000a0">Vector3Space ℝₚ³</text>
</a>
</g>
<g id="a_node19_34"><a xlink:href="https://github.com/mihxil/math/blob/main/mihxil-algebra/src/main/java/org/meeuw/math/abstractalgebra/vectorspace/NVectorSpace.java" xlink:title="java code">
<polygon fill="none" stroke="black" points="173.5,-835 173.5,-856 304.5,-856 304.5,-835 173.5,-835"/>
<text text-anchor="start" x="230" y="-841.8" font-family="Times,serif" font-size="14.00" fill="#0000a0">ℚ³</text>
</a>
</g>
</g>
<!-- VectorSpace&#45;&gt;AbelianRing -->
<g id="edge24" class="edge">
<title>VectorSpace&#45;&gt;AbelianRing</title>
<path fill="none" stroke="black" d="M248.03,-835.23C251.02,-819.96 254.27,-803.34 257.08,-788.93"/>
<polygon fill="none" stroke="black" points="260.57,-789.37 259.05,-778.88 253.7,-788.02 260.57,-789.37"/>
</g>
<!-- ScalarField -->
<g id="node20" class="node">
<title>ScalarField</title>
<g id="a_node20_35"><a xlink:href="https://github.com/mihxil/math/blob/main/mihxil-math/src/main/java/org/meeuw/math/abstractalgebra/ScalarField.java" xlink:title="java code">
<polygon fill="none" stroke="black" points="335.5,-1038 335.5,-1059 483.5,-1059 483.5,-1038 335.5,-1038"/>
<text text-anchor="start" x="368.5" y="-1044.8" font-family="Times,serif" font-size="14.00" fill="#0000a0">ScalarField</text>
</a>
</g>
<polygon fill="none" stroke="black" points="335.5,-1002 335.5,-1038 396.5,-1038 396.5,-1002 335.5,-1002"/>
<text text-anchor="start" x="348.5" y="-1023.8" font-family="Times,serif" font-size="14.00"> + &#160;&#45; </text>
<text text-anchor="start" x="355" y="-1008.8" font-family="Times,serif" font-size="14.00">n⇆</text>
<polygon fill="none" stroke="black" points="396.5,-1002 396.5,-1038 440.5,-1038 440.5,-1002 396.5,-1002"/>
<text text-anchor="start" x="404.5" y="-1023.8" font-family="Times,serif" font-size="14.00"> ⋅ &#160;/ </text>
<text text-anchor="start" x="412" y="-1008.8" font-family="Times,serif" font-size="14.00">⇆</text>
<polygon fill="none" stroke="black" points="440.5,-1002 440.5,-1038 461.5,-1038 461.5,-1002 440.5,-1002"/>
<text text-anchor="start" x="446" y="-1016.3" font-family="Times,serif" font-size="14.00">0</text>
<polygon fill="none" stroke="black" points="461.5,-1002 461.5,-1038 483.5,-1038 483.5,-1002 461.5,-1002"/>
<text text-anchor="start" x="467.5" y="-1016.3" font-family="Times,serif" font-size="14.00">1</text>
<g id="a_node20_36"><a xlink:href="https://github.com/mihxil/math/blob/main/mihxil-algebra/src/main/java/org/meeuw/math/abstractalgebra/rationalnumbers/RationalNumbers.java" xlink:title="java code">
<polygon fill="none" stroke="black" points="335.5,-981 335.5,-1002 483.5,-1002 483.5,-981 335.5,-981"/>
<text text-anchor="start" x="338.5" y="-987.8" font-family="Times,serif" font-size="14.00" fill="#0000a0">RationalNumbers ℚ</text>
</a>
</g>
</g>
<!-- ScalarField&#45;&gt;Field -->
<g id="edge25" class="edge">
<title>ScalarField&#45;&gt;Field</title>
<path fill="none" stroke="black" d="M409.5,-980.89C409.5,-972.89 409.5,-964.21 409.5,-955.47"/>
<polygon fill="none" stroke="black" points="413,-955.21 409.5,-945.21 406,-955.21 413,-955.21"/>
</g>
<!-- CompleteField -->
<g id="node21" class="node">
<title>CompleteField</title>
<g id="a_node21_37"><a xlink:href="https://github.com/mihxil/math/blob/main/mihxil-math/src/main/java/org/meeuw/math/abstractalgebra/CompleteField.java" xlink:title="java code">
<polygon fill="none" stroke="black" points="339.5,-1172.5 339.5,-1193.5 480.5,-1193.5 480.5,-1172.5 339.5,-1172.5"/>
<text text-anchor="start" x="357.5" y="-1179.3" font-family="Times,serif" font-size="14.00" fill="#0000a0">CompleteField</text>
</a>
</g>
<polygon fill="none" stroke="black" points="339.5,-1136.5 339.5,-1172.5 397.5,-1172.5 397.5,-1136.5 339.5,-1136.5"/>
<text text-anchor="start" x="351" y="-1158.3" font-family="Times,serif" font-size="14.00"> + &#160;&#45; </text>
<text text-anchor="start" x="357.5" y="-1143.3" font-family="Times,serif" font-size="14.00">n⇆</text>
<polygon fill="none" stroke="black" points="397.5,-1136.5 397.5,-1172.5 439.5,-1172.5 439.5,-1136.5 397.5,-1136.5"/>
<text text-anchor="start" x="404.5" y="-1158.3" font-family="Times,serif" font-size="14.00"> ⋅ &#160;/ </text>
<text text-anchor="start" x="412" y="-1143.3" font-family="Times,serif" font-size="14.00">⇆</text>
<polygon fill="none" stroke="black" points="439.5,-1136.5 439.5,-1172.5 459.5,-1172.5 459.5,-1136.5 439.5,-1136.5"/>
<text text-anchor="start" x="444.5" y="-1150.8" font-family="Times,serif" font-size="14.00">0</text>
<polygon fill="none" stroke="black" points="459.5,-1136.5 459.5,-1172.5 480.5,-1172.5 480.5,-1136.5 459.5,-1136.5"/>
<text text-anchor="start" x="465" y="-1150.8" font-family="Times,serif" font-size="14.00">1</text>
<g id="a_node21_38"><a xlink:href="https://github.com/mihxil/math/blob/main/mihxil-algebra/src/main/java/org/meeuw/math/abstractalgebra/reals/BigDecimalField.java" xlink:title="java code">
<polygon fill="none" stroke="black" points="339.5,-1115.5 339.5,-1136.5 480.5,-1136.5 480.5,-1115.5 339.5,-1115.5"/>
<text text-anchor="start" x="342.5" y="-1122.3" font-family="Times,serif" font-size="14.00" fill="#0000a0">BigDecimalField ℝ</text>
</a>
</g>
<g id="a_node21_39"><a xlink:href="https://github.com/mihxil/math/blob/main/mihxil-algebra/src/main/java/org/meeuw/math/abstractalgebra/reals/RealField.java" xlink:title="java code">
<polygon fill="none" stroke="black" points="339.5,-1094.5 339.5,-1115.5 480.5,-1115.5 480.5,-1094.5 339.5,-1094.5"/>
<text text-anchor="start" x="365" y="-1101.3" font-family="Times,serif" font-size="14.00" fill="#0000a0">RealField ℝₚ</text>
</a>
</g>
</g>
<!-- CompleteField&#45;&gt;ScalarField -->
<g id="edge26" class="edge">
<title>CompleteField&#45;&gt;ScalarField</title>
<path fill="none" stroke="black" d="M409.5,-1094.73C409.5,-1086.29 409.5,-1077.52 409.5,-1069.09"/>
<polygon fill="none" stroke="black" points="413,-1069.03 409.5,-1059.03 406,-1069.03 413,-1069.03"/>
</g>
</g>
</svg>
