<?xml version="1.0" encoding="UTF-8" standalone="no"?>
<!DOCTYPE svg PUBLIC "-//W3C//DTD SVG 1.1//EN"
 "http://www.w3.org/Graphics/SVG/1.1/DTD/svg11.dtd">
<!-- Generated by graphviz version 2.49.3 (20211027.1534)
 -->
<!-- Pages: 1 -->
<svg width="695pt" height="1138pt"
 viewBox="0.00 0.00 694.50 1138.00" xmlns="http://www.w3.org/2000/svg" xmlns:xlink="http://www.w3.org/1999/xlink">
<g id="graph0" class="graph" transform="scale(1 1) rotate(0) translate(4 1134)">
<polygon fill="white" stroke="transparent" points="-4,4 -4,-1134 690.5,-1134 690.5,4 -4,4"/>
<!-- Group -->
<g id="node1" class="node">
<title>Group</title>
<g id="a_node1_0"><a xlink:href="https://github.com/mihxil/math/blob/main/mihxil-math/src/main/java/org/meeuw/math/abstractalgebra/Group.java" xlink:title="Group">
<polygon fill="none" stroke="black" points="118,-186 118,-205 167,-205 167,-186 118,-186"/>
<text text-anchor="start" x="120" y="-191.8" font-family="Times,serif" font-size="14.00" fill="#0000a0">Group</text>
</a>
</g>
<polygon fill="none" stroke="black" points="118,-167 118,-186 143,-186 143,-167 118,-167"/>
<text text-anchor="start" x="124.5" y="-172.8" font-family="Times,serif" font-size="14.00"> *</text>
<polygon fill="none" stroke="black" points="143,-167 143,-186 167,-186 167,-167 143,-167"/>
<text text-anchor="start" x="150" y="-172.8" font-family="Times,serif" font-size="14.00">u</text>
<g id="a_node1_1"><a xlink:href="https://github.com/mihxil/math/blob/main/mihxil-algebra/src/main/java/org/meeuw/math/abstractalgebra/integers/Integers.java" xlink:title="Integers">
<polygon fill="none" stroke="black" points="118,-148 118,-167 167,-167 167,-148 118,-148"/>
<text text-anchor="start" x="137" y="-153.8" font-family="Times,serif" font-size="14.00" fill="#0000a0">ℤ</text>
</a>
</g>
<g id="a_node1_2"><a xlink:href="https://github.com/mihxil/math/blob/main/mihxil-algebra/src/main/java/org/meeuw/math/abstractalgebra/klein/KleinGroup.java" xlink:title="KleinGroup">
<polygon fill="none" stroke="black" points="118,-129 118,-148 167,-148 167,-129 118,-129"/>
<text text-anchor="start" x="137.5" y="-134.8" font-family="Times,serif" font-size="14.00" fill="#0000a0">V</text>
</a>
</g>
</g>
<!-- AlgebraicStructure -->
<g id="node2" class="node">
<title>AlgebraicStructure</title>
<g id="a_node2_3"><a xlink:href="https://github.com/mihxil/math/blob/main/mihxil-math/src/main/java/org/meeuw/math/abstractalgebra/AlgebraicStructure.java" xlink:title="AlgebraicStructure">
<polygon fill="none" stroke="black" points="230,0.5 230,-18.5 371,-18.5 371,0.5 230,0.5"/>
<text text-anchor="start" x="232" y="-5.3" font-family="Times,serif" font-size="14.00" fill="#0000a0">AlgebraicStructure</text>
</a>
</g>
</g>
<!-- Group&#45;&gt;AlgebraicStructure -->
<g id="edge1" class="edge">
<title>Group&#45;&gt;AlgebraicStructure</title>
<path fill="none" stroke="black" d="M166.69,-141.7C199.39,-109.52 256.16,-53.64 283.86,-26.38"/>
<polygon fill="none" stroke="black" points="286.49,-28.7 291.17,-19.19 281.58,-23.71 286.49,-28.7"/>
</g>
<!-- AdditiveSemiGroup -->
<g id="node3" class="node">
<title>AdditiveSemiGroup</title>
<g id="a_node3_4"><a xlink:href="https://github.com/mihxil/math/blob/main/mihxil-math/src/main/java/org/meeuw/math/abstractalgebra/AdditiveSemiGroup.java" xlink:title="AdditiveSemiGroup">
<polygon fill="none" stroke="black" points="355,-74 355,-93 499,-93 499,-74 355,-74"/>
<text text-anchor="start" x="357" y="-79.8" font-family="Times,serif" font-size="14.00" fill="#0000a0">AdditiveSemiGroup</text>
</a>
</g>
<polygon fill="none" stroke="black" points="355,-55 355,-74 499,-74 499,-55 355,-55"/>
<text text-anchor="start" x="416" y="-60.8" font-family="Times,serif" font-size="14.00"> + </text>
</g>
<!-- AdditiveSemiGroup&#45;&gt;AlgebraicStructure -->
<g id="edge2" class="edge">
<title>AdditiveSemiGroup&#45;&gt;AlgebraicStructure</title>
<path fill="none" stroke="black" d="M390.27,-54.92C369.8,-44.85 344.8,-32.55 326.31,-23.45"/>
<polygon fill="none" stroke="black" points="327.8,-20.28 317.28,-19.01 324.71,-26.56 327.8,-20.28"/>
</g>
<!-- MultiplicativeSemiGroup -->
<g id="node4" class="node">
<title>MultiplicativeSemiGroup</title>
<g id="a_node4_5"><a xlink:href="https://github.com/mihxil/math/blob/main/mihxil-math/src/main/java/org/meeuw/math/abstractalgebra/MultiplicativeSemiGroup.java" xlink:title="MultiplicativeSemiGroup">
<polygon fill="none" stroke="black" points="257,-260 257,-279 441,-279 441,-260 257,-260"/>
<text text-anchor="start" x="259" y="-265.8" font-family="Times,serif" font-size="14.00" fill="#0000a0">MultiplicativeSemiGroup</text>
</a>
</g>
<polygon fill="none" stroke="black" points="257,-241 257,-260 441,-260 441,-241 257,-241"/>
<text text-anchor="start" x="342" y="-246.8" font-family="Times,serif" font-size="14.00"> ⋅ </text>
</g>
<!-- MultiplicativeSemiGroup&#45;&gt;AlgebraicStructure -->
<g id="edge3" class="edge">
<title>MultiplicativeSemiGroup&#45;&gt;AlgebraicStructure</title>
<path fill="none" stroke="black" d="M336.91,-240.8C330.79,-230.68 323.87,-217.62 320,-205 300.95,-142.9 299.2,-64.95 299.54,-29.56"/>
<polygon fill="none" stroke="black" points="303.04,-29.33 299.71,-19.27 296.04,-29.21 303.04,-29.33"/>
</g>
<!-- Field -->
<g id="node5" class="node">
<title>Field</title>
<g id="a_node5_6"><a xlink:href="https://github.com/mihxil/math/blob/main/mihxil-math/src/main/java/org/meeuw/math/abstractalgebra/Field.java" xlink:title="Field">
<polygon fill="none" stroke="black" points="125,-876 125,-895 298,-895 298,-876 125,-876"/>
<text text-anchor="start" x="193" y="-881.8" font-family="Times,serif" font-size="14.00" fill="#0000a0">Field</text>
</a>
</g>
<polygon fill="none" stroke="black" points="125,-842 125,-876 186,-876 186,-842 125,-842"/>
<text text-anchor="start" x="138" y="-862.8" font-family="Times,serif" font-size="14.00"> + &#160;&#45; </text>
<text text-anchor="start" x="149" y="-847.8" font-family="Times,serif" font-size="14.00">⇆</text>
<polygon fill="none" stroke="black" points="186,-842 186,-876 229,-876 229,-842 186,-842"/>
<text text-anchor="start" x="193.5" y="-862.8" font-family="Times,serif" font-size="14.00"> ⋅ &#160;/ </text>
<text text-anchor="start" x="201" y="-847.8" font-family="Times,serif" font-size="14.00">⇆</text>
<polygon fill="none" stroke="black" points="229,-842 229,-876 250,-876 250,-842 229,-842"/>
<text text-anchor="start" x="233.5" y="-855.3" font-family="Times,serif" font-size="14.00"> *</text>
<polygon fill="none" stroke="black" points="250,-842 250,-876 267,-876 267,-842 250,-842"/>
<text text-anchor="start" x="253.5" y="-855.3" font-family="Times,serif" font-size="14.00">0</text>
<polygon fill="none" stroke="black" points="267,-842 267,-876 282,-876 282,-842 267,-842"/>
<text text-anchor="start" x="269.5" y="-855.3" font-family="Times,serif" font-size="14.00">1</text>
<polygon fill="none" stroke="black" points="282,-842 282,-876 298,-876 298,-842 282,-842"/>
<text text-anchor="start" x="285" y="-855.3" font-family="Times,serif" font-size="14.00">u</text>
<g id="a_node5_7"><a xlink:href="https://github.com/mihxil/math/blob/main/mihxil-algebra/src/main/java/org/meeuw/math/abstractalgebra/integers/ModuloField.java" xlink:title="ModuloField">
<polygon fill="none" stroke="black" points="125,-823 125,-842 298,-842 298,-823 125,-823"/>
<text text-anchor="start" x="194" y="-828.8" font-family="Times,serif" font-size="14.00" fill="#0000a0">ℤ/nℤ</text>
</a>
</g>
<g id="a_node5_8"><a xlink:href="https://github.com/mihxil/math/blob/main/mihxil-algebra/src/main/java/org/meeuw/math/abstractalgebra/complex/GaussianRationals.java" xlink:title="GaussianRationals">
<polygon fill="none" stroke="black" points="125,-804 125,-823 298,-823 298,-804 125,-804"/>
<text text-anchor="start" x="127" y="-809.8" font-family="Times,serif" font-size="14.00" fill="#0000a0">GaussianRationals ᵁ0(i)</text>
</a>
</g>
<g id="a_node5_9"><a xlink:href="https://github.com/mihxil/math/blob/main/mihxil-algebra/src/main/java/org/meeuw/math/abstractalgebra/integers/ModuloField.java" xlink:title="ModuloField">
<polygon fill="none" stroke="black" points="125,-785 125,-804 298,-804 298,-785 125,-785"/>
<text text-anchor="start" x="194" y="-790.8" font-family="Times,serif" font-size="14.00" fill="#0000a0">ℤ/3ℤ</text>
</a>
</g>
</g>
<!-- Field&#45;&gt;Group -->
<g id="edge4" class="edge">
<title>Field&#45;&gt;Group</title>
<path fill="none" stroke="black" d="M124.26,-785.84C66.07,-742.85 0,-676.44 0,-596.5 0,-596.5 0,-596.5 0,-350 0,-279.51 67.03,-219.97 108.98,-189.61"/>
<polygon fill="none" stroke="black" points="111.12,-192.38 117.27,-183.75 107.08,-186.67 111.12,-192.38"/>
</g>
<!-- DivisionRing -->
<g id="node6" class="node">
<title>DivisionRing</title>
<g id="a_node6_10"><a xlink:href="https://github.com/mihxil/math/blob/main/mihxil-math/src/main/java/org/meeuw/math/abstractalgebra/DivisionRing.java" xlink:title="DivisionRing">
<polygon fill="none" stroke="black" points="253,-730 253,-749 352,-749 352,-730 253,-730"/>
<text text-anchor="start" x="257" y="-735.8" font-family="Times,serif" font-size="14.00" fill="#0000a0">DivisionRing</text>
</a>
</g>
<polygon fill="none" stroke="black" points="253,-696 253,-730 292,-730 292,-696 253,-696"/>
<text text-anchor="start" x="255" y="-716.8" font-family="Times,serif" font-size="14.00"> + &#160;&#45; </text>
<text text-anchor="start" x="266" y="-701.8" font-family="Times,serif" font-size="14.00">⇆</text>
<polygon fill="none" stroke="black" points="292,-696 292,-730 324,-730 324,-696 292,-696"/>
<text text-anchor="start" x="294" y="-709.3" font-family="Times,serif" font-size="14.00"> ⋅ &#160;/ </text>
<polygon fill="none" stroke="black" points="324,-696 324,-730 338,-730 338,-696 324,-696"/>
<text text-anchor="start" x="326" y="-709.3" font-family="Times,serif" font-size="14.00">0</text>
<polygon fill="none" stroke="black" points="338,-696 338,-730 352,-730 352,-696 338,-696"/>
<text text-anchor="start" x="340" y="-709.3" font-family="Times,serif" font-size="14.00">1</text>
<g id="a_node6_11"><a xlink:href="https://github.com/mihxil/math/blob/main/mihxil-algebra/src/main/java/org/meeuw/math/abstractalgebra/quaternions/Quaternions.java" xlink:title="Quaternions">
<polygon fill="none" stroke="black" points="253,-677 253,-696 352,-696 352,-677 253,-677"/>
<text text-anchor="start" x="284" y="-682.8" font-family="Times,serif" font-size="14.00" fill="#0000a0">ℍ(ℚ)</text>
</a>
</g>
</g>
<!-- Field&#45;&gt;DivisionRing -->
<g id="edge5" class="edge">
<title>Field&#45;&gt;DivisionRing</title>
<path fill="none" stroke="black" d="M250.38,-784.9C257.08,-775.7 263.96,-766.25 270.42,-757.37"/>
<polygon fill="none" stroke="black" points="273.42,-759.21 276.47,-749.06 267.76,-755.09 273.42,-759.21"/>
</g>
<!-- DivisibleGroup -->
<g id="node7" class="node">
<title>DivisibleGroup</title>
<g id="a_node7_12"><a xlink:href="https://github.com/mihxil/math/blob/main/mihxil-math/src/main/java/org/meeuw/math/abstractalgebra/DivisibleGroup.java" xlink:title="DivisibleGroup">
<polygon fill="none" stroke="black" points="121,-720 121,-739 232,-739 232,-720 121,-720"/>
<text text-anchor="start" x="123" y="-725.8" font-family="Times,serif" font-size="14.00" fill="#0000a0">DivisibleGroup</text>
</a>
</g>
<polygon fill="none" stroke="black" points="121,-686 121,-720 185,-720 185,-686 121,-686"/>
<text text-anchor="start" x="139" y="-706.8" font-family="Times,serif" font-size="14.00"> ⋅ &#160;/ </text>
<text text-anchor="start" x="146.5" y="-691.8" font-family="Times,serif" font-size="14.00">⇆</text>
<polygon fill="none" stroke="black" points="185,-686 185,-720 232,-720 232,-686 185,-686"/>
<text text-anchor="start" x="203.5" y="-699.3" font-family="Times,serif" font-size="14.00">1</text>
</g>
<!-- Field&#45;&gt;DivisibleGroup -->
<g id="edge6" class="edge">
<title>Field&#45;&gt;DivisibleGroup</title>
<path fill="none" stroke="black" d="M195.85,-784.9C192.49,-772.88 189,-760.43 185.91,-749.39"/>
<polygon fill="none" stroke="black" points="189.26,-748.38 183.19,-739.69 182.52,-750.26 189.26,-748.38"/>
</g>
<!-- AbelianRing -->
<g id="node8" class="node">
<title>AbelianRing</title>
<g id="a_node8_13"><a xlink:href="https://github.com/mihxil/math/blob/main/mihxil-math/src/main/java/org/meeuw/math/abstractalgebra/AbelianRing.java" xlink:title="AbelianRing">
<polygon fill="none" stroke="black" points="370,-720 370,-739 461,-739 461,-720 370,-720"/>
<text text-anchor="start" x="372" y="-725.8" font-family="Times,serif" font-size="14.00" fill="#0000a0">AbelianRing</text>
</a>
</g>
<polygon fill="none" stroke="black" points="370,-686 370,-720 412,-720 412,-686 370,-686"/>
<text text-anchor="start" x="373.5" y="-706.8" font-family="Times,serif" font-size="14.00"> + &#160;&#45; </text>
<text text-anchor="start" x="384.5" y="-691.8" font-family="Times,serif" font-size="14.00">⇆</text>
<polygon fill="none" stroke="black" points="412,-686 412,-720 431,-720 431,-686 412,-686"/>
<text text-anchor="start" x="414.5" y="-706.8" font-family="Times,serif" font-size="14.00"> ⋅ </text>
<text text-anchor="start" x="415" y="-691.8" font-family="Times,serif" font-size="14.00">⇆</text>
<polygon fill="none" stroke="black" points="431,-686 431,-720 446,-720 446,-686 431,-686"/>
<text text-anchor="start" x="433.5" y="-699.3" font-family="Times,serif" font-size="14.00">0</text>
<polygon fill="none" stroke="black" points="446,-686 446,-720 461,-720 461,-686 446,-686"/>
<text text-anchor="start" x="448.5" y="-699.3" font-family="Times,serif" font-size="14.00">1</text>
</g>
<!-- Field&#45;&gt;AbelianRing -->
<g id="edge7" class="edge">
<title>Field&#45;&gt;AbelianRing</title>
<path fill="none" stroke="black" d="M297.77,-787.63C318.57,-775.13 340.64,-761.7 361,-749 362.96,-747.77 364.96,-746.52 366.98,-745.24"/>
<polygon fill="none" stroke="black" points="369.32,-747.91 375.88,-739.58 365.56,-742 369.32,-747.91"/>
</g>
<!-- MultiplicativeGroup -->
<g id="node17" class="node">
<title>MultiplicativeGroup</title>
<g id="a_node17_14"><a xlink:href="https://github.com/mihxil/math/blob/main/mihxil-math/src/main/java/org/meeuw/math/abstractalgebra/MultiplicativeGroup.java" xlink:title="MultiplicativeGroup">
<polygon fill="none" stroke="black" points="230,-487.5 230,-506.5 378,-506.5 378,-487.5 230,-487.5"/>
<text text-anchor="start" x="232" y="-493.3" font-family="Times,serif" font-size="14.00" fill="#0000a0">MultiplicativeGroup</text>
</a>
</g>
<polygon fill="none" stroke="black" points="230,-468.5 230,-487.5 313,-487.5 313,-468.5 230,-468.5"/>
<text text-anchor="start" x="257.5" y="-474.3" font-family="Times,serif" font-size="14.00"> ⋅ &#160;/ </text>
<polygon fill="none" stroke="black" points="313,-468.5 313,-487.5 378,-487.5 378,-468.5 313,-468.5"/>
<text text-anchor="start" x="340.5" y="-474.3" font-family="Times,serif" font-size="14.00">1</text>
<g id="a_node17_15"><a xlink:href="https://github.com/mihxil/math/blob/main/mihxil-algebra/src/main/java/org/meeuw/math/abstractalgebra/permutations/PermutationGroup.java" xlink:title="PermutationGroup">
<polygon fill="none" stroke="black" points="230,-449.5 230,-468.5 378,-468.5 378,-449.5 230,-449.5"/>
<text text-anchor="start" x="237.5" y="-455.3" font-family="Times,serif" font-size="14.00" fill="#0000a0">PermutationGroup</text>
</a>
</g>
<g id="a_node17_16"><a xlink:href="https://github.com/mihxil/math/blob/main/mihxil-algebra/src/main/java/org/meeuw/math/abstractalgebra/linear/GeneralLinearGroup.java" xlink:title="GeneralLinearGroup">
<polygon fill="none" stroke="black" points="230,-430.5 230,-449.5 378,-449.5 378,-430.5 230,-430.5"/>
<text text-anchor="start" x="279.5" y="-436.3" font-family="Times,serif" font-size="14.00" fill="#0000a0">GL₂(ℚ)</text>
</a>
</g>
</g>
<!-- DivisionRing&#45;&gt;MultiplicativeGroup -->
<g id="edge23" class="edge">
<title>DivisionRing&#45;&gt;MultiplicativeGroup</title>
<path fill="none" stroke="black" d="M302.29,-677C302.64,-634.93 303.22,-564.14 303.61,-517.12"/>
<polygon fill="none" stroke="black" points="307.11,-516.91 303.69,-506.88 300.11,-516.85 307.11,-516.91"/>
</g>
<!-- Ring -->
<g id="node18" class="node">
<title>Ring</title>
<g id="a_node18_17"><a xlink:href="https://github.com/mihxil/math/blob/main/mihxil-math/src/main/java/org/meeuw/math/abstractalgebra/Ring.java" xlink:title="Ring">
<polygon fill="none" stroke="black" points="352,-621.5 352,-640.5 479,-640.5 479,-621.5 352,-621.5"/>
<text text-anchor="start" x="398.5" y="-627.3" font-family="Times,serif" font-size="14.00" fill="#0000a0">Ring</text>
</a>
</g>
<polygon fill="none" stroke="black" points="352,-587.5 352,-621.5 412,-621.5 412,-587.5 352,-587.5"/>
<text text-anchor="start" x="364.5" y="-608.3" font-family="Times,serif" font-size="14.00"> + &#160;&#45; </text>
<text text-anchor="start" x="375.5" y="-593.3" font-family="Times,serif" font-size="14.00">⇆</text>
<polygon fill="none" stroke="black" points="412,-587.5 412,-621.5 440,-621.5 440,-587.5 412,-587.5"/>
<text text-anchor="start" x="419" y="-600.8" font-family="Times,serif" font-size="14.00"> ⋅ </text>
<polygon fill="none" stroke="black" points="440,-587.5 440,-621.5 459,-621.5 459,-587.5 440,-587.5"/>
<text text-anchor="start" x="444.5" y="-600.8" font-family="Times,serif" font-size="14.00">0</text>
<polygon fill="none" stroke="black" points="459,-587.5 459,-621.5 479,-621.5 479,-587.5 459,-587.5"/>
<text text-anchor="start" x="464" y="-600.8" font-family="Times,serif" font-size="14.00">1</text>
<g id="a_node18_18"><a xlink:href="https://github.com/mihxil/math/blob/main/mihxil-algebra/src/main/java/org/meeuw/math/abstractalgebra/integers/ModuloStructure.java" xlink:title="ModuloStructure">
<polygon fill="none" stroke="black" points="352,-568.5 352,-587.5 479,-587.5 479,-568.5 352,-568.5"/>
<text text-anchor="start" x="354" y="-574.3" font-family="Times,serif" font-size="14.00" fill="#0000a0">ModuloStructure</text>
</a>
</g>
<g id="a_node18_19"><a xlink:href="https://github.com/mihxil/math/blob/main/mihxil-algebra/src/main/java/org/meeuw/math/abstractalgebra/integers/Integers.java" xlink:title="Integers">
<polygon fill="none" stroke="black" points="352,-549.5 352,-568.5 479,-568.5 479,-549.5 352,-549.5"/>
<text text-anchor="start" x="410" y="-555.3" font-family="Times,serif" font-size="14.00" fill="#0000a0">ℤ</text>
</a>
</g>
</g>
<!-- DivisionRing&#45;&gt;Ring -->
<g id="edge24" class="edge">
<title>DivisionRing&#45;&gt;Ring</title>
<path fill="none" stroke="black" d="M336.52,-676.72C345.21,-667.84 354.72,-658.12 364.03,-648.6"/>
<polygon fill="none" stroke="black" points="366.6,-650.98 371.09,-641.38 361.59,-646.08 366.6,-650.98"/>
</g>
<!-- MultiplicativeAbelianGroup -->
<g id="node19" class="node">
<title>MultiplicativeAbelianGroup</title>
<g id="a_node19_20"><a xlink:href="https://github.com/mihxil/math/blob/main/mihxil-math/src/main/java/org/meeuw/math/abstractalgebra/MultiplicativeAbelianGroup.java" xlink:title="MultiplicativeAbelianGroup">
<polygon fill="none" stroke="black" points="75,-602.5 75,-621.5 276,-621.5 276,-602.5 75,-602.5"/>
<text text-anchor="start" x="77" y="-608.3" font-family="Times,serif" font-size="14.00" fill="#0000a0">MultiplicativeAbelianGroup</text>
</a>
</g>
<polygon fill="none" stroke="black" points="75,-568.5 75,-602.5 184,-602.5 184,-568.5 75,-568.5"/>
<text text-anchor="start" x="115.5" y="-589.3" font-family="Times,serif" font-size="14.00"> ⋅ &#160;/ </text>
<text text-anchor="start" x="123" y="-574.3" font-family="Times,serif" font-size="14.00">⇆</text>
<polygon fill="none" stroke="black" points="184,-568.5 184,-602.5 276,-602.5 276,-568.5 184,-568.5"/>
<text text-anchor="start" x="225" y="-581.8" font-family="Times,serif" font-size="14.00">1</text>
</g>
<!-- DivisibleGroup&#45;&gt;MultiplicativeAbelianGroup -->
<g id="edge26" class="edge">
<title>DivisibleGroup&#45;&gt;MultiplicativeAbelianGroup</title>
<path fill="none" stroke="black" d="M175.78,-686.37C175.64,-670.52 175.46,-649.93 175.31,-632.46"/>
<polygon fill="none" stroke="black" points="178.81,-632.03 175.22,-622.06 171.81,-632.09 178.81,-632.03"/>
</g>
<!-- AbelianRing&#45;&gt;Ring -->
<g id="edge25" class="edge">
<title>AbelianRing&#45;&gt;Ring</title>
<path fill="none" stroke="black" d="M415,-686.37C415,-675.98 415,-663.57 415,-651.33"/>
<polygon fill="none" stroke="black" points="418.5,-651.13 415,-641.13 411.5,-651.13 418.5,-651.13"/>
</g>
<!-- AdditiveAbelianSemiGroup -->
<g id="node9" class="node">
<title>AdditiveAbelianSemiGroup</title>
<g id="a_node9_21"><a xlink:href="https://github.com/mihxil/math/blob/main/mihxil-math/src/main/java/org/meeuw/math/abstractalgebra/AdditiveAbelianSemiGroup.java" xlink:title="AdditiveAbelianSemiGroup">
<polygon fill="none" stroke="black" points="329,-184 329,-203 526,-203 526,-184 329,-184"/>
<text text-anchor="start" x="331" y="-189.8" font-family="Times,serif" font-size="14.00" fill="#0000a0">AdditiveAbelianSemiGroup</text>
</a>
</g>
<polygon fill="none" stroke="black" points="329,-150 329,-184 526,-184 526,-150 329,-150"/>
<text text-anchor="start" x="416.5" y="-170.8" font-family="Times,serif" font-size="14.00"> + </text>
<text text-anchor="start" x="421" y="-155.8" font-family="Times,serif" font-size="14.00">⇆</text>
<g id="a_node9_22"><a xlink:href="https://github.com/mihxil/math/blob/main/mihxil-algebra/src/main/java/org/meeuw/math/abstractalgebra/integers/NegativeIntegers.java" xlink:title="NegativeIntegers">
<polygon fill="none" stroke="black" points="329,-131 329,-150 526,-150 526,-131 329,-131"/>
<text text-anchor="start" x="352.5" y="-136.8" font-family="Times,serif" font-size="14.00" fill="#0000a0">NegativeIntegers ℕ⁻</text>
</a>
</g>
</g>
<!-- AdditiveAbelianSemiGroup&#45;&gt;AdditiveSemiGroup -->
<g id="edge8" class="edge">
<title>AdditiveAbelianSemiGroup&#45;&gt;AdditiveSemiGroup</title>
<path fill="none" stroke="black" d="M427,-130.82C427,-121.71 427,-112.03 427,-103.33"/>
<polygon fill="none" stroke="black" points="430.5,-103.31 427,-93.31 423.5,-103.31 430.5,-103.31"/>
</g>
<!-- AdditiveMonoid -->
<g id="node10" class="node">
<title>AdditiveMonoid</title>
<g id="a_node10_23"><a xlink:href="https://github.com/mihxil/math/blob/main/mihxil-math/src/main/java/org/meeuw/math/abstractalgebra/AdditiveMonoid.java" xlink:title="AdditiveMonoid">
<polygon fill="none" stroke="black" points="544,-186 544,-205 687,-205 687,-186 544,-186"/>
<text text-anchor="start" x="559" y="-191.8" font-family="Times,serif" font-size="14.00" fill="#0000a0">AdditiveMonoid</text>
</a>
</g>
<polygon fill="none" stroke="black" points="544,-167 544,-186 621,-186 621,-167 544,-167"/>
<text text-anchor="start" x="571.5" y="-172.8" font-family="Times,serif" font-size="14.00"> + </text>
<polygon fill="none" stroke="black" points="621,-167 621,-186 687,-186 687,-167 621,-167"/>
<text text-anchor="start" x="649" y="-172.8" font-family="Times,serif" font-size="14.00">0</text>
<g id="a_node10_24"><a xlink:href="https://github.com/mihxil/math/blob/main/mihxil-algebra/src/main/java/org/meeuw/math/abstractalgebra/strings/StringMonoid.java" xlink:title="StringMonoid">
<polygon fill="none" stroke="black" points="544,-148 544,-167 687,-167 687,-148 544,-148"/>
<text text-anchor="start" x="566" y="-153.8" font-family="Times,serif" font-size="14.00" fill="#0000a0">StringMonoid</text>
</a>
</g>
<g id="a_node10_25"><a xlink:href="https://github.com/mihxil/math/blob/main/mihxil-algebra/src/main/java/org/meeuw/math/abstractalgebra/integers/NaturalNumbers.java" xlink:title="NaturalNumbers">
<polygon fill="none" stroke="black" points="544,-129 544,-148 687,-148 687,-129 544,-129"/>
<text text-anchor="start" x="546" y="-134.8" font-family="Times,serif" font-size="14.00" fill="#0000a0">NaturalNumbers ℕ</text>
</a>
</g>
</g>
<!-- AdditiveMonoid&#45;&gt;AdditiveSemiGroup -->
<g id="edge9" class="edge">
<title>AdditiveMonoid&#45;&gt;AdditiveSemiGroup</title>
<path fill="none" stroke="black" d="M543.39,-131.34C519.89,-119.96 494.4,-107.63 473.29,-97.41"/>
<polygon fill="none" stroke="black" points="474.75,-94.22 464.22,-93.02 471.7,-100.53 474.75,-94.22"/>
</g>
<!-- MultiplicativeMonoid -->
<g id="node11" class="node">
<title>MultiplicativeMonoid</title>
<g id="a_node11_26"><a xlink:href="https://github.com/mihxil/math/blob/main/mihxil-math/src/main/java/org/meeuw/math/abstractalgebra/MultiplicativeMonoid.java" xlink:title="MultiplicativeMonoid">
<polygon fill="none" stroke="black" points="284,-360 284,-379 441,-379 441,-360 284,-360"/>
<text text-anchor="start" x="286" y="-365.8" font-family="Times,serif" font-size="14.00" fill="#0000a0">MultiplicativeMonoid</text>
</a>
</g>
<polygon fill="none" stroke="black" points="284,-341 284,-360 364,-360 364,-341 284,-341"/>
<text text-anchor="start" x="317" y="-346.8" font-family="Times,serif" font-size="14.00"> ⋅ </text>
<polygon fill="none" stroke="black" points="364,-341 364,-360 441,-360 441,-341 364,-341"/>
<text text-anchor="start" x="397.5" y="-346.8" font-family="Times,serif" font-size="14.00">1</text>
<g id="a_node11_27"><a xlink:href="https://github.com/mihxil/math/blob/main/mihxil-algebra/src/main/java/org/meeuw/math/abstractalgebra/integers/OddIntegers.java" xlink:title="OddIntegers">
<polygon fill="none" stroke="black" points="284,-322 284,-341 441,-341 441,-322 284,-322"/>
<text text-anchor="start" x="305" y="-327.8" font-family="Times,serif" font-size="14.00" fill="#0000a0">OddIntegers ℕo</text>
</a>
</g>
</g>
<!-- MultiplicativeMonoid&#45;&gt;MultiplicativeSemiGroup -->
<g id="edge10" class="edge">
<title>MultiplicativeMonoid&#45;&gt;MultiplicativeSemiGroup</title>
<path fill="none" stroke="black" d="M357.96,-322.33C356.42,-311.76 354.66,-299.72 353.11,-289.12"/>
<polygon fill="none" stroke="black" points="356.55,-288.49 351.64,-279.1 349.63,-289.5 356.55,-288.49"/>
</g>
<!-- Rng -->
<g id="node12" class="node">
<title>Rng</title>
<g id="a_node12_28"><a xlink:href="https://github.com/mihxil/math/blob/main/mihxil-math/src/main/java/org/meeuw/math/abstractalgebra/Rng.java" xlink:title="Rng">
<polygon fill="none" stroke="black" points="407,-494.5 407,-513.5 532,-513.5 532,-494.5 407,-494.5"/>
<text text-anchor="start" x="455" y="-500.3" font-family="Times,serif" font-size="14.00" fill="#0000a0">Rng</text>
</a>
</g>
<polygon fill="none" stroke="black" points="407,-460.5 407,-494.5 473,-494.5 473,-460.5 407,-460.5"/>
<text text-anchor="start" x="422.5" y="-481.3" font-family="Times,serif" font-size="14.00"> + &#160;&#45; </text>
<text text-anchor="start" x="433.5" y="-466.3" font-family="Times,serif" font-size="14.00">⇆</text>
<polygon fill="none" stroke="black" points="473,-460.5 473,-494.5 504,-494.5 504,-460.5 473,-460.5"/>
<text text-anchor="start" x="481.5" y="-473.8" font-family="Times,serif" font-size="14.00"> ⋅ </text>
<polygon fill="none" stroke="black" points="504,-460.5 504,-494.5 532,-494.5 532,-460.5 504,-460.5"/>
<text text-anchor="start" x="513" y="-473.8" font-family="Times,serif" font-size="14.00">0</text>
<g id="a_node12_29"><a xlink:href="https://github.com/mihxil/math/blob/main/mihxil-algebra/src/main/java/org/meeuw/math/abstractalgebra/integers/EvenIntegers.java" xlink:title="EvenIntegers">
<polygon fill="none" stroke="black" points="407,-441.5 407,-460.5 532,-460.5 532,-441.5 407,-441.5"/>
<text text-anchor="start" x="409" y="-447.3" font-family="Times,serif" font-size="14.00" fill="#0000a0">EvenIntegers 2ℤ</text>
</a>
</g>
<g id="a_node12_30"><a xlink:href="https://github.com/mihxil/math/blob/main/mihxil-algebra/src/main/java/org/meeuw/math/abstractalgebra/integers/NDivisibleIntegers.java" xlink:title="NDivisibleIntegers">
<polygon fill="none" stroke="black" points="407,-422.5 407,-441.5 532,-441.5 532,-422.5 407,-422.5"/>
<text text-anchor="start" x="459.5" y="-428.3" font-family="Times,serif" font-size="14.00" fill="#0000a0">3ℤ</text>
</a>
</g>
</g>
<!-- Rng&#45;&gt;MultiplicativeSemiGroup -->
<g id="edge11" class="edge">
<title>Rng&#45;&gt;MultiplicativeSemiGroup</title>
<path fill="none" stroke="black" d="M473.79,-422.97C475,-390.35 471.6,-346.45 450,-315 441,-301.89 427.76,-291.7 413.81,-283.89"/>
<polygon fill="none" stroke="black" points="415.07,-280.6 404.59,-279.09 411.84,-286.81 415.07,-280.6"/>
</g>
<!-- AdditiveAbelianGroup -->
<g id="node13" class="node">
<title>AdditiveAbelianGroup</title>
<g id="a_node13_31"><a xlink:href="https://github.com/mihxil/math/blob/main/mihxil-math/src/main/java/org/meeuw/math/abstractalgebra/AdditiveAbelianGroup.java" xlink:title="AdditiveAbelianGroup">
<polygon fill="none" stroke="black" points="498,-358 498,-377 659,-377 659,-358 498,-358"/>
<text text-anchor="start" x="500" y="-363.8" font-family="Times,serif" font-size="14.00" fill="#0000a0">AdditiveAbelianGroup</text>
</a>
</g>
<polygon fill="none" stroke="black" points="498,-324 498,-358 591,-358 591,-324 498,-324"/>
<text text-anchor="start" x="527" y="-344.8" font-family="Times,serif" font-size="14.00"> + &#160;&#45; </text>
<text text-anchor="start" x="538" y="-329.8" font-family="Times,serif" font-size="14.00">⇆</text>
<polygon fill="none" stroke="black" points="591,-324 591,-358 659,-358 659,-324 591,-324"/>
<text text-anchor="start" x="620" y="-337.3" font-family="Times,serif" font-size="14.00">0</text>
</g>
<!-- Rng&#45;&gt;AdditiveAbelianGroup -->
<g id="edge12" class="edge">
<title>Rng&#45;&gt;AdditiveAbelianGroup</title>
<path fill="none" stroke="black" d="M511.14,-422.84C523.03,-410.24 535.76,-396.76 546.88,-384.98"/>
<polygon fill="none" stroke="black" points="549.61,-387.18 553.93,-377.51 544.52,-382.38 549.61,-387.18"/>
</g>
<!-- AdditiveAbelianGroup&#45;&gt;AdditiveAbelianSemiGroup -->
<g id="edge15" class="edge">
<title>AdditiveAbelianGroup&#45;&gt;AdditiveAbelianSemiGroup</title>
<path fill="none" stroke="black" d="M556.69,-324.31C532.27,-294.89 491.89,-246.21 462.66,-210.98"/>
<polygon fill="none" stroke="black" points="465.31,-208.7 456.23,-203.24 459.93,-213.17 465.31,-208.7"/>
</g>
<!-- AdditiveGroup -->
<g id="node16" class="node">
<title>AdditiveGroup</title>
<g id="a_node16_32"><a xlink:href="https://github.com/mihxil/math/blob/main/mihxil-math/src/main/java/org/meeuw/math/abstractalgebra/AdditiveGroup.java" xlink:title="AdditiveGroup">
<polygon fill="none" stroke="black" points="536,-260 536,-279 644,-279 644,-260 536,-260"/>
<text text-anchor="start" x="538" y="-265.8" font-family="Times,serif" font-size="14.00" fill="#0000a0">AdditiveGroup</text>
</a>
</g>
<polygon fill="none" stroke="black" points="536,-241 536,-260 602,-260 602,-241 536,-241"/>
<text text-anchor="start" x="551.5" y="-246.8" font-family="Times,serif" font-size="14.00"> + &#160;&#45; </text>
<polygon fill="none" stroke="black" points="602,-241 602,-260 644,-260 644,-241 602,-241"/>
<text text-anchor="start" x="618" y="-246.8" font-family="Times,serif" font-size="14.00">0</text>
</g>
<!-- AdditiveAbelianGroup&#45;&gt;AdditiveGroup -->
<g id="edge16" class="edge">
<title>AdditiveAbelianGroup&#45;&gt;AdditiveGroup</title>
<path fill="none" stroke="black" d="M581.47,-324.26C582.95,-313.29 584.68,-300.45 586.19,-289.22"/>
<polygon fill="none" stroke="black" points="589.7,-289.44 587.56,-279.06 582.76,-288.51 589.7,-289.44"/>
</g>
<!-- MultiplicativeAbelianSemiGroup -->
<g id="node14" class="node">
<title>MultiplicativeAbelianSemiGroup</title>
<g id="a_node14_33"><a xlink:href="https://github.com/mihxil/math/blob/main/mihxil-math/src/main/java/org/meeuw/math/abstractalgebra/MultiplicativeAbelianSemiGroup.java" xlink:title="MultiplicativeAbelianSemiGroup">
<polygon fill="none" stroke="black" points="29,-368 29,-387 266,-387 266,-368 29,-368"/>
<text text-anchor="start" x="31" y="-373.8" font-family="Times,serif" font-size="14.00" fill="#0000a0">MultiplicativeAbelianSemiGroup</text>
</a>
</g>
<polygon fill="none" stroke="black" points="29,-334 29,-368 266,-368 266,-334 29,-334"/>
<text text-anchor="start" x="140.5" y="-354.8" font-family="Times,serif" font-size="14.00"> ⋅ </text>
<text text-anchor="start" x="141" y="-339.8" font-family="Times,serif" font-size="14.00">⇆</text>
<g id="a_node14_34"><a xlink:href="https://github.com/mihxil/math/blob/main/mihxil-algebra/src/main/java/org/meeuw/math/abstractalgebra/integers/OddIntegers.java" xlink:title="OddIntegers">
<polygon fill="none" stroke="black" points="29,-315 29,-334 266,-334 266,-315 29,-315"/>
<text text-anchor="start" x="90" y="-320.8" font-family="Times,serif" font-size="14.00" fill="#0000a0">OddIntegers ℕo</text>
</a>
</g>
</g>
<!-- MultiplicativeAbelianSemiGroup&#45;&gt;MultiplicativeSemiGroup -->
<g id="edge13" class="edge">
<title>MultiplicativeAbelianSemiGroup&#45;&gt;MultiplicativeSemiGroup</title>
<path fill="none" stroke="black" d="M226.55,-314.95C250.88,-304.23 276.95,-292.74 298.76,-283.14"/>
<polygon fill="none" stroke="black" points="300.4,-286.24 308.14,-279 297.58,-279.83 300.4,-286.24"/>
</g>
<!-- ScalarField -->
<g id="node15" class="node">
<title>ScalarField</title>
<g id="a_node15_35"><a xlink:href="https://github.com/mihxil/math/blob/main/mihxil-math/src/main/java/org/meeuw/math/abstractalgebra/ScalarField.java" xlink:title="ScalarField">
<polygon fill="none" stroke="black" points="138,-984 138,-1003 284,-1003 284,-984 138,-984"/>
<text text-anchor="start" x="170" y="-989.8" font-family="Times,serif" font-size="14.00" fill="#0000a0">ScalarField</text>
</a>
</g>
<polygon fill="none" stroke="black" points="138,-950 138,-984 185,-984 185,-950 138,-950"/>
<text text-anchor="start" x="144" y="-970.8" font-family="Times,serif" font-size="14.00"> + &#160;&#45; </text>
<text text-anchor="start" x="155" y="-955.8" font-family="Times,serif" font-size="14.00">⇆</text>
<polygon fill="none" stroke="black" points="185,-950 185,-984 221,-984 221,-950 185,-950"/>
<text text-anchor="start" x="189" y="-970.8" font-family="Times,serif" font-size="14.00"> ⋅ &#160;/ </text>
<text text-anchor="start" x="196.5" y="-955.8" font-family="Times,serif" font-size="14.00">⇆</text>
<polygon fill="none" stroke="black" points="221,-950 221,-984 239,-984 239,-950 221,-950"/>
<text text-anchor="start" x="224" y="-963.3" font-family="Times,serif" font-size="14.00"> *</text>
<polygon fill="none" stroke="black" points="239,-950 239,-984 254,-984 254,-950 239,-950"/>
<text text-anchor="start" x="241.5" y="-963.3" font-family="Times,serif" font-size="14.00">0</text>
<polygon fill="none" stroke="black" points="254,-950 254,-984 269,-984 269,-950 254,-950"/>
<text text-anchor="start" x="256.5" y="-963.3" font-family="Times,serif" font-size="14.00">1</text>
<polygon fill="none" stroke="black" points="269,-950 269,-984 284,-984 284,-950 269,-950"/>
<text text-anchor="start" x="271.5" y="-963.3" font-family="Times,serif" font-size="14.00">u</text>
<g id="a_node15_36"><a xlink:href="https://github.com/mihxil/math/blob/main/mihxil-algebra/src/main/java/org/meeuw/math/abstractalgebra/rationalnumbers/RationalNumbers.java" xlink:title="RationalNumbers">
<polygon fill="none" stroke="black" points="138,-931 138,-950 284,-950 284,-931 138,-931"/>
<text text-anchor="start" x="140" y="-936.8" font-family="Times,serif" font-size="14.00" fill="#0000a0">RationalNumbers ℚ</text>
</a>
</g>
</g>
<!-- ScalarField&#45;&gt;Field -->
<g id="edge14" class="edge">
<title>ScalarField&#45;&gt;Field</title>
<path fill="none" stroke="black" d="M211,-930.85C211,-922.77 211,-913.93 211,-905.05"/>
<polygon fill="none" stroke="black" points="214.5,-905.04 211,-895.04 207.5,-905.04 214.5,-905.04"/>
</g>
<!-- AdditiveGroup&#45;&gt;AdditiveMonoid -->
<g id="edge17" class="edge">
<title>AdditiveGroup&#45;&gt;AdditiveMonoid</title>
<path fill="none" stroke="black" d="M595.06,-240.58C597.11,-233.11 599.59,-224.1 602.08,-215.01"/>
<polygon fill="none" stroke="black" points="605.51,-215.76 604.78,-205.19 598.76,-213.9 605.51,-215.76"/>
</g>
<!-- MultiplicativeGroup&#45;&gt;MultiplicativeMonoid -->
<g id="edge18" class="edge">
<title>MultiplicativeGroup&#45;&gt;MultiplicativeMonoid</title>
<path fill="none" stroke="black" d="M322.67,-430.32C329.33,-417.05 336.83,-402.12 343.48,-388.88"/>
<polygon fill="none" stroke="black" points="346.79,-390.09 348.15,-379.58 340.53,-386.95 346.79,-390.09"/>
</g>
<!-- Ring&#45;&gt;Rng -->
<g id="edge19" class="edge">
<title>Ring&#45;&gt;Rng</title>
<path fill="none" stroke="black" d="M434.34,-549.73C437.99,-541.29 441.84,-532.38 445.59,-523.69"/>
<polygon fill="none" stroke="black" points="448.86,-524.95 449.61,-514.38 442.43,-522.17 448.86,-524.95"/>
</g>
<!-- MultiplicativeAbelianGroup&#45;&gt;MultiplicativeAbelianSemiGroup -->
<g id="edge20" class="edge">
<title>MultiplicativeAbelianGroup&#45;&gt;MultiplicativeAbelianSemiGroup</title>
<path fill="none" stroke="black" d="M172,-568.55C167.28,-527.63 158.04,-447.58 152.21,-397.1"/>
<polygon fill="none" stroke="black" points="155.68,-396.65 151.05,-387.12 148.72,-397.45 155.68,-396.65"/>
</g>
<!-- MultiplicativeAbelianGroup&#45;&gt;MultiplicativeGroup -->
<g id="edge21" class="edge">
<title>MultiplicativeAbelianGroup&#45;&gt;MultiplicativeGroup</title>
<path fill="none" stroke="black" d="M201.42,-568.9C217.68,-553.14 238.99,-532.49 257.97,-514.11"/>
<polygon fill="none" stroke="black" points="260.64,-516.39 265.38,-506.92 255.76,-511.37 260.64,-516.39"/>
</g>
<!-- CompleteField -->
<g id="node20" class="node">
<title>CompleteField</title>
<g id="a_node20_37"><a xlink:href="https://github.com/mihxil/math/blob/main/mihxil-math/src/main/java/org/meeuw/math/abstractalgebra/CompleteField.java" xlink:title="CompleteField">
<polygon fill="none" stroke="black" points="142,-1110.5 142,-1129.5 281,-1129.5 281,-1110.5 142,-1110.5"/>
<text text-anchor="start" x="159" y="-1116.3" font-family="Times,serif" font-size="14.00" fill="#0000a0">CompleteField</text>
</a>
</g>
<polygon fill="none" stroke="black" points="142,-1076.5 142,-1110.5 194,-1110.5 194,-1076.5 142,-1076.5"/>
<text text-anchor="start" x="150.5" y="-1097.3" font-family="Times,serif" font-size="14.00"> + &#160;&#45; </text>
<text text-anchor="start" x="161.5" y="-1082.3" font-family="Times,serif" font-size="14.00">⇆</text>
<polygon fill="none" stroke="black" points="194,-1076.5 194,-1110.5 232,-1110.5 232,-1076.5 194,-1076.5"/>
<text text-anchor="start" x="199" y="-1097.3" font-family="Times,serif" font-size="14.00"> ⋅ &#160;/ </text>
<text text-anchor="start" x="206.5" y="-1082.3" font-family="Times,serif" font-size="14.00">⇆</text>
<polygon fill="none" stroke="black" points="232,-1076.5 232,-1110.5 249,-1110.5 249,-1076.5 232,-1076.5"/>
<text text-anchor="start" x="235.5" y="-1089.8" font-family="Times,serif" font-size="14.00">0</text>
<polygon fill="none" stroke="black" points="249,-1076.5 249,-1110.5 265,-1110.5 265,-1076.5 249,-1076.5"/>
<text text-anchor="start" x="252" y="-1089.8" font-family="Times,serif" font-size="14.00">1</text>
<polygon fill="none" stroke="black" points="265,-1076.5 265,-1110.5 281,-1110.5 281,-1076.5 265,-1076.5"/>
<text text-anchor="start" x="268" y="-1089.8" font-family="Times,serif" font-size="14.00">u</text>
<g id="a_node20_38"><a xlink:href="https://github.com/mihxil/math/blob/main/mihxil-algebra/src/main/java/org/meeuw/math/abstractalgebra/reals/BigDecimalField.java" xlink:title="BigDecimalField">
<polygon fill="none" stroke="black" points="142,-1057.5 142,-1076.5 281,-1076.5 281,-1057.5 142,-1057.5"/>
<text text-anchor="start" x="144" y="-1063.3" font-family="Times,serif" font-size="14.00" fill="#0000a0">BigDecimalField ℝ</text>
</a>
</g>
<g id="a_node20_39"><a xlink:href="https://github.com/mihxil/math/blob/main/mihxil-algebra/src/main/java/org/meeuw/math/abstractalgebra/reals/RealField.java" xlink:title="RealField">
<polygon fill="none" stroke="black" points="142,-1038.5 142,-1057.5 281,-1057.5 281,-1038.5 142,-1038.5"/>
<text text-anchor="start" x="166.5" y="-1044.3" font-family="Times,serif" font-size="14.00" fill="#0000a0">RealField ℝₚ</text>
</a>
</g>
</g>
<!-- CompleteField&#45;&gt;ScalarField -->
<g id="edge22" class="edge">
<title>CompleteField&#45;&gt;ScalarField</title>
<path fill="none" stroke="black" d="M211,-1038.84C211,-1030.45 211,-1021.67 211,-1013.25"/>
<polygon fill="none" stroke="black" points="214.5,-1013.23 211,-1003.23 207.5,-1013.23 214.5,-1013.23"/>
</g>
<!-- VectorSpace -->
<g id="node21" class="node">
<title>VectorSpace</title>
<g id="a_node21_40"><a xlink:href="https://github.com/mihxil/math/blob/main/mihxil-math/src/main/java/org/meeuw/math/abstractalgebra/VectorSpace.java" xlink:title="VectorSpace">
<polygon fill="none" stroke="black" points="351,-866 351,-885 480,-885 480,-866 351,-866"/>
<text text-anchor="start" x="371" y="-871.8" font-family="Times,serif" font-size="14.00" fill="#0000a0">VectorSpace</text>
</a>
</g>
<polygon fill="none" stroke="black" points="351,-832 351,-866 412,-866 412,-832 351,-832"/>
<text text-anchor="start" x="364" y="-852.8" font-family="Times,serif" font-size="14.00"> + &#160;&#45; </text>
<text text-anchor="start" x="375" y="-837.8" font-family="Times,serif" font-size="14.00">⇆</text>
<polygon fill="none" stroke="black" points="412,-832 412,-866 441,-866 441,-832 412,-832"/>
<text text-anchor="start" x="419.5" y="-852.8" font-family="Times,serif" font-size="14.00"> ⋅ </text>
<text text-anchor="start" x="420" y="-837.8" font-family="Times,serif" font-size="14.00">⇆</text>
<polygon fill="none" stroke="black" points="441,-832 441,-866 460,-866 460,-832 441,-832"/>
<text text-anchor="start" x="445.5" y="-845.3" font-family="Times,serif" font-size="14.00">0</text>
<polygon fill="none" stroke="black" points="460,-832 460,-866 480,-866 480,-832 460,-832"/>
<text text-anchor="start" x="465" y="-845.3" font-family="Times,serif" font-size="14.00">1</text>
<g id="a_node21_41"><a xlink:href="https://github.com/mihxil/math/blob/main/mihxil-algebra/src/main/java/org/meeuw/math/abstractalgebra/dim3/Vector3Space.java" xlink:title="Vector3Space">
<polygon fill="none" stroke="black" points="351,-813 351,-832 480,-832 480,-813 351,-813"/>
<text text-anchor="start" x="353" y="-818.8" font-family="Times,serif" font-size="14.00" fill="#0000a0">Vector3Space ℝₚ³</text>
</a>
</g>
<g id="a_node21_42"><a xlink:href="https://github.com/mihxil/math/blob/main/mihxil-algebra/src/main/java/org/meeuw/math/abstractalgebra/vectorspace/NVectorSpace.java" xlink:title="NVectorSpace">
<polygon fill="none" stroke="black" points="351,-794 351,-813 480,-813 480,-794 351,-794"/>
<text text-anchor="start" x="406.5" y="-799.8" font-family="Times,serif" font-size="14.00" fill="#0000a0">ℚ³</text>
</a>
</g>
</g>
<!-- VectorSpace&#45;&gt;AbelianRing -->
<g id="edge27" class="edge">
<title>VectorSpace&#45;&gt;AbelianRing</title>
<path fill="none" stroke="black" d="M415,-794.23C415,-779.6 415,-763.56 415,-749.7"/>
<polygon fill="none" stroke="black" points="418.5,-749.57 415,-739.57 411.5,-749.57 418.5,-749.57"/>
</g>
</g>
</svg>
