<?xml version="1.0" encoding="UTF-8" standalone="no"?>
<!DOCTYPE svg PUBLIC "-//W3C//DTD SVG 1.1//EN"
 "http://www.w3.org/Graphics/SVG/1.1/DTD/svg11.dtd">
<!-- Generated by graphviz version 2.49.3 (20211027.1534)
 -->
<!-- Pages: 1 -->
<svg width="752pt" height="1247pt"
 viewBox="0.00 0.00 752.00 1247.00" xmlns="http://www.w3.org/2000/svg" xmlns:xlink="http://www.w3.org/1999/xlink">
<g id="graph0" class="graph" transform="scale(1 1) rotate(0) translate(4 1243)">
<polygon fill="white" stroke="transparent" points="-4,4 -4,-1243 748,-1243 748,4 -4,4"/>
<!-- AdditiveSemiGroup -->
<g id="node1" class="node">
<title>AdditiveSemiGroup</title>
<g id="a_node1"><a xlink:href="https://github.com/mihxil/math/blob/main/mihxil-math/src/main/java/org/meeuw/math/abstractalgebra/AdditiveSemiGroup.java" xlink:title="{\N|{ + }}">
<polygon fill="none" stroke="black" points="181.5,-73.5 181.5,-119.5 337.5,-119.5 337.5,-73.5 181.5,-73.5"/>
<text text-anchor="middle" x="259.5" y="-104.3" font-family="Times,serif" font-size="14.00">AdditiveSemiGroup</text>
<polyline fill="none" stroke="black" points="181.5,-96.5 337.5,-96.5 "/>
<text text-anchor="middle" x="259.5" y="-81.3" font-family="Times,serif" font-size="14.00">+</text>
</a>
</g>
</g>
<!-- AlgebraicStructure -->
<g id="node2" class="node">
<title>AlgebraicStructure</title>
<polygon fill="none" stroke="black" points="249,-0.5 249,-36.5 402,-36.5 402,-0.5 249,-0.5"/>
<text text-anchor="middle" x="325.5" y="-14.8" font-family="Times,serif" font-size="14.00">AlgebraicStructure</text>
</g>
<!-- AdditiveSemiGroup&#45;&gt;AlgebraicStructure -->
<g id="edge1" class="edge">
<title>AdditiveSemiGroup&#45;&gt;AlgebraicStructure</title>
<path fill="none" stroke="black" d="M278.95,-73.11C286.71,-64.17 295.68,-53.83 303.67,-44.64"/>
<polygon fill="none" stroke="black" points="306.46,-46.76 310.38,-36.91 301.18,-42.17 306.46,-46.76"/>
</g>
<!-- MultiplicativeSemiGroup -->
<g id="node3" class="node">
<title>MultiplicativeSemiGroup</title>
<g id="a_node3"><a xlink:href="https://github.com/mihxil/math/blob/main/mihxil-math/src/main/java/org/meeuw/math/abstractalgebra/MultiplicativeSemiGroup.java" xlink:title="{\N|{ * }|GL₂(ℚ)}">
<polygon fill="none" stroke="black" points="294.5,-277.5 294.5,-346.5 490.5,-346.5 490.5,-277.5 294.5,-277.5"/>
<text text-anchor="middle" x="392.5" y="-331.3" font-family="Times,serif" font-size="14.00">MultiplicativeSemiGroup</text>
<polyline fill="none" stroke="black" points="294.5,-323.5 490.5,-323.5 "/>
<text text-anchor="middle" x="392.5" y="-308.3" font-family="Times,serif" font-size="14.00">*</text>
<polyline fill="none" stroke="black" points="294.5,-300.5 490.5,-300.5 "/>
<text text-anchor="middle" x="392.5" y="-285.3" font-family="Times,serif" font-size="14.00">GL₂(ℚ)</text>
</a>
</g>
</g>
<!-- MultiplicativeSemiGroup&#45;&gt;AlgebraicStructure -->
<g id="edge2" class="edge">
<title>MultiplicativeSemiGroup&#45;&gt;AlgebraicStructure</title>
<path fill="none" stroke="black" d="M390.26,-277.43C387.71,-245.82 382.66,-197.29 373.5,-156 365.1,-118.13 359.59,-109.52 346.5,-73 343.35,-64.22 339.71,-54.73 336.34,-46.2"/>
<polygon fill="none" stroke="black" points="339.53,-44.74 332.57,-36.75 333.03,-47.33 339.53,-44.74"/>
</g>
<!-- AdditiveAbelianSemiGroup -->
<g id="node4" class="node">
<title>AdditiveAbelianSemiGroup</title>
<g id="a_node4"><a xlink:href="https://github.com/mihxil/math/blob/main/mihxil-math/src/main/java/org/meeuw/math/abstractalgebra/AdditiveAbelianSemiGroup.java" xlink:title="{\N|{ + \n⇆}|NegativeIntegers}">
<polygon fill="none" stroke="black" points="155,-156.5 155,-240.5 364,-240.5 364,-156.5 155,-156.5"/>
<text text-anchor="middle" x="259.5" y="-225.3" font-family="Times,serif" font-size="14.00">AdditiveAbelianSemiGroup</text>
<polyline fill="none" stroke="black" points="155,-217.5 364,-217.5 "/>
<text text-anchor="middle" x="259.5" y="-202.3" font-family="Times,serif" font-size="14.00">+ </text>
<text text-anchor="middle" x="259.5" y="-187.3" font-family="Times,serif" font-size="14.00">⇆</text>
<polyline fill="none" stroke="black" points="155,-179.5 364,-179.5 "/>
<text text-anchor="middle" x="259.5" y="-164.3" font-family="Times,serif" font-size="14.00">NegativeIntegers</text>
</a>
</g>
</g>
<!-- AdditiveAbelianSemiGroup&#45;&gt;AdditiveSemiGroup -->
<g id="edge3" class="edge">
<title>AdditiveAbelianSemiGroup&#45;&gt;AdditiveSemiGroup</title>
<path fill="none" stroke="black" d="M259.5,-156.25C259.5,-147.4 259.5,-138.17 259.5,-129.72"/>
<polygon fill="none" stroke="black" points="263,-129.52 259.5,-119.52 256,-129.52 263,-129.52"/>
</g>
<!-- AdditiveMonoid -->
<g id="node5" class="node">
<title>AdditiveMonoid</title>
<g id="a_node5"><a xlink:href="https://github.com/mihxil/math/blob/main/mihxil-math/src/main/java/org/meeuw/math/abstractalgebra/AdditiveMonoid.java" xlink:title="{\N|{ + &#160;| 0}|StringMonoid\nNaturalNumbers}">
<polygon fill="none" stroke="black" points="0,-156.5 0,-240.5 137,-240.5 137,-156.5 0,-156.5"/>
<text text-anchor="middle" x="68.5" y="-225.3" font-family="Times,serif" font-size="14.00">AdditiveMonoid</text>
<polyline fill="none" stroke="black" points="0,-217.5 137,-217.5 "/>
<text text-anchor="middle" x="35" y="-202.3" font-family="Times,serif" font-size="14.00">+</text>
<polyline fill="none" stroke="black" points="70,-194.5 70,-217.5 "/>
<text text-anchor="middle" x="103.5" y="-202.3" font-family="Times,serif" font-size="14.00">0</text>
<polyline fill="none" stroke="black" points="0,-194.5 137,-194.5 "/>
<text text-anchor="middle" x="68.5" y="-179.3" font-family="Times,serif" font-size="14.00">StringMonoid</text>
<text text-anchor="middle" x="68.5" y="-164.3" font-family="Times,serif" font-size="14.00">NaturalNumbers</text>
</a>
</g>
</g>
<!-- AdditiveMonoid&#45;&gt;AdditiveSemiGroup -->
<g id="edge4" class="edge">
<title>AdditiveMonoid&#45;&gt;AdditiveSemiGroup</title>
<path fill="none" stroke="black" d="M137.31,-160.33C140.07,-158.86 142.81,-157.41 145.5,-156 165.56,-145.45 187.7,-134.03 207.1,-124.11"/>
<polygon fill="none" stroke="black" points="208.77,-127.18 216.09,-119.52 205.59,-120.95 208.77,-127.18"/>
</g>
<!-- MultiplicativeMonoid -->
<g id="node6" class="node">
<title>MultiplicativeMonoid</title>
<g id="a_node6"><a xlink:href="https://github.com/mihxil/math/blob/main/mihxil-math/src/main/java/org/meeuw/math/abstractalgebra/MultiplicativeMonoid.java" xlink:title="{\N|{ * &#160;| 1}|OddIntegers\nGL₂(ℚ)}">
<polygon fill="none" stroke="black" points="308,-383.5 308,-467.5 477,-467.5 477,-383.5 308,-383.5"/>
<text text-anchor="middle" x="392.5" y="-452.3" font-family="Times,serif" font-size="14.00">MultiplicativeMonoid</text>
<polyline fill="none" stroke="black" points="308,-444.5 477,-444.5 "/>
<text text-anchor="middle" x="349.5" y="-429.3" font-family="Times,serif" font-size="14.00">*</text>
<polyline fill="none" stroke="black" points="391,-421.5 391,-444.5 "/>
<text text-anchor="middle" x="434" y="-429.3" font-family="Times,serif" font-size="14.00">1</text>
<polyline fill="none" stroke="black" points="308,-421.5 477,-421.5 "/>
<text text-anchor="middle" x="392.5" y="-406.3" font-family="Times,serif" font-size="14.00">OddIntegers</text>
<text text-anchor="middle" x="392.5" y="-391.3" font-family="Times,serif" font-size="14.00">GL₂(ℚ)</text>
</a>
</g>
</g>
<!-- MultiplicativeMonoid&#45;&gt;MultiplicativeSemiGroup -->
<g id="edge5" class="edge">
<title>MultiplicativeMonoid&#45;&gt;MultiplicativeSemiGroup</title>
<path fill="none" stroke="black" d="M392.5,-383.3C392.5,-374.65 392.5,-365.5 392.5,-356.76"/>
<polygon fill="none" stroke="black" points="396,-356.74 392.5,-346.74 389,-356.74 396,-356.74"/>
</g>
<!-- Rng -->
<g id="node7" class="node">
<title>Rng</title>
<g id="a_node7"><a xlink:href="https://github.com/mihxil/math/blob/main/mihxil-math/src/main/java/org/meeuw/math/abstractalgebra/Rng.java" xlink:title="{\N|{ + &#160;&#45; \n⇆ | &#160;* &#160;| 0}|EvenIntegers\nNDivisibleIntegers}">
<polygon fill="none" stroke="black" points="166,-504.5 166,-603.5 317,-603.5 317,-504.5 166,-504.5"/>
<text text-anchor="middle" x="241.5" y="-588.3" font-family="Times,serif" font-size="14.00">Rng</text>
<polyline fill="none" stroke="black" points="166,-580.5 317,-580.5 "/>
<text text-anchor="middle" x="197" y="-565.3" font-family="Times,serif" font-size="14.00">+ &#45; </text>
<text text-anchor="middle" x="197" y="-550.3" font-family="Times,serif" font-size="14.00">⇆</text>
<polyline fill="none" stroke="black" points="228,-542.5 228,-580.5 "/>
<text text-anchor="middle" x="249.5" y="-557.8" font-family="Times,serif" font-size="14.00">*</text>
<polyline fill="none" stroke="black" points="271,-542.5 271,-580.5 "/>
<text text-anchor="middle" x="294" y="-557.8" font-family="Times,serif" font-size="14.00">0</text>
<polyline fill="none" stroke="black" points="166,-542.5 317,-542.5 "/>
<text text-anchor="middle" x="241.5" y="-527.3" font-family="Times,serif" font-size="14.00">EvenIntegers</text>
<text text-anchor="middle" x="241.5" y="-512.3" font-family="Times,serif" font-size="14.00">NDivisibleIntegers</text>
</a>
</g>
</g>
<!-- Rng&#45;&gt;MultiplicativeSemiGroup -->
<g id="edge6" class="edge">
<title>Rng&#45;&gt;MultiplicativeSemiGroup</title>
<path fill="none" stroke="black" d="M254.6,-504.46C266.81,-461.51 285.23,-402.69 299.5,-383 307.52,-371.94 317.78,-361.84 328.55,-352.97"/>
<polygon fill="none" stroke="black" points="330.78,-355.67 336.46,-346.72 326.44,-350.17 330.78,-355.67"/>
</g>
<!-- AdditiveAbelianGroup -->
<g id="node8" class="node">
<title>AdditiveAbelianGroup</title>
<g id="a_node8"><a xlink:href="https://github.com/mihxil/math/blob/main/mihxil-math/src/main/java/org/meeuw/math/abstractalgebra/AdditiveAbelianGroup.java" xlink:title="{\N|{ + &#160;&#45; \n⇆ | 0}}">
<polygon fill="none" stroke="black" points="79,-395 79,-456 252,-456 252,-395 79,-395"/>
<text text-anchor="middle" x="165.5" y="-440.8" font-family="Times,serif" font-size="14.00">AdditiveAbelianGroup</text>
<polyline fill="none" stroke="black" points="79,-433 252,-433 "/>
<text text-anchor="middle" x="126" y="-417.8" font-family="Times,serif" font-size="14.00">+ &#45; </text>
<text text-anchor="middle" x="126" y="-402.8" font-family="Times,serif" font-size="14.00">⇆</text>
<polyline fill="none" stroke="black" points="173,-395 173,-433 "/>
<text text-anchor="middle" x="212.5" y="-410.3" font-family="Times,serif" font-size="14.00">0</text>
</a>
</g>
</g>
<!-- Rng&#45;&gt;AdditiveAbelianGroup -->
<g id="edge7" class="edge">
<title>Rng&#45;&gt;AdditiveAbelianGroup</title>
<path fill="none" stroke="black" d="M212.33,-504.45C204.45,-491.33 196.03,-477.32 188.54,-464.85"/>
<polygon fill="none" stroke="black" points="191.41,-462.84 183.26,-456.07 185.41,-466.44 191.41,-462.84"/>
</g>
<!-- AdditiveAbelianGroup&#45;&gt;AdditiveAbelianSemiGroup -->
<g id="edge9" class="edge">
<title>AdditiveAbelianGroup&#45;&gt;AdditiveAbelianSemiGroup</title>
<path fill="none" stroke="black" d="M177.98,-394.62C193.38,-357.76 219.8,-294.52 238.38,-250.05"/>
<polygon fill="none" stroke="black" points="241.71,-251.16 242.34,-240.58 235.25,-248.46 241.71,-251.16"/>
</g>
<!-- AdditiveGroup -->
<g id="node10" class="node">
<title>AdditiveGroup</title>
<g id="a_node10"><a xlink:href="https://github.com/mihxil/math/blob/main/mihxil-math/src/main/java/org/meeuw/math/abstractalgebra/AdditiveGroup.java" xlink:title="{\N|{ + &#160;&#45; &#160;| 0}}">
<polygon fill="none" stroke="black" points="36.5,-289 36.5,-335 156.5,-335 156.5,-289 36.5,-289"/>
<text text-anchor="middle" x="96.5" y="-319.8" font-family="Times,serif" font-size="14.00">AdditiveGroup</text>
<polyline fill="none" stroke="black" points="36.5,-312 156.5,-312 "/>
<text text-anchor="middle" x="69.5" y="-296.8" font-family="Times,serif" font-size="14.00">+ &#45;</text>
<polyline fill="none" stroke="black" points="102.5,-289 102.5,-312 "/>
<text text-anchor="middle" x="129.5" y="-296.8" font-family="Times,serif" font-size="14.00">0</text>
</a>
</g>
</g>
<!-- AdditiveAbelianGroup&#45;&gt;AdditiveGroup -->
<g id="edge10" class="edge">
<title>AdditiveAbelianGroup&#45;&gt;AdditiveGroup</title>
<path fill="none" stroke="black" d="M147.19,-394.91C137.51,-379.27 125.63,-360.08 115.81,-344.2"/>
<polygon fill="none" stroke="black" points="118.53,-341.95 110.3,-335.29 112.58,-345.64 118.53,-341.95"/>
</g>
<!-- MultiplicativeAbelianSemiGroup -->
<g id="node9" class="node">
<title>MultiplicativeAbelianSemiGroup</title>
<g id="a_node9"><a xlink:href="https://github.com/mihxil/math/blob/main/mihxil-math/src/main/java/org/meeuw/math/abstractalgebra/MultiplicativeAbelianSemiGroup.java" xlink:title="{\N|{ * \n⇆}|OddIntegers}">
<polygon fill="none" stroke="black" points="495,-383.5 495,-467.5 744,-467.5 744,-383.5 495,-383.5"/>
<text text-anchor="middle" x="619.5" y="-452.3" font-family="Times,serif" font-size="14.00">MultiplicativeAbelianSemiGroup</text>
<polyline fill="none" stroke="black" points="495,-444.5 744,-444.5 "/>
<text text-anchor="middle" x="619.5" y="-429.3" font-family="Times,serif" font-size="14.00">* </text>
<text text-anchor="middle" x="619.5" y="-414.3" font-family="Times,serif" font-size="14.00">⇆</text>
<polyline fill="none" stroke="black" points="495,-406.5 744,-406.5 "/>
<text text-anchor="middle" x="619.5" y="-391.3" font-family="Times,serif" font-size="14.00">OddIntegers</text>
</a>
</g>
</g>
<!-- MultiplicativeAbelianSemiGroup&#45;&gt;MultiplicativeSemiGroup -->
<g id="edge8" class="edge">
<title>MultiplicativeAbelianSemiGroup&#45;&gt;MultiplicativeSemiGroup</title>
<path fill="none" stroke="black" d="M535.94,-383.46C514.37,-372.86 491.25,-361.5 470,-351.07"/>
<polygon fill="none" stroke="black" points="471.54,-347.92 461.02,-346.66 468.45,-354.21 471.54,-347.92"/>
</g>
<!-- AdditiveGroup&#45;&gt;AdditiveMonoid -->
<g id="edge11" class="edge">
<title>AdditiveGroup&#45;&gt;AdditiveMonoid</title>
<path fill="none" stroke="black" d="M90.97,-288.97C88.2,-277.94 84.72,-264.09 81.33,-250.6"/>
<polygon fill="none" stroke="black" points="84.72,-249.74 78.89,-240.89 77.93,-251.44 84.72,-249.74"/>
</g>
<!-- MultiplicativeGroup -->
<g id="node11" class="node">
<title>MultiplicativeGroup</title>
<g id="a_node11"><a xlink:href="https://github.com/mihxil/math/blob/main/mihxil-math/src/main/java/org/meeuw/math/abstractalgebra/MultiplicativeGroup.java" xlink:title="{\N|{ * &#160;/ &#160;| 1}|PermutationGroup\nGL₂(ℚ)}">
<polygon fill="none" stroke="black" points="335.5,-512 335.5,-596 495.5,-596 495.5,-512 335.5,-512"/>
<text text-anchor="middle" x="415.5" y="-580.8" font-family="Times,serif" font-size="14.00">MultiplicativeGroup</text>
<polyline fill="none" stroke="black" points="335.5,-573 495.5,-573 "/>
<text text-anchor="middle" x="377" y="-557.8" font-family="Times,serif" font-size="14.00">* /</text>
<polyline fill="none" stroke="black" points="418.5,-550 418.5,-573 "/>
<text text-anchor="middle" x="457" y="-557.8" font-family="Times,serif" font-size="14.00">1</text>
<polyline fill="none" stroke="black" points="335.5,-550 495.5,-550 "/>
<text text-anchor="middle" x="415.5" y="-534.8" font-family="Times,serif" font-size="14.00">PermutationGroup</text>
<text text-anchor="middle" x="415.5" y="-519.8" font-family="Times,serif" font-size="14.00">GL₂(ℚ)</text>
</a>
</g>
</g>
<!-- MultiplicativeGroup&#45;&gt;MultiplicativeMonoid -->
<g id="edge12" class="edge">
<title>MultiplicativeGroup&#45;&gt;MultiplicativeMonoid</title>
<path fill="none" stroke="black" d="M408.03,-511.93C406.04,-500.99 403.87,-489.04 401.8,-477.64"/>
<polygon fill="none" stroke="black" points="405.24,-477.01 400.01,-467.8 398.35,-478.26 405.24,-477.01"/>
</g>
<!-- Ring -->
<g id="node12" class="node">
<title>Ring</title>
<g id="a_node12"><a xlink:href="https://github.com/mihxil/math/blob/main/mihxil-math/src/main/java/org/meeuw/math/abstractalgebra/Ring.java" xlink:title="{\N|{ + &#160;&#45; \n⇆ | &#160;* &#160;| 0 | 1}|ModuloStructure}">
<polygon fill="none" stroke="black" points="187,-640.5 187,-724.5 326,-724.5 326,-640.5 187,-640.5"/>
<text text-anchor="middle" x="256.5" y="-709.3" font-family="Times,serif" font-size="14.00">Ring</text>
<polyline fill="none" stroke="black" points="187,-701.5 326,-701.5 "/>
<text text-anchor="middle" x="210.5" y="-686.3" font-family="Times,serif" font-size="14.00">+ &#45; </text>
<text text-anchor="middle" x="210.5" y="-671.3" font-family="Times,serif" font-size="14.00">⇆</text>
<polyline fill="none" stroke="black" points="234,-663.5 234,-701.5 "/>
<text text-anchor="middle" x="248.5" y="-678.8" font-family="Times,serif" font-size="14.00">*</text>
<polyline fill="none" stroke="black" points="263,-663.5 263,-701.5 "/>
<text text-anchor="middle" x="278.5" y="-678.8" font-family="Times,serif" font-size="14.00">0</text>
<polyline fill="none" stroke="black" points="294,-663.5 294,-701.5 "/>
<text text-anchor="middle" x="310" y="-678.8" font-family="Times,serif" font-size="14.00">1</text>
<polyline fill="none" stroke="black" points="187,-663.5 326,-663.5 "/>
<text text-anchor="middle" x="256.5" y="-648.3" font-family="Times,serif" font-size="14.00">ModuloStructure</text>
</a>
</g>
</g>
<!-- Ring&#45;&gt;Rng -->
<g id="edge13" class="edge">
<title>Ring&#45;&gt;Rng</title>
<path fill="none" stroke="black" d="M251.63,-640.43C250.62,-631.94 249.54,-622.84 248.48,-613.85"/>
<polygon fill="none" stroke="black" points="251.94,-613.32 247.29,-603.8 244.99,-614.14 251.94,-613.32"/>
</g>
<!-- MultiplicativeAbelianGroup -->
<g id="node13" class="node">
<title>MultiplicativeAbelianGroup</title>
<g id="a_node13"><a xlink:href="https://github.com/mihxil/math/blob/main/mihxil-math/src/main/java/org/meeuw/math/abstractalgebra/MultiplicativeAbelianGroup.java" xlink:title="{\N|{ * &#160;/ \n⇆ | 1}}">
<polygon fill="none" stroke="black" points="439,-652 439,-713 652,-713 652,-652 439,-652"/>
<text text-anchor="middle" x="545.5" y="-697.8" font-family="Times,serif" font-size="14.00">MultiplicativeAbelianGroup</text>
<polyline fill="none" stroke="black" points="439,-690 652,-690 "/>
<text text-anchor="middle" x="495" y="-674.8" font-family="Times,serif" font-size="14.00">* / </text>
<text text-anchor="middle" x="495" y="-659.8" font-family="Times,serif" font-size="14.00">⇆</text>
<polyline fill="none" stroke="black" points="551,-652 551,-690 "/>
<text text-anchor="middle" x="601.5" y="-667.3" font-family="Times,serif" font-size="14.00">1</text>
</a>
</g>
</g>
<!-- MultiplicativeAbelianGroup&#45;&gt;MultiplicativeAbelianSemiGroup -->
<g id="edge14" class="edge">
<title>MultiplicativeAbelianGroup&#45;&gt;MultiplicativeAbelianSemiGroup</title>
<path fill="none" stroke="black" d="M554.06,-652C566.43,-609.38 589.47,-529.99 604.64,-477.69"/>
<polygon fill="none" stroke="black" points="608.05,-478.52 607.48,-467.94 601.33,-476.56 608.05,-478.52"/>
</g>
<!-- MultiplicativeAbelianGroup&#45;&gt;MultiplicativeGroup -->
<g id="edge15" class="edge">
<title>MultiplicativeAbelianGroup&#45;&gt;MultiplicativeGroup</title>
<path fill="none" stroke="black" d="M515.02,-651.84C500.31,-637.53 482.28,-619.98 465.63,-603.78"/>
<polygon fill="none" stroke="black" points="467.7,-600.91 458.09,-596.44 462.82,-605.93 467.7,-600.91"/>
</g>
<!-- DivisionRing -->
<g id="node14" class="node">
<title>DivisionRing</title>
<g id="a_node14"><a xlink:href="https://github.com/mihxil/math/blob/main/mihxil-math/src/main/java/org/meeuw/math/abstractalgebra/DivisionRing.java" xlink:title="{\N|{ + &#160;&#45; \n⇆ | &#160;* &#160;/ &#160;| 0 | 1}|Quaternions}">
<polygon fill="none" stroke="black" points="339.5,-761.5 339.5,-845.5 465.5,-845.5 465.5,-761.5 339.5,-761.5"/>
<text text-anchor="middle" x="402.5" y="-830.3" font-family="Times,serif" font-size="14.00">DivisionRing</text>
<polyline fill="none" stroke="black" points="339.5,-822.5 465.5,-822.5 "/>
<text text-anchor="middle" x="360.5" y="-807.3" font-family="Times,serif" font-size="14.00">+ &#45; </text>
<text text-anchor="middle" x="360.5" y="-792.3" font-family="Times,serif" font-size="14.00">⇆</text>
<polyline fill="none" stroke="black" points="381.5,-784.5 381.5,-822.5 "/>
<text text-anchor="middle" x="397.5" y="-799.8" font-family="Times,serif" font-size="14.00">* /</text>
<polyline fill="none" stroke="black" points="413.5,-784.5 413.5,-822.5 "/>
<text text-anchor="middle" x="426.5" y="-799.8" font-family="Times,serif" font-size="14.00">0</text>
<polyline fill="none" stroke="black" points="439.5,-784.5 439.5,-822.5 "/>
<text text-anchor="middle" x="452.5" y="-799.8" font-family="Times,serif" font-size="14.00">1</text>
<polyline fill="none" stroke="black" points="339.5,-784.5 465.5,-784.5 "/>
<text text-anchor="middle" x="402.5" y="-769.3" font-family="Times,serif" font-size="14.00">Quaternions</text>
</a>
</g>
</g>
<!-- DivisionRing&#45;&gt;MultiplicativeGroup -->
<g id="edge16" class="edge">
<title>DivisionRing&#45;&gt;MultiplicativeGroup</title>
<path fill="none" stroke="black" d="M404.66,-761.35C406.9,-718.8 410.39,-652.26 412.81,-606.3"/>
<polygon fill="none" stroke="black" points="416.3,-606.42 413.33,-596.25 409.31,-606.05 416.3,-606.42"/>
</g>
<!-- DivisionRing&#45;&gt;Ring -->
<g id="edge17" class="edge">
<title>DivisionRing&#45;&gt;Ring</title>
<path fill="none" stroke="black" d="M351.85,-761.21C339.96,-751.52 327.19,-741.12 314.99,-731.17"/>
<polygon fill="none" stroke="black" points="317.03,-728.32 307.06,-724.71 312.6,-733.74 317.03,-728.32"/>
</g>
<!-- AbelianRing -->
<g id="node15" class="node">
<title>AbelianRing</title>
<g id="a_node15"><a xlink:href="https://github.com/mihxil/math/blob/main/mihxil-math/src/main/java/org/meeuw/math/abstractalgebra/AbelianRing.java" xlink:title="{\N|{ + &#160;&#45; \n⇆ | &#160;* \n⇆ | 0 | 1}}">
<polygon fill="none" stroke="black" points="195,-773 195,-834 318,-834 318,-773 195,-773"/>
<text text-anchor="middle" x="256.5" y="-818.8" font-family="Times,serif" font-size="14.00">AbelianRing</text>
<polyline fill="none" stroke="black" points="195,-811 318,-811 "/>
<text text-anchor="middle" x="216" y="-795.8" font-family="Times,serif" font-size="14.00">+ &#45; </text>
<text text-anchor="middle" x="216" y="-780.8" font-family="Times,serif" font-size="14.00">⇆</text>
<polyline fill="none" stroke="black" points="237,-773 237,-811 "/>
<text text-anchor="middle" x="251.5" y="-795.8" font-family="Times,serif" font-size="14.00">* </text>
<text text-anchor="middle" x="251.5" y="-780.8" font-family="Times,serif" font-size="14.00">⇆</text>
<polyline fill="none" stroke="black" points="266,-773 266,-811 "/>
<text text-anchor="middle" x="279" y="-788.3" font-family="Times,serif" font-size="14.00">0</text>
<polyline fill="none" stroke="black" points="292,-773 292,-811 "/>
<text text-anchor="middle" x="305" y="-788.3" font-family="Times,serif" font-size="14.00">1</text>
</a>
</g>
</g>
<!-- AbelianRing&#45;&gt;Ring -->
<g id="edge18" class="edge">
<title>AbelianRing&#45;&gt;Ring</title>
<path fill="none" stroke="black" d="M256.5,-772.78C256.5,-761.26 256.5,-747.74 256.5,-734.75"/>
<polygon fill="none" stroke="black" points="260,-734.5 256.5,-724.5 253,-734.5 260,-734.5"/>
</g>
<!-- DivisibleGroup -->
<g id="node16" class="node">
<title>DivisibleGroup</title>
<g id="a_node16"><a xlink:href="https://github.com/mihxil/math/blob/main/mihxil-math/src/main/java/org/meeuw/math/abstractalgebra/DivisibleGroup.java" xlink:title="{\N|{ * &#160;/ \n⇆ | 1}}">
<polygon fill="none" stroke="black" points="484,-773 484,-834 607,-834 607,-773 484,-773"/>
<text text-anchor="middle" x="545.5" y="-818.8" font-family="Times,serif" font-size="14.00">DivisibleGroup</text>
<polyline fill="none" stroke="black" points="484,-811 607,-811 "/>
<text text-anchor="middle" x="517.5" y="-795.8" font-family="Times,serif" font-size="14.00">* / </text>
<text text-anchor="middle" x="517.5" y="-780.8" font-family="Times,serif" font-size="14.00">⇆</text>
<polyline fill="none" stroke="black" points="551,-773 551,-811 "/>
<text text-anchor="middle" x="579" y="-788.3" font-family="Times,serif" font-size="14.00">1</text>
</a>
</g>
</g>
<!-- DivisibleGroup&#45;&gt;MultiplicativeAbelianGroup -->
<g id="edge19" class="edge">
<title>DivisibleGroup&#45;&gt;MultiplicativeAbelianGroup</title>
<path fill="none" stroke="black" d="M545.5,-772.78C545.5,-757.87 545.5,-739.6 545.5,-723.48"/>
<polygon fill="none" stroke="black" points="549,-723.26 545.5,-713.26 542,-723.26 549,-723.26"/>
</g>
<!-- Field -->
<g id="node17" class="node">
<title>Field</title>
<g id="a_node17"><a xlink:href="https://github.com/mihxil/math/blob/main/mihxil-math/src/main/java/org/meeuw/math/abstractalgebra/Field.java" xlink:title="{\N|{ + &#160;&#45; \n⇆ | &#160;* &#160;/ \n⇆ | 0 | 1}|ModuloField\nGaussianRationals}">
<polygon fill="none" stroke="black" points="331,-882.5 331,-981.5 480,-981.5 480,-882.5 331,-882.5"/>
<text text-anchor="middle" x="405.5" y="-966.3" font-family="Times,serif" font-size="14.00">Field</text>
<polyline fill="none" stroke="black" points="331,-958.5 480,-958.5 "/>
<text text-anchor="middle" x="354" y="-943.3" font-family="Times,serif" font-size="14.00">+ &#45; </text>
<text text-anchor="middle" x="354" y="-928.3" font-family="Times,serif" font-size="14.00">⇆</text>
<polyline fill="none" stroke="black" points="377,-920.5 377,-958.5 "/>
<text text-anchor="middle" x="398" y="-943.3" font-family="Times,serif" font-size="14.00">* / </text>
<text text-anchor="middle" x="398" y="-928.3" font-family="Times,serif" font-size="14.00">⇆</text>
<polyline fill="none" stroke="black" points="419,-920.5 419,-958.5 "/>
<text text-anchor="middle" x="434" y="-935.8" font-family="Times,serif" font-size="14.00">0</text>
<polyline fill="none" stroke="black" points="449,-920.5 449,-958.5 "/>
<text text-anchor="middle" x="464.5" y="-935.8" font-family="Times,serif" font-size="14.00">1</text>
<polyline fill="none" stroke="black" points="331,-920.5 480,-920.5 "/>
<text text-anchor="middle" x="405.5" y="-905.3" font-family="Times,serif" font-size="14.00">ModuloField</text>
<text text-anchor="middle" x="405.5" y="-890.3" font-family="Times,serif" font-size="14.00">GaussianRationals</text>
</a>
</g>
</g>
<!-- Field&#45;&gt;DivisionRing -->
<g id="edge20" class="edge">
<title>Field&#45;&gt;DivisionRing</title>
<path fill="none" stroke="black" d="M404.35,-882.45C404.14,-873.74 403.93,-864.63 403.72,-855.84"/>
<polygon fill="none" stroke="black" points="407.21,-855.63 403.48,-845.71 400.22,-855.79 407.21,-855.63"/>
</g>
<!-- Field&#45;&gt;AbelianRing -->
<g id="edge21" class="edge">
<title>Field&#45;&gt;AbelianRing</title>
<path fill="none" stroke="black" d="M348.32,-882.45C331.97,-868.57 314.43,-853.69 299.12,-840.68"/>
<polygon fill="none" stroke="black" points="301.22,-837.87 291.33,-834.07 296.69,-843.21 301.22,-837.87"/>
</g>
<!-- Field&#45;&gt;DivisibleGroup -->
<g id="edge22" class="edge">
<title>Field&#45;&gt;DivisibleGroup</title>
<path fill="none" stroke="black" d="M459.23,-882.45C474.45,-868.7 490.76,-853.96 505.06,-841.04"/>
<polygon fill="none" stroke="black" points="507.7,-843.37 512.78,-834.07 503.01,-838.18 507.7,-843.37"/>
</g>
<!-- VectorSpace -->
<g id="node18" class="node">
<title>VectorSpace</title>
<g id="a_node18"><a xlink:href="https://github.com/mihxil/math/blob/main/mihxil-math/src/main/java/org/meeuw/math/abstractalgebra/VectorSpace.java" xlink:title="{\N|{ + &#160;&#45; \n⇆ | &#160;* \n⇆ | 0 | 1}|Vector3Space}">
<polygon fill="none" stroke="black" points="190,-890 190,-974 313,-974 313,-890 190,-890"/>
<text text-anchor="middle" x="251.5" y="-958.8" font-family="Times,serif" font-size="14.00">VectorSpace</text>
<polyline fill="none" stroke="black" points="190,-951 313,-951 "/>
<text text-anchor="middle" x="211" y="-935.8" font-family="Times,serif" font-size="14.00">+ &#45; </text>
<text text-anchor="middle" x="211" y="-920.8" font-family="Times,serif" font-size="14.00">⇆</text>
<polyline fill="none" stroke="black" points="232,-913 232,-951 "/>
<text text-anchor="middle" x="246.5" y="-935.8" font-family="Times,serif" font-size="14.00">* </text>
<text text-anchor="middle" x="246.5" y="-920.8" font-family="Times,serif" font-size="14.00">⇆</text>
<polyline fill="none" stroke="black" points="261,-913 261,-951 "/>
<text text-anchor="middle" x="274" y="-928.3" font-family="Times,serif" font-size="14.00">0</text>
<polyline fill="none" stroke="black" points="287,-913 287,-951 "/>
<text text-anchor="middle" x="300" y="-928.3" font-family="Times,serif" font-size="14.00">1</text>
<polyline fill="none" stroke="black" points="190,-913 313,-913 "/>
<text text-anchor="middle" x="251.5" y="-897.8" font-family="Times,serif" font-size="14.00">Vector3Space</text>
</a>
</g>
</g>
<!-- VectorSpace&#45;&gt;AbelianRing -->
<g id="edge23" class="edge">
<title>VectorSpace&#45;&gt;AbelianRing</title>
<path fill="none" stroke="black" d="M253.12,-889.93C253.7,-875.3 254.35,-858.86 254.93,-844.33"/>
<polygon fill="none" stroke="black" points="258.43,-844.28 255.33,-834.15 251.44,-844.01 258.43,-844.28"/>
</g>
<!-- ScalarField -->
<g id="node19" class="node">
<title>ScalarField</title>
<g id="a_node19"><a xlink:href="https://github.com/mihxil/math/blob/main/mihxil-math/src/main/java/org/meeuw/math/abstractalgebra/ScalarField.java" xlink:title="{\N|{ + &#160;&#45; \n⇆ | &#160;* &#160;/ \n⇆ | 0 | 1}|RationalNumbers}">
<polygon fill="none" stroke="black" points="334.5,-1018.5 334.5,-1102.5 476.5,-1102.5 476.5,-1018.5 334.5,-1018.5"/>
<text text-anchor="middle" x="405.5" y="-1087.3" font-family="Times,serif" font-size="14.00">ScalarField</text>
<polyline fill="none" stroke="black" points="334.5,-1079.5 476.5,-1079.5 "/>
<text text-anchor="middle" x="356.5" y="-1064.3" font-family="Times,serif" font-size="14.00">+ &#45; </text>
<text text-anchor="middle" x="356.5" y="-1049.3" font-family="Times,serif" font-size="14.00">⇆</text>
<polyline fill="none" stroke="black" points="378.5,-1041.5 378.5,-1079.5 "/>
<text text-anchor="middle" x="398.5" y="-1064.3" font-family="Times,serif" font-size="14.00">* / </text>
<text text-anchor="middle" x="398.5" y="-1049.3" font-family="Times,serif" font-size="14.00">⇆</text>
<polyline fill="none" stroke="black" points="418.5,-1041.5 418.5,-1079.5 "/>
<text text-anchor="middle" x="433" y="-1056.8" font-family="Times,serif" font-size="14.00">0</text>
<polyline fill="none" stroke="black" points="447.5,-1041.5 447.5,-1079.5 "/>
<text text-anchor="middle" x="462" y="-1056.8" font-family="Times,serif" font-size="14.00">1</text>
<polyline fill="none" stroke="black" points="334.5,-1041.5 476.5,-1041.5 "/>
<text text-anchor="middle" x="405.5" y="-1026.3" font-family="Times,serif" font-size="14.00">RationalNumbers</text>
</a>
</g>
</g>
<!-- ScalarField&#45;&gt;Field -->
<g id="edge24" class="edge">
<title>ScalarField&#45;&gt;Field</title>
<path fill="none" stroke="black" d="M405.5,-1018.43C405.5,-1009.94 405.5,-1000.84 405.5,-991.85"/>
<polygon fill="none" stroke="black" points="409,-991.8 405.5,-981.8 402,-991.8 409,-991.8"/>
</g>
<!-- CompleteField -->
<g id="node20" class="node">
<title>CompleteField</title>
<g id="a_node20"><a xlink:href="https://github.com/mihxil/math/blob/main/mihxil-math/src/main/java/org/meeuw/math/abstractalgebra/CompleteField.java" xlink:title="{\N|{ + &#160;&#45; \n⇆ | &#160;* &#160;/ \n⇆ | 0 | 1}|BigDecimalField\nRealField}">
<polygon fill="none" stroke="black" points="338.5,-1139.5 338.5,-1238.5 472.5,-1238.5 472.5,-1139.5 338.5,-1139.5"/>
<text text-anchor="middle" x="405.5" y="-1223.3" font-family="Times,serif" font-size="14.00">CompleteField</text>
<polyline fill="none" stroke="black" points="338.5,-1215.5 472.5,-1215.5 "/>
<text text-anchor="middle" x="359.5" y="-1200.3" font-family="Times,serif" font-size="14.00">+ &#45; </text>
<text text-anchor="middle" x="359.5" y="-1185.3" font-family="Times,serif" font-size="14.00">⇆</text>
<polyline fill="none" stroke="black" points="380.5,-1177.5 380.5,-1215.5 "/>
<text text-anchor="middle" x="399.5" y="-1200.3" font-family="Times,serif" font-size="14.00">* / </text>
<text text-anchor="middle" x="399.5" y="-1185.3" font-family="Times,serif" font-size="14.00">⇆</text>
<polyline fill="none" stroke="black" points="418.5,-1177.5 418.5,-1215.5 "/>
<text text-anchor="middle" x="432" y="-1192.8" font-family="Times,serif" font-size="14.00">0</text>
<polyline fill="none" stroke="black" points="445.5,-1177.5 445.5,-1215.5 "/>
<text text-anchor="middle" x="459" y="-1192.8" font-family="Times,serif" font-size="14.00">1</text>
<polyline fill="none" stroke="black" points="338.5,-1177.5 472.5,-1177.5 "/>
<text text-anchor="middle" x="405.5" y="-1162.3" font-family="Times,serif" font-size="14.00">BigDecimalField</text>
<text text-anchor="middle" x="405.5" y="-1147.3" font-family="Times,serif" font-size="14.00">RealField</text>
</a>
</g>
</g>
<!-- CompleteField&#45;&gt;ScalarField -->
<g id="edge25" class="edge">
<title>CompleteField&#45;&gt;ScalarField</title>
<path fill="none" stroke="black" d="M405.5,-1139.45C405.5,-1130.74 405.5,-1121.63 405.5,-1112.84"/>
<polygon fill="none" stroke="black" points="409,-1112.71 405.5,-1102.71 402,-1112.71 409,-1112.71"/>
</g>
</g>
</svg>
